# https://github.com/mikedh/trimesh
v 0.00199309 0.00800070 0.02836441
v 0.00004763 0.00500064 0.03901695
v 0.00154210 0.00500064 0.03893096
v 0.00301884 0.00500065 0.03868589
v 0.00981650 0.00500067 0.03496999
v 0.00410887 0.00500065 0.03838253
v 0.00585201 0.00500065 0.03773151
v 0.00717605 0.00500066 0.03703313
v 0.00841795 0.00500066 0.03619736
v 0.00956352 0.00500067 0.03523377
v 0.00446097 0.00500065 0.03828454
v 0.01059966 0.00500067 0.03415338
v 0.01151451 0.00500068 0.03296853
v 0.01229763 0.00500069 0.03169278
v 0.01229764 -0.00499931 0.03169272
v 0.01059966 -0.00499933 0.03415333
v 0.00956352 -0.00499933 0.03523372
v 0.00841796 -0.00499934 0.03619731
v 0.00717605 -0.00499934 0.03703307
v 0.00585202 -0.00499935 0.03773146
v 0.00446098 -0.00499935 0.03828449
v 0.00301884 -0.00499935 0.03868583
v 0.00154210 -0.00499936 0.03893090
v 0.00004763 -0.00499936 0.03901690
v 0.01151452 -0.00499932 0.03296848
v 0.00204441 -0.00799930 0.02845016
v -0.01707975 0.00800063 0.03954454
v -0.01707974 -0.00799937 0.03954446
v -0.01736941 0.00800063 0.03968295
v -0.01736941 -0.00799937 0.03968287
v -0.01767222 0.00800063 0.03978961
v -0.01767221 -0.00799937 0.03978953
v -0.01798468 0.00800063 0.03986331
v -0.01798468 -0.00799937 0.03986322
v -0.01830323 0.00800063 0.03990319
v -0.01830323 -0.00799937 0.03990310
v -0.01862422 0.00800063 0.03990880
v -0.01884192 0.00800063 0.03989301
v -0.01894381 0.00799636 0.03987891
v -0.01894389 -0.00799617 0.03987956
v -0.01892730 -0.00799754 0.03988235
v -0.01884191 -0.00799937 0.03989292
v -0.01914435 -0.00797621 0.03984306
v -0.01909903 -0.00798339 0.03985349
v -0.01914463 0.00797677 0.03984258
v -0.01921202 0.00796827 0.03982892
v -0.01899096 0.00799438 0.03987239
v -0.01901195 0.00799350 0.03986949
v -0.01946042 -0.00791283 0.03975809
v -0.01927745 -0.00795512 0.03981245
v -0.01956515 -0.00788301 0.03972123
v -0.01930137 0.00794957 0.03980423
v -0.01941702 0.00792535 0.03977228
v -0.01946275 0.00791355 0.03975748
v -0.01946275 -0.00791229 0.03975739
v -0.01956697 -0.00788249 0.03972059
v -0.01985846 -0.00777616 0.03959108
v -0.01968603 0.00784482 0.03967323
v -0.01978853 -0.00780593 0.03962745
v -0.01985831 0.00777699 0.03959068
v -0.02001013 -0.00771161 0.03951218
v -0.02009853 0.00766778 0.03945593
v -0.01993606 0.00774638 0.03955342
v -0.02023056 -0.00759984 0.03937250
v -0.02025279 0.00758771 0.03935519
v -0.02017998 0.00762838 0.03940705
v -0.02023057 0.00760110 0.03937258
v -0.02039875 -0.00750174 0.03924626
v -0.02040124 -0.00750029 0.03924439
v -0.02049360 0.00744259 0.03916675
v -0.02054417 0.00740637 0.03911721
v -0.02063109 -0.00734629 0.03903831
v -0.02085153 -0.00717255 0.03879250
v -0.02068051 0.00730872 0.03898367
v -0.02073066 0.00727280 0.03893455
v -0.02084301 -0.00718036 0.03880421
v -0.02080925 -0.00720679 0.03884150
v -0.02084863 0.00717328 0.03879015
v -0.02089018 -0.00713710 0.03873935
v -0.02103433 -0.00700492 0.03854116
v -0.02103434 0.00700620 0.03854124
v -0.02103991 0.00700064 0.03853261
v -0.02103990 -0.00699936 0.03853254
v -0.02092953 0.00710503 0.03869111
v -0.02094092 0.00709542 0.03867717
v -0.01862421 -0.00799937 0.03990872
v 0.02192108 -0.00799922 0.01566702
v 0.02192108 0.00800078 0.01566710
v 0.02176420 0.00800077 0.01594720
v 0.02176421 -0.00799923 0.01594712
v 0.02157829 0.00800077 0.01620893
v 0.02157830 -0.00799923 0.01620885
v 0.02136548 0.00800077 0.01644930
v 0.02136548 -0.00799923 0.01644922
v 0.02112820 0.00800077 0.01666555
v 0.02112820 -0.00799923 0.01666546
v 0.02086917 0.00800077 0.01685520
v 0.02086917 -0.00799923 0.01685512
v 0.02185221 0.00700079 0.01288777
v 0.02193271 -0.00709400 0.01304331
v 0.02185718 -0.00700477 0.01289668
v 0.02193960 -0.00710360 0.01305994
v 0.02185718 0.00700635 0.01289676
v 0.02198854 -0.00717186 0.01317809
v 0.02196353 0.00713853 0.01311755
v 0.02199205 0.00717397 0.01317675
v 0.02201520 0.00720822 0.01323718
v 0.02199834 0.00718179 0.01318980
v 0.02205990 -0.00727138 0.01335035
v 0.02217698 0.00750171 0.01378730
v 0.02215224 -0.00744117 0.01366908
v 0.02213254 -0.00740495 0.01360109
v 0.02210424 0.00734771 0.01348728
v 0.02220905 0.00760126 0.01399828
v 0.02220426 -0.00758630 0.01397040
v 0.02221548 -0.00762696 0.01405908
v 0.02220906 -0.00759969 0.01399820
v 0.02217745 0.00750316 0.01379038
v 0.02221998 -0.00766637 0.01415397
v 0.02222776 0.00771302 0.01425857
v 0.02221700 0.00764872 0.01410882
v 0.02222498 -0.00777558 0.01442935
v 0.02222896 -0.00774496 0.01434323
v 0.02220159 0.00788390 0.01474759
v 0.02222547 0.00777757 0.01442952
v 0.02221615 -0.00784341 0.01462019
v 0.02222441 0.00780734 0.01450835
v 0.02220129 0.00788442 0.01474950
v 0.02214948 -0.00794816 0.01502103
v 0.02217608 -0.00792394 0.01490403
v 0.02218468 -0.00791214 0.01485674
v 0.02218418 0.00791424 0.01485920
v 0.02214547 0.00795653 0.01504611
v 0.02218467 0.00791370 0.01485683
v 0.02214039 0.00795950 0.01506467
v 0.02204603 -0.00799495 0.01537135
v 0.02210943 0.00797762 0.01517785
v 0.02209716 0.00798480 0.01522271
v 0.02206211 0.00799368 0.01532623
v 0.02212893 -0.00796686 0.01511143
v 0.02206260 -0.00799298 0.01532673
v 0.02206998 -0.00799210 0.01530687
v 0.02201021 -0.00799922 0.01546778
v 0.02204671 0.00799758 0.01537170
v 0.02204131 0.00799894 0.01538764
v 0.02201020 0.00800078 0.01546786
v 0.02185222 -0.00699921 0.01288770
v -0.02225399 -0.00699935 0.03642432
v -0.02225400 0.00700065 0.03642439
v -0.02334999 -0.00699934 0.03397040
v -0.02334999 0.00700066 0.03397047
v -0.02421770 -0.00699933 0.03121347
v -0.02417623 -0.00699933 0.03141301
v -0.02417623 0.00700067 0.03141308
v -0.02472316 -0.00699931 0.02878170
v -0.02472317 0.00700069 0.02878177
v -0.02421771 0.00700067 0.03121355
v -0.02498449 0.00700070 0.02610696
v -0.02498448 -0.00699930 0.02610689
v -0.02493920 -0.00699928 0.02326769
v -0.02495716 -0.00699929 0.02341948
v -0.02495716 0.00700071 0.02341955
v -0.02464150 -0.00699927 0.02075053
v -0.02464151 0.00700073 0.02075060
v -0.02493921 0.00700071 0.02326777
v -0.02400234 -0.00699926 0.01801854
v -0.02404117 -0.00699926 0.01813089
v -0.02404118 0.00700074 0.01813096
v -0.02311967 -0.00699924 0.01549866
v -0.02316310 -0.00699924 0.01559083
v -0.02316311 0.00700076 0.01559090
v -0.02400234 0.00700074 0.01801861
v -0.02197321 -0.00699923 0.01308723
v -0.02201744 -0.00699923 0.01315970
v -0.02201744 0.00700077 0.01315977
v -0.02311968 0.00700076 0.01549873
v -0.02061742 -0.00699922 0.01086561
v -0.02061743 0.00700078 0.01086568
v -0.02197322 0.00700077 0.01308730
v -0.01897924 0.00700079 0.00873513
v -0.01897923 -0.00699921 0.00873505
v -0.01709583 -0.00699919 0.00677078
v -0.01712180 -0.00699919 0.00679267
v -0.01712181 0.00700081 0.00679274
v -0.01505251 -0.00699918 0.00505141
v -0.01506659 -0.00699918 0.00506089
v -0.01506660 0.00700082 0.00506097
v -0.01709584 0.00700081 0.00677086
v -0.01505252 0.00700082 0.00505148
v -0.01283737 0.00700082 0.00355982
v -0.01283736 -0.00699918 0.00355974
v -0.01047490 0.00700083 0.00231456
v -0.00799316 -0.00699916 0.00132837
v -0.01045987 -0.00699917 0.00230657
v -0.01045988 0.00700083 0.00230664
v -0.01047489 -0.00699917 0.00231449
v -0.00796159 -0.00699916 0.00131585
v -0.00796160 0.00700084 0.00131593
v -0.00799317 0.00700084 0.00132845
v -0.00537140 -0.00699916 0.00059904
v -0.00537141 0.00700084 0.00059912
v -0.00012050 -0.00699915 0.00002167
v -0.00271923 -0.00699915 0.00016442
v -0.00271923 0.00700085 0.00016450
v -0.00003573 0.00700085 0.00001709
v 0.00254634 0.00700085 0.00015323
v 0.00254635 -0.00699915 0.00015316
v -0.00012051 0.00700085 0.00002175
v -0.00003572 -0.00699915 0.00001702
v 0.00264810 -0.00699915 0.00015852
v 0.00264809 0.00700085 0.00015860
v 0.00518387 0.00700085 0.00056842
v 0.00530122 -0.00699915 0.00058731
v 0.00530121 0.00700085 0.00058739
v 0.00518387 -0.00699915 0.00056835
v 0.01025123 -0.00699916 0.00222762
v 0.00789298 -0.00699915 0.00129843
v 0.00789298 0.00700084 0.00129850
v 0.01039343 -0.00699916 0.00228365
v 0.01039343 0.00700084 0.00228373
v 0.01025123 0.00700084 0.00222770
v 0.01277367 0.00700084 0.00353167
v 0.01277367 -0.00699916 0.00353160
v 0.01690907 -0.00699918 0.00662412
v 0.01500620 -0.00699917 0.00502784
v 0.01500619 0.00700083 0.00502792
v 0.01706520 0.00700082 0.00675517
v 0.01690907 0.00700082 0.00662419
v 0.01706521 -0.00699918 0.00675510
v 0.01892690 -0.00699919 0.00869340
v 0.01892690 0.00700081 0.00869347
v 0.02056977 -0.00699920 0.01082034
v 0.02056976 0.00700080 0.01082042
v 0.01983269 -0.00799372 0.01132885
v 0.02038377 -0.00799921 0.01242706
v 0.02118742 -0.00799374 0.01353780
v 0.02109550 -0.00799921 0.01358758
v 0.01824867 -0.00799371 0.00927808
v 0.01974665 -0.00799920 0.01138820
v 0.01872976 -0.00799920 0.01007169
v 0.01645366 -0.00799371 0.00740921
v 0.01728781 -0.00799919 0.00842837
v 0.01663803 -0.00799919 0.00775186
v 0.01816950 -0.00799919 0.00934634
v 0.01638227 -0.00799918 0.00748557
v 0.01483558 -0.00799918 0.00618808
v 0.01446840 -0.00799370 0.00574383
v 0.01231584 -0.00799369 0.00430118
v 0.01359836 -0.00799917 0.00528637
v 0.01234583 -0.00799917 0.00444693
v 0.01440562 -0.00799918 0.00582740
v 0.01226240 -0.00799917 0.00439101
v 0.00997737 -0.00799916 0.00319298
v 0.00760997 -0.00799368 0.00214800
v 0.01002086 -0.00799369 0.00309793
v 0.00757693 -0.00799916 0.00224717
v 0.00508884 -0.00799916 0.00156450
v 0.00511104 -0.00799368 0.00146235
v 0.00254184 -0.00799916 0.00115286
v -0.00003474 -0.00799368 0.00091248
v 0.00255295 -0.00799368 0.00104892
v 0.00156739 -0.00799916 0.00110148
v -0.00262212 -0.00799368 0.00105461
v -0.00130865 -0.00799916 0.00108699
v -0.00003462 -0.00799916 0.00101701
v -0.00517930 -0.00799368 0.00147366
v -0.00261079 -0.00799916 0.00115852
v -0.00767671 -0.00799369 0.00216480
v -0.00635366 -0.00799916 0.00190695
v -0.00515687 -0.00799916 0.00157576
v -0.01008551 -0.00799369 0.00312003
v -0.00764346 -0.00799917 0.00226389
v -0.01237784 -0.00799370 0.00432831
v -0.01004181 -0.00799917 0.00321498
v -0.01452722 -0.00799371 0.00577569
v -0.01232420 -0.00799918 0.00441803
v -0.01650881 -0.00799372 0.00744544
v -0.01446426 -0.00799919 0.00585913
v -0.01829971 -0.00799373 0.00931825
v -0.01810411 -0.00799921 0.00926473
v -0.01643726 -0.00799920 0.00752163
v -0.01822039 -0.00799921 0.00938633
v -0.01979306 -0.00799922 0.01143166
v -0.02122909 -0.00799375 0.01358441
v -0.01987922 -0.00799374 0.01137249
v -0.02113707 -0.00799923 0.01363399
v -0.02233372 -0.00799377 0.01592846
v -0.02223691 -0.00799925 0.01596787
v -0.02307986 -0.00799926 0.01840633
v -0.02318034 -0.00799378 0.01837753
v -0.02365617 -0.00799927 0.02092118
v -0.02375917 -0.00799379 0.02090334
v -0.02406351 -0.00799381 0.02347669
v -0.02395920 -0.00799929 0.02348337
v -0.02398543 -0.00799930 0.02606328
v -0.02408986 -0.00799382 0.02606784
v -0.02397566 -0.00799930 0.02616325
v -0.02382906 -0.00799931 0.02766392
v -0.02383790 -0.00799383 0.02864685
v -0.02331056 -0.00799385 0.03118390
v -0.02362036 -0.00799932 0.02918057
v -0.02373457 -0.00799931 0.02863111
v -0.02309599 -0.00799933 0.03150850
v -0.02280762 -0.00799933 0.03240109
v -0.02251391 -0.00799386 0.03364969
v -0.02320951 -0.00799933 0.03115716
v -0.02204255 -0.00799934 0.03444911
v -0.02145718 -0.00799387 0.03601571
v -0.02241632 -0.00799934 0.03361226
v -0.02015256 -0.00799388 0.03825463
v -0.02075061 -0.00799936 0.03702097
v -0.02136416 -0.00799935 0.03596802
v 0.02127833 -0.00797736 0.01348856
v 0.01991779 -0.00797735 0.01127014
v 0.01832697 -0.00797734 0.00921058
v 0.01652426 -0.00797733 0.00733369
v 0.01453049 -0.00797732 0.00566117
v 0.01236870 -0.00797732 0.00421233
v 0.01006387 -0.00797731 0.00300392
v 0.00764264 -0.00797731 0.00204991
v 0.00513300 -0.00797730 0.00136133
v 0.00256394 -0.00797730 0.00094612
v -0.00003485 -0.00797730 0.00080910
v -0.00263333 -0.00797731 0.00095183
v -0.00520148 -0.00797731 0.00137268
v -0.00770960 -0.00797731 0.00206678
v -0.01012873 -0.00797732 0.00302611
v -0.01243089 -0.00797733 0.00423958
v -0.01458949 -0.00797734 0.00569317
v -0.01657958 -0.00797734 0.00737007
v -0.01837817 -0.00797736 0.00925092
v -0.01996445 -0.00797737 0.01131397
v -0.02132011 -0.00797738 0.01353538
v -0.02242947 -0.00797739 0.01588948
v -0.02327973 -0.00797741 0.01834906
v -0.02386104 -0.00797742 0.02088570
v -0.02416669 -0.00797743 0.02347009
v -0.02419314 -0.00797745 0.02607235
v -0.02394011 -0.00797746 0.02866242
v -0.02341050 -0.00797747 0.03121035
v -0.02261044 -0.00797749 0.03368672
v -0.02154917 -0.00797750 0.03606289
v 0.02136723 -0.00795027 0.01344041
v 0.02000101 -0.00795026 0.01121272
v 0.01840355 -0.00795025 0.00914456
v 0.01659331 -0.00795024 0.00725984
v 0.01459121 -0.00795023 0.00558033
v 0.01242039 -0.00795022 0.00412544
v 0.01010594 -0.00795022 0.00291198
v 0.00767460 -0.00795021 0.00195399
v 0.00515447 -0.00795021 0.00126253
v 0.00257468 -0.00795021 0.00084559
v -0.00003496 -0.00795021 0.00070799
v -0.00264430 -0.00795021 0.00085133
v -0.00522317 -0.00795022 0.00127393
v -0.00774177 -0.00795022 0.00197093
v -0.01017099 -0.00795023 0.00293427
v -0.01248278 -0.00795024 0.00415280
v -0.01465039 -0.00795024 0.00561246
v -0.01664879 -0.00795025 0.00729637
v -0.01845489 -0.00795026 0.00918507
v -0.02004780 -0.00795028 0.01125674
v -0.02140912 -0.00795029 0.01348742
v -0.02252312 -0.00795030 0.01585135
v -0.02337692 -0.00795031 0.01832121
v -0.02396066 -0.00795033 0.02086845
v -0.02426758 -0.00795034 0.02346363
v -0.02429415 -0.00795036 0.02607676
v -0.02404006 -0.00795037 0.02867764
v -0.02350824 -0.00795038 0.03123622
v -0.02270484 -0.00795040 0.03372293
v -0.02163914 -0.00795041 0.03610902
v -0.02023896 -0.00797751 0.03831140
v 0.02145316 -0.00791276 0.01339388
v 0.02008144 -0.00791275 0.01115723
v 0.01847756 -0.00791274 0.00908076
v 0.01666005 -0.00791273 0.00718846
v 0.01464990 -0.00791272 0.00550219
v 0.01247035 -0.00791271 0.00404145
v 0.01014660 -0.00791271 0.00282312
v 0.00770548 -0.00791270 0.00186128
v 0.00517522 -0.00791270 0.00116704
v 0.00258506 -0.00791270 0.00074842
v -0.00003507 -0.00791270 0.00061027
v -0.00265489 -0.00791270 0.00075418
v -0.00524413 -0.00791271 0.00117849
v -0.00777285 -0.00791271 0.00187829
v -0.01021185 -0.00791272 0.00284550
v -0.01253292 -0.00791272 0.00406893
v -0.01470925 -0.00791273 0.00553446
v -0.01671569 -0.00791274 0.00722513
v -0.01852904 -0.00791275 0.00912143
v -0.02012836 -0.00791276 0.01120142
v -0.02149515 -0.00791278 0.01344108
v -0.02261362 -0.00791279 0.01581451
v -0.02347086 -0.00791280 0.01829429
v -0.02405694 -0.00791282 0.02085177
v -0.02436510 -0.00791283 0.02345738
v -0.02439178 -0.00791284 0.02608102
v -0.02413667 -0.00791286 0.02869236
v -0.02360271 -0.00791287 0.03126122
v -0.02279607 -0.00791288 0.03375792
v -0.02172609 -0.00791290 0.03615361
v -0.02032346 -0.00795042 0.03836693
v 0.02153517 -0.00786524 0.01334946
v 0.02015821 -0.00786523 0.01110427
v 0.01854820 -0.00786522 0.00901986
v 0.01672374 -0.00786521 0.00712033
v 0.01470591 -0.00786520 0.00542762
v 0.01251804 -0.00786519 0.00396130
v 0.01018540 -0.00786519 0.00273832
v 0.00773496 -0.00786518 0.00177280
v 0.00519503 -0.00786518 0.00107590
v 0.00259497 -0.00786518 0.00065569
v -0.00003517 -0.00786518 0.00051701
v -0.00266501 -0.00786518 0.00066147
v -0.00526414 -0.00786518 0.00108740
v -0.00780252 -0.00786519 0.00178987
v -0.01025084 -0.00786520 0.00276077
v -0.01258078 -0.00786520 0.00398889
v -0.01476543 -0.00786521 0.00546001
v -0.01677953 -0.00786522 0.00715715
v -0.01859981 -0.00786523 0.00906069
v -0.02020524 -0.00786524 0.01114863
v -0.02157726 -0.00786526 0.01339684
v -0.02270001 -0.00786527 0.01577934
v -0.02356052 -0.00786528 0.01826861
v -0.02414884 -0.00786530 0.02083585
v -0.02445818 -0.00786531 0.02345142
v -0.02448496 -0.00786532 0.02608508
v -0.02422887 -0.00786534 0.02870640
v -0.02369287 -0.00786535 0.03128508
v -0.02288315 -0.00786536 0.03379133
v -0.02180908 -0.00786538 0.03619617
v -0.02040512 -0.00791291 0.03842059
v 0.02161236 -0.00780823 0.01330766
v 0.02023047 -0.00780822 0.01105442
v 0.01861469 -0.00780821 0.00896254
v 0.01678369 -0.00780820 0.00705621
v 0.01475863 -0.00780819 0.00535743
v 0.01256292 -0.00780818 0.00388586
v 0.01022192 -0.00780818 0.00265849
v 0.00776270 -0.00780817 0.00168951
v 0.00521367 -0.00780817 0.00099012
v 0.00260430 -0.00780817 0.00056840
v -0.00003527 -0.00780817 0.00042922
v -0.00267453 -0.00780817 0.00057420
v -0.00528297 -0.00780818 0.00100166
v -0.00783045 -0.00780818 0.00170665
v -0.01028754 -0.00780819 0.00268103
v -0.01262583 -0.00780819 0.00391354
v -0.01481830 -0.00780820 0.00538994
v -0.01683962 -0.00780821 0.00709316
v -0.01866643 -0.00780822 0.00900352
v -0.02027761 -0.00780824 0.01109894
v -0.02165454 -0.00780825 0.01335521
v -0.02278131 -0.00780826 0.01574625
v -0.02364490 -0.00780827 0.01824442
v -0.02423534 -0.00780829 0.02082087
v -0.02454578 -0.00780830 0.02344581
v -0.02457266 -0.00780832 0.02608891
v -0.02431565 -0.00780833 0.02871962
v -0.02377773 -0.00780834 0.03130754
v -0.02296511 -0.00780836 0.03382276
v -0.02188719 -0.00780837 0.03623622
v -0.02048306 -0.00786539 0.03847181
v 0.02168389 -0.00774236 0.01326892
v 0.02029743 -0.00774235 0.01100823
v 0.01867630 -0.00774234 0.00890943
v 0.01683924 -0.00774233 0.00699678
v 0.01480749 -0.00774232 0.00529239
v 0.01260451 -0.00774231 0.00381595
v 0.01025577 -0.00774231 0.00258452
v 0.00778841 -0.00774230 0.00161234
v 0.00523095 -0.00774230 0.00091063
v 0.00261294 -0.00774230 0.00048752
v -0.00003536 -0.00774230 0.00034788
v -0.00268335 -0.00774230 0.00049334
v -0.00530042 -0.00774230 0.00092221
v -0.00785633 -0.00774231 0.00162953
v -0.01032155 -0.00774231 0.00260713
v -0.01266757 -0.00774232 0.00384372
v -0.01486730 -0.00774233 0.00532500
v -0.01689531 -0.00774234 0.00703386
v -0.01872816 -0.00774235 0.00895054
v -0.02034467 -0.00774236 0.01105289
v -0.02172615 -0.00774238 0.01331662
v -0.02285665 -0.00774239 0.01571558
v -0.02372310 -0.00774240 0.01822202
v -0.02431549 -0.00774242 0.02080699
v -0.02462696 -0.00774243 0.02344061
v -0.02465393 -0.00774244 0.02609246
v -0.02439607 -0.00774246 0.02873187
v -0.02385637 -0.00774247 0.03132835
v -0.02304106 -0.00774248 0.03385190
v -0.02195958 -0.00774250 0.03627334
v -0.02055642 -0.00780838 0.03852002
v 0.02174897 -0.00766834 0.01323367
v 0.02035835 -0.00766833 0.01096620
v 0.01873236 -0.00766832 0.00886111
v 0.01688979 -0.00766831 0.00694272
v 0.01485194 -0.00766830 0.00523321
v 0.01264235 -0.00766830 0.00375234
v 0.01028656 -0.00766829 0.00251722
v 0.00781180 -0.00766829 0.00154212
v 0.00524667 -0.00766828 0.00083831
v 0.00262081 -0.00766828 0.00041392
v -0.00003544 -0.00766828 0.00027387
v -0.00269137 -0.00766829 0.00041976
v -0.00531630 -0.00766829 0.00084991
v -0.00787988 -0.00766829 0.00155936
v -0.01035249 -0.00766830 0.00253990
v -0.01270555 -0.00766831 0.00378020
v -0.01491188 -0.00766832 0.00526592
v -0.01694597 -0.00766833 0.00697990
v -0.01878432 -0.00766834 0.00890233
v -0.02040568 -0.00766835 0.01101100
v -0.02179131 -0.00766836 0.01328152
v -0.02292521 -0.00766837 0.01568767
v -0.02379425 -0.00766839 0.01820163
v -0.02438842 -0.00766840 0.02079436
v -0.02470082 -0.00766842 0.02343589
v -0.02472787 -0.00766843 0.02609568
v -0.02446924 -0.00766844 0.02874302
v -0.02392792 -0.00766846 0.03134729
v -0.02311017 -0.00766847 0.03387840
v -0.02202544 -0.00766848 0.03630711
v -0.02062440 -0.00774251 0.03856470
v 0.02180689 -0.00758700 0.01320230
v 0.02041257 -0.00758699 0.01092879
v 0.01878225 -0.00758697 0.00881809
v 0.01693478 -0.00758697 0.00689460
v 0.01489150 -0.00758696 0.00518054
v 0.01267603 -0.00758695 0.00369573
v 0.01031397 -0.00758695 0.00245732
v 0.00783262 -0.00758694 0.00147962
v 0.00526066 -0.00758694 0.00077394
v 0.00262781 -0.00758694 0.00034842
v -0.00003551 -0.00758694 0.00020800
v -0.00269852 -0.00758694 0.00035428
v -0.00533043 -0.00758694 0.00078558
v -0.00790083 -0.00758695 0.00149691
v -0.01038003 -0.00758695 0.00248006
v -0.01273936 -0.00758696 0.00372366
v -0.01495156 -0.00758697 0.00521334
v -0.01699107 -0.00758698 0.00693188
v -0.01883431 -0.00758699 0.00885943
v -0.02045998 -0.00758700 0.01097371
v -0.02184930 -0.00758702 0.01325028
v -0.02298622 -0.00758703 0.01566283
v -0.02385758 -0.00758704 0.01818349
v -0.02445332 -0.00758706 0.02078312
v -0.02476656 -0.00758707 0.02343168
v -0.02479368 -0.00758708 0.02609856
v -0.02453436 -0.00758710 0.02875294
v -0.02399160 -0.00758711 0.03136414
v -0.02317167 -0.00758713 0.03390200
v -0.02208405 -0.00758714 0.03633717
v -0.02068626 -0.00766849 0.03860534
v 0.02185702 -0.00749921 0.01317515
v 0.02045949 -0.00749920 0.01089642
v 0.01882543 -0.00749919 0.00878087
v 0.01697371 -0.00749918 0.00685296
v 0.01492574 -0.00749917 0.00513496
v 0.01270518 -0.00749917 0.00364674
v 0.01033769 -0.00749916 0.00240548
v 0.00785064 -0.00749916 0.00142554
v 0.00527277 -0.00749915 0.00071823
v 0.00263386 -0.00749915 0.00029174
v -0.00003558 -0.00749915 0.00015099
v -0.00270470 -0.00749915 0.00029760
v -0.00534266 -0.00749916 0.00072989
v -0.00791897 -0.00749916 0.00144286
v -0.01040386 -0.00749917 0.00242827
v -0.01276861 -0.00749918 0.00367473
v -0.01498590 -0.00749919 0.00516783
v -0.01703009 -0.00749919 0.00689033
v -0.01887757 -0.00749921 0.00882230
v -0.02050698 -0.00749922 0.01094144
v -0.02189949 -0.00749923 0.01322324
v -0.02303902 -0.00749924 0.01564134
v -0.02391238 -0.00749926 0.01816779
v -0.02450949 -0.00749927 0.02077339
v -0.02482345 -0.00749929 0.02342803
v -0.02485063 -0.00749930 0.02610104
v -0.02459072 -0.00749931 0.02876152
v -0.02404671 -0.00749933 0.03137873
v -0.02322490 -0.00749934 0.03392241
v -0.02213478 -0.00749935 0.03636318
v -0.02074131 -0.00758715 0.03864152
v 0.02189881 -0.00740595 0.01315252
v 0.02049861 -0.00740594 0.01086943
v 0.01886142 -0.00740593 0.00874984
v 0.01700616 -0.00740592 0.00681825
v 0.01495428 -0.00740591 0.00509697
v 0.01272947 -0.00740590 0.00360590
v 0.01035746 -0.00740590 0.00236227
v 0.00786566 -0.00740589 0.00138045
v 0.00528286 -0.00740589 0.00067179
v 0.00263891 -0.00740589 0.00024449
v -0.00003563 -0.00740589 0.00010347
v -0.00270985 -0.00740589 0.00025036
v -0.00535285 -0.00740589 0.00068348
v -0.00793409 -0.00740590 0.00139781
v -0.01042373 -0.00740591 0.00238510
v -0.01279300 -0.00740591 0.00363394
v -0.01501452 -0.00740592 0.00512990
v -0.01706262 -0.00740593 0.00685569
v -0.01891363 -0.00740594 0.00879136
v -0.02054615 -0.00740595 0.01091454
v -0.02194133 -0.00740597 0.01320070
v -0.02308303 -0.00740598 0.01562342
v -0.02395806 -0.00740599 0.01815470
v -0.02455632 -0.00740601 0.02076528
v -0.02487088 -0.00740602 0.02342500
v -0.02489811 -0.00740604 0.02610311
v -0.02463770 -0.00740605 0.02876868
v -0.02409265 -0.00740606 0.03139089
v -0.02326927 -0.00740608 0.03393943
v -0.02217706 -0.00740609 0.03638487
v -0.02078895 -0.00749936 0.03867283
v 0.02193179 -0.00730823 0.01313466
v 0.02052949 -0.00730822 0.01084813
v 0.01888983 -0.00730821 0.00872535
v 0.01703178 -0.00730820 0.00679085
v 0.01497680 -0.00730819 0.00506698
v 0.01274865 -0.00730818 0.00357366
v 0.01037307 -0.00730818 0.00232816
v 0.00787751 -0.00730817 0.00134486
v 0.00529083 -0.00730817 0.00063514
v 0.00264290 -0.00730817 0.00020719
v -0.00003567 -0.00730817 0.00006596
v -0.00271392 -0.00730817 0.00021308
v -0.00536090 -0.00730817 0.00064685
v -0.00794602 -0.00730818 0.00136225
v -0.01043941 -0.00730819 0.00235103
v -0.01281225 -0.00730819 0.00360175
v -0.01503711 -0.00730820 0.00509996
v -0.01708830 -0.00730821 0.00682834
v -0.01894209 -0.00730822 0.00876693
v -0.02057708 -0.00730823 0.01089331
v -0.02197435 -0.00730825 0.01318291
v -0.02311777 -0.00730826 0.01560928
v -0.02399412 -0.00730827 0.01814437
v -0.02459328 -0.00730829 0.02075888
v -0.02490831 -0.00730830 0.02342260
v -0.02493558 -0.00730832 0.02610475
v -0.02467478 -0.00730833 0.02877433
v -0.02412891 -0.00730834 0.03140048
v -0.02330429 -0.00730836 0.03395287
v -0.02221044 -0.00730837 0.03640198
v -0.02082866 -0.00740610 0.03869892
v 0.02195561 -0.00720712 0.01312176
v 0.02055178 -0.00720711 0.01083275
v 0.01891035 -0.00720710 0.00870766
v 0.01705028 -0.00720709 0.00677106
v 0.01499307 -0.00720708 0.00504532
v 0.01276250 -0.00720708 0.00355038
v 0.01038434 -0.00720707 0.00230352
v 0.00788608 -0.00720707 0.00131916
v 0.00529658 -0.00720706 0.00060867
v 0.00264578 -0.00720706 0.00018025
v -0.00003570 -0.00720706 0.00003887
v -0.00271686 -0.00720707 0.00018614
v -0.00536671 -0.00720707 0.00062039
v -0.00795464 -0.00720707 0.00133657
v -0.01045074 -0.00720708 0.00232642
v -0.01282615 -0.00720709 0.00357850
v -0.01505343 -0.00720710 0.00507833
v -0.01710684 -0.00720711 0.00680859
v -0.01896265 -0.00720712 0.00874929
v -0.02059941 -0.00720713 0.01087797
v -0.02199820 -0.00720714 0.01317006
v -0.02314286 -0.00720716 0.01559906
v -0.02402017 -0.00720717 0.01813691
v -0.02461997 -0.00720718 0.02075426
v -0.02493535 -0.00720720 0.02342087
v -0.02496265 -0.00720721 0.02610593
v -0.02470156 -0.00720723 0.02877841
v -0.02415510 -0.00720724 0.03140741
v -0.02332958 -0.00720725 0.03396257
v -0.02223455 -0.00720726 0.03641434
v -0.02086001 -0.00730838 0.03871952
v 0.02056526 -0.00710373 0.01082345
v 0.01892275 -0.00710372 0.00869697
v 0.01706147 -0.00710371 0.00675910
v 0.01500291 -0.00710370 0.00503222
v 0.01277087 -0.00710369 0.00353631
v 0.01039115 -0.00710369 0.00228863
v 0.00789125 -0.00710368 0.00130363
v 0.00530006 -0.00710368 0.00059267
v 0.00264752 -0.00710368 0.00016397
v -0.00003572 -0.00710368 0.00002249
v -0.00271863 -0.00710368 0.00016987
v -0.00537022 -0.00710369 0.00060439
v -0.00795985 -0.00710369 0.00132105
v -0.01045758 -0.00710370 0.00231155
v -0.01283455 -0.00710370 0.00356444
v -0.01506330 -0.00710371 0.00506527
v -0.01711805 -0.00710372 0.00679666
v -0.01897508 -0.00710373 0.00873862
v -0.02061291 -0.00710375 0.01086871
v -0.02201262 -0.00710376 0.01316230
v -0.02315803 -0.00710377 0.01559289
v -0.02403591 -0.00710379 0.01813240
v -0.02463611 -0.00710380 0.02075146
v -0.02495169 -0.00710381 0.02341983
v -0.02497901 -0.00710383 0.02610665
v -0.02471775 -0.00710384 0.02878087
v -0.02417093 -0.00710386 0.03141160
v -0.02334487 -0.00710387 0.03396843
v -0.02224912 -0.00710388 0.03642182
v 0.02133517 -0.00799922 0.01408022
v -0.01974468 -0.00799936 0.03864153
v -0.02006521 -0.00799936 0.03819722
v -0.02088265 -0.00720728 0.03873440
v 0.01892275 0.00710534 0.00869705
v 0.02056526 0.00710533 0.01082353
v 0.01706146 0.00710535 0.00675917
v 0.01500290 0.00710536 0.00503230
v 0.01277087 0.00710536 0.00353638
v 0.01039115 0.00710537 0.00228871
v 0.00789124 0.00710537 0.00130370
v 0.00530005 0.00710538 0.00059274
v 0.00264751 0.00710538 0.00016404
v -0.00003572 0.00710538 0.00002257
v -0.00271864 0.00710538 0.00016994
v -0.00537023 0.00710537 0.00060447
v -0.00795986 0.00710537 0.00132112
v -0.01045759 0.00710536 0.00231162
v -0.01283456 0.00710535 0.00356452
v -0.01506330 0.00710534 0.00506534
v -0.01711806 0.00710533 0.00679673
v -0.01897508 0.00710532 0.00873869
v -0.02061291 0.00710531 0.01086878
v -0.02201262 0.00710530 0.01316237
v -0.02315804 0.00710529 0.01559297
v -0.02403591 0.00710527 0.01813247
v -0.02463611 0.00710526 0.02075154
v -0.02495169 0.00710524 0.02341990
v -0.02497901 0.00710523 0.02610672
v -0.02471775 0.00710521 0.02878095
v -0.02417094 0.00710520 0.03141168
v -0.02334488 0.00710519 0.03396851
v -0.02224913 0.00710518 0.03642189
v 0.02055178 0.00720871 0.01083283
v 0.01891035 0.00720872 0.00870774
v 0.01705028 0.00720873 0.00677113
v 0.01499307 0.00720874 0.00504539
v 0.01276249 0.00720875 0.00355045
v 0.01038433 0.00720875 0.00230360
v 0.00788607 0.00720876 0.00131924
v 0.00529657 0.00720876 0.00060874
v 0.00264577 0.00720876 0.00018033
v -0.00003570 0.00720876 0.00003894
v -0.00271686 0.00720876 0.00018622
v -0.00536672 0.00720875 0.00062046
v -0.00795465 0.00720875 0.00133664
v -0.01045074 0.00720874 0.00232650
v -0.01282616 0.00720874 0.00357857
v -0.01505344 0.00720873 0.00507841
v -0.01710685 0.00720872 0.00680867
v -0.01896266 0.00720871 0.00874936
v -0.02059941 0.00720869 0.01087805
v -0.02199821 0.00720868 0.01317014
v -0.02314287 0.00720867 0.01559914
v -0.02402017 0.00720865 0.01813698
v -0.02461998 0.00720864 0.02075433
v -0.02493535 0.00720863 0.02342095
v -0.02496266 0.00720861 0.02610601
v -0.02470157 0.00720860 0.02877848
v -0.02415511 0.00720858 0.03140749
v -0.02332959 0.00720857 0.03396265
v 0.02193178 0.00730981 0.01313474
v 0.02195561 0.00720870 0.01312184
v 0.02052948 0.00730982 0.01084821
v 0.01888983 0.00730983 0.00872543
v 0.01703178 0.00730984 0.00679092
v 0.01497680 0.00730985 0.00506705
v 0.01274864 0.00730985 0.00357374
v 0.01037306 0.00730986 0.00232823
v 0.00787751 0.00730986 0.00134494
v 0.00529082 0.00730986 0.00063522
v 0.00264289 0.00730987 0.00020727
v -0.00003568 0.00730987 0.00006603
v -0.00271392 0.00730986 0.00021315
v -0.00536091 0.00730986 0.00064692
v -0.00794603 0.00730986 0.00136233
v -0.01043942 0.00730985 0.00235111
v -0.01281225 0.00730984 0.00360183
v -0.01503712 0.00730983 0.00510004
v -0.01708830 0.00730982 0.00682842
v -0.01894210 0.00730981 0.00876701
v -0.02057708 0.00730980 0.01089339
v -0.02197436 0.00730979 0.01318299
v -0.02311778 0.00730977 0.01560936
v -0.02399413 0.00730976 0.01814444
v -0.02459328 0.00730975 0.02075896
v -0.02490832 0.00730973 0.02342268
v -0.02493559 0.00730972 0.02610483
v -0.02467478 0.00730970 0.02877440
v -0.02412892 0.00730969 0.03140056
v -0.02330430 0.00730968 0.03395294
v -0.02223455 0.00720856 0.03641442
v -0.02221045 0.00730966 0.03640206
v -0.02088266 0.00720855 0.03873448
v 0.02189880 0.00740753 0.01315260
v 0.02049860 0.00740754 0.01086951
v 0.01886141 0.00740755 0.00874992
v 0.01700616 0.00740756 0.00681833
v 0.01495427 0.00740757 0.00509705
v 0.01272946 0.00740757 0.00360598
v 0.01035746 0.00740758 0.00236235
v 0.00786565 0.00740758 0.00138053
v 0.00528285 0.00740758 0.00067187
v 0.00263891 0.00740759 0.00024457
v -0.00003563 0.00740759 0.00010354
v -0.00270986 0.00740758 0.00025044
v -0.00535286 0.00740758 0.00068356
v -0.00793409 0.00740757 0.00139789
v -0.01042373 0.00740757 0.00238518
v -0.01279300 0.00740756 0.00363402
v -0.01501453 0.00740755 0.00512998
v -0.01706263 0.00740754 0.00685577
v -0.01891363 0.00740753 0.00879144
v -0.02054616 0.00740752 0.01091462
v -0.02194133 0.00740751 0.01320078
v -0.02308304 0.00740749 0.01562350
v -0.02395807 0.00740748 0.01815478
v -0.02455632 0.00740747 0.02076536
v -0.02487088 0.00740745 0.02342508
v -0.02489811 0.00740744 0.02610319
v -0.02463770 0.00740742 0.02876876
v -0.02409265 0.00740741 0.03139096
v -0.02326927 0.00740740 0.03393951
v -0.02217707 0.00740738 0.03638494
v -0.02086002 0.00730965 0.03871960
v 0.02185701 0.00750079 0.01317523
v 0.02045949 0.00750080 0.01089650
v 0.01882542 0.00750081 0.00878095
v 0.01697370 0.00750082 0.00685304
v 0.01492573 0.00750083 0.00513504
v 0.01270517 0.00750083 0.00364682
v 0.01033768 0.00750084 0.00240556
v 0.00785063 0.00750084 0.00142561
v 0.00527276 0.00750085 0.00071831
v 0.00263386 0.00750085 0.00029182
v -0.00003558 0.00750085 0.00015107
v -0.00270470 0.00750085 0.00029768
v -0.00534266 0.00750084 0.00072997
v -0.00791898 0.00750084 0.00144294
v -0.01040387 0.00750083 0.00242835
v -0.01276862 0.00750082 0.00367481
v -0.01498590 0.00750081 0.00516791
v -0.01703010 0.00750080 0.00689041
v -0.01887757 0.00750079 0.00882238
v -0.02050698 0.00750078 0.01094152
v -0.02189950 0.00750077 0.01322332
v -0.02303902 0.00750076 0.01564142
v -0.02391239 0.00750074 0.01816787
v -0.02450950 0.00750073 0.02077347
v -0.02482346 0.00750071 0.02342811
v -0.02485064 0.00750070 0.02610112
v -0.02459072 0.00750069 0.02876160
v -0.02404672 0.00750067 0.03137881
v -0.02322490 0.00750066 0.03392249
v -0.02213478 0.00750065 0.03636326
v -0.02082867 0.00740737 0.03869900
v 0.02180689 0.00758857 0.01320238
v 0.02041256 0.00758859 0.01092887
v 0.01878225 0.00758860 0.00881817
v 0.01693477 0.00758860 0.00689468
v 0.01489149 0.00758861 0.00518062
v 0.01267602 0.00758862 0.00369581
v 0.01031396 0.00758863 0.00245740
v 0.00783261 0.00758863 0.00147970
v 0.00526065 0.00758863 0.00077402
v 0.00262780 0.00758863 0.00034850
v -0.00003552 0.00758863 0.00020808
v -0.00269852 0.00758863 0.00035436
v -0.00533043 0.00758863 0.00078566
v -0.00790084 0.00758862 0.00149699
v -0.01038003 0.00758862 0.00248014
v -0.01273936 0.00758861 0.00372374
v -0.01495157 0.00758860 0.00521342
v -0.01699107 0.00758859 0.00693196
v -0.01883431 0.00758858 0.00885951
v -0.02045999 0.00758857 0.01097379
v -0.02184931 0.00758855 0.01325036
v -0.02298622 0.00758854 0.01566291
v -0.02385758 0.00758853 0.01818357
v -0.02445333 0.00758851 0.02078320
v -0.02476657 0.00758850 0.02343176
v -0.02479369 0.00758849 0.02609864
v -0.02453436 0.00758847 0.02875302
v -0.02399161 0.00758846 0.03136422
v -0.02317168 0.00758845 0.03390208
v -0.02208406 0.00758843 0.03633725
v -0.02078896 0.00750064 0.03867290
v 0.02174896 0.00766992 0.01323375
v 0.02035834 0.00766993 0.01096628
v 0.01873235 0.00766994 0.00886119
v 0.01688979 0.00766995 0.00694280
v 0.01485193 0.00766996 0.00523329
v 0.01264234 0.00766996 0.00375242
v 0.01028656 0.00766997 0.00251730
v 0.00781180 0.00766997 0.00154220
v 0.00524666 0.00766998 0.00083839
v 0.00262080 0.00766998 0.00041400
v -0.00003545 0.00766998 0.00027395
v -0.00269138 0.00766998 0.00041984
v -0.00531630 0.00766997 0.00084999
v -0.00787988 0.00766997 0.00155944
v -0.01035250 0.00766996 0.00253998
v -0.01270556 0.00766995 0.00378028
v -0.01491189 0.00766994 0.00526600
v -0.01694598 0.00766993 0.00697998
v -0.01878433 0.00766992 0.00890241
v -0.02040569 0.00766991 0.01101108
v -0.02179132 0.00766990 0.01328160
v -0.02292521 0.00766989 0.01568775
v -0.02379426 0.00766987 0.01820171
v -0.02438842 0.00766986 0.02079444
v -0.02470083 0.00766984 0.02343597
v -0.02472788 0.00766983 0.02609577
v -0.02446924 0.00766982 0.02874310
v -0.02392793 0.00766980 0.03134737
v -0.02311017 0.00766979 0.03387848
v -0.02202544 0.00766978 0.03630719
v -0.02074132 0.00758842 0.03864160
v 0.02168388 0.00774393 0.01326900
v 0.02029742 0.00774395 0.01100831
v 0.01867629 0.00774396 0.00890951
v 0.01683924 0.00774396 0.00699687
v 0.01480748 0.00774397 0.00529247
v 0.01260450 0.00774398 0.00381603
v 0.01025576 0.00774399 0.00258460
v 0.00778840 0.00774399 0.00161242
v 0.00523094 0.00774399 0.00091071
v 0.00261294 0.00774399 0.00048760
v -0.00003537 0.00774399 0.00034796
v -0.00268335 0.00774399 0.00049342
v -0.00530043 0.00774399 0.00092229
v -0.00785634 0.00774398 0.00162961
v -0.01032155 0.00774398 0.00260721
v -0.01266758 0.00774397 0.00384380
v -0.01486731 0.00774396 0.00532508
v -0.01689531 0.00774395 0.00703394
v -0.01872816 0.00774394 0.00895062
v -0.02034467 0.00774393 0.01105297
v -0.02172616 0.00774391 0.01331671
v -0.02285666 0.00774390 0.01571566
v -0.02372311 0.00774389 0.01822210
v -0.02431549 0.00774387 0.02080707
v -0.02462697 0.00774386 0.02344070
v -0.02465393 0.00774385 0.02609254
v -0.02439608 0.00774383 0.02873195
v -0.02385638 0.00774382 0.03132843
v -0.02304107 0.00774381 0.03385198
v -0.02195958 0.00774379 0.03627342
v -0.02068627 0.00766977 0.03860542
v 0.02161235 0.00780980 0.01330774
v 0.02023046 0.00780982 0.01105450
v 0.01861468 0.00780983 0.00896263
v 0.01678368 0.00780984 0.00705629
v 0.01475863 0.00780984 0.00535751
v 0.01256291 0.00780985 0.00388594
v 0.01022192 0.00780986 0.00265857
v 0.00776270 0.00780986 0.00168959
v 0.00521367 0.00780986 0.00099020
v 0.00260429 0.00780986 0.00056848
v -0.00003528 0.00780986 0.00042931
v -0.00267453 0.00780986 0.00057428
v -0.00528297 0.00780986 0.00100174
v -0.00783046 0.00780985 0.00170673
v -0.01028754 0.00780985 0.00268111
v -0.01262584 0.00780984 0.00391362
v -0.01481831 0.00780983 0.00539002
v -0.01683963 0.00780982 0.00709324
v -0.01866643 0.00780981 0.00900360
v -0.02027761 0.00780980 0.01109902
v -0.02165455 0.00780979 0.01335529
v -0.02278132 0.00780977 0.01574633
v -0.02364491 0.00780976 0.01824451
v -0.02423534 0.00780974 0.02082095
v -0.02454579 0.00780973 0.02344589
v -0.02457266 0.00780972 0.02608899
v -0.02431566 0.00780970 0.02871970
v -0.02377774 0.00780969 0.03130762
v -0.02296512 0.00780968 0.03382285
v -0.02188720 0.00780966 0.03623630
v -0.02062441 0.00774378 0.03856478
v 0.02153516 0.00786681 0.01334955
v 0.02015821 0.00786683 0.01110435
v 0.01854819 0.00786684 0.00901995
v 0.01672373 0.00786684 0.00712041
v 0.01470590 0.00786685 0.00542770
v 0.01251803 0.00786686 0.00396139
v 0.01018539 0.00786686 0.00273840
v 0.00773495 0.00786687 0.00177288
v 0.00519502 0.00786687 0.00107599
v 0.00259496 0.00786687 0.00065577
v -0.00003518 0.00786687 0.00051709
v -0.00266501 0.00786687 0.00066155
v -0.00526414 0.00786687 0.00108748
v -0.00780253 0.00786686 0.00178995
v -0.01025084 0.00786686 0.00276086
v -0.01258079 0.00786685 0.00398897
v -0.01476543 0.00786684 0.00546009
v -0.01677954 0.00786683 0.00715723
v -0.01859982 0.00786682 0.00906077
v -0.02020525 0.00786681 0.01114871
v -0.02157726 0.00786680 0.01339692
v -0.02270001 0.00786678 0.01577943
v -0.02356052 0.00786677 0.01826869
v -0.02414885 0.00786675 0.02083594
v -0.02445818 0.00786674 0.02345151
v -0.02448496 0.00786673 0.02608517
v -0.02422887 0.00786671 0.02870648
v -0.02369287 0.00786670 0.03128516
v -0.02288316 0.00786669 0.03379141
v -0.02180909 0.00786667 0.03619625
v -0.02055643 0.00780965 0.03852010
v 0.02145315 0.00791433 0.01339396
v 0.02008144 0.00791434 0.01115732
v 0.01847755 0.00791435 0.00908084
v 0.01666004 0.00791436 0.00718854
v 0.01464989 0.00791437 0.00550228
v 0.01247035 0.00791438 0.00404154
v 0.01014659 0.00791438 0.00282321
v 0.00770547 0.00791439 0.00186136
v 0.00517522 0.00791439 0.00116712
v 0.00258505 0.00791439 0.00074851
v -0.00003508 0.00791439 0.00061036
v -0.00265490 0.00791439 0.00075426
v -0.00524413 0.00791439 0.00117857
v -0.00777286 0.00791438 0.00187837
v -0.01021186 0.00791438 0.00284558
v -0.01253293 0.00791437 0.00406901
v -0.01470926 0.00791436 0.00553454
v -0.01671570 0.00791435 0.00722522
v -0.01852905 0.00791434 0.00912151
v -0.02012836 0.00791433 0.01120150
v -0.02149516 0.00791431 0.01344116
v -0.02261363 0.00791430 0.01581459
v -0.02347087 0.00791429 0.01829438
v -0.02405695 0.00791427 0.02085185
v -0.02436511 0.00791426 0.02345747
v -0.02439179 0.00791425 0.02608110
v -0.02413667 0.00791423 0.02869244
v -0.02360271 0.00791422 0.03126130
v -0.02279608 0.00791421 0.03375801
v -0.02172610 0.00791419 0.03615369
v -0.02048307 0.00786666 0.03847189
v 0.02136722 0.00795184 0.01344050
v 0.02000100 0.00795185 0.01121281
v 0.01840354 0.00795186 0.00914465
v 0.01659330 0.00795187 0.00725992
v 0.01459120 0.00795188 0.00558041
v 0.01242038 0.00795189 0.00412552
v 0.01010593 0.00795189 0.00291207
v 0.00767459 0.00795190 0.00195407
v 0.00515446 0.00795190 0.00126261
v 0.00257467 0.00795190 0.00084567
v -0.00003497 0.00795190 0.00070808
v -0.00264430 0.00795190 0.00085141
v -0.00522317 0.00795190 0.00127402
v -0.00774177 0.00795189 0.00197102
v -0.01017100 0.00795188 0.00293435
v -0.01248278 0.00795188 0.00415289
v -0.01465040 0.00795187 0.00561254
v -0.01664880 0.00795186 0.00729645
v -0.01845489 0.00795185 0.00918515
v -0.02004781 0.00795184 0.01125682
v -0.02140913 0.00795182 0.01348751
v -0.02252312 0.00795181 0.01585144
v -0.02337693 0.00795180 0.01832129
v -0.02396066 0.00795178 0.02086853
v -0.02426759 0.00795177 0.02346371
v -0.02429416 0.00795176 0.02607684
v -0.02404007 0.00795174 0.02867772
v -0.02350824 0.00795173 0.03123630
v -0.02270484 0.00795172 0.03372301
v -0.02163914 0.00795171 0.03610910
v -0.02040513 0.00791418 0.03842068
v 0.02127832 0.00797893 0.01348865
v 0.01991778 0.00797895 0.01127022
v 0.01832696 0.00797896 0.00921066
v 0.01652425 0.00797897 0.00733378
v 0.01453048 0.00797897 0.00566125
v 0.01236869 0.00797898 0.00421241
v 0.01006386 0.00797899 0.00300400
v 0.00764264 0.00797899 0.00205000
v 0.00513299 0.00797899 0.00136141
v 0.00256393 0.00797899 0.00094621
v -0.00003486 0.00797899 0.00080918
v -0.00263334 0.00797899 0.00095192
v -0.00520148 0.00797899 0.00137277
v -0.00770961 0.00797898 0.00206687
v -0.01012873 0.00797898 0.00302620
v -0.01243090 0.00797897 0.00423966
v -0.01458950 0.00797896 0.00569325
v -0.01657959 0.00797895 0.00737016
v -0.01837817 0.00797894 0.00925100
v -0.01996446 0.00797893 0.01131405
v -0.02132012 0.00797892 0.01353546
v -0.02242948 0.00797890 0.01588956
v -0.02327973 0.00797889 0.01834914
v -0.02386104 0.00797888 0.02088578
v -0.02416669 0.00797886 0.02347017
v -0.02419315 0.00797885 0.02607243
v -0.02394012 0.00797884 0.02866250
v -0.02341051 0.00797882 0.03121044
v -0.02261044 0.00797881 0.03368680
v -0.02154918 0.00797880 0.03606297
v -0.02032346 0.00795169 0.03836701
v 0.02118741 0.00799531 0.01353788
v 0.01983268 0.00799532 0.01132893
v 0.01824866 0.00799533 0.00927817
v 0.01645365 0.00799534 0.00740930
v 0.01446839 0.00799535 0.00574391
v 0.01231583 0.00799535 0.00430126
v 0.01002085 0.00799536 0.00309801
v 0.00760996 0.00799536 0.00214808
v 0.00511103 0.00799537 0.00146244
v 0.00255294 0.00799537 0.00104901
v -0.00003475 0.00799537 0.00091257
v -0.00262213 0.00799536 0.00105469
v -0.00517930 0.00799536 0.00147375
v -0.00767672 0.00799536 0.00216488
v -0.01008551 0.00799535 0.00312011
v -0.01237785 0.00799534 0.00432840
v -0.01452723 0.00799533 0.00577578
v -0.01650882 0.00799533 0.00744552
v -0.01829972 0.00799531 0.00931833
v -0.01987923 0.00799530 0.01137257
v -0.02122910 0.00799529 0.01358449
v -0.02233373 0.00799528 0.01592854
v -0.02318035 0.00799526 0.01837762
v -0.02375917 0.00799525 0.02090343
v -0.02406352 0.00799524 0.02347678
v -0.02408987 0.00799522 0.02606793
v -0.02383791 0.00799521 0.02864693
v -0.02331056 0.00799520 0.03118399
v -0.02251392 0.00799518 0.03364978
v -0.02145718 0.00799517 0.03601580
v -0.02023897 0.00797879 0.03831149
v 0.02038377 0.00800079 0.01242715
v 0.01974664 0.00800080 0.01138829
v 0.01872976 0.00800080 0.01007177
v 0.01816949 0.00800081 0.00934642
v 0.01663803 0.00800082 0.00775194
v 0.01728780 0.00800081 0.00842845
v 0.01638226 0.00800082 0.00748565
v 0.01483557 0.00800082 0.00618817
v 0.01440562 0.00800082 0.00582749
v 0.01234582 0.00800083 0.00444701
v 0.01359835 0.00800083 0.00528646
v 0.01226239 0.00800083 0.00439109
v 0.00757693 0.00800084 0.00224725
v 0.00508883 0.00800084 0.00156458
v -0.00003463 0.00800084 0.00101709
v 0.00156738 0.00800084 0.00110156
v -0.00130866 0.00800084 0.00108708
v -0.00261079 0.00800084 0.00115860
v -0.00515688 0.00800084 0.00157584
v -0.00635366 0.00800084 0.00190704
v -0.00764346 0.00800083 0.00226398
v -0.01004181 0.00800083 0.00321507
v -0.01232421 0.00800082 0.00441811
v -0.01446427 0.00800081 0.00585922
v -0.01643727 0.00800080 0.00752172
v -0.01810412 0.00800079 0.00926481
v -0.01822040 0.00800079 0.00938641
v -0.02113708 0.00800077 0.01363407
v -0.02223691 0.00800076 0.01596795
v -0.02307986 0.00800074 0.01840641
v -0.02395921 0.00800072 0.02348346
v -0.02382906 0.00800069 0.02766400
v -0.02373457 0.00800069 0.02863119
v -0.02397567 0.00800070 0.02616333
v -0.02320951 0.00800068 0.03115725
v -0.02362037 0.00800069 0.02918065
v -0.02280763 0.00800067 0.03240117
v -0.02241632 0.00800066 0.03361234
v -0.02309600 0.00800067 0.03150859
v -0.02136417 0.00800065 0.03596810
v -0.02204256 0.00800066 0.03444920
v -0.02015257 0.00799516 0.03825471
v -0.02006521 0.00800064 0.03819731
v -0.02075062 0.00800065 0.03702105
v 0.02133517 0.00800078 0.01408031
v 0.02109550 0.00800079 0.01358766
v -0.01974469 0.00800064 0.03864161
v -0.02398544 0.00800070 0.02606337
v -0.02365618 0.00800073 0.02092127
v -0.01979306 0.00800078 0.01143174
v 0.00254184 0.00800084 0.00115294
v 0.00997736 0.00800084 0.00319307
f 25 90 15
f 28 26 19
f 8 1 27
f 97 1 8
f 693 202 209
f 20 28 19
f 17 18 96
f 3 35 2
f 591 111 560
f 5 12 93
f 93 10 5
f 5 16 12
f 5 10 17
f 17 16 5
f 9 97 8
f 12 13 91
f 93 12 91
f 241 251 247
f 415 414 384
f 30 20 21
f 28 20 30
f 29 11 7
f 7 27 29
f 8 27 7
f 36 34 23
f 23 34 22
f 98 18 19
f 98 96 18
f 19 26 98
f 94 16 17
f 17 96 94
f 1123 1091 1092
f 1061 1092 1060
f 1060 1092 1091
f 1122 1091 1123
f 149 82 745
f 745 151 149
f 97 9 95
f 95 9 10
f 95 10 93
f 89 91 13
f 111 112 113
f 113 112 109
f 648 679 678
f 291 294 293
f 380 379 348
f 379 378 348
f 655 623 624
f 658 689 688
f 688 687 658
f 689 219 688
f 688 219 223
f 225 687 688
f 688 223 225
f 216 219 689
f 255 253 256
f 538 508 539
f 539 570 538
f 422 391 423
f 353 322 323
f 507 508 538
f 507 477 508
f 538 537 507
f 329 328 275
f 278 277 275
f 1061 1060 1030
f 32 30 21
f 21 22 32
f 32 22 34
f 24 36 23
f 16 94 92
f 25 16 92
f 92 90 25
f 31 11 29
f 1159 1122 1199
f 1199 1122 1123
f 934 935 966
f 158 156 741
f 741 162 158
f 867 866 836
f 837 836 805
f 712 83 148
f 805 836 803
f 343 140 313
f 560 117 529
f 14 89 13
f 108 109 104
f 623 655 654
f 623 654 653
f 653 654 100
f 653 104 109
f 109 112 622
f 622 653 109
f 111 591 622
f 622 112 111
f 623 653 622
f 560 111 115
f 115 117 560
f 116 117 114
f 111 113 110
f 110 115 111
f 117 115 110
f 107 109 108
f 107 113 109
f 585 586 616
f 159 161 708
f 708 155 159
f 370 339 340
f 340 339 300
f 300 341 340
f 279 277 280
f 553 552 521
f 317 241 247
f 380 348 349
f 349 350 380
f 320 350 349
f 472 503 471
f 471 441 472
f 440 441 471
f 471 470 440
f 409 378 379
f 441 440 409
f 314 343 313
f 344 343 314
f 532 531 501
f 501 470 471
f 532 501 533
f 627 595 596
f 593 594 624
f 411 442 441
f 380 412 411
f 254 320 255
f 255 256 254
f 247 251 248
f 248 317 247
f 248 252 253
f 248 253 255
f 382 412 381
f 381 350 382
f 381 412 380
f 380 350 381
f 265 260 262
f 262 260 261
f 261 260 323
f 323 322 261
f 322 353 352
f 475 474 444
f 630 629 598
f 570 601 600
f 484 452 453
f 452 422 453
f 453 422 423
f 423 391 392
f 391 361 392
f 331 277 279
f 359 328 329
f 421 422 452
f 421 452 451
f 391 422 421
f 421 390 391
f 483 452 484
f 451 452 483
f 457 456 425
f 390 421 389
f 273 275 328
f 269 268 266
f 477 446 478
f 202 693 203
f 698 699 191
f 905 906 937
f 4 31 33
f 3 4 33
f 33 35 3
f 11 31 6
f 6 31 4
f 21 11 6
f 6 22 21
f 6 4 22
f 1194 1189 38
f 1190 1189 1194
f 39 1189 47
f 38 1189 39
f 1187 1189 1191
f 1191 1189 1190
f 1091 1122 1090
f 1090 1060 1091
f 205 208 726
f 726 208 204
f 732 190 189
f 189 187 732
f 732 187 188
f 1196 1140 1141
f 1141 1178 1196
f 742 741 156
f 156 157 742
f 801 802 833
f 833 865 864
f 154 151 743
f 743 157 154
f 743 742 157
f 72 683 652
f 465 464 434
f 305 341 300
f 80 83 712
f 716 683 72
f 716 651 683
f 150 711 712
f 712 148 150
f 898 866 867
f 960 991 990
f 745 804 773
f 773 804 805
f 805 803 773
f 773 803 802
f 835 836 866
f 835 803 836
f 835 866 865
f 560 529 561
f 126 122 127
f 127 122 123
f 131 405 126
f 100 103 105
f 101 103 100
f 746 103 718
f 99 233 718
f 718 103 99
f 102 100 108
f 108 104 102
f 102 653 100
f 104 653 102
f 498 529 117
f 117 116 498
f 467 499 498
f 498 499 529
f 116 119 498
f 123 467 498
f 498 119 123
f 114 117 118
f 117 110 118
f 648 678 647
f 617 616 586
f 648 647 617
f 617 647 616
f 153 152 710
f 710 150 153
f 711 150 710
f 554 586 585
f 554 585 553
f 554 523 524
f 368 338 339
f 296 338 293
f 293 294 296
f 339 338 296
f 298 302 296
f 281 277 278
f 281 280 277
f 282 283 279
f 279 280 282
f 553 521 522
f 522 554 553
f 523 554 522
f 430 431 461
f 289 290 288
f 291 290 289
f 292 290 291
f 292 291 293
f 458 427 459
f 458 490 489
f 458 459 490
f 347 348 378
f 347 317 348
f 347 346 317
f 319 349 348
f 255 320 319
f 320 349 319
f 439 440 470
f 470 438 439
f 408 409 439
f 439 409 440
f 410 409 379
f 441 409 410
f 410 411 441
f 410 379 380
f 380 411 410
f 316 346 345
f 241 317 316
f 317 346 316
f 376 345 377
f 345 346 377
f 377 409 408
f 378 409 377
f 377 347 378
f 346 347 377
f 241 238 242
f 315 314 234
f 234 238 315
f 315 345 344
f 344 314 315
f 315 316 345
f 315 238 241
f 241 316 315
f 313 140 142
f 236 314 313
f 234 314 236
f 313 142 236
f 136 143 236
f 500 501 531
f 531 499 500
f 376 377 407
f 407 377 408
f 408 439 407
f 407 439 438
f 658 687 657
f 563 531 532
f 563 562 531
f 595 594 563
f 563 593 562
f 594 593 563
f 471 503 502
f 502 501 471
f 502 533 501
f 503 534 502
f 534 533 502
f 717 718 231
f 231 718 233
f 222 220 721
f 721 226 222
f 780 781 813
f 443 411 412
f 442 411 443
f 443 444 474
f 249 248 251
f 348 317 318
f 317 248 318
f 318 319 348
f 318 248 255
f 255 319 318
f 260 265 264
f 262 261 259
f 258 261 322
f 322 321 258
f 257 259 258
f 258 259 261
f 258 256 257
f 258 254 256
f 320 254 258
f 258 321 320
f 383 414 382
f 383 384 414
f 383 353 384
f 383 352 353
f 351 321 322
f 322 352 351
f 382 350 351
f 351 383 382
f 352 383 351
f 351 350 320
f 320 321 351
f 413 412 382
f 382 414 413
f 414 444 413
f 413 443 412
f 444 443 413
f 476 507 475
f 475 444 476
f 477 507 476
f 660 629 630
f 630 598 599
f 599 600 630
f 207 693 209
f 277 331 330
f 329 275 330
f 330 275 277
f 454 453 423
f 484 453 454
f 638 639 670
f 703 174 173
f 184 180 734
f 734 764 763
f 180 178 734
f 580 581 612
f 427 458 426
f 426 458 457
f 426 457 425
f 425 394 426
f 706 160 163
f 705 676 706
f 705 163 167
f 706 163 705
f 358 389 388
f 328 359 358
f 358 359 390
f 390 389 358
f 420 421 451
f 420 389 421
f 357 358 388
f 357 327 328
f 328 358 357
f 278 275 276
f 275 273 276
f 328 327 271
f 271 273 328
f 271 268 274
f 274 276 271
f 271 276 273
f 271 327 326
f 326 268 271
f 274 268 272
f 272 268 269
f 270 266 267
f 269 266 270
f 324 353 323
f 324 354 353
f 416 417 447
f 447 478 446
f 415 416 447
f 447 446 415
f 508 477 509
f 477 478 509
f 385 354 355
f 355 386 385
f 385 417 416
f 385 386 417
f 385 416 415
f 415 384 385
f 384 353 385
f 353 354 385
f 694 203 693
f 935 905 936
f 936 905 937
f 904 905 935
f 990 991 1022
f 991 1023 1022
f 1116 1053 1085
f 1053 1022 1085
f 47 1189 48
f 1189 1147 48
f 1146 1189 1187
f 1121 1090 1122
f 1120 1090 1121
f 1120 1088 1089
f 1058 1090 1089
f 1089 1090 1120
f 1059 1028 1060
f 1060 1090 1059
f 1059 1090 1058
f 808 776 777
f 965 934 966
f 966 997 965
f 965 997 996
f 965 996 995
f 1027 1059 1058
f 1028 1059 1027
f 1027 997 1028
f 996 997 1027
f 995 996 1027
f 1027 1026 995
f 1133 1171 1170
f 185 699 186
f 185 191 699
f 771 802 801
f 72 652 69
f 69 652 621
f 69 70 72
f 67 64 66
f 63 961 66
f 66 961 67
f 588 589 620
f 620 589 621
f 621 652 620
f 620 652 683
f 683 651 620
f 650 620 651
f 558 589 588
f 370 340 371
f 371 340 341
f 433 434 464
f 72 70 71
f 71 75 72
f 71 70 837
f 806 75 837
f 805 804 806
f 806 837 805
f 72 75 77
f 77 75 76
f 77 716 72
f 76 716 77
f 80 716 79
f 651 716 682
f 682 80 712
f 682 716 80
f 866 898 897
f 865 866 897
f 959 960 990
f 990 958 959
f 928 897 929
f 929 897 898
f 929 959 928
f 960 959 929
f 744 151 745
f 745 773 744
f 744 743 151
f 744 773 743
f 802 803 834
f 803 835 834
f 834 835 865
f 865 833 834
f 834 833 802
f 436 122 126
f 126 405 436
f 123 122 436
f 436 467 123
f 375 343 344
f 376 407 375
f 375 345 376
f 344 345 375
f 530 499 531
f 531 562 530
f 562 561 530
f 529 499 530
f 530 561 529
f 624 623 592
f 592 593 624
f 562 593 592
f 592 561 562
f 592 622 591
f 623 622 592
f 592 591 560
f 560 561 592
f 123 119 120
f 120 116 114
f 120 119 116
f 126 127 124
f 124 131 126
f 405 131 374
f 343 375 374
f 374 130 343
f 131 130 374
f 993 127 962
f 993 124 127
f 1086 135 133
f 133 1055 1086
f 108 100 106
f 100 105 106
f 684 232 147
f 147 101 684
f 100 654 684
f 684 101 100
f 684 230 232
f 685 230 684
f 684 655 685
f 684 654 655
f 113 107 775
f 775 107 108
f 746 776 775
f 108 106 775
f 775 106 105
f 775 103 746
f 775 105 103
f 808 839 838
f 706 676 677
f 709 152 155
f 709 710 152
f 155 708 709
f 679 680 709
f 680 710 709
f 709 678 679
f 709 708 678
f 463 433 464
f 557 558 588
f 527 558 557
f 527 495 496
f 465 528 496
f 496 528 527
f 496 464 465
f 496 495 464
f 306 300 301
f 300 302 301
f 586 554 555
f 555 554 524
f 369 368 339
f 369 339 370
f 399 431 430
f 430 398 399
f 399 398 368
f 295 296 294
f 339 296 299
f 299 296 302
f 300 339 299
f 299 302 300
f 491 521 490
f 491 522 521
f 490 459 491
f 491 459 460
f 460 461 491
f 523 522 491
f 524 523 493
f 460 459 429
f 429 398 430
f 430 461 429
f 429 461 460
f 338 368 337
f 293 338 337
f 368 398 367
f 367 337 368
f 286 284 283
f 283 284 285
f 285 284 333
f 279 283 285
f 285 331 279
f 334 290 335
f 335 365 334
f 334 365 364
f 363 334 364
f 333 334 363
f 535 565 534
f 535 566 565
f 536 566 535
f 535 505 536
f 596 565 597
f 565 566 597
f 597 627 596
f 597 566 598
f 239 238 234
f 234 236 239
f 145 143 136
f 136 236 141
f 141 236 142
f 141 145 136
f 142 145 141
f 237 236 713
f 713 236 143
f 469 438 470
f 470 501 469
f 501 500 469
f 469 500 499
f 595 627 626
f 626 627 658
f 658 657 626
f 595 563 564
f 532 533 564
f 564 563 532
f 596 595 564
f 564 565 596
f 534 565 564
f 564 533 534
f 810 811 841
f 841 872 871
f 871 872 903
f 934 933 903
f 935 934 903
f 903 904 935
f 719 231 227
f 717 231 719
f 778 811 810
f 810 777 778
f 778 748 749
f 686 229 230
f 686 230 685
f 685 655 686
f 722 220 221
f 721 220 722
f 721 722 750
f 750 722 751
f 750 781 780
f 750 751 781
f 506 474 475
f 506 505 474
f 506 507 537
f 475 507 506
f 506 537 536
f 536 505 506
f 252 248 250
f 248 249 250
f 445 444 414
f 445 476 444
f 445 414 415
f 415 446 445
f 445 446 477
f 477 476 445
f 217 216 690
f 690 216 689
f 691 690 660
f 691 213 217
f 217 690 691
f 567 566 536
f 598 566 567
f 568 537 538
f 536 537 568
f 568 567 536
f 568 599 598
f 598 567 568
f 693 207 692
f 360 331 361
f 360 330 331
f 360 361 391
f 391 390 360
f 390 359 360
f 360 359 329
f 329 330 360
f 638 668 637
f 576 545 577
f 577 607 576
f 701 671 672
f 701 670 671
f 638 670 669
f 669 670 699
f 669 668 638
f 669 699 698
f 698 668 669
f 183 701 181
f 672 703 702
f 702 701 672
f 672 642 673
f 673 703 672
f 174 703 169
f 950 918 919
f 1105 1136 1104
f 1104 1103 1072
f 763 764 794
f 888 920 919
f 1175 1138 1176
f 1043 1044 1075
f 611 580 612
f 578 547 548
f 549 580 548
f 548 518 549
f 485 486 516
f 454 486 485
f 485 516 484
f 484 454 485
f 425 456 455
f 456 486 455
f 455 454 423
f 455 486 454
f 489 519 488
f 488 458 489
f 457 458 488
f 550 580 549
f 581 580 550
f 549 518 550
f 518 519 550
f 364 365 395
f 395 426 394
f 395 363 364
f 394 363 395
f 676 705 675
f 170 169 704
f 704 169 703
f 170 704 166
f 166 705 167
f 166 704 705
f 175 176 736
f 736 765 764
f 267 266 263
f 263 264 267
f 260 264 263
f 323 260 263
f 263 324 323
f 355 354 325
f 354 324 325
f 325 263 266
f 324 263 325
f 325 268 326
f 325 266 268
f 571 570 540
f 570 539 540
f 540 539 508
f 508 509 540
f 417 418 449
f 387 386 355
f 417 386 387
f 387 418 417
f 510 509 478
f 664 663 632
f 693 663 664
f 664 694 693
f 695 200 203
f 203 694 695
f 197 200 695
f 695 664 665
f 694 664 695
f 731 190 732
f 812 811 780
f 780 813 812
f 813 843 812
f 873 903 872
f 904 903 873
f 875 843 844
f 844 843 813
f 844 876 875
f 63 1023 992
f 992 961 63
f 992 1023 991
f 991 960 992
f 960 929 992
f 992 929 961
f 67 961 930
f 930 898 867
f 930 929 898
f 961 929 930
f 990 1022 1021
f 1021 1022 1053
f 1054 1022 1023
f 1054 1085 1022
f 1085 1054 54
f 1116 1147 1115
f 1115 1147 1189
f 1189 1146 1115
f 1113 1083 1114
f 1114 1115 1146
f 1145 1146 1187
f 1145 1114 1146
f 1119 1088 1120
f 1119 1153 1151
f 1120 1153 1119
f 1156 1121 1122
f 1120 1121 1156
f 1058 1089 1057
f 1057 1089 1088
f 1057 1027 1058
f 1026 1027 1057
f 1057 1088 1056
f 717 719 747
f 747 719 748
f 748 778 747
f 747 778 777
f 747 718 717
f 746 718 747
f 747 776 746
f 747 777 776
f 964 965 995
f 964 933 934
f 934 965 964
f 932 964 963
f 933 964 932
f 967 997 966
f 966 935 967
f 935 936 967
f 968 999 967
f 967 937 968
f 967 936 937
f 937 906 907
f 907 906 875
f 875 876 907
f 1000 1030 999
f 1134 1171 1133
f 1133 1103 1134
f 1103 1104 1134
f 1135 1136 1197
f 1135 1104 1136
f 1173 1134 1135
f 1135 1134 1104
f 759 731 760
f 1142 1181 1195
f 1179 1181 1142
f 1142 1180 1179
f 1143 1180 1142
f 1195 1178 1142
f 1142 1178 1141
f 864 865 896
f 865 897 896
f 165 162 740
f 162 741 740
f 801 833 800
f 168 164 738
f 738 172 168
f 920 921 951
f 919 920 951
f 951 950 919
f 858 826 827
f 828 858 827
f 987 988 1019
f 1141 1140 1109
f 1079 1109 1078
f 985 1017 1016
f 742 743 772
f 772 771 742
f 802 771 772
f 772 773 802
f 743 773 772
f 68 64 67
f 67 69 68
f 67 70 65
f 65 69 67
f 70 69 65
f 61 66 64
f 527 528 559
f 559 61 64
f 528 61 559
f 47 48 41
f 41 39 47
f 42 38 41
f 38 39 41
f 44 43 373
f 373 43 50
f 59 466 56
f 497 528 465
f 465 434 497
f 434 466 497
f 59 528 497
f 497 466 59
f 588 620 619
f 620 650 619
f 711 710 681
f 681 710 680
f 712 711 681
f 681 682 712
f 681 650 651
f 651 682 681
f 372 341 342
f 372 371 341
f 837 75 74
f 74 71 837
f 85 806 804
f 85 804 745
f 80 79 85
f 73 716 76
f 73 79 716
f 76 85 73
f 73 85 79
f 467 436 437
f 125 127 123
f 123 120 125
f 140 343 129
f 343 130 129
f 129 133 140
f 129 130 133
f 134 130 131
f 1056 1055 1025
f 1025 1057 1056
f 1026 1057 1025
f 995 1026 1025
f 962 963 994
f 994 993 962
f 995 1025 994
f 994 964 995
f 963 964 994
f 1087 1055 1056
f 1087 1086 1055
f 1056 1088 1087
f 807 110 113
f 807 838 110
f 808 838 807
f 869 839 870
f 869 838 839
f 114 118 869
f 869 118 110
f 110 838 869
f 646 647 678
f 678 677 646
f 646 645 614
f 676 645 646
f 646 677 676
f 707 708 161
f 706 677 707
f 678 708 707
f 707 677 678
f 161 160 707
f 707 160 706
f 464 495 494
f 494 463 464
f 370 371 401
f 401 371 402
f 402 433 401
f 401 369 370
f 526 495 527
f 527 557 526
f 431 399 400
f 400 401 431
f 369 401 400
f 368 369 400
f 400 399 368
f 298 296 297
f 296 295 297
f 523 491 492
f 492 491 461
f 492 493 523
f 461 493 492
f 431 463 462
f 462 461 431
f 462 493 461
f 463 494 462
f 462 494 493
f 287 286 288
f 284 286 287
f 288 290 287
f 290 334 287
f 333 284 287
f 287 334 333
f 459 427 428
f 428 429 459
f 398 429 428
f 428 397 398
f 366 367 398
f 398 397 366
f 504 534 503
f 504 535 534
f 505 535 504
f 659 689 658
f 659 690 689
f 660 690 659
f 251 241 246
f 241 245 246
f 241 242 243
f 243 245 241
f 244 242 238
f 235 236 237
f 235 239 236
f 138 142 140
f 135 1086 138
f 809 777 810
f 810 841 809
f 808 777 809
f 871 903 902
f 902 903 933
f 228 719 227
f 720 226 721
f 720 228 226
f 719 228 720
f 749 748 720
f 748 719 720
f 721 750 720
f 720 750 749
f 811 778 779
f 779 778 749
f 780 811 779
f 779 750 780
f 749 750 779
f 656 686 655
f 656 657 687
f 687 686 656
f 229 686 224
f 224 687 225
f 224 686 687
f 661 660 630
f 661 691 660
f 569 568 538
f 538 570 569
f 570 600 569
f 600 599 569
f 599 568 569
f 205 726 206
f 210 692 207
f 632 663 662
f 662 663 693
f 693 692 662
f 662 661 630
f 662 692 691
f 691 661 662
f 213 691 215
f 691 692 215
f 692 210 215
f 606 607 638
f 638 637 606
f 667 668 698
f 546 547 578
f 578 577 546
f 516 547 546
f 546 577 545
f 607 577 608
f 608 639 638
f 638 607 608
f 608 577 578
f 578 609 608
f 640 670 639
f 671 670 640
f 639 608 640
f 640 608 609
f 699 670 700
f 670 701 700
f 701 183 700
f 182 700 183
f 186 699 182
f 699 700 182
f 177 703 173
f 177 702 703
f 181 701 177
f 701 702 177
f 917 918 948
f 917 886 918
f 885 886 917
f 948 947 917
f 763 794 793
f 793 794 826
f 918 950 949
f 948 918 949
f 1041 1072 1040
f 1009 1041 1040
f 1010 1041 1009
f 791 790 760
f 822 790 791
f 791 823 822
f 827 826 795
f 826 794 795
f 764 765 795
f 795 794 764
f 1139 1196 1177
f 1140 1196 1139
f 1139 1109 1140
f 1108 1109 1139
f 1177 1176 1139
f 1139 1176 1138
f 1043 1075 1074
f 1074 1075 1105
f 1105 1104 1074
f 1106 1136 1105
f 1105 1075 1106
f 516 486 517
f 517 547 516
f 517 548 547
f 518 548 517
f 610 609 578
f 610 640 609
f 610 611 642
f 580 611 610
f 393 363 394
f 393 392 361
f 393 394 425
f 423 392 393
f 456 457 487
f 457 488 487
f 487 486 456
f 487 519 518
f 487 488 519
f 518 517 487
f 487 517 486
f 427 426 396
f 426 395 396
f 396 395 365
f 396 428 427
f 397 428 396
f 365 366 396
f 396 366 397
f 614 645 644
f 644 645 676
f 676 675 644
f 674 675 705
f 705 704 674
f 674 644 675
f 674 673 642
f 703 673 674
f 674 704 703
f 175 736 179
f 179 736 178
f 735 736 764
f 178 736 735
f 764 734 735
f 735 734 178
f 356 387 355
f 356 325 326
f 355 325 356
f 326 327 356
f 327 357 356
f 356 357 388
f 388 387 356
f 571 540 572
f 417 449 448
f 448 447 417
f 448 449 480
f 478 447 448
f 602 570 571
f 602 601 570
f 632 601 602
f 571 572 602
f 602 572 603
f 199 729 198
f 201 198 728
f 198 729 728
f 204 201 728
f 728 729 758
f 758 757 728
f 787 758 788
f 787 757 758
f 788 820 787
f 787 820 819
f 786 757 787
f 211 206 725
f 725 206 726
f 212 211 725
f 811 812 842
f 842 812 843
f 842 841 811
f 872 841 842
f 842 873 872
f 874 843 875
f 905 904 874
f 904 873 874
f 874 842 843
f 873 842 874
f 875 906 874
f 906 905 874
f 837 70 868
f 836 837 868
f 1053 1083 1052
f 1052 1021 1053
f 1083 1051 1052
f 1052 1051 1021
f 50 43 46
f 46 44 48
f 46 43 44
f 46 1147 1116
f 58 54 1054
f 59 56 58
f 58 56 54
f 58 1054 1023
f 1084 1053 1116
f 1116 1115 1084
f 1084 1083 1053
f 1084 1114 1083
f 1115 1114 1084
f 1113 1114 1144
f 1114 1145 1144
f 1144 1180 1143
f 1120 1154 1152
f 1152 1153 1120
f 1149 1119 1150
f 1150 1119 1151
f 1158 1156 1122
f 1155 1154 1120
f 1120 1156 1155
f 997 967 998
f 999 1030 998
f 998 967 999
f 1030 1000 1031
f 1031 1000 1032
f 1032 1000 1001
f 1001 1002 1032
f 937 907 938
f 1171 1134 1172
f 1172 1134 1173
f 1174 1135 1197
f 1173 1135 1174
f 1169 1131 1170
f 1169 1130 1131
f 1102 1103 1133
f 1072 1103 1102
f 1100 1068 1069
f 1131 1100 1101
f 1101 1102 1133
f 1069 1070 1101
f 1101 1100 1069
f 760 790 789
f 789 759 760
f 789 790 822
f 789 820 788
f 788 758 789
f 758 759 789
f 731 759 730
f 195 192 730
f 730 192 190
f 190 731 730
f 730 199 195
f 729 199 730
f 758 729 730
f 730 759 758
f 1113 1144 1112
f 1112 1144 1143
f 1143 1142 1112
f 928 959 927
f 927 959 958
f 927 897 928
f 927 896 897
f 1020 1051 1019
f 1021 1051 1020
f 1082 1083 1113
f 1082 1051 1083
f 1081 1051 1082
f 1113 1112 1082
f 1082 1112 1081
f 894 863 864
f 894 925 924
f 739 164 165
f 165 740 739
f 739 740 769
f 739 738 164
f 799 800 831
f 829 828 797
f 832 863 831
f 831 800 832
f 832 800 833
f 832 833 864
f 864 863 832
f 770 771 801
f 801 800 770
f 741 742 770
f 742 771 770
f 770 740 741
f 769 740 770
f 770 799 769
f 800 799 770
f 171 172 737
f 172 738 737
f 737 176 171
f 737 736 176
f 1044 1014 1045
f 1076 1075 1045
f 1045 1075 1044
f 1013 1014 1044
f 1043 1012 1013
f 1013 1044 1043
f 1013 1012 981
f 952 951 921
f 920 888 889
f 888 858 889
f 859 829 860
f 828 829 859
f 858 828 859
f 1019 1051 1050
f 1050 1051 1081
f 1141 1109 1110
f 1109 1079 1110
f 1016 1017 1048
f 1048 1079 1078
f 1017 987 1018
f 1018 1048 1017
f 1018 987 1019
f 955 985 954
f 955 956 987
f 924 925 955
f 925 956 955
f 954 985 984
f 57 59 63
f 63 61 57
f 57 528 59
f 57 61 528
f 63 66 62
f 62 61 63
f 66 61 62
f 621 589 590
f 589 558 590
f 590 559 64
f 590 558 527
f 527 559 590
f 64 68 590
f 590 69 621
f 590 68 69
f 42 41 714
f 714 41 715
f 715 41 310
f 310 373 342
f 44 373 310
f 404 373 50
f 342 373 404
f 404 372 342
f 434 433 403
f 403 433 402
f 372 404 403
f 402 371 403
f 371 372 403
f 307 312 305
f 305 309 307
f 304 305 300
f 304 309 305
f 745 82 81
f 81 85 745
f 80 85 81
f 75 806 78
f 76 75 78
f 405 374 406
f 406 374 375
f 406 436 405
f 406 437 436
f 406 375 407
f 406 407 438
f 438 437 406
f 468 499 467
f 467 437 468
f 468 469 499
f 438 469 468
f 468 437 438
f 132 1055 133
f 132 134 1055
f 133 130 132
f 130 134 132
f 131 124 128
f 128 134 131
f 124 134 128
f 1024 1025 1055
f 1055 134 1024
f 993 994 1024
f 1024 994 1025
f 124 993 1024
f 1024 134 124
f 1118 1119 1149
f 1088 1119 1118
f 1118 1087 1088
f 113 775 774
f 774 807 113
f 774 775 776
f 774 776 808
f 808 807 774
f 931 963 962
f 931 932 963
f 931 125 120
f 962 127 931
f 127 125 931
f 616 647 615
f 647 646 615
f 585 616 615
f 615 646 614
f 588 619 587
f 587 557 588
f 587 617 586
f 432 463 431
f 431 401 432
f 433 463 432
f 432 401 433
f 337 367 336
f 367 366 336
f 336 292 293
f 293 337 336
f 335 290 336
f 290 292 336
f 336 365 335
f 336 366 365
f 503 472 473
f 473 504 503
f 441 442 473
f 473 472 441
f 442 443 473
f 473 443 474
f 474 505 473
f 505 504 473
f 627 597 628
f 658 627 628
f 628 659 658
f 628 598 629
f 628 597 598
f 629 660 628
f 660 659 628
f 238 239 240
f 240 244 238
f 144 145 142
f 142 138 144
f 140 133 137
f 137 138 140
f 133 135 137
f 143 145 146
f 840 841 871
f 840 809 841
f 840 871 870
f 870 839 840
f 840 839 808
f 808 809 840
f 933 932 901
f 901 902 933
f 901 869 870
f 870 871 901
f 871 902 901
f 932 931 901
f 624 594 625
f 625 655 624
f 625 656 655
f 625 594 595
f 595 626 625
f 625 626 657
f 657 656 625
f 218 214 724
f 724 214 212
f 212 725 724
f 940 939 909
f 632 662 631
f 631 601 632
f 631 600 601
f 630 600 631
f 631 662 630
f 576 607 575
f 607 606 575
f 575 545 576
f 636 637 668
f 668 667 636
f 636 606 637
f 484 516 515
f 516 546 515
f 515 483 484
f 514 483 515
f 515 545 514
f 515 546 545
f 918 886 887
f 886 856 887
f 887 856 888
f 919 918 887
f 887 888 919
f 857 856 826
f 888 856 857
f 826 858 857
f 857 858 888
f 885 917 916
f 916 917 947
f 826 856 825
f 825 793 826
f 980 950 981
f 980 949 950
f 948 949 980
f 1011 1041 1010
f 1011 1012 1043
f 981 1012 1011
f 1011 980 981
f 1010 1009 978
f 978 947 948
f 761 791 760
f 761 731 732
f 760 731 761
f 1136 1106 1137
f 1137 1175 1197
f 1197 1136 1137
f 1137 1138 1175
f 1137 1106 1138
f 1107 1075 1076
f 1107 1106 1075
f 1138 1106 1107
f 1107 1139 1138
f 1108 1139 1107
f 578 548 579
f 579 610 578
f 579 548 580
f 580 610 579
f 640 610 641
f 672 671 641
f 671 640 641
f 641 642 672
f 641 610 642
f 332 285 333
f 333 363 332
f 331 285 332
f 425 455 424
f 424 393 425
f 424 455 423
f 423 393 424
f 614 644 613
f 612 581 613
f 613 644 612
f 612 644 643
f 644 674 643
f 643 674 642
f 643 611 612
f 642 611 643
f 541 572 540
f 541 540 509
f 509 510 541
f 480 510 479
f 479 448 480
f 479 510 478
f 478 448 479
f 633 664 632
f 632 602 633
f 665 664 633
f 204 728 727
f 727 726 204
f 726 755 754
f 754 725 726
f 755 785 754
f 754 724 725
f 899 868 70
f 899 70 67
f 67 930 899
f 899 930 867
f 867 836 899
f 836 868 899
f 1116 1085 53
f 1085 54 53
f 45 48 1147
f 1147 46 45
f 45 46 48
f 63 59 60
f 59 58 60
f 60 1023 63
f 60 58 1023
f 1188 1145 1187
f 1188 1185 1145
f 1145 1185 1184
f 1184 1144 1145
f 1183 1144 1182
f 1180 1144 1183
f 1157 1122 1159
f 1157 1158 1122
f 1060 1028 1029
f 1029 1030 1060
f 1029 998 1030
f 1028 997 1029
f 997 998 1029
f 1061 1030 1062
f 1030 1031 1062
f 1062 1031 1032
f 970 938 939
f 1002 1001 970
f 970 939 940
f 1125 1161 1160
f 1160 1199 1123
f 1198 1161 1125
f 1166 1165 1129
f 1129 1165 1128
f 1130 1169 1168
f 912 881 882
f 850 851 882
f 882 881 850
f 819 820 850
f 820 851 850
f 943 912 944
f 976 975 944
f 1040 1072 1071
f 1072 1102 1071
f 1071 1070 1040
f 1071 1101 1070
f 1102 1101 1071
f 1131 1130 1099
f 1099 1100 1131
f 1068 1100 1099
f 1170 1131 1132
f 1131 1101 1132
f 1133 1170 1132
f 1132 1101 1133
f 976 944 945
f 1081 1112 1080
f 1080 1050 1081
f 1080 1110 1079
f 1079 1048 1080
f 925 894 926
f 1019 988 989
f 989 1020 1019
f 989 988 958
f 989 958 990
f 990 1021 989
f 1021 1020 989
f 768 739 769
f 769 799 768
f 768 799 798
f 768 798 797
f 738 739 768
f 860 829 830
f 797 798 830
f 830 829 797
f 830 799 831
f 798 799 830
f 924 955 923
f 923 955 954
f 893 894 924
f 924 923 893
f 893 923 892
f 863 894 893
f 766 737 738
f 766 795 765
f 765 736 766
f 736 737 766
f 982 1013 981
f 981 950 982
f 950 951 982
f 890 889 858
f 858 859 890
f 890 921 920
f 920 889 890
f 890 859 860
f 1016 1048 1047
f 1047 1048 1078
f 1017 985 986
f 985 955 986
f 986 987 1017
f 986 955 987
f 1046 1045 1014
f 1046 1047 1078
f 1016 1047 1046
f 983 984 1014
f 952 984 983
f 1014 1013 983
f 1013 982 983
f 951 952 983
f 983 982 951
f 715 310 311
f 311 310 312
f 308 310 342
f 312 310 308
f 305 312 308
f 342 341 308
f 341 305 308
f 44 310 40
f 40 310 41
f 48 44 40
f 40 41 48
f 435 56 466
f 435 403 404
f 435 466 434
f 434 403 435
f 303 300 306
f 303 304 300
f 806 85 84
f 84 78 806
f 84 85 76
f 76 78 84
f 1117 1118 1149
f 1117 1193 145
f 1086 1087 1117
f 1087 1118 1117
f 1117 138 1086
f 553 585 584
f 585 615 584
f 584 552 553
f 584 583 552
f 614 583 584
f 584 615 614
f 649 681 680
f 650 681 649
f 648 617 649
f 649 679 648
f 649 680 679
f 557 587 556
f 586 555 556
f 556 587 586
f 139 144 138
f 139 1117 145
f 138 1117 139
f 145 1193 1192
f 1192 146 145
f 869 901 900
f 900 901 931
f 114 869 900
f 900 121 114
f 120 121 900
f 900 931 120
f 781 751 752
f 752 782 781
f 545 575 544
f 605 575 606
f 606 636 605
f 666 636 667
f 666 695 665
f 697 667 698
f 698 191 697
f 697 666 667
f 196 697 191
f 194 697 196
f 948 980 979
f 979 978 948
f 1010 978 979
f 979 1011 1010
f 980 1011 979
f 1041 1011 1042
f 1042 1011 1043
f 823 791 824
f 791 792 824
f 824 825 856
f 793 825 824
f 824 792 793
f 762 761 732
f 791 761 762
f 762 792 791
f 762 734 763
f 763 793 762
f 793 792 762
f 363 393 362
f 362 332 363
f 362 393 361
f 361 331 362
f 331 332 362
f 552 583 582
f 582 583 614
f 614 613 582
f 581 550 582
f 582 613 581
f 665 633 634
f 634 666 665
f 634 602 603
f 634 633 602
f 756 728 757
f 756 727 728
f 756 757 786
f 786 785 756
f 756 785 755
f 756 755 726
f 726 727 756
f 1096 1128 1127
f 784 785 817
f 784 754 785
f 50 46 52
f 52 53 50
f 52 46 1116
f 1116 53 52
f 1182 1144 1186
f 1144 1184 1186
f 1093 1092 1061
f 1061 1062 1093
f 1123 1092 1093
f 969 1001 1000
f 969 970 1001
f 938 970 969
f 969 999 968
f 969 1000 999
f 968 937 969
f 937 938 969
f 1127 1162 1163
f 1032 1002 1033
f 1002 1034 1033
f 1164 1162 1127
f 1127 1128 1164
f 1128 1165 1164
f 1130 1168 1167
f 1166 1129 1167
f 1167 1129 1130
f 1069 1068 1038
f 1038 1070 1069
f 977 1007 976
f 976 945 977
f 977 945 946
f 977 978 1009
f 977 946 947
f 947 978 977
f 880 850 881
f 1006 1005 975
f 1006 975 976
f 976 1007 1006
f 975 1005 974
f 943 944 974
f 974 944 975
f 913 912 882
f 913 944 912
f 914 945 913
f 913 945 944
f 1068 1099 1098
f 1130 1129 1098
f 1098 1099 1130
f 1098 1129 1128
f 822 823 853
f 823 854 853
f 853 854 885
f 885 884 853
f 915 945 914
f 946 945 915
f 947 946 915
f 915 916 947
f 885 916 915
f 915 884 885
f 883 913 882
f 914 913 883
f 882 851 883
f 851 852 883
f 883 915 914
f 884 915 883
f 883 853 884
f 852 853 883
f 821 851 820
f 821 852 851
f 820 789 821
f 821 789 822
f 822 853 821
f 821 853 852
f 1111 1112 1142
f 1111 1080 1112
f 1110 1080 1111
f 1111 1142 1141
f 1141 1110 1111
f 1048 1018 1049
f 1049 1080 1048
f 1050 1080 1049
f 1019 1050 1049
f 1049 1018 1019
f 957 927 958
f 957 926 927
f 958 988 957
f 988 987 957
f 987 956 957
f 957 956 925
f 925 926 957
f 864 896 895
f 895 894 864
f 895 926 894
f 896 927 895
f 927 926 895
f 767 768 797
f 738 768 767
f 797 766 767
f 767 766 738
f 861 892 860
f 860 830 861
f 922 923 954
f 892 923 922
f 797 828 796
f 796 766 797
f 795 766 796
f 796 828 827
f 827 795 796
f 1077 1107 1076
f 1108 1107 1077
f 1076 1045 1077
f 1045 1046 1077
f 1077 1046 1078
f 1078 1109 1077
f 1077 1109 1108
f 1014 984 1015
f 1015 1046 1014
f 1016 1046 1015
f 1015 985 1016
f 1015 984 985
f 55 435 404
f 55 53 54
f 1148 1117 1149
f 1193 1117 1148
f 618 587 619
f 618 619 650
f 650 649 618
f 617 587 618
f 618 649 617
f 525 494 495
f 495 526 525
f 525 526 557
f 557 556 525
f 524 493 525
f 493 494 525
f 525 555 524
f 525 556 555
f 753 752 724
f 724 754 753
f 723 221 218
f 723 722 221
f 218 724 723
f 724 752 723
f 751 722 723
f 723 752 751
f 878 909 877
f 814 844 813
f 814 813 781
f 781 782 814
f 514 545 513
f 545 544 513
f 513 483 514
f 575 605 574
f 636 666 635
f 666 634 635
f 193 697 194
f 666 697 696
f 197 695 696
f 695 666 696
f 696 193 197
f 697 193 696
f 1073 1104 1072
f 1072 1041 1073
f 1041 1042 1073
f 1073 1074 1104
f 1043 1074 1073
f 1073 1042 1043
f 855 886 885
f 885 854 855
f 855 856 886
f 855 824 856
f 855 854 823
f 823 824 855
f 733 762 732
f 733 188 184
f 732 188 733
f 184 734 733
f 734 762 733
f 552 582 551
f 551 550 519
f 551 582 550
f 971 970 940
f 1002 970 971
f 1003 1034 1002
f 1002 971 1003
f 1003 971 972
f 910 909 878
f 1065 1033 1034
f 1064 1033 1065
f 1095 1064 1065
f 1065 1096 1095
f 816 784 817
f 1124 1160 1123
f 1123 1093 1124
f 1125 1160 1124
f 1124 1093 1125
f 1063 1062 1032
f 1063 1093 1062
f 1063 1064 1095
f 1032 1033 1063
f 1063 1033 1064
f 1126 1163 1198
f 1127 1163 1126
f 1126 1096 1127
f 1095 1096 1126
f 1125 1095 1126
f 1126 1198 1125
f 1007 977 1008
f 1008 977 1009
f 881 912 911
f 911 880 881
f 911 910 880
f 819 850 818
f 818 787 819
f 786 787 818
f 818 785 786
f 817 785 818
f 1037 1038 1068
f 1007 1038 1037
f 1037 1006 1007
f 1036 1005 1037
f 1005 1006 1037
f 1067 1098 1066
f 1068 1098 1067
f 1036 1037 1067
f 1067 1037 1068
f 1097 1098 1128
f 1066 1098 1097
f 1128 1096 1097
f 1096 1065 1097
f 1097 1065 1066
f 831 863 862
f 863 893 862
f 862 830 831
f 862 861 830
f 862 893 892
f 892 861 862
f 860 892 891
f 892 922 891
f 891 890 860
f 921 890 891
f 891 922 921
f 953 952 921
f 921 922 953
f 953 984 952
f 954 984 953
f 953 922 954
f 56 435 51
f 435 55 51
f 54 56 51
f 51 55 54
f 50 53 49
f 53 55 49
f 49 404 50
f 49 55 404
f 783 816 815
f 784 816 783
f 754 784 783
f 783 753 754
f 783 814 782
f 815 814 783
f 782 752 783
f 752 753 783
f 878 877 846
f 846 814 815
f 846 877 876
f 908 909 939
f 908 877 909
f 939 938 908
f 908 938 907
f 908 907 876
f 876 877 908
f 876 844 845
f 844 814 845
f 845 846 876
f 814 846 845
f 451 483 482
f 483 513 482
f 451 482 481
f 481 482 513
f 604 605 636
f 636 635 604
f 603 572 604
f 604 634 603
f 604 635 634
f 489 490 520
f 490 521 520
f 520 519 489
f 520 551 519
f 520 521 552
f 552 551 520
f 941 971 940
f 972 971 941
f 940 909 941
f 909 910 941
f 910 911 941
f 848 816 817
f 817 818 848
f 1125 1093 1094
f 1093 1063 1094
f 1094 1095 1125
f 1094 1063 1095
f 1039 1009 1040
f 1039 1008 1009
f 1040 1070 1039
f 1070 1038 1039
f 1039 1038 1007
f 1007 1008 1039
f 942 912 943
f 942 911 912
f 943 974 942
f 972 941 942
f 942 941 911
f 850 880 849
f 849 818 850
f 880 848 849
f 849 848 818
f 815 816 847
f 847 846 815
f 878 846 847
f 847 848 878
f 816 848 847
f 543 513 544
f 543 544 575
f 575 574 543
f 451 481 450
f 450 449 418
f 480 449 450
f 450 481 480
f 573 574 605
f 605 604 573
f 573 543 574
f 573 604 572
f 879 910 878
f 878 848 879
f 880 910 879
f 879 848 880
f 973 974 1005
f 973 942 974
f 973 1003 972
f 972 942 973
f 480 481 511
f 511 510 480
f 388 389 419
f 389 420 419
f 419 450 418
f 419 420 451
f 451 450 419
f 419 387 388
f 418 387 419
f 1004 973 1005
f 1003 973 1004
f 512 511 481
f 543 511 512
f 512 481 513
f 513 543 512
f 543 573 542
f 542 511 543
f 572 541 542
f 542 573 572
f 542 541 510
f 510 511 542
f 1036 1067 1035
f 1035 1067 1066
f 1035 1005 1036
f 1035 1004 1005
f 1035 1065 1034
f 1066 1065 1035
f 1034 1003 1035
f 1003 1004 1035
f 16 13 12
f 25 13 16
f 19 18 9
f 8 19 9
f 9 18 17
f 17 10 9
f 7 19 8
f 7 20 19
f 7 11 21
f 21 20 7
f 4 3 23
f 23 22 4
f 162 160 161
f 165 160 162
f 162 159 158
f 162 161 159
f 158 159 155
f 155 156 158
f 218 221 216
f 216 217 218
f 23 3 24
f 3 2 24
f 35 36 24
f 24 2 35
f 208 205 209
f 209 202 208
f 154 157 152
f 152 153 154
f 156 155 152
f 152 157 156
f 148 83 82
f 82 149 148
f 14 13 25
f 25 15 14
f 14 15 90
f 90 89 14
f 233 99 147
f 147 232 233
f 220 216 221
f 219 216 220
f 203 208 202
f 204 208 203
f 86 37 38
f 86 38 42
f 86 36 35
f 35 37 86
f 150 148 149
f 150 149 151
f 154 153 150
f 150 151 154
f 147 99 101
f 99 103 101
f 231 233 232
f 232 230 231
f 229 231 230
f 227 231 229
f 219 220 222
f 223 219 222
f 222 226 225
f 225 223 222
f 168 167 163
f 163 164 168
f 163 160 165
f 165 164 163
f 204 203 200
f 200 201 204
f 197 198 200
f 200 198 201
f 187 189 185
f 186 187 185
f 190 191 185
f 185 189 190
f 87 89 90
f 87 88 89
f 218 217 214
f 217 213 214
f 183 180 184
f 181 180 183
f 169 176 175
f 175 174 169
f 169 170 171
f 171 176 169
f 171 170 166
f 166 172 171
f 166 167 168
f 168 172 166
f 225 226 224
f 226 228 224
f 227 229 224
f 224 228 227
f 209 205 206
f 206 207 209
f 207 206 210
f 210 206 211
f 215 214 213
f 212 214 215
f 215 210 211
f 215 211 212
f 182 187 186
f 182 188 187
f 182 183 184
f 184 188 182
f 177 180 181
f 177 178 180
f 179 174 175
f 173 174 179
f 178 177 179
f 179 177 173
f 82 83 81
f 83 80 81
f 146 87 143
f 88 87 146
f 283 282 303
f 252 250 303
f 303 249 251
f 28 30 303
f 303 98 26
f 288 286 303
f 26 28 303
f 303 235 237
f 303 32 34
f 303 295 294
f 242 244 303
f 303 270 267
f 90 92 303
f 257 256 303
f 267 264 303
f 303 259 257
f 274 272 303
f 34 36 303
f 96 98 303
f 303 94 96
f 303 86 42
f 294 291 303
f 303 256 253
f 253 252 303
f 278 276 303
f 30 32 303
f 303 92 94
f 306 301 303
f 303 281 278
f 303 289 288
f 303 265 262
f 36 86 303
f 303 302 298
f 280 281 303
f 303 282 280
f 291 289 303
f 298 297 303
f 303 87 90
f 237 713 303
f 303 264 265
f 262 259 303
f 303 276 274
f 303 272 269
f 269 270 303
f 303 240 239
f 303 301 302
f 312 307 303
f 303 286 283
f 251 246 303
f 303 243 242
f 143 87 303
f 303 713 143
f 303 250 249
f 42 714 303
f 303 297 295
f 303 246 245
f 245 243 303
f 715 311 303
f 239 235 303
f 303 714 715
f 303 307 309
f 309 304 303
f 244 240 303
f 303 311 312
f 196 191 190
f 190 192 196
f 196 192 195
f 195 194 196
f 1187 1191 1148
f 1148 1152 1154
f 1166 1167 1148
f 1148 37 35
f 29 27 1148
f 1154 1155 1148
f 1197 1175 1148
f 1148 1194 38
f 93 91 1148
f 1148 27 1
f 1 97 1148
f 1177 1196 1148
f 88 146 1148
f 1148 1181 1179
f 1148 95 93
f 35 33 1148
f 1148 31 29
f 1159 1199 1148
f 1148 1174 1197
f 97 95 1148
f 91 89 1148
f 38 37 1148
f 1149 1150 1148
f 1199 1160 1148
f 1148 1196 1178
f 1148 33 31
f 1190 1194 1148
f 1148 1191 1190
f 1179 1180 1148
f 1171 1172 1148
f 1148 1178 1195
f 1195 1181 1148
f 1148 1163 1162
f 89 88 1148
f 1175 1176 1148
f 1148 1157 1159
f 1148 1170 1171
f 1148 1176 1177
f 1151 1153 1148
f 1148 1183 1182
f 1182 1186 1148
f 1148 1192 1193
f 1148 1168 1169
f 1148 1188 1187
f 1153 1152 1148
f 1148 1150 1151
f 1156 1158 1148
f 1148 1155 1156
f 1148 1160 1161
f 1148 1172 1173
f 1173 1174 1148
f 1148 1169 1170
f 1162 1164 1148
f 1185 1188 1148
f 1148 1184 1185
f 1180 1183 1148
f 1158 1157 1148
f 1161 1198 1148
f 1148 1165 1166
f 146 1192 1148
f 1148 1186 1184
f 1198 1163 1148
f 1148 1164 1165
f 1148 1167 1168
f 193 198 197
f 193 199 198
f 193 194 195
f 195 199 193

