# https://github.com/mikedh/trimesh
v -0.05100010 0.00666664 0.01349998
v -0.05550010 0.00749999 0.01349998
v -0.05100010 0.00674998 0.01049998
v -0.05550010 0.00599999 0.01349998
v -0.05550013 -0.00450001 -0.01200001
v -0.05550014 -0.00750002 -0.01350001
v -0.05550008 0.01349999 -0.00300002
v -0.05550009 0.00899999 -0.00750002
v -0.05550009 0.00899999 -0.00450002
v -0.05550009 0.01049999 -0.00750002
v -0.05550008 0.01199999 -0.00450002
v -0.05550009 0.00899999 -0.00600002
v -0.05550008 0.01349999 -0.00750002
v -0.05550008 0.01199999 -0.00750002
v -0.05550015 -0.01200001 -0.00750001
v -0.05550015 -0.01050001 -0.00750001
v -0.05550015 -0.01200001 -0.00450001
v -0.05550014 -0.00900001 -0.00450001
v -0.05550015 -0.01200001 -0.00600001
v -0.05550014 -0.00750001 -0.00150001
v -0.05550014 -0.00750001 0.00299999
v -0.05550009 0.00899999 0.00749998
v -0.05550011 0.00374999 0.00862498
v -0.05550008 0.01199999 0.00749998
v -0.05550010 0.00674999 0.01049998
v -0.05550014 -0.00750001 0.01049999
v -0.05550012 -0.00000001 0.01049999
v -0.05550011 0.00149999 0.01049999
v -0.05550013 -0.00450001 0.01049999
v -0.05550012 -0.00150001 0.01049999
v -0.05550009 0.01049999 0.00749998
v -0.05550008 0.01299999 0.00399998
v -0.05550009 0.00899999 0.00599998
v -0.05550008 0.01199999 0.00599998
v -0.05550010 0.00449998 -0.01350002
v -0.05550011 0.00149998 -0.01250001
v -0.05550013 -0.00300001 -0.00750001
v -0.05550010 0.00599999 -0.01050002
v -0.05550012 -0.00150001 -0.01100001
v -0.05550015 -0.01200001 0.00749999
v -0.05550014 -0.00825001 0.00824999
v -0.05550015 -0.01050001 0.00749999
v -0.05550015 -0.01200001 0.00449999
v -0.05550014 -0.00900001 0.00449999
v -0.05550014 -0.00900001 0.00599999
v -0.05550015 -0.01200001 0.00599999
v -0.05550010 0.00449999 -0.00450002
v -0.05550010 0.00524999 -0.00300002
v -0.05550010 0.00599999 0.00149998
v -0.05550010 0.00599999 -0.00075002
v -0.05550010 0.00749999 0.00374998
v -0.05550011 0.00449999 0.00449998
v -0.05550010 0.00449999 0.00299998
v -0.05550012 -0.00075001 0.00599999
v -0.05550011 0.00149999 0.00599999
v -0.05550011 0.00299999 0.00599998
v -0.05550011 0.00299999 0.00449998
v -0.05550013 -0.00300001 0.00599999
v -0.05550013 -0.00300001 0.00449999
v -0.05550013 -0.00450001 0.00449999
v -0.05550014 -0.00600001 -0.00037501
v -0.05550013 -0.00525001 0.00299999
v -0.05550013 -0.00525001 -0.00300001
v -0.05550013 -0.00450001 -0.00450001
v -0.05550011 0.00299999 -0.00583335
v -0.05550012 -0.00150001 -0.00600001
v -0.05550013 -0.00300001 -0.00525001
v -0.05550013 -0.00450001 0.00899999
v -0.05550014 -0.00750001 -0.01200001
v -0.05550014 -0.00825001 -0.00825001
v -0.05550013 -0.00450001 -0.00900001
v -0.05550014 -0.00600001 -0.01200001
v -0.05550009 0.01049999 0.00149998
v -0.05550008 0.01199999 0.00149998
v -0.05550009 0.01049999 -0.00000002
v -0.05550008 0.01149999 -0.00150002
v -0.05550010 0.00749999 -0.01050002
v -0.05550010 0.00599998 -0.01350002
v -0.05550010 0.00749998 -0.01350002
v -0.05550014 -0.00600002 -0.01650001
v -0.05550014 -0.00877502 -0.01560001
v -0.05550013 -0.00450002 -0.01800001
v -0.05550017 -0.01650001 -0.00900001
v -0.05550017 -0.01650001 -0.00600001
v -0.05550017 -0.01800001 -0.00450001
v -0.05550017 -0.01800001 0.00449999
v -0.05550016 -0.01450001 0.00149999
v -0.05550017 -0.01800001 -0.00150001
v -0.05550016 -0.01500001 -0.00150001
v -0.05550017 -0.01800001 0.00149999
v -0.05550016 -0.01350001 -0.00000001
v -0.05550016 -0.01350001 -0.00150001
v -0.05550017 -0.01650001 0.00599999
v -0.05550016 -0.01600001 0.00899999
v -0.05550016 -0.01500001 0.01049999
v -0.05550015 -0.01200001 0.01349999
v -0.05550015 -0.00975001 0.01499999
v -0.05550014 -0.00750001 0.01649999
v -0.05550014 -0.00750001 0.01199999
v -0.05550013 -0.00450001 0.01199999
v -0.05550013 -0.00450001 0.01799999
v -0.05550013 -0.00300001 0.01799999
v -0.05550014 -0.00600001 0.01649999
v -0.05550012 -0.00075001 0.01799999
v -0.05550012 -0.00000001 0.01349999
v -0.05550011 0.00449999 0.01799998
v -0.05550011 0.00149999 0.01349999
v -0.05550011 0.00449999 0.01049998
v -0.05550012 -0.00150001 0.01349999
v -0.05550010 0.00599999 0.01649998
v -0.05550009 0.00899999 0.01649998
v -0.05550008 0.01199999 0.01349998
v -0.05550008 0.01349999 0.01199998
v -0.05550009 0.01049999 0.01499998
v -0.05550009 0.00899999 0.01499998
v -0.05550007 0.01499999 0.01049998
v -0.05550007 0.01499999 0.00899998
v -0.05550007 0.01699999 0.00549998
v -0.05550007 0.01649999 0.00899998
v -0.05550007 0.01799999 0.00224998
v -0.05550008 0.01349999 -0.00000002
v -0.05550007 0.01799999 -0.00150002
v -0.05550007 0.01799999 -0.00450002
v -0.05550007 0.01649999 -0.00600002
v -0.05550007 0.01649999 -0.00900002
v -0.05550008 0.01349999 -0.01200002
v -0.05550009 0.01049998 -0.01500002
v -0.05550010 0.00599998 -0.01650002
v -0.05550009 0.00899998 -0.01575002
v -0.05550010 0.00449998 -0.01800002
v -0.05550012 0.00074998 -0.01800001
v -0.05550012 -0.00000002 -0.01350001
v -0.05550012 -0.00150002 -0.01800001
v -0.05100009 0.00899998 0.01049998
v -0.05100009 0.01124998 0.00974998
v -0.05100011 0.00449998 0.01049998
v -0.05100012 0.00074998 0.00899999
v -0.05100015 -0.01200002 0.00974999
v -0.05100011 0.00449998 0.00749998
v -0.05100013 -0.00300002 0.00749999
v -0.05100014 -0.00750002 0.00899999
v -0.05100014 -0.00750003 0.00299999
v -0.05100014 -0.00750003 -0.00150001
v -0.05100015 -0.01200003 0.00299999
v -0.05100015 -0.01200003 -0.00225001
v -0.05100014 -0.00600003 -0.00300001
v -0.05100008 0.01199997 -0.00750002
v -0.05100008 0.01349997 -0.00750002
v -0.05100008 0.01199997 -0.00450002
v -0.05100008 0.01199997 -0.00600002
v -0.05100009 0.01049997 -0.00450002
v -0.05100009 0.00899997 -0.00300002
v -0.05100009 0.00899997 -0.00450002
v -0.05100014 -0.00750003 -0.00900001
v -0.05100015 -0.01200003 -0.00750001
v -0.05100014 -0.00900003 -0.00750001
v -0.05100014 -0.00900003 -0.00450001
v -0.05100015 -0.01050003 -0.00450001
v -0.05100015 -0.01200003 -0.00450001
v -0.05100012 -0.00150003 -0.01350001
v -0.05100011 0.00149998 0.01049999
v -0.05100007 0.01499998 0.00899998
v -0.05100009 0.00899998 0.00749998
v -0.05100008 0.01199998 0.00749998
v -0.05100007 0.01799997 0.00299998
v -0.05100009 0.00899997 0.00449998
v -0.05100008 0.01199997 0.00449998
v -0.05100008 0.01199997 0.00599998
v -0.05100010 0.00599997 -0.01350002
v -0.05100010 0.00449997 -0.00750002
v -0.05100011 0.00149997 -0.01050001
v -0.05100013 -0.00300003 -0.00750001
v -0.05100012 -0.00150003 -0.01050001
v -0.05100012 -0.00000003 -0.01050001
v -0.05100014 -0.00900002 0.00749999
v -0.05100015 -0.01200002 0.00749999
v -0.05100014 -0.00900003 0.00449999
v -0.05100015 -0.01200003 0.00449999
v -0.05100014 -0.00900003 0.00599999
v -0.05100013 -0.00450003 -0.00300001
v -0.05100013 -0.00450003 -0.00450001
v -0.05100013 -0.00300003 -0.00450001
v -0.05100014 -0.00600003 -0.00150001
v -0.05100014 -0.00600003 0.00074999
v -0.05100014 -0.00600003 0.00299999
v -0.05100013 -0.00450003 0.00449999
v -0.05100013 -0.00450003 0.00299999
v -0.05100011 0.00299997 0.00599999
v -0.05100013 -0.00300003 0.00524999
v -0.05100012 -0.00075003 0.00599999
v -0.05100011 0.00349997 0.00449998
v -0.05100010 0.00599997 0.00149998
v -0.05100010 0.00599997 -0.00000002
v -0.05100010 0.00599997 -0.00150002
v -0.05100010 0.00524997 0.00299998
v -0.05100010 0.00599997 -0.00300002
v -0.05100010 0.00449997 -0.00300002
v -0.05100010 0.00449997 -0.00450002
v -0.05100011 0.00299997 -0.00500001
v -0.05100012 0.00074997 -0.00600001
v -0.05100012 -0.00150003 -0.00600001
v -0.05100013 -0.00300003 -0.00600001
v -0.05100012 -0.00150002 0.01049999
v -0.05100013 -0.00450002 0.00899999
v -0.05100014 -0.00750003 -0.01050001
v -0.05100014 -0.00750003 -0.01200001
v -0.05100013 -0.00450003 -0.01200001
v -0.05100014 -0.00600003 -0.01200001
v -0.05100013 -0.00450003 -0.00900001
v -0.05100014 -0.00600003 -0.00900001
v -0.05100008 0.01349997 0.00149998
v -0.05100009 0.01049997 0.00149998
v -0.05100009 0.01049997 -0.00150002
v -0.05100010 0.00649997 -0.01050002
v -0.05100010 0.00599997 -0.01200002
v -0.05100009 0.00899997 -0.00750002
v -0.05100010 0.00749997 -0.01200002
v -0.05100010 0.00749997 -0.01350002
v -0.05100010 0.00749997 -0.01650002
v -0.05100009 0.00899997 -0.01650002
v -0.05100010 0.00599997 -0.01650002
v -0.05100009 0.00899997 -0.01500002
v -0.05100009 0.01049997 -0.01500002
v -0.05100008 0.01199997 -0.01350002
v -0.05100008 0.01424997 -0.01125002
v -0.05100007 0.01649997 -0.00900002
v -0.05100007 0.01649997 -0.00600002
v -0.05100007 0.01799997 -0.00450002
v -0.05100007 0.01799997 -0.00300002
v -0.05100008 0.01349997 -0.00150002
v -0.05100007 0.01799997 -0.00150002
v -0.05100007 0.01799997 0.00149998
v -0.05100007 0.01649997 0.00599998
v -0.05100007 0.01799997 0.00449998
v -0.05100007 0.01649998 0.00899998
v -0.05100007 0.01499998 0.01049998
v -0.05100008 0.01349998 0.01199998
v -0.05100009 0.01049998 0.01499998
v -0.05100011 0.00449998 0.01799998
v -0.05100010 0.00599998 0.01649998
v -0.05100009 0.00899998 0.01574998
v -0.05100010 0.00749998 0.01649998
v -0.05100011 0.00149998 0.01349999
v -0.05100011 0.00149998 0.01799999
v -0.05100012 -0.00150002 0.01349999
v -0.05100012 -0.00150002 0.01799999
v -0.05100013 -0.00300002 0.01799999
v -0.05100012 -0.00150002 0.01199999
v -0.05100012 -0.00000002 0.01799999
v -0.05100013 -0.00450002 0.01199999
v -0.05100013 -0.00500002 0.01749999
v -0.05100014 -0.00600002 0.01199999
v -0.05100014 -0.00750002 0.01649999
v -0.05100014 -0.00750002 0.01199999
v -0.05100015 -0.01050002 0.01499999
v -0.05100014 -0.00900002 0.01499999
v -0.05100016 -0.01350002 0.01199999
v -0.05100016 -0.01500002 0.01049999
v -0.05100016 -0.01550002 0.00899999
v -0.05100017 -0.01650003 0.00599999
v -0.05100017 -0.01800003 0.00449999
v -0.05100017 -0.01800003 -0.00150001
v -0.05100016 -0.01425003 -0.00150001
v -0.05100016 -0.01500003 0.00149999
v -0.05100016 -0.01350003 0.00149999
v -0.05100017 -0.01800003 0.00149999
v -0.05100017 -0.01800003 -0.00300001
v -0.05100017 -0.01650003 -0.00600001
v -0.05100017 -0.01650003 -0.00900001
v -0.05100017 -0.01800003 -0.00450001
v -0.05100016 -0.01500003 -0.01050001
v -0.05100015 -0.01275003 -0.01275001
v -0.05100015 -0.01050003 -0.01500001
v -0.05100014 -0.00900003 -0.01500001
v -0.05100014 -0.00675003 -0.01650001
v -0.05100013 -0.00450003 -0.01800001
v -0.05100012 -0.00075003 -0.01800001
v -0.05100011 0.00149997 -0.01350001
v -0.05100010 0.00449997 -0.01800002
v -0.05100013 -0.00300003 -0.01800001
v -0.04877434 0.01637366 -0.02747140
v -0.04800013 0.01818180 -0.02620551
v -0.04800013 0.01871679 -0.02468720
v -0.05100013 0.01905559 -0.02481399
v -0.04800013 0.01734481 -0.02328934
v -0.04800014 0.01547338 -0.02411814
v -0.04800014 0.01543353 -0.02555481
v -0.04800014 0.01593548 -0.02629689
v -0.05100014 0.01493553 -0.02518689
v -0.04799996 0.02599997 0.02999997
v -0.04799995 0.03982497 0.01874997
v -0.04800000 0.02458406 0.01730406
v -0.04800003 0.01220922 0.01833123
v -0.04799993 0.04299400 0.02554262
v -0.04800000 0.04299997 -0.00431061
v -0.04800005 0.01658554 0.00819613
v -0.04800007 0.00904612 0.00819613
v -0.04800009 0.00152942 0.00982959
v -0.04800009 -0.00300003 0.01539998
v -0.04800008 0.00177982 0.01324963
v -0.04800008 -0.00016915 0.01434298
v -0.04800009 -0.00237125 0.01182875
v -0.04800008 0.00712112 0.00747305
v -0.04800011 -0.00300003 0.00747305
v -0.04800012 -0.00819619 0.00819613
v -0.04800006 0.01496583 0.00393748
v -0.04800010 0.00566753 0.00212608
v -0.04800002 0.03063122 0.00373651
v -0.04800009 0.01334612 -0.00300002
v -0.04800016 -0.00819651 -0.00604394
v -0.04800001 0.03982496 -0.00431060
v -0.04800006 0.03085281 -0.01077033
v -0.04800010 0.01496583 -0.00822791
v -0.04800012 0.01119612 -0.01284810
v -0.04800012 0.00712112 -0.00825964
v -0.04800005 0.03982496 -0.01707503
v -0.04800007 0.03217496 -0.01707503
v -0.04800006 0.03512673 -0.01675846
v -0.04800005 0.03578257 -0.01345872
v -0.04800006 0.03304768 -0.01449573
v -0.04800005 0.03676361 -0.01525693
v -0.04800011 0.01982496 -0.01707503
v -0.04800015 -0.00300004 -0.00768560
v -0.04800017 -0.00300004 -0.01707502
v -0.04800014 0.00712111 -0.01707502
v -0.04800014 0.00220144 -0.01256939
v -0.04800015 -0.00223102 -0.01086820
v -0.04800016 -0.00034676 -0.01438194
v -0.04800014 0.00125509 -0.01007597
v -0.04799998 0.03341011 0.01544139
v -0.04800003 0.02374139 0.00735164
v -0.04800002 0.02156175 0.01485299
v -0.04800002 0.02110025 0.01352929
v -0.04800003 0.02099278 0.01216015
v -0.04800001 0.02285637 0.01648562
v -0.04799999 0.03212694 0.01316967
v -0.04800000 0.02619515 0.01753188
v -0.04800010 0.00595824 -0.00143704
v -0.04800012 0.00379843 -0.00482255
v -0.04800014 -0.00080058 -0.00612049
v -0.04800014 -0.00459161 -0.00406593
v -0.04800013 -0.00615676 0.00056137
v -0.04800012 -0.00395998 0.00471853
v -0.04800010 0.00226649 0.00599686
v -0.04800011 -0.00559644 0.00817630
v -0.04800010 -0.00362421 0.01030614
v -0.04800012 -0.00719392 0.00858778
v -0.04800016 -0.00763869 -0.00900045
v -0.04800016 -0.00651764 -0.00818293
v -0.04800015 -0.00464828 -0.00867851
v -0.04800011 0.01056139 -0.00834303
v -0.04800010 0.01228769 -0.00705467
v -0.04800011 0.00826715 -0.00649476
v -0.04800011 0.00878450 -0.00744282
v -0.04800011 0.00848483 -0.00486198
v -0.04800010 0.01257216 -0.00535291
v -0.04800010 0.01047578 -0.00370430
v -0.04800008 0.01421494 0.00003852
v -0.04800008 0.01361704 -0.00146674
v -0.04800007 0.01368127 0.00137041
v -0.04800008 0.01183085 0.00234298
v -0.04800009 0.01128136 -0.00226620
v -0.04800009 0.00983831 0.00055949
v -0.04800009 0.00996648 -0.00070698
v -0.04800007 0.01262925 0.00562826
v -0.04800008 0.01015234 0.00356530
v -0.04800008 0.00819445 0.00572218
v -0.04800007 0.00891731 0.00773677
v -0.04800006 0.01164740 0.00792403
v -0.04799998 0.03524186 0.01309539
v -0.04799998 0.03332091 0.01467095
v -0.04799997 0.03668873 0.01494502
v -0.04799997 0.03516470 0.01681703
v -0.04799998 0.03360346 0.01591392
v -0.04799997 0.03645253 0.01579556
v -0.04897318 -0.00700962 -0.01635965
v -0.04800017 -0.00820951 -0.01006981
v -0.04800017 -0.00783802 -0.01153711
v -0.04800016 -0.00382764 -0.01121327
v -0.04800017 -0.00584164 -0.01260197
v -0.04800015 -0.00410730 -0.00935565
v -0.04800017 -0.00719392 -0.01219683
v -0.04800017 0.00557417 -0.02705923
v -0.04800017 0.01004036 -0.02952232
v -0.04800012 0.02599996 -0.03000003
v -0.04800008 0.03396172 -0.02352621
v -0.04800009 0.03493687 -0.02672749
v -0.04800008 0.03881746 -0.02996084
v -0.04800007 0.04155059 -0.02877158
v -0.04800009 0.03339052 -0.02567461
v -0.04800008 0.03609561 -0.02366299
v -0.04800008 0.03666715 -0.02563005
v -0.04800006 0.04299996 -0.02500003
v -0.04800006 0.04292108 -0.02597866
v -0.04799992 0.04194110 0.02830268
v -0.04799993 0.03911423 0.02991884
v -0.04799995 0.03396173 0.02647379
v -0.04799995 0.03512674 0.02324154
v -0.04799996 0.03339053 0.02432539
v -0.04799995 0.03650486 0.02423496
v -0.04799994 0.03612247 0.02621771
v -0.04799994 0.03661861 0.02547948
v -0.04799994 0.03559123 0.02655301
v -0.04800001 0.01060875 0.02964712
v -0.04800001 0.01693738 0.02332335
v -0.04800000 0.01547339 0.02588186
v -0.04800000 0.01871680 0.02531281
v -0.04800000 0.01734482 0.02671066
v -0.04800000 0.01818181 0.02379449
v -0.04800001 0.01752682 0.02343635
v -0.04800001 0.01564252 0.02392972
v -0.04800003 0.00558861 0.02707855
v -0.04950007 -0.00753617 0.01591309
v -0.04800010 -0.00819619 0.01535017
v -0.04800011 -0.00803319 0.01116416
v -0.04800012 -0.00808676 0.00964851
v -0.04800010 -0.00616740 0.01278984
v -0.04800014 -0.01501532 0.00860579
v -0.04800012 -0.00895650 0.00778923
v -0.04800013 -0.01089444 0.00811597
v -0.04800013 -0.01213931 0.00735186
v -0.04800016 -0.01671004 0.00299998
v -0.04800014 -0.01084169 0.00377091
v -0.04800014 -0.01254861 0.00608750
v -0.04800014 -0.01249034 0.00551703
v -0.04800013 -0.00904816 0.00429039
v -0.04800013 -0.00822299 0.00615314
v -0.04800014 -0.01223033 0.00485519
v -0.04800014 -0.01246397 0.00657517
v -0.04800013 -0.00841336 0.00512113
v -0.04800017 -0.01709407 -0.00019592
v -0.04990927 -0.01628544 -0.00511653
v -0.04800017 -0.01217899 -0.00469026
v -0.04800016 -0.00881078 -0.00444880
v -0.04800016 -0.00995712 -0.00388632
v -0.04800016 -0.01089444 -0.00388403
v -0.04800018 -0.01457460 -0.00875114
v -0.04800017 -0.01072358 -0.00827326
v -0.04800017 -0.01255497 -0.00638214
v -0.04800017 -0.01209364 -0.00731927
v -0.04800016 -0.00869156 -0.00739510
v -0.04800018 -0.01276282 -0.01130666
v -0.04800007 0.03018293 -0.01567984
v -0.04800009 0.02696414 -0.01744933
v -0.04800010 0.02260645 -0.01661597
v -0.04800008 0.02153433 -0.01020972
v -0.04800009 0.02110025 -0.01147071
v -0.04800009 0.02099278 -0.01283985
v -0.04800008 0.02251628 -0.00889463
v -0.04800007 0.02455085 -0.00762544
v -0.04800006 0.02890847 -0.00837574
v -0.04800006 0.02701210 -0.00758444
v -0.05100006 0.04297221 -0.02582007
v -0.05100005 0.03982497 -0.01707502
v -0.05100003 0.03982497 -0.00904617
v -0.05100005 0.03455864 -0.01329316
v -0.05100007 0.03217497 -0.01707502
v -0.05100006 0.03396173 -0.01647384
v -0.05100006 0.03334621 -0.01460571
v -0.05100006 0.03559123 -0.01655306
v -0.05100005 0.03631835 -0.01603774
v -0.05100005 0.03664943 -0.01427244
v -0.05100011 0.01982497 -0.01707502
v -0.05100013 0.01119612 -0.01707502
v -0.05100017 0.00479566 -0.02641827
v -0.05100012 0.00712112 -0.00862117
v -0.05100015 -0.00300003 -0.00904617
v -0.05100017 -0.00300003 -0.01707501
v -0.05100015 0.00209712 -0.01287902
v -0.05100016 -0.00222718 -0.01184002
v -0.05100016 -0.00129679 -0.01384172
v -0.05100015 -0.00138708 -0.01031015
v -0.05100014 0.00015838 -0.00979037
v -0.05100014 0.00178662 -0.01069025
v -0.05100015 0.00054927 -0.01411610
v -0.05100004 0.03217497 -0.00674810
v -0.05100009 0.01604805 -0.00883367
v -0.05100011 0.00988256 -0.00813989
v -0.05100014 -0.00042003 -0.00602823
v -0.05100001 0.04299997 -0.00768560
v -0.05100007 0.02319160 -0.00835796
v -0.05100016 -0.00735532 -0.00747309
v -0.05100008 0.01658555 -0.00393752
v -0.05100010 0.00808363 -0.00300002
v -0.05100014 -0.00763560 -0.00000001
v -0.05099998 0.04299998 0.00373652
v -0.05100004 0.02129276 0.00487498
v -0.05100007 0.01334613 0.00299998
v -0.05099997 0.03982498 0.01179806
v -0.05100000 0.03217498 0.00819613
v -0.05100007 0.01089439 0.00811597
v -0.05100008 0.00712113 0.00747306
v -0.05100011 -0.00300002 0.00747306
v -0.05100012 -0.00819618 0.00819614
v -0.05100004 0.01982498 0.00819614
v -0.05100007 0.00904613 0.00819614
v -0.05100006 0.00712113 0.01539998
v -0.05100007 -0.00232440 0.02031679
v -0.05100008 0.00225010 0.01232800
v -0.05100008 0.00074997 0.01410315
v -0.05100009 0.00113755 0.01003108
v -0.05100009 -0.00095783 0.01001971
v -0.05100009 -0.00222717 0.01215998
v -0.05100009 -0.00121114 0.01385493
v -0.05100009 -0.00180251 0.01081332
v -0.05099995 0.03982498 0.01874998
v -0.05100002 0.02094605 0.01230862
v -0.05100004 0.01149300 0.01843592
v -0.05099998 0.03217498 0.01623748
v -0.05100002 0.01982498 0.01707498
v -0.05100001 0.01113465 0.02967568
v -0.05100003 0.00666198 0.02784256
v -0.05099999 0.02599998 0.02042498
v -0.05099996 0.02599998 0.02999998
v -0.05099998 0.03515533 0.01329342
v -0.05099998 0.03644127 0.01409826
v -0.05099997 0.03659503 0.01561260
v -0.05099998 0.03360558 0.01397833
v -0.05099998 0.03334762 0.01513479
v -0.05099997 0.03475415 0.01668224
v -0.05099997 0.03580087 0.01645603
v -0.05099998 0.03361918 0.01597124
v -0.05100008 0.00877521 0.00453327
v -0.05100008 0.00818341 0.00598099
v -0.05100008 0.01098014 0.00372563
v -0.05100006 0.01249916 0.00644259
v -0.05100007 0.01251916 0.00549410
v -0.05100006 0.01213925 0.00735186
v -0.05100007 0.00906031 0.00782915
v -0.05100008 0.01417653 0.00031852
v -0.05100008 0.01382970 -0.00120979
v -0.05100007 0.01359614 0.00146270
v -0.05100008 0.01239635 0.00217955
v -0.05100009 0.01171964 -0.00221524
v -0.05100009 0.01010137 0.00133736
v -0.05100008 0.01308732 -0.00186411
v -0.05100009 0.01008218 -0.00110893
v -0.05100012 0.00712113 -0.00675002
v -0.05100011 0.00815512 -0.00587643
v -0.05100010 0.00878451 -0.00455722
v -0.05100011 0.00871543 -0.00738634
v -0.05100010 0.01222050 -0.00719251
v -0.05100011 0.01127310 -0.00798840
v -0.05100010 0.01180169 -0.00437263
v -0.05100010 0.01260026 -0.00555473
v -0.05100010 0.01030876 -0.00370429
v -0.05100016 -0.00767344 -0.00904617
v -0.05100016 -0.00734742 -0.00869249
v -0.05100016 -0.00620026 -0.00820171
v -0.05100016 -0.00518402 -0.00840009
v -0.05100015 -0.00421853 -0.00908906
v -0.05100010 -0.00368370 0.01022519
v -0.05100011 -0.00575145 0.00808918
v -0.05100010 -0.00596084 0.01262484
v -0.05100010 -0.00457297 0.01202086
v -0.05100013 -0.00591695 0.00156894
v -0.05100014 -0.00459553 -0.00427475
v -0.05100014 -0.00592099 -0.00097071
v -0.05100012 0.00360985 -0.00506750
v -0.05100010 0.00593684 0.00160577
v -0.05100011 0.00569610 -0.00201743
v -0.05100010 0.00242937 0.00579742
v -0.05100011 -0.00155172 0.00580415
v -0.05100012 -0.00386573 0.00472195
v -0.05100017 0.00956527 -0.02943847
v -0.05100017 -0.00630399 -0.01260969
v -0.05100016 -0.00396796 -0.01151658
v -0.05100018 -0.01242798 -0.01168033
v -0.05100017 -0.00818973 -0.01108696
v -0.05100017 -0.00789276 -0.00935564
v -0.05100017 -0.00995711 -0.00811371
v -0.05100018 -0.01457459 -0.00875113
v -0.05100017 -0.01089444 -0.00811600
v -0.05100017 -0.01213930 -0.00735189
v -0.05100016 -0.00873868 -0.00749534
v -0.05100017 -0.01257824 -0.00596317
v -0.05100016 -0.00822299 -0.00615317
v -0.05100016 -0.01023393 -0.00379037
v -0.05100016 -0.00860568 -0.00469025
v -0.05100016 -0.01197389 -0.00444879
v -0.05100016 -0.01698032 0.00291917
v -0.05100014 -0.01066770 0.00381755
v -0.05100014 -0.01257823 0.00603682
v -0.05100013 -0.00930169 0.00411849
v -0.05100014 -0.01209311 0.00460492
v -0.05100013 -0.00836311 0.00515079
v -0.05100013 -0.01339352 0.01074282
v -0.05100012 -0.00869155 0.00739506
v -0.05100013 -0.01023393 0.00820963
v -0.05100013 -0.00826289 0.00637424
v -0.05100013 -0.01204598 0.00749531
v -0.05100012 -0.00808327 0.00972924
v -0.05100011 -0.00814687 0.01050869
v -0.05100012 -0.00742708 0.00876372
v -0.05100011 -0.00796843 0.01134356
v -0.05100011 -0.00726004 0.01214698
v -0.05100001 0.01576264 0.02386685
v -0.05100000 0.01334613 0.02994061
v -0.04950000 0.01452313 0.02999998
v -0.05100001 0.01534879 0.02475689
v -0.05100000 0.01874391 0.02506353
v -0.05100000 0.01569019 0.02615315
v -0.05100000 0.01758644 0.02664358
v -0.05100001 0.01745113 0.02325455
v -0.05099994 0.03520946 0.02797131
v -0.05099995 0.03390433 0.02633702
v -0.05099992 0.03954506 0.02975526
v -0.05099993 0.03903954 0.02989072
v -0.05099996 0.03396174 0.02352616
v -0.05099994 0.03612299 0.02627640
v -0.05099995 0.03559122 0.02344694
v -0.05099995 0.03649275 0.02429188
v -0.05099995 0.03618868 0.02383873
v -0.05099995 0.03668700 0.02506240
v -0.05099996 0.03333513 0.02511752
v -0.05099992 0.04164456 0.02864457
v -0.05099993 0.04298584 0.02571359
v -0.05100007 0.04204122 -0.02803468
v -0.05100008 0.04023428 -0.02950630
v -0.05100008 0.03512674 -0.02324159
v -0.05100012 0.02599997 -0.03000002
v -0.05100008 0.03368159 -0.02396230
v -0.05100008 0.03645197 -0.02415937
v -0.05100008 0.03624755 -0.02608926
v -0.05100008 0.03862359 -0.02997166
v -0.05100008 0.03599851 -0.02631357
v -0.05100009 0.03487320 -0.02675845
v -0.05100008 0.03649274 -0.02570811
v -0.05100008 0.03666482 -0.02511756
v -0.05100009 0.03331047 -0.02543698
v -0.05100003 0.02223673 0.00896165
v -0.05100002 0.02537118 0.00748168
v -0.05100001 0.02856354 0.00809091
v -0.05099999 0.03134155 0.01240487
v -0.05099999 0.02922249 0.01641438
v -0.05100001 0.02247185 0.01641972
v -0.05099999 0.02674312 0.01751544
v -0.05100008 0.02169074 -0.00979963
v -0.05100010 0.02118391 -0.01494421
v -0.05100009 0.02699559 -0.01751297
v -0.05100009 0.02457730 -0.01730254
v -0.05100007 0.03071448 -0.01478310
v -0.05100006 0.03064961 -0.01044327
v -0.05100006 0.02914797 -0.00858485
v -0.05100006 0.02555703 -0.00732648
v -0.05100006 0.02809941 -0.00796214
v -0.04800008 0.03549997 -0.02450004
v -0.04350008 0.03549994 -0.02450003
v -0.04350009 0.03399994 -0.02450003
v -0.04800009 0.03399997 -0.02450004
v -0.04500009 0.03399995 -0.02450003
v -0.04800009 0.03399997 -0.02600004
v -0.04350009 0.03399994 -0.02600003
v -0.04800008 0.03549997 -0.02600004
v -0.04350008 0.03549994 -0.02600003
v -0.04500007 0.03699995 -0.02450003
v -0.04800007 0.03699997 -0.02450004
v -0.04350008 0.03549994 -0.02300003
v -0.04350005 0.03999994 -0.02450003
v -0.04500005 0.03999995 -0.02450003
v -0.04350005 0.03999994 -0.02600003
v -0.04200008 0.03549993 -0.02600003
v -0.04200005 0.03999993 -0.02600003
v -0.04200008 0.03549993 -0.02450003
v -0.04200005 0.03999993 -0.02450003
v -0.04200007 0.03699993 -0.02450003
v -0.03750006 0.03999991 -0.02000003
v -0.04800012 0.02949997 -0.02000004
v -0.03750005 0.03999991 -0.03050003
v -0.04800011 0.02949997 -0.03050004
v -0.04800006 0.03999997 -0.02000004
v -0.04800005 0.03999997 -0.03050004
v -0.04800005 0.03549996 -0.01450003
v -0.04350005 0.03549994 -0.01450002
v -0.04350006 0.03399994 -0.01450002
v -0.04800006 0.03399996 -0.01450003
v -0.04500006 0.03399995 -0.01450002
v -0.04800006 0.03399996 -0.01600003
v -0.04350006 0.03399994 -0.01600002
v -0.04800005 0.03549996 -0.01600003
v -0.04350005 0.03549994 -0.01600002
v -0.04500005 0.03699995 -0.01450002
v -0.04800005 0.03699996 -0.01450003
v -0.04350006 0.03549994 -0.01300002
v -0.04350003 0.03999994 -0.01450002
v -0.04500003 0.03999995 -0.01450002
v -0.04350003 0.03999994 -0.01600002
v -0.04200005 0.03549993 -0.01600002
v -0.04200003 0.03999993 -0.01600002
v -0.04200005 0.03549993 -0.01450002
v -0.04200003 0.03999993 -0.01450002
v -0.04200005 0.03699993 -0.01450002
v -0.03750003 0.03999990 -0.01000002
v -0.04800009 0.02949996 -0.01000003
v -0.03750002 0.03999990 -0.02050002
v -0.04800008 0.02949996 -0.02050003
v -0.04800003 0.03999996 -0.01000003
v -0.04800002 0.03999996 -0.02050003
v -0.00126618 0.04299960 0.02777911
v 0.00228985 0.03999958 0.02799354
v 0.01270416 0.04239954 0.02476559
v 0.01891158 0.03999952 0.01996504
v 0.02264519 0.04299951 0.01602770
v 0.02243908 0.03999951 0.01612297
v 0.02725964 0.03999952 0.00557469
v 0.02362965 0.04257105 -0.01481011
v 0.01891179 0.03999966 -0.01996472
v 0.01714946 0.04299968 -0.02146167
v 0.01488438 0.03999970 -0.02327903
v 0.01003011 0.04122701 -0.02593695
v -0.00248616 0.03999981 -0.02747241
v -0.01470783 0.04246415 -0.02408532
v -0.02556008 0.04299988 -0.01078939
v -0.02810380 0.03999988 -0.00716452
v -0.02626701 0.04299981 0.00933722
v -0.01946146 0.03999973 0.02113796
v -0.01548008 0.04299970 0.02332517
v 0.00177942 0.04299979 -0.02778408
v -0.03007426 0.04299999 -0.03377778
v -0.00595579 0.04299985 -0.03377766
v -0.01859473 0.04299991 -0.02989926
v -0.01654313 0.04299990 -0.03096509
v -0.01993126 0.04299992 -0.03120859
v -0.01912268 0.04299992 -0.03318738
v -0.01717194 0.04299991 -0.03292465
v -0.03864929 0.04300001 -0.02707511
v -0.03114617 0.04299996 -0.02481551
v -0.03864939 0.04299993 -0.00624198
v -0.03483760 0.04299993 -0.01078497
v -0.03330034 0.04299993 -0.01384512
v -0.03864933 0.04299998 -0.01923098
v -0.03600796 0.04299994 -0.01236105
v -0.03266649 0.04299992 -0.01287205
v -0.03479053 0.04299994 -0.01414101
v -0.03568205 0.04299994 -0.01339453
v -0.03290436 0.04299992 -0.01146217
v -0.04800003 0.04299996 -0.00000015
v -0.04799992 0.04300005 -0.02255603
v -0.04375566 0.04299999 -0.01352012
v -0.04392602 0.04300000 -0.01647924
v -0.04231836 0.04299998 -0.01337422
v -0.04188271 0.04299999 -0.01636392
v -0.04471472 0.04300000 -0.01459056
v -0.04132958 0.04299998 -0.01475566
v -0.02740255 0.04299986 -0.00271454
v -0.04345118 0.04299993 0.00174530
v -0.04166467 0.04299993 -0.00105239
v -0.04331617 0.04299994 -0.00173455
v -0.04138705 0.04299992 0.00071154
v -0.04465122 0.04299995 -0.00024323
v -0.04456646 0.04299994 0.00055466
v -0.04438332 0.04299995 -0.00091085
v -0.03864946 0.04299988 0.00916676
v -0.03864951 0.04299984 0.01923077
v -0.04406458 0.04299988 0.01629674
v -0.04240097 0.04299987 0.01667841
v -0.04800008 0.04299992 0.01209171
v -0.04470931 0.04299989 0.01512265
v -0.04125951 0.04299987 0.01487450
v -0.04194391 0.04299988 0.01371692
v -0.04312414 0.04299989 0.01327571
v -0.04428959 0.04299989 0.01394028
v -0.04769723 0.04299985 0.02948628
v -0.03436205 0.04299979 0.02707491
v -0.04406463 0.04299985 0.02629674
v -0.04240101 0.04299983 0.02667841
v -0.04144435 0.04299984 0.02424646
v -0.04141737 0.04299983 0.02550617
v -0.04293704 0.04299985 0.02327241
v -0.04470935 0.04299985 0.02512265
v -0.04423747 0.04299986 0.02386673
v -0.00595608 0.04299962 0.02873001
v -0.03007455 0.04299976 0.02872990
v 0.01714920 0.04299948 0.03377786
v -0.00595611 0.04299961 0.03377775
v -0.01661602 0.04299967 0.03203354
v -0.02003863 0.04299969 0.03183685
v -0.01735511 0.04299967 0.03304127
v -0.01907253 0.04299969 0.03012191
v -0.01694038 0.04299968 0.03045675
v -0.01809351 0.04299969 0.02996117
v -0.01867645 0.04299968 0.03325573
v -0.04383439 0.04300003 -0.02356955
v -0.04240078 0.04300002 -0.02332159
v -0.04132953 0.04300002 -0.02475566
v -0.04478428 0.04300004 -0.02475822
v -0.04796264 0.04102638 -0.02850643
v -0.04255857 0.04300003 -0.02670699
v -0.04150086 0.04300002 -0.02571437
v -0.04410747 0.04300004 -0.02626041
v -0.03483771 0.04299984 0.01418250
v -0.03007447 0.04299982 0.01209180
v -0.03595987 0.04299985 0.01278533
v -0.03277229 0.04299983 0.01336554
v -0.03330046 0.04299984 0.01112235
v -0.03460305 0.04299985 0.01081096
v -0.03273330 0.04299983 0.01192720
v -0.03565146 0.04299985 0.01149093
v -0.03588872 0.04299985 0.01204222
v 0.02023561 0.04090537 -0.03363148
v 0.02578687 0.04299966 -0.02972472
v 0.02802331 0.04299963 -0.02513817
v 0.02621677 0.04299964 -0.02352510
v 0.02699589 0.04299964 -0.02483417
v 0.02855537 0.04299961 -0.01923067
v 0.02665505 0.04299963 -0.02244910
v 0.02704942 0.04299963 -0.02207191
v 0.02772802 0.04299955 -0.00094006
v 0.02625353 0.04299952 0.00834688
v 0.03824907 0.04299945 0.00911079
v 0.01714952 0.04299972 -0.03377755
v -0.03477446 0.04300009 -0.03370793
v -0.04756862 0.04300007 -0.02967315
v -0.04580986 0.04299984 0.03061381
v -0.01066114 0.04299961 0.03977737
v 0.00459738 0.04299954 0.03607095
v 0.01648045 0.04299947 0.03562249
v 0.00810068 0.04299952 0.03591421
v 0.00550143 0.04299954 0.03443286
v 0.00723302 0.04299952 0.03737695
v 0.00710807 0.04299953 0.03442988
v 0.00572659 0.04299953 0.03756248
v 0.02366448 0.04299945 0.03160312
v 0.02765076 0.04299946 0.02176131
v 0.02634526 0.04299947 0.02304175
v 0.02668376 0.04299947 0.02240702
v 0.02699204 0.04077722 0.02849551
v 0.02735877 0.04299945 0.02505203
v 0.02824341 0.04299945 0.02508975
v 0.02640317 0.04299946 0.02411365
v 0.02941248 0.04299944 0.02430260
v 0.02876289 0.04299945 0.02491688
v 0.02892066 0.04299946 0.02209171
v 0.02961425 0.04299945 0.02306766
v 0.03919240 0.04299947 0.00212511
v 0.03646817 0.04299950 -0.00178173
v 0.03499509 0.04299950 -0.00076478
v 0.03653092 0.04299949 0.00174507
v 0.03494418 0.04299950 0.00075366
v 0.03820918 0.04299948 -0.00012253
v 0.03778947 0.04299948 0.00105983
v 0.03774756 0.04299949 -0.00108899
v 0.03737643 0.04299954 -0.01389561
v 0.03339093 0.04062862 -0.02126080
v 0.02826116 0.04299962 -0.02176370
v 0.02914333 0.04299962 -0.02469486
v 0.02965021 0.04299962 -0.02302458
v 0.01714677 0.04171397 -0.03526888
v 0.00800868 0.04299978 -0.03570092
v 0.00455722 0.04299980 -0.03601009
v 0.00731672 0.04299978 -0.03455501
v 0.00560324 0.04299980 -0.03746512
v 0.00745555 0.04299979 -0.03730917
v 0.00424378 0.04299982 -0.03901983
v 0.00572692 0.04299979 -0.03432849
v 0.00633831 0.04299980 -0.03759538
v 0.02186409 0.03999946 0.03270539
v -0.00595612 0.03999961 0.03377774
v -0.00595610 0.03999962 0.02873000
v -0.01890686 0.03999968 0.03317809
v -0.02404495 0.03999973 0.02790243
v -0.02005270 0.03999969 0.03157764
v -0.01661603 0.03999967 0.03118629
v -0.01840553 0.03999969 0.02990335
v -0.01930767 0.03999969 0.03034045
v -0.01721861 0.03999968 0.03029790
v -0.01704783 0.03999967 0.03292549
v -0.04797606 0.03999986 0.02829478
v -0.03864956 0.03999981 0.02707488
v -0.03864953 0.03999984 0.01923075
v -0.04800013 0.04149989 0.01923072
v -0.04406463 0.03999985 0.02370298
v -0.04269042 0.03999985 0.02329922
v -0.04120473 0.03999983 0.02483704
v -0.04255883 0.03999984 0.02670673
v -0.04470937 0.03999985 0.02487706
v -0.04418200 0.03999985 0.02620534
v -0.03864948 0.03999988 0.00916675
v -0.04158467 0.03999987 0.01611637
v -0.04475590 0.03999989 0.01515923
v -0.04399851 0.03999989 0.01363856
v -0.04357569 0.03999988 0.01661392
v -0.04260242 0.03999988 0.01333303
v -0.04149522 0.03999987 0.01423486
v -0.04800009 0.03999993 0.00916670
v -0.03864941 0.03999993 -0.00624199
v -0.04800001 0.03999999 -0.00624203
v -0.04336025 0.03999994 -0.00178874
v -0.04194698 0.03999992 0.00143774
v -0.04136769 0.03999993 -0.00061720
v -0.04470925 0.03999995 -0.00012294
v -0.04399524 0.03999994 0.00141326
v -0.03864934 0.03999998 -0.01923099
v -0.03007434 0.03999993 -0.01923095
v -0.03483760 0.03999994 -0.01418269
v -0.03007443 0.03999986 -0.00000008
v -0.03298039 0.03999992 -0.01144611
v -0.03432973 0.03999993 -0.01073902
v -0.03558827 0.03999994 -0.01142426
v -0.03600797 0.03999994 -0.01260663
v -0.03264931 0.03999993 -0.01321141
v -0.04406444 0.04000000 -0.01629702
v -0.04269022 0.03999999 -0.01670078
v -0.04475575 0.04000000 -0.01484077
v -0.04135235 0.03999998 -0.01552308
v -0.04201513 0.03999998 -0.01349012
v -0.04381074 0.03999999 -0.01353125
v -0.01478231 0.03999986 -0.02347787
v -0.03864931 0.04000001 -0.02647806
v -0.00595580 0.03999985 -0.03377767
v -0.03007431 0.03999996 -0.02707508
v -0.01782835 0.03999991 -0.02998598
v -0.01856919 0.03999994 -0.03820677
v -0.01658947 0.03999990 -0.03101736
v -0.01924509 0.03999991 -0.03019655
v -0.01849937 0.03999992 -0.03332047
v -0.01699545 0.03999991 -0.03275747
v -0.01996465 0.03999992 -0.03201954
v -0.04182250 0.04000002 -0.02371211
v -0.04357551 0.04000002 -0.02338609
v -0.04799994 0.04000005 -0.02255604
v -0.04133384 0.04000002 -0.02536040
v -0.04438323 0.04000003 -0.02408944
v -0.04398812 0.04000004 -0.02634513
v -0.04249810 0.04000003 -0.02669021
v -0.04471723 0.04000004 -0.02524037
v -0.03007452 0.03999979 0.01923079
v -0.03314245 0.03999983 0.01374820
v -0.03007449 0.03999982 0.01209179
v -0.03479068 0.03999984 0.01414081
v -0.03568219 0.03999985 0.01339433
v -0.03262485 0.03999983 0.01254446
v -0.03600374 0.03999985 0.01236988
v -0.03483771 0.03999985 0.01078478
v -0.03297356 0.03999984 0.01139736
v 0.03443244 0.04127721 0.01899047
v 0.02855518 0.03999947 0.01923107
v 0.02632487 0.03999958 -0.00853902
v 0.02736154 0.03999962 -0.02178302
v 0.02631628 0.03999963 -0.02312854
v 0.02645005 0.03999964 -0.02419160
v 0.02761585 0.03999963 -0.02517224
v 0.01714951 0.03999972 -0.03377756
v -0.01178859 0.04192848 -0.03945730
v 0.01051592 0.04175840 -0.03787445
v 0.01648077 0.04047342 -0.03562219
v 0.00568161 0.03999979 -0.03437721
v 0.00804504 0.03999979 -0.03659022
v 0.00455720 0.03999980 -0.03588069
v 0.00788640 0.03999979 -0.03842264
v 0.00728293 0.03999978 -0.03449772
v 0.00663234 0.03999980 -0.03758094
v 0.00556819 0.03999980 -0.03746110
v 0.02605717 0.03999966 -0.02945471
v 0.02950743 0.03999962 -0.02405358
v 0.02902596 0.03999963 -0.02476774
v 0.02945346 0.03999962 -0.02275346
v 0.02902516 0.03999962 -0.02216468
v 0.02962553 0.03999962 -0.02334401
v 0.02855537 0.03999962 -0.02192495
v 0.03894781 0.04085664 -0.00568186
v 0.03653092 0.03999950 -0.00174459
v 0.03646813 0.03999949 0.00178221
v 0.03499506 0.03999950 0.00076524
v 0.03494417 0.03999951 -0.00075319
v 0.03778947 0.03999949 -0.00105934
v 0.03821471 0.03999948 0.00040983
v 0.03846631 0.03999945 0.00895886
v 0.02924840 0.03999945 0.02231282
v 0.02991471 0.04149944 0.02541012
v 0.02917421 0.03999944 0.02465242
v 0.02962531 0.03999945 0.02357949
v 0.02855515 0.03999945 0.02499854
v 0.02633223 0.03999946 0.02379414
v 0.02644983 0.03999947 0.02273189
v 0.02761563 0.03999946 0.02175126
v 0.02793146 0.03999945 0.02514987
v 0.02677862 0.03999946 0.02466742
v 0.02631289 0.03999946 0.02337261
v 0.00798553 0.03999952 0.03603491
v 0.01714787 0.04128515 0.03526833
v 0.00795317 0.03999952 0.03552538
v 0.01231821 0.04137787 0.03741485
v -0.01329360 0.03999963 0.03923843
v 0.00459736 0.03999954 0.03582019
v 0.00784858 0.03999952 0.03667562
v 0.00424344 0.03999953 0.03902000
v 0.00535952 0.03999953 0.03733593
v 0.00541993 0.03999954 0.03454121
v 0.00701956 0.03999953 0.03431967
v 0.00685651 0.03999952 0.03757884
v -0.04700562 0.03999985 0.03010325
v -0.04680907 0.04000007 -0.03018135
v -0.04580961 0.04000006 -0.03061410
v -0.03380201 0.03999976 0.03397738
v -0.00000036 -0.00140015 0.00000001
v 0.03903029 -0.00140049 0.00414381
v 0.03903068 0.04399951 0.00414381
v 0.00000003 0.04399985 0.00000001
v 0.03908874 -0.00140049 -0.00355031
v 0.03908913 0.04399951 -0.00355031
v 0.03764502 -0.00140048 -0.01110800
v 0.03764542 0.04399952 -0.01110800
v 0.03475461 -0.00140045 -0.01823881
v 0.03475500 0.04399955 -0.01823881
v 0.03052859 -0.00140042 -0.02466871
v 0.03052898 0.04399958 -0.02466871
v 0.02512936 -0.00140037 -0.03015061
v 0.02512975 0.04399963 -0.03015061
v 0.01876440 -0.00140031 -0.03447384
v 0.01876479 0.04399969 -0.03447384
v 0.01167833 -0.00140025 -0.03747226
v 0.01167872 0.04399975 -0.03747226
v 0.00414345 -0.00140019 -0.03903064
v 0.00414384 0.04399981 -0.03903064
v -0.00355068 -0.00140012 -0.03908909
v -0.00355029 0.04399988 -0.03908909
v -0.01110836 -0.00140006 -0.03764537
v -0.01110797 0.04399994 -0.03764537
v -0.01823918 -0.00140000 -0.03475496
v -0.01823878 0.04400000 -0.03475496
v -0.02466908 -0.00139994 -0.03052894
v -0.02466869 0.04400006 -0.03052894
v -0.03015098 -0.00139989 -0.02512970
v -0.03015059 0.04400011 -0.02512970
v -0.03447421 -0.00139986 -0.01876475
v -0.03447382 0.04400014 -0.01876475
v -0.03747262 -0.00139983 -0.01167867
v -0.03747223 0.04400017 -0.01167867
v -0.03903100 -0.00139982 -0.00414379
v -0.03903061 0.04400018 -0.00414379
v -0.03908946 -0.00139982 0.00355033
v -0.03908907 0.04400018 0.00355033
v -0.03764574 -0.00139983 0.01110802
v -0.03764535 0.04400017 0.01110802
v -0.03475533 -0.00139985 0.01823883
v -0.03475494 0.04400015 0.01823883
v -0.03052930 -0.00139989 0.02466873
v -0.03052891 0.04400011 0.02466873
v -0.02513007 -0.00139994 0.03015063
v -0.02512968 0.04400006 0.03015063
v -0.01876511 -0.00139999 0.03447386
v -0.01876472 0.04400001 0.03447386
v -0.01167904 -0.00140005 0.03747228
v -0.01167865 0.04399995 0.03747228
v -0.00414416 -0.00140012 0.03903066
v -0.00414377 0.04399988 0.03903066
v 0.00354996 -0.00140018 0.03908911
v 0.00355035 0.04399982 0.03908911
v 0.01110765 -0.00140025 0.03764539
v 0.01110804 0.04399975 0.03764539
v 0.01823846 -0.00140031 0.03475498
v 0.01823885 0.04399969 0.03475498
v 0.02466837 -0.00140037 0.03052896
v 0.02466876 0.04399963 0.03052896
v 0.03015027 -0.00140041 0.02512972
v 0.03015066 0.04399959 0.02512972
v 0.03447350 -0.00140045 0.01876477
v 0.03447389 0.04399955 0.01876477
v 0.03747191 -0.00140048 0.01167869
v 0.03747230 0.04399952 0.01167869
v -0.04350011 -0.00600005 0.01039227
v -0.04350011 -0.00747562 0.01066184
v -0.04350012 -0.00774520 0.00918626
v -0.04350011 -0.00626962 0.00891669
v -0.04350011 -0.00479404 0.00864712
v -0.04350010 -0.00452447 0.01012269
v -0.04350010 -0.00425490 0.01159827
v -0.04350010 -0.00573047 0.01186784
v -0.04350011 -0.00720605 0.01213742
v -0.06300010 -0.00452441 0.01012275
v -0.06300011 -0.00479398 0.00864717
v -0.06300011 -0.00626956 0.00891674
v -0.06300012 -0.00774514 0.00918631
v -0.06300011 -0.00747557 0.01066189
v -0.06300011 -0.00720600 0.01213747
v -0.06300010 -0.00573042 0.01186790
v -0.06300010 -0.00425484 0.01159832
v -0.06300011 -0.00599999 0.01039232
v -0.04350008 0.01199995 -0.00000004
v -0.04350008 0.01297120 0.00114307
v -0.04350008 0.01182809 0.00211431
v -0.04350008 0.01085685 0.00097121
v -0.04350009 0.00988560 -0.00017190
v -0.04350009 0.01102871 -0.00114314
v -0.04350009 0.01217181 -0.00211438
v -0.04350008 0.01314306 -0.00097128
v -0.04350008 0.01411430 0.00017183
v -0.06300009 0.01102877 -0.00114309
v -0.06300009 0.00988566 -0.00017185
v -0.06300008 0.01085690 0.00097126
v -0.06300008 0.01182815 0.00211436
v -0.06300008 0.01297125 0.00114312
v -0.06300008 0.01411436 0.00017188
v -0.06300008 0.01314311 -0.00097123
v -0.06300009 0.01217187 -0.00211433
v -0.06300008 0.01200001 0.00000002
v -0.04350016 -0.00600003 -0.01039231
v -0.04350016 -0.00549570 -0.01180498
v -0.04350016 -0.00408302 -0.01130065
v -0.04350016 -0.00458736 -0.00988797
v -0.04350016 -0.00509170 -0.00847530
v -0.04350016 -0.00650437 -0.00897964
v -0.04350016 -0.00791704 -0.00948397
v -0.04350016 -0.00741271 -0.01089665
v -0.04350016 -0.00690837 -0.01230932
v -0.06300016 -0.00650435 -0.00897963
v -0.06300016 -0.00509167 -0.00847530
v -0.06300016 -0.00458734 -0.00988797
v -0.06300016 -0.00408300 -0.01130064
v -0.06300016 -0.00549567 -0.01180498
v -0.06300016 -0.00690835 -0.01230932
v -0.06300016 -0.00741268 -0.01089664
v -0.06300016 -0.00791702 -0.00948397
v -0.06300016 -0.00600001 -0.01039231
v -0.04800014 0.01649996 -0.02550003
v -0.04350014 0.01649995 -0.02550003
v -0.04350013 0.01799995 -0.02550003
v -0.04800013 0.01799996 -0.02550003
v -0.04500013 0.01799995 -0.02550003
v -0.04800013 0.01799996 -0.02400003
v -0.04350013 0.01799995 -0.02400003
v -0.04800014 0.01649996 -0.02400003
v -0.04350014 0.01649995 -0.02400003
v -0.04500014 0.01499995 -0.02550003
v -0.04800014 0.01499996 -0.02550003
v -0.04350013 0.01649995 -0.02700003
v -0.04350015 0.01199995 -0.02550003
v -0.04500015 0.01199995 -0.02550003
v -0.04350015 0.01199995 -0.02400003
v -0.04200014 0.01649994 -0.02400003
v -0.04200015 0.01199994 -0.02400003
v -0.04200014 0.01649994 -0.02550003
v -0.04200015 0.01199994 -0.02550003
v -0.04200014 0.01499994 -0.02550003
v -0.03750014 0.01199993 -0.03000002
v -0.04800011 0.02249996 -0.03000004
v -0.03750015 0.01199993 -0.01950002
v -0.04800012 0.02249996 -0.01950004
v -0.04800014 0.01199996 -0.03000003
v -0.04800015 0.01199996 -0.01950003
v -0.01822112 0.01199986 -0.02992192
v -0.01706828 0.01199985 -0.03040436
v -0.01693205 0.00899985 -0.03031561
v -0.01662189 0.01199985 -0.03127763
v -0.01677833 0.00899984 -0.03246085
v -0.01749439 0.01199984 -0.03308984
v -0.01809345 0.01199984 -0.03325859
v -0.01871229 0.00899984 -0.03339833
v -0.01924530 0.01199985 -0.03302325
v -0.01996695 0.01199986 -0.03129702
v -0.01994030 0.00899986 -0.03086441
v -0.01916142 0.01199986 -0.03022022
v -0.01853305 0.00899986 -0.02998204
v -0.02271398 0.01200008 0.02436927
v -0.04017899 0.01199960 0.03172830
v -0.02994461 0.01056824 0.01421497
v -0.03864975 0.01200010 0.01874186
v -0.03298072 0.01200006 0.01144603
v -0.03227537 0.01200004 0.00742984
v -0.03483795 0.01200007 0.01418259
v -0.03988659 0.01200004 0.00091597
v -0.03387754 0.01200006 0.01085977
v -0.03605489 0.01200007 0.01232435
v -0.03311727 0.01200007 0.01368923
v -0.03261209 0.01200006 0.01254617
v -0.03503416 0.01200006 0.01096400
v -0.03369727 0.01199996 -0.01407381
v -0.03529740 0.01199998 -0.01112244
v -0.03417994 0.01199998 -0.01081016
v -0.03006003 0.01199995 -0.01404458
v -0.03605477 0.01199997 -0.01264312
v -0.03283737 0.01199996 -0.01328945
v -0.03297368 0.01199997 -0.01139744
v -0.03503405 0.01199997 -0.01400347
v -0.03263741 0.01199996 -0.01250931
v -0.03864952 0.01199992 -0.02830498
v -0.02255324 0.01199989 -0.02452772
v -0.02627452 0.01199989 -0.02830492
v -0.01445061 0.01199984 -0.03088130
v -0.01527072 0.01199985 -0.02940546
v -0.01463861 0.01199984 -0.03256193
v -0.01682944 0.01199983 -0.03576382
v -0.01589844 0.01199983 -0.03504566
v -0.01814013 0.01199983 -0.03608344
v -0.01645183 0.01199984 -0.03278305
v -0.04703315 0.01199994 -0.02999474
v -0.04799200 0.01200000 -0.01365042
v -0.04435761 0.01199995 -0.02392979
v -0.04797853 0.01199995 -0.02799285
v -0.04240102 0.01199995 -0.02332149
v -0.04161934 0.01199994 -0.02597127
v -0.04462838 0.01199995 -0.02533226
v -0.04293705 0.01199994 -0.02672750
v -0.04132977 0.01199994 -0.02475556
v -0.04423748 0.01199995 -0.02613317
v -0.04464773 0.01199995 -0.02491071
v -0.04620017 0.01200001 -0.01117982
v -0.04760199 0.01200001 -0.01244269
v -0.04400653 0.01200000 -0.01088816
v -0.04237176 0.01200000 -0.00957634
v -0.04773761 0.01200010 0.01266092
v -0.04799210 0.01200011 0.01376452
v -0.04800036 0.01200013 0.01874181
v -0.04619649 0.01200009 0.01117876
v -0.04248523 0.01200008 0.00996598
v -0.04722948 0.01200017 0.02983863
v -0.04383486 0.01200015 0.02643055
v -0.04240125 0.01200014 0.02667851
v -0.04124695 0.01200013 0.02458099
v -0.04293728 0.01200013 0.02327250
v -0.04423771 0.01200014 0.02386683
v -0.04471515 0.01200015 0.02540954
v -0.02627482 0.01200013 0.03445507
v -0.01761165 0.01200010 0.03314412
v -0.01725188 0.01200009 0.03292357
v -0.01576541 0.01200010 0.03489460
v -0.01664763 0.01200009 0.03221625
v -0.01854467 0.01200011 0.03603423
v -0.01889760 0.01200009 0.03006206
v -0.02003887 0.01200010 0.03183695
v -0.01946074 0.01200009 0.03048534
v -0.01807203 0.01200010 0.03325034
v -0.01514621 0.00955271 0.02947553
v -0.01876189 0.01200010 0.03321884
v -0.01713332 0.01107703 0.03593619
v -0.01817679 0.01200009 0.02995945
v -0.01699227 0.01200008 0.03037501
v -0.01439667 0.01200008 0.03049850
v -0.01504651 0.01200009 0.03349884
v -0.03246203 0.00899990 -0.02830494
v -0.02241568 0.00899989 -0.02460136
v -0.02907440 0.00899994 -0.01572896
v -0.03864958 0.00899996 -0.01874187
v -0.03454848 0.00899996 -0.01419423
v -0.03241088 0.00999999 -0.00682464
v -0.03298062 0.00899997 -0.01144599
v -0.03297610 0.00900003 0.00307873
v -0.03396687 0.00899997 -0.01084811
v -0.03344834 0.00899997 -0.01106990
v -0.03529420 0.00899998 -0.01107032
v -0.03601376 0.00899997 -0.01289331
v -0.03264992 0.00899997 -0.01227863
v -0.03290460 0.00899996 -0.01350536
v -0.03454859 0.00900006 0.01077324
v -0.03864976 0.00900010 0.01874187
v -0.03387757 0.00900007 0.01410773
v -0.02290708 0.00900008 0.02429482
v -0.03291832 0.00900006 0.01345501
v -0.03529432 0.00900007 0.01389715
v -0.03601387 0.00900007 0.01207416
v -0.03290471 0.00900006 0.01146211
v -0.03264675 0.00900006 0.01259591
v -0.03864980 0.00900014 0.02830496
v -0.02627480 0.00900010 0.02830502
v -0.01441160 0.00900008 0.03136604
v -0.01475427 0.00900009 0.03283377
v -0.01667164 0.00900009 0.03101220
v -0.01557180 0.00900010 0.03456374
v -0.02005293 0.00900010 0.03157776
v -0.01595738 0.00900010 0.03510201
v -0.01664978 0.00900009 0.03208273
v -0.01859526 0.00900009 0.02989934
v -0.01898550 0.00900010 0.03312976
v -0.01729678 0.00900008 0.03024911
v -0.01756669 0.00900011 0.03600587
v -0.01845317 0.00900011 0.03605084
v -0.01746783 0.00900010 0.03315134
v -0.04703344 0.00900017 0.02999465
v -0.04863781 0.00990711 0.01992437
v -0.04797880 0.00900016 0.02799274
v -0.04435784 0.00900014 0.02392972
v -0.04269065 0.00900013 0.02329934
v -0.04150313 0.00900014 0.02572088
v -0.04255907 0.00900014 0.02670684
v -0.04135277 0.00900013 0.02447704
v -0.04418223 0.00900015 0.02620546
v -0.04465159 0.00900014 0.02524306
v -0.04620028 0.00900009 0.01117973
v -0.04760212 0.00900010 0.01244259
v -0.04339635 0.00900008 0.01070851
v -0.04193151 0.00900007 0.00830964
v -0.04773750 0.00900001 -0.01266103
v -0.04799692 0.00900000 -0.01381162
v -0.04619639 0.00900001 -0.01117884
v -0.04248515 0.00900000 -0.00996603
v -0.04730358 0.00899994 -0.02972364
v -0.04421390 0.00899995 -0.02619050
v -0.04269041 0.00899994 -0.02670066
v -0.04798753 0.00899995 -0.02790223
v -0.04120473 0.00899994 -0.02516284
v -0.04255883 0.00899995 -0.02329316
v -0.04395379 0.00899995 -0.02363911
v -0.04469466 0.00899995 -0.02465830
v -0.04560276 0.00899993 -0.03049164
v -0.01574457 0.00899983 -0.03483829
v -0.01727543 0.00899983 -0.03605584
v -0.02419365 0.01076397 -0.03487897
v -0.01429109 0.00899984 -0.03140573
v -0.01552887 0.00899983 -0.03448063
v -0.01540671 0.00899985 -0.02926535
v -0.04800000 0.01649997 0.02449997
v -0.04350000 0.01649996 0.02449997
v -0.04350000 0.01799996 0.02449997
v -0.04800000 0.01799997 0.02449997
v -0.04500000 0.01799996 0.02449997
v -0.04800000 0.01799997 0.02599997
v -0.04350000 0.01799996 0.02599997
v -0.04800001 0.01649997 0.02599997
v -0.04350001 0.01649996 0.02599997
v -0.04500001 0.01499996 0.02449997
v -0.04800001 0.01499997 0.02449997
v -0.04350000 0.01649996 0.02299997
v -0.04350002 0.01199996 0.02449997
v -0.04500002 0.01199996 0.02449997
v -0.04350002 0.01199996 0.02599997
v -0.04200001 0.01649995 0.02599997
v -0.04200002 0.01199995 0.02599997
v -0.04200000 0.01649995 0.02449997
v -0.04200002 0.01199995 0.02449997
v -0.04200001 0.01499995 0.02449997
v -0.03750001 0.01199994 0.01999998
v -0.04799998 0.02249997 0.01999996
v -0.03750002 0.01199994 0.03049998
v -0.04799999 0.02249997 0.03049996
v -0.04800001 0.01199997 0.01999997
v -0.04800002 0.01199997 0.03049997
v -0.04799995 0.03549997 0.02549997
v -0.04349995 0.03549997 0.02549998
v -0.04349995 0.03399997 0.02549998
v -0.04799995 0.03399997 0.02549997
v -0.04499995 0.03399997 0.02549998
v -0.04799995 0.03399997 0.02399997
v -0.04349995 0.03399997 0.02399998
v -0.04799995 0.03549997 0.02399997
v -0.04349995 0.03549997 0.02399998
v -0.04499995 0.03699997 0.02549998
v -0.04799995 0.03699997 0.02549997
v -0.04349995 0.03549997 0.02699998
v -0.04349995 0.03999997 0.02549998
v -0.04499995 0.03999997 0.02549998
v -0.04349995 0.03999997 0.02399998
v -0.04199995 0.03549997 0.02399998
v -0.04199995 0.03999997 0.02399998
v -0.04199995 0.03549997 0.02549998
v -0.04199995 0.03999997 0.02549998
v -0.04199995 0.03699997 0.02549998
v -0.03749995 0.03999997 0.02999998
v -0.04799996 0.02949997 0.02999997
v -0.03749994 0.03999997 0.01949998
v -0.04799995 0.02949997 0.01949997
v -0.04799995 0.03999997 0.02999997
v -0.04799994 0.03999997 0.01949997
v -0.04799997 0.03549998 0.01549995
v -0.04349997 0.03549996 0.01549996
v -0.04349998 0.03399996 0.01549996
v -0.04799998 0.03399998 0.01549995
v -0.04499998 0.03399996 0.01549996
v -0.04799998 0.03399998 0.01399995
v -0.04349998 0.03399996 0.01399996
v -0.04799997 0.03549998 0.01399995
v -0.04349997 0.03549996 0.01399996
v -0.04499997 0.03699996 0.01549996
v -0.04799997 0.03699998 0.01549995
v -0.04349998 0.03549996 0.01699996
v -0.04349995 0.03999996 0.01549996
v -0.04499995 0.03999996 0.01549996
v -0.04349995 0.03999996 0.01399996
v -0.04199997 0.03549995 0.01399996
v -0.04199995 0.03999995 0.01399996
v -0.04199997 0.03549995 0.01549996
v -0.04199995 0.03999995 0.01549996
v -0.04199997 0.03699995 0.01549996
v -0.03749995 0.03999992 0.01999996
v -0.04800001 0.02949998 0.01999995
v -0.03749994 0.03999992 0.00949996
v -0.04800000 0.02949998 0.00949995
v -0.04799995 0.03999998 0.01999995
v -0.04799994 0.03999998 0.00949995
f 3 1 2
f 1 3 25
f 4 2 1
f 25 4 1
f 2 25 3
f 11 9 7
f 11 7 13
f 13 14 11
f 18 17 63
f 18 63 70
f 20 63 17
f 21 20 17
f 116 24 23
f 23 29 30
f 23 27 28
f 30 27 23
f 23 31 22
f 31 23 24
f 24 32 34
f 36 38 35
f 39 5 37
f 39 37 38
f 36 39 38
f 41 42 40
f 21 43 44
f 21 44 45
f 47 48 8
f 8 38 47
f 48 50 9
f 50 49 51
f 22 53 52
f 22 51 53
f 54 58 23
f 23 55 54
f 23 56 55
f 23 57 56
f 23 52 57
f 45 58 59
f 45 59 60
f 60 62 45
f 61 20 21
f 62 61 21
f 63 20 61
f 70 63 64
f 70 64 67
f 38 37 65
f 37 66 65
f 37 67 66
f 68 29 23
f 45 41 68
f 68 58 45
f 5 71 37
f 72 5 6
f 6 69 72
f 71 70 37
f 51 74 73
f 51 32 74
f 50 75 76
f 73 75 51
f 75 50 51
f 9 50 76
f 76 7 9
f 38 8 77
f 38 78 35
f 8 79 77
f 5 80 81
f 82 80 5
f 70 6 83
f 17 15 84
f 84 85 17
f 87 86 43
f 90 86 87
f 17 92 91
f 91 87 43
f 87 88 90
f 87 89 88
f 91 43 17
f 43 86 93
f 40 93 94
f 41 94 95
f 96 97 26
f 101 102 100
f 100 99 98
f 98 103 100
f 29 100 102
f 103 101 100
f 109 30 29
f 29 102 109
f 106 108 107
f 105 104 106
f 108 28 107
f 109 102 104
f 107 105 106
f 104 105 109
f 2 110 111
f 4 106 110
f 4 108 106
f 2 4 110
f 2 111 25
f 4 25 108
f 25 112 113
f 25 114 112
f 115 114 25
f 117 119 24
f 32 24 119
f 119 118 32
f 120 121 32
f 120 122 121
f 76 121 122
f 76 122 123
f 7 123 124
f 125 126 13
f 13 124 125
f 8 126 127
f 8 13 126
f 8 127 129
f 35 8 129
f 129 128 35
f 130 131 36
f 132 131 133
f 39 132 133
f 131 132 36
f 82 5 39
f 133 82 39
f 130 36 35
f 128 130 35
f 124 13 7
f 123 7 76
f 118 120 32
f 116 117 24
f 113 116 25
f 97 98 26
f 95 96 41
f 94 41 40
f 93 40 43
f 85 88 17
f 83 84 15
f 83 15 70
f 81 83 6
f 81 6 5
f 68 23 58
f 65 47 38
f 67 37 70
f 62 21 45
f 52 23 22
f 48 9 8
f 28 108 23
f 41 96 26
f 23 108 25
f 23 25 116
f 17 43 21
f 134 136 137
f 135 137 139
f 142 144 145
f 148 149 150
f 149 152 151
f 152 153 151
f 150 147 148
f 154 146 157
f 146 145 158
f 158 157 146
f 159 158 145
f 157 156 154
f 137 161 203
f 137 136 161
f 162 135 164
f 163 164 135
f 167 166 165
f 168 167 165
f 169 170 171
f 172 160 173
f 171 278 169
f 170 174 171
f 170 172 174
f 173 174 172
f 141 138 175
f 176 175 138
f 177 144 142
f 177 178 144
f 179 142 141
f 141 175 179
f 179 177 142
f 146 154 180
f 181 180 154
f 154 172 182
f 154 182 181
f 142 143 184
f 142 184 185
f 143 183 184
f 189 140 141
f 186 189 141
f 141 187 186
f 141 142 187
f 139 140 190
f 140 189 190
f 188 191 139
f 190 188 139
f 163 139 191
f 191 195 163
f 166 192 193
f 166 195 192
f 152 194 196
f 152 193 194
f 216 197 198
f 216 152 197
f 199 200 170
f 200 172 170
f 170 198 199
f 201 202 172
f 200 201 172
f 137 203 250
f 137 250 204
f 140 137 204
f 141 140 204
f 209 160 172
f 160 207 208
f 206 160 208
f 209 207 160
f 172 154 210
f 210 209 172
f 166 193 212
f 212 211 166
f 211 165 166
f 213 212 193
f 152 149 213
f 149 230 213
f 214 216 170
f 170 169 215
f 214 217 216
f 215 214 170
f 217 218 216
f 169 219 220
f 169 279 221
f 221 219 169
f 222 223 216
f 224 225 216
f 225 226 148
f 149 148 226
f 226 227 149
f 227 228 149
f 230 149 229
f 211 230 165
f 230 232 165
f 230 231 232
f 234 233 165
f 168 235 162
f 168 233 235
f 135 236 237
f 134 238 241
f 134 135 237
f 237 238 134
f 239 136 1
f 240 239 1
f 136 3 1
f 241 242 1
f 1 134 241
f 1 3 134
f 239 244 243
f 243 136 239
f 244 249 245
f 248 247 203
f 243 161 136
f 244 245 243
f 245 249 246
f 248 245 247
f 246 247 245
f 250 247 251
f 252 251 253
f 253 254 252
f 250 203 247
f 251 252 250
f 254 253 256
f 256 255 254
f 138 255 257
f 176 138 259
f 144 176 260
f 260 261 144
f 265 263 145
f 144 261 264
f 262 263 264
f 264 265 144
f 266 262 264
f 145 144 265
f 264 261 266
f 145 262 267
f 145 268 269
f 145 270 268
f 145 267 270
f 155 271 272
f 269 271 155
f 154 155 272
f 272 206 154
f 206 272 273
f 273 274 206
f 160 275 276
f 160 206 275
f 160 280 277
f 169 278 279
f 277 278 160
f 278 277 279
f 276 280 160
f 274 275 206
f 269 155 145
f 259 260 176
f 258 259 138
f 257 258 138
f 255 138 254
f 1 242 240
f 236 135 162
f 233 168 165
f 229 231 230
f 228 229 149
f 225 148 216
f 223 224 216
f 220 216 169
f 213 193 152
f 198 170 216
f 195 166 163
f 183 143 146
f 164 168 162
f 145 146 143
f 145 143 142
f 140 139 137
f 139 163 135
f 138 141 254
f 137 135 134
f 217 214 77
f 218 217 77
f 169 218 79
f 215 169 78
f 214 215 38
f 38 77 214
f 78 38 215
f 79 78 169
f 77 79 218
f 263 265 91
f 264 263 89
f 265 264 87
f 89 87 264
f 92 89 263
f 91 92 263
f 87 91 265
f 230 211 32
f 213 230 76
f 212 213 76
f 211 212 73
f 73 74 211
f 75 73 212
f 76 75 212
f 121 76 230
f 32 121 230
f 74 32 211
f 209 210 71
f 207 209 5
f 208 207 5
f 206 208 72
f 205 206 69
f 154 205 69
f 210 154 70
f 70 71 210
f 69 70 154
f 72 69 206
f 5 72 208
f 71 5 209
f 250 252 100
f 204 250 29
f 141 204 68
f 254 141 41
f 252 254 99
f 99 100 252
f 26 99 254
f 41 26 254
f 68 41 141
f 29 68 204
f 100 29 250
f 188 190 54
f 191 188 56
f 57 52 191
f 195 191 52
f 192 195 51
f 193 192 49
f 194 193 50
f 196 194 50
f 197 196 48
f 198 197 48
f 199 198 47
f 200 199 65
f 201 200 65
f 202 201 66
f 182 202 67
f 181 182 67
f 180 181 64
f 146 180 63
f 183 146 63
f 184 183 61
f 185 184 61
f 187 185 62
f 186 187 62
f 189 186 60
f 190 189 58
f 58 54 190
f 59 58 189
f 60 59 189
f 62 60 186
f 61 62 185
f 63 61 183
f 64 63 180
f 67 64 181
f 66 67 202
f 65 66 201
f 47 65 199
f 48 47 198
f 50 48 196
f 49 50 193
f 51 49 192
f 53 51 195
f 52 53 195
f 56 57 191
f 55 56 188
f 54 55 188
f 179 175 41
f 177 179 45
f 178 177 44
f 176 178 43
f 175 176 40
f 40 42 175
f 46 40 176
f 43 46 176
f 44 43 178
f 45 44 177
f 41 45 179
f 42 41 175
f 157 158 18
f 156 157 18
f 155 156 70
f 159 155 15
f 158 159 17
f 17 18 158
f 19 17 159
f 15 19 159
f 16 15 155
f 70 16 155
f 18 70 156
f 171 174 39
f 278 171 36
f 160 278 132
f 173 160 39
f 174 173 39
f 132 39 160
f 36 132 278
f 39 36 171
f 149 151 11
f 150 149 11
f 147 150 11
f 216 147 10
f 153 216 8
f 151 153 9
f 9 11 151
f 12 9 153
f 8 12 153
f 10 8 216
f 14 10 147
f 11 14 147
f 168 164 24
f 167 168 34
f 166 167 32
f 163 166 51
f 164 163 22
f 22 31 164
f 33 22 163
f 51 33 163
f 32 51 166
f 34 32 167
f 24 34 168
f 31 24 164
f 243 245 105
f 161 243 107
f 203 161 27
f 248 203 30
f 245 248 109
f 109 105 245
f 30 109 248
f 27 30 203
f 28 27 161
f 107 28 161
f 105 107 243
f 251 247 102
f 104 102 247
f 247 246 104
f 251 101 103
f 103 98 253
f 253 251 103
f 256 253 98
f 255 97 96
f 257 255 96
f 258 257 95
f 95 94 259
f 259 258 95
f 94 93 260
f 260 259 94
f 260 93 86
f 261 86 90
f 266 90 88
f 267 262 88
f 270 85 84
f 269 268 84
f 273 272 83
f 275 274 81
f 275 80 82
f 277 280 82
f 280 276 82
f 277 133 131
f 279 131 130
f 221 279 130
f 222 220 129
f 128 129 220
f 220 219 128
f 222 129 127
f 224 223 127
f 127 126 225
f 225 224 127
f 225 126 125
f 227 226 124
f 125 124 226
f 227 124 123
f 123 122 231
f 231 229 123
f 231 122 120
f 234 165 120
f 235 233 119
f 118 119 233
f 236 162 117
f 119 117 162
f 162 235 119
f 237 236 116
f 238 237 113
f 238 112 114
f 238 114 115
f 242 241 111
f 115 111 241
f 110 106 239
f 239 240 110
f 244 106 104
f 104 249 244
f 106 244 239
f 110 240 242
f 111 110 242
f 115 241 238
f 113 112 238
f 116 113 237
f 117 116 236
f 118 233 234
f 120 118 234
f 120 165 232
f 120 232 231
f 123 229 228
f 123 228 227
f 125 226 225
f 127 223 222
f 128 219 221
f 130 128 221
f 131 279 277
f 82 133 277
f 82 276 275
f 81 80 275
f 81 274 273
f 83 81 273
f 83 272 271
f 83 271 269
f 84 83 269
f 84 268 270
f 85 270 267
f 88 85 267
f 88 262 266
f 90 266 261
f 86 261 260
f 96 95 257
f 97 255 256
f 98 97 256
f 102 101 251
f 104 246 249
f 289 284 285
f 284 289 281
f 288 281 289
f 287 288 289
f 286 287 289
f 285 286 289
f 283 285 284
f 282 283 284
f 281 282 284
f 298 304 303
f 298 303 293
f 299 304 302
f 300 298 293
f 301 293 299
f 298 302 304
f 302 301 299
f 301 300 293
f 311 295 308
f 393 295 311
f 318 317 316
f 319 311 312
f 318 320 317
f 321 318 316
f 320 312 317
f 319 321 311
f 321 316 311
f 384 314 315
f 323 324 327
f 328 324 325
f 325 315 326
f 326 328 325
f 328 327 324
f 329 315 323
f 329 326 315
f 336 308 330
f 336 331 308
f 293 296 334
f 333 332 293
f 334 333 293
f 331 334 296
f 292 293 335
f 323 315 340
f 339 340 315
f 338 339 315
f 310 323 341
f 323 340 341
f 341 342 310
f 343 304 345
f 345 342 343
f 303 344 307
f 344 303 304
f 343 344 304
f 346 304 299
f 299 413 417
f 346 345 304
f 417 346 299
f 349 310 348
f 323 310 349
f 349 350 323
f 352 351 313
f 351 314 313
f 315 314 354
f 354 353 315
f 338 315 355
f 353 355 315
f 357 309 338
f 356 313 309
f 357 356 309
f 355 357 338
f 360 358 306
f 306 307 361
f 307 338 363
f 362 338 309
f 307 363 361
f 364 363 338
f 359 362 309
f 362 364 338
f 307 306 366
f 365 366 306
f 367 303 307
f 366 367 307
f 369 306 296
f 296 297 369
f 368 369 297
f 308 295 370
f 372 370 295
f 330 308 371
f 370 371 308
f 291 337 373
f 374 337 330
f 373 375 291
f 374 373 337
f 295 291 372
f 375 372 291
f 437 376 377
f 378 377 376
f 382 378 376
f 376 324 380
f 324 323 379
f 379 380 324
f 323 350 381
f 381 379 323
f 380 382 376
f 325 324 383
f 314 384 286
f 385 322 283
f 288 287 384
f 286 285 314
f 287 286 384
f 288 384 281
f 282 281 385
f 283 282 385
f 285 283 322
f 390 317 385
f 387 385 388
f 392 387 388
f 388 389 392
f 387 390 385
f 392 389 316
f 390 386 317
f 386 316 317
f 386 391 316
f 391 392 316
f 316 389 393
f 394 393 389
f 395 396 291
f 294 395 291
f 337 291 398
f 399 290 337
f 291 396 402
f 398 399 337
f 396 290 397
f 399 397 290
f 400 398 291
f 402 400 291
f 401 402 396
f 397 403 396
f 396 403 401
f 293 292 405
f 292 290 407
f 599 404 406
f 406 404 293
f 406 408 599
f 411 406 293
f 292 410 405
f 409 410 292
f 407 409 292
f 290 599 408
f 405 411 293
f 408 407 290
f 299 293 413
f 414 416 415
f 416 414 305
f 305 345 347
f 417 413 414
f 415 417 414
f 347 416 305
f 305 414 418
f 345 305 419
f 305 420 419
f 420 305 418
f 421 420 418
f 423 422 342
f 425 424 418
f 418 422 428
f 342 426 423
f 424 429 418
f 427 342 345
f 428 425 418
f 345 419 427
f 423 428 422
f 427 430 342
f 430 426 342
f 342 422 431
f 342 431 436
f 433 431 432
f 434 310 342
f 432 439 433
f 436 435 342
f 435 434 342
f 433 436 431
f 437 348 438
f 440 439 437
f 441 438 348
f 438 440 437
f 441 348 310
f 312 443 317
f 385 317 444
f 444 445 385
f 313 322 448
f 447 446 313
f 446 449 313
f 448 447 313
f 445 448 322
f 313 449 450
f 308 358 450
f 450 452 308
f 358 313 450
f 308 452 451
f 451 312 308
f 445 322 385
f 443 444 317
f 442 376 437
f 439 432 437
f 429 421 418
f 413 293 412
f 412 293 404
f 285 322 314
f 383 384 325
f 383 324 376
f 377 348 437
f 369 365 306
f 368 297 303
f 367 368 303
f 361 360 306
f 359 309 358
f 356 352 313
f 351 354 314
f 332 335 293
f 331 296 308
f 336 330 337
f 327 329 323
f 315 325 384
f 313 314 322
f 320 319 312
f 311 316 393
f 308 312 311
f 309 313 358
f 306 358 308
f 296 306 308
f 293 303 297
f 293 297 296
f 291 295 294
f 290 292 337
f 453 454 455
f 476 455 456
f 462 456 455
f 457 476 459
f 456 459 476
f 454 457 458
f 455 454 462
f 457 459 458
f 458 460 454
f 460 461 454
f 461 462 454
f 463 464 477
f 464 465 466
f 470 468 467
f 467 466 473
f 472 470 467
f 469 466 465
f 465 468 475
f 475 469 465
f 473 472 467
f 470 471 468
f 469 474 466
f 474 473 466
f 466 467 479
f 480 476 487
f 476 483 487
f 495 491 508
f 491 496 508
f 496 492 497
f 497 492 499
f 498 497 500
f 503 493 498
f 492 493 501
f 504 503 498
f 501 499 492
f 500 504 498
f 499 500 497
f 505 502 493
f 503 505 493
f 617 489 506
f 506 509 513
f 515 489 490
f 518 515 490
f 515 516 489
f 518 490 509
f 489 516 517
f 519 518 509
f 520 509 506
f 521 520 506
f 520 522 509
f 517 521 506
f 517 506 489
f 492 496 529
f 560 492 524
f 524 523 560
f 525 488 560
f 527 487 488
f 527 526 487
f 525 527 488
f 523 525 560
f 491 487 528
f 496 491 529
f 530 487 483
f 530 532 487
f 531 530 483
f 483 484 534
f 533 560 488
f 484 560 535
f 535 537 484
f 533 535 560
f 537 534 484
f 532 533 488
f 534 536 483
f 539 538 484
f 540 539 484
f 466 538 539
f 539 541 466
f 542 481 477
f 478 543 477
f 543 542 477
f 484 483 546
f 483 481 545
f 481 542 545
f 544 546 483
f 545 544 483
f 550 549 479
f 549 482 479
f 551 550 479
f 479 467 551
f 498 493 552
f 493 564 553
f 553 552 493
f 554 413 498
f 552 555 498
f 555 554 498
f 556 558 485
f 558 557 485
f 557 479 482
f 482 485 557
f 479 559 538
f 561 560 484
f 484 559 561
f 493 492 562
f 562 563 493
f 560 562 492
f 563 564 493
f 464 463 284
f 621 281 284
f 284 463 621
f 281 565 289
f 289 565 464
f 284 289 464
f 567 467 468
f 566 468 376
f 566 567 468
f 567 551 467
f 569 568 572
f 572 547 570
f 569 566 568
f 570 569 572
f 548 573 571
f 572 432 574
f 571 575 548
f 482 548 575
f 573 548 572
f 574 573 572
f 577 485 482
f 578 432 485
f 577 579 485
f 580 576 432
f 482 575 577
f 579 578 485
f 578 580 432
f 485 432 581
f 485 581 582
f 564 485 586
f 586 590 564
f 582 584 485
f 581 583 585
f 581 591 583
f 585 582 581
f 584 586 485
f 587 494 589
f 564 590 588
f 588 494 564
f 588 589 494
f 589 591 587
f 494 587 593
f 593 592 494
f 595 593 587
f 594 564 494
f 592 594 494
f 596 595 587
f 587 413 596
f 600 597 508
f 508 598 600
f 603 599 514
f 602 598 599
f 601 514 513
f 602 600 598
f 603 602 599
f 604 601 513
f 597 604 508
f 601 603 514
f 513 514 615
f 605 606 514
f 605 608 610
f 614 607 506
f 614 610 607
f 609 506 513
f 608 607 610
f 613 612 506
f 609 611 506
f 611 613 506
f 615 609 513
f 612 614 506
f 606 615 514
f 506 607 616
f 616 617 506
f 618 619 453
f 453 619 454
f 457 454 620
f 454 619 629
f 621 457 630
f 624 619 625
f 625 621 627
f 620 622 457
f 625 626 624
f 623 620 454
f 624 628 619
f 630 627 621
f 629 623 454
f 625 627 626
f 628 629 619
f 622 630 457
f 507 631 495
f 486 487 632
f 487 631 632
f 487 495 631
f 632 633 486
f 509 490 634
f 633 634 490
f 513 637 636
f 513 509 637
f 639 463 477
f 638 639 477
f 621 463 641
f 641 640 621
f 476 457 642
f 640 642 457
f 642 643 476
f 483 476 645
f 646 645 476
f 645 481 483
f 644 646 476
f 643 644 476
f 640 457 621
f 639 641 463
f 638 477 481
f 636 510 513
f 635 637 509
f 634 635 509
f 633 490 486
f 636 507 510
f 604 513 508
f 511 598 508
f 498 512 508
f 594 553 564
f 591 581 587
f 576 574 432
f 566 376 568
f 376 468 465
f 565 465 464
f 289 284 281
f 559 484 538
f 556 485 564
f 554 596 413
f 549 548 482
f 547 572 548
f 546 540 484
f 541 478 466
f 536 531 483
f 532 488 487
f 526 528 487
f 529 524 492
f 522 519 509
f 512 511 508
f 508 513 510
f 498 508 497
f 508 510 507
f 502 501 493
f 497 508 496
f 508 507 495
f 489 617 486
f 491 495 487
f 490 489 486
f 487 486 480
f 479 538 466
f 466 478 477
f 476 480 455
f 471 475 468
f 466 477 464
f 455 480 453
f 599 290 514
f 605 514 290
f 290 396 605
f 388 385 621
f 621 625 388
f 281 621 385
f 486 617 294
f 294 295 486
f 480 486 295
f 453 480 295
f 295 393 453
f 616 607 396
f 616 396 395
f 617 395 294
f 395 617 616
f 396 607 608
f 396 608 605
f 453 393 394
f 453 394 389
f 388 625 619
f 389 388 619
f 389 619 618
f 389 618 453
f 465 383 376
f 376 442 568
f 587 581 418
f 581 422 418
f 431 581 432
f 572 437 432
f 572 568 442
f 442 437 572
f 431 422 581
f 413 412 498
f 512 498 412
f 413 587 414
f 587 418 414
f 383 465 565
f 565 384 383
f 281 384 565
f 599 598 404
f 412 404 512
f 511 512 404
f 598 511 404
f 601 604 409
f 603 601 407
f 602 603 408
f 600 602 406
f 597 600 411
f 604 597 411
f 411 405 604
f 406 411 600
f 408 406 602
f 407 408 603
f 409 407 601
f 410 409 604
f 405 410 604
f 460 458 318
f 461 460 318
f 462 461 321
f 456 462 319
f 459 456 320
f 458 459 320
f 320 318 458
f 319 320 456
f 321 319 462
f 318 321 461
f 516 515 370
f 517 516 372
f 521 517 373
f 520 521 373
f 522 520 373
f 330 371 519
f 519 522 330
f 518 519 371
f 515 518 370
f 371 370 518
f 374 330 522
f 373 374 522
f 375 373 517
f 372 375 517
f 370 372 516
f 626 627 392
f 624 626 392
f 628 624 392
f 629 628 392
f 623 629 392
f 620 623 391
f 622 620 386
f 630 622 386
f 627 630 390
f 390 387 627
f 386 390 630
f 391 386 620
f 392 391 623
f 387 392 627
f 527 525 365
f 526 527 365
f 528 526 365
f 491 528 369
f 529 491 369
f 524 529 368
f 523 524 367
f 525 523 366
f 367 366 523
f 368 367 524
f 369 368 529
f 365 369 528
f 366 365 525
f 536 534 362
f 531 536 359
f 530 531 358
f 532 530 360
f 533 532 361
f 535 533 361
f 537 535 363
f 534 537 362
f 364 362 537
f 363 364 537
f 361 363 535
f 360 361 532
f 358 360 530
f 359 358 531
f 362 359 536
f 543 478 351
f 542 543 351
f 545 542 352
f 544 545 356
f 546 544 357
f 540 546 355
f 539 540 355
f 541 539 353
f 478 541 351
f 354 351 541
f 353 354 541
f 355 353 539
f 357 355 546
f 356 357 544
f 352 356 545
f 351 352 542
f 469 475 328
f 474 469 326
f 473 474 329
f 472 473 327
f 470 472 327
f 471 470 327
f 475 471 328
f 327 328 471
f 329 327 473
f 326 329 474
f 328 326 469
f 567 566 380
f 551 567 379
f 381 350 551
f 550 551 350
f 549 550 349
f 548 549 349
f 570 547 348
f 547 548 348
f 569 570 377
f 566 569 382
f 382 380 566
f 378 382 569
f 377 378 569
f 348 377 570
f 349 348 548
f 350 349 550
f 379 381 551
f 380 379 567
f 571 573 438
f 575 571 438
f 577 575 310
f 441 310 575
f 579 577 310
f 578 579 434
f 580 578 436
f 576 580 433
f 574 576 439
f 573 574 438
f 440 438 574
f 439 440 574
f 433 439 576
f 436 433 580
f 435 436 578
f 434 435 578
f 310 434 579
f 438 441 575
f 584 582 423
f 586 584 426
f 590 586 427
f 588 590 419
f 427 419 590
f 589 588 419
f 591 589 420
f 583 591 421
f 585 583 425
f 582 585 423
f 428 423 585
f 425 428 585
f 424 425 583
f 429 424 583
f 421 429 583
f 420 421 591
f 419 420 589
f 430 427 586
f 426 430 586
f 423 426 584
f 552 553 346
f 555 552 346
f 554 555 417
f 596 554 417
f 595 596 417
f 593 595 415
f 592 593 416
f 594 592 416
f 553 594 347
f 347 345 553
f 416 347 594
f 415 416 593
f 417 415 595
f 346 417 555
f 345 346 553
f 499 501 298
f 500 499 300
f 504 500 301
f 503 504 302
f 505 503 302
f 502 505 302
f 501 502 298
f 302 298 502
f 301 302 504
f 300 301 500
f 298 300 499
f 559 479 340
f 561 559 338
f 339 338 559
f 560 561 338
f 562 560 344
f 563 562 344
f 564 563 343
f 556 564 343
f 558 556 342
f 557 558 342
f 341 340 557
f 479 557 340
f 342 341 557
f 343 342 556
f 344 343 563
f 307 344 560
f 338 307 560
f 340 339 559
f 611 609 398
f 613 611 398
f 612 613 400
f 614 612 400
f 610 614 402
f 605 610 403
f 606 605 397
f 615 606 397
f 609 615 399
f 399 398 609
f 397 399 615
f 403 397 605
f 401 403 610
f 402 401 610
f 400 402 614
f 398 400 613
f 336 337 637
f 637 635 336
f 635 634 336
f 334 331 507
f 333 334 507
f 332 333 636
f 636 335 332
f 636 292 335
f 337 292 636
f 636 637 337
f 507 636 333
f 631 507 331
f 632 631 331
f 633 632 331
f 331 336 633
f 634 633 336
f 452 450 645
f 451 452 645
f 646 644 451
f 644 643 312
f 443 312 642
f 640 444 443
f 445 444 640
f 641 639 445
f 448 445 639
f 447 448 639
f 446 447 638
f 449 446 638
f 450 449 481
f 450 481 645
f 638 481 449
f 639 638 447
f 640 641 445
f 642 640 443
f 643 642 312
f 312 451 644
f 645 646 451
f 647 648 649
f 652 650 649
f 654 652 653
f 654 655 648
f 647 648 656
f 647 657 656
f 648 647 654
f 653 655 654
f 649 653 652
f 649 650 647
f 659 648 656
f 659 660 656
f 661 659 648
f 661 655 662
f 663 662 664
f 659 665 664
f 664 648 659
f 664 665 663
f 662 663 661
f 648 655 661
f 667 668 658
f 668 648 658
f 658 648 667
f 655 670 669
f 668 649 648
f 648 664 667
f 669 662 655
f 655 653 670
f 653 649 670
f 670 649 651
f 668 651 649
f 651 668 670
f 669 664 662
f 669 667 666
f 666 664 669
f 664 666 667
f 671 672 657
f 672 647 657
f 657 647 671
f 654 647 672
f 670 650 652
f 670 668 650
f 672 670 654
f 668 671 647
f 668 647 650
f 652 654 670
f 667 669 665
f 663 665 669
f 672 659 661
f 672 671 660
f 669 672 661
f 660 659 672
f 671 667 659
f 669 661 663
f 665 659 667
f 659 660 671
f 672 669 670
f 668 667 671
f 673 674 675
f 678 676 675
f 680 678 679
f 680 681 674
f 673 674 682
f 673 683 682
f 674 673 680
f 679 681 680
f 675 679 678
f 675 676 673
f 685 674 682
f 685 686 682
f 687 685 674
f 687 681 688
f 689 688 690
f 685 691 690
f 690 674 685
f 690 691 689
f 688 689 687
f 674 681 687
f 693 694 684
f 694 674 684
f 684 674 693
f 681 696 695
f 694 675 674
f 674 690 693
f 695 688 681
f 681 679 696
f 679 675 696
f 696 675 677
f 694 677 675
f 677 694 696
f 695 690 688
f 695 693 692
f 692 690 695
f 690 692 693
f 697 698 683
f 698 673 683
f 683 673 697
f 680 673 698
f 696 676 678
f 696 694 676
f 698 696 680
f 694 697 673
f 694 673 676
f 678 680 696
f 693 695 691
f 689 691 695
f 698 685 687
f 698 697 686
f 695 698 687
f 686 685 698
f 697 693 685
f 695 687 689
f 691 685 693
f 685 686 697
f 698 695 696
f 694 693 697
f 704 702 703
f 705 704 703
f 938 705 808
f 706 708 709
f 709 707 706
f 711 710 718
f 714 908 712
f 716 714 715
f 700 716 699
f 717 699 716
f 715 717 716
f 745 715 714
f 713 745 714
f 712 713 714
f 718 712 711
f 708 710 709
f 808 706 938
f 809 808 705
f 703 809 705
f 701 703 702
f 699 701 700
f 721 727 718
f 718 720 722
f 722 721 718
f 723 719 727
f 721 723 727
f 723 724 719
f 725 722 720
f 724 725 720
f 720 719 724
f 728 745 729
f 736 729 745
f 734 730 727
f 745 727 733
f 730 733 727
f 735 734 731
f 732 731 728
f 732 735 731
f 733 736 745
f 729 732 728
f 737 728 741
f 738 737 743
f 741 739 737
f 744 741 728
f 731 740 742
f 743 740 738
f 744 728 731
f 742 744 731
f 739 743 737
f 737 753 746
f 749 746 753
f 753 728 749
f 748 747 728
f 752 748 737
f 751 750 737
f 747 749 728
f 750 752 737
f 746 751 737
f 871 754 756
f 756 755 871
f 754 753 759
f 759 756 754
f 761 760 753
f 758 757 871
f 755 758 871
f 760 759 753
f 762 761 757
f 758 762 757
f 764 717 754
f 763 764 766
f 871 763 770
f 766 765 763
f 768 766 764
f 771 769 871
f 767 768 764
f 769 767 754
f 767 764 754
f 770 771 871
f 765 770 763
f 772 699 764
f 774 823 772
f 777 773 782
f 775 772 776
f 780 776 772
f 776 778 775
f 772 773 781
f 777 779 773
f 781 780 772
f 778 782 775
f 738 731 784
f 731 727 785
f 784 783 738
f 785 784 731
f 789 785 727
f 783 786 738
f 788 726 787
f 787 790 788
f 726 788 789
f 787 738 786
f 786 790 787
f 754 717 791
f 717 792 794
f 794 791 717
f 793 753 754
f 792 797 794
f 791 793 754
f 796 745 753
f 792 745 797
f 796 795 745
f 795 797 745
f 798 796 753
f 753 799 798
f 800 718 710
f 803 708 706
f 804 802 801
f 803 801 708
f 803 804 801
f 806 803 706
f 805 845 807
f 807 806 706
f 807 706 805
f 808 805 706
f 699 772 823
f 717 764 699
f 715 745 792
f 713 727 745
f 713 712 727
f 718 727 712
f 718 811 720
f 720 854 944
f 719 720 944
f 726 727 812
f 727 719 812
f 726 812 813
f 815 775 782
f 983 817 818
f 775 815 816
f 816 819 775
f 822 816 815
f 818 820 983
f 815 983 822
f 821 818 817
f 774 819 821
f 820 822 983
f 821 981 774
f 821 817 981
f 810 703 824
f 825 826 703
f 703 701 825
f 701 830 825
f 829 823 827
f 826 824 703
f 830 701 823
f 829 828 823
f 832 829 827
f 828 830 823
f 827 970 832
f 831 970 936
f 833 936 810
f 831 832 970
f 833 834 936
f 834 831 936
f 809 835 838
f 836 843 808
f 841 838 835
f 837 836 808
f 839 808 809
f 809 838 839
f 961 843 836
f 839 837 808
f 835 961 840
f 840 841 835
f 836 842 961
f 842 840 961
f 805 808 843
f 805 843 845
f 843 844 846
f 844 801 846
f 847 845 843
f 846 847 843
f 849 848 946
f 849 946 945
f 850 854 720
f 849 811 848
f 853 849 945
f 849 851 811
f 855 850 720
f 850 852 854
f 855 720 811
f 851 855 811
f 854 856 853
f 945 854 853
f 852 856 854
f 848 811 800
f 810 835 809
f 824 833 810
f 823 774 981
f 819 774 775
f 815 782 814
f 814 782 773
f 763 814 764
f 813 787 726
f 812 719 944
f 718 800 811
f 715 792 717
f 701 699 823
f 809 703 810
f 802 846 801
f 710 708 801
f 710 801 800
f 793 799 753
f 789 727 726
f 779 781 773
f 772 775 774
f 764 814 773
f 764 773 772
f 769 754 871
f 761 753 757
f 737 757 753
f 748 728 737
f 728 753 745
f 740 731 738
f 734 727 731
f 857 858 859
f 860 861 862
f 864 861 859
f 863 859 858
f 867 863 858
f 864 865 861
f 865 862 861
f 863 866 859
f 866 864 859
f 860 867 858
f 861 868 869
f 861 869 870
f 871 870 873
f 870 869 874
f 873 872 871
f 868 877 875
f 876 868 871
f 874 873 870
f 875 874 869
f 876 877 868
f 872 876 871
f 885 878 883
f 871 885 880
f 883 881 885
f 882 879 870
f 880 882 871
f 884 883 878
f 879 878 870
f 881 880 885
f 879 884 878
f 896 878 886
f 887 886 888
f 890 888 886
f 890 886 878
f 885 892 889
f 885 887 891
f 889 890 878
f 888 891 887
f 891 892 885
f 893 894 895
f 901 895 894
f 886 893 900
f 901 894 896
f 898 897 896
f 899 898 886
f 897 901 896
f 900 899 886
f 895 900 893
f 921 893 903
f 904 887 921
f 903 902 921
f 905 903 893
f 893 886 905
f 907 906 887
f 902 904 921
f 906 905 886
f 904 907 887
f 894 893 909
f 711 911 912
f 911 913 918
f 914 910 711
f 912 914 711
f 918 915 911
f 917 916 910
f 914 917 910
f 916 918 913
f 916 913 910
f 920 893 921
f 920 919 893
f 919 909 893
f 919 922 909
f 923 920 921
f 926 923 921
f 787 909 925
f 925 924 787
f 922 925 909
f 924 926 787
f 930 927 870
f 930 928 927
f 928 929 927
f 870 878 933
f 931 930 870
f 928 932 929
f 933 931 870
f 878 896 934
f 935 934 896
f 929 932 935
f 935 896 929
f 934 933 878
f 911 712 908
f 712 911 711
f 896 894 714
f 929 896 714
f 714 716 929
f 927 929 716
f 861 927 716
f 861 716 700
f 857 859 700
f 859 861 700
f 700 701 974
f 936 937 704
f 938 706 844
f 709 800 940
f 707 940 939
f 942 800 954
f 941 940 800
f 844 707 939
f 707 709 940
f 942 941 800
f 954 956 942
f 910 943 710
f 943 800 710
f 710 711 910
f 994 911 909
f 953 913 944
f 910 953 949
f 945 946 948
f 949 947 910
f 951 948 946
f 950 945 948
f 948 952 950
f 943 947 951
f 951 848 943
f 951 946 848
f 952 953 950
f 955 956 844
f 956 954 844
f 958 957 844
f 844 960 958
f 959 955 844
f 957 959 844
f 844 961 938
f 938 961 962
f 966 962 961
f 705 938 965
f 963 968 705
f 964 963 705
f 962 965 938
f 965 964 705
f 967 961 968
f 967 966 961
f 963 967 968
f 937 936 969
f 936 970 971
f 971 970 827
f 827 973 971
f 972 969 936
f 971 972 936
f 975 702 704
f 976 704 937
f 702 979 974
f 975 979 702
f 827 978 977
f 976 975 704
f 978 827 974
f 937 969 976
f 982 857 981
f 982 981 983
f 983 980 982
f 985 984 858
f 983 986 980
f 987 984 988
f 991 986 983
f 985 988 984
f 989 985 858
f 982 990 857
f 990 858 857
f 990 989 858
f 988 991 987
f 991 983 987
f 860 858 984
f 868 861 995
f 861 860 995
f 868 995 992
f 787 993 909
f 993 994 909
f 984 995 860
f 827 857 974
f 977 973 827
f 968 936 705
f 800 943 848
f 947 943 910
f 944 950 953
f 913 953 910
f 994 913 911
f 709 710 800
f 939 960 844
f 706 707 844
f 704 705 936
f 701 702 974
f 700 974 857
f 714 894 908
f 926 921 787
f 915 912 911
f 909 911 908
f 909 908 894
f 906 886 887
f 898 896 886
f 889 878 885
f 882 870 871
f 875 869 868
f 870 927 861
f 994 813 812
f 913 994 812
f 812 944 913
f 871 868 763
f 871 757 885
f 757 737 885
f 887 885 737
f 921 887 737
f 737 738 921
f 787 921 738
f 995 815 814
f 992 995 814
f 995 984 815
f 945 950 854
f 950 944 854
f 801 844 954
f 857 827 823
f 981 857 823
f 815 984 987
f 815 987 983
f 981 817 983
f 810 936 968
f 835 810 968
f 835 968 961
f 843 961 844
f 801 954 800
f 992 814 763
f 868 992 763
f 813 994 993
f 813 993 787
f 967 963 841
f 966 967 840
f 962 966 836
f 965 962 836
f 964 965 839
f 963 964 839
f 839 838 963
f 837 839 965
f 836 837 965
f 842 836 966
f 840 842 966
f 841 840 967
f 838 841 963
f 958 960 845
f 960 939 845
f 957 958 847
f 959 957 847
f 955 959 847
f 956 955 846
f 942 956 846
f 941 942 804
f 940 941 803
f 939 940 803
f 807 845 939
f 806 807 939
f 803 806 939
f 804 803 941
f 802 804 942
f 846 802 942
f 847 846 955
f 845 847 958
f 951 947 855
f 948 951 849
f 952 948 853
f 953 952 856
f 949 953 850
f 947 949 855
f 850 855 949
f 852 850 953
f 856 852 953
f 853 856 952
f 849 853 948
f 851 849 951
f 855 851 951
f 914 912 722
f 917 914 722
f 916 917 725
f 918 916 724
f 915 918 723
f 912 915 721
f 723 721 915
f 724 723 918
f 725 724 916
f 722 725 917
f 721 722 912
f 897 898 736
f 901 897 736
f 895 901 730
f 900 895 735
f 899 900 732
f 898 899 729
f 732 729 899
f 735 732 900
f 734 735 895
f 730 734 895
f 733 730 901
f 736 733 901
f 729 736 898
f 928 930 791
f 932 928 794
f 935 932 797
f 934 935 795
f 933 934 798
f 931 933 793
f 930 931 791
f 793 791 931
f 799 793 933
f 798 799 933
f 796 798 934
f 795 796 934
f 797 795 935
f 794 797 932
f 791 794 928
f 867 860 782
f 863 867 776
f 866 863 780
f 864 866 780
f 865 864 779
f 862 865 779
f 860 862 777
f 777 782 860
f 779 777 862
f 781 779 864
f 780 781 864
f 776 780 863
f 778 776 867
f 782 778 867
f 986 991 820
f 980 986 818
f 982 980 818
f 990 982 818
f 989 990 819
f 985 989 819
f 988 985 816
f 991 988 822
f 816 822 988
f 819 816 985
f 821 819 990
f 818 821 990
f 820 818 986
f 822 820 991
f 971 973 832
f 973 977 832
f 972 971 831
f 969 972 834
f 976 969 833
f 975 976 826
f 979 975 825
f 974 979 825
f 978 974 830
f 977 978 828
f 830 828 978
f 825 830 974
f 826 825 975
f 824 826 976
f 833 824 976
f 834 833 969
f 831 834 972
f 832 831 971
f 829 832 977
f 828 829 977
f 789 788 925
f 785 789 922
f 784 785 919
f 783 784 920
f 786 783 920
f 788 790 924
f 924 925 788
f 926 924 790
f 790 786 926
f 923 926 786
f 920 923 786
f 919 920 784
f 922 919 785
f 925 922 789
f 747 748 888
f 749 747 890
f 746 749 889
f 751 746 892
f 750 751 891
f 752 750 891
f 748 752 888
f 891 888 752
f 892 891 751
f 889 892 746
f 890 889 749
f 888 890 747
f 742 740 903
f 744 742 905
f 741 744 906
f 739 741 907
f 743 739 907
f 740 743 904
f 902 903 740
f 904 902 740
f 907 904 743
f 906 907 741
f 905 906 744
f 903 905 742
f 760 761 883
f 759 760 884
f 756 759 879
f 755 756 882
f 758 755 880
f 762 758 880
f 761 762 881
f 881 883 761
f 880 881 762
f 882 880 755
f 879 882 756
f 884 879 759
f 883 884 760
f 767 769 873
f 768 767 874
f 766 768 874
f 765 766 875
f 770 765 877
f 771 770 876
f 769 771 872
f 872 873 769
f 876 872 771
f 877 876 770
f 875 877 765
f 874 875 766
f 873 874 767
f 997 996 1000
f 997 1000 998
f 998 1000 1001
f 998 1001 999
f 1000 996 1002
f 1000 1002 1001
f 1001 1002 1003
f 1001 1003 999
f 1002 996 1004
f 1002 1004 1003
f 1003 1004 1005
f 1003 1005 999
f 1004 996 1006
f 1004 1006 1005
f 1005 1006 1007
f 1005 1007 999
f 1006 996 1008
f 1006 1008 1007
f 1007 1008 1009
f 1007 1009 999
f 1008 996 1010
f 1008 1010 1009
f 1009 1010 1011
f 1009 1011 999
f 1010 996 1012
f 1010 1012 1011
f 1011 1012 1013
f 1011 1013 999
f 1012 996 1014
f 1012 1014 1013
f 1013 1014 1015
f 1013 1015 999
f 1014 996 1016
f 1014 1016 1015
f 1015 1016 1017
f 1015 1017 999
f 1016 996 1018
f 1016 1018 1017
f 1017 1018 1019
f 1017 1019 999
f 1018 996 1020
f 1018 1020 1019
f 1019 1020 1021
f 1019 1021 999
f 1020 996 1022
f 1020 1022 1021
f 1021 1022 1023
f 1021 1023 999
f 1022 996 1024
f 1022 1024 1023
f 1023 1024 1025
f 1023 1025 999
f 1024 996 1026
f 1024 1026 1025
f 1025 1026 1027
f 1025 1027 999
f 1026 996 1028
f 1026 1028 1027
f 1027 1028 1029
f 1027 1029 999
f 1028 996 1030
f 1028 1030 1029
f 1029 1030 1031
f 1029 1031 999
f 1030 996 1032
f 1030 1032 1031
f 1031 1032 1033
f 1031 1033 999
f 1032 996 1034
f 1032 1034 1033
f 1033 1034 1035
f 1033 1035 999
f 1034 996 1036
f 1034 1036 1035
f 1035 1036 1037
f 1035 1037 999
f 1036 996 1038
f 1036 1038 1037
f 1037 1038 1039
f 1037 1039 999
f 1038 996 1040
f 1038 1040 1039
f 1039 1040 1041
f 1039 1041 999
f 1040 996 1042
f 1040 1042 1041
f 1041 1042 1043
f 1041 1043 999
f 1042 996 1044
f 1042 1044 1043
f 1043 1044 1045
f 1043 1045 999
f 1044 996 1046
f 1044 1046 1045
f 1045 1046 1047
f 1045 1047 999
f 1046 996 1048
f 1046 1048 1047
f 1047 1048 1049
f 1047 1049 999
f 1048 996 1050
f 1048 1050 1049
f 1049 1050 1051
f 1049 1051 999
f 1050 996 1052
f 1050 1052 1051
f 1051 1052 1053
f 1051 1053 999
f 1052 996 1054
f 1052 1054 1053
f 1053 1054 1055
f 1053 1055 999
f 1054 996 1056
f 1054 1056 1055
f 1055 1056 1057
f 1055 1057 999
f 1056 996 1058
f 1056 1058 1057
f 1057 1058 1059
f 1057 1059 999
f 1058 996 1060
f 1058 1060 1059
f 1059 1060 1061
f 1059 1061 999
f 1060 996 997
f 1060 997 1061
f 1061 997 998
f 1061 998 999
f 1063 1064 1062
f 1064 1065 1062
f 1065 1066 1062
f 1066 1067 1062
f 1067 1068 1062
f 1068 1069 1062
f 1069 1070 1062
f 1070 1063 1062
f 1071 1067 1066
f 1072 1066 1065
f 1073 1065 1064
f 1074 1064 1063
f 1075 1063 1070
f 1076 1070 1069
f 1077 1069 1068
f 1078 1068 1067
f 1067 1071 1078
f 1068 1078 1077
f 1069 1077 1076
f 1070 1076 1075
f 1063 1075 1074
f 1064 1074 1073
f 1065 1073 1072
f 1066 1072 1071
f 1075 1076 1079
f 1076 1077 1079
f 1077 1078 1079
f 1078 1071 1079
f 1071 1072 1079
f 1072 1073 1079
f 1073 1074 1079
f 1074 1075 1079
f 1081 1082 1080
f 1082 1083 1080
f 1083 1084 1080
f 1084 1085 1080
f 1085 1086 1080
f 1086 1087 1080
f 1087 1088 1080
f 1088 1081 1080
f 1089 1085 1084
f 1090 1084 1083
f 1091 1083 1082
f 1092 1082 1081
f 1093 1081 1088
f 1094 1088 1087
f 1095 1087 1086
f 1096 1086 1085
f 1085 1089 1096
f 1086 1096 1095
f 1087 1095 1094
f 1088 1094 1093
f 1081 1093 1092
f 1082 1092 1091
f 1083 1091 1090
f 1084 1090 1089
f 1093 1094 1097
f 1094 1095 1097
f 1095 1096 1097
f 1096 1089 1097
f 1089 1090 1097
f 1090 1091 1097
f 1091 1092 1097
f 1092 1093 1097
f 1099 1100 1098
f 1100 1101 1098
f 1101 1102 1098
f 1102 1103 1098
f 1103 1104 1098
f 1104 1105 1098
f 1105 1106 1098
f 1106 1099 1098
f 1107 1103 1102
f 1108 1102 1101
f 1109 1101 1100
f 1110 1100 1099
f 1111 1099 1106
f 1112 1106 1105
f 1113 1105 1104
f 1114 1104 1103
f 1103 1107 1114
f 1104 1114 1113
f 1105 1113 1112
f 1106 1112 1111
f 1099 1111 1110
f 1100 1110 1109
f 1101 1109 1108
f 1102 1108 1107
f 1111 1112 1115
f 1112 1113 1115
f 1113 1114 1115
f 1114 1107 1115
f 1107 1108 1115
f 1108 1109 1115
f 1109 1110 1115
f 1110 1111 1115
f 1116 1117 1118
f 1121 1119 1118
f 1123 1121 1122
f 1123 1124 1117
f 1116 1117 1125
f 1116 1126 1125
f 1117 1116 1123
f 1122 1124 1123
f 1118 1122 1121
f 1118 1119 1116
f 1128 1117 1125
f 1128 1129 1125
f 1130 1128 1117
f 1130 1124 1131
f 1132 1131 1133
f 1128 1134 1133
f 1133 1117 1128
f 1133 1134 1132
f 1131 1132 1130
f 1117 1124 1130
f 1136 1137 1127
f 1137 1117 1127
f 1127 1117 1136
f 1124 1139 1138
f 1137 1118 1117
f 1117 1133 1136
f 1138 1131 1124
f 1124 1122 1139
f 1122 1118 1139
f 1139 1118 1120
f 1137 1120 1118
f 1120 1137 1139
f 1138 1133 1131
f 1138 1136 1135
f 1135 1133 1138
f 1133 1135 1136
f 1140 1141 1126
f 1141 1116 1126
f 1126 1116 1140
f 1123 1116 1141
f 1139 1119 1121
f 1139 1137 1119
f 1141 1139 1123
f 1137 1140 1116
f 1137 1116 1119
f 1121 1123 1139
f 1136 1138 1134
f 1132 1134 1138
f 1141 1128 1130
f 1141 1140 1129
f 1138 1141 1130
f 1129 1128 1141
f 1140 1136 1128
f 1138 1130 1132
f 1134 1128 1136
f 1128 1129 1140
f 1141 1138 1139
f 1137 1136 1140
f 1146 1144 1186
f 1149 1146 1147
f 1152 1149 1150
f 1154 1152 1142
f 1144 1154 1142
f 1153 1142 1152
f 1151 1153 1152
f 1150 1151 1152
f 1148 1150 1149
f 1147 1148 1149
f 1186 1147 1146
f 1145 1186 1144
f 1143 1145 1144
f 1142 1143 1144
f 1156 1155 1157
f 1158 1157 1161
f 1162 1158 1164
f 1163 1159 1160
f 1160 1162 1163
f 1165 1161 1157
f 1157 1166 1165
f 1159 1166 1160
f 1161 1164 1158
f 1166 1157 1160
f 1164 1167 1162
f 1170 1162 1236
f 1168 1171 1195
f 1170 1169 1162
f 1174 1170 1236
f 1172 1195 1162
f 1174 1236 1171
f 1168 1173 1171
f 1169 1172 1162
f 1176 1174 1171
f 1173 1176 1171
f 1172 1175 1195
f 1177 1195 1171
f 1171 1178 1177
f 1180 1182 1181
f 1183 1185 1184
f 1142 1179 1178
f 1298 1179 1151
f 1143 1142 1178
f 1178 1181 1143
f 1186 1145 1181
f 1142 1153 1179
f 1153 1151 1179
f 1145 1143 1181
f 1298 1151 1150
f 1186 1184 1147
f 1148 1147 1184
f 1150 1184 1298
f 1179 1298 1187
f 1188 1195 1191
f 1191 1189 1188
f 1189 1190 1188
f 1196 1194 1190
f 1190 1197 1193
f 1194 1192 1177
f 1189 1197 1190
f 1192 1195 1177
f 1193 1196 1190
f 1188 1199 1198
f 1195 1188 1200
f 1198 1200 1188
f 1195 1200 1201
f 1201 1162 1195
f 1202 1203 1205
f 1205 1204 1158
f 1206 1205 1158
f 1162 1206 1158
f 1207 1156 1209
f 1204 1270 1213
f 1209 1208 1207
f 1156 1158 1210
f 1210 1209 1156
f 1212 1211 1204
f 1211 1210 1158
f 1213 1212 1204
f 1208 1213 1207
f 1270 1207 1213
f 1221 1155 1214
f 1217 1218 1216
f 1218 1217 1229
f 1225 1214 1219
f 1215 1226 1217
f 1228 1218 1229
f 1228 1229 1224
f 1222 1220 1155
f 1225 1221 1214
f 1217 1216 1215
f 1228 1224 1155
f 1221 1222 1155
f 1223 1225 1226
f 1227 1228 1155
f 1219 1226 1225
f 1215 1223 1226
f 1229 1217 1230
f 1220 1227 1155
f 1156 1214 1155
f 1211 1158 1204
f 1203 1204 1205
f 1194 1177 1190
f 1187 1190 1177
f 1187 1177 1179
f 1150 1148 1184
f 1185 1298 1184
f 1182 1186 1181
f 1178 1179 1177
f 1175 1168 1195
f 1167 1163 1162
f 1157 1158 1156
f 1231 1232 1233
f 1234 1233 1235
f 1282 1234 1242
f 1244 1235 1233
f 1239 1240 1236
f 1236 1238 1239
f 1241 1238 1282
f 1240 1237 1236
f 1242 1241 1282
f 1243 1244 1233
f 1237 1243 1236
f 1243 1233 1236
f 1235 1242 1234
f 1282 1238 1245
f 1252 1238 1157
f 1252 1245 1238
f 1247 1248 1246
f 1251 1246 1282
f 1247 1249 1248
f 1251 1250 1246
f 1157 1248 1249
f 1253 1252 1157
f 1249 1253 1157
f 1245 1251 1282
f 1254 1246 1248
f 1256 1257 1224
f 1267 1255 1260
f 1224 1259 1262
f 1262 1258 1224
f 1268 1262 1259
f 1259 1261 1268
f 1263 1255 1248
f 1258 1265 1224
f 1260 1264 1267
f 1261 1226 1268
f 1263 1260 1255
f 1248 1224 1265
f 1226 1266 1268
f 1265 1263 1248
f 1268 1266 1267
f 1255 1267 1269
f 1270 1246 1273
f 1273 1272 1270
f 1271 1277 1275
f 1272 1271 1270
f 1276 1273 1246
f 1276 1246 1254
f 1275 1274 1254
f 1272 1278 1271
f 1274 1276 1254
f 1278 1277 1271
f 1270 1280 1279
f 1246 1270 1281
f 1279 1281 1270
f 1281 1282 1246
f 1283 1284 1285
f 1285 1284 1234
f 1286 1285 1234
f 1282 1286 1234
f 1287 1231 1289
f 1284 1290 1294
f 1289 1288 1287
f 1231 1234 1291
f 1284 1293 1292
f 1291 1289 1231
f 1288 1294 1290
f 1292 1291 1234
f 1294 1293 1284
f 1290 1287 1288
f 1287 1295 1231
f 1296 1298 1297
f 1301 1300 1299
f 1232 1231 1152
f 1146 1296 1300
f 1300 1144 1146
f 1152 1154 1232
f 1152 1295 1298
f 1144 1300 1301
f 1144 1301 1232
f 1152 1231 1295
f 1298 1296 1149
f 1146 1149 1296
f 1149 1152 1298
f 1154 1144 1232
f 1292 1234 1284
f 1275 1254 1271
f 1269 1271 1254
f 1269 1254 1255
f 1264 1268 1267
f 1257 1259 1224
f 1248 1255 1254
f 1250 1247 1246
f 1241 1239 1238
f 1233 1234 1231
f 1290 1284 1188
f 1188 1190 1290
f 1219 1214 1267
f 1269 1267 1214
f 1214 1156 1269
f 1269 1156 1207
f 1232 1301 1178
f 1178 1171 1233
f 1233 1232 1178
f 1236 1233 1171
f 1157 1238 1160
f 1155 1224 1248
f 1248 1157 1155
f 1162 1160 1238
f 1236 1162 1238
f 1187 1298 1295
f 1185 1297 1298
f 1204 1203 1270
f 1206 1162 1282
f 1205 1206 1281
f 1282 1281 1206
f 1201 1200 1286
f 1162 1201 1286
f 1286 1282 1162
f 1285 1286 1200
f 1257 1229 1230
f 1229 1257 1256
f 1229 1256 1224
f 1299 1182 1180
f 1299 1180 1181
f 1181 1178 1301
f 1181 1301 1299
f 1226 1267 1266
f 1217 1261 1259
f 1230 1217 1259
f 1259 1257 1230
f 1261 1217 1226
f 1267 1226 1219
f 1299 1300 1186
f 1186 1182 1299
f 1184 1186 1296
f 1184 1296 1297
f 1297 1185 1183
f 1297 1183 1184
f 1300 1296 1186
f 1207 1270 1271
f 1271 1269 1207
f 1287 1290 1190
f 1187 1295 1287
f 1190 1187 1287
f 1188 1284 1283
f 1199 1283 1285
f 1285 1200 1198
f 1285 1198 1199
f 1283 1199 1188
f 1270 1203 1202
f 1280 1202 1205
f 1205 1281 1279
f 1205 1279 1280
f 1202 1280 1270
f 1240 1239 1174
f 1237 1240 1174
f 1243 1237 1174
f 1244 1243 1176
f 1235 1244 1168
f 1242 1235 1175
f 1241 1242 1172
f 1239 1241 1170
f 1169 1170 1241
f 1172 1169 1241
f 1175 1172 1242
f 1168 1175 1235
f 1173 1168 1244
f 1176 1173 1244
f 1174 1176 1243
f 1170 1174 1239
f 1249 1247 1165
f 1253 1249 1166
f 1252 1253 1166
f 1245 1252 1163
f 1251 1245 1167
f 1250 1251 1164
f 1247 1250 1161
f 1164 1161 1250
f 1167 1164 1251
f 1163 1167 1245
f 1159 1163 1252
f 1166 1159 1252
f 1165 1166 1249
f 1161 1165 1247
f 1262 1268 1218
f 1258 1262 1218
f 1265 1258 1228
f 1263 1265 1228
f 1260 1263 1222
f 1264 1260 1221
f 1268 1264 1225
f 1221 1225 1264
f 1222 1221 1260
f 1220 1222 1263
f 1227 1220 1263
f 1228 1227 1263
f 1218 1228 1258
f 1216 1218 1268
f 1215 1216 1268
f 1223 1215 1268
f 1225 1223 1268
f 1192 1194 1289
f 1195 1192 1291
f 1191 1195 1291
f 1189 1191 1292
f 1197 1189 1294
f 1193 1197 1294
f 1196 1193 1288
f 1194 1196 1288
f 1288 1289 1194
f 1294 1288 1193
f 1293 1294 1189
f 1292 1293 1189
f 1291 1292 1191
f 1289 1291 1192
f 1210 1211 1273
f 1209 1210 1274
f 1208 1209 1275
f 1213 1208 1277
f 1212 1213 1272
f 1211 1212 1272
f 1272 1273 1211
f 1278 1272 1213
f 1277 1278 1213
f 1275 1277 1208
f 1274 1275 1209
f 1276 1274 1210
f 1273 1276 1210
f 1302 1303 1304
f 1307 1305 1304
f 1309 1307 1308
f 1309 1310 1303
f 1302 1303 1311
f 1302 1312 1311
f 1303 1302 1309
f 1308 1310 1309
f 1304 1308 1307
f 1304 1305 1302
f 1314 1303 1311
f 1314 1315 1311
f 1316 1314 1303
f 1316 1310 1317
f 1318 1317 1319
f 1314 1320 1319
f 1319 1303 1314
f 1319 1320 1318
f 1317 1318 1316
f 1303 1310 1316
f 1322 1323 1313
f 1323 1303 1313
f 1313 1303 1322
f 1310 1325 1324
f 1323 1304 1303
f 1303 1319 1322
f 1324 1317 1310
f 1310 1308 1325
f 1308 1304 1325
f 1325 1304 1306
f 1323 1306 1304
f 1306 1323 1325
f 1324 1319 1317
f 1324 1322 1321
f 1321 1319 1324
f 1319 1321 1322
f 1326 1327 1312
f 1327 1302 1312
f 1312 1302 1326
f 1309 1302 1327
f 1325 1305 1307
f 1325 1323 1305
f 1327 1325 1309
f 1323 1326 1302
f 1323 1302 1305
f 1307 1309 1325
f 1322 1324 1320
f 1318 1320 1324
f 1327 1314 1316
f 1327 1326 1315
f 1324 1327 1316
f 1315 1314 1327
f 1326 1322 1314
f 1324 1316 1318
f 1320 1314 1322
f 1314 1315 1326
f 1327 1324 1325
f 1323 1322 1326
f 1328 1329 1330
f 1333 1331 1330
f 1335 1333 1334
f 1335 1336 1329
f 1328 1329 1337
f 1328 1338 1337
f 1329 1328 1335
f 1334 1336 1335
f 1330 1334 1333
f 1330 1331 1328
f 1340 1329 1337
f 1340 1341 1337
f 1342 1340 1329
f 1342 1336 1343
f 1344 1343 1345
f 1340 1346 1345
f 1345 1329 1340
f 1345 1346 1344
f 1343 1344 1342
f 1329 1336 1342
f 1348 1349 1339
f 1349 1329 1339
f 1339 1329 1348
f 1336 1351 1350
f 1349 1330 1329
f 1329 1345 1348
f 1350 1343 1336
f 1336 1334 1351
f 1334 1330 1351
f 1351 1330 1332
f 1349 1332 1330
f 1332 1349 1351
f 1350 1345 1343
f 1350 1348 1347
f 1347 1345 1350
f 1345 1347 1348
f 1352 1353 1338
f 1353 1328 1338
f 1338 1328 1352
f 1335 1328 1353
f 1351 1331 1333
f 1351 1349 1331
f 1353 1351 1335
f 1349 1352 1328
f 1349 1328 1331
f 1333 1335 1351
f 1348 1350 1346
f 1344 1346 1350
f 1353 1340 1342
f 1353 1352 1341
f 1350 1353 1342
f 1341 1340 1353
f 1352 1348 1340
f 1350 1342 1344
f 1346 1340 1348
f 1340 1341 1352
f 1353 1350 1351
f 1349 1348 1352
f 1354 1355 1356
f 1359 1357 1356
f 1361 1359 1360
f 1361 1362 1355
f 1354 1355 1363
f 1354 1364 1363
f 1355 1354 1361
f 1360 1362 1361
f 1356 1360 1359
f 1356 1357 1354
f 1366 1355 1363
f 1366 1367 1363
f 1368 1366 1355
f 1368 1362 1369
f 1370 1369 1371
f 1366 1372 1371
f 1371 1355 1366
f 1371 1372 1370
f 1369 1370 1368
f 1355 1362 1368
f 1374 1375 1365
f 1375 1355 1365
f 1365 1355 1374
f 1362 1377 1376
f 1375 1356 1355
f 1355 1371 1374
f 1376 1369 1362
f 1362 1360 1377
f 1360 1356 1377
f 1377 1356 1358
f 1375 1358 1356
f 1358 1375 1377
f 1376 1371 1369
f 1376 1374 1373
f 1373 1371 1376
f 1371 1373 1374
f 1378 1379 1364
f 1379 1354 1364
f 1364 1354 1378
f 1361 1354 1379
f 1377 1357 1359
f 1377 1375 1357
f 1379 1377 1361
f 1375 1378 1354
f 1375 1354 1357
f 1359 1361 1377
f 1374 1376 1372
f 1370 1372 1376
f 1379 1366 1368
f 1379 1378 1367
f 1376 1379 1368
f 1367 1366 1379
f 1378 1374 1366
f 1376 1368 1370
f 1372 1366 1374
f 1366 1367 1378
f 1379 1376 1377
f 1375 1374 1378

