# https://github.com/mikedh/trimesh
v -0.01050025 0.08550098 -0.00674958
v 0.01350031 0.08550095 0.00749948
v 0.00749960 0.08550100 -0.01050028
v 0.00599966 0.08550099 -0.00900022
v 0.00749954 0.08550100 -0.01200028
v 0.00300051 0.08550094 0.01274989
v 0.00450037 0.08550095 0.00899984
v -0.00600000 0.08550097 -0.00037475
v -0.01424969 0.08550094 0.00750057
v -0.01567407 0.08550097 -0.00190907
v -0.00400050 0.08550100 -0.01299983
v -0.00562531 0.08550099 -0.00824977
v 0.01169988 0.08550098 -0.00330045
v -0.01164663 0.08550094 0.01054459
v -0.00449952 0.08550093 0.01200019
v -0.00749952 0.08550093 0.01200031
v 0.00299981 0.08550098 -0.00525011
v -0.00018781 0.08550099 -0.00824998
v -0.00300016 0.08550098 -0.00449987
v -0.00487513 0.08550098 -0.00359980
v -0.00524987 0.08550096 0.00300022
v -0.00449981 0.08775095 0.00450019
v 0.00037525 0.08550095 0.00600000
v -0.00299978 0.08550095 0.00525013
v 0.00300022 0.08550096 0.00524989
v 0.00549988 0.08700098 -0.00350020
v 0.00525013 0.08550096 0.00299981
v -0.00924985 0.08550095 0.00350037
v 0.01200030 0.09000095 0.00749955
v 0.00825034 0.08550095 0.00824969
v 0.00900019 0.08827019 0.00449967
v 0.01145466 0.08550097 0.00269956
v -0.00150040 0.08550099 -0.01049993
v 0.00269955 0.08550100 -0.01181259
v 0.01349972 0.08550099 -0.00750052
v 0.01778591 0.08650096 0.00471360
v 0.01560036 0.08550095 0.00877440
v 0.00775783 0.08550093 0.01709971
v 0.00150072 0.08550092 0.01799995
v 0.00150060 0.08550093 0.01499995
v -0.00149928 0.08550092 0.01800007
v -0.00283574 0.08550093 0.01565467
v -0.00895989 0.08550092 0.01598720
v -0.01551293 0.08550095 0.00556641
v -0.01349993 0.08550096 0.00150054
v -0.01050016 0.08550098 -0.00449958
v -0.01575034 0.08550098 -0.00899937
v -0.00900057 0.08550100 -0.01499964
v -0.00777336 0.08550101 -0.01636332
v -0.00018810 0.08550101 -0.01574998
v 0.00516600 0.08550102 -0.01733352
v 0.01242804 0.08550101 -0.01392905
v 0.01692837 0.08550099 -0.00557208
v 0.01574966 0.08775100 -0.00900060
v 0.01575002 0.08550097 0.00018689
v -0.01050034 0.09000099 -0.00899957
v -0.01050017 0.09000098 -0.00449957
v -0.00831792 0.09000095 0.00637535
v -0.00862530 0.09000098 -0.00787464
v -0.00524987 0.09000096 0.00300023
v 0.00037525 0.09000095 0.00600001
v 0.00749960 0.09000100 -0.01050027
v 0.00449954 0.09000100 -0.01200015
v 0.00374973 0.09000099 -0.00712512
v 0.00825033 0.09000095 0.00824970
v 0.00450036 0.09000095 0.00899985
v 0.01170010 0.09000097 0.00224957
v -0.00750034 0.09000099 -0.00899968
v -0.00812743 0.09000100 -0.01459667
v -0.00300019 0.09000098 -0.00524986
v -0.00600046 0.08727731 -0.01199975
v 0.01349979 0.08775099 -0.00562551
v 0.00859995 0.09000098 -0.00150031
v -0.00749952 0.09000093 0.01200032
v -0.00449952 0.09000093 0.01200020
v -0.00449964 0.08694094 0.00900019
v 0.00300022 0.09000096 0.00524991
v 0.00450019 0.08775096 0.00449984
v 0.00525013 0.09000096 0.00299982
v -0.00299978 0.09000095 0.00525014
v -0.00567869 0.09000097 -0.00337475
v 0.00037478 0.09000098 -0.00599999
v -0.00107196 0.09000100 -0.01396868
v 0.00149960 0.09000100 -0.01050004
v 0.01049973 0.08807242 -0.00722767
v 0.01199978 0.09000099 -0.00600045
v 0.01499960 0.09000100 -0.01050056
v 0.00839936 0.09000101 -0.01650031
v 0.00449931 0.09000102 -0.01800015
v -0.00711692 0.09000101 -0.01663923
v -0.01050058 0.08646529 -0.01499957
v -0.01500040 0.08775099 -0.01049939
v -0.01775018 0.09000097 -0.00474928
v -0.01575034 0.09000098 -0.00899936
v -0.01524849 0.08754643 -0.00677579
v -0.01153841 0.09000096 0.00095502
v -0.01656196 0.09000095 0.00252481
v -0.01799996 0.09000096 0.00075073
v -0.01424970 0.09000094 0.00750058
v -0.01394953 0.09000093 0.01185057
v -0.00788168 0.09000092 0.01685327
v 0.00150072 0.09000092 0.01799996
v 0.00450052 0.09000094 0.01312485
v -0.00149943 0.09000093 0.01433342
v 0.00450072 0.09000092 0.01799985
v 0.00800066 0.09000093 0.01649971
v 0.01500042 0.09000095 0.01036307
v 0.01650028 0.09000096 0.00674938
v 0.01800008 0.09000097 0.00187432
v 0.01724981 0.09000099 -0.00525065
v 0.01366119 0.09206518 0.01031132
v 0.01368078 0.09300068 0.00624607
v 0.01372109 0.09000067 0.00812603
v 0.01068404 0.09142337 0.00560262
v 0.01053541 0.09300068 0.00746435
v 0.01125207 0.09300067 0.00851061
v -0.00219080 0.09300184 -0.21382345
v -0.00067002 0.09300180 -0.20660109
v -0.00659428 0.09300181 -0.20834803
v 0.01149223 0.09300181 -0.20802892
v -0.01267544 0.09300179 -0.20649419
v 0.00965284 0.09300174 -0.19526690
v 0.00001701 0.09281423 -0.19424815
v -0.00528268 0.09300176 -0.19961978
v -0.00726292 0.09300171 -0.19042062
v 0.02407062 0.09300154 -0.15630763
v 0.01492264 0.09300148 -0.14435618
v 0.01791868 0.09300124 -0.09851959
v 0.00858533 0.09300142 -0.13344126
v 0.00777382 0.09300124 -0.09946929
v 0.00795316 0.09300113 -0.07976518
v 0.02061152 0.09300109 -0.06955009
v 0.01453482 0.09300076 -0.00733300
v -0.00231975 0.09300088 -0.03227716
v -0.00443371 0.09300077 -0.01210622
v 0.00534636 0.09300069 0.00437890
v 0.01039241 0.09300075 -0.00600037
v 0.01722400 0.09300069 0.00598566
v 0.00971948 0.09300071 0.00081441
v 0.01438960 0.09300072 -0.00085386
v -0.00961040 0.09300071 -0.00085283
v 0.00516497 0.09300067 0.00839628
v -0.00332598 0.09300068 0.00518254
v 0.01252477 0.09300124 -0.09940864
v 0.01694986 0.09183444 -0.07332454
v 0.02105506 0.09300136 -0.12234283
v 0.02060474 0.09300126 -0.10193094
v 0.01427455 0.09300099 -0.05220042
v 0.01453179 0.09300113 -0.07806571
v 0.00819428 0.09300099 -0.05236925
v -0.00067425 0.09300098 -0.05129188
v 0.00223371 0.09265834 -0.10039147
v -0.00270590 0.09300172 -0.19225977
v -0.00352865 0.09300178 -0.20361670
v 0.00640991 0.09300177 -0.20046807
v 0.00755621 0.09300177 -0.20107547
v 0.00849121 0.09300178 -0.20172526
v 0.00646027 0.09300181 -0.20777361
v 0.00229982 0.09300181 -0.20809605
v -0.00689561 0.09300176 -0.19950304
v 0.00854046 0.09300183 -0.21118069
v -0.00229325 0.09300184 -0.21381218
v -0.00250620 0.09300184 -0.21376492
v -0.01105224 0.09300176 -0.20012882
v -0.00940365 0.09300177 -0.20150183
v -0.01265289 0.09104113 -0.20028566
v 0.00258134 0.09300162 -0.17284507
v 0.00319689 0.09300173 -0.19319849
v 0.00626274 0.09300157 -0.16333092
v 0.00648633 0.09300173 -0.19283301
v 0.01044100 0.09300148 -0.14467699
v 0.01219781 0.09111258 -0.14274260
v 0.00645477 0.09300125 -0.10208213
v 0.00569686 0.09300114 -0.08136217
v -0.00958354 0.09238986 -0.04282099
v -0.01779655 0.09300069 0.00317743
v -0.01458418 0.09300070 0.00082305
v -0.00912605 0.09300065 0.01045861
v 0.00469748 0.09214088 0.01431729
v 0.00000088 0.09300065 0.01200007
v 0.01742053 0.09300088 -0.03043474
v 0.02263923 0.09300097 -0.04821463
v 0.02728602 0.09300126 -0.09734868
v 0.01217962 0.09183511 -0.20153513
v 0.00902090 0.09300176 -0.19842399
v 0.00405716 0.09229536 -0.10088128
v -0.00467850 0.09300099 -0.05332366
v -0.00440537 0.09300097 -0.04910871
v -0.00591936 0.09235812 -0.05181101
v 0.02508853 0.09300148 -0.14466359
v 0.02680829 0.09300148 -0.14317168
v 0.03072717 0.09150152 -0.15025157
v 0.02942115 0.09300149 -0.14549024
v 0.02291464 0.09300123 -0.09581141
v 0.02228075 0.09300124 -0.09928402
v 0.02177274 0.09300123 -0.09742734
v 0.02523532 0.09300124 -0.09803591
v 0.01875435 0.09300096 -0.04598298
v 0.01814944 0.09300098 -0.04968190
v 0.02005867 0.09300098 -0.04882066
v -0.00652771 0.09300074 -0.00628489
v -0.00869277 0.09300075 -0.00851110
v -0.01763195 0.09184072 -0.00361953
v -0.01276710 0.09300074 -0.00582777
v 0.00797666 0.09300076 -0.00945942
v 0.00451037 0.09300076 -0.00857352
v 0.00681300 0.09300076 -0.00844003
v 0.00590073 0.09300078 -0.01308904
v -0.00694077 0.09300077 -0.01231709
v -0.00655864 0.09300071 -0.00093932
v -0.00329027 0.09202659 0.01793230
v -0.00352944 0.09300065 0.01144673
v 0.00814252 0.09300067 0.00926438
v -0.01390971 0.09300066 0.00848541
v -0.01061877 0.09300066 0.00776554
v -0.01112281 0.09300068 0.00524953
v -0.00152423 0.09300078 -0.01266973
v 0.01041413 0.09300095 -0.04535593
v -0.00405739 0.09300088 -0.03233922
v -0.00218302 0.09300088 -0.03234664
v -0.00157304 0.09300096 -0.04707404
v 0.00462541 0.09300089 -0.03439208
v 0.01359314 0.09300092 -0.03785911
v 0.01274907 0.09300083 -0.02074049
v 0.00807487 0.09150083 -0.02106899
v -0.00136596 0.09300079 -0.01492583
v -0.00177230 0.09300083 -0.02369445
v 0.00071391 0.09275764 -0.03217254
v -0.00035500 0.09300079 -0.01561133
v -0.00017870 0.09300079 -0.01564025
v -0.00093990 0.09300083 -0.02241277
v -0.00121062 0.09300079 -0.01512453
v -0.00150621 0.09300083 -0.02282619
v 0.00199166 0.09300079 -0.01448348
v -0.00065708 0.09300083 -0.02230238
v -0.00175710 0.09300083 -0.02353489
v -0.00071608 0.09300079 -0.01549340
v -0.00099883 0.09300079 -0.01531344
v 0.00122735 0.09000067 0.00821058
v -0.01047251 0.09000067 0.00675741
v 0.01168513 0.09000074 -0.00458540
v 0.00809178 0.09000068 0.00553986
v 0.00983080 0.09000072 -0.00152924
v 0.00878618 0.09000075 -0.00775813
v 0.00193042 0.09221127 -0.00640453
v -0.00791463 0.09000077 -0.01162557
v -0.00411369 0.09000088 -0.03235285
v -0.00227799 0.09000098 -0.05128699
v 0.02104609 0.09000099 -0.05062824
v 0.02017696 0.09000119 -0.08847197
v 0.02104447 0.09000119 -0.08847201
v 0.00773906 0.09000124 -0.09945485
v 0.00819222 0.09000124 -0.10033009
v 0.01996958 0.09000136 -0.12196928
v 0.02217285 0.09000171 -0.18775341
v 0.00818930 0.09000160 -0.16847659
v 0.01922367 0.09000174 -0.19446317
v 0.00800820 0.09000174 -0.19526684
v -0.01381497 0.09000175 -0.19748417
v 0.00090536 0.09000179 -0.20535250
v 0.01146146 0.09000181 -0.20806977
v -0.00229325 0.09000184 -0.21381219
v -0.00268789 0.09000180 -0.20726107
v -0.00695001 0.09000181 -0.20860942
v 0.01424565 0.09000099 -0.05224363
v 0.01614703 0.09000124 -0.09869593
v 0.00930970 0.09000096 -0.04614461
v -0.00249660 0.09000094 -0.04303789
v -0.00232029 0.09000088 -0.03227850
v 0.02145313 0.09000125 -0.10066353
v 0.02197773 0.09000136 -0.12145594
v 0.00795316 0.09000113 -0.07976520
v 0.00634067 0.09000114 -0.08126280
v 0.01052450 0.09225122 -0.09527920
v -0.00206050 0.09000174 -0.19511317
v 0.00244047 0.09000173 -0.19371908
v 0.00728306 0.09000177 -0.20068143
v 0.00885140 0.09000176 -0.19820134
v 0.00545396 0.09000177 -0.19990245
v 0.00337714 0.09000180 -0.20644853
v 0.00642375 0.09000181 -0.20748757
v -0.00814307 0.09000177 -0.20138529
v -0.00680173 0.09000176 -0.19905204
v -0.01061500 0.09000181 -0.20914642
v -0.00653870 0.09246183 -0.21253744
v 0.00146496 0.09000184 -0.21403252
v -0.00219079 0.09000184 -0.21382346
v 0.00452601 0.09064699 -0.21152973
v 0.01075720 0.09000177 -0.20059396
v 0.00889423 0.09000178 -0.20187066
v 0.02933177 0.09000148 -0.14347154
v 0.02277755 0.09000098 -0.04967389
v 0.02728542 0.09000124 -0.09734717
v 0.02027367 0.09000084 -0.02313466
v 0.01558137 0.09000071 0.00185575
v 0.01600354 0.09000067 0.00833043
v -0.00097672 0.09000063 0.01455364
v 0.00264391 0.09000065 0.01233581
v -0.00225377 0.09000065 0.01129315
v -0.01188166 0.09000063 0.01398579
v -0.01059055 0.09000072 -0.00224858
v -0.01378600 0.09000068 0.00376989
v -0.01088843 0.09000070 0.00192364
v -0.01341149 0.09000073 -0.00477010
v 0.00129272 0.09000098 -0.05082161
v -0.00218501 0.09000112 -0.07886710
v 0.01077706 0.09000148 -0.14513707
v 0.01123974 0.09000126 -0.10297263
v 0.00852765 0.09000150 -0.14989010
v 0.01447078 0.09000148 -0.14526605
v 0.01370272 0.09000147 -0.14280731
v 0.00549389 0.09018341 -0.16605932
v 0.00319341 0.09226839 -0.19106771
v 0.00669110 0.09000173 -0.19235054
v 0.00075134 0.09110023 -0.17617346
v -0.00765689 0.09000172 -0.19137538
v -0.00247379 0.09000172 -0.19199958
v -0.00367296 0.09000173 -0.19363145
v 0.00458718 0.09000124 -0.09928538
v 0.00634557 0.09101736 -0.09839753
v 0.00401774 0.09000124 -0.10038876
v 0.00670468 0.09000125 -0.10195375
v -0.00524425 0.09000097 -0.04986938
v -0.00272579 0.09000097 -0.04962352
v -0.00238304 0.09000098 -0.05165203
v -0.00245806 0.09000098 -0.05181417
v -0.00250035 0.09000112 -0.07733098
v -0.00487397 0.09000099 -0.05309952
v 0.02876060 0.09000149 -0.14607710
v 0.02507371 0.09000149 -0.14500171
v 0.02432540 0.09241960 -0.18294614
v 0.02310654 0.09000123 -0.09592231
v 0.01751968 0.09000096 -0.04612023
v 0.01987697 0.09000098 -0.04958323
v -0.00927070 0.09000075 -0.00804883
v 0.00754728 0.09000078 -0.01255719
v 0.00429354 0.09000075 -0.00737411
v -0.00721475 0.09000075 -0.00776142
v -0.00424676 0.09000075 -0.00763839
v -0.00536149 0.09000077 -0.01254302
v -0.00360094 0.09000068 0.00607213
v -0.00506376 0.09000073 -0.00358984
v 0.00501406 0.09000069 0.00351002
v -0.00833319 0.09000066 0.00973924
v -0.00445241 0.09000064 0.01257856
v -0.00514762 0.09000066 0.00826787
v 0.00723975 0.09000065 0.01266856
v 0.00815511 0.09000066 0.01019860
v 0.00423432 0.09000066 0.00914829
v -0.01576504 0.09115450 0.00909504
v -0.01063755 0.09000066 0.00784844
v -0.01304674 0.09000066 0.00871039
v 0.00119921 0.09000078 -0.01247448
v -0.00338212 0.09000077 -0.01186735
v -0.00087323 0.09000078 -0.01259254
v 0.00076555 0.09000087 -0.03032946
v 0.01073792 0.09000096 -0.04675114
v -0.00218302 0.09000088 -0.03234665
v -0.00136596 0.09000079 -0.01492584
v -0.00177229 0.09000083 -0.02369446
v -0.00173515 0.09000078 -0.01393407
v -0.00017870 0.09000079 -0.01564026
v 0.00047539 0.09000081 -0.01829524
v -0.00175710 0.09000083 -0.02353491
v -0.00067627 0.09000079 -0.01552588
v -0.00113499 0.09000079 -0.01519779
v -0.00125785 0.09000079 -0.01506808
v 0.01278745 0.09000083 -0.02077082
v 0.01458238 0.09000091 -0.03668079
v 0.01358042 0.09000092 -0.03791213
v -0.00084367 0.10600983 -0.19532913
v -0.00447881 0.10405665 -0.20220283
v 0.00257482 0.10583742 -0.20288866
v 0.00462093 0.10408871 -0.19737256
v 0.00036305 0.10350171 -0.19060963
v 0.00449098 0.10350176 -0.19832067
v 0.00064225 0.10350179 -0.20475784
v 0.00514149 0.10350178 -0.20307875
v -0.00869893 0.10425179 -0.20485272
v -0.00626317 0.10350170 -0.18926935
v 0.01248768 0.10350179 -0.20431548
v -0.00063161 0.10350183 -0.21273451
v 0.00180543 0.10581133 -0.21417585
v -0.00672376 0.10350182 -0.21090695
v -0.00952442 0.10350177 -0.20130077
v -0.01242115 0.10350176 -0.19956884
v 0.01240464 0.09300177 -0.20043074
v 0.01392448 0.09300175 -0.19649365
v 0.00813693 0.09888171 -0.18929965
v -0.00532333 0.09583953 -0.18702603
v 0.00589510 0.09791660 -0.18900193
v 0.00384048 0.09825173 -0.19356261
v 0.00950791 0.09300176 -0.19869881
v 0.01195676 0.09300178 -0.20191061
v 0.01274741 0.09300179 -0.20453431
v 0.00594351 0.09805737 -0.20958944
v 0.00283225 0.09300180 -0.20694111
v -0.00649496 0.09251345 -0.21117390
v -0.00336644 0.09825172 -0.19100131
v -0.00034707 0.09300171 -0.18887436
v -0.01271005 0.10650172 -0.19298800
v -0.01531788 0.10650175 -0.19783689
v -0.01412946 0.10565992 -0.20246021
v 0.00477358 0.10650184 -0.21465547
v 0.00722786 0.10650183 -0.21162521
v -0.01022167 0.10378474 -0.19261421
v 0.01234841 0.10650180 -0.20564003
v 0.01508252 0.09825180 -0.20618248
v 0.00817782 0.09150183 -0.21188485
v -0.00719142 0.09000183 -0.21274476
v -0.01349984 0.09183226 -0.19777769
v -0.01509393 0.09000174 -0.19709704
v -0.01159517 0.09000172 -0.19307211
v -0.01121458 0.09200171 -0.19088879
v -0.01385594 0.09000180 -0.20744936
v 0.00449099 0.09300176 -0.19832072
v 0.00064225 0.09300179 -0.20475790
v -0.00598736 0.09300177 -0.20123102
v -0.00065875 0.09300174 -0.19524173
v 0.00961564 0.09825175 -0.19559556
v -0.00304810 0.09199051 -0.19688518
v 0.00380466 0.09105932 -0.20201690
v -0.00366809 0.09060118 -0.20227085
v 0.00341399 0.09140358 -0.19690671
v -0.00000825 0.09000176 -0.19999983
v -0.01891236 0.10095168 -0.18533628
v -0.02112491 0.10500168 -0.18562662
v 0.02264789 0.10500184 -0.21179801
v 0.02200418 0.09000183 -0.21141322
v 0.02148827 0.10620183 -0.21050680
v -0.02508553 0.10587981 -0.20164514
v -0.02340700 0.09000179 -0.20698184
v -0.02146907 0.10500182 -0.21250959
v -0.01572608 0.10590883 -0.21865302
v -0.02011813 0.09150184 -0.21514501
v 0.00080221 0.10500190 -0.22495157
v 0.01090303 0.09050189 -0.22315834
v 0.01630281 0.10500187 -0.21869161
v 0.01969494 0.09000185 -0.21527553
v 0.02110840 0.10500185 -0.21437289
v 0.01866635 0.09000185 -0.21553437
v 0.01198390 0.09000187 -0.21940346
v 0.00774533 0.09000189 -0.22236476
v 0.00110773 0.09000189 -0.22430304
v -0.02054420 0.09000169 -0.18684773
v -0.02497996 0.09009751 -0.20295861
v -0.00254240 0.09000189 -0.22469959
v -0.01876138 0.09000184 -0.21675006
v -0.01100526 0.09000187 -0.22095047
v -0.02283244 0.09000170 -0.19043131
v -0.00585443 0.09041099 -0.22512765
v -0.02131325 0.09000181 -0.20977573
v 0.02136046 0.10650183 -0.21102826
v -0.00610160 0.10628760 -0.22431915
v -0.02120059 0.10640807 -0.21200612
v 0.01434464 0.10650186 -0.21764721
v 0.01924026 0.10650184 -0.21238210
v -0.00434584 0.10650188 -0.22296588
v -0.01071491 0.10650187 -0.22156089
v -0.02355339 0.10650173 -0.19553444
v -0.02022235 0.10650169 -0.18704008
v 0.00548870 0.10632975 -0.22223151
v -0.00006505 0.10620189 -0.22404940
v -0.00371060 0.10650186 -0.21788424
v -0.00280804 0.10650186 -0.21929770
v 0.00059959 0.10650186 -0.21871361
v 0.00753749 0.10650184 -0.21368650
v 0.00876530 0.10650186 -0.21747901
v 0.01065033 0.10615573 -0.22156374
v 0.01113039 0.10650186 -0.21644635
v -0.00535649 0.10650184 -0.21406023
v -0.00744009 0.10650186 -0.21827590
v -0.01091074 0.09825186 -0.21969619
v -0.00265856 0.10650185 -0.21593343
v -0.01678418 0.10650179 -0.20613542
v -0.02167734 0.10650180 -0.20823723
v -0.01726900 0.10650177 -0.20309197
v -0.01827084 0.10650176 -0.20131432
v -0.02395633 0.10630176 -0.20079352
v -0.01118788 0.10650185 -0.21723664
v -0.01130240 0.10650184 -0.21596666
v -0.01220496 0.10650184 -0.21455319
v -0.01095135 0.10650182 -0.21082764
v -0.01640626 0.10650180 -0.20834944
v -0.01343956 0.10650179 -0.20638748
v -0.01602317 0.10650182 -0.21153819
v -0.01578674 0.10650184 -0.21475785
v 0.01135641 0.10650182 -0.20876070
v 0.01055686 0.10650183 -0.21155952
v 0.01480404 0.09825184 -0.21322509
v 0.01699403 0.10650185 -0.21540825
v 0.01770077 0.10650185 -0.21495697
v 0.01853353 0.10650184 -0.21283338
v 0.01682422 0.10650182 -0.20924721
v -0.02317191 0.10650172 -0.19270411
v -0.01807328 0.10650175 -0.19968478
v -0.02007596 0.10650175 -0.19848739
v -0.01930621 0.10650174 -0.19719996
v -0.01159517 0.10650172 -0.19307202
v -0.01680793 0.10650171 -0.19082919
v -0.01855004 0.10650169 -0.18716611
v -0.01435161 0.10650173 -0.19483441
v -0.01699697 0.10650172 -0.19333765
v -0.02096634 0.10650172 -0.19295245
v -0.00744009 0.09000186 -0.21827598
v 0.00426343 0.09000186 -0.21745750
v -0.00524670 0.09000188 -0.22264580
v -0.00280803 0.09000186 -0.21929779
v 0.01151565 0.09000181 -0.20776371
v 0.00153973 0.09000186 -0.21743615
v -0.01855003 0.09000169 -0.18716619
v -0.01764408 0.09000171 -0.19076626
v -0.01827083 0.09000176 -0.20131441
v -0.01643922 0.09000184 -0.21485553
v 0.01699404 0.09000185 -0.21540834
v 0.01712007 0.09000184 -0.21373603
v -0.00834265 0.09000185 -0.21686252
v -0.00075085 0.09000186 -0.21878010
v 0.00178931 0.09092414 -0.21460842
v 0.01055686 0.09000183 -0.21155961
v 0.00502903 0.09000184 -0.21349755
v 0.01420032 0.09000186 -0.21788869
v 0.01125918 0.09000185 -0.21619993
v 0.00876531 0.09000186 -0.21747909
v -0.00588897 0.09000186 -0.21932180
v -0.00484702 0.09000184 -0.21453856
v -0.00332572 0.09000185 -0.21724061
v -0.01708345 0.09000181 -0.20919372
v -0.01839007 0.09000180 -0.20735993
v -0.01847914 0.09000178 -0.20403294
v -0.00924521 0.09000184 -0.21544906
v -0.01108178 0.09000184 -0.21516870
v -0.01028059 0.09000182 -0.21133469
v -0.01376148 0.09000185 -0.21799180
v -0.01258983 0.09000184 -0.21519700
v -0.01211393 0.09000181 -0.21058918
v 0.02161260 0.09000183 -0.20997463
v 0.01627146 0.09000182 -0.20925472
v 0.01865956 0.09000183 -0.21116116
v 0.01853353 0.09000184 -0.21283347
v 0.01595866 0.09825183 -0.21129393
v -0.01673560 0.09000176 -0.20013512
v -0.02007595 0.09000175 -0.19848748
v -0.01930621 0.09000174 -0.19720005
v -0.02329794 0.09000172 -0.19437651
v -0.01975603 0.09000172 -0.19323633
v -0.01764068 0.09000172 -0.19295287
v 0.00799556 0.09000187 -0.21876653
v -0.01088262 0.09000185 -0.21709155
v -0.01436757 0.09825170 -0.18857452
v 0.01039255 0.08150096 0.00599959
v 0.01110289 0.08150095 0.00732074
v 0.00978174 0.08150095 0.00803107
v 0.00907141 0.08150095 0.00670993
v 0.00836107 0.08150096 0.00538879
v 0.00968221 0.08150096 0.00467845
v 0.01100336 0.08150096 0.00396811
v 0.01171369 0.08150096 0.00528926
v 0.01242403 0.08150096 0.00661040
v 0.00968220 0.10100096 0.00467850
v 0.00836106 0.10100096 0.00538884
v 0.00907140 0.10100095 0.00670998
v 0.00978173 0.10100095 0.00803113
v 0.01110288 0.10100095 0.00732079
v 0.01242402 0.10100096 0.00661045
v 0.01171369 0.10100096 0.00528931
v 0.01100335 0.10100096 0.00396816
v 0.01039254 0.10100096 0.00599965
v -0.00000045 0.08150100 -0.01200000
v -0.00023972 0.08150100 -0.01051920
v -0.00172051 0.08150099 -0.01075847
v -0.00148125 0.08150100 -0.01223927
v -0.00124198 0.08150100 -0.01372006
v 0.00023882 0.08150100 -0.01348079
v 0.00171961 0.08150100 -0.01324152
v 0.00148034 0.08150100 -0.01176073
v 0.00124107 0.08150100 -0.01027994
v 0.00023880 0.10100100 -0.01348074
v -0.00124199 0.10100100 -0.01372001
v -0.00148126 0.10100100 -0.01223922
v -0.00172053 0.10100099 -0.01075842
v -0.00023974 0.10100100 -0.01051915
v 0.00124106 0.10100100 -0.01027988
v 0.00148033 0.10100100 -0.01176068
v 0.00171960 0.10100100 -0.01324147
v -0.00000047 0.10100100 -0.01199995
v -0.01039205 0.08150095 0.00600041
v -0.00968171 0.08150094 0.00732155
v -0.01100286 0.08150094 0.00803189
v -0.01171319 0.08150095 0.00671074
v -0.01242353 0.08150095 0.00538960
v -0.01110239 0.08150095 0.00467926
v -0.00978124 0.08150095 0.00396893
v -0.00907091 0.08150095 0.00529007
v -0.00836057 0.08150095 0.00661122
v -0.01110240 0.10100095 0.00467931
v -0.01242354 0.10100095 0.00538965
v -0.01171320 0.10100095 0.00671080
v -0.01100287 0.10100094 0.00803194
v -0.00968172 0.10100094 0.00732160
v -0.00836058 0.10100095 0.00661127
v -0.00907091 0.10100095 0.00529012
v -0.00978125 0.10100095 0.00396898
v -0.01039206 0.10100095 0.00600046
v 0.00616613 0.09800104 -0.01260023
v 0.00299958 0.09800102 -0.01000010
v 0.00659964 0.09800102 -0.00862525
v 0.00831777 0.09800102 -0.00985747
v 0.00487466 0.09759192 -0.00816685
v 0.00599968 0.10250101 -0.00750020
v 0.00749951 0.10250103 -0.01150026
v 0.00449949 0.10250103 -0.01200014
v 0.00514248 0.10250102 -0.00900016
v 0.00449944 0.09350104 -0.01325018
v 0.00749947 0.09350104 -0.01250031
v 0.00899950 0.09350104 -0.01200038
v 0.00799962 0.09350102 -0.00900033
v 0.00749969 0.09350101 -0.00750031
v 0.00599969 0.09350101 -0.00750025
v 0.00374966 0.09350101 -0.00825015
v 0.00299950 0.09350103 -0.01200012
v 0.00899952 0.10250103 -0.01125033
v 0.00637443 0.10250104 -0.01350022
v 0.01949371 0.10250175 -0.14700078
v 0.01199564 0.10250151 -0.10200046
v 0.01649801 0.10250122 -0.04650065
v 0.01349782 0.10250124 -0.05100052
v 0.01199808 0.10250121 -0.04500046
v 0.01556204 0.10250103 -0.01087561
v 0.00149941 0.10250104 -0.01400001
v -0.00100057 0.10250104 -0.01333323
v -0.00000070 0.10250105 -0.01649994
v -0.00900056 0.10250103 -0.01312456
v 0.00337463 0.10250102 -0.00881259
v 0.01650029 0.10250094 0.00674935
v 0.01500001 0.10250097 -0.00000059
v 0.01350007 0.10250097 0.00149948
v 0.01406229 0.10250100 -0.00506305
v 0.00899991 0.10250098 -0.00225033
v 0.00937509 0.10250096 0.00187465
v 0.01349994 0.10250098 -0.00150052
v 0.01124988 0.10250099 -0.00300043
v -0.00749987 0.10250095 0.00300038
v 0.01050039 0.10250093 0.00899961
v 0.01499384 0.10250173 -0.14400059
v 0.02549397 0.10250172 -0.14100104
v 0.02099557 0.10250152 -0.10350084
v 0.02249398 0.10250172 -0.14075091
v 0.02099572 0.10250150 -0.10012584
v 0.01949564 0.10250151 -0.10200078
v 0.00899554 0.10250152 -0.10425033
v 0.01049557 0.10250152 -0.10350039
v 0.00899591 0.10250148 -0.09550033
v 0.02099644 0.10250142 -0.08325084
v 0.02099602 0.10250147 -0.09300084
v 0.01799589 0.10250148 -0.09600071
v 0.02099782 0.10250125 -0.05100084
v 0.00899776 0.10250125 -0.05250033
v 0.01499808 0.10250121 -0.04500059
v 0.01199900 0.10250110 -0.02350046
v 0.01382843 0.10250110 -0.02412351
v 0.01049904 0.10250109 -0.02250039
v 0.00074912 0.10250108 -0.02062498
v -0.00600211 0.10250123 -0.04949969
v -0.00544434 0.10250110 -0.02466482
v -0.00112699 0.10250121 -0.04649990
v -0.00000205 0.10250122 -0.04799994
v -0.00300192 0.10250120 -0.04499982
v -0.00600032 0.10250100 -0.00749969
v -0.00900019 0.10250099 -0.00449956
v 0.01199968 0.10250101 -0.00750046
v 0.00637484 0.10250099 -0.00375022
v 0.00899968 0.10250101 -0.00750033
v 0.00749596 0.10250147 -0.09450026
v -0.00300211 0.10250123 -0.04949982
v -0.00600224 0.10250124 -0.05249969
v 0.02608538 0.10250174 -0.14419120
v 0.02249576 0.10250150 -0.09900091
v 0.02399679 0.10250137 -0.07500097
v 0.02313876 0.10250148 -0.09578665
v 0.02569314 0.10250150 -0.09888262
v 0.00575039 0.10250092 0.00899981
v 0.00600033 0.10250093 0.00749980
v -0.00849969 0.10250093 0.00700042
v -0.00599967 0.10250093 0.00750031
v -0.00449961 0.10250092 0.00900025
v -0.00843760 0.10250098 -0.00243708
v -0.00300041 0.10250102 -0.00974982
v -0.00540038 0.10250101 -0.00899971
v -0.00750051 0.10250103 -0.01199962
v -0.00450051 0.10250103 -0.01199975
v 0.02699326 0.10250181 -0.15750110
v 0.02399326 0.10250181 -0.15750097
v 0.02699371 0.10250175 -0.14700110
v 0.01199332 0.10250180 -0.15600046
v 0.00963626 0.10250178 -0.15421464
v 0.00899358 0.10250176 -0.15000033
v 0.01199390 0.10250172 -0.14250046
v 0.01499377 0.10250174 -0.14550059
v 0.01049551 0.10250153 -0.10500039
v 0.00899429 0.10250168 -0.13350033
v 0.00786969 0.10250163 -0.12412528
v 0.00749566 0.10250151 -0.10150026
v 0.00299564 0.10250151 -0.10200007
v -0.00007534 0.10250125 -0.05367843
v -0.00000244 0.10250127 -0.05699994
v 0.00449572 0.10250150 -0.10000014
v -0.00300321 0.10250136 -0.07499982
v -0.00900186 0.10250119 -0.04349956
v -0.00900173 0.10250118 -0.04049956
v -0.01350083 0.10250106 -0.01949937
v -0.01650044 0.10250102 -0.01049924
v -0.01200032 0.10250100 -0.00749943
v -0.01050019 0.10250099 -0.00449949
v -0.01800006 0.10250097 -0.00149917
v -0.01735707 0.10250095 0.00150080
v -0.00974988 0.10250095 0.00262547
v -0.01350017 0.10250098 -0.00412437
v -0.01049961 0.10250092 0.00900051
v -0.00749942 0.10250089 0.01350038
v -0.00749929 0.10250088 0.01650038
v -0.00589027 0.10250089 0.01475485
v -0.00299942 0.10250090 0.01350018
v 0.00412565 0.10250089 0.01499988
v -0.00149931 0.10250088 0.01595467
v -0.00206213 0.10250092 0.00862514
v 0.00900071 0.10250088 0.01649967
v 0.00750052 0.10250091 0.01199973
v 0.00450052 0.10250091 0.01199986
v 0.01500046 0.10250092 0.01049941
v 0.01800007 0.10250097 0.00149929
v 0.01799988 0.10250099 -0.00300071
v 0.01799968 0.10250102 -0.00750071
v 0.01799956 0.10250103 -0.01050071
v 0.01949917 0.10250108 -0.01950078
v 0.02099846 0.10250117 -0.03600084
v 0.01908347 0.10250123 -0.04809945
v 0.02099795 0.10250123 -0.04800084
v 0.02249795 0.10250123 -0.04800091
v 0.02249782 0.10250125 -0.05100091
v 0.02399686 0.10250137 -0.07350097
v 0.02699570 0.10250151 -0.10050110
v 0.02737019 0.10250157 -0.11250112
v 0.02999435 0.10250168 -0.13200123
v 0.02849384 0.10250174 -0.14400116
v 0.02950414 0.10250176 -0.14716060
v 0.02924390 0.10250173 -0.14250120
v 0.00689977 0.10250100 -0.00557167
v 0.00575013 0.10250095 0.00299981
v 0.00360021 0.10250094 0.00487490
v 0.00150026 0.10250094 0.00599999
v 0.00000026 0.10250094 0.00600006
v -0.00149974 0.10250094 0.00600012
v -0.00374979 0.10250094 0.00475022
v -0.00599987 0.10250095 0.00300031
v -0.00360023 0.10250100 -0.00554979
v 0.01425039 0.10250093 0.00899945
v 0.01131844 0.10250094 0.00599957
v 0.01443769 0.10250095 0.00431194
v 0.01350026 0.10250094 0.00599948
v -0.01199961 0.10250092 0.00900057
v -0.01537464 0.10250092 0.00825071
v -0.01049967 0.10250092 0.00750051
v -0.01349974 0.10250093 0.00600063
v 0.01799564 0.10250151 -0.10200071
v 0.01041945 0.09350152 -0.10362926
v 0.01649564 0.09350151 -0.10200070
v 0.02099558 0.09350152 -0.10350089
v 0.01949564 0.09350151 -0.10200083
v 0.00899554 0.09350152 -0.10425038
v 0.01507121 0.10250172 -0.14099627
v 0.02249399 0.09350172 -0.14050095
v 0.02399403 0.09350171 -0.13950102
v 0.01504219 0.09350172 -0.14099828
v 0.01949391 0.09350173 -0.14250083
v 0.01587398 0.10250125 -0.05249415
v 0.01349782 0.09350124 -0.05100057
v 0.00299776 0.09350125 -0.05250012
v 0.00149770 0.09350125 -0.05400006
v -0.00000243 0.09350127 -0.05699999
v 0.01449776 0.09350125 -0.05250061
v 0.01878205 0.09350147 -0.09431384
v 0.01909892 0.10250147 -0.09447474
v 0.01799590 0.09350148 -0.09600076
v 0.01199590 0.09350148 -0.09600051
v 0.01799596 0.09350147 -0.09450076
v 0.02099606 0.09350146 -0.09225089
v 0.00899590 0.09350148 -0.09600038
v 0.00851313 0.09350147 -0.09456473
v 0.01499590 0.09350148 -0.09600063
v 0.01649590 0.09350148 -0.09600070
v -0.00300102 0.09350109 -0.02399986
v -0.00450106 0.09350110 -0.02499980
v -0.00300189 0.09350120 -0.04424986
v -0.00093705 0.09350121 -0.04651456
v -0.00000205 0.09350122 -0.04799999
v -0.00600108 0.09350110 -0.02549973
v 0.01049905 0.09350109 -0.02250044
v 0.01049802 0.09350122 -0.04650044
v 0.01365738 0.09350110 -0.02403996
v 0.01499808 0.09350121 -0.04500063
v 0.01199808 0.09350121 -0.04500051
v 0.01199902 0.09350109 -0.02300051
v 0.01800013 0.10250096 0.00299929
v 0.00209005 0.10250088 0.01773211
v -0.01321203 0.10250090 0.01256649
v -0.01799980 0.10250094 0.00450083
v -0.01800012 0.10250098 -0.00299917
v 0.00749461 0.10250164 -0.12600026
v 0.01800007 0.09350097 0.00149924
v 0.01800014 0.09350096 0.00299924
v 0.01575036 0.09350093 0.00824933
v 0.01500046 0.09350092 0.01049937
v 0.01350052 0.09350091 0.01199943
v 0.01200059 0.09350090 0.01349949
v 0.01050065 0.09350089 0.01499956
v 0.00742315 0.09350088 0.01699107
v 0.00300078 0.09350087 0.01799988
v 0.00075078 0.09350087 0.01799998
v -0.00449922 0.09350087 0.01800020
v -0.00599928 0.09350088 0.01650027
v -0.01049935 0.09350088 0.01500046
v -0.01349952 0.09350090 0.01100059
v -0.01499961 0.09350091 0.00900065
v -0.01743726 0.09350093 0.00543826
v -0.01800012 0.09350098 -0.00299922
v 0.00749461 0.09350164 -0.12600031
v -0.01649980 0.09350094 0.00450072
v 0.01575020 0.09350095 0.00449933
v 0.01650014 0.09350096 0.00299930
v 0.02999436 0.09350168 -0.13200128
v 0.03177038 0.10250174 -0.14304048
v -0.00787708 0.09350122 -0.04874965
v -0.00300307 0.09350135 -0.07199986
v -0.01500063 0.09350104 -0.01499935
v 0.00299577 0.09350149 -0.09900012
v -0.00075369 0.09350142 -0.08624996
v 0.00824466 0.09350163 -0.12487534
v 0.00299558 0.09350151 -0.10350012
v 0.00899429 0.09350168 -0.13350038
v 0.00899373 0.09350174 -0.14662538
v 0.02099866 0.09350114 -0.03150089
v 0.02549577 0.09350150 -0.09900108
v 0.02249782 0.09350125 -0.05100095
v 0.02399686 0.09350137 -0.07350102
v 0.02249795 0.09350123 -0.04800095
v 0.01949943 0.09350105 -0.01350083
v 0.01799967 0.09350102 -0.00787576
v 0.02999346 0.09350179 -0.15300128
v 0.03177043 0.09350173 -0.14196218
v 0.02886830 0.10250181 -0.15660118
v 0.00899352 0.09350177 -0.15150038
v 0.01172868 0.09350179 -0.15467696
v 0.02399326 0.09350181 -0.15750102
v 0.00899346 0.09350178 -0.15300038
v 0.02909331 0.09350180 -0.15637624
v 0.02924391 0.09350173 -0.14250124
v 0.02699326 0.09350181 -0.15750115
v 0.01199333 0.09350180 -0.15600051
v -0.00825033 0.10250101 -0.00792816
v -0.01200019 0.10250099 -0.00449943
v -0.00900025 0.10250100 -0.00599956
v -0.00900024 0.09350099 -0.00583294
v -0.01200027 0.09350100 -0.00649948
v -0.01350031 0.09350100 -0.00749941
v -0.00750025 0.09350100 -0.00599967
v -0.00750018 0.09350099 -0.00449967
v -0.00825012 0.09350098 -0.00299964
v 0.01199975 0.10250100 -0.00600046
v 0.00999982 0.09350100 -0.00450042
v 0.01199969 0.09350101 -0.00750051
v 0.00899969 0.09350101 -0.00750038
v 0.00899988 0.09350099 -0.00300038
v 0.01124962 0.09350102 -0.00900047
v 0.01199975 0.09350100 -0.00600051
v 0.01199988 0.09350099 -0.00300051
v 0.00050046 0.10250091 0.01050003
v 0.00150059 0.09350090 0.01349994
v 0.00206296 0.09350091 0.01049992
v -0.00299936 0.09350089 0.01462514
v -0.00074961 0.09350092 0.00900004
v 0.00150039 0.09350092 0.00899994
v 0.00300052 0.09350091 0.01199988
v -0.00149941 0.09350090 0.01350007
v 0.00599576 0.10250149 -0.09900020
v 0.00749575 0.09350150 -0.09950031
v 0.00449566 0.09350150 -0.10150018
v 0.00899570 0.09350150 -0.10050038
v 0.00674583 0.09350148 -0.09750028
v -0.00300218 0.10250124 -0.05099982
v -0.00300217 0.09350123 -0.05083320
v -0.00600224 0.09350124 -0.05249973
v -0.00600211 0.09350123 -0.04949973
v -0.00000230 0.09350125 -0.05399999
v 0.01109379 0.10250174 -0.14505042
v 0.01349384 0.10250173 -0.14400052
v 0.01311890 0.09800172 -0.14250053
v 0.01349384 0.09350173 -0.14400057
v 0.01499381 0.09350174 -0.14475063
v 0.01049378 0.09350174 -0.14550044
v 0.01099384 0.09350173 -0.14400046
v 0.01049391 0.09350172 -0.14250044
v 0.01274371 0.09350175 -0.14700054
v 0.02699391 0.09350173 -0.14250115
v 0.02799382 0.09350174 -0.14450119
v 0.02699371 0.09350175 -0.14700115
v 0.02249583 0.10250149 -0.09750091
v 0.02480357 0.09350149 -0.09634721
v 0.02249579 0.09350150 -0.09850095
v 0.02099590 0.09350148 -0.09600089
v 0.02099583 0.09350149 -0.09750089
v 0.02099577 0.09350150 -0.09900089
v 0.01949802 0.09350122 -0.04650083
v 0.01930777 0.09350123 -0.04890927
v 0.01649799 0.09350122 -0.04725070
v 0.02099795 0.09350123 -0.04800089
v 0.00750046 0.10250092 0.01049973
v 0.00733370 0.09800093 0.00837472
v 0.00450059 0.09800090 0.01349984
v 0.00416705 0.09800092 0.00874985
v 0.00557195 0.09800091 0.01211518
v 0.00600033 0.09350093 0.00749975
v 0.00825036 0.09350093 0.00824966
v 0.00750039 0.09350092 0.00899969
v 0.00900052 0.09350091 0.01199962
v 0.00630058 0.09350090 0.01328545
v 0.00450052 0.09350091 0.01199982
v 0.00375036 0.09350093 0.00824985
v 0.00450039 0.09350092 0.00899982
v -0.00599961 0.10250092 0.00900031
v -0.00749948 0.10250090 0.01200038
v -0.00699948 0.09350090 0.01200031
v -0.00599967 0.09350093 0.00750027
v -0.00494958 0.09350091 0.00968204
v -0.00749928 0.09350088 0.01650033
v -0.00899951 0.09350090 0.01125039
v -0.00899961 0.09350092 0.00900039
v -0.01049973 0.09350093 0.00600046
v -0.00449967 0.09350093 0.00750020
v -0.00299964 0.09350092 0.00825014
v -0.01050006 0.10250097 -0.00149949
v -0.01350006 0.10250097 -0.00149937
v -0.01049993 0.10250096 0.00150051
v -0.01410001 0.09800096 -0.00049936
v -0.01250012 0.09800098 -0.00299943
v -0.00989997 0.09800096 0.00050046
v -0.01149986 0.09800095 0.00300053
v -0.01050010 0.09350098 -0.00249954
v -0.00900005 0.09350097 -0.00149961
v -0.00899999 0.09350096 0.00000039
v -0.00899993 0.09350096 0.00150039
v -0.01169987 0.09350095 0.00278622
v -0.01449993 0.09350095 0.00150063
v -0.01450005 0.09350097 -0.00149937
v -0.01350012 0.09350098 -0.00299941
v -0.00500050 0.09350103 -0.01199978
v -0.00666704 0.09350101 -0.00899971
v -0.00900047 0.09350102 -0.01124961
v -0.00300044 0.09350102 -0.01049986
v -0.00600031 0.09350100 -0.00749973
v 0.01050007 0.10250096 0.00149961
v 0.01350002 0.09350097 0.00016610
v 0.01049995 0.09350098 -0.00150044
v 0.01050007 0.09350096 0.00149956
v 0.01349988 0.09350099 -0.00300057
v 0.01499998 0.09350098 -0.00075063
v 0.01500007 0.09350097 0.00149937
v -0.00550012 0.10250098 -0.00299971
v 0.00449988 0.10250099 -0.00300014
v 0.00299981 0.10250099 -0.00450007
v 0.00060026 0.09350094 0.00588460
v 0.00487516 0.09350095 0.00359980
v 0.00599988 0.09350099 -0.00300025
v 0.00374983 0.09350099 -0.00425015
v 0.00149975 0.09350100 -0.00600006
v -0.00075025 0.09350100 -0.00599996
v -0.00300023 0.09350100 -0.00549986
v -0.00450018 0.09350099 -0.00449980
v -0.00566679 0.09350098 -0.00299975
v -0.00599986 0.09350095 0.00300027
v -0.00412482 0.09350095 0.00390019
v -0.00000050 0.09350103 -0.01199999
v 0.00149945 0.09350104 -0.01300006
v -0.00150057 0.09350104 -0.01349993
v -0.00150050 0.09350103 -0.01199993
v -0.00021492 0.09350105 -0.01499998
v 0.01200039 0.09350093 0.00899949
v 0.01266693 0.09350094 0.00599947
v 0.01050033 0.09350093 0.00749956
v 0.01200020 0.09350095 0.00449949
v 0.01350020 0.09350095 0.00449943
v 0.01500027 0.09350094 0.00599937
v 0.01874371 0.09350175 -0.14700079
v 0.02527953 0.09350174 -0.14464393
v 0.02099680 0.09350137 -0.07500089
v 0.01874782 0.09350124 -0.05100079
v 0.00299782 0.09350124 -0.05100012
v 0.00899795 0.09350122 -0.04800038
v -0.01800002 0.09350096 -0.00074922
v -0.01125073 0.09350105 -0.01724951
v 0.01537450 0.09350104 -0.01200065
v 0.01649943 0.09350105 -0.01350070
v 0.01649978 0.09350100 -0.00525070
v -0.01425036 0.09350101 -0.00862438
v 0.01499978 0.09350100 -0.00525063
v 0.00900011 0.09350096 0.00243712
v 0.01199564 0.09350151 -0.10200051
v 0.02399391 0.09350173 -0.14250102
v 0.02099551 0.09350153 -0.10500089
v -0.00450057 0.09350104 -0.01349980
v -0.01199980 0.09350094 0.00450052
v -0.01462475 0.09350093 0.00562564
v -0.01285688 0.09350093 0.00600056
v -0.01349961 0.09350091 0.00900059
v -0.01049961 0.09350092 0.00900046
v -0.01199974 0.10250093 0.00600057
v 0.01366083 0.10506544 0.01031132
v 0.01368041 0.10600094 0.00624607
v 0.01372073 0.10300093 0.00812604
v 0.01068368 0.10442362 0.00560262
v 0.01053505 0.10600093 0.00746435
v 0.01125170 0.10600093 0.00851062
v -0.00219116 0.10600209 -0.21382345
v -0.00067039 0.10600206 -0.20660109
v -0.00659464 0.10600206 -0.20834803
v 0.01149187 0.10600207 -0.20802891
v -0.01267580 0.10600205 -0.20649419
v 0.00965247 0.10600200 -0.19526689
v 0.00001664 0.10581449 -0.19424815
v -0.00528305 0.10600202 -0.19961978
v -0.00726328 0.10600197 -0.19042062
v 0.02407026 0.10600180 -0.15630763
v 0.01492227 0.10600174 -0.14435618
v 0.01791832 0.10600149 -0.09851959
v 0.00858497 0.10600167 -0.13344126
v 0.00777346 0.10600150 -0.09946929
v 0.00795280 0.10600139 -0.07976518
v 0.02061116 0.10600134 -0.06955009
v 0.01453446 0.10600101 -0.00733300
v -0.00232012 0.10600114 -0.03227716
v -0.00443408 0.10600103 -0.01210622
v 0.00534600 0.10600095 0.00437890
v 0.01039205 0.10600100 -0.00600037
v 0.01722363 0.10600094 0.00598566
v 0.00971912 0.10600097 0.00081441
v 0.01438924 0.10600098 -0.00085385
v -0.00961076 0.10600097 -0.00085283
v 0.00516461 0.10600093 0.00839628
v -0.00332634 0.10600094 0.00518254
v 0.01252441 0.10600150 -0.09940864
v 0.01694950 0.10483470 -0.07332454
v 0.02105469 0.10600162 -0.12234283
v 0.02060438 0.10600151 -0.10193094
v 0.01427419 0.10600125 -0.05220042
v 0.01453143 0.10600139 -0.07806570
v 0.00819391 0.10600125 -0.05236925
v -0.00067461 0.10600124 -0.05129188
v 0.00223334 0.10565860 -0.10039147
v -0.00270627 0.10600198 -0.19225977
v -0.00352901 0.10600204 -0.20361670
v 0.00640955 0.10600203 -0.20046807
v 0.00755584 0.10600203 -0.20107547
v 0.00849085 0.10600203 -0.20172526
v 0.00645991 0.10600207 -0.20777361
v 0.00229945 0.10600207 -0.20809605
v -0.00689597 0.10600202 -0.19950304
v 0.00854010 0.10600208 -0.21118069
v -0.00229361 0.10600209 -0.21381218
v -0.00250656 0.10600209 -0.21376492
v -0.01105261 0.10600202 -0.20012882
v -0.00940402 0.10600203 -0.20150183
v -0.01265325 0.10404139 -0.20028566
v 0.00258098 0.10600188 -0.17284507
v 0.00319653 0.10600199 -0.19319849
v 0.00626238 0.10600183 -0.16333092
v 0.00648597 0.10600199 -0.19283301
v 0.01044063 0.10600173 -0.14467699
v 0.01219745 0.10411284 -0.14274260
v 0.00645441 0.10600151 -0.10208213
v 0.00569649 0.10600140 -0.08136217
v -0.00958390 0.10539011 -0.04282099
v -0.01779692 0.10600094 0.00317743
v -0.01458455 0.10600096 0.00082305
v -0.00912641 0.10600091 0.01045861
v 0.00469712 0.10514114 0.01431729
v 0.00000052 0.10600090 0.01200007
v 0.01742017 0.10600114 -0.03043474
v 0.02263887 0.10600123 -0.04821463
v 0.02728565 0.10600151 -0.09734868
v 0.01217926 0.10483537 -0.20153513
v 0.00902054 0.10600202 -0.19842399
v 0.00405680 0.10529562 -0.10088128
v -0.00467886 0.10600125 -0.05332366
v -0.00440573 0.10600122 -0.04910871
v -0.00591972 0.10535838 -0.05181101
v 0.02508817 0.10600174 -0.14466359
v 0.02680793 0.10600173 -0.14317168
v 0.03072681 0.10450177 -0.15025157
v 0.02942079 0.10600175 -0.14549024
v 0.02291428 0.10600148 -0.09581141
v 0.02228039 0.10600150 -0.09928402
v 0.02177238 0.10600149 -0.09742734
v 0.02523496 0.10600150 -0.09803591
v 0.01875399 0.10600122 -0.04598298
v 0.01814908 0.10600124 -0.04968190
v 0.02005831 0.10600123 -0.04882066
v -0.00652807 0.10600100 -0.00628488
v -0.00869313 0.10600101 -0.00851110
v -0.01763231 0.10484098 -0.00361953
v -0.01276746 0.10600099 -0.00582777
v 0.00797630 0.10600102 -0.00945942
v 0.00451000 0.10600102 -0.00857352
v 0.00681264 0.10600102 -0.00844003
v 0.00590036 0.10600104 -0.01308904
v -0.00694113 0.10600103 -0.01231709
v -0.00655901 0.10600097 -0.00093932
v -0.00329063 0.10502685 0.01793230
v -0.00352980 0.10600091 0.01144673
v 0.00814216 0.10600092 0.00926438
v -0.01391008 0.10600092 0.00848541
v -0.01061913 0.10600092 0.00776554
v -0.01112317 0.10600094 0.00524953
v -0.00152460 0.10600103 -0.01266973
v 0.01041377 0.10600121 -0.04535593
v -0.00405775 0.10600114 -0.03233922
v -0.00218338 0.10600114 -0.03234664
v -0.00157340 0.10600122 -0.04707404
v 0.00462505 0.10600115 -0.03439208
v 0.01359278 0.10600117 -0.03785911
v 0.01274871 0.10600108 -0.02074049
v 0.00807450 0.10450108 -0.02106899
v -0.00136632 0.10600105 -0.01492583
v -0.00177266 0.10600109 -0.02369445
v 0.00071355 0.10575789 -0.03217254
v -0.00035537 0.10600105 -0.01561133
v -0.00017906 0.10600105 -0.01564025
v -0.00094026 0.10600109 -0.02241277
v -0.00121098 0.10600105 -0.01512453
v -0.00150657 0.10600109 -0.02282619
v 0.00199130 0.10600105 -0.01448347
v -0.00065745 0.10600109 -0.02230238
v -0.00175747 0.10600109 -0.02353489
v -0.00071644 0.10600105 -0.01549340
v -0.00099919 0.10600105 -0.01531344
v 0.00122698 0.10300093 0.00821058
v -0.01047287 0.10300093 0.00675741
v 0.01168477 0.10300100 -0.00458540
v 0.00809142 0.10300094 0.00553986
v 0.00983044 0.10300098 -0.00152924
v 0.00878582 0.10300101 -0.00775813
v 0.00193005 0.10521153 -0.00640453
v -0.00791500 0.10300103 -0.01162556
v -0.00411405 0.10300114 -0.03235285
v -0.00227835 0.10300124 -0.05128699
v 0.02104573 0.10300124 -0.05062824
v 0.02017659 0.10300144 -0.08847197
v 0.02104411 0.10300144 -0.08847201
v 0.00773870 0.10300150 -0.09945485
v 0.00819186 0.10300150 -0.10033009
v 0.01996922 0.10300162 -0.12196928
v 0.02217249 0.10300197 -0.18775341
v 0.00818894 0.10300186 -0.16847659
v 0.01922331 0.10300200 -0.19446317
v 0.00800784 0.10300200 -0.19526684
v -0.01381534 0.10300200 -0.19748417
v 0.00090499 0.10300205 -0.20535250
v 0.01146110 0.10300207 -0.20806977
v -0.00229361 0.10300209 -0.21381219
v -0.00268825 0.10300206 -0.20726107
v -0.00695037 0.10300206 -0.20860942
v 0.01424529 0.10300125 -0.05224363
v 0.01614667 0.10300150 -0.09869593
v 0.00930934 0.10300122 -0.04614461
v -0.00249696 0.10300119 -0.04303789
v -0.00232066 0.10300114 -0.03227850
v 0.02145277 0.10300151 -0.10066353
v 0.02197737 0.10300162 -0.12145594
v 0.00795280 0.10300139 -0.07976520
v 0.00634030 0.10300140 -0.08126280
v 0.01052414 0.10525147 -0.09527920
v -0.00206086 0.10300200 -0.19511317
v 0.00244011 0.10300199 -0.19371907
v 0.00728270 0.10300203 -0.20068143
v 0.00885104 0.10300202 -0.19820134
v 0.00545360 0.10300202 -0.19990245
v 0.00337677 0.10300206 -0.20644853
v 0.00642339 0.10300206 -0.20748757
v -0.00814344 0.10300203 -0.20138529
v -0.00680209 0.10300201 -0.19905204
v -0.01061536 0.10300207 -0.20914642
v -0.00653906 0.10546209 -0.21253744
v 0.00146460 0.10300210 -0.21403252
v -0.00219116 0.10300209 -0.21382346
v 0.00452565 0.10364725 -0.21152973
v 0.01075684 0.10300203 -0.20059396
v 0.00889387 0.10300204 -0.20187066
v 0.02933141 0.10300174 -0.14347154
v 0.02277719 0.10300124 -0.04967389
v 0.02728506 0.10300149 -0.09734717
v 0.02027331 0.10300110 -0.02313466
v 0.01558101 0.10300096 0.00185575
v 0.01600318 0.10300093 0.00833043
v -0.00097709 0.10300089 0.01455364
v 0.00264355 0.10300090 0.01233581
v -0.00225413 0.10300091 0.01129315
v -0.01188203 0.10300089 0.01398579
v -0.01059091 0.10300098 -0.00224858
v -0.01378637 0.10300094 0.00376989
v -0.01088879 0.10300095 0.00192364
v -0.01341185 0.10300099 -0.00477010
v 0.00129236 0.10300124 -0.05082161
v -0.00218538 0.10300138 -0.07886710
v 0.01077670 0.10300174 -0.14513707
v 0.01123938 0.10300152 -0.10297263
v 0.00852728 0.10300176 -0.14989010
v 0.01447041 0.10300174 -0.14526605
v 0.01370236 0.10300173 -0.14280731
v 0.00549353 0.10318366 -0.16605932
v 0.00319304 0.10526864 -0.19106771
v 0.00669074 0.10300198 -0.19235054
v 0.00075098 0.10410049 -0.17617346
v -0.00765725 0.10300197 -0.19137538
v -0.00247415 0.10300198 -0.19199958
v -0.00367332 0.10300199 -0.19363145
v 0.00458682 0.10300149 -0.09928538
v 0.00634521 0.10401762 -0.09839753
v 0.00401738 0.10300150 -0.10038876
v 0.00670432 0.10300151 -0.10195375
v -0.00524462 0.10300123 -0.04986938
v -0.00272615 0.10300123 -0.04962352
v -0.00238340 0.10300124 -0.05165202
v -0.00245843 0.10300124 -0.05181416
v -0.00250072 0.10300137 -0.07733097
v -0.00487434 0.10300125 -0.05309952
v 0.02876024 0.10300175 -0.14607710
v 0.02507335 0.10300174 -0.14500171
v 0.02432504 0.10541985 -0.18294614
v 0.02310618 0.10300148 -0.09592231
v 0.01751932 0.10300122 -0.04612023
v 0.01987661 0.10300124 -0.04958323
v -0.00927106 0.10300101 -0.00804883
v 0.00754692 0.10300104 -0.01255719
v 0.00429318 0.10300101 -0.00737411
v -0.00721512 0.10300101 -0.00776142
v -0.00424712 0.10300101 -0.00763839
v -0.00536185 0.10300103 -0.01254302
v -0.00360130 0.10300093 0.00607213
v -0.00506412 0.10300098 -0.00358984
v 0.00501369 0.10300095 0.00351002
v -0.00833355 0.10300091 0.00973924
v -0.00445278 0.10300090 0.01257856
v -0.00514798 0.10300092 0.00826787
v 0.00723939 0.10300090 0.01266856
v 0.00815474 0.10300092 0.01019860
v 0.00423396 0.10300092 0.00914829
v -0.01576540 0.10415476 0.00909504
v -0.01063791 0.10300092 0.00784844
v -0.01304711 0.10300092 0.00871039
v 0.00119885 0.10300103 -0.01247448
v -0.00338248 0.10300103 -0.01186735
v -0.00087360 0.10300103 -0.01259254
v 0.00076519 0.10300113 -0.03032946
v 0.01073756 0.10300122 -0.04675114
v -0.00218338 0.10300114 -0.03234665
v -0.00136632 0.10300105 -0.01492584
v -0.00177266 0.10300109 -0.02369446
v -0.00173551 0.10300104 -0.01393407
v -0.00017906 0.10300105 -0.01564026
v 0.00047503 0.10300106 -0.01829524
v -0.00175746 0.10300109 -0.02353491
v -0.00067664 0.10300105 -0.01552588
v -0.00113535 0.10300105 -0.01519779
v -0.00125821 0.10300105 -0.01506807
v 0.01278708 0.10300108 -0.02077082
v 0.01458202 0.10300117 -0.03668079
v 0.01358006 0.10300117 -0.03791213
f 7 6 25
f 7 25 30
f 23 25 6
f 24 23 6
f 91 71 8
f 28 10 8
f 8 71 12
f 32 27 13
f 24 15 76
f 26 17 4
f 4 13 26
f 17 18 4
f 12 19 20
f 76 21 22
f 22 24 76
f 30 25 78
f 30 78 27
f 13 27 26
f 76 14 28
f 28 21 76
f 32 31 27
f 2 29 32
f 31 30 27
f 12 11 33
f 33 18 12
f 4 18 34
f 13 4 85
f 4 35 85
f 32 36 37
f 30 2 38
f 42 39 41
f 42 40 39
f 42 15 6
f 15 42 43
f 28 44 45
f 45 44 10
f 95 46 10
f 95 47 1
f 95 1 46
f 1 92 91
f 47 92 1
f 48 49 71
f 11 71 49
f 34 50 51
f 5 51 52
f 4 5 52
f 4 52 54
f 72 4 54
f 54 53 72
f 53 55 13
f 55 36 32
f 53 13 72
f 51 5 34
f 49 50 11
f 91 48 71
f 43 14 16
f 43 16 15
f 38 39 6
f 38 6 30
f 37 38 2
f 37 2 32
f 28 8 21
f 20 8 12
f 10 46 8
f 8 46 1
f 8 1 91
f 6 15 24
f 56 57 58
f 80 75 103
f 65 77 66
f 77 103 66
f 58 57 96
f 68 69 59
f 71 70 83
f 73 79 67
f 76 75 80
f 76 80 58
f 78 77 65
f 65 79 78
f 22 60 58
f 58 80 22
f 59 60 81
f 68 59 81
f 81 70 68
f 62 64 26
f 31 67 79
f 79 65 31
f 70 82 83
f 84 83 82
f 64 63 84
f 63 83 84
f 85 62 73
f 73 72 86
f 86 85 73
f 85 72 62
f 72 110 54
f 54 87 62
f 87 88 62
f 63 62 88
f 88 89 63
f 83 63 89
f 71 90 69
f 59 69 91
f 56 92 94
f 56 59 91
f 91 92 56
f 93 57 95
f 57 1 95
f 95 56 94
f 95 1 56
f 96 57 93
f 93 98 97
f 93 97 96
f 96 97 99
f 74 58 101
f 75 74 101
f 75 101 104
f 102 103 104
f 101 102 104
f 103 75 104
f 103 102 105
f 103 105 106
f 106 107 103
f 65 103 107
f 107 29 65
f 67 108 36
f 67 29 108
f 72 73 110
f 109 73 67
f 73 109 110
f 36 109 67
f 107 108 29
f 100 101 58
f 100 58 99
f 90 71 83
f 54 62 72
f 84 82 64
f 26 73 62
f 103 77 61
f 103 61 80
f 60 59 58
f 58 59 56
f 85 86 13
f 72 13 86
f 85 35 72
f 103 104 42
f 104 103 40
f 40 42 104
f 6 40 103
f 42 6 103
f 84 83 34
f 83 84 34
f 18 33 83
f 34 18 83
f 50 34 83
f 11 50 83
f 33 11 83
f 67 31 32
f 29 67 32
f 31 65 30
f 29 30 65
f 58 96 28
f 99 58 14
f 96 99 9
f 9 44 96
f 14 9 99
f 28 14 58
f 44 28 96
f 70 81 20
f 82 70 12
f 64 82 18
f 26 64 17
f 79 73 26
f 78 79 27
f 61 77 25
f 80 61 23
f 22 80 24
f 81 60 21
f 21 8 81
f 22 21 60
f 23 24 80
f 25 23 61
f 78 25 77
f 26 27 79
f 18 17 64
f 12 18 82
f 19 12 70
f 20 19 70
f 8 20 81
f 76 58 14
f 74 75 15
f 58 74 16
f 16 14 58
f 15 16 74
f 76 15 75
f 65 66 7
f 103 65 30
f 66 103 6
f 6 7 66
f 30 6 103
f 7 30 65
f 73 67 32
f 67 73 55
f 55 32 67
f 13 55 73
f 32 13 73
f 62 63 34
f 64 62 4
f 63 64 4
f 4 34 63
f 3 4 62
f 5 3 62
f 34 5 62
f 70 71 11
f 68 70 12
f 69 68 12
f 12 71 69
f 11 12 70
f 96 97 45
f 97 96 28
f 28 45 97
f 10 28 96
f 45 10 96
f 10 44 97
f 97 98 10
f 44 9 99
f 99 97 44
f 100 99 9
f 101 100 43
f 101 43 42
f 101 42 41
f 101 41 39
f 105 102 39
f 108 107 37
f 110 55 53
f 54 110 53
f 88 87 52
f 52 51 88
f 51 50 89
f 90 83 50
f 49 48 69
f 69 90 49
f 95 94 47
f 95 10 93
f 10 98 93
f 47 94 92
f 48 91 69
f 50 49 90
f 50 83 89
f 51 89 88
f 52 87 54
f 55 110 109
f 36 55 109
f 37 36 108
f 38 37 107
f 38 107 106
f 38 106 105
f 39 38 105
f 39 102 101
f 14 43 100
f 9 14 100
f 113 114 116
f 115 116 114
f 112 114 113
f 111 112 113
f 116 111 113
f 285 121 119
f 117 119 118
f 118 119 121
f 274 129 130
f 148 274 131
f 217 134 135
f 136 133 137
f 140 138 133
f 139 136 138
f 140 139 138
f 133 139 140
f 216 201 141
f 148 149 274
f 131 152 174
f 124 153 123
f 124 154 121
f 154 118 121
f 123 122 155
f 118 155 156
f 117 118 159
f 118 120 158
f 158 159 118
f 124 121 160
f 165 160 121
f 288 159 158
f 158 120 161
f 288 117 159
f 117 162 163
f 117 163 285
f 164 165 121
f 160 166 125
f 125 153 124
f 125 315 153
f 123 153 315
f 313 123 167
f 313 168 123
f 170 169 122
f 168 170 123
f 170 313 167
f 167 312 170
f 122 123 170
f 312 169 170
f 171 127 331
f 172 171 129
f 172 129 127
f 144 127 129
f 141 203 177
f 177 176 216
f 141 177 216
f 143 211 180
f 180 179 142
f 211 179 180
f 142 143 180
f 182 194 132
f 184 185 122
f 157 184 120
f 320 152 131
f 320 186 152
f 130 320 131
f 151 174 187
f 175 188 189
f 190 126 146
f 191 190 146
f 193 191 146
f 190 193 126
f 192 331 193
f 193 331 126
f 197 194 183
f 183 146 197
f 196 195 128
f 195 197 146
f 132 145 200
f 200 182 132
f 218 198 199
f 199 148 218
f 199 200 145
f 199 145 148
f 201 203 141
f 204 202 203
f 201 204 203
f 245 137 206
f 205 207 137
f 207 206 137
f 208 225 245
f 201 245 217
f 202 209 175
f 209 135 175
f 142 213 136
f 136 143 142
f 201 216 210
f 216 143 210
f 201 210 245
f 212 211 143
f 178 143 216
f 178 212 143
f 350 178 214
f 178 216 215
f 215 214 178
f 214 216 176
f 213 111 116
f 116 115 213
f 136 213 114
f 138 136 114
f 114 112 138
f 234 245 225
f 234 217 245
f 218 222 198
f 175 135 219
f 223 181 198
f 222 223 198
f 208 133 224
f 133 181 224
f 220 226 227
f 227 228 220
f 229 230 231
f 226 232 227
f 220 134 217
f 231 233 229
f 230 234 235
f 225 235 234
f 238 237 236
f 237 229 236
f 227 232 238
f 217 226 220
f 235 231 230
f 236 227 238
f 233 236 229
f 224 225 208
f 221 151 188
f 221 188 175
f 219 221 175
f 219 135 134
f 112 111 138
f 115 114 213
f 213 179 111
f 212 178 211
f 245 136 137
f 135 201 217
f 206 208 245
f 200 198 182
f 194 196 128
f 185 155 122
f 184 122 331
f 183 193 146
f 182 183 194
f 182 198 181
f 138 181 133
f 175 203 202
f 173 130 129
f 144 146 127
f 169 171 331
f 315 167 123
f 158 161 288
f 160 125 124
f 157 120 156
f 118 156 120
f 150 151 218
f 148 150 218
f 147 128 195
f 147 195 146
f 146 126 127
f 145 149 148
f 128 145 132
f 139 133 136
f 205 137 133
f 208 205 133
f 128 132 194
f 130 131 274
f 129 274 144
f 331 127 126
f 122 169 331
f 119 117 285
f 243 242 244
f 244 241 243
f 243 295 242
f 295 243 241
f 244 336 368
f 241 244 368
f 249 265 250
f 251 250 266
f 252 273 320
f 266 252 253
f 330 254 310
f 255 256 258
f 256 312 258
f 260 263 262
f 145 250 265
f 265 274 145
f 266 274 252
f 175 305 268
f 268 247 175
f 330 270 271
f 252 265 272
f 274 265 252
f 258 276 123
f 260 261 290
f 290 277 260
f 278 123 279
f 277 278 279
f 279 260 277
f 288 260 286
f 260 288 280
f 281 261 260
f 280 281 260
f 275 259 283
f 166 283 259
f 264 282 166
f 262 287 286
f 261 184 290
f 278 289 184
f 289 290 184
f 278 184 258
f 270 291 293
f 249 251 292
f 251 293 292
f 239 179 298
f 298 299 239
f 298 179 211
f 303 301 341
f 301 302 203
f 247 304 175
f 319 305 306
f 305 248 306
f 306 152 319
f 253 252 322
f 307 254 308
f 253 307 308
f 308 266 253
f 311 310 254
f 254 307 172
f 309 310 307
f 255 310 309
f 258 312 314
f 276 313 315
f 314 312 315
f 314 276 258
f 275 315 317
f 317 318 275
f 315 316 317
f 318 316 275
f 175 328 323
f 305 175 324
f 323 324 175
f 248 305 324
f 325 326 327
f 327 306 325
f 248 325 306
f 189 327 328
f 329 331 192
f 251 266 332
f 332 293 251
f 270 332 266
f 332 270 293
f 249 292 334
f 357 265 333
f 265 334 333
f 301 203 304
f 304 246 335
f 225 336 337
f 354 340 247
f 246 247 340
f 339 342 338
f 342 341 338
f 341 242 239
f 341 343 242
f 242 343 337
f 344 345 300
f 345 299 211
f 239 299 346
f 341 239 346
f 349 179 239
f 349 347 179
f 349 239 242
f 351 240 344
f 352 344 350
f 352 351 344
f 240 302 341
f 295 111 113
f 114 113 348
f 114 348 242
f 113 111 348
f 114 242 295
f 113 114 295
f 225 337 353
f 354 269 361
f 337 354 353
f 355 353 354
f 228 357 356
f 359 358 360
f 358 356 360
f 361 269 358
f 358 359 361
f 360 366 367
f 366 360 364
f 365 364 363
f 360 367 359
f 363 362 365
f 353 363 225
f 364 365 366
f 369 292 294
f 294 295 369
f 370 357 333
f 370 356 357
f 369 370 333
f 369 333 292
f 368 369 295
f 302 352 350
f 348 349 242
f 346 344 341
f 345 346 299
f 345 211 300
f 245 339 354
f 336 225 368
f 304 338 301
f 335 246 338
f 334 265 249
f 333 334 292
f 330 255 329
f 326 328 327
f 315 275 276
f 315 313 314
f 309 312 256
f 309 256 255
f 172 311 254
f 322 307 253
f 152 321 319
f 302 303 341
f 300 350 344
f 297 298 211
f 111 347 348
f 296 111 295
f 295 241 368
f 291 270 330
f 331 329 255
f 285 262 264
f 166 284 264
f 282 264 283
f 281 288 261
f 278 258 123
f 260 283 263
f 273 305 319
f 272 273 252
f 271 254 330
f 267 305 357
f 145 266 250
f 264 263 283
f 264 262 263
f 262 286 260
f 259 275 316
f 258 184 257
f 258 257 255
f 310 255 330
f 319 320 273
f 250 251 249
f 304 247 246
f 247 269 354
f 354 337 245
f 337 336 244
f 301 338 341
f 337 244 242
f 240 341 344
f 125 166 316
f 259 316 166
f 166 164 121
f 284 121 285
f 285 163 262
f 286 287 117
f 162 117 287
f 287 262 162
f 161 120 261
f 261 288 161
f 117 288 286
f 163 162 262
f 285 264 284
f 121 284 166
f 125 316 315
f 312 167 315
f 129 307 322
f 322 173 129
f 173 322 186
f 309 307 171
f 169 312 309
f 309 171 169
f 129 171 307
f 306 174 152
f 327 187 174
f 174 306 327
f 187 327 189
f 328 175 189
f 203 175 304
f 321 152 186
f 296 295 138
f 111 296 138
f 179 347 111
f 299 297 211
f 211 178 300
f 300 178 350
f 302 350 176
f 302 176 177
f 203 302 177
f 214 176 350
f 295 181 138
f 295 294 181
f 182 181 294
f 294 292 182
f 183 182 292
f 292 293 183
f 183 293 291
f 291 193 183
f 193 291 329
f 192 193 329
f 255 257 331
f 257 184 331
f 120 184 261
f 272 265 148
f 272 131 174
f 174 273 272
f 148 131 272
f 174 151 305
f 174 305 273
f 357 305 151
f 151 150 357
f 357 150 148
f 265 357 148
f 128 147 270
f 144 128 266
f 270 266 128
f 270 147 146
f 146 271 270
f 146 254 271
f 308 254 146
f 146 144 308
f 266 308 144
f 151 305 267
f 151 221 305
f 221 219 247
f 221 247 268
f 221 268 305
f 358 269 134
f 358 220 228
f 228 356 358
f 247 219 134
f 134 269 247
f 134 220 358
f 228 222 357
f 218 151 267
f 222 218 357
f 267 357 218
f 222 228 356
f 231 235 363
f 233 231 363
f 236 233 363
f 227 236 364
f 228 227 360
f 360 356 228
f 364 360 227
f 363 364 236
f 225 363 235
f 224 368 225
f 368 224 181
f 181 369 368
f 223 222 370
f 181 223 370
f 370 369 181
f 356 370 222
f 145 128 266
f 128 144 266
f 144 274 266
f 145 274 149
f 351 352 214
f 240 351 216
f 215 216 351
f 302 240 216
f 352 302 214
f 216 214 302
f 214 215 351
f 348 347 213
f 349 348 213
f 347 349 179
f 142 179 349
f 213 142 349
f 179 213 347
f 346 345 212
f 344 346 178
f 345 344 178
f 178 212 345
f 212 178 346
f 301 303 141
f 302 301 177
f 303 302 177
f 141 177 301
f 177 141 303
f 343 341 136
f 337 343 136
f 342 339 245
f 341 342 210
f 210 143 341
f 143 136 341
f 245 210 342
f 136 245 337
f 354 339 201
f 340 354 135
f 246 340 209
f 338 246 202
f 339 338 201
f 202 201 338
f 209 202 246
f 135 209 340
f 201 135 354
f 336 337 205
f 337 336 208
f 208 206 337
f 205 208 336
f 207 205 337
f 206 207 337
f 243 295 140
f 295 243 139
f 140 139 243
f 139 140 295
f 338 304 201
f 335 338 202
f 304 335 202
f 204 201 304
f 202 204 304
f 201 202 338
f 244 241 137
f 241 244 137
f 299 298 180
f 297 299 180
f 298 297 180
f 334 333 198
f 333 334 199
f 199 198 333
f 200 199 334
f 198 200 334
f 270 332 197
f 332 270 195
f 196 194 332
f 195 196 332
f 197 195 270
f 194 197 332
f 329 291 193
f 330 329 193
f 193 190 330
f 291 330 190
f 190 191 291
f 191 193 291
f 310 311 127
f 307 310 127
f 172 307 171
f 127 171 307
f 172 127 311
f 248 324 151
f 325 248 151
f 326 325 151
f 151 187 328
f 328 326 151
f 323 328 189
f 189 188 323
f 324 323 188
f 187 189 328
f 188 151 324
f 252 320 130
f 322 252 130
f 186 322 173
f 319 321 186
f 186 320 319
f 130 173 322
f 317 316 153
f 318 317 153
f 316 318 153
f 125 153 316
f 153 125 316
f 282 283 160
f 166 282 165
f 166 160 283
f 165 164 166
f 160 165 282
f 263 264 118
f 264 263 118
f 119 118 264
f 118 119 264
f 288 281 158
f 280 288 159
f 281 280 159
f 158 159 288
f 159 158 281
f 289 278 184
f 290 289 184
f 277 290 156
f 278 277 155
f 155 185 278
f 156 155 277
f 157 156 290
f 184 157 290
f 185 184 278
f 276 314 170
f 313 170 314
f 168 313 276
f 170 168 276
f 276 275 123
f 260 279 118
f 283 260 118
f 275 283 124
f 124 123 275
f 154 124 283
f 118 154 283
f 155 118 279
f 123 155 279
f 363 353 234
f 362 363 234
f 365 362 230
f 366 365 238
f 367 366 232
f 359 367 232
f 361 359 226
f 354 361 217
f 355 354 217
f 353 355 217
f 226 217 361
f 232 226 359
f 238 232 366
f 237 238 365
f 229 237 365
f 230 229 365
f 234 230 362
f 217 234 353
f 372 371 373
f 371 374 373
f 376 373 374
f 377 372 373
f 378 382 373
f 377 373 382
f 420 373 376
f 373 420 378
f 420 376 374
f 371 375 420
f 374 371 420
f 379 375 371
f 371 372 379
f 382 379 372
f 372 377 382
f 390 375 399
f 399 380 390
f 392 389 420
f 375 391 392
f 382 396 383
f 384 397 382
f 386 385 403
f 385 379 403
f 379 406 400
f 388 381 420
f 400 375 390
f 390 380 406
f 375 400 391
f 388 387 381
f 381 387 394
f 414 390 406
f 394 395 381
f 392 391 389
f 387 393 381
f 394 387 381
f 395 394 381
f 420 395 381
f 420 381 393
f 381 378 420
f 396 397 378
f 378 381 396
f 382 378 397
f 396 382 397
f 397 398 384
f 384 379 397
f 397 384 398
f 418 411 406
f 411 418 379
f 386 406 411
f 385 386 411
f 379 385 411
f 406 379 418
f 390 411 406
f 399 390 380
f 406 380 390
f 400 406 411
f 399 375 400
f 406 401 499
f 406 402 401
f 384 483 379
f 471 384 382
f 382 383 471
f 404 383 396
f 396 405 404
f 381 467 405
f 488 467 381
f 396 381 405
f 471 483 384
f 403 402 386
f 406 386 402
f 381 408 407
f 381 407 488
f 381 395 408
f 395 509 408
f 395 409 509
f 413 411 414
f 400 411 418
f 397 420 422
f 416 422 420
f 422 417 397
f 423 418 415
f 417 423 397
f 423 415 397
f 400 421 419
f 421 400 418
f 400 419 424
f 420 400 424
f 424 416 420
f 388 420 393
f 393 387 388
f 420 389 391
f 420 391 392
f 392 391 400
f 399 400 390
f 414 411 390
f 415 418 411
f 415 398 397
f 397 398 410
f 397 410 519
f 519 409 396
f 396 397 519
f 396 395 397
f 396 409 395
f 397 395 420
f 414 406 550
f 423 421 418
f 423 417 422
f 416 424 422
f 419 421 424
f 423 422 425
f 422 424 425
f 424 421 425
f 421 423 425
f 445 426 427
f 537 430 408
f 429 428 430
f 537 429 430
f 432 446 431
f 431 433 435
f 435 432 431
f 455 433 435
f 433 434 435
f 436 462 451
f 463 436 451
f 428 439 440
f 438 440 439
f 438 437 469
f 462 469 437
f 462 437 451
f 458 463 451
f 454 458 451
f 434 454 451
f 434 451 435
f 433 455 435
f 448 514 452
f 428 429 439
f 438 441 522
f 438 522 437
f 437 443 444
f 451 444 447
f 451 447 449
f 435 451 449
f 435 449 448
f 435 448 452
f 435 452 432
f 431 450 445
f 445 427 431
f 545 450 431
f 545 431 446
f 444 451 437
f 441 438 439
f 445 450 545
f 441 439 429
f 442 437 522
f 443 437 442
f 458 436 463
f 455 433 431
f 430 428 440
f 426 431 427
f 453 430 438
f 456 438 469
f 455 434 433
f 495 431 426
f 466 463 458
f 426 461 495
f 431 495 460
f 431 460 479
f 431 476 455
f 434 459 454
f 438 456 492
f 438 492 457
f 438 457 453
f 440 438 430
f 436 463 462
f 379 485 403
f 404 405 467
f 474 471 383
f 462 474 383
f 466 462 463
f 458 464 465
f 467 456 470
f 459 458 454
f 479 460 478
f 481 482 483
f 480 434 482
f 476 484 455
f 483 487 379
f 467 488 489
f 491 492 456
f 496 402 403
f 497 498 402
f 498 497 460
f 496 478 460
f 500 461 501
f 406 499 500
f 401 402 502
f 504 495 461
f 495 504 502
f 461 503 504
f 483 480 481
f 404 462 383
f 403 485 475
f 519 521 409
f 521 519 506
f 411 412 542
f 512 413 414
f 512 511 445
f 478 545 446
f 516 515 441
f 506 444 443
f 518 447 444
f 506 510 444
f 507 447 518
f 520 509 409
f 409 521 523
f 523 522 409
f 526 519 410
f 526 410 525
f 529 528 415
f 452 446 432
f 398 532 410
f 532 549 531
f 533 532 398
f 448 449 534
f 535 514 549
f 533 536 535
f 398 536 533
f 536 398 415
f 429 539 441
f 441 539 540
f 545 513 542
f 545 543 544
f 412 544 543
f 545 411 546
f 547 445 545
f 547 461 546
f 546 461 545
f 534 514 448
f 524 548 443
f 442 523 443
f 444 510 518
f 515 522 441
f 519 510 506
f 508 527 507
f 505 517 549
f 513 530 542
f 410 532 483
f 483 471 410
f 410 471 480
f 480 517 410
f 549 517 480
f 473 549 480
f 473 459 449
f 534 449 459
f 459 434 534
f 534 434 480
f 480 549 534
f 531 549 480
f 531 480 483
f 483 532 531
f 510 519 474
f 474 462 510
f 444 510 462
f 462 463 444
f 462 510 444
f 444 463 462
f 519 510 474
f 466 474 510
f 510 518 466
f 510 462 466
f 466 518 510
f 383 462 506
f 443 506 462
f 506 443 462
f 462 510 506
f 510 462 383
f 383 506 510
f 474 519 526
f 518 519 474
f 474 466 518
f 518 466 458
f 458 507 518
f 507 458 465
f 465 508 507
f 527 508 465
f 527 464 474
f 474 526 527
f 465 464 527
f 510 519 474
f 510 474 466
f 466 518 510
f 447 518 466
f 518 466 474
f 474 519 518
f 470 523 521
f 521 467 470
f 522 523 470
f 442 522 456
f 456 469 442
f 470 456 522
f 470 523 442
f 469 470 442
f 467 521 523
f 523 470 467
f 520 409 467
f 467 489 520
f 520 489 490
f 456 522 490
f 409 522 456
f 456 467 409
f 404 468 524
f 469 462 443
f 548 524 468
f 443 548 469
f 468 469 548
f 521 506 462
f 462 506 443
f 462 404 521
f 521 404 467
f 523 521 467
f 467 470 523
f 470 469 443
f 443 523 470
f 524 443 469
f 469 468 524
f 468 404 524
f 525 410 471
f 471 474 525
f 449 525 474
f 474 459 449
f 473 449 459
f 549 480 472
f 472 505 549
f 473 480 549
f 517 505 472
f 517 480 471
f 471 410 517
f 472 480 517
f 464 527 526
f 526 474 464
f 527 464 458
f 458 507 527
f 449 507 458
f 458 459 449
f 449 459 474
f 474 525 449
f 474 526 525
f 477 403 411
f 415 411 403
f 475 529 415
f 403 475 415
f 446 452 476
f 529 475 476
f 476 452 529
f 476 431 446
f 530 446 431
f 530 431 477
f 477 411 530
f 475 485 415
f 415 485 484
f 484 528 415
f 484 476 452
f 452 528 484
f 529 452 476
f 476 475 529
f 529 475 484
f 484 528 529
f 415 528 484
f 484 475 415
f 530 513 478
f 513 542 477
f 477 478 513
f 542 403 477
f 478 477 530
f 446 530 477
f 477 479 446
f 478 446 479
f 478 496 542
f 542 513 478
f 496 403 542
f 403 411 542
f 542 477 403
f 477 431 530
f 530 411 477
f 403 477 411
f 431 446 530
f 431 479 446
f 446 479 477
f 477 530 446
f 477 542 530
f 482 535 536
f 536 483 482
f 535 482 434
f 434 514 535
f 434 455 514
f 514 455 487
f 536 514 487
f 487 483 536
f 532 533 482
f 482 481 532
f 534 549 480
f 532 481 480
f 449 534 434
f 480 549 532
f 480 434 534
f 534 449 434
f 434 514 534
f 535 549 480
f 514 434 480
f 532 535 482
f 480 549 514
f 480 482 535
f 482 481 532
f 533 535 482
f 532 481 482
f 482 535 532
f 415 528 484
f 484 485 415
f 452 514 486
f 486 514 415
f 486 455 452
f 455 528 452
f 455 484 528
f 487 536 415
f 415 379 487
f 514 536 487
f 487 455 514
f 415 514 486
f 455 486 514
f 406 414 550
f 500 512 414
f 414 406 500
f 445 511 501
f 512 500 501
f 501 511 512
f 501 461 445
f 426 445 461
f 488 408 509
f 429 537 430
f 430 537 408
f 430 453 429
f 539 429 453
f 453 457 539
f 539 457 494
f 494 538 539
f 509 538 494
f 494 488 509
f 488 509 520
f 520 489 488
f 509 488 541
f 516 492 491
f 491 515 516
f 541 492 516
f 522 515 491
f 491 456 522
f 522 456 490
f 489 520 490
f 488 494 538
f 538 509 488
f 441 540 493
f 457 493 540
f 540 539 457
f 538 494 457
f 457 539 538
f 493 457 441
f 516 441 457
f 457 492 516
f 516 492 541
f 488 509 541
f 544 412 402
f 411 502 402
f 402 412 411
f 402 498 544
f 545 544 498
f 498 460 545
f 460 495 545
f 411 545 495
f 495 502 411
f 412 402 496
f 496 542 412
f 545 542 496
f 496 460 545
f 497 543 545
f 545 460 497
f 543 497 402
f 402 412 543
f 512 500 499
f 499 413 512
f 547 411 401
f 413 499 401
f 401 411 413
f 401 503 547
f 445 547 503
f 503 461 445
f 445 461 500
f 500 512 445
f 411 401 502
f 546 411 502
f 502 504 546
f 461 546 504
f 461 504 546
f 411 547 503
f 546 504 503
f 503 547 546
f 503 401 411
f 552 553 551
f 553 554 551
f 554 555 551
f 555 556 551
f 556 557 551
f 557 558 551
f 558 559 551
f 559 552 551
f 560 556 555
f 561 555 554
f 562 554 553
f 563 553 552
f 564 552 559
f 565 559 558
f 566 558 557
f 567 557 556
f 556 560 567
f 557 567 566
f 558 566 565
f 559 565 564
f 552 564 563
f 553 563 562
f 554 562 561
f 555 561 560
f 564 565 568
f 565 566 568
f 566 567 568
f 567 560 568
f 560 561 568
f 561 562 568
f 562 563 568
f 563 564 568
f 570 571 569
f 571 572 569
f 572 573 569
f 573 574 569
f 574 575 569
f 575 576 569
f 576 577 569
f 577 570 569
f 578 574 573
f 579 573 572
f 580 572 571
f 581 571 570
f 582 570 577
f 583 577 576
f 584 576 575
f 585 575 574
f 574 578 585
f 575 585 584
f 576 584 583
f 577 583 582
f 570 582 581
f 571 581 580
f 572 580 579
f 573 579 578
f 582 583 586
f 583 584 586
f 584 585 586
f 585 578 586
f 578 579 586
f 579 580 586
f 580 581 586
f 581 582 586
f 588 589 587
f 589 590 587
f 590 591 587
f 591 592 587
f 592 593 587
f 593 594 587
f 594 595 587
f 595 588 587
f 596 592 591
f 597 591 590
f 598 590 589
f 599 589 588
f 600 588 595
f 601 595 594
f 602 594 593
f 603 593 592
f 592 596 603
f 593 603 602
f 594 602 601
f 595 601 600
f 588 600 599
f 589 599 598
f 590 598 597
f 591 597 596
f 600 601 604
f 601 602 604
f 602 603 604
f 603 596 604
f 596 597 604
f 597 598 604
f 598 599 604
f 599 600 604
f 605 609 606
f 607 609 610
f 608 607 613
f 605 608 611
f 609 605 612
f 607 609 613
f 609 607 613
f 613 610 609
f 612 613 609
f 611 612 605
f 613 611 608
f 610 613 607
f 608 605 615
f 607 608 617
f 609 607 618
f 605 606 621
f 621 614 605
f 620 621 606
f 609 620 606
f 619 620 609
f 618 619 609
f 617 618 607
f 616 617 608
f 615 616 608
f 614 615 605
f 611 613 610
f 610 613 634
f 613 612 634
f 612 611 623
f 645 624 699
f 634 663 630
f 631 663 688
f 632 630 663
f 634 630 631
f 631 688 634
f 631 632 663
f 635 629 638
f 685 643 717
f 650 765 649
f 652 651 625
f 649 625 656
f 649 656 783
f 783 655 649
f 654 783 776
f 776 657 654
f 628 627 658
f 662 629 660
f 665 668 664
f 664 690 665
f 665 690 663
f 666 667 668
f 626 628 659
f 869 642 638
f 673 629 622
f 673 671 629
f 622 611 673
f 653 625 703
f 653 703 674
f 667 628 705
f 668 667 675
f 705 675 667
f 664 668 675
f 624 646 677
f 680 649 654
f 654 679 680
f 649 678 647
f 657 737 738
f 737 657 627
f 689 669 688
f 663 691 688
f 663 690 691
f 611 610 673
f 663 634 612
f 611 622 662
f 662 623 611
f 663 612 623
f 623 662 663
f 694 692 693
f 693 677 694
f 693 624 677
f 624 693 695
f 699 696 697
f 699 695 696
f 697 701 895
f 698 895 701
f 700 771 701
f 703 625 701
f 703 701 702
f 707 702 704
f 707 703 702
f 708 706 707
f 706 676 705
f 690 664 709
f 860 633 712
f 712 713 860
f 712 718 713
f 718 715 942
f 714 941 687
f 719 762 806
f 720 931 719
f 722 720 721
f 724 727 728
f 728 729 724
f 644 727 730
f 759 757 635
f 629 635 731
f 659 629 734
f 659 735 737
f 737 735 736
f 737 626 659
f 738 737 736
f 657 738 739
f 657 740 741
f 741 654 657
f 681 679 742
f 742 647 681
f 679 681 680
f 647 742 743
f 646 744 832
f 744 646 743
f 746 851 694
f 748 610 634
f 640 672 749
f 672 640 639
f 644 640 749
f 683 644 750
f 749 750 644
f 726 683 752
f 751 752 683
f 726 753 754
f 750 751 683
f 752 753 726
f 685 754 755
f 754 685 726
f 687 643 755
f 687 755 968
f 688 669 756
f 968 669 687
f 968 756 669
f 634 756 748
f 634 688 756
f 759 640 758
f 640 644 758
f 758 760 759
f 763 719 684
f 764 807 762
f 717 764 1016
f 1016 684 717
f 755 643 685
f 832 747 646
f 741 679 654
f 739 740 657
f 739 738 736
f 734 735 659
f 733 734 629
f 732 733 629
f 731 732 629
f 730 757 644
f 711 712 633
f 711 633 710
f 709 633 690
f 771 645 701
f 695 699 624
f 671 638 629
f 661 629 659
f 658 705 628
f 776 627 657
f 651 700 701
f 717 684 685
f 687 717 643
f 638 759 635
f 662 622 629
f 627 628 626
f 646 647 743
f 624 645 646
f 652 700 651
f 647 650 649
f 625 765 767
f 767 1007 625
f 1007 766 652
f 652 625 1007
f 700 652 766
f 769 767 765
f 768 769 650
f 1009 768 647
f 650 647 768
f 765 650 769
f 647 646 773
f 773 1009 647
f 646 645 648
f 771 700 766
f 766 774 771
f 646 648 772
f 772 773 646
f 645 771 648
f 648 771 774
f 774 772 648
f 775 772 774
f 658 627 705
f 777 778 705
f 705 627 777
f 707 706 674
f 706 705 780
f 894 780 705
f 779 894 705
f 778 779 705
f 627 776 781
f 781 777 627
f 782 781 776
f 782 776 783
f 654 655 783
f 674 706 780
f 780 789 674
f 786 782 783
f 784 786 783
f 783 656 784
f 625 653 656
f 656 785 784
f 788 785 656
f 789 788 653
f 653 674 789
f 656 653 788
f 665 666 668
f 797 795 666
f 666 665 797
f 662 665 663
f 793 797 665
f 792 793 665
f 794 795 797
f 795 796 667
f 667 666 795
f 667 796 802
f 802 628 667
f 798 792 665
f 665 662 798
f 661 660 629
f 799 802 796
f 801 800 661
f 802 801 659
f 659 628 802
f 661 659 801
f 660 661 800
f 662 660 803
f 803 798 662
f 800 803 660
f 722 725 723
f 719 806 721
f 716 807 764
f 718 808 715
f 724 805 727
f 635 804 731
f 809 664 676
f 809 706 708
f 809 707 704
f 676 706 809
f 808 711 710
f 808 718 712
f 708 707 809
f 808 709 664
f 712 711 808
f 664 809 808
f 710 709 808
f 704 702 809
f 731 739 736
f 731 735 734
f 731 740 739
f 731 679 741
f 736 735 731
f 731 742 679
f 741 740 731
f 744 743 742
f 742 731 744
f 810 731 804
f 811 804 635
f 812 635 757
f 812 757 730
f 816 730 727
f 817 727 805
f 819 805 725
f 820 725 722
f 821 722 721
f 935 721 806
f 823 806 762
f 825 762 807
f 825 807 716
f 999 716 715
f 999 715 808
f 808 826 999
f 716 999 825
f 762 825 824
f 762 824 823
f 806 823 822
f 806 822 935
f 721 935 821
f 722 821 820
f 725 820 819
f 805 819 818
f 805 818 817
f 727 817 816
f 730 816 815
f 730 815 814
f 730 814 813
f 730 813 812
f 635 812 811
f 804 811 810
f 702 701 809
f 808 809 827
f 827 826 808
f 816 817 925
f 829 811 812
f 811 830 810
f 829 830 811
f 731 810 831
f 831 744 731
f 745 832 746
f 832 745 747
f 826 892 833
f 827 837 834
f 833 1000 826
f 834 826 827
f 826 835 999
f 834 892 826
f 827 836 837
f 827 838 839
f 839 836 827
f 840 827 809
f 841 840 701
f 701 697 841
f 809 701 840
f 810 842 916
f 831 844 845
f 810 846 844
f 810 847 842
f 831 908 843
f 844 831 810
f 810 848 847
f 845 908 831
f 916 846 810
f 849 746 832
f 850 832 744
f 744 831 850
f 832 850 849
f 692 694 851
f 841 697 696
f 853 696 695
f 695 859 853
f 696 853 855
f 696 855 852
f 696 852 841
f 695 693 854
f 854 859 695
f 854 693 692
f 858 692 851
f 856 851 746
f 746 849 856
f 851 856 858
f 692 858 854
f 687 670 714
f 687 669 860
f 860 862 687
f 862 670 687
f 714 861 718
f 861 713 718
f 864 863 860
f 863 864 861
f 861 714 863
f 713 861 864
f 860 713 864
f 862 860 863
f 670 862 863
f 714 670 863
f 864 955 865
f 960 866 863
f 866 867 863
f 868 948 863
f 863 864 957
f 864 863 948
f 869 638 671
f 642 672 639
f 748 673 610
f 875 870 642
f 871 875 869
f 872 871 671
f 870 872 748
f 672 642 870
f 748 672 870
f 673 748 872
f 671 673 872
f 869 671 871
f 642 869 875
f 962 873 870
f 617 874 872
f 876 962 870
f 871 872 874
f 877 723 725
f 683 726 877
f 877 805 724
f 879 878 805
f 934 879 877
f 884 934 877
f 878 884 725
f 877 725 884
f 805 877 879
f 725 805 878
f 881 882 934
f 878 879 883
f 879 934 882
f 934 884 880
f 707 674 885
f 703 885 674
f 887 886 703
f 886 887 707
f 707 885 886
f 703 707 887
f 885 703 886
f 889 887 886
f 675 705 890
f 892 891 676
f 893 892 676
f 891 893 664
f 664 675 891
f 676 664 893
f 705 676 891
f 890 705 891
f 675 890 891
f 699 697 895
f 896 897 645
f 899 898 896
f 900 899 699
f 901 900 895
f 897 901 895
f 895 698 897
f 699 895 900
f 645 699 899
f 896 645 899
f 897 896 898
f 897 898 899
f 901 897 902
f 646 747 745
f 745 677 646
f 905 904 646
f 906 905 746
f 994 906 694
f 905 994 677
f 904 905 677
f 677 646 904
f 694 677 994
f 746 694 906
f 745 746 905
f 677 745 905
f 646 677 905
f 857 904 905
f 994 905 904
f 680 907 649
f 907 678 649
f 678 681 647
f 843 908 681
f 909 843 681
f 908 909 680
f 907 680 909
f 678 907 909
f 681 678 909
f 680 681 908
f 910 911 909
f 911 912 909
f 626 737 627
f 914 913 737
f 916 914 737
f 914 916 738
f 915 914 737
f 913 915 626
f 626 737 913
f 737 626 915
f 738 737 914
f 737 738 916
f 916 913 914
f 683 877 729
f 877 724 729
f 727 917 728
f 727 644 917
f 683 682 644
f 682 917 644
f 729 682 683
f 918 921 728
f 920 918 682
f 921 920 729
f 729 728 921
f 682 729 920
f 683 682 918
f 682 683 918
f 917 682 918
f 728 917 918
f 921 918 925
f 919 921 926
f 921 919 926
f 920 921 879
f 918 920 928
f 928 922 918
f 929 928 920
f 928 929 920
f 879 928 920
f 883 879 921
f 927 883 921
f 926 927 921
f 925 926 921
f 923 925 918
f 924 923 918
f 923 924 918
f 922 923 918
f 723 877 686
f 877 726 686
f 685 930 726
f 930 686 726
f 686 722 723
f 722 931 720
f 931 684 719
f 684 930 685
f 934 932 722
f 933 934 930
f 934 933 685
f 932 934 684
f 931 722 932
f 684 931 932
f 930 684 934
f 685 930 934
f 930 685 933
f 686 930 934
f 722 686 934
f 936 937 932
f 933 939 934
f 932 934 880
f 933 934 938
f 934 932 937
f 715 716 942
f 764 717 943
f 717 687 943
f 714 718 941
f 941 943 687
f 943 716 764
f 942 941 718
f 944 946 941
f 946 944 716
f 716 943 946
f 942 716 944
f 941 942 944
f 943 941 946
f 945 946 944
f 947 944 946
f 946 945 948
f 947 946 952
f 944 947 952
f 945 944 954
f 955 948 945
f 954 955 945
f 953 954 944
f 952 953 944
f 951 952 946
f 950 951 946
f 949 950 946
f 948 949 946
f 633 860 690
f 691 689 688
f 689 860 669
f 957 960 669
f 956 957 689
f 957 956 690
f 960 957 689
f 689 669 960
f 860 689 957
f 690 860 957
f 691 690 956
f 689 691 956
f 669 689 957
f 957 956 959
f 956 957 958
f 639 640 961
f 640 759 961
f 759 636 641
f 636 638 641
f 642 641 638
f 641 637 759
f 637 961 759
f 961 642 639
f 963 962 642
f 964 963 642
f 962 964 961
f 642 961 964
f 641 642 962
f 637 641 962
f 961 637 962
f 876 965 962
f 966 967 962
f 963 964 1006
f 748 969 672
f 972 971 750
f 973 972 749
f 974 973 672
f 975 974 748
f 976 975 748
f 977 976 756
f 978 977 756
f 979 978 756
f 980 979 755
f 981 980 755
f 971 981 754
f 753 752 971
f 754 753 971
f 755 754 981
f 968 755 979
f 756 968 979
f 748 756 976
f 970 748 974
f 748 970 974
f 969 748 974
f 672 969 974
f 749 672 973
f 750 749 972
f 751 750 971
f 752 751 971
f 631 630 632
f 983 982 631
f 986 983 630
f 984 986 631
f 985 984 631
f 982 985 631
f 632 631 986
f 631 632 986
f 630 631 986
f 631 630 983
f 757 759 760
f 988 987 757
f 990 988 758
f 988 990 758
f 989 988 758
f 987 989 758
f 644 757 987
f 758 644 987
f 760 758 988
f 757 760 988
f 990 991 988
f 992 812 988
f 775 993 994
f 796 997 777
f 956 833 893
f 873 963 1006
f 829 962 967
f 1005 962 965
f 829 1006 964
f 873 962 963
f 1005 966 962
f 964 962 829
f 829 1005 1003
f 899 775 774
f 838 766 770
f 1007 770 766
f 911 769 768
f 1008 772 775
f 773 772 1008
f 769 791 790
f 767 790 785
f 785 788 1007
f 788 836 1007
f 788 789 836
f 997 778 777
f 996 777 781
f 996 781 782
f 995 996 782
f 784 769 911
f 787 782 911
f 911 786 784
f 782 786 911
f 995 782 787
f 1002 800 801
f 1002 1001 800
f 801 915 1002
f 998 777 799
f 777 802 799
f 801 802 777
f 998 799 796
f 795 794 796
f 893 796 794
f 794 797 893
f 1010 797 793
f 793 792 1010
f 1001 616 798
f 798 803 1001
f 1001 803 800
f 868 863 867
f 1004 958 957
f 957 864 1004
f 864 948 955
f 616 1001 874
f 871 874 1001
f 1001 1005 871
f 874 617 616
f 1005 876 870
f 870 875 1005
f 796 891 894
f 796 893 891
f 909 912 768
f 909 768 1009
f 995 909 908
f 995 910 909
f 914 915 996
f 916 914 996
f 618 617 872
f 798 616 615
f 615 614 798
f 988 989 923
f 988 923 1006
f 990 988 1006
f 992 988 829
f 829 988 991
f 1010 959 956
f 956 958 1000
f 960 957 959
f 1004 955 954
f 1012 953 952
f 952 951 1011
f 868 949 948
f 952 1011 1012
f 1010 792 986
f 986 984 1010
f 798 621 983
f 986 792 798
f 798 983 986
f 984 959 1010
f 985 982 959
f 984 985 959
f 621 982 983
f 982 621 959
f 934 939 940
f 934 937 938
f 1013 824 1012
f 1013 1014 824
f 937 1015 938
f 993 899 859
f 994 993 859
f 906 856 849
f 854 858 906
f 858 856 906
f 849 905 906
f 906 994 854
f 905 850 857
f 905 849 850
f 994 904 1008
f 1009 1008 831
f 1008 857 850
f 850 831 1008
f 996 995 845
f 995 908 845
f 996 844 846
f 842 847 913
f 915 913 1002
f 913 847 1002
f 913 916 842
f 1002 847 848
f 829 810 830
f 1003 848 810
f 810 829 1003
f 812 987 988
f 989 987 923
f 923 813 814
f 923 815 816
f 923 812 813
f 814 815 923
f 926 925 817
f 817 818 926
f 818 883 927
f 927 926 818
f 819 820 884
f 820 880 884
f 878 883 818
f 818 884 878
f 818 819 884
f 940 881 934
f 879 882 928
f 932 880 820
f 932 820 821
f 932 821 935
f 935 936 932
f 935 822 937
f 822 823 937
f 1014 823 824
f 825 828 1012
f 825 999 954
f 953 1012 828
f 954 953 825
f 999 1004 954
f 1004 999 835
f 956 1000 833
f 892 834 891
f 789 834 837
f 834 789 780
f 780 891 834
f 997 894 778
f 894 779 778
f 891 780 894
f 836 839 887
f 838 888 886
f 886 888 1007
f 838 886 887
f 887 889 836
f 889 886 1007
f 839 838 887
f 838 774 766
f 841 899 774
f 841 901 902
f 841 900 901
f 903 900 841
f 899 900 903
f 899 852 855
f 899 841 852
f 855 853 899
f 928 971 972
f 972 923 928
f 873 1006 973
f 972 973 1006
f 872 973 974
f 870 873 973
f 872 870 973
f 974 618 872
f 974 620 618
f 959 620 976
f 975 976 620
f 959 976 977
f 974 975 620
f 960 977 978
f 978 979 960
f 977 960 959
f 938 979 980
f 979 938 868
f 940 933 971
f 933 981 971
f 933 980 981
f 971 928 940
f 972 1006 923
f 853 859 899
f 838 841 774
f 837 836 789
f 833 892 893
f 835 1000 1004
f 828 825 953
f 824 825 1012
f 823 1014 937
f 816 925 923
f 848 1003 1001
f 848 1001 1002
f 846 916 996
f 845 844 996
f 909 1009 843
f 831 843 1009
f 859 854 994
f 957 960 863
f 614 621 798
f 894 997 796
f 875 871 1005
f 864 865 1004
f 801 777 915
f 784 791 769
f 790 767 769
f 980 933 938
f 868 938 1011
f 960 979 868
f 865 955 1004
f 1001 1003 1005
f 621 620 959
f 1000 958 1004
f 893 1010 956
f 996 915 777
f 777 998 796
f 994 1008 775
f 993 775 899
f 1012 1011 1013
f 938 1013 1011
f 938 1015 719
f 1013 938 684
f 1011 1013 1016
f 1013 1011 1016
f 1014 1013 764
f 1015 1014 762
f 762 761 1015
f 764 762 1014
f 1016 764 1013
f 684 1016 1013
f 763 684 938
f 719 763 938
f 761 719 1015
f 1019 1020 1022
f 1021 1022 1020
f 1018 1020 1019
f 1017 1018 1019
f 1022 1017 1019
f 1191 1027 1025
f 1023 1025 1024
f 1024 1025 1027
f 1180 1035 1036
f 1054 1180 1037
f 1123 1040 1041
f 1042 1039 1043
f 1046 1044 1039
f 1045 1042 1044
f 1046 1045 1044
f 1039 1045 1046
f 1122 1107 1047
f 1054 1055 1180
f 1037 1058 1080
f 1030 1059 1029
f 1030 1060 1027
f 1060 1024 1027
f 1029 1028 1061
f 1024 1061 1062
f 1023 1024 1065
f 1024 1026 1064
f 1064 1065 1024
f 1030 1027 1066
f 1071 1066 1027
f 1194 1065 1064
f 1064 1026 1067
f 1194 1023 1065
f 1023 1068 1069
f 1023 1069 1191
f 1070 1071 1027
f 1066 1072 1031
f 1031 1059 1030
f 1031 1221 1059
f 1029 1059 1221
f 1219 1029 1073
f 1219 1074 1029
f 1076 1075 1028
f 1074 1076 1029
f 1076 1219 1073
f 1073 1218 1076
f 1028 1029 1076
f 1218 1075 1076
f 1077 1033 1237
f 1078 1077 1035
f 1078 1035 1033
f 1050 1033 1035
f 1047 1109 1083
f 1083 1082 1122
f 1047 1083 1122
f 1049 1117 1086
f 1086 1085 1048
f 1117 1085 1086
f 1048 1049 1086
f 1088 1100 1038
f 1090 1091 1028
f 1063 1090 1026
f 1226 1058 1037
f 1226 1092 1058
f 1036 1226 1037
f 1057 1080 1093
f 1081 1094 1095
f 1096 1032 1052
f 1097 1096 1052
f 1099 1097 1052
f 1096 1099 1032
f 1098 1237 1099
f 1099 1237 1032
f 1103 1100 1089
f 1089 1052 1103
f 1102 1101 1034
f 1101 1103 1052
f 1038 1051 1106
f 1106 1088 1038
f 1124 1104 1105
f 1105 1054 1124
f 1105 1106 1051
f 1105 1051 1054
f 1107 1109 1047
f 1110 1108 1109
f 1107 1110 1109
f 1151 1043 1112
f 1111 1113 1043
f 1113 1112 1043
f 1114 1131 1151
f 1107 1151 1123
f 1108 1115 1081
f 1115 1041 1081
f 1048 1119 1042
f 1042 1049 1048
f 1107 1122 1116
f 1122 1049 1116
f 1107 1116 1151
f 1118 1117 1049
f 1084 1049 1122
f 1084 1118 1049
f 1256 1084 1120
f 1084 1122 1121
f 1121 1120 1084
f 1120 1122 1082
f 1119 1017 1022
f 1022 1021 1119
f 1042 1119 1020
f 1044 1042 1020
f 1020 1018 1044
f 1140 1151 1131
f 1140 1123 1151
f 1124 1128 1104
f 1081 1041 1125
f 1129 1087 1104
f 1128 1129 1104
f 1114 1039 1130
f 1039 1087 1130
f 1126 1132 1133
f 1133 1134 1126
f 1135 1136 1137
f 1132 1138 1133
f 1126 1040 1123
f 1137 1139 1135
f 1136 1140 1141
f 1131 1141 1140
f 1144 1143 1142
f 1143 1135 1142
f 1133 1138 1144
f 1123 1132 1126
f 1141 1137 1136
f 1142 1133 1144
f 1139 1142 1135
f 1130 1131 1114
f 1127 1057 1094
f 1127 1094 1081
f 1125 1127 1081
f 1125 1041 1040
f 1018 1017 1044
f 1021 1020 1119
f 1119 1085 1017
f 1118 1084 1117
f 1151 1042 1043
f 1041 1107 1123
f 1112 1114 1151
f 1106 1104 1088
f 1100 1102 1034
f 1091 1061 1028
f 1090 1028 1237
f 1089 1099 1052
f 1088 1089 1100
f 1088 1104 1087
f 1044 1087 1039
f 1081 1109 1108
f 1079 1036 1035
f 1050 1052 1033
f 1075 1077 1237
f 1221 1073 1029
f 1064 1067 1194
f 1066 1031 1030
f 1063 1026 1062
f 1024 1062 1026
f 1056 1057 1124
f 1054 1056 1124
f 1053 1034 1101
f 1053 1101 1052
f 1052 1032 1033
f 1051 1055 1054
f 1034 1051 1038
f 1045 1039 1042
f 1111 1043 1039
f 1114 1111 1039
f 1034 1038 1100
f 1036 1037 1180
f 1035 1180 1050
f 1237 1033 1032
f 1028 1075 1237
f 1025 1023 1191
f 1149 1148 1150
f 1150 1147 1149
f 1149 1201 1148
f 1201 1149 1147
f 1150 1242 1274
f 1147 1150 1274
f 1155 1171 1156
f 1157 1156 1172
f 1158 1179 1226
f 1172 1158 1159
f 1236 1160 1216
f 1161 1162 1164
f 1162 1218 1164
f 1166 1169 1168
f 1051 1156 1171
f 1171 1180 1051
f 1172 1180 1158
f 1081 1211 1174
f 1174 1153 1081
f 1236 1176 1177
f 1158 1171 1178
f 1180 1171 1158
f 1164 1182 1029
f 1166 1167 1196
f 1196 1183 1166
f 1184 1029 1185
f 1183 1184 1185
f 1185 1166 1183
f 1194 1166 1192
f 1166 1194 1186
f 1187 1167 1166
f 1186 1187 1166
f 1181 1165 1189
f 1072 1189 1165
f 1170 1188 1072
f 1168 1193 1192
f 1167 1090 1196
f 1184 1195 1090
f 1195 1196 1090
f 1184 1090 1164
f 1176 1197 1199
f 1155 1157 1198
f 1157 1199 1198
f 1145 1085 1204
f 1204 1205 1145
f 1204 1085 1117
f 1209 1207 1247
f 1207 1208 1109
f 1153 1210 1081
f 1225 1211 1212
f 1211 1154 1212
f 1212 1058 1225
f 1159 1158 1228
f 1213 1160 1214
f 1159 1213 1214
f 1214 1172 1159
f 1217 1216 1160
f 1160 1213 1078
f 1215 1216 1213
f 1161 1216 1215
f 1164 1218 1220
f 1182 1219 1221
f 1220 1218 1221
f 1220 1182 1164
f 1181 1221 1223
f 1223 1224 1181
f 1221 1222 1223
f 1224 1222 1181
f 1081 1234 1229
f 1211 1081 1230
f 1229 1230 1081
f 1154 1211 1230
f 1231 1232 1233
f 1233 1212 1231
f 1154 1231 1212
f 1095 1233 1234
f 1235 1237 1098
f 1157 1172 1238
f 1238 1199 1157
f 1176 1238 1172
f 1238 1176 1199
f 1155 1198 1240
f 1263 1171 1239
f 1171 1240 1239
f 1207 1109 1210
f 1210 1152 1241
f 1131 1242 1243
f 1260 1246 1153
f 1152 1153 1246
f 1245 1248 1244
f 1248 1247 1244
f 1247 1148 1145
f 1247 1249 1148
f 1148 1249 1243
f 1250 1251 1206
f 1251 1205 1117
f 1145 1205 1252
f 1247 1145 1252
f 1255 1085 1145
f 1255 1253 1085
f 1255 1145 1148
f 1257 1146 1250
f 1258 1250 1256
f 1258 1257 1250
f 1146 1208 1247
f 1201 1017 1019
f 1020 1019 1254
f 1020 1254 1148
f 1019 1017 1254
f 1020 1148 1201
f 1019 1020 1201
f 1131 1243 1259
f 1260 1175 1267
f 1243 1260 1259
f 1261 1259 1260
f 1134 1263 1262
f 1265 1264 1266
f 1264 1262 1266
f 1267 1175 1264
f 1264 1265 1267
f 1266 1272 1273
f 1272 1266 1270
f 1271 1270 1269
f 1266 1273 1265
f 1269 1268 1271
f 1259 1269 1131
f 1270 1271 1272
f 1275 1198 1200
f 1200 1201 1275
f 1276 1263 1239
f 1276 1262 1263
f 1275 1276 1239
f 1275 1239 1198
f 1274 1275 1201
f 1208 1258 1256
f 1254 1255 1148
f 1252 1250 1247
f 1251 1252 1205
f 1251 1117 1206
f 1151 1245 1260
f 1242 1131 1274
f 1210 1244 1207
f 1241 1152 1244
f 1240 1171 1155
f 1239 1240 1198
f 1236 1161 1235
f 1232 1234 1233
f 1221 1181 1182
f 1221 1219 1220
f 1215 1218 1162
f 1215 1162 1161
f 1078 1217 1160
f 1228 1213 1159
f 1058 1227 1225
f 1208 1209 1247
f 1206 1256 1250
f 1203 1204 1117
f 1017 1253 1254
f 1202 1017 1201
f 1201 1147 1274
f 1197 1176 1236
f 1237 1235 1161
f 1191 1168 1170
f 1072 1190 1170
f 1188 1170 1189
f 1187 1194 1167
f 1184 1164 1029
f 1166 1189 1169
f 1179 1211 1225
f 1178 1179 1158
f 1177 1160 1236
f 1173 1211 1263
f 1051 1172 1156
f 1170 1169 1189
f 1170 1168 1169
f 1168 1192 1166
f 1165 1181 1222
f 1164 1090 1163
f 1164 1163 1161
f 1216 1161 1236
f 1225 1226 1179
f 1156 1157 1155
f 1210 1153 1152
f 1153 1175 1260
f 1260 1243 1151
f 1243 1242 1150
f 1207 1244 1247
f 1243 1150 1148
f 1146 1247 1250
f 1031 1072 1222
f 1165 1222 1072
f 1072 1070 1027
f 1190 1027 1191
f 1191 1069 1168
f 1192 1193 1023
f 1068 1023 1193
f 1193 1168 1068
f 1067 1026 1167
f 1167 1194 1067
f 1023 1194 1192
f 1069 1068 1168
f 1191 1170 1190
f 1027 1190 1072
f 1031 1222 1221
f 1218 1073 1221
f 1035 1213 1228
f 1228 1079 1035
f 1079 1228 1092
f 1215 1213 1077
f 1075 1218 1215
f 1215 1077 1075
f 1035 1077 1213
f 1212 1080 1058
f 1233 1093 1080
f 1080 1212 1233
f 1093 1233 1095
f 1234 1081 1095
f 1109 1081 1210
f 1227 1058 1092
f 1202 1201 1044
f 1017 1202 1044
f 1085 1253 1017
f 1205 1203 1117
f 1117 1084 1206
f 1206 1084 1256
f 1208 1256 1082
f 1208 1082 1083
f 1109 1208 1083
f 1120 1082 1256
f 1201 1087 1044
f 1201 1200 1087
f 1088 1087 1200
f 1200 1198 1088
f 1089 1088 1198
f 1198 1199 1089
f 1089 1199 1197
f 1197 1099 1089
f 1099 1197 1235
f 1098 1099 1235
f 1161 1163 1237
f 1163 1090 1237
f 1026 1090 1167
f 1178 1171 1054
f 1178 1037 1080
f 1080 1179 1178
f 1054 1037 1178
f 1080 1057 1211
f 1080 1211 1179
f 1263 1211 1057
f 1057 1056 1263
f 1263 1056 1054
f 1171 1263 1054
f 1034 1053 1176
f 1050 1034 1172
f 1176 1172 1034
f 1176 1053 1052
f 1052 1177 1176
f 1052 1160 1177
f 1214 1160 1052
f 1052 1050 1214
f 1172 1214 1050
f 1057 1211 1173
f 1057 1127 1211
f 1127 1125 1153
f 1127 1153 1174
f 1127 1174 1211
f 1264 1175 1040
f 1264 1126 1134
f 1134 1262 1264
f 1153 1125 1040
f 1040 1175 1153
f 1040 1126 1264
f 1134 1128 1263
f 1124 1057 1173
f 1128 1124 1263
f 1173 1263 1124
f 1128 1134 1262
f 1137 1141 1269
f 1139 1137 1269
f 1142 1139 1269
f 1133 1142 1270
f 1134 1133 1266
f 1266 1262 1134
f 1270 1266 1133
f 1269 1270 1142
f 1131 1269 1141
f 1130 1274 1131
f 1274 1130 1087
f 1087 1275 1274
f 1129 1128 1276
f 1087 1129 1276
f 1276 1275 1087
f 1262 1276 1128
f 1051 1034 1172
f 1034 1050 1172
f 1050 1180 1172
f 1051 1180 1055
f 1257 1258 1120
f 1146 1257 1122
f 1121 1122 1257
f 1208 1146 1122
f 1258 1208 1120
f 1122 1120 1208
f 1120 1121 1257
f 1254 1253 1119
f 1255 1254 1119
f 1253 1255 1085
f 1048 1085 1255
f 1119 1048 1255
f 1085 1119 1253
f 1252 1251 1118
f 1250 1252 1084
f 1251 1250 1084
f 1084 1118 1251
f 1118 1084 1252
f 1207 1209 1047
f 1208 1207 1083
f 1209 1208 1083
f 1047 1083 1207
f 1083 1047 1209
f 1249 1247 1042
f 1243 1249 1042
f 1248 1245 1151
f 1247 1248 1116
f 1116 1049 1247
f 1049 1042 1247
f 1151 1116 1248
f 1042 1151 1243
f 1260 1245 1107
f 1246 1260 1041
f 1152 1246 1115
f 1244 1152 1108
f 1245 1244 1107
f 1108 1107 1244
f 1115 1108 1152
f 1041 1115 1246
f 1107 1041 1260
f 1242 1243 1111
f 1243 1242 1114
f 1114 1112 1243
f 1111 1114 1242
f 1113 1111 1243
f 1112 1113 1243
f 1149 1201 1046
f 1201 1149 1045
f 1046 1045 1149
f 1045 1046 1201
f 1244 1210 1107
f 1241 1244 1108
f 1210 1241 1108
f 1110 1107 1210
f 1108 1110 1210
f 1107 1108 1244
f 1150 1147 1043
f 1147 1150 1043
f 1205 1204 1086
f 1203 1205 1086
f 1204 1203 1086
f 1240 1239 1104
f 1239 1240 1105
f 1105 1104 1239
f 1106 1105 1240
f 1104 1106 1240
f 1176 1238 1103
f 1238 1176 1101
f 1102 1100 1238
f 1101 1102 1238
f 1103 1101 1176
f 1100 1103 1238
f 1235 1197 1099
f 1236 1235 1099
f 1099 1096 1236
f 1197 1236 1096
f 1096 1097 1197
f 1097 1099 1197
f 1216 1217 1033
f 1213 1216 1033
f 1078 1213 1077
f 1033 1077 1213
f 1078 1033 1217
f 1154 1230 1057
f 1231 1154 1057
f 1232 1231 1057
f 1057 1093 1234
f 1234 1232 1057
f 1229 1234 1095
f 1095 1094 1229
f 1230 1229 1094
f 1093 1095 1234
f 1094 1057 1230
f 1158 1226 1036
f 1228 1158 1036
f 1092 1228 1079
f 1225 1227 1092
f 1092 1226 1225
f 1036 1079 1228
f 1223 1222 1059
f 1224 1223 1059
f 1222 1224 1059
f 1031 1059 1222
f 1059 1031 1222
f 1188 1189 1066
f 1072 1188 1071
f 1072 1066 1189
f 1071 1070 1072
f 1066 1071 1188
f 1169 1170 1024
f 1170 1169 1024
f 1025 1024 1170
f 1024 1025 1170
f 1194 1187 1064
f 1186 1194 1065
f 1187 1186 1065
f 1064 1065 1194
f 1065 1064 1187
f 1195 1184 1090
f 1196 1195 1090
f 1183 1196 1062
f 1184 1183 1061
f 1061 1091 1184
f 1062 1061 1183
f 1063 1062 1196
f 1090 1063 1196
f 1091 1090 1184
f 1182 1220 1076
f 1219 1076 1220
f 1074 1219 1182
f 1076 1074 1182
f 1182 1181 1029
f 1166 1185 1024
f 1189 1166 1024
f 1181 1189 1030
f 1030 1029 1181
f 1060 1030 1189
f 1024 1060 1189
f 1061 1024 1185
f 1029 1061 1185
f 1269 1259 1140
f 1268 1269 1140
f 1271 1268 1136
f 1272 1271 1144
f 1273 1272 1138
f 1265 1273 1138
f 1267 1265 1132
f 1260 1267 1123
f 1261 1260 1123
f 1259 1261 1123
f 1132 1123 1267
f 1138 1132 1265
f 1144 1138 1272
f 1143 1144 1271
f 1135 1143 1271
f 1136 1135 1271
f 1140 1136 1268
f 1123 1140 1259

