# https://github.com/mikedh/trimesh
v 0.00196193 0.00795715 0.02838056
v 0.00001812 0.00495709 0.03903340
v 0.00151257 0.00495708 0.03894717
v 0.00298927 0.00495707 0.03870187
v 0.00978635 0.00495704 0.03498490
v 0.00407925 0.00495707 0.03839834
v 0.00582230 0.00495706 0.03774705
v 0.00714623 0.00495705 0.03704846
v 0.00838800 0.00495705 0.03621250
v 0.00953341 0.00495704 0.03524873
v 0.00443134 0.00495706 0.03830030
v 0.01056938 0.00495704 0.03416817
v 0.01148405 0.00495704 0.03298318
v 0.01226697 0.00495705 0.03170730
v 0.01226689 -0.00504295 0.03170724
v 0.01056930 -0.00504296 0.03416811
v 0.00953333 -0.00504296 0.03524866
v 0.00838792 -0.00504295 0.03621243
v 0.00714615 -0.00504295 0.03704839
v 0.00582222 -0.00504294 0.03774698
v 0.00443127 -0.00504294 0.03830023
v 0.00298919 -0.00504293 0.03870180
v 0.00151249 -0.00504292 0.03894710
v 0.00001804 -0.00504291 0.03903333
v 0.01148397 -0.00504296 0.03298311
v 0.00201313 -0.00804285 0.02846627
v -0.01710915 0.00795723 0.03956368
v -0.01710928 -0.00804277 0.03956357
v -0.01739880 0.00795723 0.03970213
v -0.01739893 -0.00804277 0.03970202
v -0.01770158 0.00795723 0.03980884
v -0.01770171 -0.00804277 0.03980873
v -0.01801404 0.00795723 0.03988258
v -0.01801416 -0.00804277 0.03988247
v -0.01833258 0.00795723 0.03992251
v -0.01833271 -0.00804277 0.03992240
v -0.01865357 0.00795724 0.03992818
v -0.01887127 0.00795724 0.03991241
v -0.01897316 0.00795297 0.03989834
v -0.01897338 -0.00803956 0.03989896
v -0.01895679 -0.00804093 0.03990175
v -0.01887139 -0.00804276 0.03991231
v -0.01917384 -0.00801960 0.03986250
v -0.01912852 -0.00802678 0.03987291
v -0.01917399 0.00793338 0.03986204
v -0.01924138 0.00792488 0.03984839
v -0.01902031 0.00795099 0.03989183
v -0.01904131 0.00795011 0.03988892
v -0.01948993 -0.00795622 0.03977757
v -0.01930695 -0.00799851 0.03983190
v -0.01959466 -0.00792639 0.03974073
v -0.01933074 0.00790618 0.03982371
v -0.01944639 0.00788196 0.03979178
v -0.01949213 0.00787016 0.03977698
v -0.01949225 -0.00795568 0.03977688
v -0.01959648 -0.00792587 0.03974009
v -0.01988799 -0.00781955 0.03961062
v -0.01971541 0.00780144 0.03969277
v -0.01981805 -0.00784931 0.03964699
v -0.01988771 0.00773361 0.03961024
v -0.02003967 -0.00775499 0.03953175
v -0.02012795 0.00762440 0.03947553
v -0.01996547 0.00770299 0.03957300
v -0.02026013 -0.00764322 0.03939210
v -0.02028223 0.00754433 0.03937482
v -0.02020941 0.00758500 0.03942667
v -0.02026001 0.00755772 0.03939221
v -0.02042833 -0.00754512 0.03926589
v -0.02043082 -0.00754367 0.03926402
v -0.02052307 0.00739921 0.03918641
v -0.02057364 0.00736299 0.03913689
v -0.02066070 -0.00738967 0.03905797
v -0.02088118 -0.00721592 0.03881220
v -0.02071001 0.00726534 0.03900337
v -0.02076017 0.00722942 0.03895425
v -0.02087266 -0.00722374 0.03882391
v -0.02083890 -0.00725017 0.03886119
v -0.02087816 0.00712991 0.03880987
v -0.02091984 -0.00718048 0.03875906
v -0.02106402 -0.00704830 0.03856089
v -0.02106391 0.00696282 0.03856099
v -0.02106948 0.00695726 0.03855236
v -0.02106959 -0.00704274 0.03855227
v -0.02095908 0.00706166 0.03871085
v -0.02097047 0.00705205 0.03869691
v -0.01865370 -0.00804276 0.03992807
v 0.02188780 -0.00804292 0.01568002
v 0.02188793 0.00795708 0.01568013
v 0.02173110 0.00795708 0.01596025
v 0.02173097 -0.00804292 0.01596015
v 0.02154523 0.00795708 0.01622201
v 0.02154510 -0.00804292 0.01622191
v 0.02133246 0.00795708 0.01646241
v 0.02133233 -0.00804292 0.01646230
v 0.02109521 0.00795708 0.01667870
v 0.02109508 -0.00804292 0.01667859
v 0.02083621 0.00795708 0.01686839
v 0.02083608 -0.00804292 0.01686829
v 0.02181862 0.00695710 0.01290081
v 0.02189903 -0.00713769 0.01305631
v 0.02182348 -0.00704846 0.01290970
v 0.02190592 -0.00714730 0.01307294
v 0.02182359 0.00696266 0.01290979
v 0.02195488 -0.00721555 0.01319108
v 0.02192998 0.00709484 0.01313056
v 0.02195851 0.00713028 0.01318976
v 0.02198167 0.00716452 0.01325019
v 0.02196480 0.00713809 0.01320281
v 0.02202627 -0.00731507 0.01336333
v 0.02214354 0.00745801 0.01380029
v 0.02211865 -0.00748487 0.01368205
v 0.02209895 -0.00744864 0.01361406
v 0.02207075 0.00730402 0.01350028
v 0.02217564 0.00755756 0.01401126
v 0.02217072 -0.00762999 0.01398336
v 0.02218195 -0.00767066 0.01407204
v 0.02217552 -0.00764338 0.01401116
v 0.02214401 0.00745946 0.01380336
v 0.02218647 -0.00771007 0.01416692
v 0.02219439 0.00766933 0.01427155
v 0.02218360 0.00760502 0.01412179
v 0.02219151 -0.00781927 0.01444230
v 0.02219548 -0.00778866 0.01435618
v 0.02216830 0.00784020 0.01476058
v 0.02219213 0.00773388 0.01444250
v 0.02218271 -0.00788711 0.01463314
v 0.02219108 0.00776364 0.01452132
v 0.02216800 0.00784072 0.01476248
v 0.02211610 -0.00799185 0.01503400
v 0.02214268 -0.00796764 0.01491699
v 0.02215128 -0.00795584 0.01486970
v 0.02215091 0.00787054 0.01487219
v 0.02211223 0.00791283 0.01505910
v 0.02215140 0.00787000 0.01486981
v 0.02210715 0.00791580 0.01507766
v 0.02201270 -0.00803865 0.01538433
v 0.02207621 0.00793392 0.01519085
v 0.02206395 0.00794110 0.01523571
v 0.02202891 0.00794998 0.01533923
v 0.02209557 -0.00801056 0.01512440
v 0.02202926 -0.00803667 0.01533971
v 0.02203664 -0.00803579 0.01531985
v 0.02197690 -0.00804292 0.01548077
v 0.02201351 0.00795388 0.01538471
v 0.02200812 0.00795525 0.01540064
v 0.02197703 0.00795708 0.01548088
v 0.02181851 -0.00704290 0.01290071
v -0.02228401 -0.00704271 0.03644424
v -0.02228390 0.00695729 0.03644433
v -0.02338039 -0.00704269 0.03399049
v -0.02338028 0.00695731 0.03399058
v -0.02424854 -0.00704266 0.03123370
v -0.02420703 -0.00704266 0.03143323
v -0.02420692 0.00695734 0.03143332
v -0.02475438 -0.00704264 0.02880201
v -0.02475427 0.00695736 0.02880210
v -0.02424843 0.00695734 0.03123380
v -0.02501600 0.00695738 0.02612733
v -0.02501612 -0.00704262 0.02612723
v -0.02497128 -0.00704260 0.02328803
v -0.02498921 -0.00704260 0.02343982
v -0.02498910 0.00695740 0.02343991
v -0.02467398 -0.00704259 0.02077082
v -0.02467387 0.00695741 0.02077092
v -0.02497117 0.00695740 0.02328813
v -0.02403524 -0.00704257 0.01803873
v -0.02407406 -0.00704257 0.01815109
v -0.02407395 0.00695743 0.01815118
v -0.02315297 -0.00704256 0.01551872
v -0.02319638 -0.00704256 0.01561089
v -0.02319627 0.00695744 0.01561098
v -0.02403513 0.00695743 0.01803883
v -0.02200688 -0.00704256 0.01310710
v -0.02205110 -0.00704256 0.01317958
v -0.02205099 0.00695744 0.01317968
v -0.02315285 0.00695744 0.01551881
v -0.02065144 -0.00704255 0.01088527
v -0.02065133 0.00695745 0.01088536
v -0.02200677 0.00695744 0.01310720
v -0.01901348 0.00695745 0.00875456
v -0.01901359 -0.00704255 0.00875446
v -0.01713049 -0.00704255 0.00678990
v -0.01715646 -0.00704255 0.00681178
v -0.01715635 0.00695745 0.00681188
v -0.01508744 -0.00704256 0.00507020
v -0.01510153 -0.00704256 0.00507969
v -0.01510141 0.00695744 0.00507978
v -0.01713038 0.00695745 0.00678999
v -0.01508733 0.00695744 0.00507030
v -0.01287242 0.00695744 0.00357828
v -0.01287253 -0.00704256 0.00357819
v -0.01051014 0.00695743 0.00233266
v -0.00802868 -0.00704259 0.00134606
v -0.01049523 -0.00704257 0.00232464
v -0.01049512 0.00695743 0.00232474
v -0.01051025 -0.00704257 0.00233256
v -0.00799711 -0.00704259 0.00133354
v -0.00799700 0.00695741 0.00133363
v -0.00802857 0.00695741 0.00134615
v -0.00540703 -0.00704260 0.00061632
v -0.00540692 0.00695740 0.00061641
v -0.00015622 -0.00704264 0.00003813
v -0.00275492 -0.00704262 0.00018128
v -0.00275481 0.00695738 0.00018138
v -0.00007133 0.00695736 0.00003355
v 0.00251076 0.00695734 0.00016929
v 0.00251065 -0.00704266 0.00016920
v -0.00015611 0.00695736 0.00003822
v -0.00007144 -0.00704264 0.00003346
v 0.00261240 -0.00704266 0.00017455
v 0.00261251 0.00695734 0.00017464
v 0.00514835 0.00695731 0.00058407
v 0.00526559 -0.00704269 0.00060292
v 0.00526570 0.00695731 0.00060302
v 0.00514824 -0.00704269 0.00058397
v 0.01021586 -0.00704274 0.00224245
v 0.00785746 -0.00704271 0.00131363
v 0.00785757 0.00695729 0.00131372
v 0.01035807 -0.00704274 0.00229846
v 0.01035818 0.00695726 0.00229856
v 0.01021597 0.00695726 0.00224255
v 0.01273861 0.00695723 0.00354613
v 0.01273850 -0.00704277 0.00354603
v 0.01687439 -0.00704282 0.00663791
v 0.01497126 -0.00704279 0.00504193
v 0.01497137 0.00695721 0.00504202
v 0.01703065 0.00695718 0.00676896
v 0.01687450 0.00695718 0.00663800
v 0.01703054 -0.00704282 0.00676886
v 0.01889254 -0.00704285 0.00870687
v 0.01889265 0.00695715 0.00870696
v 0.02053574 -0.00704288 0.01083356
v 0.02053585 0.00695712 0.01083365
v 0.01979873 -0.00803740 0.01134217
v 0.02034999 -0.00804289 0.01244031
v 0.02115381 -0.00803742 0.01355091
v 0.02106190 -0.00804290 0.01360071
v 0.01821439 -0.00803737 0.00929166
v 0.01971270 -0.00804287 0.01140155
v 0.01869561 -0.00804286 0.01008519
v 0.01641908 -0.00803734 0.00742307
v 0.01725339 -0.00804283 0.00844209
v 0.01660352 -0.00804283 0.00776569
v 0.01813523 -0.00804285 0.00935993
v 0.01634771 -0.00804282 0.00749944
v 0.01480081 -0.00804280 0.00620219
v 0.01443357 -0.00803732 0.00575800
v 0.01228078 -0.00803729 0.00431568
v 0.01356346 -0.00804278 0.00530068
v 0.01231079 -0.00804277 0.00446143
v 0.01437080 -0.00804279 0.00584158
v 0.01222735 -0.00804277 0.00440552
v 0.00994213 -0.00804274 0.00320785
v 0.00757457 -0.00803724 0.00216324
v 0.00998561 -0.00803726 0.00311280
v 0.00754155 -0.00804272 0.00226242
v 0.00505335 -0.00804269 0.00158013
v 0.00507554 -0.00803721 0.00147799
v 0.00250629 -0.00804267 0.00116889
v -0.00007033 -0.00803717 0.00092892
v 0.00251738 -0.00803719 0.00106496
v 0.00153183 -0.00804266 0.00111767
v -0.00265769 -0.00803715 0.00107145
v -0.00134421 -0.00804264 0.00110363
v -0.00007020 -0.00804265 0.00103345
v -0.00521480 -0.00803713 0.00149091
v -0.00264634 -0.00804263 0.00117536
v -0.00771210 -0.00803712 0.00218243
v -0.00638909 -0.00804260 0.00192438
v -0.00519236 -0.00804261 0.00159300
v -0.01012075 -0.00803710 0.00313804
v -0.00767883 -0.00804260 0.00228153
v -0.01241289 -0.00803709 0.00434669
v -0.01007703 -0.00804258 0.00323299
v -0.01456205 -0.00803709 0.00579440
v -0.01235924 -0.00804257 0.00443639
v -0.01654338 -0.00803708 0.00746446
v -0.01449908 -0.00804257 0.00587783
v -0.01833399 -0.00803708 0.00933755
v -0.01813840 -0.00804256 0.00928400
v -0.01647181 -0.00804256 0.00754064
v -0.01825465 -0.00804256 0.00940561
v -0.01982700 -0.00804256 0.01145119
v -0.02126270 -0.00803709 0.01360417
v -0.01991318 -0.00803708 0.01139203
v -0.02117067 -0.00804257 0.01365373
v -0.02236696 -0.00803710 0.01594839
v -0.02227014 -0.00804257 0.01598778
v -0.02311270 -0.00804258 0.01842637
v -0.02321319 -0.00803710 0.01839760
v -0.02368863 -0.00804260 0.02094132
v -0.02379163 -0.00803712 0.02092350
v -0.02409557 -0.00803713 0.02349689
v -0.02399125 -0.00804261 0.02350356
v -0.02401708 -0.00804263 0.02608348
v -0.02412151 -0.00803715 0.02608805
v -0.02400730 -0.00804263 0.02618344
v -0.02386046 -0.00804264 0.02768408
v -0.02386915 -0.00803717 0.02866701
v -0.02334140 -0.00803719 0.03120399
v -0.02365152 -0.00804265 0.02920070
v -0.02376582 -0.00804265 0.02865126
v -0.02312679 -0.00804267 0.03152855
v -0.02283828 -0.00804268 0.03242109
v -0.02254437 -0.00803721 0.03366965
v -0.02324036 -0.00804267 0.03117723
v -0.02207289 -0.00804270 0.03446900
v -0.02148727 -0.00803724 0.03603551
v -0.02244678 -0.00804269 0.03363220
v -0.02018230 -0.00803726 0.03827422
v -0.02078054 -0.00804273 0.03704065
v -0.02139426 -0.00804272 0.03598780
v 0.02124471 -0.00802105 0.01350167
v 0.01988382 -0.00802102 0.01128345
v 0.01829268 -0.00802100 0.00922415
v 0.01648968 -0.00802097 0.00734754
v 0.01449564 -0.00802094 0.00567532
v 0.01233363 -0.00802092 0.00422683
v 0.01002861 -0.00802089 0.00301878
v 0.00760723 -0.00802086 0.00206515
v 0.00509748 -0.00802084 0.00137696
v 0.00252835 -0.00802082 0.00096216
v -0.00007046 -0.00802079 0.00082554
v -0.00266891 -0.00802077 0.00096868
v -0.00523699 -0.00802076 0.00138993
v -0.00774501 -0.00802074 0.00208443
v -0.01016398 -0.00802073 0.00304413
v -0.01246596 -0.00802072 0.00425796
v -0.01462433 -0.00802071 0.00571189
v -0.01661416 -0.00802071 0.00738910
v -0.01841245 -0.00802071 0.00927023
v -0.01999841 -0.00802071 0.01133353
v -0.02135372 -0.00802071 0.01355515
v -0.02246272 -0.00802072 0.01590942
v -0.02331258 -0.00802073 0.01836914
v -0.02389350 -0.00802074 0.02090587
v -0.02419874 -0.00802076 0.02349030
v -0.02422479 -0.00802077 0.02609257
v -0.02397135 -0.00802079 0.02868260
v -0.02344134 -0.00802082 0.03123045
v -0.02264089 -0.00802084 0.03370669
v -0.02157925 -0.00802086 0.03608269
v 0.02133360 -0.00799396 0.01345350
v 0.01996703 -0.00799393 0.01122603
v 0.01836925 -0.00799391 0.00915812
v 0.01655871 -0.00799388 0.00727368
v 0.01455635 -0.00799385 0.00559448
v 0.01238531 -0.00799382 0.00413992
v 0.01007066 -0.00799380 0.00292683
v 0.00763917 -0.00799377 0.00196922
v 0.00511894 -0.00799375 0.00127816
v 0.00253908 -0.00799372 0.00086162
v -0.00007058 -0.00799370 0.00072443
v -0.00267989 -0.00799368 0.00086817
v -0.00525870 -0.00799367 0.00129119
v -0.00777719 -0.00799365 0.00198858
v -0.01020627 -0.00799364 0.00295229
v -0.01251786 -0.00799363 0.00417119
v -0.01468524 -0.00799362 0.00563119
v -0.01668338 -0.00799362 0.00731541
v -0.01848918 -0.00799361 0.00920439
v -0.02008177 -0.00799362 0.01127631
v -0.02144274 -0.00799362 0.01350721
v -0.02255637 -0.00799363 0.01587132
v -0.02340978 -0.00799364 0.01834131
v -0.02399312 -0.00799365 0.02088863
v -0.02429964 -0.00799367 0.02348386
v -0.02432580 -0.00799368 0.02609700
v -0.02407130 -0.00799370 0.02869784
v -0.02353908 -0.00799372 0.03125634
v -0.02273529 -0.00799375 0.03374292
v -0.02166921 -0.00799377 0.03612884
v -0.02026869 -0.00802089 0.03833101
v 0.02141952 -0.00795645 0.01340695
v 0.02004746 -0.00795642 0.01117052
v 0.01844325 -0.00795639 0.00909430
v 0.01662544 -0.00795637 0.00720228
v 0.01461503 -0.00795634 0.00551633
v 0.01243525 -0.00795631 0.00405594
v 0.01011131 -0.00795629 0.00283797
v 0.00767004 -0.00795626 0.00187651
v 0.00513967 -0.00795624 0.00118266
v 0.00254945 -0.00795621 0.00076445
v -0.00007071 -0.00795619 0.00062671
v -0.00269051 -0.00795617 0.00077103
v -0.00527967 -0.00795615 0.00119575
v -0.00780829 -0.00795614 0.00189594
v -0.01024713 -0.00795613 0.00286353
v -0.01256802 -0.00795612 0.00408733
v -0.01474412 -0.00795611 0.00555319
v -0.01675029 -0.00795610 0.00724419
v -0.01856334 -0.00795610 0.00914076
v -0.02016233 -0.00795610 0.01122101
v -0.02152878 -0.00795611 0.01346088
v -0.02264688 -0.00795612 0.01583449
v -0.02350372 -0.00795613 0.01831440
v -0.02408941 -0.00795614 0.02087197
v -0.02439716 -0.00795615 0.02347763
v -0.02442343 -0.00795617 0.02610127
v -0.02416790 -0.00795619 0.02871257
v -0.02363354 -0.00795621 0.03128135
v -0.02282652 -0.00795624 0.03377793
v -0.02175616 -0.00795626 0.03617345
v -0.02035318 -0.00799380 0.03838654
v 0.02150152 -0.00790893 0.01336253
v 0.02012422 -0.00790890 0.01111755
v 0.01851388 -0.00790887 0.00903339
v 0.01668912 -0.00790885 0.00713415
v 0.01467103 -0.00790882 0.00544175
v 0.01248293 -0.00790879 0.00397578
v 0.01015010 -0.00790877 0.00275316
v 0.00769950 -0.00790874 0.00178802
v 0.00515947 -0.00790872 0.00109152
v 0.00255934 -0.00790869 0.00067172
v -0.00007082 -0.00790867 0.00053345
v -0.00270063 -0.00790865 0.00067832
v -0.00529970 -0.00790863 0.00110466
v -0.00783797 -0.00790862 0.00180753
v -0.01028614 -0.00790860 0.00277881
v -0.01261589 -0.00790859 0.00400729
v -0.01480030 -0.00790859 0.00547876
v -0.01681414 -0.00790858 0.00717621
v -0.01863412 -0.00790858 0.00908004
v -0.02023922 -0.00790858 0.01116823
v -0.02161089 -0.00790859 0.01341665
v -0.02273327 -0.00790859 0.01579933
v -0.02359338 -0.00790860 0.01828873
v -0.02418131 -0.00790862 0.02085607
v -0.02449023 -0.00790863 0.02347169
v -0.02451660 -0.00790865 0.02610535
v -0.02426010 -0.00790867 0.02872663
v -0.02372370 -0.00790869 0.03130523
v -0.02291359 -0.00790872 0.03381134
v -0.02183914 -0.00790874 0.03621601
v -0.02043483 -0.00795629 0.03844022
v 0.02157871 -0.00785192 0.01332071
v 0.02019647 -0.00785189 0.01106769
v 0.01858036 -0.00785187 0.00897606
v 0.01674906 -0.00785184 0.00707001
v 0.01472374 -0.00785181 0.00537156
v 0.01252780 -0.00785178 0.00390033
v 0.01018661 -0.00785176 0.00267332
v 0.00772724 -0.00785173 0.00170473
v 0.00517810 -0.00785171 0.00100574
v 0.00256866 -0.00785168 0.00058443
v -0.00007093 -0.00785166 0.00044567
v -0.00271017 -0.00785164 0.00059106
v -0.00531854 -0.00785162 0.00101892
v -0.00786591 -0.00785161 0.00172431
v -0.01032285 -0.00785160 0.00269907
v -0.01266095 -0.00785159 0.00393195
v -0.01485319 -0.00785158 0.00540869
v -0.01687424 -0.00785157 0.00711223
v -0.01870075 -0.00785157 0.00902287
v -0.02031160 -0.00785157 0.01111855
v -0.02168818 -0.00785158 0.01337503
v -0.02281458 -0.00785159 0.01576625
v -0.02367778 -0.00785160 0.01826456
v -0.02426781 -0.00785161 0.02084110
v -0.02457784 -0.00785162 0.02346609
v -0.02460430 -0.00785164 0.02610919
v -0.02434688 -0.00785166 0.02873986
v -0.02380856 -0.00785168 0.03132770
v -0.02299555 -0.00785171 0.03384279
v -0.02191725 -0.00785173 0.03625608
v -0.02051277 -0.00790877 0.03849145
v 0.02165023 -0.00778605 0.01328196
v 0.02026342 -0.00778602 0.01102148
v 0.01864197 -0.00778599 0.00892294
v 0.01680461 -0.00778597 0.00701058
v 0.01477259 -0.00778594 0.00530651
v 0.01256938 -0.00778591 0.00383041
v 0.01022044 -0.00778588 0.00259935
v 0.00775293 -0.00778586 0.00162755
v 0.00519536 -0.00778583 0.00092625
v 0.00257729 -0.00778581 0.00050354
v -0.00007103 -0.00778579 0.00036432
v -0.00271900 -0.00778577 0.00051019
v -0.00533600 -0.00778575 0.00093947
v -0.00789181 -0.00778574 0.00164719
v -0.01035687 -0.00778572 0.00262518
v -0.01270270 -0.00778571 0.00386214
v -0.01490220 -0.00778570 0.00534377
v -0.01692994 -0.00778570 0.00705294
v -0.01876248 -0.00778570 0.00896991
v -0.02037866 -0.00778570 0.01107251
v -0.02175980 -0.00778571 0.01333646
v -0.02288992 -0.00778571 0.01573559
v -0.02375598 -0.00778572 0.01824217
v -0.02434796 -0.00778574 0.02082723
v -0.02465902 -0.00778575 0.02346091
v -0.02468557 -0.00778577 0.02611275
v -0.02442730 -0.00778579 0.02875213
v -0.02388719 -0.00778581 0.03134852
v -0.02307149 -0.00778583 0.03387194
v -0.02198962 -0.00778586 0.03629321
v -0.02058612 -0.00785176 0.03853967
v 0.02171531 -0.00771203 0.01324670
v 0.02032434 -0.00771201 0.01097945
v 0.01869802 -0.00771198 0.00887461
v 0.01685515 -0.00771195 0.00695651
v 0.01481703 -0.00771192 0.00524732
v 0.01260721 -0.00771190 0.00376680
v 0.01025123 -0.00771187 0.00253204
v 0.00777632 -0.00771184 0.00155733
v 0.00521107 -0.00771182 0.00085392
v 0.00258514 -0.00771180 0.00042995
v -0.00007113 -0.00771177 0.00029031
v -0.00272704 -0.00771175 0.00043662
v -0.00535189 -0.00771174 0.00086718
v -0.00791536 -0.00771172 0.00157703
v -0.01038782 -0.00771171 0.00255795
v -0.01274069 -0.00771170 0.00379862
v -0.01494679 -0.00771169 0.00528469
v -0.01698061 -0.00771169 0.00699899
v -0.01881866 -0.00771168 0.00892171
v -0.02043968 -0.00771169 0.01103063
v -0.02182496 -0.00771169 0.01330137
v -0.02295848 -0.00771170 0.01570769
v -0.02382713 -0.00771171 0.01822179
v -0.02442089 -0.00771172 0.02081461
v -0.02473288 -0.00771174 0.02345619
v -0.02475951 -0.00771175 0.02611599
v -0.02450046 -0.00771177 0.02876328
v -0.02395874 -0.00771180 0.03136747
v -0.02314059 -0.00771182 0.03389846
v -0.02205548 -0.00771184 0.03632699
v -0.02065410 -0.00778588 0.03858436
v 0.02177323 -0.00763069 0.01321532
v 0.02037855 -0.00763066 0.01094203
v 0.01874790 -0.00763063 0.00883159
v 0.01690013 -0.00763061 0.00690839
v 0.01485658 -0.00763058 0.00519465
v 0.01264088 -0.00763055 0.00371018
v 0.01027863 -0.00763052 0.00247214
v 0.00779712 -0.00763050 0.00149483
v 0.00522505 -0.00763047 0.00078955
v 0.00259213 -0.00763045 0.00036445
v -0.00007121 -0.00763043 0.00022444
v -0.00273419 -0.00763041 0.00037113
v -0.00536603 -0.00763039 0.00080285
v -0.00793633 -0.00763037 0.00151458
v -0.01041537 -0.00763036 0.00249812
v -0.01277450 -0.00763035 0.00374209
v -0.01498647 -0.00763034 0.00523212
v -0.01702571 -0.00763034 0.00695098
v -0.01886865 -0.00763034 0.00887882
v -0.02049399 -0.00763034 0.01099335
v -0.02188296 -0.00763034 0.01327014
v -0.02301949 -0.00763035 0.01568287
v -0.02389046 -0.00763036 0.01820366
v -0.02448580 -0.00763037 0.02080338
v -0.02479862 -0.00763039 0.02345199
v -0.02482532 -0.00763041 0.02611887
v -0.02456558 -0.00763043 0.02877321
v -0.02402242 -0.00763045 0.03138433
v -0.02320209 -0.00763047 0.03392206
v -0.02211409 -0.00763050 0.03635706
v -0.02071594 -0.00771187 0.03862502
v 0.02182336 -0.00754290 0.01318817
v 0.02042547 -0.00754288 0.01090965
v 0.01879108 -0.00754285 0.00879436
v 0.01693906 -0.00754282 0.00686674
v 0.01489081 -0.00754279 0.00514906
v 0.01267002 -0.00754277 0.00366118
v 0.01030234 -0.00754274 0.00242030
v 0.00781513 -0.00754271 0.00144074
v 0.00523715 -0.00754269 0.00073384
v 0.00259818 -0.00754266 0.00030776
v -0.00007128 -0.00754264 0.00016743
v -0.00274038 -0.00754262 0.00031446
v -0.00537827 -0.00754260 0.00074717
v -0.00795447 -0.00754259 0.00146054
v -0.01043921 -0.00754258 0.00244634
v -0.01280376 -0.00754257 0.00369316
v -0.01502082 -0.00754256 0.00518662
v -0.01706474 -0.00754255 0.00690943
v -0.01891191 -0.00754255 0.00884170
v -0.02054099 -0.00754255 0.01096109
v -0.02193315 -0.00754256 0.01324310
v -0.02307229 -0.00754257 0.01566138
v -0.02394526 -0.00754258 0.01818797
v -0.02454197 -0.00754259 0.02079366
v -0.02485551 -0.00754260 0.02344836
v -0.02488227 -0.00754262 0.02612137
v -0.02462194 -0.00754264 0.02878181
v -0.02407752 -0.00754266 0.03139893
v -0.02325531 -0.00754269 0.03394248
v -0.02216481 -0.00754271 0.03638308
v -0.02077099 -0.00763052 0.03866120
v 0.02186514 -0.00744964 0.01316553
v 0.02046458 -0.00744961 0.01088266
v 0.01882706 -0.00744959 0.00876333
v 0.01697150 -0.00744956 0.00683202
v 0.01491935 -0.00744953 0.00511106
v 0.01269431 -0.00744950 0.00362034
v 0.01032210 -0.00744948 0.00237708
v 0.00783015 -0.00744945 0.00139565
v 0.00524724 -0.00744942 0.00068740
v 0.00260322 -0.00744940 0.00026051
v -0.00007134 -0.00744938 0.00011991
v -0.00274554 -0.00744936 0.00026722
v -0.00538847 -0.00744934 0.00070076
v -0.00796960 -0.00744932 0.00141549
v -0.01045908 -0.00744931 0.00240317
v -0.01282816 -0.00744930 0.00365238
v -0.01504944 -0.00744929 0.00514869
v -0.01709727 -0.00744929 0.00687479
v -0.01894798 -0.00744929 0.00881075
v -0.02058017 -0.00744929 0.01093419
v -0.02197499 -0.00744929 0.01322057
v -0.02311631 -0.00744930 0.01564347
v -0.02399095 -0.00744931 0.01817489
v -0.02458879 -0.00744932 0.02078556
v -0.02490294 -0.00744934 0.02344533
v -0.02492975 -0.00744936 0.02612345
v -0.02466892 -0.00744938 0.02878897
v -0.02412346 -0.00744940 0.03141109
v -0.02329968 -0.00744942 0.03395951
v -0.02220709 -0.00744945 0.03640477
v -0.02081862 -0.00754274 0.03869252
v 0.02189812 -0.00735192 0.01314766
v 0.02049546 -0.00735189 0.01086135
v 0.01885547 -0.00735187 0.00873883
v 0.01699712 -0.00735184 0.00680462
v 0.01494187 -0.00735181 0.00508107
v 0.01271348 -0.00735178 0.00358810
v 0.01033771 -0.00735176 0.00234297
v 0.00784200 -0.00735173 0.00136006
v 0.00525520 -0.00735170 0.00065075
v 0.00260720 -0.00735168 0.00022321
v -0.00007138 -0.00735166 0.00008240
v -0.00274961 -0.00735164 0.00022994
v -0.00539652 -0.00735162 0.00066412
v -0.00798153 -0.00735160 0.00137993
v -0.01047477 -0.00735159 0.00236910
v -0.01284741 -0.00735158 0.00362019
v -0.01507204 -0.00735157 0.00511875
v -0.01712295 -0.00735157 0.00684746
v -0.01897645 -0.00735157 0.00878633
v -0.02061110 -0.00735157 0.01091297
v -0.02200801 -0.00735157 0.01320279
v -0.02315105 -0.00735158 0.01562933
v -0.02402701 -0.00735159 0.01816456
v -0.02462575 -0.00735160 0.02077917
v -0.02494037 -0.00735162 0.02344294
v -0.02496722 -0.00735164 0.02612509
v -0.02470600 -0.00735166 0.02879463
v -0.02415972 -0.00735168 0.03142070
v -0.02333470 -0.00735170 0.03397295
v -0.02224047 -0.00735173 0.03642190
v -0.02085833 -0.00744948 0.03871862
v 0.02192194 -0.00725082 0.01313476
v 0.02051776 -0.00725079 0.01084597
v 0.01887599 -0.00725076 0.00872114
v 0.01701562 -0.00725073 0.00678482
v 0.01495814 -0.00725071 0.00505940
v 0.01272733 -0.00725068 0.00356481
v 0.01034898 -0.00725065 0.00231833
v 0.00785056 -0.00725062 0.00133436
v 0.00526095 -0.00725060 0.00062427
v 0.00261008 -0.00725058 0.00019627
v -0.00007142 -0.00725055 0.00005531
v -0.00275255 -0.00725053 0.00020301
v -0.00540234 -0.00725051 0.00063766
v -0.00799016 -0.00725050 0.00135425
v -0.01048610 -0.00725049 0.00234449
v -0.01286131 -0.00725048 0.00359694
v -0.01508836 -0.00725047 0.00509713
v -0.01714150 -0.00725046 0.00682771
v -0.01899701 -0.00725046 0.00876869
v -0.02063343 -0.00725046 0.01089764
v -0.02203186 -0.00725047 0.01318994
v -0.02317615 -0.00725048 0.01561912
v -0.02405305 -0.00725049 0.01815710
v -0.02465245 -0.00725050 0.02077455
v -0.02496740 -0.00725052 0.02344121
v -0.02499429 -0.00725053 0.02612628
v -0.02473278 -0.00725055 0.02879871
v -0.02418591 -0.00725058 0.03142763
v -0.02335999 -0.00725060 0.03398266
v -0.02226457 -0.00725062 0.03643426
v -0.02088967 -0.00735176 0.03873923
v 0.02053123 -0.00714741 0.01083667
v 0.01888839 -0.00714738 0.00871045
v 0.01702680 -0.00714735 0.00677286
v 0.01496797 -0.00714732 0.00504631
v 0.01273570 -0.00714729 0.00355074
v 0.01035579 -0.00714727 0.00230344
v 0.00785573 -0.00714724 0.00131883
v 0.00526443 -0.00714722 0.00060827
v 0.00261182 -0.00714719 0.00017999
v -0.00007144 -0.00714717 0.00003893
v -0.00275433 -0.00714715 0.00018673
v -0.00540585 -0.00714713 0.00062167
v -0.00799537 -0.00714712 0.00133873
v -0.01049294 -0.00714710 0.00232962
v -0.01286972 -0.00714709 0.00358289
v -0.01509823 -0.00714709 0.00508406
v -0.01715271 -0.00714708 0.00681578
v -0.01900943 -0.00714708 0.00875803
v -0.02064693 -0.00714708 0.01088837
v -0.02204628 -0.00714709 0.01318218
v -0.02319131 -0.00714709 0.01561295
v -0.02406879 -0.00714710 0.01815260
v -0.02466858 -0.00714712 0.02077176
v -0.02498374 -0.00714713 0.02344017
v -0.02501064 -0.00714715 0.02612699
v -0.02474897 -0.00714717 0.02880118
v -0.02420173 -0.00714719 0.03143182
v -0.02337528 -0.00714722 0.03398853
v -0.02227914 -0.00714724 0.03644174
v 0.02130165 -0.00804291 0.01409332
v -0.01977436 -0.00804275 0.03866105
v -0.02009496 -0.00804274 0.03821680
v -0.02091231 -0.00725065 0.03875411
v 0.01888850 0.00706168 0.00871054
v 0.02053135 0.00706165 0.01083676
v 0.01702691 0.00706171 0.00677296
v 0.01496809 0.00706173 0.00504641
v 0.01273581 0.00706176 0.00355084
v 0.01035590 0.00706179 0.00230354
v 0.00785584 0.00706182 0.00131892
v 0.00526454 0.00706184 0.00060837
v 0.00261193 0.00706187 0.00018009
v -0.00007133 0.00706189 0.00003903
v -0.00275422 0.00706191 0.00018683
v -0.00540574 0.00706193 0.00062176
v -0.00799525 0.00706194 0.00133882
v -0.01049283 0.00706195 0.00232972
v -0.01286961 0.00706196 0.00358299
v -0.01509811 0.00706197 0.00508416
v -0.01715260 0.00706198 0.00681587
v -0.01900932 0.00706198 0.00875812
v -0.02064682 0.00706198 0.01088847
v -0.02204617 0.00706197 0.01318228
v -0.02319120 0.00706196 0.01561305
v -0.02406868 0.00706195 0.01815269
v -0.02466847 0.00706194 0.02077185
v -0.02498363 0.00706193 0.02344026
v -0.02501053 0.00706191 0.02612709
v -0.02474885 0.00706189 0.02880128
v -0.02420162 0.00706186 0.03143192
v -0.02337516 0.00706184 0.03398862
v -0.02227903 0.00706182 0.03644183
v 0.02051787 0.00716503 0.01084607
v 0.01887610 0.00716506 0.00872124
v 0.01701573 0.00716509 0.00678492
v 0.01495825 0.00716512 0.00505950
v 0.01272745 0.00716515 0.00356491
v 0.01034909 0.00716517 0.00231843
v 0.00785067 0.00716520 0.00133446
v 0.00526106 0.00716522 0.00062437
v 0.00261019 0.00716525 0.00019637
v -0.00007130 0.00716527 0.00005541
v -0.00275244 0.00716529 0.00020310
v -0.00540222 0.00716531 0.00063776
v -0.00799004 0.00716532 0.00135435
v -0.01048598 0.00716534 0.00234459
v -0.01286120 0.00716535 0.00359704
v -0.01508825 0.00716535 0.00509723
v -0.01714139 0.00716536 0.00682781
v -0.01899689 0.00716536 0.00876879
v -0.02063332 0.00716536 0.01089773
v -0.02203175 0.00716535 0.01319004
v -0.02317603 0.00716535 0.01561922
v -0.02405294 0.00716534 0.01815720
v -0.02465233 0.00716532 0.02077465
v -0.02496729 0.00716531 0.02344131
v -0.02499417 0.00716529 0.02612637
v -0.02473266 0.00716527 0.02879881
v -0.02418579 0.00716525 0.03142773
v -0.02335988 0.00716522 0.03398276
v 0.02189824 0.00726611 0.01314776
v 0.02192206 0.00716501 0.01313486
v 0.02049557 0.00726614 0.01086145
v 0.01885559 0.00726617 0.00873893
v 0.01699724 0.00726620 0.00680471
v 0.01494199 0.00726622 0.00508117
v 0.01271360 0.00726625 0.00358820
v 0.01033782 0.00726628 0.00234307
v 0.00784211 0.00726630 0.00136016
v 0.00525531 0.00726633 0.00065084
v 0.00260732 0.00726635 0.00022331
v -0.00007127 0.00726638 0.00008250
v -0.00274950 0.00726640 0.00023004
v -0.00539641 0.00726641 0.00066422
v -0.00798142 0.00726643 0.00138003
v -0.01047465 0.00726644 0.00236920
v -0.01284729 0.00726645 0.00362029
v -0.01507193 0.00726646 0.00511885
v -0.01712284 0.00726646 0.00684755
v -0.01897633 0.00726647 0.00878643
v -0.02061098 0.00726646 0.01091307
v -0.02200790 0.00726646 0.01320289
v -0.02315094 0.00726645 0.01562943
v -0.02402689 0.00726644 0.01816466
v -0.02462564 0.00726643 0.02077926
v -0.02494025 0.00726641 0.02344304
v -0.02496711 0.00726640 0.02612519
v -0.02470588 0.00726638 0.02879473
v -0.02415960 0.00726635 0.03142080
v -0.02333458 0.00726633 0.03397305
v -0.02226446 0.00716520 0.03643436
v -0.02224035 0.00726630 0.03642199
v -0.02091220 0.00716517 0.03875421
v 0.02186525 0.00736383 0.01316563
v 0.02046470 0.00736386 0.01088276
v 0.01882718 0.00736389 0.00876343
v 0.01697162 0.00736392 0.00683212
v 0.01491947 0.00736394 0.00511116
v 0.01269443 0.00736397 0.00362044
v 0.01032222 0.00736400 0.00237718
v 0.00783026 0.00736402 0.00139575
v 0.00524735 0.00736405 0.00068750
v 0.00260334 0.00736407 0.00026061
v -0.00007122 0.00736410 0.00012001
v -0.00274542 0.00736412 0.00026732
v -0.00538835 0.00736413 0.00070086
v -0.00796948 0.00736415 0.00141559
v -0.01045896 0.00736416 0.00240327
v -0.01282804 0.00736417 0.00365248
v -0.01504933 0.00736418 0.00514879
v -0.01709716 0.00736418 0.00687489
v -0.01894786 0.00736419 0.00881085
v -0.02058005 0.00736418 0.01093429
v -0.02197487 0.00736418 0.01322067
v -0.02311619 0.00736417 0.01564357
v -0.02399083 0.00736416 0.01817499
v -0.02458868 0.00736415 0.02078566
v -0.02490282 0.00736413 0.02344543
v -0.02492963 0.00736412 0.02612355
v -0.02466880 0.00736410 0.02878907
v -0.02412334 0.00736407 0.03141119
v -0.02329956 0.00736405 0.03395961
v -0.02220698 0.00736402 0.03640487
v -0.02088956 0.00726628 0.03873932
v 0.02182347 0.00745710 0.01318827
v 0.02042559 0.00745712 0.01090975
v 0.01879120 0.00745715 0.00879446
v 0.01693918 0.00745718 0.00686684
v 0.01489093 0.00745721 0.00514916
v 0.01267014 0.00745723 0.00366128
v 0.01030246 0.00745726 0.00242040
v 0.00781525 0.00745729 0.00144084
v 0.00523727 0.00745731 0.00073394
v 0.00259830 0.00745734 0.00030786
v -0.00007116 0.00745736 0.00016753
v -0.00274026 0.00745738 0.00031456
v -0.00537815 0.00745740 0.00074727
v -0.00795435 0.00745741 0.00146064
v -0.01043909 0.00745742 0.00244644
v -0.01280365 0.00745743 0.00369327
v -0.01502070 0.00745744 0.00518672
v -0.01706462 0.00745745 0.00690953
v -0.01891180 0.00745745 0.00884180
v -0.02054087 0.00745745 0.01096119
v -0.02193303 0.00745744 0.01324321
v -0.02307218 0.00745743 0.01566148
v -0.02394514 0.00745742 0.01818807
v -0.02454185 0.00745741 0.02079376
v -0.02485539 0.00745740 0.02344846
v -0.02488215 0.00745738 0.02612147
v -0.02462182 0.00745736 0.02878191
v -0.02407741 0.00745734 0.03139903
v -0.02325519 0.00745731 0.03394259
v -0.02216469 0.00745729 0.03638318
v -0.02085821 0.00736400 0.03871872
v 0.02177335 0.00754488 0.01321543
v 0.02037867 0.00754491 0.01094213
v 0.01874802 0.00754494 0.00883169
v 0.01690025 0.00754496 0.00690849
v 0.01485670 0.00754499 0.00519475
v 0.01264100 0.00754502 0.00371028
v 0.01027875 0.00754505 0.00247224
v 0.00779724 0.00754507 0.00149493
v 0.00522517 0.00754510 0.00078965
v 0.00259225 0.00754512 0.00036455
v -0.00007109 0.00754514 0.00022454
v -0.00273407 0.00754516 0.00037124
v -0.00536591 0.00754518 0.00080295
v -0.00793621 0.00754520 0.00151469
v -0.01041525 0.00754521 0.00249822
v -0.01277438 0.00754522 0.00374219
v -0.01498635 0.00754523 0.00523222
v -0.01702559 0.00754523 0.00695108
v -0.01886853 0.00754523 0.00887892
v -0.02049387 0.00754523 0.01099345
v -0.02188284 0.00754523 0.01327024
v -0.02301937 0.00754522 0.01568297
v -0.02389034 0.00754521 0.01820376
v -0.02448568 0.00754520 0.02080348
v -0.02479850 0.00754518 0.02345209
v -0.02482520 0.00754516 0.02611898
v -0.02456546 0.00754514 0.02877332
v -0.02402230 0.00754512 0.03138444
v -0.02320197 0.00754510 0.03392216
v -0.02211397 0.00754507 0.03635716
v -0.02081850 0.00745726 0.03869262
v 0.02171543 0.00762623 0.01324681
v 0.02032446 0.00762625 0.01097955
v 0.01869814 0.00762628 0.00887471
v 0.01685527 0.00762631 0.00695661
v 0.01481715 0.00762634 0.00524743
v 0.01260733 0.00762636 0.00376690
v 0.01025135 0.00762639 0.00253215
v 0.00777644 0.00762642 0.00155743
v 0.00521119 0.00762644 0.00085402
v 0.00258526 0.00762646 0.00043005
v -0.00007100 0.00762649 0.00029041
v -0.00272692 0.00762651 0.00043672
v -0.00535177 0.00762652 0.00086729
v -0.00791524 0.00762654 0.00157713
v -0.01038770 0.00762655 0.00255806
v -0.01274057 0.00762656 0.00379872
v -0.01494666 0.00762657 0.00528480
v -0.01698049 0.00762657 0.00699910
v -0.01881853 0.00762658 0.00892181
v -0.02043956 0.00762657 0.01103073
v -0.02182484 0.00762657 0.01330147
v -0.02295836 0.00762656 0.01570780
v -0.02382701 0.00762655 0.01822190
v -0.02442077 0.00762654 0.02081472
v -0.02473276 0.00762652 0.02345629
v -0.02475939 0.00762651 0.02611610
v -0.02450034 0.00762649 0.02876339
v -0.02395862 0.00762646 0.03136758
v -0.02314047 0.00762644 0.03389856
v -0.02205536 0.00762642 0.03632710
v -0.02077087 0.00754505 0.03866130
v 0.02165036 0.00770024 0.01328206
v 0.02026354 0.00770027 0.01102159
v 0.01864209 0.00770030 0.00892305
v 0.01680473 0.00770032 0.00701069
v 0.01477271 0.00770035 0.00530661
v 0.01256950 0.00770038 0.00383052
v 0.01022057 0.00770041 0.00259945
v 0.00775306 0.00770043 0.00162766
v 0.00519549 0.00770046 0.00092635
v 0.00257741 0.00770048 0.00050365
v -0.00007091 0.00770050 0.00036442
v -0.00271888 0.00770052 0.00051030
v -0.00533588 0.00770054 0.00093958
v -0.00789168 0.00770056 0.00164730
v -0.01035674 0.00770057 0.00262529
v -0.01270258 0.00770058 0.00386225
v -0.01490207 0.00770059 0.00534387
v -0.01692981 0.00770059 0.00705304
v -0.01876236 0.00770059 0.00897001
v -0.02037854 0.00770059 0.01107262
v -0.02175967 0.00770059 0.01333657
v -0.02288980 0.00770058 0.01573570
v -0.02375586 0.00770057 0.01824227
v -0.02434784 0.00770056 0.02082734
v -0.02465890 0.00770054 0.02346101
v -0.02468545 0.00770052 0.02611286
v -0.02442718 0.00770050 0.02875223
v -0.02388707 0.00770048 0.03134863
v -0.02307137 0.00770046 0.03387204
v -0.02198950 0.00770043 0.03629332
v -0.02071582 0.00762639 0.03862512
v 0.02157883 0.00776611 0.01332081
v 0.02019659 0.00776614 0.01106779
v 0.01858049 0.00776617 0.00897617
v 0.01674919 0.00776619 0.00707012
v 0.01472386 0.00776622 0.00537166
v 0.01252792 0.00776625 0.00390043
v 0.01018673 0.00776628 0.00267343
v 0.00772736 0.00776630 0.00170484
v 0.00517822 0.00776633 0.00100584
v 0.00256878 0.00776635 0.00058453
v -0.00007081 0.00776637 0.00044577
v -0.00271004 0.00776639 0.00059116
v -0.00531842 0.00776641 0.00101902
v -0.00786579 0.00776643 0.00172441
v -0.01032272 0.00776644 0.00269918
v -0.01266082 0.00776645 0.00393206
v -0.01485307 0.00776646 0.00540880
v -0.01687412 0.00776646 0.00711233
v -0.01870062 0.00776646 0.00902298
v -0.02031147 0.00776646 0.01111865
v -0.02168805 0.00776646 0.01337514
v -0.02281445 0.00776645 0.01576635
v -0.02367765 0.00776644 0.01826467
v -0.02426768 0.00776643 0.02084121
v -0.02457772 0.00776641 0.02346620
v -0.02460418 0.00776639 0.02610930
v -0.02434676 0.00776637 0.02873997
v -0.02380843 0.00776635 0.03132780
v -0.02299542 0.00776633 0.03384290
v -0.02191712 0.00776630 0.03625619
v -0.02065397 0.00770041 0.03858446
v 0.02150165 0.00782312 0.01336263
v 0.02012434 0.00782315 0.01111766
v 0.01851401 0.00782318 0.00903350
v 0.01668925 0.00782320 0.00713425
v 0.01467115 0.00782323 0.00544186
v 0.01248305 0.00782326 0.00397588
v 0.01015022 0.00782329 0.00275326
v 0.00769963 0.00782331 0.00178813
v 0.00515959 0.00782334 0.00109163
v 0.00255947 0.00782336 0.00067182
v -0.00007070 0.00782338 0.00053356
v -0.00270051 0.00782340 0.00067843
v -0.00529957 0.00782342 0.00110476
v -0.00783785 0.00782343 0.00180764
v -0.01028601 0.00782345 0.00277892
v -0.01261576 0.00782346 0.00400740
v -0.01480018 0.00782346 0.00547886
v -0.01681402 0.00782347 0.00717632
v -0.01863400 0.00782347 0.00908014
v -0.02023910 0.00782347 0.01116833
v -0.02161076 0.00782346 0.01341676
v -0.02273314 0.00782346 0.01579944
v -0.02359326 0.00782345 0.01828884
v -0.02418118 0.00782343 0.02085618
v -0.02449011 0.00782342 0.02347179
v -0.02451648 0.00782340 0.02610546
v -0.02425998 0.00782338 0.02872674
v -0.02372357 0.00782336 0.03130533
v -0.02291347 0.00782334 0.03381145
v -0.02183902 0.00782331 0.03621612
v -0.02058600 0.00776628 0.03853978
v 0.02141965 0.00787064 0.01340706
v 0.02004759 0.00787067 0.01117063
v 0.01844338 0.00787070 0.00909441
v 0.01662556 0.00787072 0.00720239
v 0.01461515 0.00787075 0.00551644
v 0.01243538 0.00787078 0.00405604
v 0.01011143 0.00787081 0.00283808
v 0.00767017 0.00787083 0.00187662
v 0.00513980 0.00787086 0.00118277
v 0.00254957 0.00787088 0.00076456
v -0.00007058 0.00787090 0.00062682
v -0.00269038 0.00787092 0.00077114
v -0.00527955 0.00787094 0.00119585
v -0.00780817 0.00787095 0.00189605
v -0.01024701 0.00787097 0.00286364
v -0.01256789 0.00787098 0.00408744
v -0.01474399 0.00787098 0.00555330
v -0.01675016 0.00787099 0.00724429
v -0.01856322 0.00787099 0.00914087
v -0.02016221 0.00787099 0.01122111
v -0.02152865 0.00787098 0.01346098
v -0.02264675 0.00787098 0.01583459
v -0.02350360 0.00787097 0.01831451
v -0.02408928 0.00787095 0.02087208
v -0.02439704 0.00787094 0.02347774
v -0.02442330 0.00787092 0.02610138
v -0.02416778 0.00787090 0.02871268
v -0.02363342 0.00787088 0.03128146
v -0.02282639 0.00787086 0.03377803
v -0.02175603 0.00787083 0.03617355
v -0.02051264 0.00782329 0.03849156
v 0.02133373 0.00790815 0.01345361
v 0.01996716 0.00790818 0.01122613
v 0.01836937 0.00790821 0.00915822
v 0.01655884 0.00790823 0.00727378
v 0.01455648 0.00790826 0.00559458
v 0.01238543 0.00790829 0.00414003
v 0.01007079 0.00790832 0.00292694
v 0.00763930 0.00790834 0.00196933
v 0.00511906 0.00790837 0.00127826
v 0.00253921 0.00790839 0.00086173
v -0.00007046 0.00790841 0.00072454
v -0.00267977 0.00790843 0.00086828
v -0.00525857 0.00790845 0.00129129
v -0.00777706 0.00790846 0.00198869
v -0.01020614 0.00790847 0.00295240
v -0.01251773 0.00790848 0.00417130
v -0.01468512 0.00790849 0.00563130
v -0.01668326 0.00790850 0.00731552
v -0.01848905 0.00790850 0.00920450
v -0.02008164 0.00790850 0.01127642
v -0.02144261 0.00790849 0.01350732
v -0.02255624 0.00790848 0.01587142
v -0.02340966 0.00790847 0.01834141
v -0.02399299 0.00790846 0.02088874
v -0.02429952 0.00790845 0.02348397
v -0.02432568 0.00790843 0.02609710
v -0.02407117 0.00790841 0.02869795
v -0.02353895 0.00790839 0.03125644
v -0.02273516 0.00790837 0.03374302
v -0.02166909 0.00790834 0.03612895
v -0.02043471 0.00787081 0.03844033
v 0.02124483 0.00793525 0.01350177
v 0.01988395 0.00793527 0.01128356
v 0.01829281 0.00793530 0.00922425
v 0.01648980 0.00793533 0.00734765
v 0.01449577 0.00793535 0.00567543
v 0.01233375 0.00793538 0.00422693
v 0.01002873 0.00793541 0.00301889
v 0.00760736 0.00793543 0.00206526
v 0.00509761 0.00793546 0.00137707
v 0.00252848 0.00793548 0.00096226
v -0.00007033 0.00793550 0.00082565
v -0.00266879 0.00793552 0.00096879
v -0.00523687 0.00793554 0.00139004
v -0.00774488 0.00793555 0.00208453
v -0.01016386 0.00793557 0.00304424
v -0.01246583 0.00793558 0.00425807
v -0.01462421 0.00793558 0.00571199
v -0.01661403 0.00793559 0.00738921
v -0.01841232 0.00793559 0.00927034
v -0.01999828 0.00793559 0.01133364
v -0.02135360 0.00793558 0.01355526
v -0.02246259 0.00793558 0.01590953
v -0.02331246 0.00793557 0.01836925
v -0.02389337 0.00793555 0.02090598
v -0.02419861 0.00793554 0.02349041
v -0.02422467 0.00793552 0.02609268
v -0.02397123 0.00793550 0.02868271
v -0.02344122 0.00793548 0.03123056
v -0.02264077 0.00793546 0.03370680
v -0.02157913 0.00793543 0.03608280
v -0.02035305 0.00790831 0.03838665
v 0.02115393 0.00795162 0.01355102
v 0.01979886 0.00795165 0.01134228
v 0.01821452 0.00795167 0.00929177
v 0.01641921 0.00795170 0.00742318
v 0.01443369 0.00795173 0.00575810
v 0.01228091 0.00795175 0.00431579
v 0.00998574 0.00795178 0.00311290
v 0.00757470 0.00795181 0.00216335
v 0.00507566 0.00795183 0.00147809
v 0.00251751 0.00795185 0.00106506
v -0.00007020 0.00795188 0.00092903
v -0.00265756 0.00795189 0.00107156
v -0.00521467 0.00795191 0.00149102
v -0.00771198 0.00795193 0.00218254
v -0.01012062 0.00795194 0.00313815
v -0.01241277 0.00795195 0.00434679
v -0.01456192 0.00795196 0.00579451
v -0.01654325 0.00795196 0.00746456
v -0.01833386 0.00795196 0.00933766
v -0.01991305 0.00795196 0.01139214
v -0.02126257 0.00795196 0.01360428
v -0.02236683 0.00795195 0.01594850
v -0.02321307 0.00795194 0.01839771
v -0.02379150 0.00795193 0.02092361
v -0.02409544 0.00795191 0.02349700
v -0.02412138 0.00795189 0.02608816
v -0.02386902 0.00795188 0.02866712
v -0.02334128 0.00795185 0.03120410
v -0.02254425 0.00795183 0.03366976
v -0.02148714 0.00795181 0.03603562
v -0.02026857 0.00793541 0.03833111
v 0.02035011 0.00795711 0.01244041
v 0.01971283 0.00795713 0.01140165
v 0.01869574 0.00795714 0.01008530
v 0.01813535 0.00795715 0.00936003
v 0.01660364 0.00795718 0.00776579
v 0.01725352 0.00795717 0.00844220
v 0.01634784 0.00795718 0.00749955
v 0.01480094 0.00795720 0.00620230
v 0.01437093 0.00795721 0.00584169
v 0.01231092 0.00795723 0.00446154
v 0.01356358 0.00795722 0.00530079
v 0.01222748 0.00795723 0.00440563
v 0.00754168 0.00795728 0.00226252
v 0.00505348 0.00795731 0.00158024
v -0.00007007 0.00795735 0.00103356
v 0.00153195 0.00795734 0.00111777
v -0.00134409 0.00795736 0.00110374
v -0.00264621 0.00795737 0.00117547
v -0.00519223 0.00795739 0.00159311
v -0.00638896 0.00795740 0.00192449
v -0.00767871 0.00795740 0.00228163
v -0.01007691 0.00795742 0.00323310
v -0.01235911 0.00795743 0.00443650
v -0.01449895 0.00795743 0.00587794
v -0.01647169 0.00795744 0.00754075
v -0.01813827 0.00795744 0.00928411
v -0.01825453 0.00795744 0.00940572
v -0.02117054 0.00795743 0.01365384
v -0.02227001 0.00795743 0.01598789
v -0.02311258 0.00795742 0.01842648
v -0.02399113 0.00795739 0.02350367
v -0.02386033 0.00795736 0.02768419
v -0.02376569 0.00795735 0.02865137
v -0.02400717 0.00795737 0.02618354
v -0.02324023 0.00795733 0.03117734
v -0.02365139 0.00795735 0.02920081
v -0.02283815 0.00795732 0.03242120
v -0.02244666 0.00795731 0.03363231
v -0.02312667 0.00795733 0.03152866
v -0.02139414 0.00795728 0.03598791
v -0.02207276 0.00795730 0.03446911
v -0.02018218 0.00795178 0.03827433
v -0.02009483 0.00795726 0.03821691
v -0.02078042 0.00795727 0.03704076
v 0.02130177 0.00795710 0.01409343
v 0.02106203 0.00795710 0.01360082
v -0.01977423 0.00795725 0.03866116
v -0.02401695 0.00795737 0.02608358
v -0.02368850 0.00795740 0.02094143
v -0.01982687 0.00795744 0.01145130
v 0.00250642 0.00795733 0.00116900
v 0.00994226 0.00795726 0.00320796
f 8 1 27
f 97 1 8
f 1149 1117 1118
f 1137 1136 1106
f 1142 1178 1141
f 1143 1180 1142
f 1193 145 1117
f 1119 1149 1118
f 32 21 22
f 30 21 32
f 36 23 24
f 5 17 16
f 6 4 22
f 6 21 11
f 22 21 6
f 11 31 6
f 6 31 4
f 20 21 30
f 20 30 28
f 28 19 20
f 16 17 94
f 13 14 89
f 89 91 13
f 743 151 744
f 154 151 743
f 806 804 85
f 739 164 165
f 449 448 417
f 1136 1137 1197
f 1175 1197 1137
f 1016 1048 1047
f 797 829 828
f 735 736 764
f 178 736 735
f 1135 1104 1136
f 1135 1197 1174
f 1136 1197 1135
f 1136 1104 1105
f 1106 1136 1105
f 163 167 705
f 166 705 167
f 613 614 644
f 675 705 674
f 674 644 675
f 643 644 674
f 1114 1113 1083
f 1178 1142 1195
f 1083 1113 1082
f 1120 1121 1156
f 1122 1156 1121
f 1117 1149 1148
f 1148 1193 1117
f 146 145 1192
f 145 1193 1192
f 760 731 761
f 194 697 196
f 35 2 3
f 29 31 11
f 22 23 34
f 23 36 34
f 34 32 22
f 12 5 16
f 13 91 12
f 9 97 8
f 93 12 91
f 5 12 93
f 7 29 11
f 27 29 7
f 8 27 7
f 138 144 142
f 142 144 145
f 110 111 113
f 92 25 16
f 16 94 92
f 17 18 96
f 96 94 17
f 937 905 906
f 905 937 936
f 874 905 904
f 906 905 874
f 371 340 341
f 369 339 370
f 370 339 340
f 340 371 370
f 154 743 157
f 773 803 802
f 773 743 744
f 75 806 78
f 85 804 745
f 745 773 744
f 804 773 745
f 151 149 745
f 744 151 745
f 191 697 698
f 191 196 697
f 647 678 646
f 586 587 617
f 165 162 740
f 740 739 165
f 769 739 740
f 290 288 289
f 418 449 417
f 480 479 448
f 448 449 480
f 510 479 480
f 1140 1109 1141
f 1138 1175 1137
f 1138 1137 1106
f 1141 1109 1110
f 984 983 952
f 1078 1047 1048
f 1045 1044 1014
f 1014 983 984
f 984 1015 1014
f 766 736 737
f 1074 1105 1104
f 1043 1042 1011
f 736 175 176
f 737 736 176
f 176 171 737
f 179 736 178
f 179 175 736
f 737 171 172
f 641 610 642
f 643 674 642
f 612 581 613
f 613 644 612
f 612 644 643
f 580 581 612
f 550 581 580
f 704 674 705
f 704 166 170
f 705 166 704
f 1145 1114 1146
f 1145 1188 1185
f 1187 1188 1145
f 1146 1187 1145
f 1144 1180 1143
f 1113 1114 1144
f 1114 1145 1144
f 1179 1142 1180
f 802 833 801
f 801 771 802
f 802 771 772
f 772 773 802
f 743 773 772
f 741 158 156
f 741 162 158
f 741 740 162
f 834 833 802
f 834 865 833
f 802 803 834
f 1155 1154 1120
f 1120 1156 1155
f 1156 1122 1158
f 139 144 138
f 138 1117 139
f 1117 145 139
f 1149 1119 1150
f 1119 1151 1150
f 1153 1119 1120
f 1153 1151 1119
f 1120 1119 1088
f 1088 1119 1118
f 995 996 1027
f 1027 1058 1057
f 1059 1058 1027
f 124 127 993
f 993 1024 124
f 965 996 995
f 995 964 965
f 722 220 221
f 221 723 722
f 218 723 221
f 790 760 791
f 760 761 791
f 791 822 790
f 823 822 791
f 791 824 823
f 3 4 33
f 33 35 3
f 4 31 33
f 308 342 341
f 17 5 10
f 5 93 10
f 97 9 95
f 9 10 95
f 95 10 93
f 467 498 123
f 123 436 467
f 143 145 146
f 374 405 131
f 133 135 137
f 529 117 498
f 107 109 108
f 113 109 107
f 25 92 90
f 15 25 90
f 98 18 19
f 98 96 18
f 252 253 248
f 417 448 447
f 534 564 533
f 722 723 751
f 723 752 751
f 226 222 721
f 721 222 220
f 721 220 722
f 1090 1122 1121
f 1090 1121 1120
f 1090 1058 1059
f 996 965 997
f 997 1027 996
f 967 936 937
f 998 997 967
f 812 813 843
f 207 210 692
f 65 70 69
f 368 339 369
f 1084 1114 1083
f 1083 1053 1084
f 84 806 85
f 84 78 806
f 82 745 149
f 701 181 183
f 701 177 181
f 393 425 424
f 159 161 708
f 708 155 159
f 677 646 678
f 587 586 556
f 556 557 587
f 400 431 399
f 400 368 369
f 399 368 400
f 491 523 522
f 522 521 491
f 365 336 366
f 551 550 519
f 859 828 829
f 859 858 828
f 768 798 797
f 768 739 769
f 799 768 769
f 798 768 799
f 396 395 365
f 365 366 396
f 396 366 397
f 395 396 426
f 284 283 286
f 285 283 284
f 271 274 276
f 1141 1178 1196
f 1196 1140 1141
f 1109 1140 1139
f 1139 1196 1177
f 1140 1196 1139
f 1175 1138 1176
f 1176 1139 1177
f 1138 1139 1176
f 1107 1138 1106
f 1107 1139 1138
f 1017 1018 1048
f 1017 1048 1016
f 987 1017 986
f 1018 1017 987
f 1013 1044 1043
f 1013 1014 1044
f 982 983 1013
f 983 1014 1013
f 921 891 922
f 891 892 922
f 1079 1078 1048
f 1048 1080 1079
f 1079 1080 1110
f 1079 1110 1109
f 1109 1078 1079
f 797 828 796
f 796 766 797
f 738 766 737
f 739 768 738
f 738 172 168
f 737 172 738
f 738 168 164
f 164 739 738
f 853 822 823
f 853 885 884
f 1104 1072 1073
f 1073 1074 1104
f 1073 1042 1043
f 1043 1074 1073
f 1103 1072 1104
f 728 204 201
f 610 580 611
f 611 642 610
f 580 612 611
f 643 642 611
f 611 612 643
f 173 177 703
f 674 704 703
f 424 425 455
f 487 488 519
f 184 733 188
f 699 182 186
f 186 185 699
f 185 191 699
f 699 191 698
f 949 980 948
f 949 950 980
f 764 794 763
f 123 498 119
f 119 120 123
f 118 117 110
f 114 117 118
f 110 869 118
f 118 869 114
f 116 117 114
f 116 114 120
f 498 117 116
f 120 119 116
f 116 119 498
f 838 869 110
f 41 47 48
f 41 714 42
f 42 38 41
f 715 714 41
f 48 1147 45
f 1116 1053 1085
f 1116 1084 1053
f 1189 1147 48
f 48 47 1189
f 1190 1191 1189
f 1189 1191 1187
f 1189 1187 1146
f 1180 1144 1183
f 1183 1144 1182
f 1184 1145 1185
f 1184 1144 1145
f 1181 1195 1142
f 1142 1179 1181
f 800 801 833
f 831 799 800
f 742 741 156
f 156 157 742
f 742 157 743
f 743 772 742
f 742 772 771
f 1083 1082 1051
f 959 958 927
f 927 928 959
f 959 929 960
f 959 928 929
f 1157 1122 1159
f 1157 1158 1122
f 1120 1154 1152
f 1152 1153 1120
f 1089 1088 1057
f 1057 1058 1089
f 1120 1088 1089
f 1089 1090 1120
f 1058 1090 1089
f 995 1027 1026
f 1026 1027 1057
f 1026 1025 995
f 1057 1025 1026
f 1057 1088 1056
f 1056 1025 1057
f 962 993 127
f 994 1025 1024
f 1024 993 994
f 995 1025 994
f 994 962 963
f 993 962 994
f 994 964 995
f 963 964 994
f 842 843 874
f 812 843 842
f 934 965 964
f 103 746 775
f 775 107 108
f 113 107 775
f 718 746 103
f 718 99 233
f 718 103 99
f 718 233 231
f 777 809 808
f 1159 1122 1199
f 1122 1123 1199
f 1060 1090 1059
f 938 937 907
f 907 937 906
f 908 938 907
f 907 876 908
f 844 813 814
f 844 843 813
f 724 723 218
f 218 214 724
f 724 752 723
f 753 752 724
f 724 754 753
f 219 689 216
f 732 761 731
f 187 188 732
f 732 188 733
f 189 187 732
f 732 190 189
f 732 731 190
f 824 791 792
f 197 696 193
f 193 697 194
f 193 696 697
f 198 728 201
f 305 308 341
f 308 305 312
f 236 313 142
f 126 131 405
f 126 405 436
f 126 127 124
f 124 131 126
f 124 1024 134
f 112 113 111
f 112 109 113
f 560 591 111
f 117 529 560
f 26 98 19
f 26 19 28
f 248 251 249
f 239 236 235
f 234 236 239
f 314 236 234
f 313 236 314
f 142 313 140
f 133 137 140
f 138 142 140
f 140 137 138
f 322 258 261
f 261 258 259
f 448 479 478
f 478 447 448
f 478 479 510
f 535 534 504
f 627 597 628
f 814 813 781
f 781 751 752
f 224 687 225
f 226 721 720
f 720 228 226
f 750 779 749
f 751 781 750
f 749 720 750
f 750 720 721
f 722 751 750
f 750 721 722
f 936 967 935
f 904 905 935
f 905 936 935
f 197 200 695
f 695 696 197
f 203 695 200
f 908 876 877
f 783 752 753
f 753 754 783
f 783 815 814
f 939 938 908
f 878 879 910
f 756 786 785
f 785 786 818
f 464 433 434
f 526 495 527
f 527 557 526
f 56 59 466
f 54 58 56
f 56 58 59
f 342 404 372
f 341 342 372
f 372 371 341
f 403 372 404
f 434 433 403
f 433 402 403
f 403 402 371
f 371 372 403
f 715 41 310
f 308 312 310
f 342 308 310
f 559 527 528
f 712 83 148
f 80 83 712
f 148 150 712
f 63 66 62
f 960 929 992
f 1146 1114 1115
f 1114 1084 1115
f 1115 1189 1146
f 1147 1189 1115
f 1115 1116 1147
f 1084 1116 1115
f 805 836 803
f 805 773 804
f 803 773 805
f 804 806 805
f 803 836 835
f 835 834 803
f 865 834 835
f 929 928 897
f 897 927 896
f 897 928 927
f 896 865 897
f 81 80 85
f 85 745 81
f 745 82 81
f 577 578 608
f 709 152 155
f 155 708 709
f 709 708 678
f 678 679 709
f 648 647 617
f 617 649 648
f 648 649 679
f 648 678 647
f 648 679 678
f 706 160 163
f 163 705 706
f 555 556 586
f 494 464 495
f 431 400 401
f 369 370 401
f 401 400 369
f 401 402 433
f 401 370 371
f 371 402 401
f 584 583 552
f 614 583 584
f 522 523 554
f 554 523 524
f 524 555 554
f 586 585 554
f 554 555 586
f 647 646 615
f 615 584 585
f 615 646 614
f 614 584 615
f 430 461 429
f 399 431 430
f 431 461 430
f 523 491 492
f 491 461 492
f 429 461 460
f 460 461 491
f 460 459 429
f 491 459 460
f 367 366 336
f 336 290 292
f 339 368 338
f 521 552 520
f 552 551 520
f 520 551 519
f 429 459 428
f 428 396 397
f 613 581 582
f 582 614 613
f 582 583 614
f 582 551 552
f 552 583 582
f 581 550 582
f 550 551 582
f 830 829 797
f 797 798 830
f 830 799 831
f 798 799 830
f 860 859 829
f 829 830 860
f 860 892 891
f 890 891 921
f 858 859 890
f 890 860 891
f 859 860 890
f 921 920 890
f 457 458 488
f 457 426 458
f 488 487 457
f 425 426 457
f 458 426 427
f 427 426 396
f 396 428 427
f 427 459 458
f 427 428 459
f 365 334 335
f 335 334 290
f 335 336 365
f 335 290 336
f 365 395 364
f 364 334 365
f 288 290 287
f 290 334 287
f 287 286 288
f 284 286 287
f 266 270 269
f 387 418 417
f 387 355 356
f 268 269 272
f 266 269 268
f 268 272 274
f 268 274 271
f 510 480 511
f 511 542 510
f 480 481 511
f 1077 1078 1109
f 1045 1077 1076
f 1076 1077 1107
f 1110 1080 1111
f 1111 1142 1141
f 1141 1110 1111
f 981 950 982
f 982 1013 981
f 980 950 981
f 981 1011 980
f 953 952 921
f 921 922 953
f 984 952 953
f 953 954 984
f 922 954 953
f 766 796 795
f 795 794 764
f 797 766 767
f 766 738 767
f 767 768 797
f 767 738 768
f 1198 1161 1125
f 1094 1095 1125
f 1002 1032 1001
f 1198 1125 1126
f 1126 1125 1095
f 854 853 823
f 885 853 854
f 1171 1170 1133
f 727 728 756
f 204 728 727
f 1104 1135 1134
f 1134 1103 1104
f 1134 1133 1103
f 1134 1172 1171
f 1171 1133 1134
f 921 952 951
f 951 920 921
f 951 983 982
f 951 952 983
f 982 950 951
f 794 795 826
f 887 888 919
f 919 888 920
f 919 951 950
f 920 951 919
f 889 888 858
f 920 888 889
f 858 890 889
f 889 890 920
f 1041 1011 1042
f 1041 1010 1011
f 1042 1073 1041
f 1041 1073 1072
f 948 980 979
f 980 1011 979
f 1011 1010 979
f 579 580 610
f 579 548 580
f 610 578 579
f 579 578 548
f 641 642 672
f 169 704 170
f 169 703 704
f 517 487 518
f 518 548 517
f 518 487 519
f 519 550 518
f 486 487 517
f 456 455 425
f 425 457 456
f 456 457 487
f 456 486 455
f 487 486 456
f 183 182 700
f 182 699 700
f 700 699 670
f 700 701 183
f 670 701 700
f 669 699 698
f 669 638 670
f 670 699 669
f 823 824 855
f 855 854 823
f 855 886 885
f 885 854 855
f 885 886 917
f 734 735 764
f 764 763 734
f 178 735 734
f 734 733 184
f 932 964 963
f 808 809 840
f 48 44 40
f 40 41 48
f 44 310 40
f 40 310 41
f 53 1085 54
f 53 1116 1085
f 1190 1189 1194
f 1194 1189 38
f 38 1189 39
f 39 1189 47
f 39 41 38
f 47 41 39
f 1182 1144 1186
f 1144 1184 1186
f 770 742 771
f 741 742 770
f 771 801 770
f 801 800 770
f 769 740 770
f 740 741 770
f 770 799 769
f 770 800 799
f 832 863 831
f 831 800 832
f 832 800 833
f 1083 1051 1052
f 1052 1053 1083
f 1085 1053 1022
f 1086 135 133
f 1086 1117 138
f 138 135 1086
f 1024 1025 1055
f 1025 1056 1055
f 1055 1086 133
f 1055 134 1024
f 931 962 127
f 963 962 931
f 931 932 963
f 748 720 749
f 873 874 904
f 873 842 874
f 872 842 873
f 903 873 904
f 872 873 903
f 904 935 903
f 903 935 934
f 103 775 105
f 113 775 774
f 776 777 808
f 808 774 776
f 776 775 746
f 776 774 775
f 746 718 747
f 747 776 746
f 777 776 747
f 1091 1123 1122
f 1122 1090 1091
f 1090 1060 1091
f 1028 1060 1059
f 1059 1027 1028
f 1027 997 1028
f 1031 1030 1000
f 1001 1032 1000
f 1032 1031 1000
f 1062 1031 1032
f 1062 1030 1031
f 875 844 876
f 875 907 906
f 876 907 875
f 906 874 875
f 874 843 875
f 843 844 875
f 754 724 725
f 211 206 725
f 691 213 217
f 211 725 212
f 212 724 214
f 212 725 724
f 733 734 762
f 762 734 763
f 761 732 762
f 762 732 733
f 762 791 761
f 762 792 791
f 296 295 297
f 296 302 299
f 296 294 295
f 296 299 339
f 339 338 296
f 340 339 300
f 339 299 300
f 299 302 300
f 341 340 300
f 300 305 341
f 307 305 309
f 307 312 305
f 235 236 237
f 141 236 142
f 141 142 145
f 122 436 123
f 122 126 436
f 123 127 122
f 127 126 122
f 128 131 124
f 124 134 128
f 128 134 131
f 132 1055 133
f 134 1055 132
f 108 109 104
f 103 105 100
f 115 560 111
f 117 560 115
f 115 111 110
f 110 117 115
f 561 560 529
f 250 252 248
f 248 249 250
f 313 314 343
f 343 140 313
f 344 343 314
f 130 132 133
f 131 134 130
f 134 132 130
f 374 131 130
f 130 343 374
f 259 258 257
f 258 256 257
f 265 264 260
f 260 264 263
f 385 353 354
f 354 355 385
f 693 202 209
f 693 203 202
f 209 207 693
f 693 207 692
f 445 414 415
f 322 353 352
f 322 352 351
f 601 600 570
f 602 601 570
f 477 508 507
f 662 693 692
f 663 693 662
f 692 691 662
f 317 348 347
f 318 317 248
f 348 317 318
f 379 409 378
f 378 348 379
f 347 348 378
f 410 409 379
f 246 241 245
f 251 241 246
f 315 314 234
f 315 344 314
f 379 348 380
f 380 348 349
f 380 410 379
f 411 410 380
f 566 535 536
f 507 508 538
f 630 629 598
f 597 566 598
f 628 597 598
f 598 629 628
f 533 564 532
f 564 563 532
f 628 659 658
f 658 627 628
f 659 689 658
f 658 687 657
f 595 563 564
f 779 750 780
f 780 750 781
f 780 813 812
f 780 781 813
f 966 967 997
f 966 935 967
f 966 997 965
f 965 934 966
f 934 935 966
f 696 695 666
f 697 696 666
f 695 203 694
f 203 693 694
f 846 815 847
f 847 878 846
f 846 878 877
f 814 815 846
f 846 877 876
f 782 783 814
f 752 783 782
f 814 781 782
f 782 781 752
f 909 939 908
f 940 939 909
f 908 877 909
f 877 878 909
f 909 878 910
f 910 941 909
f 909 941 940
f 847 815 816
f 815 783 816
f 848 878 847
f 879 878 848
f 847 816 848
f 848 818 849
f 754 725 726
f 726 206 205
f 726 725 206
f 726 727 756
f 205 208 726
f 726 208 204
f 204 727 726
f 1098 1130 1129
f 1099 1130 1098
f 1035 1066 1065
f 1035 1003 1004
f 1065 1066 1097
f 1066 1098 1097
f 150 153 710
f 710 153 152
f 152 709 710
f 557 527 558
f 435 56 466
f 435 403 404
f 435 466 434
f 434 403 435
f 373 310 44
f 44 43 373
f 373 404 342
f 342 310 373
f 50 404 373
f 373 43 50
f 715 310 311
f 311 310 312
f 434 466 497
f 466 59 497
f 59 528 497
f 64 559 61
f 559 528 61
f 63 62 61
f 61 66 64
f 61 62 66
f 681 650 651
f 649 650 681
f 588 558 589
f 557 558 588
f 587 557 588
f 618 650 649
f 617 587 618
f 618 649 617
f 1023 992 63
f 64 66 67
f 67 68 64
f 67 70 65
f 65 69 67
f 69 68 67
f 590 68 69
f 590 559 64
f 64 68 590
f 590 527 559
f 590 558 527
f 589 558 590
f 620 588 589
f 651 650 620
f 929 897 898
f 866 835 836
f 866 898 897
f 865 835 866
f 866 897 865
f 836 805 837
f 837 868 836
f 837 805 806
f 837 806 75
f 75 74 837
f 837 74 71
f 837 71 70
f 70 868 837
f 640 610 641
f 607 608 638
f 607 575 576
f 576 577 607
f 577 608 607
f 670 638 639
f 638 608 639
f 639 640 670
f 608 640 639
f 545 577 576
f 576 575 545
f 450 480 449
f 450 481 480
f 449 418 450
f 544 545 575
f 391 392 423
f 424 455 423
f 423 393 424
f 423 392 393
f 361 362 393
f 393 392 361
f 361 392 391
f 483 484 515
f 161 160 707
f 160 706 707
f 707 706 677
f 707 708 161
f 678 708 707
f 707 677 678
f 646 677 676
f 677 706 676
f 675 644 676
f 676 705 675
f 676 706 705
f 493 492 461
f 524 523 493
f 523 492 493
f 525 555 524
f 556 555 525
f 524 493 525
f 525 493 494
f 526 557 525
f 557 556 525
f 525 495 526
f 525 494 495
f 431 401 432
f 432 401 433
f 553 584 552
f 553 521 522
f 553 552 521
f 522 554 553
f 585 584 553
f 553 554 585
f 647 615 616
f 616 615 585
f 617 647 616
f 616 586 617
f 616 585 586
f 398 428 397
f 429 428 398
f 397 366 398
f 366 367 398
f 399 430 398
f 398 430 429
f 398 368 399
f 398 367 368
f 291 290 289
f 291 292 290
f 337 367 336
f 368 367 337
f 337 338 368
f 488 458 489
f 519 488 489
f 489 520 519
f 923 922 892
f 923 954 922
f 923 892 893
f 985 1017 1016
f 986 1017 985
f 984 954 985
f 985 1015 984
f 1016 1015 985
f 893 892 862
f 862 830 831
f 831 863 862
f 863 893 862
f 892 860 861
f 861 860 830
f 861 862 892
f 830 862 861
f 395 426 394
f 394 426 425
f 425 393 394
f 271 276 273
f 273 328 271
f 386 387 417
f 355 387 386
f 417 385 386
f 386 385 355
f 266 268 325
f 325 263 266
f 356 355 325
f 325 355 354
f 1109 1139 1108
f 1108 1077 1109
f 1139 1107 1108
f 1107 1077 1108
f 1016 1047 1046
f 1046 1015 1016
f 1047 1078 1046
f 1078 1077 1046
f 1046 1077 1045
f 1045 1014 1046
f 1046 1014 1015
f 1075 1044 1045
f 1045 1076 1075
f 1075 1107 1106
f 1075 1076 1107
f 1106 1105 1075
f 1105 1074 1075
f 1043 1044 1075
f 1075 1074 1043
f 894 893 863
f 894 926 925
f 955 987 986
f 986 985 955
f 955 985 954
f 954 923 955
f 987 955 956
f 956 955 925
f 896 927 895
f 927 926 895
f 926 894 895
f 1049 1050 1080
f 1048 1018 1049
f 1049 1080 1048
f 1143 1142 1112
f 1142 1111 1112
f 1112 1111 1080
f 1112 1144 1143
f 1113 1144 1112
f 1112 1082 1113
f 1018 987 1019
f 1019 1049 1018
f 1050 1049 1019
f 1019 989 1020
f 1020 1051 1019
f 1051 1050 1019
f 1012 1013 1043
f 1012 981 1013
f 1043 1011 1012
f 1011 981 1012
f 827 796 828
f 827 795 796
f 828 858 827
f 858 826 827
f 827 826 795
f 736 766 765
f 766 795 765
f 764 736 765
f 765 795 764
f 1032 1002 1033
f 970 939 940
f 970 1002 1001
f 938 939 970
f 940 941 971
f 971 970 940
f 1002 970 971
f 971 1003 1002
f 1127 1164 1162
f 1128 1098 1129
f 1128 1097 1098
f 1128 1164 1127
f 789 760 790
f 790 822 789
f 883 853 884
f 883 852 853
f 885 917 916
f 1101 1133 1132
f 1132 1133 1170
f 1005 1035 1004
f 1172 1134 1173
f 1173 1135 1174
f 1173 1134 1135
f 858 888 857
f 857 826 858
f 887 919 918
f 950 949 918
f 918 919 950
f 918 886 887
f 918 917 886
f 918 949 948
f 948 917 918
f 1040 1041 1072
f 702 703 177
f 702 672 703
f 177 701 702
f 701 672 702
f 673 672 642
f 703 672 673
f 673 642 674
f 674 703 673
f 703 169 174
f 173 703 174
f 580 548 549
f 548 518 549
f 549 550 580
f 549 518 550
f 178 734 180
f 180 734 184
f 808 840 839
f 839 840 870
f 839 838 808
f 839 870 869
f 869 838 839
f 870 840 871
f 872 903 871
f 46 45 1147
f 1147 1116 46
f 50 43 46
f 46 43 44
f 46 44 48
f 48 45 46
f 55 53 54
f 55 435 404
f 991 1023 1022
f 960 992 991
f 992 1023 991
f 1053 1052 1021
f 1021 1022 1053
f 1020 989 1021
f 1021 1051 1020
f 1021 1052 1051
f 1118 1117 1087
f 1117 1086 1087
f 1087 1088 1118
f 1087 1056 1088
f 1087 1055 1056
f 1086 1055 1087
f 120 931 125
f 125 931 127
f 123 120 125
f 125 127 123
f 120 121 900
f 900 931 120
f 900 121 114
f 114 869 900
f 749 779 778
f 778 748 749
f 777 747 778
f 778 747 748
f 228 720 719
f 720 748 719
f 748 747 719
f 808 838 807
f 807 774 808
f 113 774 807
f 110 113 807
f 807 838 110
f 717 718 231
f 717 747 718
f 231 719 717
f 717 719 747
f 968 967 937
f 998 1030 1029
f 1029 1030 1060
f 1060 1028 1029
f 1029 997 998
f 1029 1028 997
f 1092 1091 1060
f 1123 1091 1092
f 1063 1062 1032
f 1063 1095 1094
f 1032 1033 1063
f 1094 1125 1093
f 1093 1063 1094
f 1062 1063 1093
f 1123 1092 1093
f 660 629 630
f 660 659 628
f 628 629 660
f 692 210 215
f 215 691 692
f 213 691 215
f 298 296 297
f 302 296 298
f 306 300 301
f 301 300 302
f 309 305 304
f 305 300 304
f 713 236 143
f 713 237 236
f 143 236 136
f 236 141 136
f 145 143 136
f 136 141 145
f 103 100 101
f 108 104 102
f 102 100 108
f 108 100 106
f 106 100 105
f 106 775 108
f 106 105 775
f 530 561 529
f 133 140 129
f 129 130 133
f 140 343 129
f 343 130 129
f 253 256 255
f 248 253 255
f 255 318 248
f 349 320 350
f 381 380 350
f 350 380 349
f 320 351 350
f 262 261 259
f 260 261 262
f 262 265 260
f 267 263 264
f 267 270 266
f 266 263 267
f 509 478 510
f 509 540 508
f 509 477 478
f 508 477 509
f 323 353 322
f 322 261 323
f 323 261 260
f 260 263 323
f 416 447 415
f 415 385 416
f 417 447 416
f 416 385 417
f 384 385 415
f 353 385 384
f 415 414 384
f 321 320 258
f 321 351 320
f 321 258 322
f 322 351 321
f 383 351 352
f 383 384 414
f 383 352 353
f 353 384 383
f 602 570 571
f 571 570 540
f 415 447 446
f 446 445 415
f 446 477 445
f 447 478 446
f 478 477 446
f 476 477 507
f 445 477 476
f 507 475 476
f 630 600 631
f 631 662 630
f 631 600 601
f 247 251 248
f 248 317 247
f 247 241 251
f 247 317 241
f 347 378 377
f 377 378 409
f 409 410 441
f 441 410 411
f 441 473 472
f 504 534 503
f 503 473 504
f 472 473 503
f 245 241 243
f 241 242 243
f 238 315 234
f 238 240 244
f 241 315 238
f 239 240 238
f 234 239 238
f 244 242 238
f 238 242 241
f 597 627 596
f 596 595 564
f 627 595 596
f 568 538 569
f 569 570 600
f 569 538 570
f 539 538 508
f 570 538 539
f 508 540 539
f 540 570 539
f 630 598 599
f 599 598 568
f 599 600 630
f 599 569 600
f 568 569 599
f 536 568 567
f 568 598 567
f 567 566 536
f 567 598 566
f 472 503 471
f 471 441 472
f 562 563 593
f 561 530 562
f 593 563 594
f 563 595 594
f 594 595 625
f 686 685 655
f 229 230 686
f 230 685 686
f 686 224 229
f 687 224 686
f 688 658 689
f 688 219 223
f 688 689 219
f 687 658 688
f 223 225 688
f 225 687 688
f 657 625 626
f 625 595 626
f 626 595 627
f 626 658 657
f 627 658 626
f 604 603 572
f 572 571 540
f 572 603 602
f 602 571 572
f 695 694 664
f 664 693 663
f 664 694 693
f 814 846 845
f 845 846 876
f 845 844 814
f 876 844 845
f 754 785 784
f 784 783 754
f 784 816 783
f 817 848 816
f 817 784 785
f 816 784 817
f 817 785 818
f 818 848 817
f 755 785 754
f 754 726 755
f 756 785 755
f 755 726 756
f 1099 1098 1068
f 1065 1097 1096
f 1096 1095 1065
f 1096 1128 1127
f 1097 1128 1096
f 1096 1126 1095
f 1127 1126 1096
f 910 879 880
f 880 848 849
f 879 848 880
f 941 942 972
f 972 971 941
f 1003 971 972
f 728 198 729
f 729 198 199
f 434 497 465
f 465 464 434
f 465 497 528
f 57 528 59
f 57 61 528
f 57 59 63
f 63 61 57
f 80 712 682
f 682 716 80
f 651 716 682
f 682 681 651
f 712 681 682
f 75 78 76
f 78 84 76
f 76 84 85
f 72 652 69
f 72 71 75
f 72 69 70
f 70 71 72
f 150 710 711
f 710 681 711
f 711 712 150
f 711 681 712
f 649 681 680
f 680 681 710
f 679 649 680
f 680 709 679
f 680 710 709
f 60 1023 63
f 58 1023 60
f 63 59 60
f 59 58 60
f 1054 1023 58
f 54 1085 1054
f 1054 58 54
f 1085 1022 1054
f 1022 1023 1054
f 69 652 621
f 621 590 69
f 589 590 621
f 621 620 589
f 652 620 621
f 619 620 650
f 588 620 619
f 650 618 619
f 587 588 619
f 619 618 587
f 836 868 899
f 899 868 70
f 70 67 899
f 867 866 836
f 898 866 867
f 836 899 867
f 609 578 610
f 610 640 609
f 609 608 578
f 609 640 608
f 641 672 671
f 671 640 641
f 671 672 701
f 671 701 670
f 670 640 671
f 451 483 482
f 482 481 451
f 481 450 451
f 418 387 419
f 419 450 418
f 419 451 450
f 604 572 573
f 573 572 542
f 542 511 543
f 543 573 542
f 574 573 543
f 575 574 543
f 543 544 575
f 668 669 698
f 638 669 668
f 668 637 638
f 605 574 575
f 604 573 605
f 605 573 574
f 513 481 482
f 482 483 513
f 544 543 513
f 545 544 513
f 485 484 454
f 454 423 455
f 454 486 485
f 455 486 454
f 391 423 422
f 422 421 391
f 360 361 391
f 281 277 278
f 330 277 331
f 331 285 332
f 331 360 330
f 361 360 331
f 332 362 331
f 362 361 331
f 278 277 275
f 275 277 330
f 328 273 275
f 275 276 278
f 275 273 276
f 516 484 485
f 516 515 484
f 485 486 516
f 516 486 517
f 546 578 577
f 577 545 546
f 545 515 546
f 515 516 546
f 483 515 514
f 514 515 545
f 514 513 483
f 545 513 514
f 614 646 645
f 646 676 645
f 645 644 614
f 645 676 644
f 494 493 462
f 462 461 431
f 462 493 461
f 433 464 463
f 463 432 433
f 464 494 463
f 494 462 463
f 431 432 463
f 463 462 431
f 336 292 293
f 293 337 336
f 293 291 294
f 292 291 293
f 294 296 293
f 293 296 338
f 338 337 293
f 458 459 490
f 490 489 458
f 490 491 521
f 490 459 491
f 521 520 490
f 520 489 490
f 363 364 395
f 395 394 363
f 334 364 363
f 363 362 332
f 393 362 363
f 363 394 393
f 356 325 326
f 326 325 268
f 326 268 271
f 324 325 354
f 263 325 324
f 324 323 263
f 354 353 324
f 353 323 324
f 925 955 924
f 893 894 924
f 924 894 925
f 924 923 893
f 924 955 923
f 864 865 896
f 896 895 864
f 833 865 864
f 864 832 833
f 863 832 864
f 864 894 863
f 864 895 894
f 1080 1050 1081
f 1081 1112 1080
f 1082 1112 1081
f 1081 1051 1082
f 1081 1050 1051
f 927 958 957
f 957 926 927
f 987 956 957
f 925 926 957
f 957 956 925
f 1065 1095 1064
f 1064 1033 1065
f 1095 1063 1064
f 1064 1063 1033
f 1002 1003 1034
f 1034 1033 1002
f 1065 1033 1034
f 1034 1035 1065
f 1003 1035 1034
f 1001 1000 969
f 969 970 1001
f 938 970 969
f 969 937 938
f 969 968 937
f 1198 1126 1163
f 1163 1126 1127
f 1127 1162 1163
f 1164 1128 1165
f 1129 1166 1165
f 1165 1128 1129
f 915 883 884
f 884 885 915
f 885 916 915
f 819 820 850
f 850 880 849
f 849 818 850
f 818 819 850
f 1008 1007 977
f 975 1005 974
f 974 944 975
f 1006 1007 1037
f 1006 1005 975
f 1037 1005 1006
f 1039 1007 1008
f 1039 1040 1070
f 883 915 914
f 1130 1169 1168
f 1170 1169 1131
f 1131 1132 1170
f 1101 1132 1131
f 1131 1130 1099
f 1131 1169 1130
f 856 888 887
f 856 857 888
f 826 857 856
f 856 825 826
f 887 886 856
f 886 855 856
f 856 855 824
f 824 825 856
f 793 763 794
f 794 826 793
f 826 825 793
f 793 762 763
f 792 762 793
f 824 792 793
f 793 825 824
f 1102 1133 1101
f 1103 1133 1102
f 1072 1103 1102
f 870 871 901
f 869 870 901
f 901 900 869
f 932 931 901
f 931 900 901
f 933 934 964
f 964 932 933
f 933 903 934
f 932 901 933
f 1116 53 52
f 52 46 1116
f 52 53 50
f 50 46 52
f 50 53 49
f 53 55 49
f 49 404 50
f 49 55 404
f 56 435 51
f 435 55 51
f 54 56 51
f 51 55 54
f 990 959 960
f 960 991 990
f 990 1021 989
f 990 991 1022
f 1022 1021 990
f 958 959 990
f 990 989 958
f 811 778 779
f 812 842 811
f 811 780 812
f 779 780 811
f 841 842 872
f 841 811 842
f 872 871 841
f 841 871 840
f 841 840 809
f 228 719 227
f 227 719 231
f 999 1000 1030
f 999 1030 998
f 999 969 1000
f 968 969 999
f 998 967 999
f 967 968 999
f 1030 1062 1061
f 1060 1030 1061
f 1061 1092 1060
f 1062 1093 1061
f 1061 1093 1092
f 1123 1093 1124
f 1124 1093 1125
f 690 691 217
f 690 660 691
f 217 216 690
f 690 216 689
f 690 689 659
f 659 660 690
f 661 660 630
f 691 660 661
f 630 662 661
f 661 662 691
f 303 300 306
f 303 304 300
f 498 467 499
f 499 529 498
f 499 530 529
f 655 623 624
f 624 625 655
f 593 594 624
f 624 594 625
f 592 562 593
f 561 562 592
f 593 624 592
f 592 624 623
f 591 560 592
f 560 561 592
f 655 685 684
f 230 232 684
f 684 685 230
f 684 101 100
f 684 232 147
f 147 101 684
f 591 592 622
f 622 592 623
f 109 112 622
f 111 591 622
f 622 112 111
f 254 255 256
f 320 255 254
f 254 256 258
f 258 320 254
f 319 320 349
f 319 255 320
f 318 255 319
f 349 348 319
f 348 318 319
f 414 445 444
f 445 476 444
f 444 476 475
f 537 568 536
f 507 538 537
f 537 538 568
f 504 473 505
f 505 535 504
f 536 535 505
f 632 631 601
f 663 662 632
f 662 631 632
f 602 633 632
f 632 601 602
f 633 664 632
f 632 664 663
f 344 315 345
f 316 315 241
f 241 317 316
f 316 345 315
f 442 441 411
f 473 441 442
f 411 443 442
f 442 443 473
f 534 535 565
f 535 566 565
f 564 534 565
f 565 596 564
f 565 566 597
f 597 596 565
f 533 532 501
f 531 532 563
f 563 562 531
f 531 501 532
f 500 501 531
f 531 562 530
f 530 499 531
f 531 499 500
f 655 625 656
f 656 686 655
f 656 625 657
f 657 687 656
f 687 686 656
f 634 635 666
f 634 603 604
f 604 635 634
f 634 633 602
f 602 603 634
f 510 542 541
f 542 572 541
f 541 572 540
f 541 509 510
f 540 509 541
f 1069 1070 1101
f 1036 1005 1037
f 1035 1005 1036
f 910 880 911
f 911 941 910
f 911 942 941
f 912 942 911
f 730 199 195
f 730 729 199
f 195 192 730
f 730 192 190
f 190 731 730
f 495 464 496
f 464 465 496
f 496 527 495
f 496 528 527
f 496 465 528
f 85 80 79
f 80 716 79
f 652 72 683
f 683 72 716
f 683 716 651
f 651 620 683
f 683 620 652
f 77 76 716
f 716 72 77
f 75 76 77
f 77 72 75
f 930 899 67
f 929 898 930
f 898 867 930
f 930 867 899
f 483 451 452
f 452 451 421
f 421 422 452
f 452 484 483
f 391 421 390
f 359 360 390
f 390 360 391
f 512 511 481
f 512 543 511
f 481 513 512
f 512 513 543
f 698 697 667
f 667 668 698
f 697 666 667
f 606 605 575
f 575 607 606
f 606 607 638
f 638 637 606
f 453 454 484
f 484 452 453
f 453 452 422
f 423 454 453
f 453 422 423
f 277 281 280
f 279 331 277
f 279 280 282
f 277 280 279
f 285 331 279
f 282 283 279
f 283 285 279
f 329 275 330
f 329 360 359
f 330 360 329
f 359 328 329
f 328 275 329
f 578 546 547
f 547 546 516
f 548 578 547
f 517 548 547
f 547 516 517
f 334 363 333
f 284 287 333
f 333 287 334
f 333 363 332
f 333 285 284
f 332 285 333
f 989 1019 988
f 958 989 988
f 988 957 958
f 988 1019 987
f 987 957 988
f 821 820 789
f 821 789 822
f 822 853 821
f 853 852 821
f 852 883 851
f 883 882 851
f 851 821 852
f 820 821 851
f 882 850 851
f 851 850 820
f 789 820 788
f 881 882 912
f 881 850 882
f 880 850 881
f 912 911 881
f 881 911 880
f 948 979 978
f 978 979 1010
f 942 974 973
f 973 972 942
f 973 1005 1004
f 973 974 1005
f 1004 1003 973
f 1003 972 973
f 943 942 912
f 943 974 942
f 912 944 943
f 944 974 943
f 945 915 946
f 945 914 915
f 946 977 945
f 912 882 913
f 913 944 912
f 913 882 883
f 883 914 913
f 913 945 944
f 914 945 913
f 1130 1168 1167
f 1167 1166 1129
f 1129 1130 1167
f 1101 1070 1071
f 1071 1102 1101
f 1070 1040 1071
f 1071 1040 1072
f 1072 1102 1071
f 902 871 903
f 903 933 902
f 902 901 871
f 902 933 901
f 778 811 810
f 811 841 810
f 810 841 809
f 809 777 810
f 777 778 810
f 1160 1199 1123
f 1123 1124 1160
f 1160 1125 1161
f 1160 1124 1125
f 468 499 467
f 654 623 655
f 655 684 654
f 654 684 100
f 414 444 413
f 413 444 443
f 443 444 474
f 474 444 475
f 473 443 474
f 474 505 473
f 506 475 507
f 507 537 506
f 506 474 475
f 505 474 506
f 506 537 536
f 536 505 506
f 376 377 407
f 376 345 377
f 377 345 346
f 345 316 346
f 347 377 346
f 346 317 347
f 346 316 317
f 407 377 408
f 408 439 407
f 408 377 409
f 409 439 408
f 407 439 438
f 440 439 409
f 409 441 440
f 441 471 440
f 533 501 502
f 502 501 471
f 502 471 503
f 502 534 533
f 502 503 534
f 665 666 695
f 665 634 666
f 695 664 665
f 665 664 633
f 633 634 665
f 1007 1039 1038
f 1037 1007 1038
f 1038 1039 1070
f 1070 1069 1038
f 1038 1068 1037
f 1038 1069 1068
f 1101 1131 1100
f 1100 1069 1101
f 1100 1131 1099
f 1099 1068 1100
f 1068 1069 1100
f 1067 1068 1098
f 1067 1098 1066
f 1037 1068 1067
f 1067 1036 1037
f 1066 1035 1067
f 1035 1036 1067
f 729 730 758
f 789 788 758
f 728 729 758
f 73 76 85
f 85 79 73
f 716 76 73
f 73 79 716
f 961 66 63
f 63 992 961
f 961 67 66
f 961 930 67
f 961 992 929
f 929 930 961
f 271 328 327
f 328 357 327
f 327 326 271
f 356 326 327
f 327 357 356
f 358 357 328
f 358 328 359
f 359 390 358
f 636 606 637
f 605 606 636
f 637 668 636
f 668 667 636
f 636 635 604
f 604 605 636
f 666 635 636
f 636 667 666
f 787 758 788
f 787 820 819
f 787 788 820
f 818 786 787
f 787 819 818
f 946 915 947
f 947 915 916
f 947 977 946
f 947 978 977
f 948 978 947
f 947 917 948
f 947 916 917
f 1009 1039 1008
f 1040 1039 1009
f 1008 977 1009
f 977 978 1009
f 1009 978 1010
f 1010 1041 1009
f 1041 1040 1009
f 976 977 1007
f 976 945 977
f 976 1006 975
f 1007 1006 976
f 975 944 976
f 944 945 976
f 437 467 436
f 437 468 467
f 437 438 468
f 653 622 623
f 623 654 653
f 653 654 100
f 100 102 653
f 653 102 104
f 653 104 109
f 109 622 653
f 351 383 382
f 382 383 414
f 414 413 382
f 381 350 382
f 382 350 351
f 412 413 443
f 412 443 411
f 381 382 412
f 412 382 413
f 412 380 381
f 411 380 412
f 470 438 439
f 471 501 470
f 470 440 471
f 439 440 470
f 789 758 759
f 759 758 730
f 760 789 759
f 759 731 760
f 759 730 731
f 421 451 420
f 451 419 420
f 389 420 419
f 389 358 390
f 389 390 421
f 421 420 389
f 756 728 757
f 757 786 756
f 757 787 786
f 728 758 757
f 758 787 757
f 436 405 406
f 406 437 436
f 406 405 374
f 407 438 406
f 438 437 406
f 469 501 500
f 469 470 501
f 438 470 469
f 468 438 469
f 500 499 469
f 499 468 469
f 388 389 419
f 388 419 387
f 357 358 388
f 358 389 388
f 388 387 356
f 356 357 388
f 375 406 374
f 374 343 375
f 343 344 375
f 344 345 375
f 345 376 375
f 375 376 407
f 407 406 375
f 156 158 155
f 155 158 159
f 159 158 162
f 162 161 159
f 162 160 161
f 165 160 162
f 164 160 165
f 163 160 164
f 22 4 23
f 23 4 3
f 3 2 23
f 2 24 23
f 13 25 14
f 14 25 15
f 163 164 168
f 168 167 163
f 187 185 186
f 189 185 187
f 35 24 2
f 35 36 24
f 86 35 37
f 36 35 86
f 12 25 13
f 16 25 12
f 19 18 9
f 8 19 9
f 7 19 8
f 7 20 19
f 11 21 7
f 21 20 7
f 222 225 223
f 226 225 222
f 222 219 220
f 223 219 222
f 148 149 150
f 150 149 151
f 156 155 157
f 155 152 157
f 191 185 189
f 189 190 191
f 179 177 173
f 178 177 179
f 170 166 172
f 172 171 170
f 167 168 172
f 172 166 167
f 42 86 38
f 38 86 37
f 192 191 190
f 196 191 192
f 194 196 192
f 192 195 194
f 10 9 18
f 10 18 17
f 146 88 143
f 143 88 87
f 233 99 232
f 232 99 147
f 231 233 232
f 232 230 231
f 90 14 15
f 90 89 14
f 90 88 89
f 87 88 90
f 153 157 152
f 154 157 153
f 153 150 151
f 153 151 154
f 82 149 148
f 148 83 82
f 188 182 183
f 183 184 188
f 188 187 186
f 186 182 188
f 213 214 218
f 218 217 213
f 216 217 218
f 218 221 216
f 220 219 216
f 216 221 220
f 194 195 193
f 195 199 193
f 198 193 199
f 197 193 198
f 198 200 197
f 201 200 198
f 224 225 226
f 226 228 224
f 211 210 206
f 210 207 206
f 209 205 206
f 206 207 209
f 208 205 209
f 209 202 208
f 203 200 201
f 201 204 203
f 203 208 202
f 204 208 203
f 81 82 83
f 81 83 80
f 170 171 169
f 171 176 169
f 174 169 176
f 174 176 175
f 174 179 173
f 175 179 174
f 180 177 178
f 181 177 180
f 180 184 183
f 183 181 180
f 215 210 211
f 211 212 215
f 214 213 215
f 215 212 214
f 147 99 101
f 99 103 101
f 227 224 228
f 229 224 227
f 231 230 227
f 227 230 229
f 280 276 274
f 270 267 280
f 280 269 270
f 280 26 28
f 30 32 280
f 28 30 280
f 297 295 280
f 280 256 253
f 280 307 309
f 253 252 280
f 42 714 280
f 245 243 280
f 280 86 42
f 32 34 280
f 87 90 280
f 289 288 280
f 280 283 282
f 280 714 715
f 274 272 280
f 36 86 280
f 280 34 36
f 280 92 94
f 94 96 280
f 280 713 143
f 280 239 235
f 280 249 251
f 715 311 280
f 288 286 280
f 306 301 280
f 280 143 87
f 280 90 92
f 96 98 280
f 98 26 280
f 280 246 245
f 295 294 280
f 280 286 283
f 278 276 280
f 259 257 280
f 280 291 289
f 235 237 280
f 252 250 280
f 244 240 280
f 280 262 259
f 272 269 280
f 280 298 297
f 312 307 280
f 309 304 280
f 280 250 249
f 280 240 239
f 280 257 256
f 264 265 280
f 251 246 280
f 280 242 244
f 280 311 312
f 294 291 280
f 302 298 280
f 280 301 302
f 280 303 306
f 237 713 280
f 265 262 280
f 280 267 264
f 280 243 242
f 280 281 278
f 304 303 280
f 1180 1183 1160
f 97 95 1160
f 1175 1176 1160
f 1149 1150 1160
f 1160 1148 1149
f 1160 1196 1178
f 1160 1191 1190
f 1160 27 1
f 1 97 1160
f 1160 33 31
f 1174 1197 1160
f 1159 1199 1160
f 1178 1195 1160
f 146 1192 1160
f 1160 29 27
f 1177 1196 1160
f 1160 1165 1166
f 1160 1179 1180
f 37 35 1160
f 91 89 1160
f 1197 1175 1160
f 1160 88 146
f 1185 1188 1160
f 1160 1173 1174
f 1160 38 37
f 1154 1155 1160
f 1193 1148 1160
f 1160 1192 1193
f 1195 1181 1160
f 1160 1152 1154
f 1160 1157 1159
f 31 29 1160
f 1160 93 91
f 89 88 1160
f 1160 1188 1187
f 1187 1191 1160
f 1198 1163 1160
f 1160 1184 1185
f 1160 1155 1156
f 1156 1158 1160
f 1160 1150 1151
f 1151 1153 1160
f 35 33 1160
f 1160 95 93
f 1160 1176 1177
f 1160 1161 1198
f 1171 1172 1160
f 1160 1170 1171
f 1160 1183 1182
f 1190 1194 1160
f 1160 1181 1179
f 1158 1157 1160
f 1153 1152 1160
f 1166 1167 1160
f 1182 1186 1160
f 1160 1194 38
f 1160 1186 1184
f 1160 1162 1164
f 1160 1169 1170
f 1172 1173 1160
f 1160 1163 1162
f 1164 1165 1160
f 1160 1168 1169
f 1160 1167 1168

