# https://github.com/mikedh/trimesh
v -0.05100025 -0.00666669 -0.01350005
v -0.05550025 -0.00750001 -0.01350002
v -0.05100023 -0.00675002 -0.01050005
v -0.05550025 -0.00600001 -0.01350002
v -0.05550004 0.00449999 0.01199998
v -0.05550003 0.00749999 0.01349998
v -0.05550014 -0.01350001 0.00299998
v -0.05550010 -0.00900001 0.00749998
v -0.05550012 -0.00900001 0.00449998
v -0.05550010 -0.01050001 0.00749998
v -0.05550013 -0.01200001 0.00449998
v -0.05550011 -0.00900001 0.00599998
v -0.05550011 -0.01350001 0.00749998
v -0.05550011 -0.01200001 0.00749998
v -0.05550006 0.01199999 0.00749998
v -0.05550006 0.01049999 0.00749998
v -0.05550008 0.01199999 0.00449998
v -0.05550009 0.00899999 0.00449998
v -0.05550007 0.01199999 0.00599998
v -0.05550011 0.00749999 0.00149998
v -0.05550015 0.00749999 -0.00300002
v -0.05550021 -0.00900001 -0.00750002
v -0.05550021 -0.00375001 -0.00862502
v -0.05550022 -0.01200001 -0.00750002
v -0.05550023 -0.00675001 -0.01050002
v -0.05550020 0.00749999 -0.01050002
v -0.05550022 -0.00000001 -0.01050002
v -0.05550022 -0.00150001 -0.01050002
v -0.05550021 0.00449999 -0.01050002
v -0.05550021 0.00149999 -0.01050002
v -0.05550021 -0.01050001 -0.00750002
v -0.05550019 -0.01300001 -0.00400002
v -0.05550020 -0.00900001 -0.00600002
v -0.05550021 -0.01200001 -0.00600002
v -0.05550005 -0.00450001 0.01349998
v -0.05550005 -0.00150001 0.01249998
v -0.05550008 0.00299999 0.00749998
v -0.05550007 -0.00600001 0.01049998
v -0.05550006 0.00149999 0.01099998
v -0.05550017 0.01199999 -0.00750002
v -0.05550018 0.00824999 -0.00825002
v -0.05550017 0.01049999 -0.00750002
v -0.05550015 0.01199999 -0.00450002
v -0.05550015 0.00899999 -0.00450002
v -0.05550017 0.00899999 -0.00600002
v -0.05550016 0.01199999 -0.00600002
v -0.05550011 -0.00450001 0.00449998
v -0.05550013 -0.00525001 0.00299998
v -0.05550016 -0.00600001 -0.00150002
v -0.05550014 -0.00600001 0.00074998
v -0.05550018 -0.00750001 -0.00375002
v -0.05550018 -0.00450001 -0.00450002
v -0.05550017 -0.00450001 -0.00300002
v -0.05550018 0.00074999 -0.00600002
v -0.05550019 -0.00150001 -0.00600002
v -0.05550019 -0.00300001 -0.00600002
v -0.05550018 -0.00300001 -0.00450002
v -0.05550018 0.00299999 -0.00600002
v -0.05550017 0.00299999 -0.00450002
v -0.05550016 0.00449999 -0.00450002
v -0.05550012 0.00599999 0.00037498
v -0.05550015 0.00524999 -0.00300002
v -0.05550011 0.00524999 0.00299998
v -0.05550010 0.00449999 0.00449998
v -0.05550010 -0.00300001 0.00583332
v -0.05550009 0.00149999 0.00599998
v -0.05550009 0.00299999 0.00524998
v -0.05550020 0.00449999 -0.00900002
v -0.05550004 0.00749999 0.01199998
v -0.05550006 0.00824999 0.00824998
v -0.05550006 0.00449999 0.00899998
v -0.05550004 0.00599999 0.01199998
v -0.05550017 -0.01050001 -0.00150002
v -0.05550017 -0.01200001 -0.00150002
v -0.05550016 -0.01050001 -0.00000002
v -0.05550015 -0.01150001 0.00149998
v -0.05550008 -0.00750001 0.01049998
v -0.05550005 -0.00600001 0.01349998
v -0.05550005 -0.00750001 0.01349998
v -0.05550001 0.00599999 0.01649998
v -0.05550001 0.00877499 0.01559998
v -0.05550000 0.00449999 0.01799998
v -0.05550004 0.01649999 0.00899998
v -0.05550006 0.01649999 0.00599998
v -0.05550007 0.01799999 0.00449998
v -0.05550014 0.01799999 -0.00450002
v -0.05550012 0.01449999 -0.00150002
v -0.05550009 0.01799999 0.00149998
v -0.05550010 0.01499999 0.00149998
v -0.05550012 0.01799999 -0.00150002
v -0.05550011 0.01349999 -0.00000002
v -0.05550010 0.01349999 0.00149998
v -0.05550015 0.01649999 -0.00600002
v -0.05550017 0.01599999 -0.00900002
v -0.05550019 0.01499999 -0.01050002
v -0.05550021 0.01199999 -0.01350002
v -0.05550023 0.00974999 -0.01500002
v -0.05550024 0.00749999 -0.01650002
v -0.05550021 0.00749999 -0.01200002
v -0.05550022 0.00449999 -0.01200002
v -0.05550026 0.00449999 -0.01800002
v -0.05550026 0.00299999 -0.01800002
v -0.05550025 0.00599999 -0.01650002
v -0.05550027 0.00074999 -0.01800002
v -0.05550024 -0.00000001 -0.01350002
v -0.05550028 -0.00450001 -0.01800002
v -0.05550024 -0.00150001 -0.01350002
v -0.05550022 -0.00450001 -0.01050002
v -0.05550023 0.00149999 -0.01350002
v -0.05550027 -0.00600001 -0.01650002
v -0.05550028 -0.00900001 -0.01650002
v -0.05550026 -0.01200001 -0.01350002
v -0.05550025 -0.01350001 -0.01200002
v -0.05550027 -0.01050001 -0.01500002
v -0.05550027 -0.00900001 -0.01500002
v -0.05550024 -0.01500001 -0.01050002
v -0.05550023 -0.01500001 -0.00900002
v -0.05550021 -0.01700001 -0.00550002
v -0.05550024 -0.01650001 -0.00900002
v -0.05550019 -0.01800001 -0.00225002
v -0.05550016 -0.01350001 -0.00000002
v -0.05550016 -0.01800001 0.00149998
v -0.05550014 -0.01800001 0.00449998
v -0.05550013 -0.01650001 0.00599998
v -0.05550010 -0.01650001 0.00899998
v -0.05550008 -0.01350001 0.01199998
v -0.05550005 -0.01050001 0.01499998
v -0.05550003 -0.00600001 0.01649998
v -0.05550004 -0.00900001 0.01574998
v -0.05550002 -0.00450001 0.01799998
v -0.05550001 -0.00075001 0.01799998
v -0.05550004 -0.00000001 0.01349998
v -0.05550000 0.00149999 0.01799998
v -0.05100023 -0.00900002 -0.01050005
v -0.05100023 -0.01125002 -0.00975005
v -0.05100022 -0.00450002 -0.01050005
v -0.05100021 -0.00075002 -0.00900005
v -0.05100019 0.01199998 -0.00975005
v -0.05100020 -0.00450002 -0.00750005
v -0.05100019 0.00299998 -0.00750005
v -0.05100019 0.00749998 -0.00900005
v -0.05100015 0.00749998 -0.00300005
v -0.05100011 0.00749998 0.00149995
v -0.05100014 0.01199998 -0.00300005
v -0.05100010 0.01199998 0.00224995
v -0.05100011 0.00599998 0.00299995
v -0.05100011 -0.01200002 0.00749995
v -0.05100011 -0.01350002 0.00749995
v -0.05100013 -0.01200002 0.00449995
v -0.05100012 -0.01200002 0.00599995
v -0.05100013 -0.01050002 0.00449995
v -0.05100013 -0.00900002 0.00299995
v -0.05100012 -0.00900002 0.00449995
v -0.05100006 0.00749998 0.00899995
v -0.05100006 0.01199998 0.00749995
v -0.05100007 0.00899998 0.00749995
v -0.05100009 0.00899998 0.00449995
v -0.05100009 0.01049998 0.00449995
v -0.05100008 0.01199998 0.00449995
v -0.05100004 0.00149999 0.01349995
v -0.05100022 -0.00150002 -0.01050005
v -0.05100023 -0.01500002 -0.00900005
v -0.05100021 -0.00900002 -0.00750005
v -0.05100022 -0.01200002 -0.00750005
v -0.05100019 -0.01800002 -0.00300005
v -0.05100019 -0.00900002 -0.00450005
v -0.05100019 -0.01200002 -0.00450005
v -0.05100021 -0.01200002 -0.00600005
v -0.05100005 -0.00600001 0.01349995
v -0.05100009 -0.00450002 0.00749995
v -0.05100006 -0.00150002 0.01049995
v -0.05100008 0.00299998 0.00749995
v -0.05100006 0.00149998 0.01049995
v -0.05100006 -0.00000002 0.01049995
v -0.05100018 0.00899998 -0.00750005
v -0.05100017 0.01199998 -0.00750005
v -0.05100015 0.00899998 -0.00450005
v -0.05100015 0.01199998 -0.00450005
v -0.05100017 0.00899998 -0.00600005
v -0.05100011 0.00449998 0.00299995
v -0.05100010 0.00449998 0.00449995
v -0.05100010 0.00299998 0.00449995
v -0.05100012 0.00599998 0.00149995
v -0.05100013 0.00599998 -0.00075005
v -0.05100015 0.00599998 -0.00300005
v -0.05100016 0.00449998 -0.00450005
v -0.05100015 0.00449998 -0.00300005
v -0.05100019 -0.00300002 -0.00600005
v -0.05100017 0.00299998 -0.00525005
v -0.05100018 0.00074998 -0.00600005
v -0.05100018 -0.00350002 -0.00450005
v -0.05100016 -0.00600002 -0.00150005
v -0.05100015 -0.00600002 -0.00000005
v -0.05100014 -0.00600002 0.00149995
v -0.05100017 -0.00525002 -0.00300005
v -0.05100013 -0.00600002 0.00299995
v -0.05100013 -0.00450002 0.00299995
v -0.05100011 -0.00450002 0.00449995
v -0.05100011 -0.00300002 0.00499995
v -0.05100010 -0.00075002 0.00599995
v -0.05100009 0.00149998 0.00599995
v -0.05100009 0.00299998 0.00599995
v -0.05100021 0.00149998 -0.01050005
v -0.05100020 0.00449998 -0.00900005
v -0.05100005 0.00749998 0.01049995
v -0.05100004 0.00749998 0.01199995
v -0.05100004 0.00449998 0.01199995
v -0.05100004 0.00599998 0.01199995
v -0.05100006 0.00449998 0.00899995
v -0.05100006 0.00599998 0.00899995
v -0.05100018 -0.01350002 -0.00150005
v -0.05100017 -0.01050002 -0.00150005
v -0.05100015 -0.01050002 0.00149995
v -0.05100007 -0.00650002 0.01049995
v -0.05100006 -0.00600002 0.01199995
v -0.05100010 -0.00900002 0.00749995
v -0.05100007 -0.00750002 0.01199995
v -0.05100005 -0.00750001 0.01349995
v -0.05100003 -0.00750001 0.01649995
v -0.05100004 -0.00900001 0.01649995
v -0.05100003 -0.00600001 0.01649995
v -0.05100005 -0.00900001 0.01499995
v -0.05100005 -0.01050001 0.01499995
v -0.05100006 -0.01200001 0.01349995
v -0.05100008 -0.01425002 0.01124995
v -0.05100010 -0.01650002 0.00899995
v -0.05100013 -0.01650002 0.00599995
v -0.05100014 -0.01800002 0.00449995
v -0.05100015 -0.01800002 0.00299995
v -0.05100015 -0.01350002 0.00149995
v -0.05100016 -0.01800002 0.00149995
v -0.05100018 -0.01800002 -0.00150005
v -0.05100021 -0.01650002 -0.00600005
v -0.05100021 -0.01800002 -0.00450005
v -0.05100024 -0.01650002 -0.00900005
v -0.05100024 -0.01500002 -0.01050005
v -0.05100025 -0.01350002 -0.01200005
v -0.05100027 -0.01050002 -0.01500005
v -0.05100028 -0.00450002 -0.01800005
v -0.05100027 -0.00600002 -0.01650005
v -0.05100027 -0.00900002 -0.01575005
v -0.05100027 -0.00750002 -0.01650005
v -0.05100024 -0.00150002 -0.01350005
v -0.05100027 -0.00150002 -0.01800005
v -0.05100023 0.00149998 -0.01350005
v -0.05100027 0.00149998 -0.01800005
v -0.05100026 0.00299998 -0.01800005
v -0.05100022 0.00149998 -0.01200005
v -0.05100027 -0.00000002 -0.01800005
v -0.05100022 0.00449998 -0.01200005
v -0.05100026 0.00499998 -0.01750005
v -0.05100021 0.00599998 -0.01200005
v -0.05100024 0.00749998 -0.01650005
v -0.05100021 0.00749998 -0.01200005
v -0.05100023 0.01049998 -0.01500005
v -0.05100023 0.00899998 -0.01500005
v -0.05100020 0.01349998 -0.01200005
v -0.05100019 0.01499998 -0.01050005
v -0.05100018 0.01549998 -0.00900005
v -0.05100015 0.01649998 -0.00600005
v -0.05100014 0.01799998 -0.00450005
v -0.05100009 0.01799998 0.00149995
v -0.05100010 0.01424998 0.00149995
v -0.05100012 0.01499998 -0.00150005
v -0.05100012 0.01349998 -0.00150005
v -0.05100012 0.01799998 -0.00150005
v -0.05100008 0.01799998 0.00299995
v -0.05100006 0.01649998 0.00599995
v -0.05100004 0.01649998 0.00899995
v -0.05100007 0.01799998 0.00449995
v -0.05100003 0.01499998 0.01049995
v -0.05100002 0.01274998 0.01274995
v -0.05100001 0.01049999 0.01499995
v -0.05100001 0.00899999 0.01499995
v -0.05100001 0.00674999 0.01649995
v -0.05100000 0.00449999 0.01799995
v -0.05100001 0.00074999 0.01799995
v -0.05100004 -0.00150001 0.01349995
v -0.05100002 -0.00450001 0.01799995
v -0.05100000 0.00299999 0.01799995
v -0.04877424 -0.01637372 0.02747131
v -0.04800005 -0.01818186 0.02620542
v -0.04800006 -0.01871685 0.02468711
v -0.05100006 -0.01905563 0.02481392
v -0.04800006 -0.01734487 0.02328926
v -0.04800006 -0.01547344 0.02411805
v -0.04800005 -0.01543358 0.02555473
v -0.04800005 -0.01593554 0.02629681
v -0.05100005 -0.01493557 0.02518682
v -0.04800033 -0.02600003 -0.03000006
v -0.04800030 -0.03982503 -0.01875006
v -0.04800027 -0.02458412 -0.01730415
v -0.04800025 -0.01220928 -0.01833131
v -0.04800034 -0.04299406 -0.02554271
v -0.04800020 -0.04300002 0.00431052
v -0.04800021 -0.01658560 -0.00819622
v -0.04800019 -0.00904618 -0.00819622
v -0.04800019 -0.00152948 -0.00982968
v -0.04800020 0.00299998 -0.01540007
v -0.04800020 -0.00177988 -0.01324972
v -0.04800020 0.00016909 -0.01434307
v -0.04800019 0.00237119 -0.01182884
v -0.04800019 -0.00712118 -0.00747314
v -0.04800017 0.00299998 -0.00747314
v -0.04800016 0.00819613 -0.00819622
v -0.04800019 -0.01496589 -0.00393756
v -0.04800016 -0.00566759 -0.00212617
v -0.04800021 -0.03063127 -0.00373660
v -0.04800015 -0.01334617 0.00299994
v -0.04800010 0.00819646 0.00604386
v -0.04800019 -0.03982502 0.00431052
v -0.04800015 -0.03085287 0.01077024
v -0.04800013 -0.01496589 0.00822782
v -0.04800010 -0.01119617 0.01284801
v -0.04800011 -0.00712117 0.00825955
v -0.04800013 -0.03982502 0.01707494
v -0.04800012 -0.03217502 0.01707494
v -0.04800013 -0.03512679 0.01675838
v -0.04800014 -0.03578262 0.01345863
v -0.04800013 -0.03304774 0.01449564
v -0.04800014 -0.03676367 0.01525684
v -0.04800010 -0.01982502 0.01707494
v -0.04800010 0.00299998 0.00768551
v -0.04800005 0.00299998 0.01707493
v -0.04800007 -0.00712117 0.01707494
v -0.04800008 -0.00220149 0.01256931
v -0.04800008 0.00223096 0.01086811
v -0.04800007 0.00034670 0.01438186
v -0.04800009 -0.00125515 0.01007589
v -0.04800027 -0.03341017 -0.01544148
v -0.04800022 -0.02374145 -0.00735173
v -0.04800025 -0.02156180 -0.01485307
v -0.04800024 -0.02110031 -0.01352938
v -0.04800023 -0.02099284 -0.01216023
v -0.04800026 -0.02285642 -0.01648571
v -0.04800026 -0.03212699 -0.01316975
v -0.04800027 -0.02619521 -0.01753197
v -0.04800014 -0.00595829 0.00143695
v -0.04800012 -0.00379849 0.00482246
v -0.04800011 0.00080052 0.00612040
v -0.04800011 0.00459155 0.00406584
v -0.04800013 0.00615670 -0.00056146
v -0.04800015 0.00395992 -0.00471862
v -0.04800017 -0.00226654 -0.00599694
v -0.04800017 0.00559638 -0.00817639
v -0.04800018 0.00362415 -0.01030622
v -0.04800017 0.00719386 -0.00858787
v -0.04800008 0.00763863 0.00900036
v -0.04800009 0.00651758 0.00818284
v -0.04800009 0.00464822 0.00867842
v -0.04800012 -0.01056144 0.00834294
v -0.04800013 -0.01228774 0.00705459
v -0.04800012 -0.00826721 0.00649467
v -0.04800012 -0.00878456 0.00744273
v -0.04800013 -0.00848489 0.00486189
v -0.04800014 -0.01257222 0.00535283
v -0.04800014 -0.01047584 0.00370422
v -0.04800017 -0.01421500 -0.00003860
v -0.04800016 -0.01361710 0.00146665
v -0.04800017 -0.01368133 -0.00137050
v -0.04800017 -0.01183090 -0.00234307
v -0.04800015 -0.01128142 0.00226612
v -0.04800016 -0.00983837 -0.00055958
v -0.04800015 -0.00996654 0.00070689
v -0.04800019 -0.01262931 -0.00562835
v -0.04800017 -0.01015239 -0.00356539
v -0.04800018 -0.00819450 -0.00572227
v -0.04800019 -0.00891737 -0.00773686
v -0.04800020 -0.01164746 -0.00792411
v -0.04800027 -0.03524192 -0.01309548
v -0.04800027 -0.03332097 -0.01467104
v -0.04800028 -0.03668879 -0.01494511
v -0.04800028 -0.03516475 -0.01681711
v -0.04800028 -0.03360352 -0.01591401
v -0.04800028 -0.03645259 -0.01579565
v -0.04897305 0.00700957 0.01635957
v -0.04800008 0.00820945 0.01006972
v -0.04800007 0.00783797 0.01153703
v -0.04800008 0.00382758 0.01121318
v -0.04800007 0.00584158 0.01260188
v -0.04800009 0.00410724 0.00935556
v -0.04800007 0.00719386 0.01219674
v -0.04800002 -0.00557423 0.02705914
v -0.04800002 -0.01004042 0.02952223
v -0.04800005 -0.02600002 0.02999994
v -0.04800009 -0.03396178 0.02352612
v -0.04800008 -0.03493693 0.02672740
v -0.04800007 -0.03881752 0.02996075
v -0.04800008 -0.04155064 0.02877149
v -0.04800008 -0.03339058 0.02567453
v -0.04800010 -0.03609566 0.02366290
v -0.04800009 -0.03666721 0.02562996
v -0.04800010 -0.04300002 0.02499994
v -0.04800010 -0.04292114 0.02597857
v -0.04800035 -0.04194116 -0.02830277
v -0.04800035 -0.03911429 -0.02991892
v -0.04800033 -0.03396179 -0.02647388
v -0.04800031 -0.03512680 -0.02324163
v -0.04800031 -0.03339059 -0.02432547
v -0.04800032 -0.03650491 -0.02423504
v -0.04800033 -0.03612253 -0.02621780
v -0.04800033 -0.03661867 -0.02547957
v -0.04800033 -0.03559129 -0.02655310
v -0.04800030 -0.01060881 -0.02964720
v -0.04800028 -0.01693743 -0.02332344
v -0.04800029 -0.01547345 -0.02588195
v -0.04800029 -0.01871685 -0.02531289
v -0.04800030 -0.01734488 -0.02671074
v -0.04800028 -0.01818187 -0.02379458
v -0.04800028 -0.01752687 -0.02343644
v -0.04800028 -0.01564258 -0.02392981
v -0.04800027 -0.00558867 -0.02707864
v -0.04950017 0.00753612 -0.01591316
v -0.04800019 0.00819613 -0.01535025
v -0.04800018 0.00803313 -0.01116425
v -0.04800017 0.00808670 -0.00964860
v -0.04800019 0.00616734 -0.01278993
v -0.04800015 0.01501526 -0.00860587
v -0.04800016 0.00895644 -0.00778932
v -0.04800016 0.01089439 -0.00811605
v -0.04800015 0.01213925 -0.00735194
v -0.04800012 0.01670998 -0.00300007
v -0.04800014 0.01084163 -0.00377100
v -0.04800014 0.01254855 -0.00608759
v -0.04800014 0.01249028 -0.00551711
v -0.04800014 0.00904810 -0.00429048
v -0.04800015 0.00822294 -0.00615323
v -0.04800014 0.01223027 -0.00485528
v -0.04800015 0.01246391 -0.00657525
v -0.04800015 0.00841330 -0.00512122
v -0.04800011 0.01709401 0.00019584
v -0.04990918 0.01628539 0.00511646
v -0.04800009 0.01217894 0.00469017
v -0.04800010 0.00881072 0.00444872
v -0.04800010 0.00995706 0.00388623
v -0.04800010 0.01089439 0.00388395
v -0.04800007 0.01457454 0.00875105
v -0.04800008 0.01072352 0.00827317
v -0.04800009 0.01255491 0.00638205
v -0.04800008 0.01209359 0.00731918
v -0.04800009 0.00869151 0.00739501
v -0.04800006 0.01276276 0.01130657
v -0.04800012 -0.03018299 0.01567975
v -0.04800011 -0.02696420 0.01744924
v -0.04800010 -0.02260651 0.01661588
v -0.04800013 -0.02153439 0.01020964
v -0.04800013 -0.02110031 0.01147062
v -0.04800012 -0.02099284 0.01283977
v -0.04800014 -0.02251634 0.00889455
v -0.04800015 -0.02455091 0.00762535
v -0.04800015 -0.02890853 0.00837565
v -0.04800015 -0.02701215 0.00758436
v -0.05100010 -0.04297225 0.02582001
v -0.05100013 -0.03982501 0.01707496
v -0.05100017 -0.03982502 0.00904611
v -0.05100014 -0.03455868 0.01329309
v -0.05100012 -0.03217502 0.01707495
v -0.05100013 -0.03396178 0.01647377
v -0.05100013 -0.03334625 0.01460565
v -0.05100013 -0.03559127 0.01655299
v -0.05100013 -0.03631840 0.01603767
v -0.05100014 -0.03664947 0.01427237
v -0.05100010 -0.01982501 0.01707495
v -0.05100008 -0.01119617 0.01707495
v -0.05100003 -0.00479571 0.02641820
v -0.05100011 -0.00712117 0.00862110
v -0.05100009 0.00299998 0.00904610
v -0.05100005 0.00299999 0.01707495
v -0.05100008 -0.00209716 0.01287895
v -0.05100008 0.00222713 0.01183995
v -0.05100007 0.00129675 0.01384166
v -0.05100009 0.00138703 0.01031009
v -0.05100009 -0.00015842 0.00979031
v -0.05100009 -0.00178667 0.01069019
v -0.05100007 -0.00054931 0.01411603
v -0.05100017 -0.03217502 0.00674803
v -0.05100013 -0.01604809 0.00883360
v -0.05100012 -0.00988260 0.00813983
v -0.05100011 0.00041999 0.00602817
v -0.05100018 -0.04300002 0.00768553
v -0.05100014 -0.02319164 0.00835789
v -0.05100009 0.00735527 0.00747302
v -0.05100015 -0.01658559 0.00393745
v -0.05100014 -0.00808367 0.00299995
v -0.05100012 0.00763556 -0.00000005
v -0.05100024 -0.04300002 -0.00373658
v -0.05100020 -0.02129281 -0.00487505
v -0.05100018 -0.01334617 -0.00300005
v -0.05100027 -0.03982502 -0.01179812
v -0.05100024 -0.03217502 -0.00819620
v -0.05100020 -0.01089443 -0.00811604
v -0.05100019 -0.00712117 -0.00747313
v -0.05100017 0.00299998 -0.00747313
v -0.05100016 0.00819613 -0.00819620
v -0.05100021 -0.01982502 -0.00819620
v -0.05100019 -0.00904617 -0.00819620
v -0.05100022 -0.00712117 -0.01540005
v -0.05100023 0.00232436 -0.02031686
v -0.05100020 -0.00225015 -0.01232806
v -0.05100021 -0.00075001 -0.01410322
v -0.05100019 -0.00113759 -0.01003114
v -0.05100018 0.00095779 -0.01001978
v -0.05100019 0.00222713 -0.01216005
v -0.05100020 0.00121110 -0.01385499
v -0.05100019 0.00180247 -0.01081338
v -0.05100030 -0.03982502 -0.01875004
v -0.05100024 -0.02094609 -0.01230869
v -0.05100025 -0.01149305 -0.01843599
v -0.05100027 -0.03217502 -0.01623755
v -0.05100026 -0.01982502 -0.01707505
v -0.05100030 -0.01113469 -0.02967574
v -0.05100028 -0.00666203 -0.02784263
v -0.05100028 -0.02600002 -0.02042505
v -0.05100033 -0.02600002 -0.03000005
v -0.05100027 -0.03515537 -0.01329349
v -0.05100027 -0.03644131 -0.01409832
v -0.05100028 -0.03659507 -0.01561267
v -0.05100027 -0.03360562 -0.01397840
v -0.05100027 -0.03334766 -0.01513485
v -0.05100028 -0.03475419 -0.01668230
v -0.05100028 -0.03580091 -0.01645610
v -0.05100028 -0.03361923 -0.01597131
v -0.05100018 -0.00877525 -0.00453334
v -0.05100018 -0.00818345 -0.00598105
v -0.05100018 -0.01098018 -0.00372569
v -0.05100019 -0.01249920 -0.00644266
v -0.05100019 -0.01251920 -0.00549417
v -0.05100020 -0.01213929 -0.00735193
v -0.05100019 -0.00906035 -0.00782921
v -0.05100017 -0.01417658 -0.00031858
v -0.05100016 -0.01382975 0.00120972
v -0.05100017 -0.01359618 -0.00146277
v -0.05100017 -0.01239639 -0.00217961
v -0.05100015 -0.01171968 0.00221517
v -0.05100016 -0.01010141 -0.00133742
v -0.05100015 -0.01308736 0.00186404
v -0.05100015 -0.01008223 0.00110886
v -0.05100012 -0.00712117 0.00674995
v -0.05100013 -0.00815516 0.00587636
v -0.05100013 -0.00878455 0.00455715
v -0.05100012 -0.00871547 0.00738628
v -0.05100013 -0.01222054 0.00719244
v -0.05100012 -0.01127314 0.00798833
v -0.05100014 -0.01180174 0.00437257
v -0.05100014 -0.01260031 0.00555466
v -0.05100014 -0.01030881 0.00370423
v -0.05100008 0.00767339 0.00904610
v -0.05100008 0.00734738 0.00869242
v -0.05100009 0.00620022 0.00820164
v -0.05100009 0.00518398 0.00840003
v -0.05100009 0.00421849 0.00908900
v -0.05100018 0.00368366 -0.01022525
v -0.05100017 0.00575141 -0.00808925
v -0.05100019 0.00596080 -0.01262490
v -0.05100019 0.00457292 -0.01202093
v -0.05100013 0.00591691 -0.00156900
v -0.05100011 0.00459548 0.00427468
v -0.05100012 0.00592094 0.00097064
v -0.05100012 -0.00360989 0.00506743
v -0.05100016 -0.00593688 -0.00160583
v -0.05100014 -0.00569614 0.00201736
v -0.05100017 -0.00242941 -0.00579749
v -0.05100016 0.00155168 -0.00580421
v -0.05100015 0.00386568 -0.00472202
v -0.05100002 -0.00956531 0.02943841
v -0.05100007 0.00630394 0.01260962
v -0.05100008 0.00396791 0.01151651
v -0.05100006 0.01242794 0.01168026
v -0.05100007 0.00818968 0.01108689
v -0.05100008 0.00789272 0.00935558
v -0.05100008 0.00995707 0.00811365
v -0.05100007 0.01457455 0.00875107
v -0.05100008 0.01089440 0.00811593
v -0.05100008 0.01213926 0.00735182
v -0.05100009 0.00873864 0.00749527
v -0.05100009 0.01257819 0.00596311
v -0.05100009 0.00822294 0.00615311
v -0.05100010 0.01023389 0.00379031
v -0.05100010 0.00860564 0.00469018
v -0.05100010 0.01197385 0.00444873
v -0.05100012 0.01698028 -0.00291923
v -0.05100014 0.01066765 -0.00381761
v -0.05100014 0.01257819 -0.00603689
v -0.05100014 0.00930165 -0.00411856
v -0.05100014 0.01209307 -0.00460498
v -0.05100015 0.00836307 -0.00515086
v -0.05100016 0.01339347 -0.01074289
v -0.05100016 0.00869151 -0.00739513
v -0.05100016 0.01023388 -0.00820969
v -0.05100015 0.00826285 -0.00637431
v -0.05100015 0.01204594 -0.00749538
v -0.05100017 0.00808322 -0.00972930
v -0.05100017 0.00814683 -0.01050876
v -0.05100017 0.00742704 -0.00876378
v -0.05100018 0.00796839 -0.01134363
v -0.05100018 0.00726000 -0.01214705
v -0.05100028 -0.01576268 -0.02386692
v -0.05100030 -0.01334617 -0.02994068
v -0.04950031 -0.01452318 -0.03000006
v -0.05100028 -0.01534883 -0.02475695
v -0.05100029 -0.01874396 -0.02506360
v -0.05100029 -0.01569023 -0.02615322
v -0.05100030 -0.01758648 -0.02664365
v -0.05100028 -0.01745117 -0.02325461
v -0.05100033 -0.03520950 -0.02797137
v -0.05100032 -0.03390438 -0.02633709
v -0.05100035 -0.03954510 -0.02975533
v -0.05100035 -0.03903958 -0.02989078
v -0.05100031 -0.03396178 -0.02352623
v -0.05100033 -0.03612303 -0.02627647
v -0.05100031 -0.03559127 -0.02344700
v -0.05100032 -0.03649279 -0.02429194
v -0.05100032 -0.03618873 -0.02383880
v -0.05100032 -0.03668704 -0.02506246
v -0.05100032 -0.03333517 -0.02511759
v -0.05100035 -0.04164460 -0.02864463
v -0.05100034 -0.04298588 -0.02571365
v -0.05100009 -0.04204126 0.02803462
v -0.05100008 -0.04023433 0.02950623
v -0.05100010 -0.03512678 0.02324152
v -0.05100005 -0.02600001 0.02999995
v -0.05100009 -0.03368163 0.02396223
v -0.05100010 -0.03645201 0.02415930
v -0.05100009 -0.03624759 0.02608920
v -0.05100007 -0.03862363 0.02997159
v -0.05100008 -0.03599855 0.02631351
v -0.05100008 -0.03487324 0.02675839
v -0.05100009 -0.03649279 0.02570805
v -0.05100009 -0.03666486 0.02511749
v -0.05100008 -0.03331051 0.02543691
v -0.05100022 -0.02223678 -0.00896172
v -0.05100022 -0.02537122 -0.00748174
v -0.05100023 -0.02856358 -0.00809098
v -0.05100026 -0.03134159 -0.01240494
v -0.05100027 -0.02922253 -0.01641444
v -0.05100026 -0.02247189 -0.01641979
v -0.05100027 -0.02674316 -0.01751551
v -0.05100013 -0.02169079 0.00979956
v -0.05100011 -0.02118395 0.01494415
v -0.05100011 -0.02699563 0.01751290
v -0.05100010 -0.02457734 0.01730248
v -0.05100013 -0.03071452 0.01478304
v -0.05100015 -0.03064965 0.01044321
v -0.05100015 -0.02914801 0.00858479
v -0.05100015 -0.02555708 0.00732642
v -0.05100015 -0.02809945 0.00796207
v -0.04800010 -0.03550001 0.02449995
v -0.04350010 -0.03550003 0.02449991
v -0.04350009 -0.03400003 0.02449991
v -0.04800009 -0.03400001 0.02449995
v -0.04500009 -0.03400003 0.02449992
v -0.04800008 -0.03400001 0.02599995
v -0.04350008 -0.03400003 0.02599991
v -0.04800008 -0.03550001 0.02599995
v -0.04350008 -0.03550003 0.02599991
v -0.04500010 -0.03700003 0.02449992
v -0.04800010 -0.03700001 0.02449995
v -0.04350011 -0.03550003 0.02299991
v -0.04350012 -0.04000003 0.02449991
v -0.04500012 -0.04000003 0.02449992
v -0.04350010 -0.04000003 0.02599991
v -0.04200008 -0.03550004 0.02599990
v -0.04200010 -0.04000004 0.02599990
v -0.04200010 -0.03550004 0.02449990
v -0.04200012 -0.04000004 0.02449990
v -0.04200010 -0.03700004 0.02449990
v -0.03750015 -0.04000006 0.01999986
v -0.04800011 -0.02950001 0.01999995
v -0.03750007 -0.04000006 0.03049986
v -0.04800002 -0.02950001 0.03049995
v -0.04800015 -0.04000001 0.01999995
v -0.04800007 -0.04000001 0.03049995
v -0.04800014 -0.03550002 0.01449994
v -0.04350014 -0.03550004 0.01449990
v -0.04350013 -0.03400004 0.01449990
v -0.04800013 -0.03400002 0.01449994
v -0.04500013 -0.03400003 0.01449992
v -0.04800012 -0.03400002 0.01599994
v -0.04350012 -0.03400004 0.01599990
v -0.04800013 -0.03550002 0.01599994
v -0.04350013 -0.03550004 0.01599990
v -0.04500015 -0.03700003 0.01449992
v -0.04800015 -0.03700002 0.01449994
v -0.04350015 -0.03550004 0.01299990
v -0.04350016 -0.04000004 0.01449990
v -0.04500016 -0.04000003 0.01449992
v -0.04350015 -0.04000004 0.01599990
v -0.04200013 -0.03550005 0.01599989
v -0.04200015 -0.04000005 0.01599989
v -0.04200014 -0.03550005 0.01449989
v -0.04200016 -0.04000005 0.01449989
v -0.04200015 -0.03700005 0.01449989
v -0.03750020 -0.04000007 0.00999985
v -0.04800015 -0.02950002 0.00999994
v -0.03750011 -0.04000007 0.02049985
v -0.04800006 -0.02950002 0.02049994
v -0.04800020 -0.04000002 0.00999994
v -0.04800011 -0.04000002 0.02049994
v -0.04350018 0.00599997 -0.01039239
v -0.04350018 0.00451776 -0.01062275
v -0.04350019 0.00474813 -0.01210496
v -0.04350018 0.00623033 -0.01187459
v -0.04350018 0.00771254 -0.01164423
v -0.04350017 0.00748217 -0.01016202
v -0.04350017 0.00725181 -0.00867982
v -0.04350017 0.00576960 -0.00891018
v -0.04350017 0.00428740 -0.00914055
v -0.06300017 0.00748221 -0.01016193
v -0.06300018 0.00771257 -0.01164414
v -0.06300018 0.00623037 -0.01187450
v -0.06300019 0.00474816 -0.01210487
v -0.06300018 0.00451780 -0.01062266
v -0.06300017 0.00428743 -0.00914045
v -0.06300017 0.00576964 -0.00891009
v -0.06300017 0.00725185 -0.00867973
v -0.06300018 0.00600000 -0.01039230
v -0.04350016 -0.01200007 -0.00000011
v -0.04350015 -0.01145846 0.00139870
v -0.04350015 -0.01285727 0.00194031
v -0.04350017 -0.01339887 0.00054150
v -0.04350018 -0.01394048 -0.00085731
v -0.04350017 -0.01254167 -0.00139892
v -0.04350017 -0.01114286 -0.00194052
v -0.04350016 -0.01060126 -0.00054171
v -0.04350014 -0.01005965 0.00085709
v -0.06300017 -0.01254156 -0.00139878
v -0.06300018 -0.01394037 -0.00085717
v -0.06300017 -0.01339877 0.00054164
v -0.06300015 -0.01285716 0.00194044
v -0.06300015 -0.01145835 0.00139884
v -0.06300014 -0.01005955 0.00085723
v -0.06300016 -0.01060115 -0.00054157
v -0.06300017 -0.01114276 -0.00194038
v -0.06300016 -0.01199996 0.00000003
v -0.04350008 0.00599997 0.01039221
v -0.04350008 0.00694057 0.00922376
v -0.04350008 0.00810902 0.01016437
v -0.04350007 0.00716842 0.01133281
v -0.04350007 0.00622782 0.01250126
v -0.04350008 0.00505937 0.01156066
v -0.04350008 0.00389092 0.01062006
v -0.04350009 0.00483152 0.00945161
v -0.04350009 0.00577212 0.00828316
v -0.06300008 0.00505941 0.01156075
v -0.06300007 0.00622786 0.01250135
v -0.06300007 0.00716846 0.01133290
v -0.06300008 0.00810906 0.01016446
v -0.06300008 0.00694061 0.00922386
v -0.06300009 0.00577216 0.00828326
v -0.06300009 0.00483156 0.00945170
v -0.06300008 0.00389096 0.01062015
v -0.06300008 0.00600001 0.01039230
v -0.04800005 -0.01650002 0.02549995
v -0.04350005 -0.01650003 0.02549991
v -0.04350005 -0.01800003 0.02549991
v -0.04800005 -0.01800002 0.02549995
v -0.04500005 -0.01800002 0.02549992
v -0.04800006 -0.01800002 0.02399995
v -0.04350006 -0.01800003 0.02399991
v -0.04800006 -0.01650002 0.02399995
v -0.04350006 -0.01650003 0.02399991
v -0.04500005 -0.01500002 0.02549992
v -0.04800005 -0.01500002 0.02549995
v -0.04350004 -0.01650003 0.02699991
v -0.04350004 -0.01200003 0.02549991
v -0.04500004 -0.01200002 0.02549992
v -0.04350005 -0.01200003 0.02399991
v -0.04200006 -0.01650003 0.02399990
v -0.04200005 -0.01200003 0.02399990
v -0.04200005 -0.01650003 0.02549990
v -0.04200004 -0.01200003 0.02549990
v -0.04200005 -0.01500003 0.02549990
v -0.03750000 -0.01200004 0.02999986
v -0.04800002 -0.02250002 0.02999995
v -0.03750009 -0.01200004 0.01949986
v -0.04800011 -0.02250002 0.01949995
v -0.04800000 -0.01200002 0.02999995
v -0.04800009 -0.01200002 0.01949995
v -0.04800028 -0.01650003 -0.02450005
v -0.04350028 -0.01650003 -0.02450009
v -0.04350028 -0.01800003 -0.02450009
v -0.04800028 -0.01800003 -0.02450005
v -0.04500028 -0.01800003 -0.02450008
v -0.04800030 -0.01800003 -0.02600005
v -0.04350030 -0.01800004 -0.02600009
v -0.04800029 -0.01650003 -0.02600005
v -0.04350029 -0.01650004 -0.02600009
v -0.04500028 -0.01500003 -0.02450008
v -0.04800028 -0.01500003 -0.02450005
v -0.04350027 -0.01650003 -0.02300009
v -0.04350027 -0.01200003 -0.02450009
v -0.04500027 -0.01200003 -0.02450008
v -0.04350029 -0.01200004 -0.02600009
v -0.04200029 -0.01650004 -0.02600010
v -0.04200029 -0.01200004 -0.02600010
v -0.04200028 -0.01650004 -0.02450010
v -0.04200027 -0.01200004 -0.02450010
v -0.04200028 -0.01500004 -0.02450010
v -0.03750024 -0.01200005 -0.02000014
v -0.04800026 -0.02250003 -0.02000005
v -0.03750032 -0.01200005 -0.03050014
v -0.04800034 -0.02250003 -0.03050005
v -0.04800024 -0.01200003 -0.02000005
v -0.04800032 -0.01200003 -0.03050005
v -0.01822062 -0.01199987 0.02992161
v -0.01706777 -0.01199987 0.03040404
v -0.01693153 -0.00899987 0.03031530
v -0.01662137 -0.01199987 0.03127732
v -0.01677779 -0.00899986 0.03246054
v -0.01749387 -0.01199986 0.03308953
v -0.01809292 -0.01199986 0.03325828
v -0.01871175 -0.00899985 0.03339803
v -0.01924477 -0.01199985 0.03302295
v -0.01996643 -0.01199986 0.03129673
v -0.01993977 -0.00899986 0.03086412
v -0.01916091 -0.01199987 0.03021993
v -0.01853253 -0.00899987 0.02998174
v -0.02271386 -0.01200007 -0.02436954
v -0.04017893 -0.01199951 -0.03172844
v -0.02994442 -0.01056820 -0.01421519
v -0.03864959 -0.01200002 -0.01874201
v -0.03298051 -0.01200000 -0.01144623
v -0.03227514 -0.01199999 -0.00743004
v -0.03483777 -0.01200001 -0.01418278
v -0.03988631 -0.01199995 -0.00091611
v -0.03387733 -0.01200000 -0.01085996
v -0.03605469 -0.01200000 -0.01232453
v -0.03311708 -0.01200001 -0.01368943
v -0.03261189 -0.01200001 -0.01254637
v -0.03503395 -0.01200000 -0.01096418
v -0.03369688 -0.01199990 0.01407362
v -0.03529703 -0.01199991 0.01112226
v -0.03417958 -0.01199991 0.01080998
v -0.03005963 -0.01199991 0.01404436
v -0.03605439 -0.01199990 0.01264294
v -0.03283698 -0.01199991 0.01328926
v -0.03297331 -0.01199991 0.01139724
v -0.03503366 -0.01199990 0.01400329
v -0.03263703 -0.01199991 0.01250911
v -0.03864903 -0.01199984 0.02830482
v -0.02255277 -0.01199988 0.02452745
v -0.02627403 -0.01199986 0.02830467
v -0.01445010 -0.01199987 0.03088097
v -0.01527021 -0.01199988 0.02940514
v -0.01463808 -0.01199986 0.03256160
v -0.01682889 -0.01199985 0.03576351
v -0.01589789 -0.01199985 0.03504534
v -0.01813958 -0.01199984 0.03608313
v -0.01645130 -0.01199986 0.03278274
v -0.04703264 -0.01199981 0.02999465
v -0.04799161 -0.01199988 0.01365033
v -0.04435714 -0.01199984 0.02392967
v -0.04797804 -0.01199982 0.02799276
v -0.04240056 -0.01199985 0.02332136
v -0.04161886 -0.01199984 0.02597114
v -0.04462791 -0.01199984 0.02533215
v -0.04293656 -0.01199983 0.02672737
v -0.04132930 -0.01199985 0.02475542
v -0.04423700 -0.01199983 0.02613306
v -0.04464726 -0.01199984 0.02491060
v -0.04619980 -0.01199989 0.01117972
v -0.04760161 -0.01199988 0.01244260
v -0.04400616 -0.01199989 0.01088804
v -0.04237140 -0.01199990 0.00957621
v -0.04773741 -0.01199998 -0.01266101
v -0.04799191 -0.01199998 -0.01376461
v -0.04800020 -0.01200000 -0.01874190
v -0.04619628 -0.01199998 -0.01117886
v -0.04248501 -0.01199998 -0.00996611
v -0.04722941 -0.01200005 -0.02983872
v -0.04383476 -0.01200004 -0.02643066
v -0.04240116 -0.01200004 -0.02667864
v -0.04124684 -0.01200004 -0.02458113
v -0.04293716 -0.01200003 -0.02327263
v -0.04423760 -0.01200003 -0.02386694
v -0.04471504 -0.01200003 -0.02540965
v -0.02627478 -0.01200010 -0.03445531
v -0.01761160 -0.01200012 -0.03314443
v -0.01725183 -0.01200012 -0.03292388
v -0.01576537 -0.01200013 -0.03489492
v -0.01664757 -0.01200011 -0.03221657
v -0.01854465 -0.01200012 -0.03603453
v -0.01889753 -0.01200010 -0.03006236
v -0.02003882 -0.01200011 -0.03183724
v -0.01946067 -0.01200010 -0.03048563
v -0.01807198 -0.01200012 -0.03325064
v -0.01514612 -0.00955274 -0.02947585
v -0.01876184 -0.01200011 -0.03321914
v -0.01713329 -0.01107705 -0.03593650
v -0.01817672 -0.01200010 -0.02995976
v -0.01699220 -0.01200011 -0.03037532
v -0.01439660 -0.01200011 -0.03049883
v -0.01504646 -0.01200012 -0.03349917
v -0.03246152 -0.00899985 0.02830474
v -0.02241520 -0.00899988 0.02460109
v -0.02907398 -0.00899990 0.01572874
v -0.03864914 -0.00899987 0.01874171
v -0.03454807 -0.00899990 0.01419405
v -0.03241054 -0.00999993 0.00682444
v -0.03298023 -0.00899991 0.01144580
v -0.03297582 -0.00899997 -0.00307893
v -0.03396649 -0.00899991 0.01084792
v -0.03344795 -0.00899991 0.01106970
v -0.03529381 -0.00899991 0.01107014
v -0.03601336 -0.00899990 0.01289313
v -0.03264953 -0.00899991 0.01227843
v -0.03290419 -0.00899990 0.01350516
v -0.03454837 -0.00900000 -0.01077342
v -0.03864959 -0.00900002 -0.01874202
v -0.03387737 -0.00900001 -0.01410792
v -0.02290695 -0.00900007 -0.02429509
v -0.03291811 -0.00900001 -0.01345521
v -0.03529412 -0.00900001 -0.01389733
v -0.03601366 -0.00900000 -0.01207434
v -0.03290449 -0.00900000 -0.01146231
v -0.03264653 -0.00900001 -0.01259611
v -0.03864970 -0.00900006 -0.02830512
v -0.02627470 -0.00900008 -0.02830527
v -0.01441153 -0.00900011 -0.03136637
v -0.01475421 -0.00900012 -0.03283410
v -0.01667157 -0.00900011 -0.03101252
v -0.01557175 -0.00900012 -0.03456407
v -0.02005286 -0.00900010 -0.03157805
v -0.01595733 -0.00900013 -0.03510233
v -0.01664971 -0.00900011 -0.03208304
v -0.01859518 -0.00900010 -0.02989964
v -0.01898543 -0.00900011 -0.03313006
v -0.01729670 -0.00900010 -0.03024942
v -0.01756665 -0.00900013 -0.03600618
v -0.01845313 -0.00900013 -0.03605114
v -0.01746777 -0.00900012 -0.03315165
v -0.04703336 -0.00900005 -0.02999474
v -0.04863766 -0.00990698 -0.01992445
v -0.04797871 -0.00900004 -0.02799283
v -0.04435771 -0.00900003 -0.02392983
v -0.04269051 -0.00900003 -0.02329947
v -0.04150301 -0.00900004 -0.02572101
v -0.04255896 -0.00900004 -0.02670697
v -0.04135265 -0.00900004 -0.02447718
v -0.04418212 -0.00900004 -0.02620558
v -0.04465147 -0.00900003 -0.02524317
v -0.04620006 -0.00899998 -0.01117983
v -0.04760191 -0.00899998 -0.01244268
v -0.04339612 -0.00899998 -0.01070863
v -0.04193127 -0.00899997 -0.00830977
v -0.04773710 -0.00899988 0.01266094
v -0.04799651 -0.00899988 0.01381153
v -0.04619601 -0.00899989 0.01117874
v -0.04248477 -0.00899990 0.00996590
v -0.04730306 -0.00899981 0.02972355
v -0.04421340 -0.00899983 0.02619039
v -0.04268991 -0.00899983 0.02670053
v -0.04798702 -0.00899982 0.02790214
v -0.04120424 -0.00899984 0.02516270
v -0.04255836 -0.00899985 0.02329303
v -0.04395332 -0.00899984 0.02363899
v -0.04469418 -0.00899984 0.02465819
v -0.04560223 -0.00899981 0.03049153
v -0.01574402 -0.00899985 0.03483797
v -0.01727487 -0.00899985 0.03605553
v -0.02419311 -0.01076395 0.03487871
v -0.01429056 -0.00899987 0.03140540
v -0.01552831 -0.00899986 0.03448031
v -0.01540620 -0.00899988 0.02926502
v -0.04800033 -0.03550003 -0.02550006
v -0.04350033 -0.03550005 -0.02550010
v -0.04350032 -0.03400005 -0.02550010
v -0.04800032 -0.03400003 -0.02550006
v -0.04500032 -0.03400004 -0.02550008
v -0.04800031 -0.03400003 -0.02400006
v -0.04350031 -0.03400005 -0.02400010
v -0.04800031 -0.03550003 -0.02400006
v -0.04350031 -0.03550005 -0.02400010
v -0.04500033 -0.03700004 -0.02550008
v -0.04800033 -0.03700003 -0.02550006
v -0.04350034 -0.03550005 -0.02700010
v -0.04350035 -0.04000005 -0.02550010
v -0.04500035 -0.04000004 -0.02550008
v -0.04350034 -0.04000005 -0.02400010
v -0.04200031 -0.03550005 -0.02400011
v -0.04200034 -0.04000005 -0.02400011
v -0.04200033 -0.03550005 -0.02550011
v -0.04200035 -0.04000005 -0.02550011
v -0.04200033 -0.03700005 -0.02550011
v -0.03750038 -0.04000007 -0.03000015
v -0.04800034 -0.02950003 -0.03000006
v -0.03750030 -0.04000007 -0.01950015
v -0.04800025 -0.02950003 -0.01950006
v -0.04800038 -0.04000003 -0.03000006
v -0.04800030 -0.04000003 -0.01950006
v -0.00126642 -0.04300022 -0.02777964
v 0.00228964 -0.04000023 -0.02799410
v 0.01270395 -0.04240029 -0.02476622
v 0.01891144 -0.04000034 -0.01996572
v 0.02264505 -0.04300037 -0.01602841
v 0.02243896 -0.04000037 -0.01612368
v 0.02725960 -0.04000043 -0.00557543
v 0.02362973 -0.04257192 0.01480939
v 0.01891193 -0.04000048 0.01996404
v 0.01714959 -0.04300048 0.02146100
v 0.01488455 -0.04000048 0.02327838
v 0.01003028 -0.04122774 0.02593633
v -0.00248596 -0.04000041 0.02747188
v -0.01470768 -0.04246463 0.02408489
v -0.02556003 -0.04300025 0.01078904
v -0.02810375 -0.04000022 0.00716418
v -0.02626711 -0.04300017 -0.00933757
v -0.01946161 -0.04000016 -0.02113836
v -0.01548028 -0.04300017 -0.02332560
v 0.00177959 -0.04300044 0.02778353
v -0.03007404 -0.04300031 0.03377745
v -0.00595557 -0.04300042 0.03377716
v -0.01859455 -0.04300035 0.02989885
v -0.01654293 -0.04300036 0.03096467
v -0.01993106 -0.04300035 0.03120820
v -0.01912247 -0.04300036 0.03318697
v -0.01717173 -0.04300037 0.03292424
v -0.03864912 -0.04300025 0.02707485
v -0.03114602 -0.04300027 0.02481519
v -0.03864937 -0.04300017 0.00624171
v -0.03483755 -0.04300021 0.01078468
v -0.03330027 -0.04300023 0.01384482
v -0.03864922 -0.04300022 0.01923072
v -0.03600790 -0.04300021 0.01236076
v -0.03266643 -0.04300022 0.01287174
v -0.03479046 -0.04300022 0.01414072
v -0.03568198 -0.04300021 0.01339424
v -0.03290430 -0.04300022 0.01146186
v -0.04800006 -0.04300011 -0.00000004
v -0.04799979 -0.04300019 0.02255583
v -0.04375559 -0.04300018 0.01351990
v -0.04392593 -0.04300019 0.01647901
v -0.04231829 -0.04300018 0.01337398
v -0.04188263 -0.04300020 0.01636368
v -0.04471464 -0.04300018 0.01459034
v -0.04132950 -0.04300019 0.01475541
v -0.02740256 -0.04300021 0.00271419
v -0.04345123 -0.04300012 -0.00174553
v -0.04166470 -0.04300014 0.00105215
v -0.04331618 -0.04300014 0.00173432
v -0.04138709 -0.04300014 -0.00071178
v -0.04465125 -0.04300012 0.00024301
v -0.04456650 -0.04300012 -0.00055487
v -0.04438334 -0.04300013 0.00091063
v -0.03864956 -0.04300012 -0.00916702
v -0.03864968 -0.04300008 -0.01923103
v -0.04406473 -0.04300007 -0.01629696
v -0.04240112 -0.04300007 -0.01667865
v -0.04800020 -0.04300006 -0.01209191
v -0.04470945 -0.04300007 -0.01512287
v -0.04125965 -0.04300008 -0.01487475
v -0.04194404 -0.04300009 -0.01371716
v -0.04312427 -0.04300008 -0.01327594
v -0.04428972 -0.04300007 -0.01394050
v -0.04769747 -0.04300000 -0.02948648
v -0.03436227 -0.04300007 -0.02707520
v -0.04406485 -0.04300003 -0.02629696
v -0.04240124 -0.04300004 -0.02667865
v -0.04144456 -0.04300005 -0.02424670
v -0.04141759 -0.04300004 -0.02550641
v -0.04293724 -0.04300005 -0.02327264
v -0.04470957 -0.04300003 -0.02512287
v -0.04423767 -0.04300004 -0.02386695
v -0.00595632 -0.04300019 -0.02873051
v -0.03007479 -0.04300008 -0.02873022
v 0.01714893 -0.04300028 -0.03377853
v -0.00595638 -0.04300018 -0.03377825
v -0.01661628 -0.04300013 -0.03203397
v -0.02003890 -0.04300012 -0.03183725
v -0.01735538 -0.04300013 -0.03304169
v -0.01907278 -0.04300013 -0.03012232
v -0.01694063 -0.04300014 -0.03045717
v -0.01809376 -0.04300013 -0.02996158
v -0.01867672 -0.04300012 -0.03325614
v -0.04383425 -0.04300021 0.02356933
v -0.04240064 -0.04300022 0.02332135
v -0.04132938 -0.04300023 0.02475541
v -0.04478413 -0.04300021 0.02475800
v -0.04796244 -0.04102653 0.02850623
v -0.04255840 -0.04300023 0.02670676
v -0.04150070 -0.04300023 0.02571413
v -0.04410731 -0.04300022 0.02626018
v -0.03483785 -0.04300012 -0.01418279
v -0.03007459 -0.04300014 -0.01209212
v -0.03595999 -0.04300012 -0.01278561
v -0.03277242 -0.04300013 -0.01336584
v -0.03330057 -0.04300013 -0.01112266
v -0.03460316 -0.04300013 -0.01081125
v -0.03273341 -0.04300013 -0.01192750
v -0.03565157 -0.04300012 -0.01149122
v -0.03588884 -0.04300012 -0.01204250
v 0.02023584 -0.04090620 0.03363079
v 0.02578705 -0.04300055 0.02972399
v 0.02802346 -0.04300054 0.02513742
v 0.02621691 -0.04300053 0.02352436
v 0.02699604 -0.04300054 0.02483344
v 0.02855548 -0.04300053 0.01922992
v 0.02665519 -0.04300053 0.02244836
v 0.02704955 -0.04300053 0.02207117
v 0.02772800 -0.04300045 0.00093932
v 0.02625344 -0.04300041 -0.00834761
v 0.03824898 -0.04300047 -0.00911161
v 0.01714974 -0.04300053 0.03377688
v -0.03477424 -0.04300037 0.03370764
v -0.04756843 -0.04300022 0.02967295
v -0.04581012 -0.04300001 -0.03061402
v -0.01066146 -0.04300013 -0.03977783
v 0.00459708 -0.04300021 -0.03607153
v 0.01648016 -0.04300027 -0.03562315
v 0.00810039 -0.04300023 -0.03591481
v 0.00550115 -0.04300022 -0.03443345
v 0.00723272 -0.04300022 -0.03737755
v 0.00710779 -0.04300023 -0.03443048
v 0.00572628 -0.04300021 -0.03756306
v 0.02366422 -0.04300032 -0.03160383
v 0.02765057 -0.04300037 -0.02176206
v 0.02634506 -0.04300036 -0.02304248
v 0.02668357 -0.04300036 -0.02240776
v 0.02699182 -0.04077812 -0.02849625
v 0.02735856 -0.04300036 -0.02505278
v 0.02824320 -0.04300036 -0.02509050
v 0.02640296 -0.04300036 -0.02411439
v 0.02941227 -0.04300037 -0.02430336
v 0.02876267 -0.04300037 -0.02491763
v 0.02892047 -0.04300038 -0.02209246
v 0.02961405 -0.04300038 -0.02306842
v 0.03919236 -0.04300050 -0.00212594
v 0.03646815 -0.04300050 0.00178092
v 0.03499506 -0.04300049 0.00076398
v 0.03653088 -0.04300048 -0.00174587
v 0.03494415 -0.04300048 -0.00075446
v 0.03820915 -0.04300050 0.00012171
v 0.03778943 -0.04300049 -0.00106065
v 0.03774753 -0.04300050 0.00108818
v 0.03737650 -0.04300055 0.01389479
v 0.03339108 -0.04062959 0.02126001
v 0.02826129 -0.04300053 0.02176295
v 0.02914348 -0.04300055 0.02469411
v 0.02965034 -0.04300054 0.02302382
v 0.01714701 -0.04171477 0.03526821
v 0.00800891 -0.04300049 0.03570032
v 0.00455745 -0.04300048 0.03600952
v 0.00731694 -0.04300048 0.03455442
v 0.00560348 -0.04300049 0.03746454
v 0.00745579 -0.04300050 0.03730857
v 0.00424403 -0.04300049 0.03901925
v 0.00572714 -0.04300048 0.03432791
v 0.00633855 -0.04300049 0.03759479
v 0.02186386 -0.04000031 -0.03270610
v -0.00595637 -0.04000018 -0.03377824
v -0.00595631 -0.04000019 -0.02873050
v -0.01890711 -0.04000012 -0.03317849
v -0.02404515 -0.04000011 -0.02790280
v -0.02005293 -0.04000012 -0.03157804
v -0.01661626 -0.04000014 -0.03118671
v -0.01840575 -0.04000013 -0.02990375
v -0.01930789 -0.04000013 -0.03034086
v -0.01721883 -0.04000014 -0.03029831
v -0.01704807 -0.04000013 -0.03292591
v -0.04797626 -0.04000000 -0.02829498
v -0.03864976 -0.04000005 -0.02707514
v -0.03864967 -0.04000008 -0.01923102
v -0.04800028 -0.04150004 -0.01923091
v -0.04406480 -0.04000004 -0.02370320
v -0.04269058 -0.04000005 -0.02329945
v -0.04120491 -0.04000005 -0.02483729
v -0.04255903 -0.04000003 -0.02670696
v -0.04470955 -0.04000003 -0.02487728
v -0.04418219 -0.04000003 -0.02620556
v -0.03864954 -0.04000012 -0.00916701
v -0.04158479 -0.04000008 -0.01611661
v -0.04475601 -0.04000007 -0.01515945
v -0.04399861 -0.04000008 -0.01363878
v -0.04357581 -0.04000007 -0.01661414
v -0.04260252 -0.04000008 -0.01333327
v -0.04149532 -0.04000009 -0.01423510
v -0.04800015 -0.04000007 -0.00916690
v -0.03864936 -0.04000017 0.00624173
v -0.04799997 -0.04000013 0.00624184
v -0.04336024 -0.04000014 0.00178851
v -0.04194699 -0.04000013 -0.00143798
v -0.04136768 -0.04000014 0.00061696
v -0.04470925 -0.04000012 0.00012272
v -0.04399525 -0.04000012 -0.00141348
v -0.03864920 -0.04000022 0.01923073
v -0.03007420 -0.04000026 0.01923063
v -0.03483749 -0.04000022 0.01418240
v -0.03007443 -0.04000019 -0.00000024
v -0.03298030 -0.04000022 0.01144581
v -0.03432965 -0.04000021 0.01073872
v -0.03558819 -0.04000021 0.01142398
v -0.03600788 -0.04000021 0.01260635
v -0.03264921 -0.04000023 0.01321111
v -0.04406432 -0.04000019 0.01629679
v -0.04269010 -0.04000019 0.01670055
v -0.04475565 -0.04000018 0.01484055
v -0.04135224 -0.04000019 0.01552283
v -0.04201503 -0.04000018 0.01348988
v -0.04381064 -0.04000018 0.01353102
v -0.01478214 -0.04000034 0.02347743
v -0.03864912 -0.04000025 0.02647779
v -0.00595556 -0.04000042 0.03377717
v -0.03007411 -0.04000029 0.02707476
v -0.01782814 -0.04000035 0.02998556
v -0.01856891 -0.04000038 0.03820636
v -0.01658925 -0.04000036 0.03101694
v -0.01924487 -0.04000035 0.03019615
v -0.01849913 -0.04000036 0.03332006
v -0.01699522 -0.04000037 0.03275705
v -0.01996442 -0.04000035 0.03201914
v -0.04182233 -0.04000022 0.02371187
v -0.04357534 -0.04000021 0.02338586
v -0.04799977 -0.04000019 0.02255584
v -0.04133365 -0.04000023 0.02536016
v -0.04438305 -0.04000021 0.02408922
v -0.04398793 -0.04000022 0.02634490
v -0.04249791 -0.04000023 0.02668998
v -0.04471705 -0.04000021 0.02524016
v -0.03007466 -0.04000012 -0.01923112
v -0.03314255 -0.04000012 -0.01374851
v -0.03007458 -0.04000014 -0.01209211
v -0.03479079 -0.04000012 -0.01414111
v -0.03568229 -0.04000011 -0.01339461
v -0.03262494 -0.04000013 -0.01254476
v -0.03600383 -0.04000012 -0.01237016
v -0.03483779 -0.04000013 -0.01078507
v -0.03297364 -0.04000013 -0.01139767
v 0.03443229 -0.04127819 -0.01899126
v 0.02855504 -0.04000038 -0.01923182
v 0.02632494 -0.04000048 0.00853828
v 0.02736170 -0.04000053 0.02178228
v 0.02631644 -0.04000053 0.02312781
v 0.02645023 -0.04000053 0.02419087
v 0.02761603 -0.04000054 0.02517149
v 0.01714975 -0.04000053 0.03377690
v -0.01178832 -0.04192899 0.03945684
v 0.01051618 -0.04175913 0.03787383
v 0.01648103 -0.04047421 0.03562153
v 0.00568186 -0.04000048 0.03437662
v 0.00804531 -0.04000050 0.03658962
v 0.00455746 -0.04000048 0.03588012
v 0.00788668 -0.04000050 0.03842204
v 0.00728319 -0.04000048 0.03449712
v 0.00663261 -0.04000049 0.03758035
v 0.00556846 -0.04000049 0.03746051
v 0.02605738 -0.04000055 0.02945398
v 0.02950761 -0.04000055 0.02405282
v 0.02902614 -0.04000055 0.02476699
v 0.02945362 -0.04000054 0.02275270
v 0.02902532 -0.04000054 0.02216392
v 0.02962570 -0.04000055 0.02334325
v 0.02855553 -0.04000054 0.02192420
v 0.03894785 -0.04085767 0.00568103
v 0.03653094 -0.04000050 0.00174378
v 0.03646812 -0.04000048 -0.00178302
v 0.03499506 -0.04000048 -0.00076604
v 0.03494418 -0.04000049 0.00075240
v 0.03778947 -0.04000050 0.00105852
v 0.03821471 -0.04000050 -0.00041065
v 0.03846624 -0.04000047 -0.00895968
v 0.02924824 -0.04000038 -0.02231358
v 0.02991451 -0.04150037 -0.02541088
v 0.02917403 -0.04000037 -0.02465318
v 0.02962514 -0.04000037 -0.02358024
v 0.02855497 -0.04000036 -0.02499929
v 0.02633206 -0.04000036 -0.02379488
v 0.02644967 -0.04000036 -0.02273263
v 0.02761547 -0.04000037 -0.02175200
v 0.02793128 -0.04000036 -0.02515062
v 0.02677844 -0.04000036 -0.02466816
v 0.02631272 -0.04000036 -0.02337334
v 0.00798526 -0.04000023 -0.03603551
v 0.01714760 -0.04128595 -0.03526900
v 0.00795292 -0.04000023 -0.03552598
v 0.01231793 -0.04137862 -0.03741549
v -0.01329388 -0.04000012 -0.03923888
v 0.00459710 -0.04000022 -0.03582077
v 0.00784831 -0.04000023 -0.03667622
v 0.00424316 -0.04000020 -0.03902057
v 0.00535925 -0.04000021 -0.03733652
v 0.00541968 -0.04000022 -0.03454179
v 0.00701931 -0.04000023 -0.03432026
v 0.00685624 -0.04000022 -0.03757943
v -0.04700583 -0.04000000 -0.03010345
v -0.04680885 -0.04000022 0.03018114
v -0.04580939 -0.04000023 0.03061389
v -0.03380225 -0.04000005 -0.03397768
v 0.00000006 0.00139952 -0.00000055
v 0.03903068 0.00139947 -0.00414464
v 0.03903061 -0.04400053 -0.00414464
v -0.00000001 -0.04400048 -0.00000055
v 0.03908919 0.00139947 0.00354948
v 0.03908912 -0.04400053 0.00354948
v 0.03764552 0.00139947 0.01110718
v 0.03764546 -0.04400053 0.01110718
v 0.03475517 0.00139947 0.01823801
v 0.03475510 -0.04400053 0.01823801
v 0.03052919 0.00139948 0.02466795
v 0.03052912 -0.04400052 0.02466795
v 0.02512999 0.00139949 0.03014989
v 0.02512993 -0.04400051 0.03014989
v 0.01876507 0.00139950 0.03447316
v 0.01876500 -0.04400050 0.03447316
v 0.01167902 0.00139951 0.03747163
v 0.01167895 -0.04400049 0.03747163
v 0.00414415 0.00139952 0.03903006
v 0.00414408 -0.04400048 0.03903006
v -0.00354997 0.00139953 0.03908857
v -0.00355004 -0.04400047 0.03908857
v -0.01110767 0.00139954 0.03764491
v -0.01110774 -0.04400046 0.03764491
v -0.01823850 0.00139955 0.03475455
v -0.01823857 -0.04400045 0.03475455
v -0.02466844 0.00139956 0.03052857
v -0.02466851 -0.04400044 0.03052857
v -0.03015038 0.00139957 0.02512938
v -0.03015045 -0.04400043 0.02512938
v -0.03447365 0.00139958 0.01876445
v -0.03447372 -0.04400042 0.01876445
v -0.03747212 0.00139958 0.01167840
v -0.03747219 -0.04400042 0.01167840
v -0.03903055 0.00139958 0.00414353
v -0.03903062 -0.04400042 0.00414353
v -0.03908906 0.00139958 -0.00355059
v -0.03908913 -0.04400042 -0.00355059
v -0.03764540 0.00139958 -0.01110829
v -0.03764547 -0.04400042 -0.01110829
v -0.03475504 0.00139958 -0.01823912
v -0.03475511 -0.04400042 -0.01823912
v -0.03052906 0.00139957 -0.02466906
v -0.03052913 -0.04400043 -0.02466906
v -0.02512987 0.00139956 -0.03015099
v -0.02512994 -0.04400044 -0.03015099
v -0.01876495 0.00139955 -0.03447427
v -0.01876501 -0.04400045 -0.03447427
v -0.01167889 0.00139954 -0.03747274
v -0.01167896 -0.04400046 -0.03747274
v -0.00414403 0.00139953 -0.03903117
v -0.00414409 -0.04400047 -0.03903117
v 0.00355010 0.00139952 -0.03908968
v 0.00355003 -0.04400048 -0.03908968
v 0.01110780 0.00139951 -0.03764602
v 0.01110773 -0.04400049 -0.03764602
v 0.01823863 0.00139950 -0.03475566
v 0.01823856 -0.04400050 -0.03475566
v 0.02466856 0.00139949 -0.03052968
v 0.02466850 -0.04400051 -0.03052968
v 0.03015050 0.00139948 -0.02513049
v 0.03015043 -0.04400052 -0.02513049
v 0.03447378 0.00139947 -0.01876556
v 0.03447371 -0.04400053 -0.01876556
v 0.03747225 0.00139947 -0.01167951
v 0.03747218 -0.04400053 -0.01167951
v -0.04800028 -0.03550001 -0.01550004
v -0.04350028 -0.03550003 -0.01550008
v -0.04350027 -0.03400003 -0.01550008
v -0.04800027 -0.03400001 -0.01550004
v -0.04500027 -0.03400003 -0.01550007
v -0.04800026 -0.03400001 -0.01400004
v -0.04350026 -0.03400003 -0.01400008
v -0.04800027 -0.03550001 -0.01400004
v -0.04350027 -0.03550003 -0.01400008
v -0.04500029 -0.03700003 -0.01550007
v -0.04800029 -0.03700001 -0.01550004
v -0.04350029 -0.03550003 -0.01700008
v -0.04350030 -0.04000003 -0.01550008
v -0.04500030 -0.04000003 -0.01550007
v -0.04350029 -0.04000003 -0.01400008
v -0.04200027 -0.03550004 -0.01400009
v -0.04200029 -0.04000004 -0.01400009
v -0.04200028 -0.03550004 -0.01550009
v -0.04200030 -0.04000004 -0.01550009
v -0.04200029 -0.03700004 -0.01550009
v -0.03750034 -0.04000006 -0.02000013
v -0.04800029 -0.02950001 -0.02000004
v -0.03750025 -0.04000006 -0.00950013
v -0.04800020 -0.02950001 -0.00950004
v -0.04800034 -0.04000001 -0.02000004
v -0.04800025 -0.04000001 -0.00950004
f 3 1 2
f 1 3 25
f 4 2 1
f 25 4 1
f 2 25 3
f 11 9 7
f 11 7 13
f 13 14 11
f 18 17 63
f 18 63 70
f 20 63 17
f 21 20 17
f 116 24 23
f 23 29 30
f 23 27 28
f 30 27 23
f 23 31 22
f 31 23 24
f 24 32 34
f 36 38 35
f 39 5 37
f 39 37 38
f 36 39 38
f 41 42 40
f 21 43 44
f 21 44 45
f 47 48 8
f 8 38 47
f 48 50 9
f 50 49 51
f 22 53 52
f 22 51 53
f 54 58 23
f 23 55 54
f 23 56 55
f 23 57 56
f 23 52 57
f 45 58 59
f 45 59 60
f 60 62 45
f 61 20 21
f 62 61 21
f 63 20 61
f 70 63 64
f 70 64 67
f 38 37 65
f 37 66 65
f 37 67 66
f 68 29 23
f 45 41 68
f 68 58 45
f 5 71 37
f 72 5 6
f 6 69 72
f 71 70 37
f 51 74 73
f 51 32 74
f 50 75 76
f 73 75 51
f 75 50 51
f 9 50 76
f 76 7 9
f 38 8 77
f 38 78 35
f 8 79 77
f 5 80 81
f 82 80 5
f 70 6 83
f 17 15 84
f 84 85 17
f 87 86 43
f 90 86 87
f 17 92 91
f 91 87 43
f 87 88 90
f 87 89 88
f 91 43 17
f 43 86 93
f 40 93 94
f 41 94 95
f 96 97 26
f 101 102 100
f 100 99 98
f 98 103 100
f 29 100 102
f 103 101 100
f 109 30 29
f 29 102 109
f 106 108 107
f 105 104 106
f 108 28 107
f 109 102 104
f 107 105 106
f 104 105 109
f 2 110 111
f 4 106 110
f 4 108 106
f 2 4 110
f 2 111 25
f 4 25 108
f 25 112 113
f 25 114 112
f 115 114 25
f 117 119 24
f 32 24 119
f 119 118 32
f 120 121 32
f 120 122 121
f 76 121 122
f 76 122 123
f 7 123 124
f 125 126 13
f 13 124 125
f 8 126 127
f 8 13 126
f 8 127 129
f 35 8 129
f 129 128 35
f 130 131 36
f 132 131 133
f 39 132 133
f 131 132 36
f 82 5 39
f 133 82 39
f 130 36 35
f 128 130 35
f 124 13 7
f 123 7 76
f 118 120 32
f 116 117 24
f 113 116 25
f 97 98 26
f 95 96 41
f 94 41 40
f 93 40 43
f 85 88 17
f 83 84 15
f 83 15 70
f 81 83 6
f 81 6 5
f 68 23 58
f 65 47 38
f 67 37 70
f 62 21 45
f 52 23 22
f 48 9 8
f 28 108 23
f 41 96 26
f 23 108 25
f 23 25 116
f 17 43 21
f 134 136 137
f 135 137 139
f 142 144 145
f 148 149 150
f 149 152 151
f 152 153 151
f 150 147 148
f 154 146 157
f 146 145 158
f 158 157 146
f 159 158 145
f 157 156 154
f 137 161 203
f 137 136 161
f 162 135 164
f 163 164 135
f 167 166 165
f 168 167 165
f 169 170 171
f 172 160 173
f 171 278 169
f 170 174 171
f 170 172 174
f 173 174 172
f 141 138 175
f 176 175 138
f 177 144 142
f 177 178 144
f 179 142 141
f 141 175 179
f 179 177 142
f 146 154 180
f 181 180 154
f 154 172 182
f 154 182 181
f 142 143 184
f 142 184 185
f 143 183 184
f 189 140 141
f 186 189 141
f 141 187 186
f 141 142 187
f 139 140 190
f 140 189 190
f 188 191 139
f 190 188 139
f 163 139 191
f 191 195 163
f 166 192 193
f 166 195 192
f 152 194 196
f 152 193 194
f 216 197 198
f 216 152 197
f 199 200 170
f 200 172 170
f 170 198 199
f 201 202 172
f 200 201 172
f 137 203 250
f 137 250 204
f 140 137 204
f 141 140 204
f 209 160 172
f 160 207 208
f 206 160 208
f 209 207 160
f 172 154 210
f 210 209 172
f 166 193 212
f 212 211 166
f 211 165 166
f 213 212 193
f 152 149 213
f 149 230 213
f 214 216 170
f 170 169 215
f 214 217 216
f 215 214 170
f 217 218 216
f 169 219 220
f 169 279 221
f 221 219 169
f 222 223 216
f 224 225 216
f 225 226 148
f 149 148 226
f 226 227 149
f 227 228 149
f 230 149 229
f 211 230 165
f 230 232 165
f 230 231 232
f 234 233 165
f 168 235 162
f 168 233 235
f 135 236 237
f 134 238 241
f 134 135 237
f 237 238 134
f 239 136 1
f 240 239 1
f 136 3 1
f 241 242 1
f 1 134 241
f 1 3 134
f 239 244 243
f 243 136 239
f 244 249 245
f 248 247 203
f 243 161 136
f 244 245 243
f 245 249 246
f 248 245 247
f 246 247 245
f 250 247 251
f 252 251 253
f 253 254 252
f 250 203 247
f 251 252 250
f 254 253 256
f 256 255 254
f 138 255 257
f 176 138 259
f 144 176 260
f 260 261 144
f 265 263 145
f 144 261 264
f 262 263 264
f 264 265 144
f 266 262 264
f 145 144 265
f 264 261 266
f 145 262 267
f 145 268 269
f 145 270 268
f 145 267 270
f 155 271 272
f 269 271 155
f 154 155 272
f 272 206 154
f 206 272 273
f 273 274 206
f 160 275 276
f 160 206 275
f 160 280 277
f 169 278 279
f 277 278 160
f 278 277 279
f 276 280 160
f 274 275 206
f 269 155 145
f 259 260 176
f 258 259 138
f 257 258 138
f 255 138 254
f 1 242 240
f 236 135 162
f 233 168 165
f 229 231 230
f 228 229 149
f 225 148 216
f 223 224 216
f 220 216 169
f 213 193 152
f 198 170 216
f 195 166 163
f 183 143 146
f 164 168 162
f 145 146 143
f 145 143 142
f 140 139 137
f 139 163 135
f 138 141 254
f 137 135 134
f 217 214 77
f 218 217 77
f 169 218 79
f 215 169 78
f 214 215 38
f 38 77 214
f 78 38 215
f 79 78 169
f 77 79 218
f 263 265 91
f 264 263 89
f 265 264 87
f 89 87 264
f 92 89 263
f 91 92 263
f 87 91 265
f 230 211 32
f 213 230 76
f 212 213 76
f 211 212 73
f 73 74 211
f 75 73 212
f 76 75 212
f 121 76 230
f 32 121 230
f 74 32 211
f 209 210 71
f 207 209 5
f 208 207 5
f 206 208 72
f 205 206 69
f 154 205 69
f 210 154 70
f 70 71 210
f 69 70 154
f 72 69 206
f 5 72 208
f 71 5 209
f 250 252 100
f 204 250 29
f 141 204 68
f 254 141 41
f 252 254 99
f 99 100 252
f 26 99 254
f 41 26 254
f 68 41 141
f 29 68 204
f 100 29 250
f 188 190 54
f 191 188 56
f 57 52 191
f 195 191 52
f 192 195 51
f 193 192 49
f 194 193 50
f 196 194 50
f 197 196 48
f 198 197 48
f 199 198 47
f 200 199 65
f 201 200 65
f 202 201 66
f 182 202 67
f 181 182 67
f 180 181 64
f 146 180 63
f 183 146 63
f 184 183 61
f 185 184 61
f 187 185 62
f 186 187 62
f 189 186 60
f 190 189 58
f 58 54 190
f 59 58 189
f 60 59 189
f 62 60 186
f 61 62 185
f 63 61 183
f 64 63 180
f 67 64 181
f 66 67 202
f 65 66 201
f 47 65 199
f 48 47 198
f 50 48 196
f 49 50 193
f 51 49 192
f 53 51 195
f 52 53 195
f 56 57 191
f 55 56 188
f 54 55 188
f 179 175 41
f 177 179 45
f 178 177 44
f 176 178 43
f 175 176 40
f 40 42 175
f 46 40 176
f 43 46 176
f 44 43 178
f 45 44 177
f 41 45 179
f 42 41 175
f 157 158 18
f 156 157 18
f 155 156 70
f 159 155 15
f 158 159 17
f 17 18 158
f 19 17 159
f 15 19 159
f 16 15 155
f 70 16 155
f 18 70 156
f 171 174 39
f 278 171 36
f 160 278 132
f 173 160 39
f 174 173 39
f 132 39 160
f 36 132 278
f 39 36 171
f 149 151 11
f 150 149 11
f 147 150 11
f 216 147 10
f 153 216 8
f 151 153 9
f 9 11 151
f 12 9 153
f 8 12 153
f 10 8 216
f 14 10 147
f 11 14 147
f 168 164 24
f 167 168 34
f 166 167 32
f 163 166 51
f 164 163 22
f 22 31 164
f 33 22 163
f 51 33 163
f 32 51 166
f 34 32 167
f 24 34 168
f 31 24 164
f 243 245 105
f 161 243 107
f 203 161 27
f 248 203 30
f 245 248 109
f 109 105 245
f 30 109 248
f 27 30 203
f 28 27 161
f 107 28 161
f 105 107 243
f 251 247 102
f 104 102 247
f 247 246 104
f 251 101 103
f 103 98 253
f 253 251 103
f 256 253 98
f 255 97 96
f 257 255 96
f 258 257 95
f 95 94 259
f 259 258 95
f 94 93 260
f 260 259 94
f 260 93 86
f 261 86 90
f 266 90 88
f 267 262 88
f 270 85 84
f 269 268 84
f 273 272 83
f 275 274 81
f 275 80 82
f 277 280 82
f 280 276 82
f 277 133 131
f 279 131 130
f 221 279 130
f 222 220 129
f 128 129 220
f 220 219 128
f 222 129 127
f 224 223 127
f 127 126 225
f 225 224 127
f 225 126 125
f 227 226 124
f 125 124 226
f 227 124 123
f 123 122 231
f 231 229 123
f 231 122 120
f 234 165 120
f 235 233 119
f 118 119 233
f 236 162 117
f 119 117 162
f 162 235 119
f 237 236 116
f 238 237 113
f 238 112 114
f 238 114 115
f 242 241 111
f 115 111 241
f 110 106 239
f 239 240 110
f 244 106 104
f 104 249 244
f 106 244 239
f 110 240 242
f 111 110 242
f 115 241 238
f 113 112 238
f 116 113 237
f 117 116 236
f 118 233 234
f 120 118 234
f 120 165 232
f 120 232 231
f 123 229 228
f 123 228 227
f 125 226 225
f 127 223 222
f 128 219 221
f 130 128 221
f 131 279 277
f 82 133 277
f 82 276 275
f 81 80 275
f 81 274 273
f 83 81 273
f 83 272 271
f 83 271 269
f 84 83 269
f 84 268 270
f 85 270 267
f 88 85 267
f 88 262 266
f 90 266 261
f 86 261 260
f 96 95 257
f 97 255 256
f 98 97 256
f 102 101 251
f 104 246 249
f 289 284 285
f 284 289 281
f 288 281 289
f 287 288 289
f 286 287 289
f 285 286 289
f 283 285 284
f 282 283 284
f 281 282 284
f 298 304 303
f 298 303 293
f 299 304 302
f 300 298 293
f 301 293 299
f 298 302 304
f 302 301 299
f 301 300 293
f 311 295 308
f 393 295 311
f 318 317 316
f 319 311 312
f 318 320 317
f 321 318 316
f 320 312 317
f 319 321 311
f 321 316 311
f 384 314 315
f 323 324 327
f 328 324 325
f 325 315 326
f 326 328 325
f 328 327 324
f 329 315 323
f 329 326 315
f 336 308 330
f 336 331 308
f 293 296 334
f 333 332 293
f 334 333 293
f 331 334 296
f 292 293 335
f 323 315 340
f 339 340 315
f 338 339 315
f 310 323 341
f 323 340 341
f 341 342 310
f 343 304 345
f 345 342 343
f 303 344 307
f 344 303 304
f 343 344 304
f 346 304 299
f 299 413 417
f 346 345 304
f 417 346 299
f 349 310 348
f 323 310 349
f 349 350 323
f 352 351 313
f 351 314 313
f 315 314 354
f 354 353 315
f 338 315 355
f 353 355 315
f 357 309 338
f 356 313 309
f 357 356 309
f 355 357 338
f 360 358 306
f 306 307 361
f 307 338 363
f 362 338 309
f 307 363 361
f 364 363 338
f 359 362 309
f 362 364 338
f 307 306 366
f 365 366 306
f 367 303 307
f 366 367 307
f 369 306 296
f 296 297 369
f 368 369 297
f 308 295 370
f 372 370 295
f 330 308 371
f 370 371 308
f 291 337 373
f 374 337 330
f 373 375 291
f 374 373 337
f 295 291 372
f 375 372 291
f 437 376 377
f 378 377 376
f 382 378 376
f 376 324 380
f 324 323 379
f 379 380 324
f 323 350 381
f 381 379 323
f 380 382 376
f 325 324 383
f 314 384 286
f 385 322 283
f 288 287 384
f 286 285 314
f 287 286 384
f 288 384 281
f 282 281 385
f 283 282 385
f 285 283 322
f 390 317 385
f 387 385 388
f 392 387 388
f 388 389 392
f 387 390 385
f 392 389 316
f 390 386 317
f 386 316 317
f 386 391 316
f 391 392 316
f 316 389 393
f 394 393 389
f 395 396 291
f 294 395 291
f 337 291 398
f 399 290 337
f 291 396 402
f 398 399 337
f 396 290 397
f 399 397 290
f 400 398 291
f 402 400 291
f 401 402 396
f 397 403 396
f 396 403 401
f 293 292 405
f 292 290 407
f 599 404 406
f 406 404 293
f 406 408 599
f 411 406 293
f 292 410 405
f 409 410 292
f 407 409 292
f 290 599 408
f 405 411 293
f 408 407 290
f 299 293 413
f 414 416 415
f 416 414 305
f 305 345 347
f 417 413 414
f 415 417 414
f 347 416 305
f 305 414 418
f 345 305 419
f 305 420 419
f 420 305 418
f 421 420 418
f 423 422 342
f 425 424 418
f 418 422 428
f 342 426 423
f 424 429 418
f 427 342 345
f 428 425 418
f 345 419 427
f 423 428 422
f 427 430 342
f 430 426 342
f 342 422 431
f 342 431 436
f 433 431 432
f 434 310 342
f 432 439 433
f 436 435 342
f 435 434 342
f 433 436 431
f 437 348 438
f 440 439 437
f 441 438 348
f 438 440 437
f 441 348 310
f 312 443 317
f 385 317 444
f 444 445 385
f 313 322 448
f 447 446 313
f 446 449 313
f 448 447 313
f 445 448 322
f 313 449 450
f 308 358 450
f 450 452 308
f 358 313 450
f 308 452 451
f 451 312 308
f 445 322 385
f 443 444 317
f 442 376 437
f 439 432 437
f 429 421 418
f 413 293 412
f 412 293 404
f 285 322 314
f 383 384 325
f 383 324 376
f 377 348 437
f 369 365 306
f 368 297 303
f 367 368 303
f 361 360 306
f 359 309 358
f 356 352 313
f 351 354 314
f 332 335 293
f 331 296 308
f 336 330 337
f 327 329 323
f 315 325 384
f 313 314 322
f 320 319 312
f 311 316 393
f 308 312 311
f 309 313 358
f 306 358 308
f 296 306 308
f 293 303 297
f 293 297 296
f 291 295 294
f 290 292 337
f 453 454 455
f 476 455 456
f 462 456 455
f 457 476 459
f 456 459 476
f 454 457 458
f 455 454 462
f 457 459 458
f 458 460 454
f 460 461 454
f 461 462 454
f 463 464 477
f 464 465 466
f 470 468 467
f 467 466 473
f 472 470 467
f 469 466 465
f 465 468 475
f 475 469 465
f 473 472 467
f 470 471 468
f 469 474 466
f 474 473 466
f 466 467 479
f 480 476 487
f 476 483 487
f 495 491 508
f 491 496 508
f 496 492 497
f 497 492 499
f 498 497 500
f 503 493 498
f 492 493 501
f 504 503 498
f 501 499 492
f 500 504 498
f 499 500 497
f 505 502 493
f 503 505 493
f 617 489 506
f 506 509 513
f 515 489 490
f 518 515 490
f 515 516 489
f 518 490 509
f 489 516 517
f 519 518 509
f 520 509 506
f 521 520 506
f 520 522 509
f 517 521 506
f 517 506 489
f 492 496 529
f 560 492 524
f 524 523 560
f 525 488 560
f 527 487 488
f 527 526 487
f 525 527 488
f 523 525 560
f 491 487 528
f 496 491 529
f 530 487 483
f 530 532 487
f 531 530 483
f 483 484 534
f 533 560 488
f 484 560 535
f 535 537 484
f 533 535 560
f 537 534 484
f 532 533 488
f 534 536 483
f 539 538 484
f 540 539 484
f 466 538 539
f 539 541 466
f 542 481 477
f 478 543 477
f 543 542 477
f 484 483 546
f 483 481 545
f 481 542 545
f 544 546 483
f 545 544 483
f 550 549 479
f 549 482 479
f 551 550 479
f 479 467 551
f 498 493 552
f 493 564 553
f 553 552 493
f 554 413 498
f 552 555 498
f 555 554 498
f 556 558 485
f 558 557 485
f 557 479 482
f 482 485 557
f 479 559 538
f 561 560 484
f 484 559 561
f 493 492 562
f 562 563 493
f 560 562 492
f 563 564 493
f 464 463 284
f 621 281 284
f 284 463 621
f 281 565 289
f 289 565 464
f 284 289 464
f 567 467 468
f 566 468 376
f 566 567 468
f 567 551 467
f 569 568 572
f 572 547 570
f 569 566 568
f 570 569 572
f 548 573 571
f 572 432 574
f 571 575 548
f 482 548 575
f 573 548 572
f 574 573 572
f 577 485 482
f 578 432 485
f 577 579 485
f 580 576 432
f 482 575 577
f 579 578 485
f 578 580 432
f 485 432 581
f 485 581 582
f 564 485 586
f 586 590 564
f 582 584 485
f 581 583 585
f 581 591 583
f 585 582 581
f 584 586 485
f 587 494 589
f 564 590 588
f 588 494 564
f 588 589 494
f 589 591 587
f 494 587 593
f 593 592 494
f 595 593 587
f 594 564 494
f 592 594 494
f 596 595 587
f 587 413 596
f 600 597 508
f 508 598 600
f 603 599 514
f 602 598 599
f 601 514 513
f 602 600 598
f 603 602 599
f 604 601 513
f 597 604 508
f 601 603 514
f 513 514 615
f 605 606 514
f 605 608 610
f 614 607 506
f 614 610 607
f 609 506 513
f 608 607 610
f 613 612 506
f 609 611 506
f 611 613 506
f 615 609 513
f 612 614 506
f 606 615 514
f 506 607 616
f 616 617 506
f 618 619 453
f 453 619 454
f 457 454 620
f 454 619 629
f 621 457 630
f 624 619 625
f 625 621 627
f 620 622 457
f 625 626 624
f 623 620 454
f 624 628 619
f 630 627 621
f 629 623 454
f 625 627 626
f 628 629 619
f 622 630 457
f 507 631 495
f 486 487 632
f 487 631 632
f 487 495 631
f 632 633 486
f 509 490 634
f 633 634 490
f 513 637 636
f 513 509 637
f 639 463 477
f 638 639 477
f 621 463 641
f 641 640 621
f 476 457 642
f 640 642 457
f 642 643 476
f 483 476 645
f 646 645 476
f 645 481 483
f 644 646 476
f 643 644 476
f 640 457 621
f 639 641 463
f 638 477 481
f 636 510 513
f 635 637 509
f 634 635 509
f 633 490 486
f 636 507 510
f 604 513 508
f 511 598 508
f 498 512 508
f 594 553 564
f 591 581 587
f 576 574 432
f 566 376 568
f 376 468 465
f 565 465 464
f 289 284 281
f 559 484 538
f 556 485 564
f 554 596 413
f 549 548 482
f 547 572 548
f 546 540 484
f 541 478 466
f 536 531 483
f 532 488 487
f 526 528 487
f 529 524 492
f 522 519 509
f 512 511 508
f 508 513 510
f 498 508 497
f 508 510 507
f 502 501 493
f 497 508 496
f 508 507 495
f 489 617 486
f 491 495 487
f 490 489 486
f 487 486 480
f 479 538 466
f 466 478 477
f 476 480 455
f 471 475 468
f 466 477 464
f 455 480 453
f 599 290 514
f 605 514 290
f 290 396 605
f 388 385 621
f 621 625 388
f 281 621 385
f 486 617 294
f 294 295 486
f 480 486 295
f 453 480 295
f 295 393 453
f 616 607 396
f 616 396 395
f 617 395 294
f 395 617 616
f 396 607 608
f 396 608 605
f 453 393 394
f 453 394 389
f 388 625 619
f 389 388 619
f 389 619 618
f 389 618 453
f 465 383 376
f 376 442 568
f 587 581 418
f 581 422 418
f 431 581 432
f 572 437 432
f 572 568 442
f 442 437 572
f 431 422 581
f 413 412 498
f 512 498 412
f 413 587 414
f 587 418 414
f 383 465 565
f 565 384 383
f 281 384 565
f 599 598 404
f 412 404 512
f 511 512 404
f 598 511 404
f 601 604 409
f 603 601 407
f 602 603 408
f 600 602 406
f 597 600 411
f 604 597 411
f 411 405 604
f 406 411 600
f 408 406 602
f 407 408 603
f 409 407 601
f 410 409 604
f 405 410 604
f 460 458 318
f 461 460 318
f 462 461 321
f 456 462 319
f 459 456 320
f 458 459 320
f 320 318 458
f 319 320 456
f 321 319 462
f 318 321 461
f 516 515 370
f 517 516 372
f 521 517 373
f 520 521 373
f 522 520 373
f 330 371 519
f 519 522 330
f 518 519 371
f 515 518 370
f 371 370 518
f 374 330 522
f 373 374 522
f 375 373 517
f 372 375 517
f 370 372 516
f 626 627 392
f 624 626 392
f 628 624 392
f 629 628 392
f 623 629 392
f 620 623 391
f 622 620 386
f 630 622 386
f 627 630 390
f 390 387 627
f 386 390 630
f 391 386 620
f 392 391 623
f 387 392 627
f 527 525 365
f 526 527 365
f 528 526 365
f 491 528 369
f 529 491 369
f 524 529 368
f 523 524 367
f 525 523 366
f 367 366 523
f 368 367 524
f 369 368 529
f 365 369 528
f 366 365 525
f 536 534 362
f 531 536 359
f 530 531 358
f 532 530 360
f 533 532 361
f 535 533 361
f 537 535 363
f 534 537 362
f 364 362 537
f 363 364 537
f 361 363 535
f 360 361 532
f 358 360 530
f 359 358 531
f 362 359 536
f 543 478 351
f 542 543 351
f 545 542 352
f 544 545 356
f 546 544 357
f 540 546 355
f 539 540 355
f 541 539 353
f 478 541 351
f 354 351 541
f 353 354 541
f 355 353 539
f 357 355 546
f 356 357 544
f 352 356 545
f 351 352 542
f 469 475 328
f 474 469 326
f 473 474 329
f 472 473 327
f 470 472 327
f 471 470 327
f 475 471 328
f 327 328 471
f 329 327 473
f 326 329 474
f 328 326 469
f 567 566 380
f 551 567 379
f 381 350 551
f 550 551 350
f 549 550 349
f 548 549 349
f 570 547 348
f 547 548 348
f 569 570 377
f 566 569 382
f 382 380 566
f 378 382 569
f 377 378 569
f 348 377 570
f 349 348 548
f 350 349 550
f 379 381 551
f 380 379 567
f 571 573 438
f 575 571 438
f 577 575 310
f 441 310 575
f 579 577 310
f 578 579 434
f 580 578 436
f 576 580 433
f 574 576 439
f 573 574 438
f 440 438 574
f 439 440 574
f 433 439 576
f 436 433 580
f 435 436 578
f 434 435 578
f 310 434 579
f 438 441 575
f 584 582 423
f 586 584 426
f 590 586 427
f 588 590 419
f 427 419 590
f 589 588 419
f 591 589 420
f 583 591 421
f 585 583 425
f 582 585 423
f 428 423 585
f 425 428 585
f 424 425 583
f 429 424 583
f 421 429 583
f 420 421 591
f 419 420 589
f 430 427 586
f 426 430 586
f 423 426 584
f 552 553 346
f 555 552 346
f 554 555 417
f 596 554 417
f 595 596 417
f 593 595 415
f 592 593 416
f 594 592 416
f 553 594 347
f 347 345 553
f 416 347 594
f 415 416 593
f 417 415 595
f 346 417 555
f 345 346 553
f 499 501 298
f 500 499 300
f 504 500 301
f 503 504 302
f 505 503 302
f 502 505 302
f 501 502 298
f 302 298 502
f 301 302 504
f 300 301 500
f 298 300 499
f 559 479 340
f 561 559 338
f 339 338 559
f 560 561 338
f 562 560 344
f 563 562 344
f 564 563 343
f 556 564 343
f 558 556 342
f 557 558 342
f 341 340 557
f 479 557 340
f 342 341 557
f 343 342 556
f 344 343 563
f 307 344 560
f 338 307 560
f 340 339 559
f 611 609 398
f 613 611 398
f 612 613 400
f 614 612 400
f 610 614 402
f 605 610 403
f 606 605 397
f 615 606 397
f 609 615 399
f 399 398 609
f 397 399 615
f 403 397 605
f 401 403 610
f 402 401 610
f 400 402 614
f 398 400 613
f 336 337 637
f 637 635 336
f 635 634 336
f 334 331 507
f 333 334 507
f 332 333 636
f 636 335 332
f 636 292 335
f 337 292 636
f 636 637 337
f 507 636 333
f 631 507 331
f 632 631 331
f 633 632 331
f 331 336 633
f 634 633 336
f 452 450 645
f 451 452 645
f 646 644 451
f 644 643 312
f 443 312 642
f 640 444 443
f 445 444 640
f 641 639 445
f 448 445 639
f 447 448 639
f 446 447 638
f 449 446 638
f 450 449 481
f 450 481 645
f 638 481 449
f 639 638 447
f 640 641 445
f 642 640 443
f 643 642 312
f 312 451 644
f 645 646 451
f 647 648 649
f 652 650 649
f 654 652 653
f 654 655 648
f 647 648 656
f 647 657 656
f 648 647 654
f 653 655 654
f 649 653 652
f 649 650 647
f 659 648 656
f 659 660 656
f 661 659 648
f 661 655 662
f 663 662 664
f 659 665 664
f 664 648 659
f 664 665 663
f 662 663 661
f 648 655 661
f 667 668 658
f 668 648 658
f 658 648 667
f 655 670 669
f 668 649 648
f 648 664 667
f 669 662 655
f 655 653 670
f 653 649 670
f 670 649 651
f 668 651 649
f 651 668 670
f 669 664 662
f 669 667 666
f 666 664 669
f 664 666 667
f 671 672 657
f 672 647 657
f 657 647 671
f 654 647 672
f 670 650 652
f 670 668 650
f 672 670 654
f 668 671 647
f 668 647 650
f 652 654 670
f 667 669 665
f 663 665 669
f 672 659 661
f 672 671 660
f 669 672 661
f 660 659 672
f 671 667 659
f 669 661 663
f 665 659 667
f 659 660 671
f 672 669 670
f 668 667 671
f 673 674 675
f 678 676 675
f 680 678 679
f 680 681 674
f 673 674 682
f 673 683 682
f 674 673 680
f 679 681 680
f 675 679 678
f 675 676 673
f 685 674 682
f 685 686 682
f 687 685 674
f 687 681 688
f 689 688 690
f 685 691 690
f 690 674 685
f 690 691 689
f 688 689 687
f 674 681 687
f 693 694 684
f 694 674 684
f 684 674 693
f 681 696 695
f 694 675 674
f 674 690 693
f 695 688 681
f 681 679 696
f 679 675 696
f 696 675 677
f 694 677 675
f 677 694 696
f 695 690 688
f 695 693 692
f 692 690 695
f 690 692 693
f 697 698 683
f 698 673 683
f 683 673 697
f 680 673 698
f 696 676 678
f 696 694 676
f 698 696 680
f 694 697 673
f 694 673 676
f 678 680 696
f 693 695 691
f 689 691 695
f 698 685 687
f 698 697 686
f 695 698 687
f 686 685 698
f 697 693 685
f 695 687 689
f 691 685 693
f 685 686 697
f 698 695 696
f 694 693 697
f 700 701 699
f 701 702 699
f 702 703 699
f 703 704 699
f 704 705 699
f 705 706 699
f 706 707 699
f 707 700 699
f 708 704 703
f 709 703 702
f 710 702 701
f 711 701 700
f 712 700 707
f 713 707 706
f 714 706 705
f 715 705 704
f 704 708 715
f 705 715 714
f 706 714 713
f 707 713 712
f 700 712 711
f 701 711 710
f 702 710 709
f 703 709 708
f 712 713 716
f 713 714 716
f 714 715 716
f 715 708 716
f 708 709 716
f 709 710 716
f 710 711 716
f 711 712 716
f 718 719 717
f 719 720 717
f 720 721 717
f 721 722 717
f 722 723 717
f 723 724 717
f 724 725 717
f 725 718 717
f 726 722 721
f 727 721 720
f 728 720 719
f 729 719 718
f 730 718 725
f 731 725 724
f 732 724 723
f 733 723 722
f 722 726 733
f 723 733 732
f 724 732 731
f 725 731 730
f 718 730 729
f 719 729 728
f 720 728 727
f 721 727 726
f 730 731 734
f 731 732 734
f 732 733 734
f 733 726 734
f 726 727 734
f 727 728 734
f 728 729 734
f 729 730 734
f 736 737 735
f 737 738 735
f 738 739 735
f 739 740 735
f 740 741 735
f 741 742 735
f 742 743 735
f 743 736 735
f 744 740 739
f 745 739 738
f 746 738 737
f 747 737 736
f 748 736 743
f 749 743 742
f 750 742 741
f 751 741 740
f 740 744 751
f 741 751 750
f 742 750 749
f 743 749 748
f 736 748 747
f 737 747 746
f 738 746 745
f 739 745 744
f 748 749 752
f 749 750 752
f 750 751 752
f 751 744 752
f 744 745 752
f 745 746 752
f 746 747 752
f 747 748 752
f 753 754 755
f 758 756 755
f 760 758 759
f 760 761 754
f 753 754 762
f 753 763 762
f 754 753 760
f 759 761 760
f 755 759 758
f 755 756 753
f 765 754 762
f 765 766 762
f 767 765 754
f 767 761 768
f 769 768 770
f 765 771 770
f 770 754 765
f 770 771 769
f 768 769 767
f 754 761 767
f 773 774 764
f 774 754 764
f 764 754 773
f 761 776 775
f 774 755 754
f 754 770 773
f 775 768 761
f 761 759 776
f 759 755 776
f 776 755 757
f 774 757 755
f 757 774 776
f 775 770 768
f 775 773 772
f 772 770 775
f 770 772 773
f 777 778 763
f 778 753 763
f 763 753 777
f 760 753 778
f 776 756 758
f 776 774 756
f 778 776 760
f 774 777 753
f 774 753 756
f 758 760 776
f 773 775 771
f 769 771 775
f 778 765 767
f 778 777 766
f 775 778 767
f 766 765 778
f 777 773 765
f 775 767 769
f 771 765 773
f 765 766 777
f 778 775 776
f 774 773 777
f 779 780 781
f 784 782 781
f 786 784 785
f 786 787 780
f 779 780 788
f 779 789 788
f 780 779 786
f 785 787 786
f 781 785 784
f 781 782 779
f 791 780 788
f 791 792 788
f 793 791 780
f 793 787 794
f 795 794 796
f 791 797 796
f 796 780 791
f 796 797 795
f 794 795 793
f 780 787 793
f 799 800 790
f 800 780 790
f 790 780 799
f 787 802 801
f 800 781 780
f 780 796 799
f 801 794 787
f 787 785 802
f 785 781 802
f 802 781 783
f 800 783 781
f 783 800 802
f 801 796 794
f 801 799 798
f 798 796 801
f 796 798 799
f 803 804 789
f 804 779 789
f 789 779 803
f 786 779 804
f 802 782 784
f 802 800 782
f 804 802 786
f 800 803 779
f 800 779 782
f 784 786 802
f 799 801 797
f 795 797 801
f 804 791 793
f 804 803 792
f 801 804 793
f 792 791 804
f 803 799 791
f 801 793 795
f 797 791 799
f 791 792 803
f 804 801 802
f 800 799 803
f 809 807 849
f 812 809 810
f 815 812 813
f 817 815 805
f 807 817 805
f 816 805 815
f 814 816 815
f 813 814 815
f 811 813 812
f 810 811 812
f 849 810 809
f 808 849 807
f 806 808 807
f 805 806 807
f 819 818 820
f 821 820 824
f 825 821 827
f 826 822 823
f 823 825 826
f 828 824 820
f 820 829 828
f 822 829 823
f 824 827 821
f 829 820 823
f 827 830 825
f 833 825 899
f 831 834 858
f 833 832 825
f 837 833 899
f 835 858 825
f 837 899 834
f 831 836 834
f 832 835 825
f 839 837 834
f 836 839 834
f 835 838 858
f 840 858 834
f 834 841 840
f 843 845 844
f 846 848 847
f 805 842 841
f 961 842 814
f 806 805 841
f 841 844 806
f 849 808 844
f 805 816 842
f 816 814 842
f 808 806 844
f 961 814 813
f 849 847 810
f 811 810 847
f 813 847 961
f 842 961 850
f 851 858 854
f 854 852 851
f 852 853 851
f 859 857 853
f 853 860 856
f 857 855 840
f 852 860 853
f 855 858 840
f 856 859 853
f 851 862 861
f 858 851 863
f 861 863 851
f 858 863 864
f 864 825 858
f 865 866 868
f 868 867 821
f 869 868 821
f 825 869 821
f 870 819 872
f 867 933 876
f 872 871 870
f 819 821 873
f 873 872 819
f 875 874 867
f 874 873 821
f 876 875 867
f 871 876 870
f 933 870 876
f 884 818 877
f 880 881 879
f 881 880 892
f 888 877 882
f 878 889 880
f 891 881 892
f 891 892 887
f 885 883 818
f 888 884 877
f 880 879 878
f 891 887 818
f 884 885 818
f 886 888 889
f 890 891 818
f 882 889 888
f 878 886 889
f 892 880 893
f 883 890 818
f 819 877 818
f 874 821 867
f 866 867 868
f 857 840 853
f 850 853 840
f 850 840 842
f 813 811 847
f 848 961 847
f 845 849 844
f 841 842 840
f 838 831 858
f 830 826 825
f 820 821 819
f 894 895 896
f 897 896 898
f 945 897 905
f 907 898 896
f 902 903 899
f 899 901 902
f 904 901 945
f 903 900 899
f 905 904 945
f 906 907 896
f 900 906 899
f 906 896 899
f 898 905 897
f 945 901 908
f 915 901 820
f 915 908 901
f 910 911 909
f 914 909 945
f 910 912 911
f 914 913 909
f 820 911 912
f 916 915 820
f 912 916 820
f 908 914 945
f 917 909 911
f 919 920 887
f 930 918 923
f 887 922 925
f 925 921 887
f 931 925 922
f 922 924 931
f 926 918 911
f 921 928 887
f 923 927 930
f 924 889 931
f 926 923 918
f 911 887 928
f 889 929 931
f 928 926 911
f 931 929 930
f 918 930 932
f 933 909 936
f 936 935 933
f 934 940 938
f 935 934 933
f 939 936 909
f 939 909 917
f 938 937 917
f 935 941 934
f 937 939 917
f 941 940 934
f 933 943 942
f 909 933 944
f 942 944 933
f 944 945 909
f 946 947 948
f 948 947 897
f 949 948 897
f 945 949 897
f 950 894 952
f 947 953 957
f 952 951 950
f 894 897 954
f 947 956 955
f 954 952 894
f 951 957 953
f 955 954 897
f 957 956 947
f 953 950 951
f 950 958 894
f 959 961 960
f 964 963 962
f 895 894 815
f 809 959 963
f 963 807 809
f 815 817 895
f 815 958 961
f 807 963 964
f 807 964 895
f 815 894 958
f 961 959 812
f 809 812 959
f 812 815 961
f 817 807 895
f 955 897 947
f 938 917 934
f 932 934 917
f 932 917 918
f 927 931 930
f 920 922 887
f 911 918 917
f 913 910 909
f 904 902 901
f 896 897 894
f 953 947 851
f 851 853 953
f 882 877 930
f 932 930 877
f 877 819 932
f 932 819 870
f 895 964 841
f 841 834 896
f 896 895 841
f 899 896 834
f 820 901 823
f 818 887 911
f 911 820 818
f 825 823 901
f 899 825 901
f 850 961 958
f 848 960 961
f 867 866 933
f 869 825 945
f 868 869 944
f 945 944 869
f 864 863 949
f 825 864 949
f 949 945 825
f 948 949 863
f 920 892 893
f 892 920 919
f 892 919 887
f 962 845 843
f 962 843 844
f 844 841 964
f 844 964 962
f 889 930 929
f 880 924 922
f 893 880 922
f 922 920 893
f 924 880 889
f 930 889 882
f 962 963 849
f 849 845 962
f 847 849 959
f 847 959 960
f 960 848 846
f 960 846 847
f 963 959 849
f 870 933 934
f 934 932 870
f 950 953 853
f 850 958 950
f 853 850 950
f 851 947 946
f 862 946 948
f 948 863 861
f 948 861 862
f 946 862 851
f 933 866 865
f 943 865 868
f 868 944 942
f 868 942 943
f 865 943 933
f 903 902 837
f 900 903 837
f 906 900 837
f 907 906 839
f 898 907 831
f 905 898 838
f 904 905 835
f 902 904 833
f 832 833 904
f 835 832 904
f 838 835 905
f 831 838 898
f 836 831 907
f 839 836 907
f 837 839 906
f 833 837 902
f 912 910 828
f 916 912 829
f 915 916 829
f 908 915 826
f 914 908 830
f 913 914 827
f 910 913 824
f 827 824 913
f 830 827 914
f 826 830 908
f 822 826 915
f 829 822 915
f 828 829 912
f 824 828 910
f 925 931 881
f 921 925 881
f 928 921 891
f 926 928 891
f 923 926 885
f 927 923 884
f 931 927 888
f 884 888 927
f 885 884 923
f 883 885 926
f 890 883 926
f 891 890 926
f 881 891 921
f 879 881 931
f 878 879 931
f 886 878 931
f 888 886 931
f 855 857 952
f 858 855 954
f 854 858 954
f 852 854 955
f 860 852 957
f 856 860 957
f 859 856 951
f 857 859 951
f 951 952 857
f 957 951 856
f 956 957 852
f 955 956 852
f 954 955 854
f 952 954 855
f 873 874 936
f 872 873 937
f 871 872 938
f 876 871 940
f 875 876 935
f 874 875 935
f 935 936 874
f 941 935 876
f 940 941 876
f 938 940 871
f 937 938 872
f 939 937 873
f 936 939 873
f 965 966 967
f 970 968 967
f 972 970 971
f 972 973 966
f 965 966 974
f 965 975 974
f 966 965 972
f 971 973 972
f 967 971 970
f 967 968 965
f 977 966 974
f 977 978 974
f 979 977 966
f 979 973 980
f 981 980 982
f 977 983 982
f 982 966 977
f 982 983 981
f 980 981 979
f 966 973 979
f 985 986 976
f 986 966 976
f 976 966 985
f 973 988 987
f 986 967 966
f 966 982 985
f 987 980 973
f 973 971 988
f 971 967 988
f 988 967 969
f 986 969 967
f 969 986 988
f 987 982 980
f 987 985 984
f 984 982 987
f 982 984 985
f 989 990 975
f 990 965 975
f 975 965 989
f 972 965 990
f 988 968 970
f 988 986 968
f 990 988 972
f 986 989 965
f 986 965 968
f 970 972 988
f 985 987 983
f 981 983 987
f 990 977 979
f 990 989 978
f 987 990 979
f 978 977 990
f 989 985 977
f 987 979 981
f 983 977 985
f 977 978 989
f 990 987 988
f 986 985 989
f 996 994 995
f 997 996 995
f 1230 997 1100
f 998 1000 1001
f 1001 999 998
f 1003 1002 1010
f 1006 1200 1004
f 1008 1006 1007
f 992 1008 991
f 1009 991 1008
f 1007 1009 1008
f 1037 1007 1006
f 1005 1037 1006
f 1004 1005 1006
f 1010 1004 1003
f 1000 1002 1001
f 1100 998 1230
f 1101 1100 997
f 995 1101 997
f 993 995 994
f 991 993 992
f 1013 1019 1010
f 1010 1012 1014
f 1014 1013 1010
f 1015 1011 1019
f 1013 1015 1019
f 1015 1016 1011
f 1017 1014 1012
f 1016 1017 1012
f 1012 1011 1016
f 1020 1037 1021
f 1028 1021 1037
f 1026 1022 1019
f 1037 1019 1025
f 1022 1025 1019
f 1027 1026 1023
f 1024 1023 1020
f 1024 1027 1023
f 1025 1028 1037
f 1021 1024 1020
f 1029 1020 1033
f 1030 1029 1035
f 1033 1031 1029
f 1036 1033 1020
f 1023 1032 1034
f 1035 1032 1030
f 1036 1020 1023
f 1034 1036 1023
f 1031 1035 1029
f 1029 1045 1038
f 1041 1038 1045
f 1045 1020 1041
f 1040 1039 1020
f 1044 1040 1029
f 1043 1042 1029
f 1039 1041 1020
f 1042 1044 1029
f 1038 1043 1029
f 1163 1046 1048
f 1048 1047 1163
f 1046 1045 1051
f 1051 1048 1046
f 1053 1052 1045
f 1050 1049 1163
f 1047 1050 1163
f 1052 1051 1045
f 1054 1053 1049
f 1050 1054 1049
f 1056 1009 1046
f 1055 1056 1058
f 1163 1055 1062
f 1058 1057 1055
f 1060 1058 1056
f 1063 1061 1163
f 1059 1060 1056
f 1061 1059 1046
f 1059 1056 1046
f 1062 1063 1163
f 1057 1062 1055
f 1064 991 1056
f 1066 1115 1064
f 1069 1065 1074
f 1067 1064 1068
f 1072 1068 1064
f 1068 1070 1067
f 1064 1065 1073
f 1069 1071 1065
f 1073 1072 1064
f 1070 1074 1067
f 1030 1023 1076
f 1023 1019 1077
f 1076 1075 1030
f 1077 1076 1023
f 1081 1077 1019
f 1075 1078 1030
f 1080 1018 1079
f 1079 1082 1080
f 1018 1080 1081
f 1079 1030 1078
f 1078 1082 1079
f 1046 1009 1083
f 1009 1084 1086
f 1086 1083 1009
f 1085 1045 1046
f 1084 1089 1086
f 1083 1085 1046
f 1088 1037 1045
f 1084 1037 1089
f 1088 1087 1037
f 1087 1089 1037
f 1090 1088 1045
f 1045 1091 1090
f 1092 1010 1002
f 1095 1000 998
f 1096 1094 1093
f 1095 1093 1000
f 1095 1096 1093
f 1098 1095 998
f 1097 1137 1099
f 1099 1098 998
f 1099 998 1097
f 1100 1097 998
f 991 1064 1115
f 1009 1056 991
f 1007 1037 1084
f 1005 1019 1037
f 1005 1004 1019
f 1010 1019 1004
f 1010 1103 1012
f 1012 1146 1236
f 1011 1012 1236
f 1018 1019 1104
f 1019 1011 1104
f 1018 1104 1105
f 1107 1067 1074
f 1275 1109 1110
f 1067 1107 1108
f 1108 1111 1067
f 1114 1108 1107
f 1110 1112 1275
f 1107 1275 1114
f 1113 1110 1109
f 1066 1111 1113
f 1112 1114 1275
f 1113 1273 1066
f 1113 1109 1273
f 1102 995 1116
f 1117 1118 995
f 995 993 1117
f 993 1122 1117
f 1121 1115 1119
f 1118 1116 995
f 1122 993 1115
f 1121 1120 1115
f 1124 1121 1119
f 1120 1122 1115
f 1119 1262 1124
f 1123 1262 1228
f 1125 1228 1102
f 1123 1124 1262
f 1125 1126 1228
f 1126 1123 1228
f 1101 1127 1130
f 1128 1135 1100
f 1133 1130 1127
f 1129 1128 1100
f 1131 1100 1101
f 1101 1130 1131
f 1253 1135 1128
f 1131 1129 1100
f 1127 1253 1132
f 1132 1133 1127
f 1128 1134 1253
f 1134 1132 1253
f 1097 1100 1135
f 1097 1135 1137
f 1135 1136 1138
f 1136 1093 1138
f 1139 1137 1135
f 1138 1139 1135
f 1141 1140 1238
f 1141 1238 1237
f 1142 1146 1012
f 1141 1103 1140
f 1145 1141 1237
f 1141 1143 1103
f 1147 1142 1012
f 1142 1144 1146
f 1147 1012 1103
f 1143 1147 1103
f 1146 1148 1145
f 1237 1146 1145
f 1144 1148 1146
f 1140 1103 1092
f 1102 1127 1101
f 1116 1125 1102
f 1115 1066 1273
f 1111 1066 1067
f 1107 1074 1106
f 1106 1074 1065
f 1055 1106 1056
f 1105 1079 1018
f 1104 1011 1236
f 1010 1092 1103
f 1007 1084 1009
f 993 991 1115
f 1101 995 1102
f 1094 1138 1093
f 1002 1000 1093
f 1002 1093 1092
f 1085 1091 1045
f 1081 1019 1018
f 1071 1073 1065
f 1064 1067 1066
f 1056 1106 1065
f 1056 1065 1064
f 1061 1046 1163
f 1053 1045 1049
f 1029 1049 1045
f 1040 1020 1029
f 1020 1045 1037
f 1032 1023 1030
f 1026 1019 1023
f 1149 1150 1151
f 1152 1153 1154
f 1156 1153 1151
f 1155 1151 1150
f 1159 1155 1150
f 1156 1157 1153
f 1157 1154 1153
f 1155 1158 1151
f 1158 1156 1151
f 1152 1159 1150
f 1153 1160 1161
f 1153 1161 1162
f 1163 1162 1165
f 1162 1161 1166
f 1165 1164 1163
f 1160 1169 1167
f 1168 1160 1163
f 1166 1165 1162
f 1167 1166 1161
f 1168 1169 1160
f 1164 1168 1163
f 1177 1170 1175
f 1163 1177 1172
f 1175 1173 1177
f 1174 1171 1162
f 1172 1174 1163
f 1176 1175 1170
f 1171 1170 1162
f 1173 1172 1177
f 1171 1176 1170
f 1188 1170 1178
f 1179 1178 1180
f 1182 1180 1178
f 1182 1178 1170
f 1177 1184 1181
f 1177 1179 1183
f 1181 1182 1170
f 1180 1183 1179
f 1183 1184 1177
f 1185 1186 1187
f 1193 1187 1186
f 1178 1185 1192
f 1193 1186 1188
f 1190 1189 1188
f 1191 1190 1178
f 1189 1193 1188
f 1192 1191 1178
f 1187 1192 1185
f 1213 1185 1195
f 1196 1179 1213
f 1195 1194 1213
f 1197 1195 1185
f 1185 1178 1197
f 1199 1198 1179
f 1194 1196 1213
f 1198 1197 1178
f 1196 1199 1179
f 1186 1185 1201
f 1003 1203 1204
f 1203 1205 1210
f 1206 1202 1003
f 1204 1206 1003
f 1210 1207 1203
f 1209 1208 1202
f 1206 1209 1202
f 1208 1210 1205
f 1208 1205 1202
f 1212 1185 1213
f 1212 1211 1185
f 1211 1201 1185
f 1211 1214 1201
f 1215 1212 1213
f 1218 1215 1213
f 1079 1201 1217
f 1217 1216 1079
f 1214 1217 1201
f 1216 1218 1079
f 1222 1219 1162
f 1222 1220 1219
f 1220 1221 1219
f 1162 1170 1225
f 1223 1222 1162
f 1220 1224 1221
f 1225 1223 1162
f 1170 1188 1226
f 1227 1226 1188
f 1221 1224 1227
f 1227 1188 1221
f 1226 1225 1170
f 1203 1004 1200
f 1004 1203 1003
f 1188 1186 1006
f 1221 1188 1006
f 1006 1008 1221
f 1219 1221 1008
f 1153 1219 1008
f 1153 1008 992
f 1149 1151 992
f 1151 1153 992
f 992 993 1266
f 1228 1229 996
f 1230 998 1136
f 1001 1092 1232
f 999 1232 1231
f 1234 1092 1246
f 1233 1232 1092
f 1136 999 1231
f 999 1001 1232
f 1234 1233 1092
f 1246 1248 1234
f 1202 1235 1002
f 1235 1092 1002
f 1002 1003 1202
f 1286 1203 1201
f 1245 1205 1236
f 1202 1245 1241
f 1237 1238 1240
f 1241 1239 1202
f 1243 1240 1238
f 1242 1237 1240
f 1240 1244 1242
f 1235 1239 1243
f 1243 1140 1235
f 1243 1238 1140
f 1244 1245 1242
f 1247 1248 1136
f 1248 1246 1136
f 1250 1249 1136
f 1136 1252 1250
f 1251 1247 1136
f 1249 1251 1136
f 1136 1253 1230
f 1230 1253 1254
f 1258 1254 1253
f 997 1230 1257
f 1255 1260 997
f 1256 1255 997
f 1254 1257 1230
f 1257 1256 997
f 1259 1253 1260
f 1259 1258 1253
f 1255 1259 1260
f 1229 1228 1261
f 1228 1262 1263
f 1263 1262 1119
f 1119 1265 1263
f 1264 1261 1228
f 1263 1264 1228
f 1267 994 996
f 1268 996 1229
f 994 1271 1266
f 1267 1271 994
f 1119 1270 1269
f 1268 1267 996
f 1270 1119 1266
f 1229 1261 1268
f 1274 1149 1273
f 1274 1273 1275
f 1275 1272 1274
f 1277 1276 1150
f 1275 1278 1272
f 1279 1276 1280
f 1283 1278 1275
f 1277 1280 1276
f 1281 1277 1150
f 1274 1282 1149
f 1282 1150 1149
f 1282 1281 1150
f 1280 1283 1279
f 1283 1275 1279
f 1152 1150 1276
f 1160 1153 1287
f 1153 1152 1287
f 1160 1287 1284
f 1079 1285 1201
f 1285 1286 1201
f 1276 1287 1152
f 1119 1149 1266
f 1269 1265 1119
f 1260 1228 997
f 1092 1235 1140
f 1239 1235 1202
f 1236 1242 1245
f 1205 1245 1202
f 1286 1205 1203
f 1001 1002 1092
f 1231 1252 1136
f 998 999 1136
f 996 997 1228
f 993 994 1266
f 992 1266 1149
f 1006 1186 1200
f 1218 1213 1079
f 1207 1204 1203
f 1201 1203 1200
f 1201 1200 1186
f 1198 1178 1179
f 1190 1188 1178
f 1181 1170 1177
f 1174 1162 1163
f 1167 1161 1160
f 1162 1219 1153
f 1286 1105 1104
f 1205 1286 1104
f 1104 1236 1205
f 1163 1160 1055
f 1163 1049 1177
f 1049 1029 1177
f 1179 1177 1029
f 1213 1179 1029
f 1029 1030 1213
f 1079 1213 1030
f 1287 1107 1106
f 1284 1287 1106
f 1287 1276 1107
f 1237 1242 1146
f 1242 1236 1146
f 1093 1136 1246
f 1149 1119 1115
f 1273 1149 1115
f 1107 1276 1279
f 1107 1279 1275
f 1273 1109 1275
f 1102 1228 1260
f 1127 1102 1260
f 1127 1260 1253
f 1135 1253 1136
f 1093 1246 1092
f 1284 1106 1055
f 1160 1284 1055
f 1105 1286 1285
f 1105 1285 1079
f 1259 1255 1133
f 1258 1259 1132
f 1254 1258 1128
f 1257 1254 1128
f 1256 1257 1131
f 1255 1256 1131
f 1131 1130 1255
f 1129 1131 1257
f 1128 1129 1257
f 1134 1128 1258
f 1132 1134 1258
f 1133 1132 1259
f 1130 1133 1255
f 1250 1252 1137
f 1252 1231 1137
f 1249 1250 1139
f 1251 1249 1139
f 1247 1251 1139
f 1248 1247 1138
f 1234 1248 1138
f 1233 1234 1096
f 1232 1233 1095
f 1231 1232 1095
f 1099 1137 1231
f 1098 1099 1231
f 1095 1098 1231
f 1096 1095 1233
f 1094 1096 1234
f 1138 1094 1234
f 1139 1138 1247
f 1137 1139 1250
f 1243 1239 1147
f 1240 1243 1141
f 1244 1240 1145
f 1245 1244 1148
f 1241 1245 1142
f 1239 1241 1147
f 1142 1147 1241
f 1144 1142 1245
f 1148 1144 1245
f 1145 1148 1244
f 1141 1145 1240
f 1143 1141 1243
f 1147 1143 1243
f 1206 1204 1014
f 1209 1206 1014
f 1208 1209 1017
f 1210 1208 1016
f 1207 1210 1015
f 1204 1207 1013
f 1015 1013 1207
f 1016 1015 1210
f 1017 1016 1208
f 1014 1017 1209
f 1013 1014 1204
f 1189 1190 1028
f 1193 1189 1028
f 1187 1193 1022
f 1192 1187 1027
f 1191 1192 1024
f 1190 1191 1021
f 1024 1021 1191
f 1027 1024 1192
f 1026 1027 1187
f 1022 1026 1187
f 1025 1022 1193
f 1028 1025 1193
f 1021 1028 1190
f 1220 1222 1083
f 1224 1220 1086
f 1227 1224 1089
f 1226 1227 1087
f 1225 1226 1090
f 1223 1225 1085
f 1222 1223 1083
f 1085 1083 1223
f 1091 1085 1225
f 1090 1091 1225
f 1088 1090 1226
f 1087 1088 1226
f 1089 1087 1227
f 1086 1089 1224
f 1083 1086 1220
f 1159 1152 1074
f 1155 1159 1068
f 1158 1155 1072
f 1156 1158 1072
f 1157 1156 1071
f 1154 1157 1071
f 1152 1154 1069
f 1069 1074 1152
f 1071 1069 1154
f 1073 1071 1156
f 1072 1073 1156
f 1068 1072 1155
f 1070 1068 1159
f 1074 1070 1159
f 1278 1283 1112
f 1272 1278 1110
f 1274 1272 1110
f 1282 1274 1110
f 1281 1282 1111
f 1277 1281 1111
f 1280 1277 1108
f 1283 1280 1114
f 1108 1114 1280
f 1111 1108 1277
f 1113 1111 1282
f 1110 1113 1282
f 1112 1110 1278
f 1114 1112 1283
f 1263 1265 1124
f 1265 1269 1124
f 1264 1263 1123
f 1261 1264 1126
f 1268 1261 1125
f 1267 1268 1118
f 1271 1267 1117
f 1266 1271 1117
f 1270 1266 1122
f 1269 1270 1120
f 1122 1120 1270
f 1117 1122 1266
f 1118 1117 1267
f 1116 1118 1268
f 1125 1116 1268
f 1126 1125 1261
f 1123 1126 1264
f 1124 1123 1263
f 1121 1124 1269
f 1120 1121 1269
f 1081 1080 1217
f 1077 1081 1214
f 1076 1077 1211
f 1075 1076 1212
f 1078 1075 1212
f 1080 1082 1216
f 1216 1217 1080
f 1218 1216 1082
f 1082 1078 1218
f 1215 1218 1078
f 1212 1215 1078
f 1211 1212 1076
f 1214 1211 1077
f 1217 1214 1081
f 1039 1040 1180
f 1041 1039 1182
f 1038 1041 1181
f 1043 1038 1184
f 1042 1043 1183
f 1044 1042 1183
f 1040 1044 1180
f 1183 1180 1044
f 1184 1183 1043
f 1181 1184 1038
f 1182 1181 1041
f 1180 1182 1039
f 1034 1032 1195
f 1036 1034 1197
f 1033 1036 1198
f 1031 1033 1199
f 1035 1031 1199
f 1032 1035 1196
f 1194 1195 1032
f 1196 1194 1032
f 1199 1196 1035
f 1198 1199 1033
f 1197 1198 1036
f 1195 1197 1034
f 1052 1053 1175
f 1051 1052 1176
f 1048 1051 1171
f 1047 1048 1174
f 1050 1047 1172
f 1054 1050 1172
f 1053 1054 1173
f 1173 1175 1053
f 1172 1173 1054
f 1174 1172 1047
f 1171 1174 1048
f 1176 1171 1051
f 1175 1176 1052
f 1059 1061 1165
f 1060 1059 1166
f 1058 1060 1166
f 1057 1058 1167
f 1062 1057 1169
f 1063 1062 1168
f 1061 1063 1164
f 1164 1165 1061
f 1168 1164 1063
f 1169 1168 1062
f 1167 1169 1057
f 1166 1167 1058
f 1165 1166 1059
f 1289 1288 1292
f 1289 1292 1290
f 1290 1292 1293
f 1290 1293 1291
f 1292 1288 1294
f 1292 1294 1293
f 1293 1294 1295
f 1293 1295 1291
f 1294 1288 1296
f 1294 1296 1295
f 1295 1296 1297
f 1295 1297 1291
f 1296 1288 1298
f 1296 1298 1297
f 1297 1298 1299
f 1297 1299 1291
f 1298 1288 1300
f 1298 1300 1299
f 1299 1300 1301
f 1299 1301 1291
f 1300 1288 1302
f 1300 1302 1301
f 1301 1302 1303
f 1301 1303 1291
f 1302 1288 1304
f 1302 1304 1303
f 1303 1304 1305
f 1303 1305 1291
f 1304 1288 1306
f 1304 1306 1305
f 1305 1306 1307
f 1305 1307 1291
f 1306 1288 1308
f 1306 1308 1307
f 1307 1308 1309
f 1307 1309 1291
f 1308 1288 1310
f 1308 1310 1309
f 1309 1310 1311
f 1309 1311 1291
f 1310 1288 1312
f 1310 1312 1311
f 1311 1312 1313
f 1311 1313 1291
f 1312 1288 1314
f 1312 1314 1313
f 1313 1314 1315
f 1313 1315 1291
f 1314 1288 1316
f 1314 1316 1315
f 1315 1316 1317
f 1315 1317 1291
f 1316 1288 1318
f 1316 1318 1317
f 1317 1318 1319
f 1317 1319 1291
f 1318 1288 1320
f 1318 1320 1319
f 1319 1320 1321
f 1319 1321 1291
f 1320 1288 1322
f 1320 1322 1321
f 1321 1322 1323
f 1321 1323 1291
f 1322 1288 1324
f 1322 1324 1323
f 1323 1324 1325
f 1323 1325 1291
f 1324 1288 1326
f 1324 1326 1325
f 1325 1326 1327
f 1325 1327 1291
f 1326 1288 1328
f 1326 1328 1327
f 1327 1328 1329
f 1327 1329 1291
f 1328 1288 1330
f 1328 1330 1329
f 1329 1330 1331
f 1329 1331 1291
f 1330 1288 1332
f 1330 1332 1331
f 1331 1332 1333
f 1331 1333 1291
f 1332 1288 1334
f 1332 1334 1333
f 1333 1334 1335
f 1333 1335 1291
f 1334 1288 1336
f 1334 1336 1335
f 1335 1336 1337
f 1335 1337 1291
f 1336 1288 1338
f 1336 1338 1337
f 1337 1338 1339
f 1337 1339 1291
f 1338 1288 1340
f 1338 1340 1339
f 1339 1340 1341
f 1339 1341 1291
f 1340 1288 1342
f 1340 1342 1341
f 1341 1342 1343
f 1341 1343 1291
f 1342 1288 1344
f 1342 1344 1343
f 1343 1344 1345
f 1343 1345 1291
f 1344 1288 1346
f 1344 1346 1345
f 1345 1346 1347
f 1345 1347 1291
f 1346 1288 1348
f 1346 1348 1347
f 1347 1348 1349
f 1347 1349 1291
f 1348 1288 1350
f 1348 1350 1349
f 1349 1350 1351
f 1349 1351 1291
f 1350 1288 1352
f 1350 1352 1351
f 1351 1352 1353
f 1351 1353 1291
f 1352 1288 1289
f 1352 1289 1353
f 1353 1289 1290
f 1353 1290 1291
f 1354 1355 1356
f 1359 1357 1356
f 1361 1359 1360
f 1361 1362 1355
f 1354 1355 1363
f 1354 1364 1363
f 1355 1354 1361
f 1360 1362 1361
f 1356 1360 1359
f 1356 1357 1354
f 1366 1355 1363
f 1366 1367 1363
f 1368 1366 1355
f 1368 1362 1369
f 1370 1369 1371
f 1366 1372 1371
f 1371 1355 1366
f 1371 1372 1370
f 1369 1370 1368
f 1355 1362 1368
f 1374 1375 1365
f 1375 1355 1365
f 1365 1355 1374
f 1362 1377 1376
f 1375 1356 1355
f 1355 1371 1374
f 1376 1369 1362
f 1362 1360 1377
f 1360 1356 1377
f 1377 1356 1358
f 1375 1358 1356
f 1358 1375 1377
f 1376 1371 1369
f 1376 1374 1373
f 1373 1371 1376
f 1371 1373 1374
f 1378 1379 1364
f 1379 1354 1364
f 1364 1354 1378
f 1361 1354 1379
f 1377 1357 1359
f 1377 1375 1357
f 1379 1377 1361
f 1375 1378 1354
f 1375 1354 1357
f 1359 1361 1377
f 1374 1376 1372
f 1370 1372 1376
f 1379 1366 1368
f 1379 1378 1367
f 1376 1379 1368
f 1367 1366 1379
f 1378 1374 1366
f 1376 1368 1370
f 1372 1366 1374
f 1366 1367 1378
f 1379 1376 1377
f 1375 1374 1378

