# https://github.com/mikedh/trimesh
v 0.00059312 -0.08950015 -0.01246841
v 0.00025783 -0.08950026 0.01544127
v 0.01284346 -0.08950030 0.00124260
v 0.01079431 -0.08950028 0.00069398
v 0.01414234 -0.08950031 0.00049234
v -0.00954009 -0.08950016 0.00897496
v -0.00554261 -0.08950018 0.00839820
v -0.00267637 -0.08950015 -0.00538314
v -0.01362197 -0.08950005 -0.00858816
v -0.00618612 -0.08950009 -0.01452772
v 0.00925628 -0.08950023 -0.00996597
v 0.00433035 -0.08950019 -0.00899728
v 0.00870952 -0.08950030 0.00848074
v -0.01495602 -0.08950006 -0.00481163
v -0.01264194 -0.08950010 0.00210539
v -0.01414246 -0.08950008 -0.00049239
v 0.00604657 -0.08950024 -0.00002815
v 0.00705004 -0.08950023 -0.00428881
v 0.00239609 -0.08950019 -0.00484858
v 0.00067893 -0.08950017 -0.00602203
v -0.00522374 -0.08950014 -0.00304561
v -0.00614749 -0.08725014 -0.00164590
v -0.00500805 -0.08950017 0.00332574
v -0.00604669 -0.08950015 0.00002811
v -0.00304565 -0.08950019 0.00522366
v 0.00578164 -0.08800025 0.00301197
v 0.00002807 -0.08950022 0.00604661
v -0.00765740 -0.08950011 -0.00625923
v -0.00049239 -0.08500025 0.01414240
v -0.00301752 -0.08950022 0.01127029
v 0.00060485 -0.08673101 0.01004410
v 0.00339119 -0.08950027 0.01126923
v 0.00834190 -0.08950023 -0.00655073
v 0.01157915 -0.08950027 -0.00357032
v 0.01324672 -0.08950033 0.00793868
v 0.00481366 -0.08850030 0.01775904
v 0.00020414 -0.08950027 0.01789743
v -0.01092747 -0.08950017 0.01527004
v -0.01483646 -0.08950012 0.01030198
v -0.01223868 -0.08950013 0.00880146
v -0.01633698 -0.08950010 0.00770420
v -0.01497440 -0.08950010 0.00537388
v -0.01832529 -0.08950005 0.00023701
v -0.01257888 -0.08950005 -0.01064941
v -0.00805128 -0.08950009 -0.01093976
v -0.00135521 -0.08950014 -0.01134302
v -0.00008445 -0.08950012 -0.01813991
v 0.00848727 -0.08950020 -0.01529595
v 0.01028192 -0.08950021 -0.01491527
v 0.01354449 -0.08950027 -0.00804011
v 0.01759354 -0.08950032 -0.00419574
v 0.01827748 -0.08950035 0.00379550
v 0.01329160 -0.08950035 0.01187218
v 0.01567101 -0.08725036 0.00913676
v 0.00771530 -0.08950031 0.01373209
v 0.00254149 -0.08500016 -0.01359378
v -0.00135517 -0.08500014 -0.01134300
v -0.00968083 -0.08500010 -0.00401433
v 0.00250515 -0.08500017 -0.01140747
v -0.00522371 -0.08500014 -0.00304559
v -0.00500801 -0.08500017 0.00332576
v 0.01284349 -0.08500030 0.00124262
v 0.01264186 -0.08500028 -0.00210541
v 0.00804534 -0.08500026 -0.00031651
v -0.00301748 -0.08500022 0.01127031
v -0.00554258 -0.08500018 0.00839822
v 0.00390367 -0.08500027 0.01125671
v 0.00404201 -0.08500018 -0.01099600
v 0.00857507 -0.08500020 -0.01433830
v 0.00304557 -0.08500020 -0.00522369
v 0.00739002 -0.08772389 -0.01119764
v 0.01162312 -0.08725032 0.00887651
v 0.00560035 -0.08500027 0.00669670
v -0.01414243 -0.08500008 -0.00049237
v -0.01264191 -0.08500010 0.00210541
v -0.01004416 -0.08806012 0.00060487
v -0.00304561 -0.08500019 0.00522368
v -0.00164593 -0.08725021 0.00614743
v 0.00002811 -0.08500022 0.00604662
v -0.00604665 -0.08500015 0.00002813
v 0.00008221 -0.08500017 -0.00660531
v 0.00538309 -0.08500023 -0.00267632
v 0.01155997 -0.08500025 -0.00791457
v 0.00984245 -0.08500026 -0.00395293
v 0.01151006 -0.08692888 0.00547732
v 0.01119760 -0.08500031 0.00739007
v 0.01659479 -0.08500036 0.00773706
v 0.01848920 -0.08500034 -0.00097908
v 0.01783741 -0.08500031 -0.00510645
v 0.01084920 -0.08500022 -0.01448482
v 0.00773702 -0.08853590 -0.01659483
v 0.00158958 -0.08725013 -0.01824071
v -0.00476495 -0.08500008 -0.01774600
v -0.00008442 -0.08500012 -0.01813989
v -0.00175893 -0.08745466 -0.01659323
v -0.00659782 -0.08500010 -0.00951401
v -0.01046964 -0.08500006 -0.01307902
v -0.00965258 -0.08500005 -0.01521153
v -0.01362193 -0.08500005 -0.00858815
v -0.01723865 -0.08500003 -0.00615262
v -0.01853596 -0.08500005 0.00160385
v -0.01483643 -0.08500012 0.01030200
v -0.00911452 -0.08500016 0.01046143
v -0.01316188 -0.08500011 0.00587025
v -0.01333591 -0.08500014 0.01289977
v -0.01028641 -0.08500018 0.01518025
v -0.00147157 -0.08500026 0.01817249
v 0.00240783 -0.08500029 0.01766394
v 0.00737948 -0.08500032 0.01652448
v 0.01317407 -0.08500035 0.01231130
v 0.01366226 -0.10393586 0.01030903
v 0.01368122 -0.10300034 0.00624378
v 0.01372181 -0.10600036 0.00812373
v 0.01068437 -0.10457764 0.00560080
v 0.01053604 -0.10300033 0.00746255
v 0.01125287 -0.10300034 0.00850870
v -0.00222481 -0.10299873 -0.21382325
v -0.00070291 -0.10299879 -0.20660113
v -0.00662743 -0.10299873 -0.20834714
v 0.01145913 -0.10299887 -0.20803086
v -0.01270830 -0.10299869 -0.20649235
v 0.00962173 -0.10299895 -0.19526855
v -0.00001395 -0.10318638 -0.19424830
v -0.00531447 -0.10299880 -0.19961909
v -0.00729327 -0.10299885 -0.19041963
v 0.02404561 -0.10299932 -0.15631154
v 0.01489950 -0.10299933 -0.14435866
v 0.01790272 -0.10299967 -0.09852255
v 0.00856390 -0.10299936 -0.13344275
v 0.00775771 -0.10299958 -0.09947066
v 0.00794014 -0.10299972 -0.07976657
v 0.02060010 -0.10299989 -0.06955347
v 0.01453314 -0.10300026 -0.00733542
v -0.00232534 -0.10299996 -0.03227695
v -0.00443614 -0.10300008 -0.01210567
v 0.00534651 -0.10300027 0.00437791
v 0.01039094 -0.10300024 -0.00600215
v 0.01722440 -0.10300037 0.00598281
v 0.00971908 -0.10300028 0.00081274
v 0.01438893 -0.10300030 -0.00085626
v -0.00961107 -0.10300011 -0.00085147
v 0.00516576 -0.10300029 0.00839533
v -0.00332570 -0.10300020 0.00518291
v 0.01250867 -0.10299962 -0.09941075
v 0.01693784 -0.10416650 -0.07332735
v 0.02103537 -0.10299953 -0.12234627
v 0.02058825 -0.10299967 -0.10193431
v 0.01426584 -0.10299995 -0.05220280
v 0.01451903 -0.10299978 -0.07806813
v 0.00818554 -0.10299990 -0.05237068
v -0.00068281 -0.10299984 -0.05129192
v 0.00221745 -0.10334243 -0.10039197
v -0.00273654 -0.10299887 -0.19225949
v -0.00356106 -0.10299879 -0.20361630
v 0.00637799 -0.10299889 -0.20046922
v 0.00752419 -0.10299889 -0.20107680
v 0.00845909 -0.10299889 -0.20172673
v 0.00642720 -0.10299884 -0.20777477
v 0.00226670 -0.10299880 -0.20809656
v -0.00692738 -0.10299879 -0.19950211
v 0.00850686 -0.10299883 -0.21118217
v -0.00232726 -0.10299873 -0.21381197
v -0.00254020 -0.10299873 -0.21376467
v -0.01108411 -0.10299875 -0.20012723
v -0.00943574 -0.10299875 -0.20150050
v -0.01268480 -0.10495937 -0.20028383
v 0.00255375 -0.10299904 -0.17284562
v 0.00316610 -0.10299891 -0.19319914
v 0.00623663 -0.10299914 -0.16333205
v 0.00645560 -0.10299894 -0.19283417
v 0.01041781 -0.10299930 -0.14467877
v 0.01217491 -0.10488821 -0.14274466
v 0.00643825 -0.10299955 -0.10208329
v 0.00568358 -0.10299969 -0.08136321
v -0.00959078 -0.10361090 -0.04281964
v -0.01779659 -0.10300007 0.00318007
v -0.01458459 -0.10300008 0.00082519
v -0.00912495 -0.10300019 0.01045989
v 0.00469919 -0.10386008 0.01431640
v 0.00000223 -0.10300028 0.01199993
v 0.01741523 -0.10300012 -0.03043762
v 0.02263115 -0.10300005 -0.04821833
v 0.02727024 -0.10299973 -0.09735310
v 0.01214752 -0.10416559 -0.20153719
v 0.00898930 -0.10299892 -0.19842555
v 0.00404083 -0.10370542 -0.10088206
v -0.00468738 -0.10299980 -0.05332307
v -0.00441359 -0.10299983 -0.04910816
v -0.00592801 -0.10364265 -0.05181023
v 0.02506535 -0.10299941 -0.14466767
v 0.02678534 -0.10299944 -0.14317603
v 0.03070310 -0.10449942 -0.15025653
v 0.02939784 -0.10299944 -0.14549499
v 0.02289911 -0.10299973 -0.09581515
v 0.02226468 -0.10299970 -0.09928766
v 0.02175696 -0.10299971 -0.09743090
v 0.02521944 -0.10299973 -0.09804001
v 0.01874662 -0.10300003 -0.04598607
v 0.01814113 -0.10300000 -0.04968489
v 0.02005049 -0.10300002 -0.04882395
v -0.00652923 -0.10300010 -0.00628401
v -0.00869463 -0.10300007 -0.00850988
v -0.01763306 -0.10416003 -0.00361692
v -0.01276855 -0.10300005 -0.00582592
v 0.00797465 -0.10300019 -0.00946081
v 0.00450849 -0.10300017 -0.00857437
v 0.00681114 -0.10300019 -0.00844124
v 0.00589814 -0.10300015 -0.01309011
v -0.00694323 -0.10300006 -0.01231616
v -0.00655932 -0.10300014 -0.00093844
v -0.00328800 -0.10397432 0.01793266
v -0.00352818 -0.10300024 0.01144713
v 0.00814344 -0.10300032 0.00926296
v -0.01390892 -0.10300014 0.00848744
v -0.01061808 -0.10300016 0.00776706
v -0.01112252 -0.10300014 0.00525112
v -0.00152675 -0.10300010 -0.01266964
v 0.01040650 -0.10299997 -0.04535770
v -0.00406299 -0.10299994 -0.03233874
v -0.00218862 -0.10299996 -0.03234644
v -0.00158094 -0.10299986 -0.04707394
v 0.00461949 -0.10300000 -0.03439295
v 0.01358668 -0.10300004 -0.03786139
v 0.01274529 -0.10300015 -0.02074264
v 0.00807102 -0.10450011 -0.02107041
v -0.00136883 -0.10300008 -0.01492576
v -0.00177654 -0.10300002 -0.02369432
v 0.00070834 -0.10324322 -0.03217280
v -0.00035798 -0.10300009 -0.01561143
v -0.00018168 -0.10300009 -0.01564037
v -0.00094394 -0.10300003 -0.02241277
v -0.00121352 -0.10300008 -0.01512449
v -0.00151031 -0.10300003 -0.02282610
v 0.00198886 -0.10300011 -0.01448394
v -0.00066111 -0.10300004 -0.02230242
v -0.00176132 -0.10300002 -0.02353477
v -0.00071904 -0.10300008 -0.01549344
v -0.00100176 -0.10300008 -0.01531343
v 0.00122807 -0.10600026 0.00821024
v -0.01047201 -0.10600016 0.00675890
v 0.01168385 -0.10600025 -0.00458738
v 0.00809209 -0.10600030 0.00553844
v 0.00983001 -0.10600026 -0.00153093
v 0.00878441 -0.10600021 -0.00775966
v 0.00192887 -0.10378964 -0.00640498
v -0.00791701 -0.10600005 -0.01162448
v -0.00411931 -0.10599994 -0.03235236
v -0.00228658 -0.10599983 -0.05128679
v 0.02103761 -0.10600002 -0.05063169
v 0.02016254 -0.10599975 -0.08847528
v 0.02103006 -0.10599976 -0.08847546
v 0.00772293 -0.10599958 -0.09945621
v 0.00817595 -0.10599958 -0.10033152
v 0.01994992 -0.10599952 -0.12197256
v 0.02214289 -0.10599910 -0.18775703
v 0.00816237 -0.10599912 -0.16847802
v 0.01919266 -0.10599903 -0.19446633
v 0.00797707 -0.10599893 -0.19526824
v -0.01384646 -0.10599875 -0.19748216
v 0.00087264 -0.10599881 -0.20535279
v 0.01142832 -0.10599887 -0.20807172
v -0.00232729 -0.10599873 -0.21381199
v -0.00272090 -0.10599877 -0.20726080
v -0.00698323 -0.10599873 -0.20860848
v 0.01423691 -0.10599995 -0.05224601
v 0.01613102 -0.10599965 -0.09869861
v 0.00930192 -0.10599995 -0.04614622
v -0.00250389 -0.10599988 -0.04303765
v -0.00232590 -0.10599996 -0.03227829
v 0.02143681 -0.10599968 -0.10066704
v 0.02195815 -0.10599954 -0.12145954
v 0.00794011 -0.10599972 -0.07976660
v 0.00632738 -0.10599969 -0.08126394
v 0.01050904 -0.10374963 -0.09528100
v -0.00209161 -0.10599886 -0.19511300
v 0.00240958 -0.10599890 -0.19371961
v 0.00725108 -0.10599889 -0.20068272
v 0.00881981 -0.10599892 -0.19820288
v 0.00542210 -0.10599888 -0.19990345
v 0.00334425 -0.10599882 -0.20644921
v 0.00639070 -0.10599884 -0.20748872
v -0.00817517 -0.10599876 -0.20138417
v -0.00683346 -0.10599879 -0.19905113
v -0.01064830 -0.10599869 -0.20914491
v -0.00657251 -0.10353870 -0.21253657
v 0.00143089 -0.10599875 -0.21403290
v -0.00222483 -0.10599873 -0.21382327
v 0.00449234 -0.10535363 -0.21153059
v 0.01072523 -0.10599892 -0.20059580
v 0.00886206 -0.10599890 -0.20187221
v 0.02930875 -0.10599945 -0.14347628
v 0.02276921 -0.10600004 -0.04967761
v 0.02726962 -0.10599975 -0.09735159
v 0.02026949 -0.10600020 -0.02313799
v 0.01558111 -0.10600033 0.00185316
v 0.01600429 -0.10600038 0.00832777
v -0.00097500 -0.10600028 0.01455364
v 0.00264529 -0.10600030 0.01233524
v -0.00225256 -0.10600025 0.01129335
v -0.01188003 -0.10600019 0.01398750
v -0.01059146 -0.10600009 -0.00224707
v -0.01378597 -0.10600011 0.00377189
v -0.01088869 -0.10600012 0.00192520
v -0.01341279 -0.10600006 -0.00476815
v 0.00128421 -0.10599986 -0.05082196
v -0.00219792 -0.10599964 -0.07886691
v 0.01075377 -0.10599930 -0.14513890
v 0.01122306 -0.10599958 -0.10297455
v 0.00850362 -0.10599925 -0.14989159
v 0.01444747 -0.10599932 -0.14526847
v 0.01367980 -0.10599933 -0.14280960
v 0.00546733 -0.10581729 -0.16606033
v 0.00316295 -0.10373226 -0.19106835
v 0.00666042 -0.10599894 -0.19235174
v 0.00072320 -0.10490041 -0.17617373
v -0.00768741 -0.10599884 -0.19137434
v -0.00250441 -0.10599887 -0.19199934
v -0.00370384 -0.10599885 -0.19363102
v 0.00457107 -0.10599956 -0.09928625
v 0.00632961 -0.10498345 -0.09839867
v 0.00400146 -0.10599955 -0.10038954
v 0.00668816 -0.10599956 -0.10195495
v -0.00525262 -0.10599981 -0.04986872
v -0.00273412 -0.10599984 -0.04962325
v -0.00239169 -0.10599982 -0.05165180
v -0.00246673 -0.10599982 -0.05181393
v -0.00251302 -0.10599965 -0.07733074
v -0.00488285 -0.10599980 -0.05309891
v 0.02873717 -0.10599943 -0.14608176
v 0.02505045 -0.10599941 -0.14500579
v 0.02429621 -0.10358124 -0.18295010
v 0.02309097 -0.10599973 -0.09592608
v 0.01751190 -0.10600002 -0.04612313
v 0.01986865 -0.10600001 -0.04958650
v -0.00927251 -0.10600007 -0.00804753
v 0.00754476 -0.10600017 -0.01255853
v 0.00429183 -0.10600018 -0.00737494
v -0.00721653 -0.10600008 -0.00776044
v -0.00424851 -0.10600011 -0.00763788
v -0.00536401 -0.10600007 -0.01254233
v -0.00360054 -0.10600021 0.00607254
v -0.00506488 -0.10600013 -0.00358920
v 0.00501405 -0.10600026 0.00350908
v -0.00833222 -0.10600019 0.00974039
v -0.00445100 -0.10600024 0.01257910
v -0.00514688 -0.10600021 0.00826853
v 0.00724118 -0.10600034 0.01266727
v 0.00815614 -0.10600033 0.01019717
v 0.00423520 -0.10600029 0.00914747
v -0.01576416 -0.10484628 0.00909736
v -0.01063688 -0.10600016 0.00784996
v -0.01304594 -0.10600015 0.00871228
v 0.00119670 -0.10600012 -0.01247482
v -0.00338453 -0.10600009 -0.01186698
v -0.00087576 -0.10600010 -0.01259256
v 0.00076025 -0.10599999 -0.03032973
v 0.01073004 -0.10599996 -0.04675297
v -0.00218864 -0.10599996 -0.03234646
v -0.00136885 -0.10600008 -0.01492578
v -0.00177656 -0.10600002 -0.02369434
v -0.00173789 -0.10600009 -0.01393395
v -0.00018171 -0.10600009 -0.01564039
v 0.00047197 -0.10600007 -0.01829547
v -0.00176134 -0.10600002 -0.02353479
v -0.00067926 -0.10600008 -0.01552593
v -0.00113792 -0.10600008 -0.01519776
v -0.00126076 -0.10600008 -0.01506803
v 0.01278364 -0.10600015 -0.02077297
v 0.01457608 -0.10600006 -0.03668323
v 0.01357392 -0.10600004 -0.03791440
v 0.00000225 -0.09950024 0.01199993
v 0.00000255 -0.09950025 0.01349993
v -0.00149745 -0.09950024 0.01350023
v -0.00149775 -0.09950023 0.01200023
v -0.00149804 -0.09950023 0.01050023
v 0.00000196 -0.09950024 0.01049993
v 0.00150196 -0.09950025 0.01049963
v 0.00150225 -0.09950026 0.01199963
v 0.00150255 -0.09950026 0.01349963
v 0.00000211 -0.08000024 0.01050001
v -0.00149789 -0.08000023 0.01050031
v -0.00149759 -0.08000023 0.01200031
v -0.00149729 -0.08000024 0.01350031
v 0.00000271 -0.08000025 0.01350001
v 0.00150271 -0.08000026 0.01349971
v 0.00150241 -0.08000026 0.01199971
v 0.00150211 -0.08000025 0.01049971
v 0.00000241 -0.08000024 0.01200001
v 0.01039097 -0.09950025 -0.00600214
v 0.00913025 -0.09950024 -0.00518938
v 0.00831749 -0.09950023 -0.00645010
v 0.00957821 -0.09950024 -0.00726286
v 0.01083893 -0.09950025 -0.00807562
v 0.01165169 -0.09950026 -0.00681490
v 0.01246445 -0.09950027 -0.00555418
v 0.01120373 -0.09950026 -0.00474142
v 0.00994301 -0.09950026 -0.00392866
v 0.01165184 -0.08000026 -0.00681482
v 0.01083908 -0.08000025 -0.00807554
v 0.00957836 -0.08000024 -0.00726278
v 0.00831764 -0.08000023 -0.00645002
v 0.00913040 -0.08000024 -0.00518930
v 0.00994316 -0.08000026 -0.00392858
v 0.01120388 -0.08000026 -0.00474134
v 0.01246460 -0.08000027 -0.00555410
v 0.01039112 -0.08000025 -0.00600206
v -0.01039364 -0.09950009 -0.00599799
v -0.01171467 -0.09950008 -0.00528744
v -0.01242522 -0.09950007 -0.00660848
v -0.01110418 -0.09950008 -0.00731902
v -0.00978315 -0.09950008 -0.00802956
v -0.00907261 -0.09950009 -0.00670853
v -0.00836206 -0.09950011 -0.00538750
v -0.00968310 -0.09950010 -0.00467695
v -0.01100413 -0.09950009 -0.00396641
v -0.00907245 -0.08000009 -0.00670845
v -0.00978299 -0.08000008 -0.00802948
v -0.01110403 -0.08000008 -0.00731894
v -0.01242506 -0.08000007 -0.00660839
v -0.01171452 -0.08000008 -0.00528736
v -0.01100397 -0.08000009 -0.00396633
v -0.00968294 -0.08000010 -0.00467687
v -0.00836191 -0.08000011 -0.00538741
v -0.01039348 -0.08000009 -0.00599790
v 0.01366234 -0.09093584 0.01030912
v 0.01368130 -0.09000033 0.00624386
v 0.01372189 -0.09300034 0.00812382
v 0.01068445 -0.09157762 0.00560088
v 0.01053613 -0.09000031 0.00746264
v 0.01125295 -0.09000032 0.00850879
v -0.00222473 -0.08999871 -0.21382317
v -0.00070283 -0.08999877 -0.20660104
v -0.00662735 -0.08999871 -0.20834706
v 0.01145921 -0.08999886 -0.20803078
v -0.01270822 -0.08999868 -0.20649226
v 0.00962181 -0.08999893 -0.19526847
v -0.00001386 -0.09018636 -0.19424822
v -0.00531439 -0.08999878 -0.19961901
v -0.00729318 -0.08999883 -0.19041955
v 0.02404569 -0.08999931 -0.15631146
v 0.01489958 -0.08999931 -0.14435858
v 0.01790280 -0.08999965 -0.09852246
v 0.00856398 -0.08999934 -0.13344267
v 0.00775779 -0.08999956 -0.09947057
v 0.00794022 -0.08999970 -0.07976649
v 0.02060018 -0.08999987 -0.06955338
v 0.01453322 -0.09000024 -0.00733534
v -0.00232526 -0.08999994 -0.03227686
v -0.00443606 -0.09000006 -0.01210559
v 0.00534660 -0.09000025 0.00437800
v 0.01039102 -0.09000022 -0.00600206
v 0.01722448 -0.09000035 0.00598290
v 0.00971916 -0.09000026 0.00081282
v 0.01438901 -0.09000028 -0.00085617
v -0.00961099 -0.09000009 -0.00085139
v 0.00516584 -0.09000027 0.00839541
v -0.00332562 -0.09000018 0.00518299
v 0.01250875 -0.08999960 -0.09941067
v 0.01693792 -0.09116648 -0.07332726
v 0.02103545 -0.08999951 -0.12234619
v 0.02058833 -0.08999965 -0.10193422
v 0.01426593 -0.08999993 -0.05220271
v 0.01451911 -0.08999976 -0.07806804
v 0.00818562 -0.08999988 -0.05237059
v -0.00068273 -0.08999982 -0.05129184
v 0.00221753 -0.09034242 -0.10039188
v -0.00273646 -0.08999885 -0.19225941
v -0.00356098 -0.08999877 -0.20361621
v 0.00637807 -0.08999887 -0.20046914
v 0.00752427 -0.08999887 -0.20107671
v 0.00845917 -0.08999888 -0.20172665
v 0.00642728 -0.08999882 -0.20777468
v 0.00226678 -0.08999878 -0.20809647
v -0.00692729 -0.08999877 -0.19950202
v 0.00850695 -0.08999881 -0.21118209
v -0.00232718 -0.08999871 -0.21381188
v -0.00254012 -0.08999871 -0.21376459
v -0.01108403 -0.08999873 -0.20012715
v -0.00943566 -0.08999874 -0.20150042
v -0.01268471 -0.09195935 -0.20028375
v 0.00255383 -0.08999902 -0.17284553
v 0.00316619 -0.08999889 -0.19319905
v 0.00623671 -0.08999912 -0.16333196
v 0.00645568 -0.08999892 -0.19283409
v 0.01041789 -0.08999928 -0.14467869
v 0.01217500 -0.09188819 -0.14274457
v 0.00643834 -0.08999953 -0.10208320
v 0.00568367 -0.08999967 -0.08136312
v -0.00959070 -0.09061089 -0.04281955
v -0.01779651 -0.09000006 0.00318016
v -0.01458450 -0.09000007 0.00082527
v -0.00912487 -0.09000017 0.01045998
v 0.00469927 -0.09086007 0.01431649
v 0.00000231 -0.09000026 0.01200001
v 0.01741531 -0.09000011 -0.03043753
v 0.02263123 -0.09000003 -0.04821824
v 0.02727032 -0.08999971 -0.09735301
v 0.01214761 -0.09116557 -0.20153710
v 0.00898938 -0.08999890 -0.19842547
v 0.00404091 -0.09070541 -0.10088197
v -0.00468730 -0.08999978 -0.05332299
v -0.00441351 -0.08999981 -0.04910808
v -0.00592792 -0.09064263 -0.05181014
v 0.02506543 -0.08999939 -0.14466758
v 0.02678542 -0.08999942 -0.14317594
v 0.03070318 -0.09149940 -0.15025644
v 0.02939792 -0.08999942 -0.14549491
v 0.02289919 -0.08999971 -0.09581506
v 0.02226476 -0.08999968 -0.09928757
v 0.02175704 -0.08999969 -0.09743081
v 0.02521952 -0.08999971 -0.09803993
v 0.01874670 -0.09000001 -0.04598598
v 0.01814121 -0.08999998 -0.04968481
v 0.02005057 -0.09000000 -0.04882386
v -0.00652915 -0.09000008 -0.00628393
v -0.00869455 -0.09000005 -0.00850980
v -0.01763298 -0.09116001 -0.00361684
v -0.01276846 -0.09000003 -0.00582584
v 0.00797473 -0.09000017 -0.00946073
v 0.00450857 -0.09000015 -0.00857429
v 0.00681123 -0.09000017 -0.00844116
v 0.00589823 -0.09000013 -0.01309002
v -0.00694315 -0.09000004 -0.01231607
v -0.00655924 -0.09000012 -0.00093836
v -0.00328792 -0.09097430 0.01793275
v -0.00352809 -0.09000022 0.01144722
v 0.00814352 -0.09000030 0.00926304
v -0.01390884 -0.09000012 0.00848752
v -0.01061800 -0.09000014 0.00776714
v -0.01112244 -0.09000012 0.00525121
v -0.00152667 -0.09000008 -0.01266955
v 0.01040658 -0.08999995 -0.04535762
v -0.00406290 -0.08999992 -0.03233865
v -0.00218854 -0.08999994 -0.03234636
v -0.00158086 -0.08999984 -0.04707386
v 0.00461957 -0.08999998 -0.03439286
v 0.01358676 -0.09000003 -0.03786130
v 0.01274537 -0.09000014 -0.02074255
v 0.00807110 -0.09150010 -0.02107032
v -0.00136875 -0.09000006 -0.01492567
v -0.00177646 -0.09000000 -0.02369423
v 0.00070842 -0.09024321 -0.03217271
v -0.00035790 -0.09000007 -0.01561134
v -0.00018160 -0.09000007 -0.01564028
v -0.00094386 -0.09000002 -0.02241269
v -0.00121344 -0.09000006 -0.01512440
v -0.00151023 -0.09000001 -0.02282601
v 0.00198895 -0.09000009 -0.01448385
v -0.00066103 -0.09000002 -0.02230234
v -0.00176124 -0.09000000 -0.02353468
v -0.00071896 -0.09000006 -0.01549335
v -0.00100168 -0.09000006 -0.01531334
v 0.00122816 -0.09300024 0.00821032
v -0.01047192 -0.09300014 0.00675899
v 0.01168394 -0.09300024 -0.00458729
v 0.00809217 -0.09300028 0.00553852
v 0.00983009 -0.09300024 -0.00153085
v 0.00878449 -0.09300019 -0.00775957
v 0.00192896 -0.09078962 -0.00640490
v -0.00791693 -0.09300003 -0.01162439
v -0.00411923 -0.09299992 -0.03235228
v -0.00228650 -0.09299981 -0.05128670
v 0.02103769 -0.09300000 -0.05063160
v 0.02016263 -0.09299973 -0.08847520
v 0.02103014 -0.09299974 -0.08847537
v 0.00772301 -0.09299956 -0.09945612
v 0.00817604 -0.09299956 -0.10033144
v 0.01995001 -0.09299951 -0.12197248
v 0.02214297 -0.09299908 -0.18775695
v 0.00816245 -0.09299910 -0.16847794
v 0.01919274 -0.09299901 -0.19446624
v 0.00797715 -0.09299892 -0.19526816
v -0.01384637 -0.09299873 -0.19748208
v 0.00087272 -0.09299879 -0.20535271
v 0.01142841 -0.09299886 -0.20807163
v -0.00232721 -0.09299871 -0.21381190
v -0.00272082 -0.09299875 -0.20726072
v -0.00698315 -0.09299871 -0.20860840
v 0.01423699 -0.09299993 -0.05224592
v 0.01613110 -0.09299963 -0.09869852
v 0.00930200 -0.09299994 -0.04614613
v -0.00250381 -0.09299986 -0.04303757
v -0.00232582 -0.09299994 -0.03227821
v 0.02143690 -0.09299966 -0.10066696
v 0.02195823 -0.09299953 -0.12145945
v 0.00794019 -0.09299970 -0.07976651
v 0.00632747 -0.09299967 -0.08126386
v 0.01050912 -0.09074961 -0.09528091
v -0.00209152 -0.09299884 -0.19511291
v 0.00240966 -0.09299888 -0.19371952
v 0.00725116 -0.09299887 -0.20068263
v 0.00881989 -0.09299890 -0.19820279
v 0.00542218 -0.09299886 -0.19990336
v 0.00334433 -0.09299880 -0.20644912
v 0.00639078 -0.09299882 -0.20748864
v -0.00817508 -0.09299875 -0.20138408
v -0.00683338 -0.09299877 -0.19905104
v -0.01064822 -0.09299867 -0.20914482
v -0.00657243 -0.09053868 -0.21253648
v 0.00143097 -0.09299874 -0.21403281
v -0.00222475 -0.09299871 -0.21382319
v 0.00449242 -0.09235362 -0.21153051
v 0.01072531 -0.09299890 -0.20059571
v 0.00886215 -0.09299888 -0.20187212
v 0.02930883 -0.09299943 -0.14347619
v 0.02276930 -0.09300002 -0.04967752
v 0.02726970 -0.09299973 -0.09735151
v 0.02026957 -0.09300018 -0.02313790
v 0.01558119 -0.09300031 0.00185324
v 0.01600437 -0.09300036 0.00832785
v -0.00097492 -0.09300027 0.01455373
v 0.00264537 -0.09300028 0.01233533
v -0.00225248 -0.09300023 0.01129343
v -0.01187995 -0.09300018 0.01398759
v -0.01059138 -0.09300008 -0.00224699
v -0.01378589 -0.09300009 0.00377198
v -0.01088861 -0.09300010 0.00192528
v -0.01341271 -0.09300004 -0.00476807
v 0.00128429 -0.09299984 -0.05082188
v -0.00219784 -0.09299962 -0.07886683
v 0.01075386 -0.09299928 -0.14513882
v 0.01122314 -0.09299957 -0.10297446
v 0.00850370 -0.09299923 -0.14989150
v 0.01444755 -0.09299930 -0.14526838
v 0.01367988 -0.09299932 -0.14280952
v 0.00546741 -0.09281728 -0.16606025
v 0.00316303 -0.09073224 -0.19106827
v 0.00666051 -0.09299892 -0.19235166
v 0.00072329 -0.09190040 -0.17617364
v -0.00768733 -0.09299882 -0.19137425
v -0.00250432 -0.09299885 -0.19199926
v -0.00370376 -0.09299883 -0.19363094
v 0.00457116 -0.09299954 -0.09928617
v 0.00632969 -0.09198343 -0.09839859
v 0.00400154 -0.09299953 -0.10038946
v 0.00668824 -0.09299954 -0.10195487
v -0.00525254 -0.09299980 -0.04986863
v -0.00273404 -0.09299982 -0.04962316
v -0.00239160 -0.09299981 -0.05165172
v -0.00246665 -0.09299980 -0.05181385
v -0.00251294 -0.09299963 -0.07733065
v -0.00488276 -0.09299978 -0.05309883
v 0.02873725 -0.09299941 -0.14608167
v 0.02505053 -0.09299939 -0.14500570
v 0.02429630 -0.09058122 -0.18295001
v 0.02309105 -0.09299971 -0.09592600
v 0.01751198 -0.09300000 -0.04612304
v 0.01986873 -0.09300000 -0.04958641
v -0.00927243 -0.09300005 -0.00804745
v 0.00754484 -0.09300015 -0.01255844
v 0.00429191 -0.09300016 -0.00737485
v -0.00721644 -0.09300007 -0.00776036
v -0.00424843 -0.09300009 -0.00763779
v -0.00536393 -0.09300005 -0.01254224
v -0.00360046 -0.09300019 0.00607263
v -0.00506480 -0.09300011 -0.00358911
v 0.00501413 -0.09300024 0.00350917
v -0.00833214 -0.09300018 0.00974048
v -0.00445092 -0.09300023 0.01257919
v -0.00514680 -0.09300019 0.00826861
v 0.00724126 -0.09300032 0.01266736
v 0.00815623 -0.09300031 0.01019725
v 0.00423528 -0.09300027 0.00914756
v -0.01576408 -0.09184627 0.00909745
v -0.01063679 -0.09300014 0.00785004
v -0.01304586 -0.09300013 0.00871236
v 0.00119679 -0.09300010 -0.01247473
v -0.00338445 -0.09300007 -0.01186689
v -0.00087568 -0.09300008 -0.01259247
v 0.00076033 -0.09299998 -0.03032965
v 0.01073013 -0.09299994 -0.04675289
v -0.00218856 -0.09299994 -0.03234638
v -0.00136877 -0.09300006 -0.01492569
v -0.00177648 -0.09300000 -0.02369425
v -0.00173781 -0.09300007 -0.01393387
v -0.00018162 -0.09300007 -0.01564030
v 0.00047205 -0.09300005 -0.01829538
v -0.00176126 -0.09300000 -0.02353470
v -0.00067918 -0.09300006 -0.01552584
v -0.00113784 -0.09300006 -0.01519768
v -0.00126068 -0.09300006 -0.01506795
v 0.01278372 -0.09300014 -0.02077289
v 0.01457616 -0.09300004 -0.03668314
v 0.01357401 -0.09300003 -0.03791432
v 0.00616402 -0.09800014 -0.01260127
v 0.00299787 -0.09800013 -0.01000064
v 0.00659815 -0.09800017 -0.00862636
v 0.00831608 -0.09800017 -0.00985884
v 0.00487324 -0.09840925 -0.00816768
v 0.00599841 -0.09350017 -0.00750121
v 0.00749761 -0.09350016 -0.01150151
v 0.00449751 -0.09350013 -0.01200091
v 0.00514097 -0.09350015 -0.00900104
v 0.00449719 -0.10250012 -0.01325097
v 0.00749734 -0.10250015 -0.01250157
v 0.00899744 -0.10250016 -0.01200187
v 0.00799804 -0.10250018 -0.00900167
v 0.00749834 -0.10250018 -0.00750157
v 0.00599834 -0.10250017 -0.00750127
v 0.00374819 -0.10250015 -0.00825082
v 0.00299744 -0.10250012 -0.01200067
v 0.00899766 -0.09350017 -0.01125181
v 0.00637221 -0.09350013 -0.01350128
v 0.01947059 -0.09349933 -0.14700390
v 0.01197956 -0.09349958 -0.10200240
v 0.01649063 -0.09349999 -0.04650330
v 0.01348973 -0.09349994 -0.05100270
v 0.01199093 -0.09349996 -0.04500240
v 0.01556024 -0.09350022 -0.01087812
v 0.00149711 -0.09350009 -0.01400031
v -0.00100275 -0.09350008 -0.01333315
v -0.00000339 -0.09350006 -0.01650001
v -0.00900271 -0.09350002 -0.01312322
v 0.00337315 -0.09350014 -0.00881319
v 0.01650125 -0.09350035 0.00674670
v 0.01499990 -0.09350029 -0.00000300
v 0.01350020 -0.09350029 0.00149730
v 0.01406139 -0.09350025 -0.00506532
v 0.00899946 -0.09350023 -0.00225181
v 0.00937528 -0.09350026 0.00187312
v 0.01349960 -0.09350027 -0.00150270
v 0.01124931 -0.09350024 -0.00300226
v -0.00749950 -0.09350014 0.00300148
v 0.01050170 -0.09350032 0.00899789
v 0.01497119 -0.09349932 -0.14400300
v 0.02547179 -0.09349942 -0.14100509
v 0.02097926 -0.09349964 -0.10350420
v 0.02247184 -0.09349940 -0.14075450
v 0.02097994 -0.09349966 -0.10012920
v 0.01947956 -0.09349964 -0.10200390
v 0.00897911 -0.09349954 -0.10425181
v 0.01047926 -0.09349956 -0.10350210
v 0.00898086 -0.09349960 -0.09550181
v 0.02098330 -0.09349978 -0.08325420
v 0.02098136 -0.09349971 -0.09300420
v 0.01798076 -0.09349967 -0.09600360
v 0.02098973 -0.09350000 -0.05100420
v 0.00898943 -0.09349989 -0.05250181
v 0.01499093 -0.09349999 -0.04500300
v 0.01199522 -0.09350011 -0.02350240
v 0.01382455 -0.09350012 -0.02412575
v 0.01049542 -0.09350011 -0.02250211
v 0.00074579 -0.09350004 -0.02062516
v -0.00600997 -0.09349979 -0.04949881
v -0.00544831 -0.09349997 -0.02466404
v -0.00113437 -0.09349985 -0.04649979
v -0.00000967 -0.09349985 -0.04800001
v -0.00300907 -0.09349985 -0.04499941
v -0.00600159 -0.09350008 -0.00749882
v -0.00900099 -0.09350007 -0.00449822
v 0.01199841 -0.09350022 -0.00750241
v 0.00637416 -0.09350020 -0.00375128
v 0.00899841 -0.09350020 -0.00750181
v 0.00748106 -0.09349959 -0.09450151
v -0.00300997 -0.09349982 -0.04949941
v -0.00601057 -0.09349977 -0.05249881
v 0.02606270 -0.09349940 -0.14419535
v 0.02248016 -0.09349968 -0.09900450
v 0.02398495 -0.09349986 -0.07500480
v 0.02312366 -0.09349971 -0.09579034
v 0.02567755 -0.09349971 -0.09888671
v 0.00575170 -0.09350028 0.00899884
v 0.00600140 -0.09350027 0.00749879
v -0.00849870 -0.09350016 0.00700168
v -0.00599860 -0.09350018 0.00750118
v -0.00449830 -0.09350020 0.00900088
v -0.00843808 -0.09350009 -0.00243583
v -0.00300204 -0.09350009 -0.00974941
v -0.00540189 -0.09350007 -0.00899894
v -0.00750249 -0.09350003 -0.01199852
v -0.00450249 -0.09350006 -0.01199911
v 0.02696849 -0.09349932 -0.15750539
v 0.02396850 -0.09349930 -0.15750480
v 0.02697059 -0.09349939 -0.14700539
v 0.01196879 -0.09349921 -0.15600240
v 0.00961201 -0.09349921 -0.15421622
v 0.00896999 -0.09349923 -0.15000180
v 0.01197149 -0.09349930 -0.14250240
v 0.01497089 -0.09349931 -0.14550300
v 0.01047896 -0.09349955 -0.10500210
v 0.00897328 -0.09349934 -0.13350180
v 0.00785015 -0.09349940 -0.12412658
v 0.00747966 -0.09349955 -0.10150151
v 0.00297956 -0.09349951 -0.10200061
v -0.00008384 -0.09349981 -0.05367849
v -0.00001146 -0.09349979 -0.05700001
v 0.00447996 -0.09349953 -0.10000091
v -0.00301505 -0.09349964 -0.07499941
v -0.00900877 -0.09349981 -0.04349822
v -0.00900817 -0.09349983 -0.04049822
v -0.01350398 -0.09349994 -0.01949732
v -0.01650219 -0.09349997 -0.01049672
v -0.01200159 -0.09350003 -0.00749762
v -0.01050099 -0.09350006 -0.00449792
v -0.01800039 -0.09350002 -0.00149642
v -0.01735694 -0.09350005 0.00150345
v -0.00974957 -0.09350012 0.00262693
v -0.01350092 -0.09350004 -0.00412232
v -0.01049830 -0.09350015 0.00900208
v -0.00749740 -0.09350021 0.01350148
v -0.00749681 -0.09350023 0.01650148
v -0.00588806 -0.09350023 0.01475571
v -0.00299740 -0.09350024 0.01350059
v 0.00412790 -0.09350031 0.01499916
v -0.00149691 -0.09350027 0.01595483
v -0.00206088 -0.09350022 0.00862540
v 0.00900319 -0.09350036 0.01649819
v 0.00750230 -0.09350032 0.01199849
v 0.00450230 -0.09350029 0.01199909
v 0.01500200 -0.09350036 0.01049700
v 0.01800020 -0.09350033 0.00149640
v 0.01799931 -0.09350030 -0.00300360
v 0.01799841 -0.09350027 -0.00750360
v 0.01799781 -0.09350025 -0.01050360
v 0.01949602 -0.09350020 -0.01950390
v 0.02099272 -0.09350010 -0.03600420
v 0.01907584 -0.09350000 -0.04810250
v 0.02099033 -0.09350002 -0.04800420
v 0.02249033 -0.09350003 -0.04800450
v 0.02248973 -0.09350001 -0.05100450
v 0.02398525 -0.09349987 -0.07350480
v 0.02697986 -0.09349971 -0.10050539
v 0.02735247 -0.09349963 -0.11250547
v 0.02997358 -0.09349952 -0.13200599
v 0.02847119 -0.09349942 -0.14400569
v 0.02948099 -0.09349941 -0.14716529
v 0.02922149 -0.09349944 -0.14250584
v 0.00689879 -0.09350019 -0.00557282
v 0.00575050 -0.09350024 0.00299884
v 0.00360088 -0.09350024 0.00487427
v 0.00150110 -0.09350023 0.00599969
v 0.00000110 -0.09350022 0.00599999
v -0.00149890 -0.09350020 0.00600029
v -0.00374915 -0.09350018 0.00475074
v -0.00599950 -0.09350015 0.00300118
v -0.00360120 -0.09350011 -0.00554929
v 0.01425170 -0.09350035 0.00899715
v 0.01131928 -0.09350031 0.00599773
v 0.01443826 -0.09350032 0.00430961
v 0.01350110 -0.09350032 0.00599730
v -0.01199830 -0.09350014 0.00900238
v -0.01537345 -0.09350011 0.00825305
v -0.01049860 -0.09350014 0.00750208
v -0.01349890 -0.09350011 0.00600268
v 0.01797956 -0.09349963 -0.10200360
v 0.01040304 -0.10249956 -0.10363097
v 0.01647949 -0.10249961 -0.10200336
v 0.02097919 -0.10249964 -0.10350426
v 0.01947949 -0.10249964 -0.10200396
v 0.00897904 -0.10249954 -0.10425187
v 0.01504903 -0.09349934 -0.14099870
v 0.02247181 -0.10249940 -0.14050456
v 0.02397201 -0.10249942 -0.13950486
v 0.01501994 -0.10249934 -0.14100071
v 0.01947142 -0.10249936 -0.14250396
v 0.01586566 -0.09349994 -0.05249670
v 0.01348966 -0.10249994 -0.05100276
v 0.00298936 -0.10249984 -0.05250067
v 0.00148906 -0.10249982 -0.05400037
v -0.00001153 -0.10249979 -0.05700007
v 0.01448936 -0.10249993 -0.05250296
v 0.01876710 -0.10249968 -0.09431686
v 0.01908403 -0.09349969 -0.09447780
v 0.01798069 -0.10249967 -0.09600366
v 0.01198069 -0.10249962 -0.09600246
v 0.01798099 -0.10249968 -0.09450366
v 0.02098144 -0.10249972 -0.09225426
v 0.00898069 -0.10249960 -0.09600187
v 0.00849814 -0.10249960 -0.09456615
v 0.01498069 -0.10249964 -0.09600306
v 0.01648069 -0.10249965 -0.09600336
v -0.00300495 -0.10249999 -0.02399947
v -0.00450515 -0.10249997 -0.02499918
v -0.00300899 -0.10249985 -0.04424947
v -0.00094451 -0.10249985 -0.04651450
v -0.00000974 -0.10249985 -0.04800007
v -0.00600525 -0.10249996 -0.02549888
v 0.01049535 -0.10250011 -0.02250217
v 0.01049056 -0.10249994 -0.04650217
v 0.01365344 -0.10250012 -0.02404218
v 0.01499086 -0.10249999 -0.04500306
v 0.01199086 -0.10249996 -0.04500247
v 0.01199525 -0.10250011 -0.02300247
v 0.01800050 -0.09350034 0.00299640
v 0.00209273 -0.09350031 0.01773171
v -0.01321016 -0.09350016 0.01256849
v -0.01799920 -0.09350006 0.00450358
v -0.01800069 -0.09350001 -0.00299642
v 0.00747478 -0.09349938 -0.12600151
v 0.01800013 -0.10250033 0.00149634
v 0.01800043 -0.10250034 0.00299634
v 0.01575148 -0.10250036 0.00824679
v 0.01500193 -0.10250036 0.01049694
v 0.01350223 -0.10250036 0.01199723
v 0.01200253 -0.10250036 0.01349753
v 0.01050282 -0.10250036 0.01499783
v 0.00742564 -0.10250035 0.01698983
v 0.00300342 -0.10250032 0.01799933
v 0.00075342 -0.10250030 0.01799978
v -0.00449658 -0.10250026 0.01800082
v -0.00599688 -0.10250024 0.01650112
v -0.01049718 -0.10250019 0.01500202
v -0.01349797 -0.10250014 0.01100262
v -0.01499837 -0.10250012 0.00900292
v -0.01743658 -0.10250007 0.00544090
v -0.01800076 -0.10250001 -0.00299648
v 0.00747471 -0.10249938 -0.12600157
v -0.01649927 -0.10250008 0.00450322
v 0.01575073 -0.10250033 0.00449679
v 0.01650043 -0.10250033 0.00299664
v 0.02997351 -0.10249952 -0.13200605
v 0.03174788 -0.09349946 -0.14304552
v -0.00788489 -0.10249978 -0.04874850
v -0.00301453 -0.10249966 -0.07199947
v -0.01500316 -0.10249996 -0.01499708
v 0.00298009 -0.10249953 -0.09900067
v -0.00076737 -0.10249958 -0.08624992
v 0.00822493 -0.10249939 -0.12487672
v 0.00297919 -0.10249950 -0.10350067
v 0.00897321 -0.10249934 -0.13350187
v 0.00897059 -0.10249925 -0.14662687
v 0.02099355 -0.10250013 -0.03150426
v 0.02548009 -0.10249971 -0.09900516
v 0.02248966 -0.10250001 -0.05100456
v 0.02398518 -0.10249987 -0.07350486
v 0.02249026 -0.10250003 -0.04800456
v 0.01949714 -0.10250024 -0.01350396
v 0.01799826 -0.10250026 -0.00787866
v 0.02996932 -0.10249938 -0.15300605
v 0.03174802 -0.10249946 -0.14196724
v 0.02884367 -0.09349934 -0.15660577
v 0.00896962 -0.10249922 -0.15150187
v 0.01170428 -0.10249922 -0.15467888
v 0.02396842 -0.10249930 -0.15750486
v 0.00896932 -0.10249921 -0.15300187
v 0.02906865 -0.10249935 -0.15638087
v 0.02922142 -0.10249944 -0.14250590
v 0.02696842 -0.10249932 -0.15750545
v 0.01196872 -0.10249921 -0.15600246
v -0.00825168 -0.09350006 -0.00792694
v -0.01200099 -0.09350005 -0.00449762
v -0.00900129 -0.09350006 -0.00599822
v -0.00900133 -0.10250006 -0.00583161
v -0.01200146 -0.10250004 -0.00649768
v -0.01350166 -0.10250002 -0.00749738
v -0.00750136 -0.10250008 -0.00599858
v -0.00750106 -0.10250009 -0.00449858
v -0.00825077 -0.10250009 -0.00299843
v 0.01199871 -0.09350023 -0.00600241
v 0.00999894 -0.10250022 -0.00450207
v 0.01199834 -0.10250022 -0.00750247
v 0.00899834 -0.10250020 -0.00750187
v 0.00899923 -0.10250023 -0.00300187
v 0.01124804 -0.10250020 -0.00900232
v 0.01199864 -0.10250023 -0.00600247
v 0.01199923 -0.10250025 -0.00300247
v 0.00050200 -0.09350025 0.01049989
v 0.00150253 -0.10250028 0.01349963
v 0.00206443 -0.10250026 0.01049952
v -0.00299725 -0.10250025 0.01462552
v -0.00074837 -0.10250023 0.00900008
v 0.00150163 -0.10250025 0.00899963
v 0.00300223 -0.10250028 0.01199933
v -0.00149747 -0.10250025 0.01350023
v 0.00598016 -0.09349955 -0.09900121
v 0.00747999 -0.10249956 -0.09950157
v 0.00447959 -0.10249952 -0.10150097
v 0.00897979 -0.10249957 -0.10050187
v 0.00673039 -0.10249957 -0.09750142
v -0.00301027 -0.09349981 -0.05099941
v -0.00301030 -0.10249981 -0.05083281
v -0.00601064 -0.10249977 -0.05249888
v -0.00601004 -0.10249979 -0.04949888
v -0.00001094 -0.10249981 -0.05400007
v 0.01107098 -0.09349928 -0.14505222
v 0.01347119 -0.09349931 -0.14400270
v 0.01309645 -0.09799931 -0.14250266
v 0.01347112 -0.10249931 -0.14400276
v 0.01497097 -0.10249931 -0.14475306
v 0.01047082 -0.10249927 -0.14550216
v 0.01097112 -0.10249929 -0.14400226
v 0.01047142 -0.10249929 -0.14250216
v 0.01272052 -0.10249928 -0.14700261
v 0.02697142 -0.10249942 -0.14250545
v 0.02797102 -0.10249942 -0.14450565
v 0.02697052 -0.10249939 -0.14700545
v 0.02248046 -0.09349969 -0.09750450
v 0.02478831 -0.10249972 -0.09635117
v 0.02248019 -0.10249969 -0.09850456
v 0.02098069 -0.10249969 -0.09600426
v 0.02098039 -0.10249968 -0.09750426
v 0.02098009 -0.10249967 -0.09900426
v 0.01949056 -0.10250001 -0.04650396
v 0.01929994 -0.10250000 -0.04891237
v 0.01649041 -0.10249999 -0.04725336
v 0.02099026 -0.10250002 -0.04800426
v 0.00750200 -0.09350031 0.01049849
v 0.00733487 -0.09800029 0.00837349
v 0.00450256 -0.09800030 0.01349906
v 0.00416828 -0.09800027 0.00874913
v 0.00557371 -0.09800030 0.01211423
v 0.00600133 -0.10250027 0.00749873
v 0.00825148 -0.10250030 0.00824828
v 0.00750163 -0.10250030 0.00899843
v 0.00900223 -0.10250033 0.01199813
v 0.00630248 -0.10250031 0.01328438
v 0.00450223 -0.10250029 0.01199903
v 0.00375148 -0.10250026 0.00824918
v 0.00450163 -0.10250027 0.00899903
v -0.00599830 -0.09350019 0.00900118
v -0.00749770 -0.09350020 0.01200148
v -0.00699777 -0.10250020 0.01200132
v -0.00599867 -0.10250018 0.00750112
v -0.00494824 -0.10250020 0.00968273
v -0.00749688 -0.10250023 0.01650142
v -0.00899792 -0.10250018 0.01125172
v -0.00899837 -0.10250017 0.00900172
v -0.01049897 -0.10250013 0.00600202
v -0.00449867 -0.10250019 0.00750082
v -0.00299852 -0.10250021 0.00825052
v -0.01050039 -0.09350008 -0.00149792
v -0.01350039 -0.09350006 -0.00149732
v -0.01049980 -0.09350010 0.00150208
v -0.01410023 -0.09800006 -0.00049723
v -0.01250073 -0.09800006 -0.00299755
v -0.00990003 -0.09800010 0.00050193
v -0.01149953 -0.09800010 0.00300225
v -0.01050067 -0.10250008 -0.00249798
v -0.00900047 -0.10250009 -0.00149828
v -0.00900017 -0.10250010 0.00000172
v -0.00899987 -0.10250011 0.00150172
v -0.01169961 -0.10250010 0.00278797
v -0.01449987 -0.10250007 0.00150282
v -0.01450047 -0.10250005 -0.00149718
v -0.01350076 -0.10250005 -0.00299738
v -0.00500256 -0.10250005 -0.01199908
v -0.00666863 -0.10250006 -0.00899874
v -0.00900241 -0.10250003 -0.01124828
v -0.00300226 -0.10250008 -0.01049947
v -0.00600166 -0.10250008 -0.00749888
v 0.01050020 -0.09350027 0.00149789
v 0.01349987 -0.10250028 0.00016390
v 0.01049953 -0.10250025 -0.00150217
v 0.01050013 -0.10250027 0.00149783
v 0.01349923 -0.10250026 -0.00300277
v 0.01499968 -0.10250029 -0.00075306
v 0.01500013 -0.10250030 0.00149694
v -0.00550069 -0.09350011 -0.00299892
v 0.00449931 -0.09350019 -0.00300091
v 0.00299901 -0.09350017 -0.00450061
v 0.00060101 -0.10250022 0.00588442
v 0.00487555 -0.10250024 0.00359895
v 0.00599923 -0.10250020 -0.00300127
v 0.00374899 -0.10250018 -0.00425082
v 0.00149864 -0.10250015 -0.00600037
v -0.00075136 -0.10250013 -0.00599992
v -0.00300126 -0.10250011 -0.00549948
v -0.00450106 -0.10250011 -0.00449918
v -0.00566743 -0.10250011 -0.00299894
v -0.00599957 -0.10250015 0.00300112
v -0.00412439 -0.10250017 0.00390075
v -0.00000256 -0.10250009 -0.01200007
v 0.00149724 -0.10250010 -0.01300037
v -0.00150286 -0.10250007 -0.01349977
v -0.00150256 -0.10250008 -0.01199977
v -0.00021744 -0.10250007 -0.01500003
v 0.01200163 -0.10250033 0.00899753
v 0.01266770 -0.10250032 0.00599740
v 0.01050133 -0.10250031 0.00749783
v 0.01200073 -0.10250030 0.00449753
v 0.01350073 -0.10250031 0.00449723
v 0.01500103 -0.10250033 0.00599694
v 0.01872052 -0.10249933 -0.14700381
v 0.02525670 -0.10249939 -0.14464797
v 0.02098488 -0.10249983 -0.07500426
v 0.01873966 -0.10249998 -0.05100381
v 0.00298966 -0.10249985 -0.05100067
v 0.00899026 -0.10249992 -0.04800187
v -0.01800032 -0.10250003 -0.00074648
v -0.01125361 -0.10249997 -0.01724783
v 0.01537244 -0.10250022 -0.01200314
v 0.01649714 -0.10250021 -0.01350336
v 0.01649879 -0.10250027 -0.00525336
v -0.01425189 -0.10250000 -0.00862223
v 0.01499879 -0.10250026 -0.00525306
v 0.00900032 -0.10250026 0.00243563
v 0.01197949 -0.10249958 -0.10200246
v 0.02397142 -0.10249940 -0.14250486
v 0.02097889 -0.10249963 -0.10500426
v -0.00450286 -0.10250005 -0.01349918
v -0.01199927 -0.10250011 0.00450232
v -0.01462404 -0.10250010 0.00562784
v -0.01285611 -0.10250011 0.00600249
v -0.01349837 -0.10250013 0.00900262
v -0.01049837 -0.10250015 0.00900202
v -0.01199890 -0.09350012 0.00600238
v -0.00087462 -0.08999075 -0.19532956
v -0.00451086 -0.09194389 -0.20220269
v 0.00254268 -0.09016318 -0.20288962
v 0.00458965 -0.09191192 -0.19737384
v 0.00033282 -0.09249889 -0.19061024
v 0.00445954 -0.09249887 -0.19832193
v 0.00060980 -0.09249879 -0.20475850
v 0.00510930 -0.09249884 -0.20308011
v -0.00873138 -0.09174872 -0.20485192
v -0.00629319 -0.09249884 -0.18926893
v 0.01245531 -0.09249889 -0.20431799
v -0.00066531 -0.09249873 -0.21273497
v 0.00177153 -0.09018924 -0.21417669
v -0.00675717 -0.09249869 -0.21090646
v -0.00955632 -0.09249874 -0.20129984
v -0.01245278 -0.09249872 -0.19956745
v 0.01237279 -0.10299891 -0.20043326
v 0.01389324 -0.10299895 -0.19649641
v 0.00810686 -0.09711896 -0.18930149
v -0.00535306 -0.10016103 -0.18702577
v 0.00586508 -0.09808405 -0.18900342
v 0.00380974 -0.09774889 -0.19356378
v 0.00947633 -0.10299890 -0.19870087
v 0.01192467 -0.10299890 -0.20191306
v 0.01271491 -0.10299889 -0.20453688
v 0.00591026 -0.09794325 -0.20959094
v 0.00279937 -0.10299880 -0.20694213
v -0.00652850 -0.10348707 -0.21117346
v -0.00339678 -0.09774885 -0.19100135
v -0.00037712 -0.10299889 -0.18887488
v -0.01274062 -0.08949877 -0.19298657
v -0.01534922 -0.08949871 -0.19783505
v -0.01416153 -0.09034054 -0.20245855
v 0.00473960 -0.08949876 -0.21465677
v 0.00719437 -0.08949880 -0.21162690
v -0.01025222 -0.09221577 -0.19261316
v 0.01231585 -0.08949888 -0.20564252
v 0.01504980 -0.09774890 -0.20618541
v 0.00814416 -0.10449880 -0.21188671
v -0.00722523 -0.10599868 -0.21274422
v -0.01353129 -0.10416822 -0.19777615
v -0.01512529 -0.10599872 -0.19709526
v -0.01162590 -0.10599878 -0.19307087
v -0.01124495 -0.10399879 -0.19088761
v -0.01388892 -0.10599866 -0.20744777
v 0.00445946 -0.10299887 -0.19832200
v 0.00060972 -0.10299879 -0.20475857
v -0.00601934 -0.10299876 -0.20123066
v -0.00068980 -0.10299885 -0.19524221
v 0.00958459 -0.09774893 -0.19559763
v -0.00307941 -0.10401005 -0.19688528
v 0.00377254 -0.10494130 -0.20201807
v -0.00370026 -0.10539937 -0.20227086
v 0.00338267 -0.10459704 -0.19690783
v -0.00004006 -0.10599882 -0.20000041
v -0.01894179 -0.09504877 -0.18533388
v -0.02115435 -0.09099875 -0.18562387
v 0.02261436 -0.09099892 -0.21180212
v 0.02197058 -0.10599892 -0.21141725
v 0.02145495 -0.08979892 -0.21051072
v -0.02511747 -0.09012056 -0.20164177
v -0.02343991 -0.10599859 -0.20697875
v -0.02150272 -0.09099857 -0.21250679
v -0.01576068 -0.09009159 -0.21865112
v -0.02015230 -0.10449856 -0.21514244
v 0.00076661 -0.09099866 -0.22495225
v 0.01086760 -0.10549875 -0.22316063
v 0.01626819 -0.09099882 -0.21869472
v 0.01966073 -0.10599887 -0.21527919
v 0.02107446 -0.09099889 -0.21437675
v 0.01863210 -0.10599886 -0.21553787
v 0.01194905 -0.10599878 -0.21940592
v 0.00771002 -0.10599873 -0.22236655
v 0.00107211 -0.10599866 -0.22430380
v -0.02057395 -0.10599875 -0.18684509
v -0.02501224 -0.10590286 -0.20295528
v -0.00257809 -0.10599863 -0.22469977
v -0.01879581 -0.10599856 -0.21674770
v -0.01104035 -0.10599859 -0.22094932
v -0.02286275 -0.10599870 -0.19042832
v -0.00589018 -0.10558951 -0.22512731
v -0.02134660 -0.10599859 -0.20977297
v 0.02132705 -0.08949891 -0.21103216
v -0.00613709 -0.08971289 -0.22431875
v -0.02123415 -0.08959232 -0.21200336
v 0.01431020 -0.08949881 -0.21765001
v 0.01920664 -0.08949889 -0.21238567
v -0.00438111 -0.08949863 -0.22296575
v -0.01074996 -0.08949859 -0.22155977
v -0.02358437 -0.08949866 -0.19553130
v -0.02025199 -0.08949875 -0.18703747
v 0.00545354 -0.08967084 -0.22223293
v -0.00010050 -0.08979866 -0.22404995
v -0.00374508 -0.08949867 -0.21788421
v -0.00284274 -0.08949867 -0.21929782
v 0.00056498 -0.08949870 -0.21871426
v 0.00750367 -0.08949879 -0.21368824
v 0.00873089 -0.08949877 -0.21748094
v 0.01061527 -0.08984491 -0.22156596
v 0.01109613 -0.08949880 -0.21644864
v -0.00539037 -0.08949868 -0.21405994
v -0.00747463 -0.08949864 -0.21827529
v -0.01094557 -0.09774860 -0.21969505
v -0.00269273 -0.08949869 -0.21593357
v -0.01681682 -0.08949865 -0.20613335
v -0.02171031 -0.08949859 -0.20823439
v -0.01730116 -0.08949866 -0.20308982
v -0.01830272 -0.08949867 -0.20131202
v -0.02398813 -0.08969863 -0.20079032
v -0.01122226 -0.08949861 -0.21723545
v -0.01133658 -0.08949862 -0.21596544
v -0.01223892 -0.08949862 -0.21455184
v -0.01098473 -0.08949866 -0.21082649
v -0.01643924 -0.08949863 -0.20834743
v -0.01347224 -0.08949867 -0.20638593
v -0.01605665 -0.08949862 -0.21153624
v -0.01582073 -0.08949860 -0.21475594
v 0.01132337 -0.08949885 -0.20876304
v 0.01052337 -0.08949882 -0.21156173
v 0.01477022 -0.09774885 -0.21322797
v 0.01695994 -0.08949885 -0.21541147
v 0.01766675 -0.08949886 -0.21496030
v 0.01849984 -0.08949888 -0.21283684
v 0.01679110 -0.08949889 -0.20925040
v -0.02320245 -0.08949869 -0.19270104
v -0.01810491 -0.08949868 -0.19968250
v -0.02010740 -0.08949867 -0.19848481
v -0.01933745 -0.08949869 -0.19719749
v -0.01162577 -0.08949878 -0.19307076
v -0.01683817 -0.08949875 -0.19082711
v -0.01857971 -0.08949876 -0.18716376
v -0.01438248 -0.08949874 -0.19483272
v -0.01702761 -0.08949873 -0.19333555
v -0.02099691 -0.08949870 -0.19294973
v -0.00747476 -0.10599864 -0.21827540
v 0.00422889 -0.10599874 -0.21745874
v -0.00528206 -0.10599863 -0.22264556
v -0.00284287 -0.10599867 -0.21929793
v 0.01148262 -0.10599886 -0.20776609
v 0.00150519 -0.10599871 -0.21743697
v -0.01857984 -0.10599876 -0.18716387
v -0.01767445 -0.10599874 -0.19076408
v -0.01830285 -0.10599867 -0.20131213
v -0.01647336 -0.10599859 -0.21485354
v 0.01695981 -0.10599885 -0.21541158
v 0.01708610 -0.10599886 -0.21373929
v -0.00837710 -0.10599864 -0.21686179
v -0.00078561 -0.10599869 -0.21878056
v 0.00175522 -0.10507644 -0.21460927
v 0.01052324 -0.10599882 -0.21156184
v 0.00499511 -0.10599877 -0.21349891
v 0.01416570 -0.10599881 -0.21789149
v 0.01122483 -0.10599880 -0.21620227
v 0.00873076 -0.10599877 -0.21748105
v -0.00592380 -0.10599864 -0.21932146
v -0.00488111 -0.10599868 -0.21453839
v -0.00336024 -0.10599868 -0.21724067
v -0.01711670 -0.10599862 -0.20919162
v -0.01842304 -0.10599862 -0.20735763
v -0.01851159 -0.10599865 -0.20403062
v -0.00927944 -0.10599864 -0.21544819
v -0.01111597 -0.10599863 -0.21516754
v -0.01031418 -0.10599866 -0.21133366
v -0.01379612 -0.10599859 -0.21799022
v -0.01262402 -0.10599862 -0.21519561
v -0.01214740 -0.10599865 -0.21058786
v 0.02157922 -0.10599892 -0.20997859
v 0.01623819 -0.10599889 -0.20925785
v 0.01862600 -0.10599889 -0.21116466
v 0.01849971 -0.10599888 -0.21283695
v 0.01592515 -0.09774887 -0.21129700
v -0.01676744 -0.10599869 -0.20013308
v -0.02010753 -0.10599867 -0.19848492
v -0.01933758 -0.10599869 -0.19719760
v -0.02332887 -0.10599867 -0.19437344
v -0.01978678 -0.10599871 -0.19323382
v -0.01767139 -0.10599873 -0.19295068
v 0.00796081 -0.10599876 -0.21876836
v -0.01091711 -0.10599862 -0.21709043
v -0.01439752 -0.09774878 -0.18857284
f 7 6 25
f 7 25 30
f 23 25 6
f 24 23 6
f 91 71 8
f 28 10 8
f 8 71 12
f 32 27 13
f 24 15 76
f 26 17 4
f 4 13 26
f 17 18 4
f 12 19 20
f 76 21 22
f 22 24 76
f 30 25 78
f 30 78 27
f 13 27 26
f 76 14 28
f 28 21 76
f 32 31 27
f 2 29 32
f 31 30 27
f 12 11 33
f 33 18 12
f 4 18 34
f 13 4 85
f 4 35 85
f 32 36 37
f 30 2 38
f 42 39 41
f 42 40 39
f 42 15 6
f 15 42 43
f 28 44 45
f 45 44 10
f 95 46 10
f 95 47 1
f 95 1 46
f 1 92 91
f 47 92 1
f 48 49 71
f 11 71 49
f 34 50 51
f 5 51 52
f 4 5 52
f 4 52 54
f 72 4 54
f 54 53 72
f 53 55 13
f 55 36 32
f 53 13 72
f 51 5 34
f 49 50 11
f 91 48 71
f 43 14 16
f 43 16 15
f 38 39 6
f 38 6 30
f 37 38 2
f 37 2 32
f 28 8 21
f 20 8 12
f 10 46 8
f 8 46 1
f 8 1 91
f 6 15 24
f 56 57 58
f 80 75 103
f 65 77 66
f 77 103 66
f 58 57 96
f 68 69 59
f 71 70 83
f 73 79 67
f 76 75 80
f 76 80 58
f 78 77 65
f 65 79 78
f 22 60 58
f 58 80 22
f 59 60 81
f 68 59 81
f 81 70 68
f 62 64 26
f 31 67 79
f 79 65 31
f 70 82 83
f 84 83 82
f 64 63 84
f 63 83 84
f 85 62 73
f 73 72 86
f 86 85 73
f 85 72 62
f 72 110 54
f 54 87 62
f 87 88 62
f 63 62 88
f 88 89 63
f 83 63 89
f 71 90 69
f 59 69 91
f 56 92 94
f 56 59 91
f 91 92 56
f 93 57 95
f 57 1 95
f 95 56 94
f 95 1 56
f 96 57 93
f 93 98 97
f 93 97 96
f 96 97 99
f 74 58 101
f 75 74 101
f 75 101 104
f 102 103 104
f 101 102 104
f 103 75 104
f 103 102 105
f 103 105 106
f 106 107 103
f 65 103 107
f 107 29 65
f 67 108 36
f 67 29 108
f 72 73 110
f 109 73 67
f 73 109 110
f 36 109 67
f 107 108 29
f 100 101 58
f 100 58 99
f 90 71 83
f 54 62 72
f 84 82 64
f 26 73 62
f 103 77 61
f 103 61 80
f 60 59 58
f 58 59 56
f 85 86 13
f 72 13 86
f 85 35 72
f 103 104 42
f 104 103 40
f 40 42 104
f 6 40 103
f 42 6 103
f 84 83 34
f 83 84 34
f 18 33 83
f 34 18 83
f 50 34 83
f 11 50 83
f 33 11 83
f 67 31 32
f 29 67 32
f 31 65 30
f 29 30 65
f 58 96 28
f 99 58 14
f 96 99 9
f 9 44 96
f 14 9 99
f 28 14 58
f 44 28 96
f 70 81 20
f 82 70 12
f 64 82 18
f 26 64 17
f 79 73 26
f 78 79 27
f 61 77 25
f 80 61 23
f 22 80 24
f 81 60 21
f 21 8 81
f 22 21 60
f 23 24 80
f 25 23 61
f 78 25 77
f 26 27 79
f 18 17 64
f 12 18 82
f 19 12 70
f 20 19 70
f 8 20 81
f 76 58 14
f 74 75 15
f 58 74 16
f 16 14 58
f 15 16 74
f 76 15 75
f 65 66 7
f 103 65 30
f 66 103 6
f 6 7 66
f 30 6 103
f 7 30 65
f 73 67 32
f 67 73 55
f 55 32 67
f 13 55 73
f 32 13 73
f 62 63 34
f 64 62 4
f 63 64 4
f 4 34 63
f 3 4 62
f 5 3 62
f 34 5 62
f 70 71 11
f 68 70 12
f 69 68 12
f 12 71 69
f 11 12 70
f 96 97 45
f 97 96 28
f 28 45 97
f 10 28 96
f 45 10 96
f 10 44 97
f 97 98 10
f 44 9 99
f 99 97 44
f 100 99 9
f 101 100 43
f 101 43 42
f 101 42 41
f 101 41 39
f 105 102 39
f 108 107 37
f 110 55 53
f 54 110 53
f 88 87 52
f 52 51 88
f 51 50 89
f 90 83 50
f 49 48 69
f 69 90 49
f 95 94 47
f 95 10 93
f 10 98 93
f 47 94 92
f 48 91 69
f 50 49 90
f 50 83 89
f 51 89 88
f 52 87 54
f 55 110 109
f 36 55 109
f 37 36 108
f 38 37 107
f 38 107 106
f 38 106 105
f 39 38 105
f 39 102 101
f 14 43 100
f 9 14 100
f 113 114 116
f 115 116 114
f 112 114 113
f 111 112 113
f 116 111 113
f 285 121 119
f 117 119 118
f 118 119 121
f 274 129 130
f 148 274 131
f 217 134 135
f 136 133 137
f 140 138 133
f 139 136 138
f 140 139 138
f 133 139 140
f 216 201 141
f 148 149 274
f 131 152 174
f 124 153 123
f 124 154 121
f 154 118 121
f 123 122 155
f 118 155 156
f 117 118 159
f 118 120 158
f 158 159 118
f 124 121 160
f 165 160 121
f 288 159 158
f 158 120 161
f 288 117 159
f 117 162 163
f 117 163 285
f 164 165 121
f 160 166 125
f 125 153 124
f 125 315 153
f 123 153 315
f 313 123 167
f 313 168 123
f 170 169 122
f 168 170 123
f 170 313 167
f 167 312 170
f 122 123 170
f 312 169 170
f 171 127 331
f 172 171 129
f 172 129 127
f 144 127 129
f 141 203 177
f 177 176 216
f 141 177 216
f 143 211 180
f 180 179 142
f 211 179 180
f 142 143 180
f 182 194 132
f 184 185 122
f 157 184 120
f 320 152 131
f 320 186 152
f 130 320 131
f 151 174 187
f 175 188 189
f 190 126 146
f 191 190 146
f 193 191 146
f 190 193 126
f 192 331 193
f 193 331 126
f 197 194 183
f 183 146 197
f 196 195 128
f 195 197 146
f 132 145 200
f 200 182 132
f 218 198 199
f 199 148 218
f 199 200 145
f 199 145 148
f 201 203 141
f 204 202 203
f 201 204 203
f 245 137 206
f 205 207 137
f 207 206 137
f 208 225 245
f 201 245 217
f 202 209 175
f 209 135 175
f 142 213 136
f 136 143 142
f 201 216 210
f 216 143 210
f 201 210 245
f 212 211 143
f 178 143 216
f 178 212 143
f 350 178 214
f 178 216 215
f 215 214 178
f 214 216 176
f 213 111 116
f 116 115 213
f 136 213 114
f 138 136 114
f 114 112 138
f 234 245 225
f 234 217 245
f 218 222 198
f 175 135 219
f 223 181 198
f 222 223 198
f 208 133 224
f 133 181 224
f 220 226 227
f 227 228 220
f 229 230 231
f 226 232 227
f 220 134 217
f 231 233 229
f 230 234 235
f 225 235 234
f 238 237 236
f 237 229 236
f 227 232 238
f 217 226 220
f 235 231 230
f 236 227 238
f 233 236 229
f 224 225 208
f 221 151 188
f 221 188 175
f 219 221 175
f 219 135 134
f 112 111 138
f 115 114 213
f 213 179 111
f 212 178 211
f 245 136 137
f 135 201 217
f 206 208 245
f 200 198 182
f 194 196 128
f 185 155 122
f 184 122 331
f 183 193 146
f 182 183 194
f 182 198 181
f 138 181 133
f 175 203 202
f 173 130 129
f 144 146 127
f 169 171 331
f 315 167 123
f 158 161 288
f 160 125 124
f 157 120 156
f 118 156 120
f 150 151 218
f 148 150 218
f 147 128 195
f 147 195 146
f 146 126 127
f 145 149 148
f 128 145 132
f 139 133 136
f 205 137 133
f 208 205 133
f 128 132 194
f 130 131 274
f 129 274 144
f 331 127 126
f 122 169 331
f 119 117 285
f 243 242 244
f 244 241 243
f 243 295 242
f 295 243 241
f 244 336 368
f 241 244 368
f 249 265 250
f 251 250 266
f 252 273 320
f 266 252 253
f 330 254 310
f 255 256 258
f 256 312 258
f 260 263 262
f 145 250 265
f 265 274 145
f 266 274 252
f 175 305 268
f 268 247 175
f 330 270 271
f 252 265 272
f 274 265 252
f 258 276 123
f 260 261 290
f 290 277 260
f 278 123 279
f 277 278 279
f 279 260 277
f 288 260 286
f 260 288 280
f 281 261 260
f 280 281 260
f 275 259 283
f 166 283 259
f 264 282 166
f 262 287 286
f 261 184 290
f 278 289 184
f 289 290 184
f 278 184 258
f 270 291 293
f 249 251 292
f 251 293 292
f 239 179 298
f 298 299 239
f 298 179 211
f 303 301 341
f 301 302 203
f 247 304 175
f 319 305 306
f 305 248 306
f 306 152 319
f 253 252 322
f 307 254 308
f 253 307 308
f 308 266 253
f 311 310 254
f 254 307 172
f 309 310 307
f 255 310 309
f 258 312 314
f 276 313 315
f 314 312 315
f 314 276 258
f 275 315 317
f 317 318 275
f 315 316 317
f 318 316 275
f 175 328 323
f 305 175 324
f 323 324 175
f 248 305 324
f 325 326 327
f 327 306 325
f 248 325 306
f 189 327 328
f 329 331 192
f 251 266 332
f 332 293 251
f 270 332 266
f 332 270 293
f 249 292 334
f 357 265 333
f 265 334 333
f 301 203 304
f 304 246 335
f 225 336 337
f 354 340 247
f 246 247 340
f 339 342 338
f 342 341 338
f 341 242 239
f 341 343 242
f 242 343 337
f 344 345 300
f 345 299 211
f 239 299 346
f 341 239 346
f 349 179 239
f 349 347 179
f 349 239 242
f 351 240 344
f 352 344 350
f 352 351 344
f 240 302 341
f 295 111 113
f 114 113 348
f 114 348 242
f 113 111 348
f 114 242 295
f 113 114 295
f 225 337 353
f 354 269 361
f 337 354 353
f 355 353 354
f 228 357 356
f 359 358 360
f 358 356 360
f 361 269 358
f 358 359 361
f 360 366 367
f 366 360 364
f 365 364 363
f 360 367 359
f 363 362 365
f 353 363 225
f 364 365 366
f 369 292 294
f 294 295 369
f 370 357 333
f 370 356 357
f 369 370 333
f 369 333 292
f 368 369 295
f 302 352 350
f 348 349 242
f 346 344 341
f 345 346 299
f 345 211 300
f 245 339 354
f 336 225 368
f 304 338 301
f 335 246 338
f 334 265 249
f 333 334 292
f 330 255 329
f 326 328 327
f 315 275 276
f 315 313 314
f 309 312 256
f 309 256 255
f 172 311 254
f 322 307 253
f 152 321 319
f 302 303 341
f 300 350 344
f 297 298 211
f 111 347 348
f 296 111 295
f 295 241 368
f 291 270 330
f 331 329 255
f 285 262 264
f 166 284 264
f 282 264 283
f 281 288 261
f 278 258 123
f 260 283 263
f 273 305 319
f 272 273 252
f 271 254 330
f 267 305 357
f 145 266 250
f 264 263 283
f 264 262 263
f 262 286 260
f 259 275 316
f 258 184 257
f 258 257 255
f 310 255 330
f 319 320 273
f 250 251 249
f 304 247 246
f 247 269 354
f 354 337 245
f 337 336 244
f 301 338 341
f 337 244 242
f 240 341 344
f 125 166 316
f 259 316 166
f 166 164 121
f 284 121 285
f 285 163 262
f 286 287 117
f 162 117 287
f 287 262 162
f 161 120 261
f 261 288 161
f 117 288 286
f 163 162 262
f 285 264 284
f 121 284 166
f 125 316 315
f 312 167 315
f 129 307 322
f 322 173 129
f 173 322 186
f 309 307 171
f 169 312 309
f 309 171 169
f 129 171 307
f 306 174 152
f 327 187 174
f 174 306 327
f 187 327 189
f 328 175 189
f 203 175 304
f 321 152 186
f 296 295 138
f 111 296 138
f 179 347 111
f 299 297 211
f 211 178 300
f 300 178 350
f 302 350 176
f 302 176 177
f 203 302 177
f 214 176 350
f 295 181 138
f 295 294 181
f 182 181 294
f 294 292 182
f 183 182 292
f 292 293 183
f 183 293 291
f 291 193 183
f 193 291 329
f 192 193 329
f 255 257 331
f 257 184 331
f 120 184 261
f 272 265 148
f 272 131 174
f 174 273 272
f 148 131 272
f 174 151 305
f 174 305 273
f 357 305 151
f 151 150 357
f 357 150 148
f 265 357 148
f 128 147 270
f 144 128 266
f 270 266 128
f 270 147 146
f 146 271 270
f 146 254 271
f 308 254 146
f 146 144 308
f 266 308 144
f 151 305 267
f 151 221 305
f 221 219 247
f 221 247 268
f 221 268 305
f 358 269 134
f 358 220 228
f 228 356 358
f 247 219 134
f 134 269 247
f 134 220 358
f 228 222 357
f 218 151 267
f 222 218 357
f 267 357 218
f 222 228 356
f 231 235 363
f 233 231 363
f 236 233 363
f 227 236 364
f 228 227 360
f 360 356 228
f 364 360 227
f 363 364 236
f 225 363 235
f 224 368 225
f 368 224 181
f 181 369 368
f 223 222 370
f 181 223 370
f 370 369 181
f 356 370 222
f 145 128 266
f 128 144 266
f 144 274 266
f 145 274 149
f 351 352 214
f 240 351 216
f 215 216 351
f 302 240 216
f 352 302 214
f 216 214 302
f 214 215 351
f 348 347 213
f 349 348 213
f 347 349 179
f 142 179 349
f 213 142 349
f 179 213 347
f 346 345 212
f 344 346 178
f 345 344 178
f 178 212 345
f 212 178 346
f 301 303 141
f 302 301 177
f 303 302 177
f 141 177 301
f 177 141 303
f 343 341 136
f 337 343 136
f 342 339 245
f 341 342 210
f 210 143 341
f 143 136 341
f 245 210 342
f 136 245 337
f 354 339 201
f 340 354 135
f 246 340 209
f 338 246 202
f 339 338 201
f 202 201 338
f 209 202 246
f 135 209 340
f 201 135 354
f 336 337 205
f 337 336 208
f 208 206 337
f 205 208 336
f 207 205 337
f 206 207 337
f 243 295 140
f 295 243 139
f 140 139 243
f 139 140 295
f 338 304 201
f 335 338 202
f 304 335 202
f 204 201 304
f 202 204 304
f 201 202 338
f 244 241 137
f 241 244 137
f 299 298 180
f 297 299 180
f 298 297 180
f 334 333 198
f 333 334 199
f 199 198 333
f 200 199 334
f 198 200 334
f 270 332 197
f 332 270 195
f 196 194 332
f 195 196 332
f 197 195 270
f 194 197 332
f 329 291 193
f 330 329 193
f 193 190 330
f 291 330 190
f 190 191 291
f 191 193 291
f 310 311 127
f 307 310 127
f 172 307 171
f 127 171 307
f 172 127 311
f 248 324 151
f 325 248 151
f 326 325 151
f 151 187 328
f 328 326 151
f 323 328 189
f 189 188 323
f 324 323 188
f 187 189 328
f 188 151 324
f 252 320 130
f 322 252 130
f 186 322 173
f 319 321 186
f 186 320 319
f 130 173 322
f 317 316 153
f 318 317 153
f 316 318 153
f 125 153 316
f 153 125 316
f 282 283 160
f 166 282 165
f 166 160 283
f 165 164 166
f 160 165 282
f 263 264 118
f 264 263 118
f 119 118 264
f 118 119 264
f 288 281 158
f 280 288 159
f 281 280 159
f 158 159 288
f 159 158 281
f 289 278 184
f 290 289 184
f 277 290 156
f 278 277 155
f 155 185 278
f 156 155 277
f 157 156 290
f 184 157 290
f 185 184 278
f 276 314 170
f 313 170 314
f 168 313 276
f 170 168 276
f 276 275 123
f 260 279 118
f 283 260 118
f 275 283 124
f 124 123 275
f 154 124 283
f 118 154 283
f 155 118 279
f 123 155 279
f 363 353 234
f 362 363 234
f 365 362 230
f 366 365 238
f 367 366 232
f 359 367 232
f 361 359 226
f 354 361 217
f 355 354 217
f 353 355 217
f 226 217 361
f 232 226 359
f 238 232 366
f 237 238 365
f 229 237 365
f 230 229 365
f 234 230 362
f 217 234 353
f 372 373 371
f 373 374 371
f 374 375 371
f 375 376 371
f 376 377 371
f 377 378 371
f 378 379 371
f 379 372 371
f 380 376 375
f 381 375 374
f 382 374 373
f 383 373 372
f 384 372 379
f 385 379 378
f 386 378 377
f 387 377 376
f 376 380 387
f 377 387 386
f 378 386 385
f 379 385 384
f 372 384 383
f 373 383 382
f 374 382 381
f 375 381 380
f 384 385 388
f 385 386 388
f 386 387 388
f 387 380 388
f 380 381 388
f 381 382 388
f 382 383 388
f 383 384 388
f 390 391 389
f 391 392 389
f 392 393 389
f 393 394 389
f 394 395 389
f 395 396 389
f 396 397 389
f 397 390 389
f 398 394 393
f 399 393 392
f 400 392 391
f 401 391 390
f 402 390 397
f 403 397 396
f 404 396 395
f 405 395 394
f 394 398 405
f 395 405 404
f 396 404 403
f 397 403 402
f 390 402 401
f 391 401 400
f 392 400 399
f 393 399 398
f 402 403 406
f 403 404 406
f 404 405 406
f 405 398 406
f 398 399 406
f 399 400 406
f 400 401 406
f 401 402 406
f 408 409 407
f 409 410 407
f 410 411 407
f 411 412 407
f 412 413 407
f 413 414 407
f 414 415 407
f 415 408 407
f 416 412 411
f 417 411 410
f 418 410 409
f 419 409 408
f 420 408 415
f 421 415 414
f 422 414 413
f 423 413 412
f 412 416 423
f 413 423 422
f 414 422 421
f 415 421 420
f 408 420 419
f 409 419 418
f 410 418 417
f 411 417 416
f 420 421 424
f 421 422 424
f 422 423 424
f 423 416 424
f 416 417 424
f 417 418 424
f 418 419 424
f 419 420 424
f 427 428 430
f 429 430 428
f 426 428 427
f 425 426 427
f 430 425 427
f 599 435 433
f 431 433 432
f 432 433 435
f 588 443 444
f 462 588 445
f 531 448 449
f 450 447 451
f 454 452 447
f 453 450 452
f 454 453 452
f 447 453 454
f 530 515 455
f 462 463 588
f 445 466 488
f 438 467 437
f 438 468 435
f 468 432 435
f 437 436 469
f 432 469 470
f 431 432 473
f 432 434 472
f 472 473 432
f 438 435 474
f 479 474 435
f 602 473 472
f 472 434 475
f 602 431 473
f 431 476 477
f 431 477 599
f 478 479 435
f 474 480 439
f 439 467 438
f 439 629 467
f 437 467 629
f 627 437 481
f 627 482 437
f 484 483 436
f 482 484 437
f 484 627 481
f 481 626 484
f 436 437 484
f 626 483 484
f 485 441 645
f 486 485 443
f 486 443 441
f 458 441 443
f 455 517 491
f 491 490 530
f 455 491 530
f 457 525 494
f 494 493 456
f 525 493 494
f 456 457 494
f 496 508 446
f 498 499 436
f 471 498 434
f 634 466 445
f 634 500 466
f 444 634 445
f 465 488 501
f 489 502 503
f 504 440 460
f 505 504 460
f 507 505 460
f 504 507 440
f 506 645 507
f 507 645 440
f 511 508 497
f 497 460 511
f 510 509 442
f 509 511 460
f 446 459 514
f 514 496 446
f 532 512 513
f 513 462 532
f 513 514 459
f 513 459 462
f 515 517 455
f 518 516 517
f 515 518 517
f 559 451 520
f 519 521 451
f 521 520 451
f 522 539 559
f 515 559 531
f 516 523 489
f 523 449 489
f 456 527 450
f 450 457 456
f 515 530 524
f 530 457 524
f 515 524 559
f 526 525 457
f 492 457 530
f 492 526 457
f 664 492 528
f 492 530 529
f 529 528 492
f 528 530 490
f 527 425 430
f 430 429 527
f 450 527 428
f 452 450 428
f 428 426 452
f 548 559 539
f 548 531 559
f 532 536 512
f 489 449 533
f 537 495 512
f 536 537 512
f 522 447 538
f 447 495 538
f 534 540 541
f 541 542 534
f 543 544 545
f 540 546 541
f 534 448 531
f 545 547 543
f 544 548 549
f 539 549 548
f 552 551 550
f 551 543 550
f 541 546 552
f 531 540 534
f 549 545 544
f 550 541 552
f 547 550 543
f 538 539 522
f 535 465 502
f 535 502 489
f 533 535 489
f 533 449 448
f 426 425 452
f 429 428 527
f 527 493 425
f 526 492 525
f 559 450 451
f 449 515 531
f 520 522 559
f 514 512 496
f 508 510 442
f 499 469 436
f 498 436 645
f 497 507 460
f 496 497 508
f 496 512 495
f 452 495 447
f 489 517 516
f 487 444 443
f 458 460 441
f 483 485 645
f 629 481 437
f 472 475 602
f 474 439 438
f 471 434 470
f 432 470 434
f 464 465 532
f 462 464 532
f 461 442 509
f 461 509 460
f 460 440 441
f 459 463 462
f 442 459 446
f 453 447 450
f 519 451 447
f 522 519 447
f 442 446 508
f 444 445 588
f 443 588 458
f 645 441 440
f 436 483 645
f 433 431 599
f 557 556 558
f 558 555 557
f 557 609 556
f 609 557 555
f 558 650 682
f 555 558 682
f 563 579 564
f 565 564 580
f 566 587 634
f 580 566 567
f 644 568 624
f 569 570 572
f 570 626 572
f 574 577 576
f 459 564 579
f 579 588 459
f 580 588 566
f 489 619 582
f 582 561 489
f 644 584 585
f 566 579 586
f 588 579 566
f 572 590 437
f 574 575 604
f 604 591 574
f 592 437 593
f 591 592 593
f 593 574 591
f 602 574 600
f 574 602 594
f 595 575 574
f 594 595 574
f 589 573 597
f 480 597 573
f 578 596 480
f 576 601 600
f 575 498 604
f 592 603 498
f 603 604 498
f 592 498 572
f 584 605 607
f 563 565 606
f 565 607 606
f 553 493 612
f 612 613 553
f 612 493 525
f 617 615 655
f 615 616 517
f 561 618 489
f 633 619 620
f 619 562 620
f 620 466 633
f 567 566 636
f 621 568 622
f 567 621 622
f 622 580 567
f 625 624 568
f 568 621 486
f 623 624 621
f 569 624 623
f 572 626 628
f 590 627 629
f 628 626 629
f 628 590 572
f 589 629 631
f 631 632 589
f 629 630 631
f 632 630 589
f 489 642 637
f 619 489 638
f 637 638 489
f 562 619 638
f 639 640 641
f 641 620 639
f 562 639 620
f 503 641 642
f 643 645 506
f 565 580 646
f 646 607 565
f 584 646 580
f 646 584 607
f 563 606 648
f 671 579 647
f 579 648 647
f 615 517 618
f 618 560 649
f 539 650 651
f 668 654 561
f 560 561 654
f 653 656 652
f 656 655 652
f 655 556 553
f 655 657 556
f 556 657 651
f 658 659 614
f 659 613 525
f 553 613 660
f 655 553 660
f 663 493 553
f 663 661 493
f 663 553 556
f 665 554 658
f 666 658 664
f 666 665 658
f 554 616 655
f 609 425 427
f 428 427 662
f 428 662 556
f 427 425 662
f 428 556 609
f 427 428 609
f 539 651 667
f 668 583 675
f 651 668 667
f 669 667 668
f 542 671 670
f 673 672 674
f 672 670 674
f 675 583 672
f 672 673 675
f 674 680 681
f 680 674 678
f 679 678 677
f 674 681 673
f 677 676 679
f 667 677 539
f 678 679 680
f 683 606 608
f 608 609 683
f 684 671 647
f 684 670 671
f 683 684 647
f 683 647 606
f 682 683 609
f 616 666 664
f 662 663 556
f 660 658 655
f 659 660 613
f 659 525 614
f 559 653 668
f 650 539 682
f 618 652 615
f 649 560 652
f 648 579 563
f 647 648 606
f 644 569 643
f 640 642 641
f 629 589 590
f 629 627 628
f 623 626 570
f 623 570 569
f 486 625 568
f 636 621 567
f 466 635 633
f 616 617 655
f 614 664 658
f 611 612 525
f 425 661 662
f 610 425 609
f 609 555 682
f 605 584 644
f 645 643 569
f 599 576 578
f 480 598 578
f 596 578 597
f 595 602 575
f 592 572 437
f 574 597 577
f 587 619 633
f 586 587 566
f 585 568 644
f 581 619 671
f 459 580 564
f 578 577 597
f 578 576 577
f 576 600 574
f 573 589 630
f 572 498 571
f 572 571 569
f 624 569 644
f 633 634 587
f 564 565 563
f 618 561 560
f 561 583 668
f 668 651 559
f 651 650 558
f 615 652 655
f 651 558 556
f 554 655 658
f 439 480 630
f 573 630 480
f 480 478 435
f 598 435 599
f 599 477 576
f 600 601 431
f 476 431 601
f 601 576 476
f 475 434 575
f 575 602 475
f 431 602 600
f 477 476 576
f 599 578 598
f 435 598 480
f 439 630 629
f 626 481 629
f 443 621 636
f 636 487 443
f 487 636 500
f 623 621 485
f 483 626 623
f 623 485 483
f 443 485 621
f 620 488 466
f 641 501 488
f 488 620 641
f 501 641 503
f 642 489 503
f 517 489 618
f 635 466 500
f 610 609 452
f 425 610 452
f 493 661 425
f 613 611 525
f 525 492 614
f 614 492 664
f 616 664 490
f 616 490 491
f 517 616 491
f 528 490 664
f 609 495 452
f 609 608 495
f 496 495 608
f 608 606 496
f 497 496 606
f 606 607 497
f 497 607 605
f 605 507 497
f 507 605 643
f 506 507 643
f 569 571 645
f 571 498 645
f 434 498 575
f 586 579 462
f 586 445 488
f 488 587 586
f 462 445 586
f 488 465 619
f 488 619 587
f 671 619 465
f 465 464 671
f 671 464 462
f 579 671 462
f 442 461 584
f 458 442 580
f 584 580 442
f 584 461 460
f 460 585 584
f 460 568 585
f 622 568 460
f 460 458 622
f 580 622 458
f 465 619 581
f 465 535 619
f 535 533 561
f 535 561 582
f 535 582 619
f 672 583 448
f 672 534 542
f 542 670 672
f 561 533 448
f 448 583 561
f 448 534 672
f 542 536 671
f 532 465 581
f 536 532 671
f 581 671 532
f 536 542 670
f 545 549 677
f 547 545 677
f 550 547 677
f 541 550 678
f 542 541 674
f 674 670 542
f 678 674 541
f 677 678 550
f 539 677 549
f 538 682 539
f 682 538 495
f 495 683 682
f 537 536 684
f 495 537 684
f 684 683 495
f 670 684 536
f 459 442 580
f 442 458 580
f 458 588 580
f 459 588 463
f 665 666 528
f 554 665 530
f 529 530 665
f 616 554 530
f 666 616 528
f 530 528 616
f 528 529 665
f 662 661 527
f 663 662 527
f 661 663 493
f 456 493 663
f 527 456 663
f 493 527 661
f 660 659 526
f 658 660 492
f 659 658 492
f 492 526 659
f 526 492 660
f 615 617 455
f 616 615 491
f 617 616 491
f 455 491 615
f 491 455 617
f 657 655 450
f 651 657 450
f 656 653 559
f 655 656 524
f 524 457 655
f 457 450 655
f 559 524 656
f 450 559 651
f 668 653 515
f 654 668 449
f 560 654 523
f 652 560 516
f 653 652 515
f 516 515 652
f 523 516 560
f 449 523 654
f 515 449 668
f 650 651 519
f 651 650 522
f 522 520 651
f 519 522 650
f 521 519 651
f 520 521 651
f 557 609 454
f 609 557 453
f 454 453 557
f 453 454 609
f 652 618 515
f 649 652 516
f 618 649 516
f 518 515 618
f 516 518 618
f 515 516 652
f 558 555 451
f 555 558 451
f 613 612 494
f 611 613 494
f 612 611 494
f 648 647 512
f 647 648 513
f 513 512 647
f 514 513 648
f 512 514 648
f 584 646 511
f 646 584 509
f 510 508 646
f 509 510 646
f 511 509 584
f 508 511 646
f 643 605 507
f 644 643 507
f 507 504 644
f 605 644 504
f 504 505 605
f 505 507 605
f 624 625 441
f 621 624 441
f 486 621 485
f 441 485 621
f 486 441 625
f 562 638 465
f 639 562 465
f 640 639 465
f 465 501 642
f 642 640 465
f 637 642 503
f 503 502 637
f 638 637 502
f 501 503 642
f 502 465 638
f 566 634 444
f 636 566 444
f 500 636 487
f 633 635 500
f 500 634 633
f 444 487 636
f 631 630 467
f 632 631 467
f 630 632 467
f 439 467 630
f 467 439 630
f 596 597 474
f 480 596 479
f 480 474 597
f 479 478 480
f 474 479 596
f 577 578 432
f 578 577 432
f 433 432 578
f 432 433 578
f 602 595 472
f 594 602 473
f 595 594 473
f 472 473 602
f 473 472 595
f 603 592 498
f 604 603 498
f 591 604 470
f 592 591 469
f 469 499 592
f 470 469 591
f 471 470 604
f 498 471 604
f 499 498 592
f 590 628 484
f 627 484 628
f 482 627 590
f 484 482 590
f 590 589 437
f 574 593 432
f 597 574 432
f 589 597 438
f 438 437 589
f 468 438 597
f 432 468 597
f 469 432 593
f 437 469 593
f 677 667 548
f 676 677 548
f 679 676 544
f 680 679 552
f 681 680 546
f 673 681 546
f 675 673 540
f 668 675 531
f 669 668 531
f 667 669 531
f 540 531 675
f 546 540 673
f 552 546 680
f 551 552 679
f 543 551 679
f 544 543 679
f 548 544 676
f 531 548 667
f 685 689 686
f 687 689 690
f 688 687 693
f 685 688 691
f 689 685 692
f 687 689 693
f 689 687 693
f 693 690 689
f 692 693 689
f 691 692 685
f 693 691 688
f 690 693 687
f 688 685 695
f 687 688 697
f 689 687 698
f 685 686 701
f 701 694 685
f 700 701 686
f 689 700 686
f 699 700 689
f 698 699 689
f 697 698 687
f 696 697 688
f 695 696 688
f 694 695 685
f 691 693 690
f 690 693 714
f 693 692 714
f 692 691 703
f 725 704 779
f 714 743 710
f 711 743 768
f 712 710 743
f 714 710 711
f 711 768 714
f 711 712 743
f 715 709 718
f 765 723 797
f 730 845 729
f 732 731 705
f 729 705 736
f 729 736 863
f 863 735 729
f 734 863 856
f 856 737 734
f 708 707 738
f 742 709 740
f 745 748 744
f 744 770 745
f 745 770 743
f 746 747 748
f 706 708 739
f 949 722 718
f 753 709 702
f 753 751 709
f 702 691 753
f 733 705 783
f 733 783 754
f 747 708 785
f 748 747 755
f 785 755 747
f 744 748 755
f 704 726 757
f 760 729 734
f 734 759 760
f 729 758 727
f 737 817 818
f 817 737 707
f 769 749 768
f 743 771 768
f 743 770 771
f 691 690 753
f 743 714 692
f 691 702 742
f 742 703 691
f 743 692 703
f 703 742 743
f 774 772 773
f 773 757 774
f 773 704 757
f 704 773 775
f 779 776 777
f 779 775 776
f 777 781 975
f 778 975 781
f 780 851 781
f 783 705 781
f 783 781 782
f 787 782 784
f 787 783 782
f 788 786 787
f 786 756 785
f 770 744 789
f 940 713 792
f 792 793 940
f 792 798 793
f 798 795 1022
f 794 1021 767
f 799 842 886
f 800 1011 799
f 802 800 801
f 804 807 808
f 808 809 804
f 724 807 810
f 839 837 715
f 709 715 811
f 739 709 814
f 739 815 817
f 817 815 816
f 817 706 739
f 818 817 816
f 737 818 819
f 737 820 821
f 821 734 737
f 761 759 822
f 822 727 761
f 759 761 760
f 727 822 823
f 726 824 912
f 824 726 823
f 826 931 774
f 828 690 714
f 720 752 829
f 752 720 719
f 724 720 829
f 763 724 830
f 829 830 724
f 806 763 832
f 831 832 763
f 806 833 834
f 830 831 763
f 832 833 806
f 765 834 835
f 834 765 806
f 767 723 835
f 767 835 1048
f 768 749 836
f 1048 749 767
f 1048 836 749
f 714 836 828
f 714 768 836
f 839 720 838
f 720 724 838
f 838 840 839
f 843 799 764
f 844 887 842
f 797 844 1096
f 1096 764 797
f 835 723 765
f 912 827 726
f 821 759 734
f 819 820 737
f 819 818 816
f 814 815 739
f 813 814 709
f 812 813 709
f 811 812 709
f 810 837 724
f 791 792 713
f 791 713 790
f 789 713 770
f 851 725 781
f 775 779 704
f 751 718 709
f 741 709 739
f 738 785 708
f 856 707 737
f 731 780 781
f 797 764 765
f 767 797 723
f 718 839 715
f 742 702 709
f 707 708 706
f 726 727 823
f 704 725 726
f 732 780 731
f 727 730 729
f 705 845 847
f 847 1087 705
f 1087 846 732
f 732 705 1087
f 780 732 846
f 849 847 845
f 848 849 730
f 1089 848 727
f 730 727 848
f 845 730 849
f 727 726 853
f 853 1089 727
f 726 725 728
f 851 780 846
f 846 854 851
f 726 728 852
f 852 853 726
f 725 851 728
f 728 851 854
f 854 852 728
f 855 852 854
f 738 707 785
f 857 858 785
f 785 707 857
f 787 786 754
f 786 785 860
f 974 860 785
f 859 974 785
f 858 859 785
f 707 856 861
f 861 857 707
f 862 861 856
f 862 856 863
f 734 735 863
f 754 786 860
f 860 869 754
f 866 862 863
f 864 866 863
f 863 736 864
f 705 733 736
f 736 865 864
f 868 865 736
f 869 868 733
f 733 754 869
f 736 733 868
f 745 746 748
f 877 875 746
f 746 745 877
f 742 745 743
f 873 877 745
f 872 873 745
f 874 875 877
f 875 876 747
f 747 746 875
f 747 876 882
f 882 708 747
f 878 872 745
f 745 742 878
f 741 740 709
f 879 882 876
f 881 880 741
f 882 881 739
f 739 708 882
f 741 739 881
f 740 741 880
f 742 740 883
f 883 878 742
f 880 883 740
f 802 805 803
f 799 886 801
f 796 887 844
f 798 888 795
f 804 885 807
f 715 884 811
f 889 744 756
f 889 786 788
f 889 787 784
f 756 786 889
f 888 791 790
f 888 798 792
f 788 787 889
f 888 789 744
f 792 791 888
f 744 889 888
f 790 789 888
f 784 782 889
f 811 819 816
f 811 815 814
f 811 820 819
f 811 759 821
f 816 815 811
f 811 822 759
f 821 820 811
f 824 823 822
f 822 811 824
f 890 811 884
f 891 884 715
f 892 715 837
f 892 837 810
f 896 810 807
f 897 807 885
f 899 885 805
f 900 805 802
f 901 802 801
f 1015 801 886
f 903 886 842
f 905 842 887
f 905 887 796
f 1079 796 795
f 1079 795 888
f 888 906 1079
f 796 1079 905
f 842 905 904
f 842 904 903
f 886 903 902
f 886 902 1015
f 801 1015 901
f 802 901 900
f 805 900 899
f 885 899 898
f 885 898 897
f 807 897 896
f 810 896 895
f 810 895 894
f 810 894 893
f 810 893 892
f 715 892 891
f 884 891 890
f 782 781 889
f 888 889 907
f 907 906 888
f 896 897 1005
f 909 891 892
f 891 910 890
f 909 910 891
f 811 890 911
f 911 824 811
f 825 912 826
f 912 825 827
f 906 972 913
f 907 917 914
f 913 1080 906
f 914 906 907
f 906 915 1079
f 914 972 906
f 907 916 917
f 907 918 919
f 919 916 907
f 920 907 889
f 921 920 781
f 781 777 921
f 889 781 920
f 890 922 996
f 911 924 925
f 890 926 924
f 890 927 922
f 911 988 923
f 924 911 890
f 890 928 927
f 925 988 911
f 996 926 890
f 929 826 912
f 930 912 824
f 824 911 930
f 912 930 929
f 772 774 931
f 921 777 776
f 933 776 775
f 775 939 933
f 776 933 935
f 776 935 932
f 776 932 921
f 775 773 934
f 934 939 775
f 934 773 772
f 938 772 931
f 936 931 826
f 826 929 936
f 931 936 938
f 772 938 934
f 767 750 794
f 767 749 940
f 940 942 767
f 942 750 767
f 794 941 798
f 941 793 798
f 944 943 940
f 943 944 941
f 941 794 943
f 793 941 944
f 940 793 944
f 942 940 943
f 750 942 943
f 794 750 943
f 944 1035 945
f 1040 946 943
f 946 947 943
f 948 1028 943
f 943 944 1037
f 944 943 1028
f 949 718 751
f 722 752 719
f 828 753 690
f 955 950 722
f 951 955 949
f 952 951 751
f 950 952 828
f 752 722 950
f 828 752 950
f 753 828 952
f 751 753 952
f 949 751 951
f 722 949 955
f 1042 953 950
f 697 954 952
f 956 1042 950
f 951 952 954
f 957 803 805
f 763 806 957
f 957 885 804
f 959 958 885
f 1014 959 957
f 964 1014 957
f 958 964 805
f 957 805 964
f 885 957 959
f 805 885 958
f 961 962 1014
f 958 959 963
f 959 1014 962
f 1014 964 960
f 787 754 965
f 783 965 754
f 967 966 783
f 966 967 787
f 787 965 966
f 783 787 967
f 965 783 966
f 969 967 966
f 755 785 970
f 972 971 756
f 973 972 756
f 971 973 744
f 744 755 971
f 756 744 973
f 785 756 971
f 970 785 971
f 755 970 971
f 779 777 975
f 976 977 725
f 979 978 976
f 980 979 779
f 981 980 975
f 977 981 975
f 975 778 977
f 779 975 980
f 725 779 979
f 976 725 979
f 977 976 978
f 977 978 979
f 981 977 982
f 726 827 825
f 825 757 726
f 985 984 726
f 986 985 826
f 1074 986 774
f 985 1074 757
f 984 985 757
f 757 726 984
f 774 757 1074
f 826 774 986
f 825 826 985
f 757 825 985
f 726 757 985
f 937 984 985
f 1074 985 984
f 760 987 729
f 987 758 729
f 758 761 727
f 923 988 761
f 989 923 761
f 988 989 760
f 987 760 989
f 758 987 989
f 761 758 989
f 760 761 988
f 990 991 989
f 991 992 989
f 706 817 707
f 994 993 817
f 996 994 817
f 994 996 818
f 995 994 817
f 993 995 706
f 706 817 993
f 817 706 995
f 818 817 994
f 817 818 996
f 996 993 994
f 763 957 809
f 957 804 809
f 807 997 808
f 807 724 997
f 763 762 724
f 762 997 724
f 809 762 763
f 998 1001 808
f 1000 998 762
f 1001 1000 809
f 809 808 1001
f 762 809 1000
f 763 762 998
f 762 763 998
f 997 762 998
f 808 997 998
f 1001 998 1005
f 999 1001 1006
f 1001 999 1006
f 1000 1001 959
f 998 1000 1008
f 1008 1002 998
f 1009 1008 1000
f 1008 1009 1000
f 959 1008 1000
f 963 959 1001
f 1007 963 1001
f 1006 1007 1001
f 1005 1006 1001
f 1003 1005 998
f 1004 1003 998
f 1003 1004 998
f 1002 1003 998
f 803 957 766
f 957 806 766
f 765 1010 806
f 1010 766 806
f 766 802 803
f 802 1011 800
f 1011 764 799
f 764 1010 765
f 1014 1012 802
f 1013 1014 1010
f 1014 1013 765
f 1012 1014 764
f 1011 802 1012
f 764 1011 1012
f 1010 764 1014
f 765 1010 1014
f 1010 765 1013
f 766 1010 1014
f 802 766 1014
f 1016 1017 1012
f 1013 1019 1014
f 1012 1014 960
f 1013 1014 1018
f 1014 1012 1017
f 795 796 1022
f 844 797 1023
f 797 767 1023
f 794 798 1021
f 1021 1023 767
f 1023 796 844
f 1022 1021 798
f 1024 1026 1021
f 1026 1024 796
f 796 1023 1026
f 1022 796 1024
f 1021 1022 1024
f 1023 1021 1026
f 1025 1026 1024
f 1027 1024 1026
f 1026 1025 1028
f 1027 1026 1032
f 1024 1027 1032
f 1025 1024 1034
f 1035 1028 1025
f 1034 1035 1025
f 1033 1034 1024
f 1032 1033 1024
f 1031 1032 1026
f 1030 1031 1026
f 1029 1030 1026
f 1028 1029 1026
f 713 940 770
f 771 769 768
f 769 940 749
f 1037 1040 749
f 1036 1037 769
f 1037 1036 770
f 1040 1037 769
f 769 749 1040
f 940 769 1037
f 770 940 1037
f 771 770 1036
f 769 771 1036
f 749 769 1037
f 1037 1036 1039
f 1036 1037 1038
f 719 720 1041
f 720 839 1041
f 839 716 721
f 716 718 721
f 722 721 718
f 721 717 839
f 717 1041 839
f 1041 722 719
f 1043 1042 722
f 1044 1043 722
f 1042 1044 1041
f 722 1041 1044
f 721 722 1042
f 717 721 1042
f 1041 717 1042
f 956 1045 1042
f 1046 1047 1042
f 1043 1044 1086
f 828 1049 752
f 1052 1051 830
f 1053 1052 829
f 1054 1053 752
f 1055 1054 828
f 1056 1055 828
f 1057 1056 836
f 1058 1057 836
f 1059 1058 836
f 1060 1059 835
f 1061 1060 835
f 1051 1061 834
f 833 832 1051
f 834 833 1051
f 835 834 1061
f 1048 835 1059
f 836 1048 1059
f 828 836 1056
f 1050 828 1054
f 828 1050 1054
f 1049 828 1054
f 752 1049 1054
f 829 752 1053
f 830 829 1052
f 831 830 1051
f 832 831 1051
f 711 710 712
f 1063 1062 711
f 1066 1063 710
f 1064 1066 711
f 1065 1064 711
f 1062 1065 711
f 712 711 1066
f 711 712 1066
f 710 711 1066
f 711 710 1063
f 837 839 840
f 1068 1067 837
f 1070 1068 838
f 1068 1070 838
f 1069 1068 838
f 1067 1069 838
f 724 837 1067
f 838 724 1067
f 840 838 1068
f 837 840 1068
f 1070 1071 1068
f 1072 892 1068
f 855 1073 1074
f 876 1077 857
f 1036 913 973
f 953 1043 1086
f 909 1042 1047
f 1085 1042 1045
f 909 1086 1044
f 953 1042 1043
f 1085 1046 1042
f 1044 1042 909
f 909 1085 1083
f 979 855 854
f 918 846 850
f 1087 850 846
f 991 849 848
f 1088 852 855
f 853 852 1088
f 849 871 870
f 847 870 865
f 865 868 1087
f 868 916 1087
f 868 869 916
f 1077 858 857
f 1076 857 861
f 1076 861 862
f 1075 1076 862
f 864 849 991
f 867 862 991
f 991 866 864
f 862 866 991
f 1075 862 867
f 1082 880 881
f 1082 1081 880
f 881 995 1082
f 1078 857 879
f 857 882 879
f 881 882 857
f 1078 879 876
f 875 874 876
f 973 876 874
f 874 877 973
f 1090 877 873
f 873 872 1090
f 1081 696 878
f 878 883 1081
f 1081 883 880
f 948 943 947
f 1084 1038 1037
f 1037 944 1084
f 944 1028 1035
f 696 1081 954
f 951 954 1081
f 1081 1085 951
f 954 697 696
f 1085 956 950
f 950 955 1085
f 876 971 974
f 876 973 971
f 989 992 848
f 989 848 1089
f 1075 989 988
f 1075 990 989
f 994 995 1076
f 996 994 1076
f 698 697 952
f 878 696 695
f 695 694 878
f 1068 1069 1003
f 1068 1003 1086
f 1070 1068 1086
f 1072 1068 909
f 909 1068 1071
f 1090 1039 1036
f 1036 1038 1080
f 1040 1037 1039
f 1084 1035 1034
f 1092 1033 1032
f 1032 1031 1091
f 948 1029 1028
f 1032 1091 1092
f 1090 872 1066
f 1066 1064 1090
f 878 701 1063
f 1066 872 878
f 878 1063 1066
f 1064 1039 1090
f 1065 1062 1039
f 1064 1065 1039
f 701 1062 1063
f 1062 701 1039
f 1014 1019 1020
f 1014 1017 1018
f 1093 904 1092
f 1093 1094 904
f 1017 1095 1018
f 1073 979 939
f 1074 1073 939
f 986 936 929
f 934 938 986
f 938 936 986
f 929 985 986
f 986 1074 934
f 985 930 937
f 985 929 930
f 1074 984 1088
f 1089 1088 911
f 1088 937 930
f 930 911 1088
f 1076 1075 925
f 1075 988 925
f 1076 924 926
f 922 927 993
f 995 993 1082
f 993 927 1082
f 993 996 922
f 1082 927 928
f 909 890 910
f 1083 928 890
f 890 909 1083
f 892 1067 1068
f 1069 1067 1003
f 1003 893 894
f 1003 895 896
f 1003 892 893
f 894 895 1003
f 1006 1005 897
f 897 898 1006
f 898 963 1007
f 1007 1006 898
f 899 900 964
f 900 960 964
f 958 963 898
f 898 964 958
f 898 899 964
f 1020 961 1014
f 959 962 1008
f 1012 960 900
f 1012 900 901
f 1012 901 1015
f 1015 1016 1012
f 1015 902 1017
f 902 903 1017
f 1094 903 904
f 905 908 1092
f 905 1079 1034
f 1033 1092 908
f 1034 1033 905
f 1079 1084 1034
f 1084 1079 915
f 1036 1080 913
f 972 914 971
f 869 914 917
f 914 869 860
f 860 971 914
f 1077 974 858
f 974 859 858
f 971 860 974
f 916 919 967
f 918 968 966
f 966 968 1087
f 918 966 967
f 967 969 916
f 969 966 1087
f 919 918 967
f 918 854 846
f 921 979 854
f 921 981 982
f 921 980 981
f 983 980 921
f 979 980 983
f 979 932 935
f 979 921 932
f 935 933 979
f 1008 1051 1052
f 1052 1003 1008
f 953 1086 1053
f 1052 1053 1086
f 952 1053 1054
f 950 953 1053
f 952 950 1053
f 1054 698 952
f 1054 700 698
f 1039 700 1056
f 1055 1056 700
f 1039 1056 1057
f 1054 1055 700
f 1040 1057 1058
f 1058 1059 1040
f 1057 1040 1039
f 1018 1059 1060
f 1059 1018 948
f 1020 1013 1051
f 1013 1061 1051
f 1013 1060 1061
f 1051 1008 1020
f 1052 1086 1003
f 933 939 979
f 918 921 854
f 917 916 869
f 913 972 973
f 915 1080 1084
f 908 905 1033
f 904 905 1092
f 903 1094 1017
f 896 1005 1003
f 928 1083 1081
f 928 1081 1082
f 926 996 1076
f 925 924 1076
f 989 1089 923
f 911 923 1089
f 939 934 1074
f 1037 1040 943
f 694 701 878
f 974 1077 876
f 955 951 1085
f 944 945 1084
f 881 857 995
f 864 871 849
f 870 847 849
f 1060 1013 1018
f 948 1018 1091
f 1040 1059 948
f 945 1035 1084
f 1081 1083 1085
f 701 700 1039
f 1080 1038 1084
f 973 1090 1036
f 1076 995 857
f 857 1078 876
f 1074 1088 855
f 1073 855 979
f 1092 1091 1093
f 1018 1093 1091
f 1018 1095 799
f 1093 1018 764
f 1091 1093 1096
f 1093 1091 1096
f 1094 1093 844
f 1095 1094 842
f 842 841 1095
f 844 842 1094
f 1096 844 1093
f 764 1096 1093
f 843 764 1018
f 799 843 1018
f 841 799 1095
f 1098 1097 1099
f 1097 1100 1099
f 1102 1099 1100
f 1103 1098 1099
f 1104 1108 1099
f 1103 1099 1108
f 1146 1099 1102
f 1099 1146 1104
f 1146 1102 1100
f 1097 1101 1146
f 1100 1097 1146
f 1105 1101 1097
f 1097 1098 1105
f 1108 1105 1098
f 1098 1103 1108
f 1116 1101 1125
f 1125 1106 1116
f 1118 1115 1146
f 1101 1117 1118
f 1108 1122 1109
f 1110 1123 1108
f 1112 1111 1129
f 1111 1105 1129
f 1105 1132 1126
f 1114 1107 1146
f 1126 1101 1116
f 1116 1106 1132
f 1101 1126 1117
f 1114 1113 1107
f 1107 1113 1120
f 1140 1116 1132
f 1120 1121 1107
f 1118 1117 1115
f 1113 1119 1107
f 1120 1113 1107
f 1121 1120 1107
f 1146 1121 1107
f 1146 1107 1119
f 1107 1104 1146
f 1122 1123 1104
f 1104 1107 1122
f 1108 1104 1123
f 1122 1108 1123
f 1123 1124 1110
f 1110 1105 1123
f 1123 1110 1124
f 1144 1137 1132
f 1137 1144 1105
f 1112 1132 1137
f 1111 1112 1137
f 1105 1111 1137
f 1132 1105 1144
f 1116 1137 1132
f 1125 1116 1106
f 1132 1106 1116
f 1126 1132 1137
f 1125 1101 1126
f 1132 1127 1225
f 1132 1128 1127
f 1110 1209 1105
f 1197 1110 1108
f 1108 1109 1197
f 1130 1109 1122
f 1122 1131 1130
f 1107 1193 1131
f 1214 1193 1107
f 1122 1107 1131
f 1197 1209 1110
f 1129 1128 1112
f 1132 1112 1128
f 1107 1134 1133
f 1107 1133 1214
f 1107 1121 1134
f 1121 1235 1134
f 1121 1135 1235
f 1139 1137 1140
f 1126 1137 1144
f 1123 1146 1148
f 1142 1148 1146
f 1148 1143 1123
f 1149 1144 1141
f 1143 1149 1123
f 1149 1141 1123
f 1126 1147 1145
f 1147 1126 1144
f 1126 1145 1150
f 1146 1126 1150
f 1150 1142 1146
f 1114 1146 1119
f 1119 1113 1114
f 1146 1115 1117
f 1146 1117 1118
f 1118 1117 1126
f 1125 1126 1116
f 1140 1137 1116
f 1141 1144 1137
f 1141 1124 1123
f 1123 1124 1136
f 1123 1136 1245
f 1245 1135 1122
f 1122 1123 1245
f 1122 1121 1123
f 1122 1135 1121
f 1123 1121 1146
f 1140 1132 1276
f 1149 1147 1144
f 1149 1143 1148
f 1142 1150 1148
f 1145 1147 1150
f 1149 1148 1151
f 1148 1150 1151
f 1150 1147 1151
f 1147 1149 1151
f 1171 1152 1153
f 1263 1156 1134
f 1155 1154 1156
f 1263 1155 1156
f 1158 1172 1157
f 1157 1159 1161
f 1161 1158 1157
f 1181 1159 1161
f 1159 1160 1161
f 1162 1188 1177
f 1189 1162 1177
f 1154 1165 1166
f 1164 1166 1165
f 1164 1163 1195
f 1188 1195 1163
f 1188 1163 1177
f 1184 1189 1177
f 1180 1184 1177
f 1160 1180 1177
f 1160 1177 1161
f 1159 1181 1161
f 1174 1240 1178
f 1154 1155 1165
f 1164 1167 1248
f 1164 1248 1163
f 1163 1169 1170
f 1177 1170 1173
f 1177 1173 1175
f 1161 1177 1175
f 1161 1175 1174
f 1161 1174 1178
f 1161 1178 1158
f 1157 1176 1171
f 1171 1153 1157
f 1271 1176 1157
f 1271 1157 1172
f 1170 1177 1163
f 1167 1164 1165
f 1171 1176 1271
f 1167 1165 1155
f 1168 1163 1248
f 1169 1163 1168
f 1184 1162 1189
f 1181 1159 1157
f 1156 1154 1166
f 1152 1157 1153
f 1179 1156 1164
f 1182 1164 1195
f 1181 1160 1159
f 1221 1157 1152
f 1192 1189 1184
f 1152 1187 1221
f 1157 1221 1186
f 1157 1186 1205
f 1157 1202 1181
f 1160 1185 1180
f 1164 1182 1218
f 1164 1218 1183
f 1164 1183 1179
f 1166 1164 1156
f 1162 1189 1188
f 1105 1211 1129
f 1130 1131 1193
f 1200 1197 1109
f 1188 1200 1109
f 1192 1188 1189
f 1184 1190 1191
f 1193 1182 1196
f 1185 1184 1180
f 1205 1186 1204
f 1207 1208 1209
f 1206 1160 1208
f 1202 1210 1181
f 1209 1213 1105
f 1193 1214 1215
f 1217 1218 1182
f 1222 1128 1129
f 1223 1224 1128
f 1224 1223 1186
f 1222 1204 1186
f 1226 1187 1227
f 1132 1225 1226
f 1127 1128 1228
f 1230 1221 1187
f 1221 1230 1228
f 1187 1229 1230
f 1209 1206 1207
f 1130 1188 1109
f 1129 1211 1201
f 1245 1247 1135
f 1247 1245 1232
f 1137 1138 1268
f 1238 1139 1140
f 1238 1237 1171
f 1204 1271 1172
f 1242 1241 1167
f 1232 1170 1169
f 1244 1173 1170
f 1232 1236 1170
f 1233 1173 1244
f 1246 1235 1135
f 1135 1247 1249
f 1249 1248 1135
f 1252 1245 1136
f 1252 1136 1251
f 1255 1254 1141
f 1178 1172 1158
f 1124 1258 1136
f 1258 1275 1257
f 1259 1258 1124
f 1174 1175 1260
f 1261 1240 1275
f 1259 1262 1261
f 1124 1262 1259
f 1262 1124 1141
f 1155 1265 1167
f 1167 1265 1266
f 1271 1239 1268
f 1271 1269 1270
f 1138 1270 1269
f 1271 1137 1272
f 1273 1171 1271
f 1273 1187 1272
f 1272 1187 1271
f 1260 1240 1174
f 1250 1274 1169
f 1168 1249 1169
f 1170 1236 1244
f 1241 1248 1167
f 1245 1236 1232
f 1234 1253 1233
f 1231 1243 1275
f 1239 1256 1268
f 1136 1258 1209
f 1209 1197 1136
f 1136 1197 1206
f 1206 1243 1136
f 1275 1243 1206
f 1199 1275 1206
f 1199 1185 1175
f 1260 1175 1185
f 1185 1160 1260
f 1260 1160 1206
f 1206 1275 1260
f 1257 1275 1206
f 1257 1206 1209
f 1209 1258 1257
f 1236 1245 1200
f 1200 1188 1236
f 1170 1236 1188
f 1188 1189 1170
f 1188 1236 1170
f 1170 1189 1188
f 1245 1236 1200
f 1192 1200 1236
f 1236 1244 1192
f 1236 1188 1192
f 1192 1244 1236
f 1109 1188 1232
f 1169 1232 1188
f 1232 1169 1188
f 1188 1236 1232
f 1236 1188 1109
f 1109 1232 1236
f 1200 1245 1252
f 1244 1245 1200
f 1200 1192 1244
f 1244 1192 1184
f 1184 1233 1244
f 1233 1184 1191
f 1191 1234 1233
f 1253 1234 1191
f 1253 1190 1200
f 1200 1252 1253
f 1191 1190 1253
f 1236 1245 1200
f 1236 1200 1192
f 1192 1244 1236
f 1173 1244 1192
f 1244 1192 1200
f 1200 1245 1244
f 1196 1249 1247
f 1247 1193 1196
f 1248 1249 1196
f 1168 1248 1182
f 1182 1195 1168
f 1196 1182 1248
f 1196 1249 1168
f 1195 1196 1168
f 1193 1247 1249
f 1249 1196 1193
f 1246 1135 1193
f 1193 1215 1246
f 1246 1215 1216
f 1182 1248 1216
f 1135 1248 1182
f 1182 1193 1135
f 1130 1194 1250
f 1195 1188 1169
f 1274 1250 1194
f 1169 1274 1195
f 1194 1195 1274
f 1247 1232 1188
f 1188 1232 1169
f 1188 1130 1247
f 1247 1130 1193
f 1249 1247 1193
f 1193 1196 1249
f 1196 1195 1169
f 1169 1249 1196
f 1250 1169 1195
f 1195 1194 1250
f 1194 1130 1250
f 1251 1136 1197
f 1197 1200 1251
f 1175 1251 1200
f 1200 1185 1175
f 1199 1175 1185
f 1275 1206 1198
f 1198 1231 1275
f 1199 1206 1275
f 1243 1231 1198
f 1243 1206 1197
f 1197 1136 1243
f 1198 1206 1243
f 1190 1253 1252
f 1252 1200 1190
f 1253 1190 1184
f 1184 1233 1253
f 1175 1233 1184
f 1184 1185 1175
f 1175 1185 1200
f 1200 1251 1175
f 1200 1252 1251
f 1203 1129 1137
f 1141 1137 1129
f 1201 1255 1141
f 1129 1201 1141
f 1172 1178 1202
f 1255 1201 1202
f 1202 1178 1255
f 1202 1157 1172
f 1256 1172 1157
f 1256 1157 1203
f 1203 1137 1256
f 1201 1211 1141
f 1141 1211 1210
f 1210 1254 1141
f 1210 1202 1178
f 1178 1254 1210
f 1255 1178 1202
f 1202 1201 1255
f 1255 1201 1210
f 1210 1254 1255
f 1141 1254 1210
f 1210 1201 1141
f 1256 1239 1204
f 1239 1268 1203
f 1203 1204 1239
f 1268 1129 1203
f 1204 1203 1256
f 1172 1256 1203
f 1203 1205 1172
f 1204 1172 1205
f 1204 1222 1268
f 1268 1239 1204
f 1222 1129 1268
f 1129 1137 1268
f 1268 1203 1129
f 1203 1157 1256
f 1256 1137 1203
f 1129 1203 1137
f 1157 1172 1256
f 1157 1205 1172
f 1172 1205 1203
f 1203 1256 1172
f 1203 1268 1256
f 1208 1261 1262
f 1262 1209 1208
f 1261 1208 1160
f 1160 1240 1261
f 1160 1181 1240
f 1240 1181 1213
f 1262 1240 1213
f 1213 1209 1262
f 1258 1259 1208
f 1208 1207 1258
f 1260 1275 1206
f 1258 1207 1206
f 1175 1260 1160
f 1206 1275 1258
f 1206 1160 1260
f 1260 1175 1160
f 1160 1240 1260
f 1261 1275 1206
f 1240 1160 1206
f 1258 1261 1208
f 1206 1275 1240
f 1206 1208 1261
f 1208 1207 1258
f 1259 1261 1208
f 1258 1207 1208
f 1208 1261 1258
f 1141 1254 1210
f 1210 1211 1141
f 1178 1240 1212
f 1212 1240 1141
f 1212 1181 1178
f 1181 1254 1178
f 1181 1210 1254
f 1213 1262 1141
f 1141 1105 1213
f 1240 1262 1213
f 1213 1181 1240
f 1141 1240 1212
f 1181 1212 1240
f 1132 1140 1276
f 1226 1238 1140
f 1140 1132 1226
f 1171 1237 1227
f 1238 1226 1227
f 1227 1237 1238
f 1227 1187 1171
f 1152 1171 1187
f 1214 1134 1235
f 1155 1263 1156
f 1156 1263 1134
f 1156 1179 1155
f 1265 1155 1179
f 1179 1183 1265
f 1265 1183 1220
f 1220 1264 1265
f 1235 1264 1220
f 1220 1214 1235
f 1214 1235 1246
f 1246 1215 1214
f 1235 1214 1267
f 1242 1218 1217
f 1217 1241 1242
f 1267 1218 1242
f 1248 1241 1217
f 1217 1182 1248
f 1248 1182 1216
f 1215 1246 1216
f 1214 1220 1264
f 1264 1235 1214
f 1167 1266 1219
f 1183 1219 1266
f 1266 1265 1183
f 1264 1220 1183
f 1183 1265 1264
f 1219 1183 1167
f 1242 1167 1183
f 1183 1218 1242
f 1242 1218 1267
f 1214 1235 1267
f 1270 1138 1128
f 1137 1228 1128
f 1128 1138 1137
f 1128 1224 1270
f 1271 1270 1224
f 1224 1186 1271
f 1186 1221 1271
f 1137 1271 1221
f 1221 1228 1137
f 1138 1128 1222
f 1222 1268 1138
f 1271 1268 1222
f 1222 1186 1271
f 1223 1269 1271
f 1271 1186 1223
f 1269 1223 1128
f 1128 1138 1269
f 1238 1226 1225
f 1225 1139 1238
f 1273 1137 1127
f 1139 1225 1127
f 1127 1137 1139
f 1127 1229 1273
f 1171 1273 1229
f 1229 1187 1171
f 1171 1187 1226
f 1226 1238 1171
f 1137 1127 1228
f 1272 1137 1228
f 1228 1230 1272
f 1187 1272 1230
f 1187 1230 1272
f 1137 1273 1229
f 1272 1230 1229
f 1229 1273 1272
f 1229 1127 1137

