# https://github.com/mikedh/trimesh
v -0.00196256 -0.00804194 0.02836854
v -0.00001873 -0.00504186 0.03902137
v -0.00151319 -0.00504186 0.03893515
v -0.00298989 -0.00504186 0.03868985
v -0.00978698 -0.00504189 0.03497291
v -0.00407987 -0.00504186 0.03838633
v -0.00582292 -0.00504187 0.03773504
v -0.00714685 -0.00504187 0.03703645
v -0.00838862 -0.00504188 0.03620049
v -0.00953404 -0.00504189 0.03523673
v -0.00443196 -0.00504187 0.03828829
v -0.01057001 -0.00504189 0.03415618
v -0.01148469 -0.00504190 0.03297119
v -0.01226761 -0.00504191 0.03169532
v -0.01226761 0.00495809 0.03169524
v -0.01057001 0.00495811 0.03415611
v -0.00953404 0.00495812 0.03523666
v -0.00838862 0.00495812 0.03620042
v -0.00714684 0.00495813 0.03703638
v -0.00582291 0.00495813 0.03773497
v -0.00443196 0.00495813 0.03828821
v -0.00298989 0.00495814 0.03868978
v -0.00151318 0.00495814 0.03893508
v -0.00001873 0.00495814 0.03902130
v -0.01148468 0.00495810 0.03297112
v -0.00201388 0.00795806 0.02845425
v 0.01710856 -0.00804187 0.03955160
v 0.01710856 0.00795813 0.03955149
v 0.01739821 -0.00804187 0.03969006
v 0.01739821 0.00795813 0.03968994
v 0.01770099 -0.00804187 0.03979677
v 0.01770100 0.00795813 0.03979665
v 0.01801344 -0.00804187 0.03987051
v 0.01801345 0.00795814 0.03987039
v 0.01833199 -0.00804187 0.03991044
v 0.01833200 0.00795814 0.03991032
v 0.01865298 -0.00804187 0.03991610
v 0.01887067 -0.00804187 0.03990034
v 0.01897257 -0.00803759 0.03988626
v 0.01897267 0.00795493 0.03988688
v 0.01895608 0.00795630 0.03988967
v 0.01887068 0.00795814 0.03990022
v 0.01917313 0.00793497 0.03985041
v 0.01912780 0.00794215 0.03986083
v 0.01917340 -0.00801801 0.03984996
v 0.01924079 -0.00800951 0.03983631
v 0.01901972 -0.00803562 0.03987975
v 0.01904071 -0.00803474 0.03987685
v 0.01948921 0.00787159 0.03976548
v 0.01930624 0.00791388 0.03981982
v 0.01959395 0.00784177 0.03972865
v 0.01933014 -0.00799080 0.03981164
v 0.01944580 -0.00796658 0.03977970
v 0.01949153 -0.00795479 0.03976491
v 0.01949154 0.00787106 0.03976479
v 0.01959577 0.00784125 0.03972800
v 0.01988728 0.00773493 0.03959853
v 0.01971482 -0.00788606 0.03968069
v 0.01981734 0.00776469 0.03963490
v 0.01988712 -0.00781823 0.03959817
v 0.02003896 0.00767037 0.03951966
v 0.02012736 -0.00770902 0.03946345
v 0.01996488 -0.00778761 0.03956092
v 0.02025942 0.00755860 0.03938002
v 0.02028163 -0.00762895 0.03936274
v 0.02020882 -0.00766962 0.03941459
v 0.02025941 -0.00764234 0.03938013
v 0.02042762 0.00746050 0.03925380
v 0.02043011 0.00745905 0.03925193
v 0.02052247 -0.00748383 0.03917433
v 0.02057304 -0.00744761 0.03912481
v 0.02065999 0.00730505 0.03904588
v 0.02088047 0.00713131 0.03880011
v 0.02070940 -0.00734996 0.03899128
v 0.02075956 -0.00731404 0.03894217
v 0.02087195 0.00713912 0.03881182
v 0.02083819 0.00716555 0.03884910
v 0.02087756 -0.00721452 0.03879779
v 0.02091913 0.00709587 0.03874697
v 0.02106331 0.00696369 0.03854880
v 0.02106331 -0.00704744 0.03854891
v 0.02106887 -0.00704188 0.03854028
v 0.02106888 0.00695812 0.03854018
v 0.02095848 -0.00714627 0.03869876
v 0.02096987 -0.00713666 0.03868482
v 0.01865298 0.00795814 0.03991598
v -0.02188859 0.00795798 0.01566805
v -0.02188859 -0.00804202 0.01566817
v -0.02173176 -0.00804202 0.01594829
v -0.02173175 0.00795798 0.01594818
v -0.02154589 -0.00804202 0.01621005
v -0.02154588 0.00795798 0.01620994
v -0.02133312 -0.00804202 0.01645045
v -0.02133311 0.00795799 0.01645034
v -0.02109587 -0.00804201 0.01666674
v -0.02109586 0.00795799 0.01666662
v -0.02083687 -0.00804201 0.01685643
v -0.02083686 0.00795799 0.01685632
v -0.02181930 -0.00704204 0.01288884
v -0.02189981 0.00705275 0.01304434
v -0.02182426 0.00696352 0.01289773
v -0.02190670 0.00706235 0.01306098
v -0.02182427 -0.00704760 0.01289783
v -0.02195566 0.00713061 0.01317911
v -0.02193066 -0.00717978 0.01311860
v -0.02195918 -0.00721522 0.01317780
v -0.02198235 -0.00724946 0.01323823
v -0.02196547 -0.00722303 0.01319085
v -0.02202705 0.00723013 0.01335137
v -0.02214421 -0.00754296 0.01378833
v -0.02211943 0.00739992 0.01367008
v -0.02209973 0.00736370 0.01360209
v -0.02207142 -0.00738896 0.01348832
v -0.02217631 -0.00764250 0.01399930
v -0.02217150 0.00754505 0.01397139
v -0.02218273 0.00758572 0.01406007
v -0.02217630 0.00755844 0.01399919
v -0.02214468 -0.00754441 0.01379140
v -0.02218725 0.00762512 0.01415495
v -0.02219506 -0.00775427 0.01425959
v -0.02218427 -0.00768996 0.01410983
v -0.02219229 0.00773433 0.01443034
v -0.02219626 0.00770372 0.01434421
v -0.02216896 -0.00792514 0.01474862
v -0.02219279 -0.00781882 0.01443054
v -0.02218349 0.00780216 0.01462118
v -0.02219175 -0.00784859 0.01450936
v -0.02216867 -0.00792566 0.01475052
v -0.02211688 0.00790691 0.01502203
v -0.02214346 0.00788269 0.01490503
v -0.02215206 0.00787090 0.01485774
v -0.02215158 -0.00795549 0.01486023
v -0.02211289 -0.00799777 0.01504714
v -0.02215207 -0.00795495 0.01485785
v -0.02210782 -0.00800074 0.01506570
v -0.02201348 0.00795371 0.01537237
v -0.02207688 -0.00801886 0.01517889
v -0.02206461 -0.00802604 0.01522375
v -0.02202957 -0.00803492 0.01532727
v -0.02209635 0.00792562 0.01511243
v -0.02203005 0.00795173 0.01532775
v -0.02203742 0.00795085 0.01530788
v -0.02197768 0.00795798 0.01546880
v -0.02201418 -0.00803882 0.01537275
v -0.02200878 -0.00804019 0.01538868
v -0.02197769 -0.00804202 0.01546892
v -0.02181929 0.00695796 0.01288874
v 0.02228330 0.00695811 0.03643214
v 0.02228329 -0.00704189 0.03643224
v 0.02337967 0.00695809 0.03397839
v 0.02337966 -0.00704191 0.03397849
v 0.02424781 0.00695807 0.03122160
v 0.02420630 0.00695807 0.03142113
v 0.02420629 -0.00704193 0.03142123
v 0.02475364 0.00695805 0.02878991
v 0.02475364 -0.00704195 0.02879001
v 0.02424780 -0.00704193 0.03122171
v 0.02501536 -0.00704197 0.02611523
v 0.02501537 0.00695803 0.02611513
v 0.02497053 0.00695801 0.02327593
v 0.02498846 0.00695801 0.02342772
v 0.02498845 -0.00704199 0.02342782
v 0.02467322 0.00695799 0.02075872
v 0.02467321 -0.00704201 0.02075882
v 0.02497053 -0.00704199 0.02327604
v 0.02403447 0.00695797 0.01802664
v 0.02407329 0.00695798 0.01813899
v 0.02407328 -0.00704202 0.01813909
v 0.02315219 0.00695796 0.01550662
v 0.02319561 0.00695796 0.01559879
v 0.02319560 -0.00704204 0.01559890
v 0.02403446 -0.00704203 0.01802674
v 0.02200610 0.00695794 0.01309501
v 0.02205032 0.00695794 0.01316749
v 0.02205031 -0.00704206 0.01316759
v 0.02315218 -0.00704204 0.01550672
v 0.02065066 0.00695792 0.01087318
v 0.02065065 -0.00704208 0.01087328
v 0.02200610 -0.00704206 0.01309511
v 0.01901279 -0.00704209 0.00874248
v 0.01901280 0.00695791 0.00874238
v 0.01712970 0.00695790 0.00677782
v 0.01715566 0.00695790 0.00679971
v 0.01715566 -0.00704210 0.00679981
v 0.01508664 0.00695789 0.00505813
v 0.01510072 0.00695789 0.00506762
v 0.01510071 -0.00704211 0.00506772
v 0.01712969 -0.00704210 0.00677792
v 0.01508663 -0.00704211 0.00505823
v 0.01287172 -0.00704212 0.00356622
v 0.01287172 0.00695788 0.00356612
v 0.01050943 -0.00704213 0.00232061
v 0.00802786 0.00695786 0.00133401
v 0.01049442 0.00695787 0.00231259
v 0.01049441 -0.00704213 0.00231269
v 0.01050944 0.00695787 0.00232051
v 0.00799629 0.00695786 0.00132148
v 0.00799629 -0.00704214 0.00132159
v 0.00802786 -0.00704214 0.00133411
v 0.00540621 0.00695786 0.00060427
v 0.00540621 -0.00704214 0.00060438
v 0.00015540 0.00695786 0.00002610
v 0.00275411 0.00695786 0.00016925
v 0.00275410 -0.00704214 0.00016935
v 0.00007062 -0.00704214 0.00002153
v -0.00251148 -0.00704214 0.00015728
v -0.00251147 0.00695786 0.00015717
v 0.00015540 -0.00704214 0.00002620
v 0.00007063 0.00695786 0.00002143
v -0.00261322 0.00695786 0.00016252
v -0.00261322 -0.00704214 0.00016262
v -0.00514906 -0.00704214 0.00057206
v -0.00526641 0.00695786 0.00059091
v -0.00526641 -0.00704214 0.00059101
v -0.00514905 0.00695786 0.00057196
v -0.01021667 0.00695788 0.00223045
v -0.00785828 0.00695787 0.00130162
v -0.00785828 -0.00704213 0.00130172
v -0.01035888 0.00695788 0.00228646
v -0.01035888 -0.00704212 0.00228656
v -0.01021668 -0.00704212 0.00223056
v -0.01273932 -0.00704211 0.00353414
v -0.01273931 0.00695789 0.00353404
v -0.01687519 0.00695791 0.00662593
v -0.01497207 0.00695790 0.00502994
v -0.01497207 -0.00704210 0.00503004
v -0.01703135 -0.00704209 0.00675698
v -0.01687519 -0.00704209 0.00662603
v -0.01703134 0.00695791 0.00675688
v -0.01889333 0.00695793 0.00869489
v -0.01889334 -0.00704207 0.00869499
v -0.02053653 0.00695794 0.01082159
v -0.02053654 -0.00704206 0.01082169
v -0.01979953 0.00795247 0.01133020
v -0.02035078 0.00795796 0.01242833
v -0.02115459 0.00795249 0.01353894
v -0.02106269 0.00795796 0.01358874
v -0.01821519 0.00795245 0.00927968
v -0.01971350 0.00795795 0.01138957
v -0.01869641 0.00795794 0.01007321
v -0.01641989 0.00795244 0.00741109
v -0.01725420 0.00795793 0.00843011
v -0.01660432 0.00795792 0.00775370
v -0.01813603 0.00795793 0.00934795
v -0.01634851 0.00795792 0.00748745
v -0.01480162 0.00795791 0.00619021
v -0.01443438 0.00795243 0.00574601
v -0.01228160 0.00795241 0.00430369
v -0.01356427 0.00795790 0.00528869
v -0.01231161 0.00795789 0.00444943
v -0.01437161 0.00795791 0.00582959
v -0.01222817 0.00795789 0.00439353
v -0.00994295 0.00795788 0.00319585
v -0.00757539 0.00795240 0.00215123
v -0.00998643 0.00795241 0.00310079
v -0.00754237 0.00795788 0.00225041
v -0.00505417 0.00795787 0.00156812
v -0.00507636 0.00795239 0.00146597
v -0.00250712 0.00795787 0.00115687
v 0.00006950 0.00795238 0.00091689
v -0.00251821 0.00795239 0.00105293
v -0.00153265 0.00795786 0.00110564
v 0.00265687 0.00795238 0.00105942
v 0.00134339 0.00795786 0.00109160
v 0.00006937 0.00795786 0.00102142
v 0.00521398 0.00795239 0.00147886
v 0.00264551 0.00795786 0.00116333
v 0.00771128 0.00795239 0.00217038
v 0.00638827 0.00795787 0.00191233
v 0.00519154 0.00795786 0.00158095
v 0.01011993 0.00795240 0.00312598
v 0.00767802 0.00795787 0.00226947
v 0.01241208 0.00795240 0.00433462
v 0.01007622 0.00795787 0.00322093
v 0.01456124 0.00795241 0.00578233
v 0.01235843 0.00795788 0.00442433
v 0.01654257 0.00795242 0.00745238
v 0.01449827 0.00795789 0.00586576
v 0.01833319 0.00795244 0.00932547
v 0.01813760 0.00795791 0.00927192
v 0.01647101 0.00795790 0.00752857
v 0.01825386 0.00795791 0.00939353
v 0.01982620 0.00795793 0.01143910
v 0.02126191 0.00795247 0.01359208
v 0.01991238 0.00795245 0.01137995
v 0.02116988 0.00795794 0.01364164
v 0.02236618 0.00795248 0.01593629
v 0.02226936 0.00795796 0.01597569
v 0.02311193 0.00795798 0.01841428
v 0.02321242 0.00795250 0.01838550
v 0.02368786 0.00795800 0.02092922
v 0.02379086 0.00795252 0.02091140
v 0.02409481 0.00795254 0.02348480
v 0.02399049 0.00795801 0.02349146
v 0.02401633 0.00795803 0.02607138
v 0.02412076 0.00795255 0.02607595
v 0.02400655 0.00795803 0.02617134
v 0.02385971 0.00795804 0.02767198
v 0.02386841 0.00795257 0.02865492
v 0.02334067 0.00795259 0.03119189
v 0.02365078 0.00795806 0.02918860
v 0.02376507 0.00795805 0.02863916
v 0.02312606 0.00795807 0.03151646
v 0.02283754 0.00795808 0.03240900
v 0.02254364 0.00795261 0.03365756
v 0.02323962 0.00795807 0.03116513
v 0.02207216 0.00795809 0.03445691
v 0.02148654 0.00795263 0.03602342
v 0.02244605 0.00795809 0.03362011
v 0.02018159 0.00795264 0.03826213
v 0.02077982 0.00795811 0.03702856
v 0.02139354 0.00795811 0.03597571
v -0.02124549 0.00793611 0.01348970
v -0.01988461 0.00793609 0.01127148
v -0.01829348 0.00793608 0.00921217
v -0.01649048 0.00793606 0.00733556
v -0.01449645 0.00793605 0.00566334
v -0.01233444 0.00793604 0.00421483
v -0.01002943 0.00793603 0.00300678
v -0.00760805 0.00793602 0.00205314
v -0.00509830 0.00793602 0.00136494
v -0.00252918 0.00793601 0.00095013
v 0.00006963 0.00793601 0.00081351
v 0.00266809 0.00793601 0.00095664
v 0.00523617 0.00793601 0.00137789
v 0.00774419 0.00793601 0.00207237
v 0.01016317 0.00793602 0.00303207
v 0.01246515 0.00793603 0.00424590
v 0.01462352 0.00793604 0.00569982
v 0.01661336 0.00793605 0.00737703
v 0.01841165 0.00793606 0.00925815
v 0.01999762 0.00793608 0.01132144
v 0.02135294 0.00793609 0.01354306
v 0.02246194 0.00793611 0.01589733
v 0.02331181 0.00793612 0.01835704
v 0.02389273 0.00793614 0.02089377
v 0.02419798 0.00793616 0.02347820
v 0.02422404 0.00793618 0.02608047
v 0.02397061 0.00793620 0.02867050
v 0.02344061 0.00793622 0.03121836
v 0.02264016 0.00793624 0.03369460
v 0.02157853 0.00793625 0.03607060
v -0.02133439 0.00790902 0.01344153
v -0.01996783 0.00790900 0.01121405
v -0.01837005 0.00790899 0.00914614
v -0.01655952 0.00790897 0.00726169
v -0.01455716 0.00790896 0.00558249
v -0.01238612 0.00790895 0.00412793
v -0.01007148 0.00790894 0.00291483
v -0.00763999 0.00790893 0.00195721
v -0.00511976 0.00790892 0.00126614
v -0.00253990 0.00790892 0.00084960
v 0.00006976 0.00790892 0.00071240
v 0.00267907 0.00790892 0.00085614
v 0.00525788 0.00790892 0.00127914
v 0.00777637 0.00790892 0.00197653
v 0.01020545 0.00790893 0.00294023
v 0.01251704 0.00790894 0.00415913
v 0.01468444 0.00790895 0.00561912
v 0.01668258 0.00790896 0.00730333
v 0.01848838 0.00790897 0.00919231
v 0.02008097 0.00790898 0.01126422
v 0.02144195 0.00790900 0.01349512
v 0.02255559 0.00790902 0.01585922
v 0.02340901 0.00790903 0.01832921
v 0.02399235 0.00790905 0.02087653
v 0.02429888 0.00790907 0.02347176
v 0.02432505 0.00790909 0.02608490
v 0.02407056 0.00790911 0.02868574
v 0.02353834 0.00790913 0.03124424
v 0.02273456 0.00790915 0.03373082
v 0.02166849 0.00790916 0.03611675
v 0.02026798 0.00793627 0.03831892
v -0.02142031 0.00787151 0.01339498
v -0.02004825 0.00787149 0.01115855
v -0.01844405 0.00787148 0.00908232
v -0.01662624 0.00787146 0.00719030
v -0.01461584 0.00787145 0.00550434
v -0.01243607 0.00787144 0.00404394
v -0.01011212 0.00787143 0.00282597
v -0.00767086 0.00787142 0.00186450
v -0.00514050 0.00787141 0.00117065
v -0.00255027 0.00787141 0.00075243
v 0.00006988 0.00787141 0.00061468
v 0.00268968 0.00787141 0.00075899
v 0.00527885 0.00787141 0.00118370
v 0.00780747 0.00787141 0.00188389
v 0.01024632 0.00787142 0.00285147
v 0.01256720 0.00787142 0.00407526
v 0.01474331 0.00787143 0.00554112
v 0.01674948 0.00787145 0.00723211
v 0.01856254 0.00787146 0.00912868
v 0.02016154 0.00787147 0.01120892
v 0.02152799 0.00787149 0.01344878
v 0.02264610 0.00787150 0.01582239
v 0.02350295 0.00787152 0.01830230
v 0.02408864 0.00787154 0.02085987
v 0.02439640 0.00787156 0.02346553
v 0.02442268 0.00787158 0.02608917
v 0.02416716 0.00787160 0.02870047
v 0.02363281 0.00787162 0.03126925
v 0.02282579 0.00787163 0.03376583
v 0.02175544 0.00787165 0.03616135
v 0.02035246 0.00790918 0.03837446
v -0.02150231 0.00782399 0.01335056
v -0.02012501 0.00782397 0.01110558
v -0.01851468 0.00782396 0.00902142
v -0.01668993 0.00782394 0.00712216
v -0.01467184 0.00782393 0.00542977
v -0.01248374 0.00782392 0.00396378
v -0.01015091 0.00782391 0.00274115
v -0.00770032 0.00782390 0.00177601
v -0.00516029 0.00782389 0.00107951
v -0.00256017 0.00782389 0.00065969
v 0.00007000 0.00782389 0.00052142
v 0.00269981 0.00782388 0.00066628
v 0.00529887 0.00782389 0.00109261
v 0.00783716 0.00782389 0.00179548
v 0.01028532 0.00782390 0.00276675
v 0.01261507 0.00782390 0.00399522
v 0.01479949 0.00782391 0.00546668
v 0.01681334 0.00782392 0.00716413
v 0.01863333 0.00782394 0.00906795
v 0.02023843 0.00782395 0.01115614
v 0.02161010 0.00782397 0.01340456
v 0.02273249 0.00782398 0.01578724
v 0.02359261 0.00782400 0.01827663
v 0.02418054 0.00782402 0.02084397
v 0.02448948 0.00782404 0.02345959
v 0.02451585 0.00782406 0.02609325
v 0.02425936 0.00782408 0.02871453
v 0.02372296 0.00782410 0.03129313
v 0.02291286 0.00782411 0.03379925
v 0.02183842 0.00782413 0.03620392
v 0.02043412 0.00787167 0.03842813
v -0.02157950 0.00776698 0.01330874
v -0.02019726 0.00776696 0.01105572
v -0.01858116 0.00776695 0.00896409
v -0.01674987 0.00776693 0.00705803
v -0.01472455 0.00776692 0.00535957
v -0.01252861 0.00776691 0.00388833
v -0.01018743 0.00776690 0.00266132
v -0.00772806 0.00776689 0.00169272
v -0.00517892 0.00776688 0.00099372
v -0.00256948 0.00776688 0.00057240
v 0.00007011 0.00776688 0.00043364
v 0.00270934 0.00776688 0.00057902
v 0.00531772 0.00776688 0.00100687
v 0.00786510 0.00776688 0.00171226
v 0.01032203 0.00776689 0.00268702
v 0.01266013 0.00776690 0.00391989
v 0.01485238 0.00776690 0.00539662
v 0.01687344 0.00776692 0.00710015
v 0.01869995 0.00776693 0.00901079
v 0.02031081 0.00776694 0.01110646
v 0.02168739 0.00776696 0.01336294
v 0.02281380 0.00776698 0.01575415
v 0.02367701 0.00776699 0.01825246
v 0.02426704 0.00776701 0.02082900
v 0.02457708 0.00776703 0.02345399
v 0.02460355 0.00776705 0.02609709
v 0.02434614 0.00776707 0.02872776
v 0.02380782 0.00776709 0.03131560
v 0.02299482 0.00776711 0.03383070
v 0.02191653 0.00776712 0.03624399
v 0.02051205 0.00782415 0.03847936
v -0.02165102 0.00770111 0.01326999
v -0.02026421 0.00770109 0.01100951
v -0.01864276 0.00770107 0.00891096
v -0.01680541 0.00770106 0.00699860
v -0.01477339 0.00770105 0.00529452
v -0.01257019 0.00770103 0.00381842
v -0.01022126 0.00770102 0.00258735
v -0.00775375 0.00770102 0.00161554
v -0.00519618 0.00770101 0.00091423
v -0.00257811 0.00770101 0.00049152
v 0.00007021 0.00770100 0.00035229
v 0.00271818 0.00770100 0.00049815
v 0.00533518 0.00770100 0.00092743
v 0.00789099 0.00770101 0.00163514
v 0.01035605 0.00770101 0.00261312
v 0.01270189 0.00770102 0.00385007
v 0.01490139 0.00770103 0.00533169
v 0.01692913 0.00770104 0.00704086
v 0.01876169 0.00770106 0.00895782
v 0.02037787 0.00770107 0.01106042
v 0.02175901 0.00770109 0.01332437
v 0.02288914 0.00770110 0.01572350
v 0.02375521 0.00770112 0.01823007
v 0.02434719 0.00770114 0.02081513
v 0.02465826 0.00770116 0.02344881
v 0.02468482 0.00770118 0.02610065
v 0.02442656 0.00770120 0.02874003
v 0.02388646 0.00770122 0.03133643
v 0.02307076 0.00770123 0.03385984
v 0.02198890 0.00770125 0.03628112
v 0.02058541 0.00776714 0.03852759
v -0.02171610 0.00762709 0.01323473
v -0.02032513 0.00762708 0.01096747
v -0.01869882 0.00762706 0.00886263
v -0.01685595 0.00762704 0.00694453
v -0.01481784 0.00762703 0.00523534
v -0.01260802 0.00762702 0.00375480
v -0.01025204 0.00762701 0.00252004
v -0.00777713 0.00762700 0.00154532
v -0.00521189 0.00762700 0.00084190
v -0.00258596 0.00762699 0.00041792
v 0.00007030 0.00762699 0.00027828
v 0.00272621 0.00762699 0.00042458
v 0.00535107 0.00762699 0.00085514
v 0.00791454 0.00762699 0.00156498
v 0.01038700 0.00762700 0.00254590
v 0.01273988 0.00762701 0.00378655
v 0.01494598 0.00762702 0.00527262
v 0.01697981 0.00762703 0.00698691
v 0.01881786 0.00762704 0.00890963
v 0.02043889 0.00762706 0.01101854
v 0.02182418 0.00762707 0.01328928
v 0.02295770 0.00762709 0.01569560
v 0.02382636 0.00762711 0.01820969
v 0.02442012 0.00762712 0.02080251
v 0.02473213 0.00762714 0.02344409
v 0.02475876 0.00762716 0.02610389
v 0.02449972 0.00762718 0.02875118
v 0.02395801 0.00762720 0.03135537
v 0.02313986 0.00762722 0.03388636
v 0.02205476 0.00762724 0.03631490
v 0.02065338 0.00770127 0.03857227
v -0.02177402 0.00754575 0.01320335
v -0.02037934 0.00754573 0.01093006
v -0.01874870 0.00754571 0.00881961
v -0.01690093 0.00754570 0.00689640
v -0.01485739 0.00754569 0.00518266
v -0.01264169 0.00754567 0.00369819
v -0.01027944 0.00754566 0.00246014
v -0.00779794 0.00754566 0.00148282
v -0.00522587 0.00754565 0.00077753
v -0.00259295 0.00754564 0.00035242
v 0.00007039 0.00754564 0.00021241
v 0.00273337 0.00754564 0.00035910
v 0.00536521 0.00754564 0.00079080
v 0.00793551 0.00754565 0.00150253
v 0.01041455 0.00754565 0.00248606
v 0.01277369 0.00754566 0.00373002
v 0.01498566 0.00754567 0.00522004
v 0.01702491 0.00754568 0.00693890
v 0.01886785 0.00754570 0.00886673
v 0.02049320 0.00754571 0.01098126
v 0.02188217 0.00754573 0.01325804
v 0.02301871 0.00754574 0.01567077
v 0.02388969 0.00754576 0.01819156
v 0.02448503 0.00754578 0.02079128
v 0.02479787 0.00754580 0.02343989
v 0.02482457 0.00754582 0.02610677
v 0.02456484 0.00754584 0.02876111
v 0.02402168 0.00754586 0.03137224
v 0.02320136 0.00754587 0.03390996
v 0.02211337 0.00754589 0.03634497
v 0.02071523 0.00762726 0.03861293
v -0.02182414 0.00745796 0.01317620
v -0.02042626 0.00745794 0.01089768
v -0.01879187 0.00745793 0.00878238
v -0.01693986 0.00745791 0.00685475
v -0.01489162 0.00745790 0.00513707
v -0.01267083 0.00745789 0.00364919
v -0.01030315 0.00745788 0.00240830
v -0.00781595 0.00745787 0.00142873
v -0.00523797 0.00745786 0.00072183
v -0.00259900 0.00745786 0.00029574
v 0.00007046 0.00745786 0.00015540
v 0.00273956 0.00745786 0.00030243
v 0.00537745 0.00745786 0.00073512
v 0.00795365 0.00745786 0.00144849
v 0.01043839 0.00745787 0.00243428
v 0.01280295 0.00745788 0.00368110
v 0.01502001 0.00745789 0.00517454
v 0.01706394 0.00745790 0.00689735
v 0.01891112 0.00745791 0.00882961
v 0.02054020 0.00745793 0.01094900
v 0.02193236 0.00745794 0.01323101
v 0.02307152 0.00745796 0.01564929
v 0.02394449 0.00745798 0.01817587
v 0.02454120 0.00745799 0.02078156
v 0.02485476 0.00745801 0.02343626
v 0.02488153 0.00745803 0.02610927
v 0.02462120 0.00745805 0.02876971
v 0.02407679 0.00745807 0.03138683
v 0.02325459 0.00745809 0.03393039
v 0.02216409 0.00745811 0.03637099
v 0.02077027 0.00754591 0.03864911
v -0.02186592 0.00736470 0.01315356
v -0.02046537 0.00736468 0.01087069
v -0.01882786 0.00736466 0.00875135
v -0.01697231 0.00736465 0.00682004
v -0.01492016 0.00736464 0.00509907
v -0.01269512 0.00736462 0.00360835
v -0.01032292 0.00736461 0.00236508
v -0.00783096 0.00736461 0.00138365
v -0.00524806 0.00736460 0.00067539
v -0.00260404 0.00736460 0.00024849
v 0.00007052 0.00736459 0.00010788
v 0.00274472 0.00736459 0.00025519
v 0.00538765 0.00736459 0.00068871
v 0.00796878 0.00736460 0.00140344
v 0.01045827 0.00736460 0.00239111
v 0.01282735 0.00736461 0.00364032
v 0.01504864 0.00736462 0.00513662
v 0.01709647 0.00736463 0.00686272
v 0.01894718 0.00736465 0.00879867
v 0.02057938 0.00736466 0.01092210
v 0.02197420 0.00736468 0.01320848
v 0.02311553 0.00736469 0.01563138
v 0.02399018 0.00736471 0.01816279
v 0.02458803 0.00736473 0.02077346
v 0.02490218 0.00736475 0.02343323
v 0.02492900 0.00736477 0.02611135
v 0.02466818 0.00736479 0.02877687
v 0.02412273 0.00736481 0.03139900
v 0.02329895 0.00736483 0.03394741
v 0.02220638 0.00736484 0.03639268
v 0.02081791 0.00745813 0.03868043
v -0.02189890 0.00726698 0.01313569
v -0.02049625 0.00726696 0.01084938
v -0.01885627 0.00726695 0.00872685
v -0.01699792 0.00726693 0.00679263
v -0.01494268 0.00726692 0.00506908
v -0.01271429 0.00726690 0.00357611
v -0.01033852 0.00726689 0.00233097
v -0.00784281 0.00726689 0.00134806
v -0.00525602 0.00726688 0.00063873
v -0.00260802 0.00726688 0.00021119
v 0.00007056 0.00726687 0.00007037
v 0.00274879 0.00726687 0.00021790
v 0.00539570 0.00726687 0.00065208
v 0.00798072 0.00726688 0.00136788
v 0.01047395 0.00726688 0.00235704
v 0.01284660 0.00726689 0.00360813
v 0.01507124 0.00726690 0.00510668
v 0.01712215 0.00726691 0.00683538
v 0.01897565 0.00726693 0.00877425
v 0.02061031 0.00726694 0.01090088
v 0.02200723 0.00726696 0.01319070
v 0.02315028 0.00726697 0.01561724
v 0.02402624 0.00726699 0.01815246
v 0.02462499 0.00726701 0.02076707
v 0.02493962 0.00726703 0.02343084
v 0.02496648 0.00726705 0.02611299
v 0.02470526 0.00726707 0.02878253
v 0.02415899 0.00726709 0.03140860
v 0.02333397 0.00726711 0.03396086
v 0.02223975 0.00726713 0.03640980
v 0.02085762 0.00736486 0.03870653
v -0.02192272 0.00716587 0.01312279
v -0.02051854 0.00716586 0.01083400
v -0.01887678 0.00716584 0.00870916
v -0.01701642 0.00716582 0.00677284
v -0.01495894 0.00716581 0.00504742
v -0.01272814 0.00716580 0.00355282
v -0.01034979 0.00716579 0.00230633
v -0.00785137 0.00716578 0.00132235
v -0.00526177 0.00716577 0.00061226
v -0.00261090 0.00716577 0.00018425
v 0.00007060 0.00716577 0.00004328
v 0.00275173 0.00716577 0.00019097
v 0.00540152 0.00716577 0.00062562
v 0.00798934 0.00716577 0.00134220
v 0.01048528 0.00716578 0.00233243
v 0.01286051 0.00716579 0.00358488
v 0.01508756 0.00716580 0.00508506
v 0.01714070 0.00716581 0.00681563
v 0.01899621 0.00716582 0.00875661
v 0.02063264 0.00716584 0.01088555
v 0.02203108 0.00716585 0.01317785
v 0.02317537 0.00716587 0.01560703
v 0.02405228 0.00716589 0.01814500
v 0.02465169 0.00716591 0.02076245
v 0.02496665 0.00716592 0.02342911
v 0.02499354 0.00716594 0.02611418
v 0.02473204 0.00716596 0.02878661
v 0.02418518 0.00716598 0.03141553
v 0.02335927 0.00716600 0.03397056
v 0.02226385 0.00716602 0.03642217
v 0.02088896 0.00726714 0.03872714
v -0.02053202 0.00706247 0.01082470
v -0.01888918 0.00706246 0.00869847
v -0.01702760 0.00706244 0.00676088
v -0.01496878 0.00706243 0.00503432
v -0.01273651 0.00706242 0.00353875
v -0.01035660 0.00706241 0.00229144
v -0.00785654 0.00706240 0.00130682
v -0.00526524 0.00706239 0.00059626
v -0.00261263 0.00706239 0.00016797
v 0.00007062 0.00706238 0.00002690
v 0.00275351 0.00706238 0.00017469
v 0.00540504 0.00706239 0.00060962
v 0.00799455 0.00706239 0.00132668
v 0.01049213 0.00706240 0.00231756
v 0.01286891 0.00706240 0.00357082
v 0.01509742 0.00706241 0.00507199
v 0.01715191 0.00706243 0.00680370
v 0.01900864 0.00706244 0.00874594
v 0.02064614 0.00706245 0.01087628
v 0.02204550 0.00706247 0.01317009
v 0.02319054 0.00706249 0.01560086
v 0.02406802 0.00706250 0.01814050
v 0.02466782 0.00706252 0.02075966
v 0.02498299 0.00706254 0.02342807
v 0.02500990 0.00706256 0.02611489
v 0.02474823 0.00706258 0.02878908
v 0.02420101 0.00706260 0.03141973
v 0.02337455 0.00706262 0.03397643
v 0.02227842 0.00706264 0.03642964
v -0.02130243 0.00795797 0.01408135
v 0.01977365 0.00795813 0.03864897
v 0.02009424 0.00795812 0.03820471
v 0.02091160 0.00716604 0.03874202
v -0.01888919 -0.00714660 0.00869857
v -0.02053203 -0.00714658 0.01082480
v -0.01702761 -0.00714662 0.00676098
v -0.01496878 -0.00714663 0.00503443
v -0.01273652 -0.00714664 0.00353885
v -0.01035661 -0.00714665 0.00229155
v -0.00785655 -0.00714666 0.00130692
v -0.00526525 -0.00714667 0.00059636
v -0.00261264 -0.00714667 0.00016807
v 0.00007061 -0.00714667 0.00002701
v 0.00275350 -0.00714667 0.00017479
v 0.00540503 -0.00714667 0.00060973
v 0.00799454 -0.00714667 0.00132678
v 0.01049212 -0.00714666 0.00231766
v 0.01286890 -0.00714665 0.00357093
v 0.01509741 -0.00714664 0.00507209
v 0.01715191 -0.00714663 0.00680380
v 0.01900863 -0.00714662 0.00874605
v 0.02064613 -0.00714660 0.01087638
v 0.02204549 -0.00714659 0.01317019
v 0.02319053 -0.00714657 0.01560096
v 0.02406802 -0.00714655 0.01814060
v 0.02466781 -0.00714653 0.02075976
v 0.02498299 -0.00714652 0.02342817
v 0.02500989 -0.00714650 0.02611499
v 0.02474822 -0.00714648 0.02878918
v 0.02420100 -0.00714646 0.03141983
v 0.02337455 -0.00714644 0.03397653
v 0.02227842 -0.00714642 0.03642975
v -0.02051855 -0.00724997 0.01083410
v -0.01887679 -0.00724998 0.00870927
v -0.01701643 -0.00725000 0.00677295
v -0.01495895 -0.00725001 0.00504752
v -0.01272815 -0.00725002 0.00355293
v -0.01034980 -0.00725003 0.00230644
v -0.00785138 -0.00725004 0.00132246
v -0.00526177 -0.00725005 0.00061236
v -0.00261091 -0.00725005 0.00018435
v 0.00007059 -0.00725006 0.00004338
v 0.00275173 -0.00725006 0.00019107
v 0.00540151 -0.00725005 0.00062572
v 0.00798933 -0.00725005 0.00134230
v 0.01048528 -0.00725004 0.00233254
v 0.01286050 -0.00725004 0.00358498
v 0.01508755 -0.00725003 0.00508516
v 0.01714069 -0.00725002 0.00681573
v 0.01899620 -0.00725000 0.00875671
v 0.02063263 -0.00724999 0.01088565
v 0.02203107 -0.00724997 0.01317796
v 0.02317536 -0.00724995 0.01560713
v 0.02405228 -0.00724994 0.01814511
v 0.02465168 -0.00724992 0.02076255
v 0.02496664 -0.00724990 0.02342922
v 0.02499353 -0.00724988 0.02611428
v 0.02473203 -0.00724986 0.02878672
v 0.02418517 -0.00724984 0.03141564
v 0.02335926 -0.00724982 0.03397067
v -0.02189891 -0.00735106 0.01313580
v -0.02192273 -0.00724995 0.01312289
v -0.02049625 -0.00735107 0.01084949
v -0.01885628 -0.00735109 0.00872696
v -0.01699793 -0.00735110 0.00679274
v -0.01494268 -0.00735112 0.00506918
v -0.01271430 -0.00735113 0.00357621
v -0.01033853 -0.00735114 0.00233107
v -0.00784282 -0.00735115 0.00134816
v -0.00525602 -0.00735115 0.00063884
v -0.00260803 -0.00735116 0.00021129
v 0.00007056 -0.00735116 0.00007047
v 0.00274878 -0.00735116 0.00021800
v 0.00539570 -0.00735116 0.00065218
v 0.00798071 -0.00735116 0.00136799
v 0.01047395 -0.00735115 0.00235715
v 0.01284659 -0.00735114 0.00360823
v 0.01507123 -0.00735113 0.00510678
v 0.01712215 -0.00735112 0.00683548
v 0.01897564 -0.00735111 0.00877435
v 0.02061030 -0.00735109 0.01090098
v 0.02200722 -0.00735108 0.01319080
v 0.02315027 -0.00735106 0.01561734
v 0.02402623 -0.00735104 0.01815257
v 0.02462498 -0.00735102 0.02076717
v 0.02493961 -0.00735100 0.02343094
v 0.02496647 -0.00735098 0.02611310
v 0.02470525 -0.00735097 0.02878263
v 0.02415898 -0.00735095 0.03140870
v 0.02333397 -0.00735093 0.03396096
v 0.02226385 -0.00724980 0.03642227
v 0.02223974 -0.00735091 0.03640991
v 0.02091160 -0.00724979 0.03874212
v -0.02186593 -0.00744878 0.01315367
v -0.02046538 -0.00744879 0.01087080
v -0.01882787 -0.00744881 0.00875146
v -0.01697231 -0.00744882 0.00682015
v -0.01492016 -0.00744884 0.00509918
v -0.01269513 -0.00744885 0.00360845
v -0.01032293 -0.00744886 0.00236519
v -0.00783097 -0.00744887 0.00138375
v -0.00524806 -0.00744887 0.00067549
v -0.00260405 -0.00744888 0.00024859
v 0.00007051 -0.00744888 0.00010798
v 0.00274471 -0.00744888 0.00025529
v 0.00538765 -0.00744888 0.00068882
v 0.00796877 -0.00744887 0.00140355
v 0.01045826 -0.00744887 0.00239122
v 0.01282734 -0.00744886 0.00364042
v 0.01504863 -0.00744885 0.00513672
v 0.01709646 -0.00744884 0.00686282
v 0.01894717 -0.00744883 0.00879878
v 0.02057937 -0.00744881 0.01092221
v 0.02197420 -0.00744880 0.01320859
v 0.02311553 -0.00744878 0.01563148
v 0.02399017 -0.00744876 0.01816289
v 0.02458802 -0.00744874 0.02077357
v 0.02490217 -0.00744872 0.02343333
v 0.02492899 -0.00744870 0.02611145
v 0.02466817 -0.00744869 0.02877698
v 0.02412272 -0.00744867 0.03139910
v 0.02329895 -0.00744865 0.03394752
v 0.02220637 -0.00744863 0.03639279
v 0.02088896 -0.00735089 0.03872724
v -0.02182415 -0.00754204 0.01317631
v -0.02042627 -0.00754206 0.01089779
v -0.01879188 -0.00754207 0.00878249
v -0.01693987 -0.00754209 0.00685486
v -0.01489163 -0.00754210 0.00513718
v -0.01267084 -0.00754211 0.00364930
v -0.01030316 -0.00754212 0.00240840
v -0.00781596 -0.00754213 0.00142884
v -0.00523798 -0.00754214 0.00072193
v -0.00259901 -0.00754214 0.00029585
v 0.00007045 -0.00754214 0.00015551
v 0.00273955 -0.00754214 0.00030253
v 0.00537744 -0.00754214 0.00073523
v 0.00795365 -0.00754214 0.00144860
v 0.01043839 -0.00754213 0.00243439
v 0.01280295 -0.00754212 0.00368121
v 0.01502000 -0.00754211 0.00517465
v 0.01706393 -0.00754210 0.00689746
v 0.01891111 -0.00754209 0.00882972
v 0.02054019 -0.00754207 0.01094911
v 0.02193236 -0.00754206 0.01323112
v 0.02307151 -0.00754204 0.01564939
v 0.02394449 -0.00754202 0.01817598
v 0.02454120 -0.00754201 0.02078167
v 0.02485475 -0.00754199 0.02343636
v 0.02488152 -0.00754197 0.02610938
v 0.02462119 -0.00754195 0.02876982
v 0.02407678 -0.00754193 0.03138694
v 0.02325458 -0.00754191 0.03393050
v 0.02216409 -0.00754189 0.03637110
v 0.02085761 -0.00744861 0.03870664
v -0.02177402 -0.00762982 0.01320346
v -0.02037935 -0.00762984 0.01093017
v -0.01874871 -0.00762986 0.00881972
v -0.01690094 -0.00762987 0.00689651
v -0.01485740 -0.00762988 0.00518277
v -0.01264170 -0.00762990 0.00369830
v -0.01027945 -0.00762991 0.00246025
v -0.00779795 -0.00762991 0.00148293
v -0.00522588 -0.00762992 0.00077764
v -0.00259296 -0.00762993 0.00035253
v 0.00007038 -0.00762993 0.00021252
v 0.00273336 -0.00762993 0.00035921
v 0.00536521 -0.00762993 0.00079091
v 0.00793550 -0.00762992 0.00150264
v 0.01041454 -0.00762992 0.00248617
v 0.01277368 -0.00762991 0.00373013
v 0.01498566 -0.00762990 0.00522015
v 0.01702490 -0.00762989 0.00693901
v 0.01886784 -0.00762987 0.00886684
v 0.02049319 -0.00762986 0.01098137
v 0.02188216 -0.00762984 0.01325815
v 0.02301871 -0.00762983 0.01567088
v 0.02388968 -0.00762981 0.01819167
v 0.02448502 -0.00762979 0.02079139
v 0.02479786 -0.00762977 0.02344000
v 0.02482457 -0.00762975 0.02610688
v 0.02456484 -0.00762973 0.02876122
v 0.02402168 -0.00762971 0.03137235
v 0.02320136 -0.00762970 0.03391007
v 0.02211336 -0.00762968 0.03634508
v 0.02081790 -0.00754187 0.03868054
v -0.02171610 -0.00771117 0.01323484
v -0.02032514 -0.00771118 0.01096758
v -0.01869882 -0.00771120 0.00886274
v -0.01685596 -0.00771122 0.00694464
v -0.01481784 -0.00771123 0.00523545
v -0.01260803 -0.00771124 0.00375491
v -0.01025205 -0.00771125 0.00252015
v -0.00777714 -0.00771126 0.00154543
v -0.00521190 -0.00771127 0.00084201
v -0.00258597 -0.00771127 0.00041803
v 0.00007030 -0.00771127 0.00027839
v 0.00272621 -0.00771127 0.00042469
v 0.00535106 -0.00771127 0.00085525
v 0.00791454 -0.00771127 0.00156509
v 0.01038700 -0.00771126 0.00254601
v 0.01273987 -0.00771125 0.00378667
v 0.01494597 -0.00771124 0.00527273
v 0.01697980 -0.00771123 0.00698702
v 0.01881785 -0.00771122 0.00890974
v 0.02043889 -0.00771120 0.01101865
v 0.02182417 -0.00771119 0.01328939
v 0.02295769 -0.00771117 0.01569571
v 0.02382635 -0.00771115 0.01820981
v 0.02442012 -0.00771114 0.02080262
v 0.02473212 -0.00771112 0.02344420
v 0.02475876 -0.00771110 0.02610400
v 0.02449972 -0.00771108 0.02875129
v 0.02395800 -0.00771106 0.03135548
v 0.02313986 -0.00771104 0.03388647
v 0.02205475 -0.00771102 0.03631501
v 0.02077027 -0.00762966 0.03864922
v -0.02165103 -0.00778518 0.01327010
v -0.02026422 -0.00778520 0.01100962
v -0.01864277 -0.00778522 0.00891108
v -0.01680542 -0.00778523 0.00699871
v -0.01477340 -0.00778524 0.00529463
v -0.01257020 -0.00778526 0.00381853
v -0.01022127 -0.00778527 0.00258746
v -0.00775376 -0.00778527 0.00161565
v -0.00519619 -0.00778528 0.00091434
v -0.00257812 -0.00778529 0.00049163
v 0.00007020 -0.00778529 0.00035240
v 0.00271817 -0.00778529 0.00049827
v 0.00533517 -0.00778529 0.00092754
v 0.00789098 -0.00778528 0.00163525
v 0.01035604 -0.00778528 0.00261324
v 0.01270188 -0.00778527 0.00385019
v 0.01490138 -0.00778526 0.00533180
v 0.01692912 -0.00778525 0.00704097
v 0.01876168 -0.00778523 0.00895793
v 0.02037786 -0.00778522 0.01106054
v 0.02175900 -0.00778520 0.01332448
v 0.02288914 -0.00778519 0.01572361
v 0.02375520 -0.00778517 0.01823018
v 0.02434719 -0.00778515 0.02081524
v 0.02465826 -0.00778513 0.02344892
v 0.02468481 -0.00778511 0.02610076
v 0.02442655 -0.00778509 0.02874014
v 0.02388645 -0.00778507 0.03133654
v 0.02307076 -0.00778506 0.03385996
v 0.02198890 -0.00778504 0.03628123
v 0.02071522 -0.00771100 0.03861304
v -0.02157950 -0.00785105 0.01330885
v -0.02019727 -0.00785107 0.01105583
v -0.01858117 -0.00785109 0.00896420
v -0.01674988 -0.00785110 0.00705814
v -0.01472456 -0.00785111 0.00535968
v -0.01252862 -0.00785113 0.00388844
v -0.01018743 -0.00785114 0.00266144
v -0.00772806 -0.00785114 0.00169283
v -0.00517893 -0.00785115 0.00099384
v -0.00256949 -0.00785116 0.00057252
v 0.00007010 -0.00785116 0.00043375
v 0.00270934 -0.00785116 0.00057913
v 0.00531771 -0.00785116 0.00100699
v 0.00786509 -0.00785115 0.00171237
v 0.01032202 -0.00785115 0.00268713
v 0.01266013 -0.00785114 0.00392000
v 0.01485237 -0.00785113 0.00539673
v 0.01687343 -0.00785112 0.00710026
v 0.01869994 -0.00785110 0.00901090
v 0.02031080 -0.00785109 0.01110657
v 0.02168738 -0.00785107 0.01336305
v 0.02281379 -0.00785106 0.01575427
v 0.02367700 -0.00785104 0.01825258
v 0.02426703 -0.00785102 0.02082912
v 0.02457708 -0.00785100 0.02345410
v 0.02460355 -0.00785098 0.02609721
v 0.02434613 -0.00785096 0.02872788
v 0.02380781 -0.00785095 0.03131571
v 0.02299481 -0.00785093 0.03383081
v 0.02191652 -0.00785091 0.03624410
v 0.02065337 -0.00778502 0.03857238
v -0.02150232 -0.00790806 0.01335067
v -0.02012502 -0.00790808 0.01110569
v -0.01851469 -0.00790810 0.00902153
v -0.01668993 -0.00790811 0.00712228
v -0.01467185 -0.00790812 0.00542988
v -0.01248375 -0.00790814 0.00396390
v -0.01015092 -0.00790815 0.00274127
v -0.00770033 -0.00790815 0.00177613
v -0.00516030 -0.00790816 0.00107962
v -0.00256017 -0.00790816 0.00065981
v 0.00006999 -0.00790817 0.00052153
v 0.00269980 -0.00790817 0.00066640
v 0.00529887 -0.00790817 0.00109272
v 0.00783715 -0.00790816 0.00179559
v 0.01028531 -0.00790816 0.00276687
v 0.01261507 -0.00790815 0.00399534
v 0.01479949 -0.00790814 0.00546680
v 0.01681333 -0.00790813 0.00716425
v 0.01863332 -0.00790811 0.00906807
v 0.02023842 -0.00790810 0.01115625
v 0.02161009 -0.00790808 0.01340468
v 0.02273248 -0.00790807 0.01578735
v 0.02359260 -0.00790805 0.01827675
v 0.02418053 -0.00790803 0.02084408
v 0.02448947 -0.00790801 0.02345970
v 0.02451584 -0.00790799 0.02609337
v 0.02425935 -0.00790797 0.02871464
v 0.02372295 -0.00790796 0.03129324
v 0.02291285 -0.00790794 0.03379936
v 0.02183841 -0.00790792 0.03620404
v 0.02058540 -0.00785089 0.03852770
v -0.02142032 -0.00795558 0.01339510
v -0.02004826 -0.00795560 0.01115866
v -0.01844406 -0.00795562 0.00908244
v -0.01662625 -0.00795563 0.00719041
v -0.01461584 -0.00795564 0.00550446
v -0.01243608 -0.00795565 0.00404406
v -0.01011213 -0.00795566 0.00282608
v -0.00767087 -0.00795567 0.00186461
v -0.00514050 -0.00795568 0.00117076
v -0.00255028 -0.00795568 0.00075255
v 0.00006988 -0.00795569 0.00061480
v 0.00268968 -0.00795569 0.00075911
v 0.00527885 -0.00795568 0.00118381
v 0.00780746 -0.00795568 0.00188400
v 0.01024631 -0.00795567 0.00285158
v 0.01256719 -0.00795567 0.00407538
v 0.01474330 -0.00795566 0.00554124
v 0.01674948 -0.00795565 0.00723222
v 0.01856254 -0.00795563 0.00912880
v 0.02016153 -0.00795562 0.01120903
v 0.02152798 -0.00795560 0.01344890
v 0.02264609 -0.00795559 0.01582251
v 0.02350294 -0.00795557 0.01830242
v 0.02408863 -0.00795555 0.02085999
v 0.02439640 -0.00795553 0.02346565
v 0.02442267 -0.00795551 0.02608929
v 0.02416715 -0.00795549 0.02870059
v 0.02363280 -0.00795548 0.03126937
v 0.02282578 -0.00795546 0.03376595
v 0.02175543 -0.00795544 0.03616147
v 0.02051204 -0.00790790 0.03847948
v -0.02133440 -0.00799309 0.01344165
v -0.01996783 -0.00799311 0.01121417
v -0.01837006 -0.00799313 0.00914625
v -0.01655953 -0.00799314 0.00726181
v -0.01455717 -0.00799315 0.00558260
v -0.01238613 -0.00799316 0.00412805
v -0.01007149 -0.00799317 0.00291495
v -0.00764000 -0.00799318 0.00195733
v -0.00511977 -0.00799319 0.00126626
v -0.00253991 -0.00799319 0.00084971
v 0.00006975 -0.00799320 0.00071252
v 0.00267906 -0.00799320 0.00085625
v 0.00525787 -0.00799319 0.00127926
v 0.00777636 -0.00799319 0.00197664
v 0.01020544 -0.00799318 0.00294035
v 0.01251704 -0.00799318 0.00415924
v 0.01468443 -0.00799317 0.00561923
v 0.01668257 -0.00799316 0.00730345
v 0.01848837 -0.00799314 0.00919243
v 0.02008097 -0.00799313 0.01126434
v 0.02144195 -0.00799311 0.01349523
v 0.02255558 -0.00799310 0.01585934
v 0.02340900 -0.00799308 0.01832932
v 0.02399235 -0.00799306 0.02087665
v 0.02429888 -0.00799304 0.02347188
v 0.02432504 -0.00799302 0.02608501
v 0.02407055 -0.00799300 0.02868586
v 0.02353833 -0.00799299 0.03124435
v 0.02273455 -0.00799297 0.03373094
v 0.02166848 -0.00799295 0.03611687
v 0.02043411 -0.00795542 0.03842825
v -0.02124550 -0.00802018 0.01348981
v -0.01988462 -0.00802020 0.01127160
v -0.01829349 -0.00802022 0.00921228
v -0.01649049 -0.00802023 0.00733567
v -0.01449646 -0.00802024 0.00566345
v -0.01233445 -0.00802026 0.00421495
v -0.01002943 -0.00802027 0.00300689
v -0.00760806 -0.00802027 0.00205326
v -0.00509831 -0.00802028 0.00136506
v -0.00252918 -0.00802028 0.00095025
v 0.00006963 -0.00802029 0.00081362
v 0.00266808 -0.00802029 0.00095676
v 0.00523616 -0.00802028 0.00137800
v 0.00774418 -0.00802028 0.00207249
v 0.01016316 -0.00802028 0.00303219
v 0.01246514 -0.00802027 0.00424601
v 0.01462352 -0.00802026 0.00569993
v 0.01661335 -0.00802025 0.00737714
v 0.01841164 -0.00802023 0.00925826
v 0.01999761 -0.00802022 0.01132156
v 0.02135293 -0.00802020 0.01354317
v 0.02246193 -0.00802019 0.01589744
v 0.02331180 -0.00802017 0.01835716
v 0.02389272 -0.00802015 0.02089389
v 0.02419797 -0.00802013 0.02347832
v 0.02422403 -0.00802012 0.02608059
v 0.02397060 -0.00802010 0.02867062
v 0.02344060 -0.00802008 0.03121847
v 0.02264016 -0.00802006 0.03369471
v 0.02157852 -0.00802004 0.03607072
v 0.02035245 -0.00799293 0.03837457
v -0.02115460 -0.00803656 0.01353906
v -0.01979953 -0.00803658 0.01133032
v -0.01821520 -0.00803659 0.00927980
v -0.01641990 -0.00803661 0.00741120
v -0.01443438 -0.00803662 0.00574612
v -0.01228160 -0.00803663 0.00430380
v -0.00998643 -0.00803664 0.00310091
v -0.00757540 -0.00803665 0.00215135
v -0.00507637 -0.00803665 0.00146609
v -0.00251821 -0.00803666 0.00105305
v 0.00006950 -0.00803666 0.00091701
v 0.00265686 -0.00803666 0.00105953
v 0.00521397 -0.00803666 0.00147898
v 0.00771128 -0.00803665 0.00217050
v 0.01011992 -0.00803665 0.00312610
v 0.01241207 -0.00803664 0.00433474
v 0.01456123 -0.00803663 0.00578244
v 0.01654257 -0.00803662 0.00745249
v 0.01833318 -0.00803661 0.00932558
v 0.01991237 -0.00803659 0.01138006
v 0.02126190 -0.00803658 0.01359219
v 0.02236617 -0.00803656 0.01593641
v 0.02321241 -0.00803655 0.01838562
v 0.02379085 -0.00803653 0.02091151
v 0.02409480 -0.00803651 0.02348491
v 0.02412075 -0.00803649 0.02607607
v 0.02386840 -0.00803647 0.02865503
v 0.02334066 -0.00803645 0.03119201
v 0.02254364 -0.00803643 0.03365767
v 0.02148654 -0.00803642 0.03602353
v 0.02026797 -0.00802003 0.03831903
v -0.02035079 -0.00804205 0.01242845
v -0.01971350 -0.00804205 0.01138969
v -0.01869641 -0.00804206 0.01007333
v -0.01813603 -0.00804207 0.00934806
v -0.01660433 -0.00804208 0.00775382
v -0.01725420 -0.00804208 0.00843023
v -0.01634852 -0.00804208 0.00748757
v -0.01480163 -0.00804209 0.00619032
v -0.01437162 -0.00804210 0.00582971
v -0.01231161 -0.00804211 0.00444955
v -0.01356427 -0.00804210 0.00528880
v -0.01222817 -0.00804211 0.00439365
v -0.00754238 -0.00804212 0.00225052
v -0.00505418 -0.00804213 0.00156823
v 0.00006937 -0.00804214 0.00102153
v -0.00153266 -0.00804214 0.00110576
v 0.00134338 -0.00804214 0.00109171
v 0.00264551 -0.00804214 0.00116344
v 0.00519153 -0.00804214 0.00158107
v 0.00638826 -0.00804213 0.00191245
v 0.00767801 -0.00804213 0.00226959
v 0.01007621 -0.00804213 0.00322105
v 0.01235842 -0.00804212 0.00442444
v 0.01449826 -0.00804211 0.00586587
v 0.01647100 -0.00804210 0.00752868
v 0.01813759 -0.00804209 0.00927203
v 0.01825385 -0.00804209 0.00939365
v 0.02116987 -0.00804206 0.01364176
v 0.02226935 -0.00804204 0.01597581
v 0.02311192 -0.00804202 0.01841439
v 0.02399049 -0.00804199 0.02349158
v 0.02385970 -0.00804196 0.02767210
v 0.02376506 -0.00804195 0.02863928
v 0.02400654 -0.00804197 0.02617145
v 0.02323961 -0.00804193 0.03116525
v 0.02365077 -0.00804195 0.02918872
v 0.02283754 -0.00804192 0.03240911
v 0.02244605 -0.00804191 0.03362022
v 0.02312605 -0.00804193 0.03151657
v 0.02139353 -0.00804190 0.03597582
v 0.02207215 -0.00804191 0.03445702
v 0.02018158 -0.00803640 0.03826225
v 0.02009423 -0.00804188 0.03820483
v 0.02077982 -0.00804189 0.03702868
v -0.02130244 -0.00804203 0.01408146
v -0.02106269 -0.00804204 0.01358885
v 0.01977364 -0.00804188 0.03864908
v 0.02401632 -0.00804197 0.02607149
v 0.02368785 -0.00804201 0.02092934
v 0.01982620 -0.00804207 0.01143922
v -0.00250712 -0.00804214 0.00115699
v -0.00994296 -0.00804212 0.00319597
f 8 1 27
f 1199 1159 1122
f 92 25 16
f 16 94 92
f 17 94 16
f 19 28 26
f 20 28 19
f 24 36 23
f 32 21 22
f 1142 1178 1141
f 721 720 226
f 379 378 348
f 409 378 379
f 15 25 90
f 25 92 90
f 19 26 98
f 98 18 19
f 8 27 7
f 34 32 22
f 22 23 34
f 34 23 36
f 30 20 21
f 21 32 30
f 28 20 30
f 1112 1144 1143
f 1143 1144 1180
f 1143 1142 1112
f 1180 1142 1143
f 1141 1178 1196
f 1178 1142 1195
f 799 800 831
f 617 649 648
f 732 190 189
f 553 584 552
f 885 917 916
f 1004 1035 1003
f 202 209 693
f 920 889 890
f 1066 1035 1067
f 1067 1035 1036
f 1036 1037 1067
f 1120 1155 1154
f 1119 1150 1149
f 1151 1150 1119
f 1119 1088 1120
f 1026 1057 1025
f 222 220 721
f 721 226 222
f 688 223 225
f 962 127 931
f 931 963 962
f 123 120 125
f 125 127 123
f 120 931 125
f 125 931 127
f 997 1029 1028
f 750 720 721
f 410 409 379
f 410 441 409
f 410 411 441
f 440 441 471
f 409 441 440
f 472 503 471
f 471 441 472
f 379 348 380
f 380 410 379
f 411 410 380
f 412 411 380
f 468 438 469
f 531 530 499
f 468 469 499
f 499 467 468
f 591 111 560
f 591 622 111
f 717 718 231
f 231 719 717
f 776 777 808
f 99 718 103
f 414 444 413
f 94 17 96
f 17 18 96
f 18 98 96
f 35 2 3
f 11 7 29
f 29 31 11
f 29 7 27
f 617 616 586
f 431 399 400
f 89 13 14
f 97 1 8
f 8 9 97
f 737 171 172
f 171 737 176
f 177 703 173
f 796 766 797
f 797 828 796
f 615 614 584
f 646 614 615
f 160 163 706
f 552 584 583
f 584 614 583
f 705 163 167
f 706 163 705
f 167 166 705
f 706 705 676
f 676 705 675
f 676 677 706
f 646 677 676
f 1189 1187 1146
f 958 957 927
f 1146 1187 1145
f 1145 1184 1144
f 741 162 158
f 156 741 158
f 54 1054 58
f 60 58 1023
f 58 1054 1023
f 1022 1023 1054
f 1179 1142 1180
f 1016 1017 1048
f 1048 1080 1079
f 1017 1018 1048
f 1109 1139 1108
f 202 693 203
f 850 882 881
f 479 480 510
f 824 823 791
f 286 288 287
f 290 288 289
f 287 288 290
f 336 292 293
f 335 290 336
f 336 290 292
f 291 290 289
f 292 290 291
f 291 294 293
f 293 292 291
f 459 490 458
f 491 490 459
f 428 429 459
f 425 393 394
f 1040 1009 1041
f 1039 1009 1040
f 1040 1070 1039
f 917 885 886
f 855 823 824
f 855 886 885
f 1008 1039 1007
f 1008 1009 1039
f 823 855 854
f 854 855 885
f 916 917 947
f 729 758 728
f 204 201 728
f 1038 1037 1007
f 1007 1039 1038
f 1039 1070 1038
f 212 211 725
f 211 206 725
f 1036 1035 1005
f 1005 1035 1004
f 1005 1037 1036
f 881 882 912
f 942 912 943
f 1034 1003 1035
f 818 850 849
f 818 786 787
f 859 860 890
f 1137 1175 1197
f 1137 1197 1136
f 1136 1106 1137
f 1046 1015 1016
f 1015 1046 1014
f 1014 1044 1013
f 1105 1106 1136
f 1012 1013 1043
f 1013 1044 1043
f 1041 1042 1073
f 1042 1043 1073
f 1073 1043 1074
f 1171 1134 1172
f 1134 1173 1172
f 1136 1197 1135
f 1135 1173 1134
f 998 1029 997
f 1030 1029 998
f 1030 998 999
f 1163 1127 1162
f 1098 1097 1066
f 1066 1067 1098
f 1126 1127 1163
f 1096 1127 1126
f 1126 1095 1096
f 847 815 816
f 1002 971 1003
f 1002 1034 1033
f 1003 1034 1002
f 1151 1119 1153
f 1153 1119 1120
f 1156 1121 1122
f 1156 1155 1120
f 1120 1121 1156
f 1122 1121 1090
f 1090 1121 1120
f 1118 1117 1087
f 1149 1117 1118
f 1118 1119 1149
f 1087 1088 1118
f 1088 1119 1118
f 1087 1055 1056
f 1055 1025 1056
f 1056 1025 1057
f 1056 1088 1087
f 1056 1057 1088
f 1024 1025 1055
f 993 1024 124
f 993 127 962
f 993 124 127
f 441 411 442
f 687 688 225
f 687 656 657
f 658 687 657
f 688 687 658
f 969 999 968
f 968 937 969
f 838 807 808
f 869 110 838
f 110 807 838
f 1086 133 1055
f 1086 1055 1087
f 1087 1117 1086
f 1026 1025 995
f 809 840 808
f 808 777 809
f 747 718 717
f 717 719 747
f 777 776 747
f 747 778 777
f 748 719 720
f 748 747 719
f 778 747 748
f 840 809 841
f 224 687 225
f 719 231 227
f 874 875 906
f 562 530 531
f 562 561 530
f 623 624 655
f 470 469 438
f 501 469 470
f 471 501 470
f 470 440 471
f 692 662 693
f 475 444 476
f 507 475 476
f 506 475 507
f 500 501 531
f 500 469 501
f 531 499 500
f 500 499 469
f 529 499 530
f 529 561 560
f 530 561 529
f 233 231 718
f 233 718 99
f 100 103 105
f 101 103 100
f 259 262 261
f 476 444 445
f 444 414 445
f 415 445 414
f 11 31 6
f 31 4 6
f 21 11 6
f 6 4 22
f 22 21 6
f 33 4 31
f 3 4 33
f 33 35 3
f 308 342 341
f 404 373 50
f 342 373 404
f 398 429 428
f 293 338 337
f 367 336 337
f 337 336 293
f 368 398 367
f 399 398 368
f 367 337 368
f 368 337 338
f 368 338 339
f 400 399 368
f 553 522 554
f 617 586 587
f 461 493 492
f 492 491 461
f 12 93 5
f 5 93 10
f 16 12 5
f 5 17 16
f 5 10 17
f 91 93 12
f 12 13 91
f 91 13 89
f 95 9 10
f 10 93 95
f 95 97 9
f 175 176 736
f 736 176 737
f 179 175 736
f 736 737 766
f 766 765 736
f 672 641 642
f 174 173 703
f 174 703 169
f 921 920 890
f 952 951 921
f 921 951 920
f 890 860 891
f 891 921 890
f 922 921 891
f 952 921 953
f 953 921 922
f 766 737 738
f 172 168 738
f 738 737 172
f 738 168 164
f 164 739 738
f 828 797 829
f 860 859 829
f 829 859 828
f 954 953 922
f 159 161 708
f 165 739 164
f 704 166 170
f 704 705 166
f 170 169 704
f 169 703 704
f 645 614 646
f 646 676 645
f 612 581 613
f 612 580 581
f 1187 1189 1191
f 1191 1189 1190
f 38 41 42
f 1051 1019 1020
f 957 958 988
f 1180 1144 1183
f 1144 1182 1183
f 1144 1184 1186
f 1186 1182 1144
f 1184 1145 1185
f 1114 1145 1144
f 1146 1145 1114
f 770 800 799
f 865 864 833
f 896 864 865
f 959 958 927
f 741 156 742
f 771 770 742
f 742 770 741
f 960 959 929
f 1085 1022 1054
f 1085 54 53
f 1054 54 1085
f 1176 1139 1177
f 1177 1139 1196
f 1112 1142 1111
f 1111 1080 1112
f 1111 1142 1141
f 1112 1080 1081
f 1081 1082 1112
f 1081 1051 1082
f 1018 1019 1049
f 1049 1048 1018
f 1080 1048 1049
f 895 894 864
f 895 896 927
f 864 896 895
f 800 833 832
f 832 833 864
f 832 831 800
f 1181 1195 1142
f 1142 1179 1181
f 1141 1109 1110
f 1110 1109 1079
f 1110 1111 1141
f 1079 1080 1110
f 1080 1111 1110
f 1016 1048 1047
f 1047 1046 1016
f 1196 1139 1140
f 1139 1109 1140
f 1141 1196 1140
f 1140 1109 1141
f 649 650 681
f 619 587 588
f 638 607 608
f 819 818 787
f 850 818 819
f 542 543 573
f 732 189 187
f 185 191 699
f 699 186 185
f 182 186 699
f 287 333 284
f 284 286 287
f 294 295 296
f 293 294 296
f 296 338 293
f 296 295 297
f 339 338 296
f 366 336 367
f 367 398 366
f 427 396 428
f 428 459 427
f 427 459 458
f 552 551 520
f 552 583 582
f 582 551 552
f 582 614 613
f 582 583 614
f 613 581 582
f 334 333 287
f 334 290 335
f 287 290 334
f 491 459 460
f 460 459 429
f 460 461 491
f 429 461 460
f 580 612 611
f 611 643 642
f 611 612 643
f 610 578 579
f 579 580 610
f 580 611 610
f 642 641 610
f 610 611 642
f 515 545 514
f 363 394 393
f 363 332 333
f 333 334 363
f 395 394 363
f 1070 1040 1071
f 977 1008 1007
f 1009 1008 977
f 946 947 977
f 822 791 823
f 850 819 820
f 820 819 787
f 1133 1134 1171
f 1171 1170 1133
f 1133 1170 1132
f 1102 1103 1133
f 1133 1103 1134
f 1131 1170 1169
f 1132 1170 1131
f 1101 1071 1102
f 1070 1071 1101
f 1102 1133 1101
f 1101 1133 1132
f 1101 1131 1100
f 1132 1131 1101
f 757 758 787
f 757 728 758
f 787 786 757
f 1069 1038 1070
f 1069 1101 1100
f 1070 1101 1069
f 1007 1037 1006
f 1037 1005 1006
f 1006 1005 975
f 1007 1006 976
f 976 1006 975
f 976 977 1007
f 946 977 945
f 977 976 945
f 816 815 783
f 783 752 753
f 207 693 209
f 210 692 207
f 207 692 693
f 212 725 724
f 753 752 724
f 913 912 882
f 882 883 913
f 880 850 881
f 849 850 880
f 973 1005 1004
f 1004 1003 973
f 1096 1095 1065
f 1033 1034 1065
f 1066 1097 1065
f 1065 1097 1096
f 1065 1035 1066
f 1065 1034 1035
f 951 982 950
f 889 920 888
f 1041 1009 1010
f 948 947 917
f 1176 1175 1138
f 1175 1137 1138
f 1138 1139 1176
f 1138 1137 1106
f 1077 1109 1108
f 1106 1105 1075
f 1075 1105 1074
f 1074 1043 1075
f 1075 1043 1044
f 1045 1014 1046
f 1045 1077 1076
f 1046 1077 1045
f 1044 1014 1045
f 1076 1075 1045
f 1045 1075 1044
f 1041 1073 1072
f 1072 1040 1041
f 1072 1071 1040
f 1072 1103 1102
f 1102 1071 1072
f 1174 1135 1197
f 1173 1135 1174
f 1104 1105 1136
f 1136 1135 1104
f 1074 1105 1104
f 1104 1073 1074
f 1103 1072 1104
f 1104 1072 1073
f 1134 1103 1104
f 1104 1135 1134
f 1123 1199 1122
f 1123 1160 1199
f 1124 1160 1123
f 936 937 967
f 967 937 968
f 967 935 936
f 968 999 967
f 967 999 998
f 967 998 997
f 1164 1162 1127
f 1097 1098 1128
f 1165 1164 1128
f 1128 1164 1127
f 1096 1097 1128
f 1128 1127 1096
f 1068 1067 1037
f 1068 1098 1067
f 1068 1069 1100
f 1037 1038 1068
f 1038 1069 1068
f 1198 1126 1163
f 1095 1126 1125
f 1125 1094 1095
f 1125 1198 1161
f 1126 1198 1125
f 1161 1160 1125
f 1125 1160 1124
f 1033 1065 1064
f 1064 1065 1095
f 908 876 877
f 970 1002 1001
f 971 1002 970
f 1001 969 970
f 1120 1154 1152
f 1152 1153 1120
f 1158 1156 1122
f 1122 1090 1091
f 1091 1123 1122
f 1092 1123 1091
f 1060 1028 1029
f 1060 1091 1090
f 1060 1029 1030
f 1030 1061 1060
f 1060 1061 1092
f 1092 1091 1060
f 1148 1117 1149
f 1148 1193 1117
f 124 1024 134
f 134 1024 1055
f 656 687 686
f 686 224 229
f 687 224 686
f 685 655 686
f 686 655 656
f 686 229 230
f 686 230 685
f 814 783 815
f 118 110 869
f 869 114 118
f 900 114 869
f 900 121 114
f 900 931 120
f 120 121 900
f 808 807 774
f 774 776 808
f 113 807 110
f 113 110 111
f 113 774 807
f 839 870 869
f 869 838 839
f 839 838 808
f 808 840 839
f 840 870 839
f 145 139 1117
f 145 1192 146
f 1193 1192 145
f 1117 1193 145
f 123 127 122
f 1089 1090 1120
f 1120 1088 1089
f 1088 1057 1089
f 963 964 994
f 964 995 994
f 994 995 1025
f 962 963 994
f 994 993 962
f 1025 1024 994
f 1024 993 994
f 965 995 964
f 871 870 840
f 871 841 872
f 840 841 871
f 963 931 932
f 932 964 963
f 718 747 746
f 746 747 776
f 746 103 718
f 719 227 228
f 228 226 720
f 720 719 228
f 873 874 904
f 749 748 720
f 778 748 749
f 720 750 749
f 778 811 810
f 810 811 841
f 810 841 809
f 777 778 810
f 810 809 777
f 875 874 843
f 780 750 781
f 750 751 781
f 813 780 781
f 781 814 813
f 781 751 752
f 721 220 722
f 722 750 721
f 722 751 750
f 906 875 907
f 875 876 907
f 907 937 906
f 907 876 908
f 684 655 685
f 684 101 100
f 230 232 684
f 685 230 684
f 684 232 147
f 147 101 684
f 439 470 438
f 440 470 439
f 408 409 439
f 409 440 439
f 534 564 533
f 563 593 562
f 563 562 531
f 565 564 534
f 596 564 565
f 595 564 596
f 595 596 627
f 595 563 564
f 349 380 348
f 348 319 349
f 349 350 380
f 349 319 320
f 320 350 349
f 412 380 381
f 380 350 381
f 467 499 498
f 499 529 498
f 123 467 498
f 653 109 622
f 653 622 623
f 253 256 255
f 255 256 254
f 320 319 255
f 255 254 320
f 261 262 260
f 384 414 383
f 384 415 414
f 445 415 446
f 351 352 383
f 351 322 352
f 321 322 351
f 351 350 320
f 320 321 351
f 258 256 257
f 254 256 258
f 320 254 258
f 258 321 320
f 257 259 258
f 258 259 261
f 261 322 258
f 258 322 321
f 42 41 714
f 714 41 715
f 50 373 43
f 43 373 44
f 305 308 341
f 308 305 312
f 715 41 310
f 308 312 310
f 310 373 342
f 342 308 310
f 41 40 310
f 44 373 310
f 310 40 44
f 339 370 369
f 400 368 369
f 369 368 339
f 371 402 401
f 401 370 371
f 401 402 433
f 401 431 400
f 400 369 401
f 401 369 370
f 340 370 339
f 341 371 340
f 371 370 340
f 342 404 372
f 341 342 372
f 372 371 341
f 59 58 60
f 585 586 616
f 585 554 586
f 585 615 584
f 616 615 585
f 584 553 585
f 553 554 585
f 492 493 523
f 523 554 522
f 523 491 492
f 523 522 491
f 586 554 555
f 618 649 617
f 617 587 618
f 587 619 618
f 618 650 649
f 618 619 650
f 588 587 557
f 399 431 430
f 431 461 430
f 430 461 429
f 430 398 399
f 429 398 430
f 493 461 462
f 462 461 431
f 179 736 178
f 702 703 177
f 702 672 703
f 922 891 892
f 860 861 892
f 892 891 860
f 892 861 862
f 862 893 892
f 1015 1014 984
f 953 954 984
f 952 953 984
f 767 797 766
f 766 738 767
f 985 1017 1016
f 985 986 1017
f 985 984 954
f 955 986 985
f 985 954 955
f 1016 1015 985
f 1015 984 985
f 799 798 768
f 768 738 739
f 768 767 738
f 768 798 797
f 797 767 768
f 830 861 860
f 860 829 830
f 830 829 797
f 797 798 830
f 830 831 862
f 862 861 830
f 799 831 830
f 830 798 799
f 707 708 161
f 706 677 707
f 161 160 707
f 707 160 706
f 678 709 708
f 678 677 646
f 678 707 677
f 708 707 678
f 675 705 674
f 705 704 674
f 674 704 703
f 642 643 674
f 613 614 644
f 614 645 644
f 644 676 675
f 644 645 676
f 644 612 613
f 643 612 644
f 675 674 644
f 644 674 643
f 1190 1189 1194
f 1189 38 1194
f 46 43 44
f 50 43 46
f 1188 1145 1187
f 1188 1185 1145
f 1113 1114 1144
f 1113 1144 1112
f 1112 1082 1113
f 769 770 799
f 799 768 769
f 769 768 739
f 771 802 801
f 802 833 801
f 801 833 800
f 801 770 771
f 800 770 801
f 834 833 802
f 865 833 834
f 834 835 865
f 865 835 866
f 803 834 802
f 835 834 803
f 151 743 154
f 744 743 151
f 989 988 958
f 1020 1019 989
f 1019 988 989
f 710 681 711
f 159 708 155
f 708 709 155
f 1023 1022 991
f 1050 1049 1019
f 1019 1051 1050
f 1051 1081 1050
f 1050 1081 1080
f 1080 1049 1050
f 957 956 925
f 925 956 955
f 987 1018 1017
f 1017 986 987
f 987 986 955
f 955 956 987
f 987 1019 1018
f 987 988 1019
f 957 988 987
f 987 956 957
f 927 957 926
f 926 895 927
f 957 925 926
f 894 895 926
f 926 925 894
f 864 894 863
f 863 832 864
f 863 893 862
f 894 893 863
f 862 831 863
f 831 832 863
f 1079 1109 1078
f 1078 1048 1079
f 1078 1047 1048
f 1109 1077 1078
f 1046 1047 1078
f 1078 1077 1046
f 279 282 283
f 286 284 283
f 278 277 275
f 329 328 275
f 328 273 275
f 281 277 278
f 272 274 268
f 278 275 276
f 276 275 273
f 511 510 480
f 511 542 510
f 543 542 511
f 480 481 511
f 572 542 573
f 603 602 572
f 604 572 573
f 603 572 604
f 604 636 635
f 699 670 700
f 700 182 699
f 183 182 700
f 639 638 608
f 639 670 638
f 669 670 699
f 638 670 669
f 732 187 188
f 732 762 761
f 761 762 791
f 514 545 513
f 339 296 299
f 428 396 397
f 396 366 397
f 397 398 428
f 397 366 398
f 365 366 396
f 365 334 335
f 335 336 365
f 336 366 365
f 396 395 365
f 458 490 489
f 490 520 489
f 552 520 521
f 521 520 490
f 521 553 552
f 521 522 553
f 521 490 491
f 491 522 521
f 519 520 551
f 519 489 520
f 426 427 458
f 458 457 426
f 426 395 396
f 396 427 426
f 426 457 425
f 425 394 426
f 426 394 395
f 487 519 518
f 518 517 487
f 487 517 486
f 548 580 579
f 548 549 580
f 547 517 548
f 518 549 548
f 548 517 518
f 548 578 547
f 579 578 548
f 516 517 547
f 486 517 516
f 424 393 425
f 425 455 424
f 577 576 545
f 608 607 577
f 607 576 577
f 577 578 608
f 362 363 393
f 332 363 362
f 395 363 364
f 364 363 334
f 364 365 395
f 334 365 364
f 1009 977 978
f 978 977 947
f 978 1010 1009
f 979 1010 978
f 947 948 978
f 978 948 979
f 851 883 882
f 882 850 851
f 850 820 851
f 204 728 727
f 754 783 753
f 753 724 754
f 754 724 725
f 943 912 944
f 912 913 944
f 944 913 945
f 944 976 975
f 944 945 976
f 974 942 943
f 974 973 942
f 1005 973 974
f 975 1005 974
f 943 944 974
f 974 944 975
f 942 941 911
f 912 942 911
f 881 912 911
f 911 880 881
f 942 973 972
f 972 941 942
f 972 973 1003
f 1003 971 972
f 971 941 972
f 909 939 908
f 908 877 909
f 981 950 982
f 981 1013 1012
f 981 982 1013
f 919 888 920
f 920 951 919
f 951 950 919
f 857 888 856
f 886 855 856
f 856 855 824
f 856 826 857
f 857 826 858
f 828 859 858
f 889 888 858
f 858 888 857
f 890 889 858
f 858 859 890
f 795 826 794
f 795 766 796
f 795 765 766
f 733 762 732
f 733 188 184
f 732 188 733
f 1107 1138 1106
f 1106 1075 1107
f 1107 1075 1076
f 1107 1077 1108
f 1076 1077 1107
f 1108 1139 1107
f 1139 1138 1107
f 1093 1125 1124
f 1094 1125 1093
f 1093 1123 1092
f 1124 1123 1093
f 1092 1061 1093
f 1032 1002 1033
f 1001 1002 1032
f 1000 969 1001
f 1001 1032 1000
f 1000 1032 1031
f 999 969 1000
f 1030 999 1000
f 1000 1031 1030
f 966 967 997
f 935 967 966
f 997 965 966
f 1165 1128 1129
f 1129 1128 1098
f 1130 1131 1169
f 1167 1129 1130
f 1130 1129 1098
f 815 847 846
f 845 814 846
f 846 814 815
f 846 876 845
f 846 877 876
f 1122 1159 1157
f 1157 1158 1122
f 1028 1060 1059
f 1059 1060 1090
f 506 507 537
f 537 507 538
f 443 411 412
f 443 442 411
f 443 412 413
f 413 444 443
f 117 118 114
f 110 118 117
f 117 529 560
f 117 498 529
f 112 113 111
f 109 113 112
f 111 622 112
f 622 109 112
f 107 109 108
f 107 113 109
f 1117 139 138
f 138 1086 1117
f 143 145 146
f 436 467 123
f 123 122 436
f 934 965 964
f 935 966 934
f 934 966 965
f 995 965 996
f 996 965 997
f 870 871 901
f 901 871 902
f 869 870 901
f 901 900 869
f 931 900 901
f 901 932 931
f 108 100 106
f 100 105 106
f 776 774 775
f 775 746 776
f 775 107 108
f 108 106 775
f 774 113 775
f 113 107 775
f 775 106 105
f 775 105 103
f 103 746 775
f 905 904 874
f 905 874 906
f 936 935 905
f 935 904 905
f 906 937 905
f 905 937 936
f 779 811 778
f 778 749 779
f 780 811 779
f 779 750 780
f 779 749 750
f 812 780 813
f 813 843 812
f 812 811 780
f 842 874 873
f 842 843 874
f 841 811 842
f 811 812 842
f 842 812 843
f 842 873 872
f 872 841 842
f 844 843 813
f 875 843 844
f 813 814 844
f 844 814 845
f 845 876 844
f 844 876 875
f 782 781 752
f 814 781 782
f 752 783 782
f 783 814 782
f 938 969 937
f 937 907 938
f 939 970 938
f 938 970 969
f 908 939 938
f 938 907 908
f 561 562 592
f 562 593 592
f 592 624 623
f 592 593 624
f 623 622 592
f 622 591 592
f 560 561 592
f 592 591 560
f 623 655 654
f 655 684 654
f 654 653 623
f 654 684 100
f 100 653 654
f 471 503 502
f 502 501 471
f 502 533 501
f 502 503 534
f 534 533 502
f 501 533 532
f 531 501 532
f 532 563 531
f 532 533 564
f 564 563 532
f 626 595 627
f 626 658 657
f 627 658 626
f 563 595 594
f 593 563 594
f 624 593 594
f 123 498 119
f 119 120 123
f 109 653 104
f 108 109 104
f 270 266 267
f 267 266 263
f 324 263 325
f 325 263 266
f 266 268 325
f 325 356 355
f 265 260 262
f 448 417 449
f 448 480 479
f 448 449 480
f 449 417 418
f 355 356 387
f 387 418 417
f 419 418 387
f 415 384 385
f 383 352 353
f 353 384 383
f 352 322 353
f 353 385 384
f 600 569 570
f 570 569 538
f 261 260 323
f 323 322 261
f 323 353 322
f 324 353 323
f 323 263 324
f 260 263 323
f 382 351 383
f 382 414 413
f 383 414 382
f 413 412 382
f 412 381 382
f 382 381 350
f 350 351 382
f 377 409 408
f 378 409 377
f 309 305 304
f 307 305 309
f 307 312 305
f 715 310 311
f 311 310 312
f 463 462 431
f 434 433 403
f 433 402 403
f 403 372 404
f 403 402 371
f 371 372 403
f 56 54 58
f 58 59 56
f 559 61 64
f 554 523 524
f 524 555 554
f 524 523 493
f 735 178 736
f 923 954 922
f 922 892 923
f 955 954 923
f 923 892 893
f 952 984 983
f 983 984 1014
f 983 951 952
f 983 982 951
f 983 1014 1013
f 1013 982 983
f 648 678 647
f 647 616 617
f 617 648 647
f 647 678 646
f 647 615 616
f 646 615 647
f 642 674 673
f 673 674 703
f 673 672 642
f 703 672 673
f 48 46 44
f 44 40 48
f 48 40 41
f 52 53 50
f 50 46 52
f 1147 48 1189
f 1083 1113 1082
f 1114 1113 1083
f 1082 1051 1083
f 1051 1052 1083
f 1083 1084 1114
f 1020 989 1021
f 1021 1051 1020
f 1021 1052 1051
f 1146 1114 1115
f 1114 1084 1115
f 1115 1189 1146
f 1115 1147 1189
f 1022 1085 1053
f 1053 1021 1022
f 1052 1021 1053
f 1053 1083 1052
f 1084 1083 1053
f 741 770 740
f 770 769 740
f 162 741 740
f 740 769 739
f 740 165 162
f 739 165 740
f 897 896 865
f 865 866 897
f 927 896 897
f 772 802 771
f 771 742 772
f 742 743 772
f 157 742 156
f 157 743 742
f 154 743 157
f 153 710 150
f 150 710 711
f 929 897 898
f 898 897 866
f 744 151 745
f 835 803 836
f 836 866 835
f 679 648 649
f 679 678 648
f 709 678 679
f 649 681 680
f 681 710 680
f 680 679 649
f 680 710 709
f 709 679 680
f 924 893 894
f 894 925 924
f 924 925 955
f 955 923 924
f 924 923 893
f 279 283 285
f 285 283 284
f 333 332 285
f 285 284 333
f 330 360 329
f 329 275 330
f 330 275 277
f 277 281 280
f 280 282 279
f 279 277 280
f 271 268 274
f 271 273 328
f 274 276 271
f 271 276 273
f 329 360 359
f 360 390 359
f 359 328 329
f 391 390 360
f 422 421 391
f 421 390 391
f 543 511 512
f 512 511 481
f 512 513 543
f 481 513 512
f 510 542 541
f 542 572 541
f 541 572 540
f 541 540 509
f 509 510 541
f 540 572 571
f 571 572 602
f 571 570 540
f 602 570 571
f 603 604 634
f 634 604 635
f 634 602 603
f 696 197 695
f 695 197 200
f 695 200 203
f 635 636 666
f 696 695 666
f 666 695 665
f 666 634 635
f 665 634 666
f 602 634 633
f 633 634 665
f 641 672 671
f 480 449 450
f 450 481 480
f 449 418 450
f 450 418 419
f 514 513 483
f 483 515 514
f 545 576 575
f 575 576 607
f 389 390 421
f 193 197 696
f 729 728 198
f 198 728 201
f 697 196 194
f 191 196 697
f 696 666 697
f 697 193 696
f 194 193 697
f 302 299 296
f 300 340 339
f 339 299 300
f 299 302 300
f 300 304 305
f 300 305 341
f 341 340 300
f 581 580 550
f 580 549 550
f 550 519 551
f 550 549 518
f 518 519 550
f 550 582 581
f 551 582 550
f 425 457 456
f 457 487 456
f 456 455 425
f 486 455 456
f 456 487 486
f 488 487 457
f 519 487 488
f 489 519 488
f 488 457 458
f 458 489 488
f 486 516 485
f 545 515 546
f 546 577 545
f 546 516 547
f 515 516 546
f 547 578 546
f 578 577 546
f 853 884 883
f 823 854 853
f 853 822 823
f 853 854 885
f 885 884 853
f 946 945 915
f 883 884 915
f 916 947 915
f 915 947 946
f 915 885 916
f 915 884 885
f 760 761 791
f 822 853 821
f 821 851 820
f 730 758 729
f 730 759 758
f 195 192 730
f 730 192 190
f 728 757 756
f 756 727 728
f 756 757 786
f 816 783 784
f 783 754 784
f 784 817 816
f 726 754 725
f 206 205 726
f 726 725 206
f 727 756 726
f 205 208 726
f 726 208 204
f 204 727 726
f 848 880 879
f 849 880 848
f 848 818 849
f 848 817 818
f 848 847 816
f 816 817 848
f 879 880 910
f 880 911 910
f 910 911 941
f 941 909 910
f 940 941 971
f 940 909 941
f 939 909 940
f 971 970 940
f 940 970 939
f 878 848 879
f 847 848 878
f 879 910 878
f 878 910 909
f 878 909 877
f 878 846 847
f 877 846 878
f 794 826 793
f 886 856 887
f 888 919 887
f 887 856 888
f 827 858 826
f 826 795 827
f 828 858 827
f 796 828 827
f 827 795 796
f 1095 1094 1063
f 1063 1064 1095
f 1094 1093 1063
f 1033 1064 1063
f 1063 1032 1033
f 1165 1129 1166
f 1166 1129 1167
f 1168 1130 1169
f 1167 1130 1168
f 1100 1131 1099
f 1131 1130 1099
f 1099 1068 1100
f 1098 1068 1099
f 1099 1130 1098
f 599 569 600
f 221 722 220
f 752 751 723
f 751 722 723
f 723 724 752
f 723 218 724
f 722 221 723
f 723 221 218
f 215 692 210
f 116 117 114
f 116 114 120
f 498 117 116
f 120 119 116
f 116 119 498
f 111 110 115
f 110 117 115
f 560 111 115
f 115 117 560
f 133 1086 135
f 1086 138 135
f 144 138 139
f 133 130 132
f 132 130 134
f 1055 133 132
f 132 134 1055
f 133 140 129
f 129 130 133
f 134 130 131
f 468 467 437
f 467 436 437
f 437 438 468
f 903 871 872
f 902 871 903
f 872 873 903
f 873 904 903
f 903 904 935
f 935 934 903
f 933 934 964
f 964 932 933
f 902 903 933
f 933 903 934
f 933 901 902
f 932 901 933
f 1027 1057 1026
f 1026 995 1027
f 995 996 1027
f 1028 1059 1027
f 997 1028 1027
f 1027 996 997
f 595 626 625
f 625 594 595
f 657 656 625
f 625 626 657
f 624 594 625
f 656 655 625
f 625 655 624
f 102 100 108
f 108 104 102
f 102 653 100
f 102 104 653
f 272 268 269
f 269 268 266
f 266 270 269
f 260 265 264
f 267 263 264
f 264 263 260
f 355 387 386
f 386 387 417
f 386 385 355
f 417 385 386
f 478 448 479
f 479 510 478
f 478 510 509
f 355 385 354
f 324 325 354
f 354 325 355
f 354 353 324
f 385 353 354
f 540 570 539
f 539 570 538
f 316 317 346
f 253 255 248
f 464 463 433
f 464 433 434
f 434 465 464
f 464 465 496
f 496 495 464
f 432 401 433
f 433 463 432
f 431 401 432
f 432 463 431
f 525 495 526
f 526 557 525
f 555 524 525
f 525 524 493
f 53 54 55
f 66 67 64
f 64 61 66
f 66 961 67
f 899 836 868
f 868 836 837
f 899 67 930
f 67 961 930
f 930 961 929
f 929 898 930
f 1023 991 992
f 992 991 960
f 992 960 929
f 929 961 992
f 69 72 652
f 588 557 558
f 558 589 588
f 496 465 528
f 59 57 528
f 61 559 528
f 528 57 61
f 47 48 41
f 1189 48 47
f 1116 1053 1085
f 1084 1053 1116
f 1116 1085 53
f 1116 1115 1084
f 1147 1115 1116
f 53 52 1116
f 1116 52 46
f 46 1147 1116
f 46 48 45
f 45 1147 46
f 48 1147 45
f 990 991 1022
f 1022 1021 990
f 959 960 990
f 960 991 990
f 990 1021 989
f 958 959 990
f 990 989 958
f 928 959 927
f 927 897 928
f 929 959 928
f 928 897 929
f 773 803 802
f 802 772 773
f 773 743 744
f 773 772 743
f 744 745 773
f 773 745 804
f 152 710 153
f 709 710 152
f 152 155 709
f 149 745 151
f 867 836 899
f 899 930 867
f 867 930 898
f 867 898 866
f 866 836 867
f 837 836 805
f 805 836 803
f 803 773 805
f 805 773 804
f 331 277 279
f 331 330 277
f 360 330 331
f 332 362 331
f 279 285 331
f 331 285 332
f 268 271 326
f 356 325 326
f 326 325 268
f 694 695 203
f 694 203 693
f 602 633 632
f 662 631 632
f 670 639 640
f 640 671 670
f 640 639 608
f 640 610 641
f 641 671 640
f 181 183 701
f 183 700 701
f 701 700 670
f 670 671 701
f 177 181 701
f 701 702 177
f 672 702 701
f 701 671 672
f 481 450 451
f 451 450 419
f 544 513 545
f 545 575 544
f 543 513 544
f 544 575 543
f 607 638 606
f 606 575 607
f 605 606 636
f 575 606 605
f 605 604 573
f 636 604 605
f 729 198 199
f 199 730 729
f 195 730 199
f 667 666 636
f 667 697 666
f 298 296 297
f 298 302 296
f 306 300 301
f 301 300 302
f 303 300 306
f 304 300 303
f 454 455 486
f 486 485 454
f 484 516 515
f 484 485 516
f 484 454 485
f 515 483 484
f 883 915 914
f 914 915 945
f 914 913 883
f 945 913 914
f 731 190 732
f 732 761 731
f 761 760 731
f 731 730 190
f 731 760 759
f 759 730 731
f 852 853 883
f 852 821 853
f 883 851 852
f 851 821 852
f 822 821 789
f 759 760 789
f 758 759 789
f 789 821 820
f 754 726 755
f 755 726 756
f 792 793 824
f 762 793 792
f 824 791 792
f 791 762 792
f 825 856 824
f 824 793 825
f 826 856 825
f 825 793 826
f 762 733 734
f 184 180 734
f 734 733 184
f 180 178 734
f 178 735 734
f 918 948 917
f 917 886 918
f 886 887 918
f 918 919 950
f 918 887 919
f 1031 1032 1062
f 1032 1063 1062
f 1062 1063 1093
f 1062 1093 1061
f 1062 1061 1030
f 1030 1031 1062
f 600 631 630
f 630 599 600
f 630 631 662
f 662 661 630
f 661 660 630
f 535 565 534
f 569 599 568
f 538 569 568
f 568 537 538
f 223 688 219
f 724 218 214
f 212 724 214
f 133 135 137
f 137 140 133
f 137 138 140
f 124 134 128
f 128 131 124
f 134 131 128
f 124 131 126
f 127 124 126
f 126 122 127
f 126 436 122
f 436 126 405
f 405 126 131
f 1058 1089 1057
f 1057 1027 1058
f 1058 1027 1059
f 1090 1089 1058
f 1058 1059 1090
f 447 446 415
f 447 478 446
f 417 448 447
f 448 478 447
f 509 540 508
f 540 539 508
f 538 507 508
f 508 539 538
f 378 377 347
f 377 346 347
f 347 346 317
f 347 348 378
f 347 317 348
f 236 239 234
f 345 346 377
f 316 346 345
f 348 317 318
f 317 248 318
f 318 319 348
f 318 255 319
f 318 248 255
f 495 525 494
f 494 464 495
f 463 464 494
f 494 525 493
f 493 462 494
f 462 463 494
f 556 557 587
f 556 525 557
f 555 525 556
f 556 587 586
f 586 555 556
f 50 53 49
f 53 55 49
f 49 404 50
f 49 55 404
f 54 56 51
f 51 55 54
f 61 57 63
f 63 59 60
f 63 57 59
f 60 1023 63
f 1023 992 63
f 961 66 63
f 63 992 961
f 806 75 837
f 806 805 804
f 837 805 806
f 652 72 683
f 72 716 683
f 64 67 68
f 67 69 68
f 590 68 69
f 589 558 590
f 590 559 64
f 64 68 590
f 65 69 67
f 72 69 70
f 69 65 70
f 70 868 837
f 899 868 70
f 70 67 899
f 70 65 67
f 496 528 527
f 527 528 559
f 559 590 527
f 527 590 558
f 526 495 527
f 527 495 496
f 527 557 526
f 527 558 557
f 497 465 434
f 497 528 465
f 59 528 497
f 39 38 1189
f 1189 47 39
f 41 38 39
f 39 47 41
f 360 331 361
f 392 391 361
f 361 391 360
f 361 331 362
f 393 392 361
f 361 362 393
f 327 271 328
f 328 357 327
f 327 326 271
f 356 326 327
f 327 357 356
f 358 357 328
f 328 359 358
f 358 359 390
f 390 389 358
f 388 389 419
f 419 387 388
f 388 358 389
f 357 358 388
f 388 387 356
f 356 357 388
f 665 695 664
f 695 694 664
f 664 633 665
f 664 694 693
f 664 632 633
f 601 631 600
f 601 632 631
f 600 570 601
f 601 570 602
f 602 632 601
f 608 578 609
f 609 640 608
f 578 610 609
f 610 640 609
f 452 451 421
f 483 451 452
f 452 421 422
f 452 484 483
f 482 483 513
f 482 451 483
f 482 513 481
f 481 451 482
f 420 389 421
f 421 451 420
f 419 389 420
f 420 451 419
f 638 669 668
f 668 667 636
f 543 575 574
f 575 605 574
f 573 543 574
f 574 605 573
f 423 424 455
f 455 454 423
f 423 392 393
f 393 424 423
f 423 391 392
f 422 391 423
f 454 484 453
f 422 423 453
f 453 423 454
f 453 452 422
f 484 452 453
f 822 789 790
f 790 789 760
f 791 822 790
f 790 760 791
f 758 789 788
f 788 789 820
f 787 758 788
f 788 820 787
f 817 784 785
f 785 784 754
f 754 755 785
f 786 818 785
f 818 817 785
f 785 756 786
f 785 755 756
f 763 793 762
f 762 734 763
f 794 793 763
f 948 918 949
f 949 918 950
f 629 630 660
f 596 565 597
f 627 596 597
f 534 503 504
f 504 535 534
f 415 385 416
f 416 447 415
f 416 385 417
f 417 447 416
f 477 478 509
f 509 508 477
f 446 478 477
f 476 445 477
f 445 446 477
f 477 507 476
f 477 508 507
f 140 138 142
f 138 144 142
f 142 144 145
f 130 129 343
f 343 129 140
f 438 437 406
f 406 437 436
f 436 405 406
f 407 377 408
f 438 406 407
f 408 439 407
f 407 439 438
f 253 248 252
f 247 248 317
f 247 251 248
f 62 66 61
f 61 63 62
f 62 63 66
f 85 806 804
f 85 745 81
f 804 745 85
f 85 81 80
f 80 716 79
f 79 85 80
f 72 75 77
f 75 76 77
f 77 716 72
f 77 76 716
f 621 69 652
f 621 590 69
f 589 590 621
f 71 70 837
f 71 75 72
f 72 70 71
f 466 497 434
f 466 56 59
f 59 497 466
f 712 148 150
f 712 150 711
f 711 681 712
f 83 712 80
f 148 712 83
f 663 664 693
f 632 664 663
f 693 662 663
f 662 632 663
f 637 606 638
f 638 668 637
f 636 606 637
f 637 668 636
f 697 667 698
f 667 668 698
f 191 697 698
f 699 191 698
f 698 669 699
f 698 668 669
f 764 734 735
f 764 763 734
f 794 763 764
f 764 795 794
f 765 795 764
f 764 736 765
f 764 735 736
f 979 948 980
f 948 949 980
f 950 981 980
f 980 949 950
f 506 537 536
f 537 568 536
f 565 535 566
f 566 597 565
f 535 536 566
f 660 690 659
f 503 472 473
f 473 504 503
f 473 472 441
f 441 442 473
f 442 443 473
f 216 690 217
f 662 692 691
f 691 661 662
f 215 213 691
f 692 215 691
f 691 660 661
f 691 690 660
f 691 213 217
f 217 690 691
f 234 239 238
f 238 244 242
f 236 142 141
f 141 142 145
f 314 236 234
f 713 236 143
f 713 237 236
f 239 236 235
f 236 237 235
f 374 406 405
f 374 405 131
f 374 131 130
f 130 343 374
f 376 345 377
f 377 407 376
f 248 251 249
f 251 247 241
f 241 238 242
f 241 317 316
f 241 247 317
f 75 806 78
f 78 76 75
f 716 76 73
f 73 79 716
f 76 85 73
f 85 79 73
f 837 75 74
f 74 71 837
f 434 403 435
f 435 466 434
f 435 403 404
f 404 55 435
f 55 51 435
f 435 51 56
f 56 466 435
f 682 712 681
f 682 716 80
f 80 712 682
f 81 745 82
f 745 149 82
f 1011 1042 1041
f 1041 1010 1011
f 1011 1010 979
f 979 980 1011
f 1012 1043 1011
f 1011 1043 1042
f 1011 981 1012
f 1011 980 981
f 597 566 598
f 598 568 599
f 599 630 598
f 630 629 598
f 627 597 628
f 628 658 627
f 628 659 658
f 628 598 629
f 597 598 628
f 628 629 660
f 660 659 628
f 688 658 689
f 658 659 689
f 689 219 688
f 689 659 690
f 689 216 219
f 690 216 689
f 504 473 505
f 535 504 505
f 505 536 535
f 506 536 505
f 240 238 239
f 244 238 240
f 145 143 136
f 136 141 145
f 143 236 136
f 236 141 136
f 236 314 313
f 313 314 343
f 313 343 140
f 140 142 313
f 313 142 236
f 343 314 344
f 316 345 315
f 345 344 315
f 315 344 314
f 234 238 315
f 315 314 234
f 315 241 316
f 238 241 315
f 250 252 248
f 248 249 250
f 806 85 84
f 84 78 806
f 84 85 76
f 76 78 84
f 651 681 650
f 651 682 681
f 651 683 716
f 716 682 651
f 567 566 536
f 567 598 566
f 567 536 568
f 568 598 567
f 474 473 443
f 474 505 473
f 444 475 474
f 474 443 444
f 474 475 506
f 506 505 474
f 375 374 343
f 343 344 375
f 406 374 375
f 375 407 406
f 375 376 407
f 345 376 375
f 375 344 345
f 243 241 242
f 243 245 241
f 251 241 246
f 241 245 246
f 650 619 620
f 620 651 650
f 620 619 588
f 588 589 620
f 620 621 652
f 589 621 620
f 652 683 620
f 683 651 620
f 3 2 23
f 23 2 24
f 171 170 166
f 172 171 166
f 166 168 172
f 167 168 166
f 7 20 19
f 7 19 8
f 21 20 7
f 7 11 21
f 13 12 16
f 16 25 13
f 163 168 167
f 164 168 163
f 162 161 159
f 159 158 162
f 222 226 225
f 225 223 222
f 88 89 87
f 89 90 87
f 35 86 36
f 37 86 35
f 24 2 35
f 35 36 24
f 3 23 4
f 4 23 22
f 14 90 89
f 15 90 14
f 14 13 25
f 14 25 15
f 8 19 9
f 19 18 9
f 17 10 9
f 9 18 17
f 176 170 171
f 176 169 170
f 227 231 230
f 230 229 227
f 230 231 233
f 233 232 230
f 233 99 147
f 147 232 233
f 147 99 101
f 99 103 101
f 179 173 174
f 174 175 179
f 169 176 174
f 174 176 175
f 164 163 165
f 163 160 165
f 161 162 165
f 165 160 161
f 42 86 38
f 38 86 37
f 200 201 204
f 204 203 200
f 190 191 185
f 185 189 190
f 186 187 185
f 185 187 189
f 207 206 211
f 207 211 210
f 206 207 205
f 205 207 209
f 180 184 183
f 180 183 181
f 225 226 228
f 228 224 225
f 228 227 229
f 229 224 228
f 178 173 179
f 177 173 178
f 178 180 181
f 178 181 177
f 155 158 159
f 155 156 158
f 183 184 188
f 188 182 183
f 188 187 186
f 186 182 188
f 208 203 204
f 202 203 208
f 208 205 209
f 208 209 202
f 146 88 143
f 88 87 143
f 150 151 154
f 154 153 150
f 201 200 198
f 200 197 198
f 192 191 190
f 192 196 191
f 192 195 194
f 194 196 192
f 1168 38 37
f 1168 1150 1151
f 1168 88 146
f 1168 1164 1165
f 1151 1153 1168
f 1168 33 31
f 1168 91 89
f 1168 1152 1154
f 1171 1172 1168
f 1159 1199 1168
f 1168 27 1
f 1168 1174 1197
f 1168 89 88
f 1187 1191 1168
f 1190 1194 1168
f 1168 1175 1176
f 1168 1157 1159
f 1168 1179 1180
f 1168 1160 1161
f 37 35 1168
f 1168 29 27
f 1168 95 93
f 1168 1186 1184
f 1168 1196 1178
f 1178 1195 1168
f 1195 1181 1168
f 1197 1175 1168
f 1168 1170 1171
f 1168 1154 1155
f 1149 1150 1168
f 1168 1188 1187
f 31 29 1168
f 1 97 1168
f 1180 1183 1168
f 1176 1177 1168
f 1168 1172 1173
f 1163 1162 1168
f 1161 1198 1168
f 1155 1156 1168
f 146 1192 1168
f 35 33 1168
f 93 91 1168
f 97 95 1168
f 1168 1191 1190
f 1168 1148 1149
f 1168 1183 1182
f 1182 1186 1168
f 1184 1185 1168
f 1168 1177 1196
f 1168 1181 1179
f 1169 1170 1168
f 1173 1174 1168
f 1199 1160 1168
f 1162 1164 1168
f 1165 1166 1168
f 1168 1198 1163
f 1153 1152 1168
f 1156 1158 1168
f 1168 1192 1193
f 1193 1148 1168
f 1168 1194 38
f 1185 1188 1168
f 1158 1157 1168
f 1168 1166 1167
f 210 211 215
f 215 211 212
f 152 153 154
f 154 157 152
f 156 155 152
f 152 157 156
f 194 195 199
f 199 193 194
f 199 198 197
f 197 193 199
f 219 222 223
f 220 222 219
f 151 150 148
f 148 149 151
f 213 215 212
f 212 214 213
f 213 214 218
f 218 217 213
f 220 219 216
f 216 221 220
f 216 217 218
f 218 221 216
f 82 83 80
f 80 81 82
f 149 148 82
f 148 83 82
f 246 307 309
f 246 34 36
f 36 86 246
f 246 274 272
f 286 283 246
f 28 30 246
f 246 26 28
f 246 87 90
f 282 280 246
f 246 92 94
f 94 96 246
f 262 259 246
f 246 90 92
f 246 98 26
f 246 86 42
f 246 256 253
f 32 34 246
f 246 30 32
f 242 244 246
f 289 288 246
f 297 295 246
f 246 291 289
f 246 143 87
f 246 96 98
f 42 714 246
f 278 276 246
f 246 281 278
f 288 286 246
f 246 295 294
f 294 291 246
f 246 259 257
f 267 264 246
f 246 276 274
f 246 303 306
f 246 283 282
f 257 256 246
f 246 714 715
f 309 304 246
f 715 311 246
f 246 265 262
f 246 270 267
f 272 269 246
f 306 301 246
f 312 307 246
f 246 311 312
f 246 280 281
f 246 298 297
f 246 269 270
f 246 264 265
f 302 298 246
f 246 301 302
f 304 303 246
f 253 252 246
f 252 250 246
f 246 249 251
f 246 713 143
f 239 235 246
f 237 713 246
f 246 235 237
f 246 240 239
f 244 240 246
f 246 250 249
f 246 243 242
f 245 243 246

