# https://github.com/mikedh/trimesh
v 0.05100046 0.00666665 -0.01350010
v 0.05550046 0.00749999 -0.01350004
v 0.05100042 0.00674999 -0.01050010
v 0.05550046 0.00599999 -0.01350004
v 0.05550016 -0.00450001 0.01199996
v 0.05550014 -0.00750001 0.01349996
v 0.05550024 0.01349999 0.00299996
v 0.05550019 0.00899999 0.00749996
v 0.05550023 0.00899999 0.00449996
v 0.05550019 0.01049999 0.00749996
v 0.05550023 0.01199999 0.00449996
v 0.05550021 0.00899999 0.00599996
v 0.05550019 0.01349999 0.00749996
v 0.05550019 0.01199999 0.00749996
v 0.05550023 -0.01200001 0.00749996
v 0.05550022 -0.01050001 0.00749996
v 0.05550026 -0.01200001 0.00449996
v 0.05550026 -0.00900001 0.00449996
v 0.05550024 -0.01200001 0.00599996
v 0.05550029 -0.00750001 0.00149996
v 0.05550035 -0.00750001 -0.00300004
v 0.05550038 0.00899999 -0.00750004
v 0.05550040 0.00374999 -0.00862504
v 0.05550038 0.01199999 -0.00750004
v 0.05550042 0.00674999 -0.01050004
v 0.05550044 -0.00750001 -0.01050004
v 0.05550043 -0.00000001 -0.01050004
v 0.05550043 0.00149999 -0.01050004
v 0.05550044 -0.00450001 -0.01050004
v 0.05550043 -0.00150001 -0.01050004
v 0.05550038 0.01049999 -0.00750004
v 0.05550033 0.01299999 -0.00400004
v 0.05550036 0.00899999 -0.00600004
v 0.05550036 0.01199999 -0.00600004
v 0.05550013 0.00449999 0.01349996
v 0.05550014 0.00149999 0.01249996
v 0.05550021 -0.00300001 0.00749996
v 0.05550016 0.00599999 0.01049996
v 0.05550017 -0.00150001 0.01099996
v 0.05550041 -0.01200001 -0.00750004
v 0.05550042 -0.00825001 -0.00825004
v 0.05550041 -0.01050001 -0.00750004
v 0.05550038 -0.01200001 -0.00450004
v 0.05550037 -0.00900001 -0.00450004
v 0.05550039 -0.00900001 -0.00600004
v 0.05550039 -0.01200001 -0.00600004
v 0.05550024 0.00449999 0.00449996
v 0.05550026 0.00524999 0.00299996
v 0.05550031 0.00599999 -0.00150004
v 0.05550028 0.00599999 0.00074996
v 0.05550034 0.00749999 -0.00375004
v 0.05550035 0.00449999 -0.00450004
v 0.05550033 0.00449999 -0.00300004
v 0.05550038 -0.00075001 -0.00600004
v 0.05550037 0.00149999 -0.00600004
v 0.05550037 0.00299999 -0.00600004
v 0.05550035 0.00299999 -0.00450004
v 0.05550038 -0.00300001 -0.00600004
v 0.05550036 -0.00300001 -0.00450004
v 0.05550036 -0.00450001 -0.00450004
v 0.05550031 -0.00600001 0.00037496
v 0.05550035 -0.00525001 -0.00300004
v 0.05550027 -0.00525001 0.00299996
v 0.05550025 -0.00450001 0.00449996
v 0.05550022 0.00299999 0.00583329
v 0.05550023 -0.00150001 0.00599996
v 0.05550024 -0.00300001 0.00524996
v 0.05550042 -0.00450001 -0.00900004
v 0.05550016 -0.00750001 0.01199996
v 0.05550021 -0.00825001 0.00824996
v 0.05550020 -0.00450001 0.00899996
v 0.05550016 -0.00600001 0.01199996
v 0.05550030 0.01049999 -0.00150004
v 0.05550030 0.01199999 -0.00150004
v 0.05550029 0.01049999 -0.00000004
v 0.05550027 0.01149999 0.00149996
v 0.05550016 0.00749999 0.01049996
v 0.05550012 0.00599999 0.01349996
v 0.05550012 0.00749999 0.01349996
v 0.05550011 -0.00600001 0.01649996
v 0.05550012 -0.00877501 0.01559996
v 0.05550008 -0.00450001 0.01799996
v 0.05550021 -0.01650001 0.00899996
v 0.05550025 -0.01650001 0.00599996
v 0.05550027 -0.01800001 0.00449996
v 0.05550038 -0.01800001 -0.00450004
v 0.05550034 -0.01450001 -0.00150004
v 0.05550031 -0.01800001 0.00149996
v 0.05550031 -0.01500001 0.00149996
v 0.05550035 -0.01800001 -0.00150004
v 0.05550032 -0.01350001 -0.00000004
v 0.05550030 -0.01350001 0.00149996
v 0.05550040 -0.01650001 -0.00600004
v 0.05550044 -0.01600001 -0.00900004
v 0.05550046 -0.01500001 -0.01050004
v 0.05550049 -0.01200001 -0.01350004
v 0.05550050 -0.00975000 -0.01500004
v 0.05550052 -0.00750000 -0.01650004
v 0.05550046 -0.00750001 -0.01200004
v 0.05550046 -0.00450001 -0.01200004
v 0.05550053 -0.00450000 -0.01800004
v 0.05550053 -0.00300000 -0.01800004
v 0.05550052 -0.00600000 -0.01650004
v 0.05550053 -0.00075000 -0.01800004
v 0.05550047 -0.00000001 -0.01350004
v 0.05550052 0.00450000 -0.01800004
v 0.05550047 0.00149999 -0.01350004
v 0.05550043 0.00449999 -0.01050004
v 0.05550047 -0.00150001 -0.01350004
v 0.05550050 0.00600000 -0.01650004
v 0.05550049 0.00900000 -0.01650004
v 0.05550045 0.01199999 -0.01350004
v 0.05550043 0.01349999 -0.01200004
v 0.05550047 0.01050000 -0.01500004
v 0.05550047 0.00900000 -0.01500004
v 0.05550041 0.01499999 -0.01050004
v 0.05550039 0.01499999 -0.00900004
v 0.05550034 0.01699999 -0.00550004
v 0.05550039 0.01649999 -0.00900004
v 0.05550030 0.01799999 -0.00225004
v 0.05550028 0.01349999 -0.00000004
v 0.05550026 0.01799999 0.00149996
v 0.05550022 0.01799999 0.00449996
v 0.05550020 0.01649999 0.00599996
v 0.05550016 0.01649999 0.00899996
v 0.05550013 0.01349999 0.01199996
v 0.05550010 0.01049999 0.01499996
v 0.05550009 0.00599999 0.01649996
v 0.05550009 0.00899999 0.01574996
v 0.05550007 0.00449999 0.01799996
v 0.05550008 0.00074999 0.01799996
v 0.05550013 -0.00000001 0.01349996
v 0.05550008 -0.00150001 0.01799996
v 0.05100042 0.00899999 -0.01050010
v 0.05100041 0.01124999 -0.00975010
v 0.05100043 0.00449999 -0.01050010
v 0.05100041 0.00074999 -0.00900010
v 0.05100044 -0.01200001 -0.00975010
v 0.05100039 0.00449999 -0.00750010
v 0.05100040 -0.00300001 -0.00750010
v 0.05100042 -0.00750001 -0.00900010
v 0.05100035 -0.00750001 -0.00300010
v 0.05100029 -0.00750001 0.00149990
v 0.05100036 -0.01200001 -0.00300010
v 0.05100029 -0.01200001 0.00224990
v 0.05100027 -0.00600001 0.00299990
v 0.05100019 0.01199999 0.00749990
v 0.05100019 0.01349999 0.00749990
v 0.05100023 0.01199999 0.00449990
v 0.05100021 0.01199999 0.00599990
v 0.05100023 0.01049999 0.00449990
v 0.05100025 0.00899999 0.00299990
v 0.05100023 0.00899999 0.00449990
v 0.05100020 -0.00750001 0.00899990
v 0.05100023 -0.01200001 0.00749990
v 0.05100022 -0.00900001 0.00749990
v 0.05100026 -0.00900001 0.00449990
v 0.05100026 -0.01050001 0.00449990
v 0.05100026 -0.01200001 0.00449990
v 0.05100014 -0.00150002 0.01349990
v 0.05100043 0.00149999 -0.01050010
v 0.05100039 0.01499999 -0.00900010
v 0.05100038 0.00899999 -0.00750010
v 0.05100038 0.01199999 -0.00750010
v 0.05100031 0.01799999 -0.00300009
v 0.05100034 0.00899999 -0.00450010
v 0.05100034 0.01199999 -0.00450010
v 0.05100036 0.01199999 -0.00600010
v 0.05100012 0.00599998 0.01349990
v 0.05100020 0.00449999 0.00749990
v 0.05100017 0.00149998 0.01049990
v 0.05100021 -0.00300001 0.00749990
v 0.05100017 -0.00150002 0.01049990
v 0.05100017 -0.00000002 0.01049990
v 0.05100041 -0.00900001 -0.00750010
v 0.05100041 -0.01200001 -0.00750010
v 0.05100037 -0.00900001 -0.00450010
v 0.05100038 -0.01200001 -0.00450010
v 0.05100039 -0.00900001 -0.00600010
v 0.05100027 -0.00450001 0.00299990
v 0.05100025 -0.00450001 0.00449990
v 0.05100025 -0.00300001 0.00449990
v 0.05100029 -0.00600001 0.00149990
v 0.05100032 -0.00600001 -0.00075010
v 0.05100035 -0.00600001 -0.00300010
v 0.05100036 -0.00450001 -0.00450010
v 0.05100035 -0.00450001 -0.00300010
v 0.05100037 0.00299999 -0.00600010
v 0.05100037 -0.00300001 -0.00525010
v 0.05100038 -0.00075001 -0.00600010
v 0.05100035 0.00349999 -0.00450010
v 0.05100031 0.00599999 -0.00150010
v 0.05100029 0.00599999 -0.00000010
v 0.05100027 0.00599999 0.00149990
v 0.05100033 0.00524999 -0.00300010
v 0.05100025 0.00599999 0.00299990
v 0.05100026 0.00449999 0.00299990
v 0.05100024 0.00449999 0.00449990
v 0.05100023 0.00299999 0.00499990
v 0.05100023 0.00074999 0.00599990
v 0.05100023 -0.00150001 0.00599990
v 0.05100023 -0.00300001 0.00599990
v 0.05100043 -0.00150001 -0.01050010
v 0.05100042 -0.00450001 -0.00900010
v 0.05100018 -0.00750002 0.01049990
v 0.05100016 -0.00750002 0.01199990
v 0.05100016 -0.00450002 0.01199990
v 0.05100016 -0.00600002 0.01199990
v 0.05100020 -0.00450001 0.00899990
v 0.05100020 -0.00600001 0.00899990
v 0.05100030 0.01349999 -0.00150010
v 0.05100030 0.01049999 -0.00150010
v 0.05100027 0.01049999 0.00149990
v 0.05100016 0.00649998 0.01049990
v 0.05100014 0.00599998 0.01199990
v 0.05100019 0.00899999 0.00749990
v 0.05100014 0.00749998 0.01199990
v 0.05100012 0.00749998 0.01349990
v 0.05100008 0.00749998 0.01649990
v 0.05100008 0.00899998 0.01649990
v 0.05100009 0.00599998 0.01649990
v 0.05100010 0.00899998 0.01499990
v 0.05100010 0.01049998 0.01499990
v 0.05100012 0.01199998 0.01349990
v 0.05100014 0.01424998 0.01124990
v 0.05100016 0.01649999 0.00899990
v 0.05100020 0.01649999 0.00599990
v 0.05100022 0.01799999 0.00449991
v 0.05100024 0.01799999 0.00299991
v 0.05100026 0.01349999 0.00149990
v 0.05100026 0.01799999 0.00149991
v 0.05100029 0.01799999 -0.00150009
v 0.05100035 0.01649999 -0.00600010
v 0.05100033 0.01799999 -0.00450009
v 0.05100039 0.01649999 -0.00900010
v 0.05100041 0.01499999 -0.01050010
v 0.05100043 0.01349999 -0.01200010
v 0.05100047 0.01049999 -0.01500010
v 0.05100052 0.00449999 -0.01800010
v 0.05100050 0.00599999 -0.01650010
v 0.05100048 0.00899999 -0.01575010
v 0.05100050 0.00749999 -0.01650010
v 0.05100047 0.00149999 -0.01350010
v 0.05100052 0.00149999 -0.01800010
v 0.05100047 -0.00150001 -0.01350010
v 0.05100053 -0.00150001 -0.01800010
v 0.05100053 -0.00300001 -0.01800010
v 0.05100045 -0.00150001 -0.01200010
v 0.05100053 -0.00000001 -0.01800010
v 0.05100046 -0.00450001 -0.01200010
v 0.05100053 -0.00500001 -0.01750010
v 0.05100046 -0.00600001 -0.01200010
v 0.05100052 -0.00750001 -0.01650010
v 0.05100046 -0.00750001 -0.01200010
v 0.05100050 -0.01050001 -0.01500010
v 0.05100050 -0.00900001 -0.01500010
v 0.05100047 -0.01350001 -0.01200010
v 0.05100046 -0.01500001 -0.01050010
v 0.05100044 -0.01550001 -0.00900010
v 0.05100040 -0.01650001 -0.00600010
v 0.05100038 -0.01800001 -0.00450010
v 0.05100031 -0.01800001 0.00149990
v 0.05100030 -0.01425001 0.00149990
v 0.05100034 -0.01500001 -0.00150010
v 0.05100034 -0.01350001 -0.00150010
v 0.05100035 -0.01800001 -0.00150010
v 0.05100029 -0.01800001 0.00299990
v 0.05100025 -0.01650001 0.00599990
v 0.05100021 -0.01650001 0.00899990
v 0.05100027 -0.01800001 0.00449990
v 0.05100019 -0.01500002 0.01049990
v 0.05100016 -0.01275002 0.01274990
v 0.05100013 -0.01050002 0.01499990
v 0.05100013 -0.00900002 0.01499990
v 0.05100011 -0.00675002 0.01649990
v 0.05100008 -0.00450002 0.01799990
v 0.05100008 -0.00075002 0.01799990
v 0.05100013 0.00149998 0.01349990
v 0.05100007 0.00449998 0.01799990
v 0.05100008 -0.00300002 0.01799990
v 0.04877420 0.01637368 0.02747126
v 0.04800002 0.01818182 0.02620536
v 0.04800003 0.01871680 0.02468705
v 0.05100003 0.01905560 0.02481388
v 0.04800005 0.01734483 0.02328919
v 0.04800004 0.01547340 0.02411799
v 0.04800003 0.01543354 0.02555466
v 0.04800002 0.01593550 0.02629675
v 0.05100003 0.01493554 0.02518677
v 0.04800056 0.02599999 -0.03000012
v 0.04800042 0.03982498 -0.01875012
v 0.04800043 0.02458408 -0.01730421
v 0.04800046 0.01220924 -0.01833137
v 0.04800049 0.04299402 -0.02554277
v 0.04800019 0.04299998 0.00431046
v 0.04800036 0.01658556 -0.00819628
v 0.04800037 0.00904614 -0.00819628
v 0.04800040 0.00152944 -0.00982974
v 0.04800046 -0.00300002 -0.01540013
v 0.04800043 0.00177984 -0.01324978
v 0.04800044 -0.00016914 -0.01434313
v 0.04800042 -0.00237123 -0.01182890
v 0.04800036 0.00712114 -0.00747320
v 0.04800038 -0.00300002 -0.00747320
v 0.04800039 -0.00819617 -0.00819628
v 0.04800032 0.01496585 -0.00393762
v 0.04800031 0.00566755 -0.00212623
v 0.04800029 0.03063123 -0.00373666
v 0.04800025 0.01334613 0.00299988
v 0.04800025 -0.00819650 0.00604379
v 0.04800020 0.03982498 0.00431045
v 0.04800015 0.03085282 0.01077018
v 0.04800020 0.01496584 0.00822776
v 0.04800016 0.01119613 0.01284795
v 0.04800021 0.00712113 0.00825949
v 0.04800007 0.03982498 0.01707488
v 0.04800009 0.03217498 0.01707488
v 0.04800008 0.03512675 0.01675831
v 0.04800012 0.03578258 0.01345857
v 0.04800011 0.03304770 0.01449558
v 0.04800010 0.03676363 0.01525678
v 0.04800010 0.01982498 0.01707488
v 0.04800023 -0.00300002 0.00768545
v 0.04800014 -0.00300002 0.01707487
v 0.04800012 0.00712113 0.01707487
v 0.04800017 0.00220145 0.01256924
v 0.04800020 -0.00223100 0.01086805
v 0.04800016 -0.00034674 0.01438179
v 0.04800020 0.00125511 0.01007582
v 0.04800040 0.03341013 -0.01544154
v 0.04800034 0.02374141 -0.00735179
v 0.04800041 0.02156176 -0.01485314
v 0.04800040 0.02110027 -0.01352944
v 0.04800039 0.02099280 -0.01216029
v 0.04800043 0.02285638 -0.01648577
v 0.04800038 0.03212695 -0.01316982
v 0.04800043 0.02619516 -0.01753203
v 0.04800028 0.00595825 0.00143689
v 0.04800025 0.00379845 0.00482240
v 0.04800024 -0.00080056 0.00612034
v 0.04800027 -0.00459159 0.00406578
v 0.04800032 -0.00615674 -0.00056152
v 0.04800035 -0.00395996 -0.00471868
v 0.04800036 0.00226650 -0.00599701
v 0.04800039 -0.00559642 -0.00817645
v 0.04800041 -0.00362419 -0.01030628
v 0.04800040 -0.00719390 -0.00858793
v 0.04800022 -0.00763867 0.00900030
v 0.04800023 -0.00651762 0.00818278
v 0.04800022 -0.00464826 0.00867836
v 0.04800020 0.01056140 0.00834288
v 0.04800021 0.01228770 0.00705452
v 0.04800023 0.00826717 0.00649461
v 0.04800022 0.00878452 0.00744267
v 0.04800024 0.00848485 0.00486183
v 0.04800023 0.01257218 0.00535276
v 0.04800025 0.01047580 0.00370415
v 0.04800028 0.01421496 -0.00003867
v 0.04800027 0.01361706 0.00146659
v 0.04800029 0.01368129 -0.00137056
v 0.04800031 0.01183086 -0.00234313
v 0.04800026 0.01128137 0.00226606
v 0.04800029 0.00983833 -0.00055964
v 0.04800028 0.00996650 0.00070683
v 0.04800034 0.01262927 -0.00562841
v 0.04800032 0.01015235 -0.00356545
v 0.04800035 0.00819446 -0.00572233
v 0.04800036 0.00891733 -0.00773692
v 0.04800036 0.01164741 -0.00792417
v 0.04800038 0.03524188 -0.01309554
v 0.04800039 0.03332092 -0.01467110
v 0.04800039 0.03668875 -0.01494517
v 0.04800041 0.03516471 -0.01681718
v 0.04800041 0.03360348 -0.01591407
v 0.04800040 0.03645255 -0.01579571
v 0.04897315 -0.00700961 0.01635951
v 0.04800022 -0.00820949 0.01006966
v 0.04800020 -0.00783801 0.01153696
v 0.04800020 -0.00382762 0.01121312
v 0.04800019 -0.00584162 0.01260182
v 0.04800022 -0.00410728 0.00935550
v 0.04800019 -0.00719390 0.01219668
v 0.04800003 0.00557419 0.02705908
v 0.04800000 0.01004038 0.02952217
v 0.04799997 0.02599998 0.02999988
v 0.04800002 0.03396174 0.02352606
v 0.04799999 0.03493689 0.02672734
v 0.04799995 0.03881748 0.02996069
v 0.04799996 0.04155060 0.02877143
v 0.04800000 0.03339054 0.02567446
v 0.04800001 0.03609562 0.02366284
v 0.04799999 0.03666717 0.02562990
v 0.04799999 0.04299998 0.02499988
v 0.04799998 0.04292110 0.02597851
v 0.04800052 0.04194112 -0.02830283
v 0.04800054 0.03911425 -0.02991899
v 0.04800051 0.03396175 -0.02647394
v 0.04800048 0.03512675 -0.02324169
v 0.04800049 0.03339055 -0.02432554
v 0.04800048 0.03650487 -0.02423511
v 0.04800050 0.03612249 -0.02621786
v 0.04800050 0.03661863 -0.02547963
v 0.04800051 0.03559124 -0.02655316
v 0.04800058 0.01060877 -0.02964727
v 0.04800050 0.01693739 -0.02332350
v 0.04800053 0.01547341 -0.02588201
v 0.04800052 0.01871681 -0.02531295
v 0.04800054 0.01734484 -0.02671081
v 0.04800051 0.01818183 -0.02379464
v 0.04800050 0.01752683 -0.02343650
v 0.04800051 0.01564253 -0.02392987
v 0.04800056 0.00558863 -0.02707870
v 0.04950044 -0.00753615 -0.01591322
v 0.04800046 -0.00819617 -0.01535031
v 0.04800042 -0.00803317 -0.01116431
v 0.04800041 -0.00808674 -0.00964866
v 0.04800044 -0.00616739 -0.01278999
v 0.04800041 -0.01501530 -0.00860594
v 0.04800039 -0.00895648 -0.00778938
v 0.04800040 -0.01089443 -0.00811612
v 0.04800039 -0.01213929 -0.00735201
v 0.04800036 -0.01671002 -0.00300013
v 0.04800035 -0.01084167 -0.00377106
v 0.04800038 -0.01254859 -0.00608765
v 0.04800037 -0.01249032 -0.00551718
v 0.04800036 -0.00904814 -0.00429054
v 0.04800037 -0.00822298 -0.00615329
v 0.04800037 -0.01223031 -0.00485534
v 0.04800038 -0.01246395 -0.00657531
v 0.04800036 -0.00841334 -0.00512128
v 0.04800033 -0.01709405 0.00019577
v 0.04990937 -0.01628543 0.00511641
v 0.04800027 -0.01217898 0.00469011
v 0.04800027 -0.00881077 0.00444865
v 0.04800028 -0.00995710 0.00388617
v 0.04800028 -0.01089443 0.00388388
v 0.04800024 -0.01457458 0.00875099
v 0.04800024 -0.01072356 0.00827311
v 0.04800026 -0.01255495 0.00638199
v 0.04800025 -0.01209363 0.00731912
v 0.04800024 -0.00869155 0.00739495
v 0.04800021 -0.01276280 0.01130651
v 0.04800010 0.03018295 0.01567969
v 0.04800009 0.02696416 0.01744918
v 0.04800010 0.02260647 0.01661582
v 0.04800017 0.02153435 0.01020958
v 0.04800016 0.02110026 0.01147056
v 0.04800014 0.02099280 0.01283970
v 0.04800018 0.02251630 0.00889448
v 0.04800019 0.02455086 0.00762529
v 0.04800018 0.02890849 0.00837559
v 0.04800019 0.02701211 0.00758429
v 0.05099998 0.04297222 0.02581996
v 0.05100007 0.03982498 0.01707491
v 0.05100015 0.03982498 0.00904606
v 0.05100012 0.03455865 0.01329304
v 0.05100009 0.03217498 0.01707491
v 0.05100009 0.03396175 0.01647373
v 0.05100011 0.03334622 0.01460560
v 0.05100009 0.03559124 0.01655295
v 0.05100009 0.03631837 0.01603763
v 0.05100011 0.03664944 0.01427232
v 0.05100010 0.01982498 0.01707491
v 0.05100012 0.01119614 0.01707490
v 0.05100004 0.00479568 0.02641815
v 0.05100021 0.00712114 0.00862106
v 0.05100022 -0.00300001 0.00904605
v 0.05100014 -0.00300002 0.01707490
v 0.05100017 0.00209713 0.01287891
v 0.05100019 -0.00222716 0.01183991
v 0.05100017 -0.00129678 0.01384161
v 0.05100020 -0.00138706 0.01031004
v 0.05100021 0.00015839 0.00979026
v 0.05100019 0.00178664 0.01069014
v 0.05100016 0.00054928 0.01411599
v 0.05100019 0.03217499 0.00674798
v 0.05100019 0.01604806 0.00883356
v 0.05100021 0.00988257 0.00813978
v 0.05100024 -0.00042002 0.00602812
v 0.05100016 0.04299999 0.00768548
v 0.05100018 0.02319161 0.00835784
v 0.05100024 -0.00735530 0.00747298
v 0.05100024 0.01658556 0.00393740
v 0.05100026 0.00808364 0.00299990
v 0.05100031 -0.00763559 -0.00000010
v 0.05100027 0.04299999 -0.00373663
v 0.05100032 0.02129278 -0.00487509
v 0.05100031 0.01334614 -0.00300010
v 0.05100036 0.03982499 -0.01179817
v 0.05100033 0.03217499 -0.00819625
v 0.05100036 0.01089440 -0.00811608
v 0.05100036 0.00712114 -0.00747317
v 0.05100038 -0.00300001 -0.00747317
v 0.05100039 -0.00819617 -0.00819625
v 0.05100035 0.01982499 -0.00819625
v 0.05100037 0.00904614 -0.00819625
v 0.05100044 0.00712114 -0.01540010
v 0.05100050 -0.00232439 -0.02031690
v 0.05100042 0.00225012 -0.01232811
v 0.05100044 0.00074998 -0.01410326
v 0.05100040 0.00113756 -0.01003119
v 0.05100040 -0.00095782 -0.01001983
v 0.05100042 -0.00222716 -0.01216009
v 0.05100044 -0.00121113 -0.01385504
v 0.05100041 -0.00180250 -0.01081343
v 0.05100042 0.03982499 -0.01875009
v 0.05100039 0.02094606 -0.01230874
v 0.05100046 0.01149302 -0.01843603
v 0.05100041 0.03217499 -0.01623759
v 0.05100044 0.01982499 -0.01707510
v 0.05100058 0.01113466 -0.02967579
v 0.05100056 0.00666199 -0.02784267
v 0.05100046 0.02599999 -0.02042509
v 0.05100056 0.02599999 -0.03000009
v 0.05100038 0.03515534 -0.01329354
v 0.05100038 0.03644128 -0.01409837
v 0.05100040 0.03659504 -0.01561271
v 0.05100039 0.03360559 -0.01397844
v 0.05100040 0.03334763 -0.01513490
v 0.05100041 0.03475416 -0.01668235
v 0.05100041 0.03580088 -0.01645614
v 0.05100041 0.03361919 -0.01597135
v 0.05100033 0.00877522 -0.00453338
v 0.05100035 0.00818342 -0.00598110
v 0.05100032 0.01098015 -0.00372574
v 0.05100035 0.01249917 -0.00644270
v 0.05100034 0.01251917 -0.00549422
v 0.05100036 0.01213926 -0.00735197
v 0.05100036 0.00906032 -0.00782926
v 0.05100028 0.01417655 -0.00031863
v 0.05100027 0.01382972 0.00120967
v 0.05100030 0.01359615 -0.00146281
v 0.05100030 0.01239636 -0.00217966
v 0.05100026 0.01171965 0.00221513
v 0.05100030 0.01010138 -0.00133747
v 0.05100026 0.01308733 0.00186399
v 0.05100028 0.01008220 0.00110882
v 0.05100022 0.00712114 0.00674990
v 0.05100023 0.00815513 0.00587631
v 0.05100024 0.00878452 0.00455711
v 0.05100022 0.00871544 0.00738623
v 0.05100021 0.01222051 0.00719240
v 0.05100021 0.01127311 0.00798829
v 0.05100024 0.01180171 0.00437252
v 0.05100023 0.01260028 0.00555462
v 0.05100025 0.01030878 0.00370418
v 0.05100022 -0.00767343 0.00904605
v 0.05100023 -0.00734741 0.00869238
v 0.05100023 -0.00620025 0.00820159
v 0.05100023 -0.00518401 0.00839998
v 0.05100022 -0.00421852 0.00908895
v 0.05100041 -0.00368369 -0.01022530
v 0.05100039 -0.00575144 -0.00808929
v 0.05100043 -0.00596083 -0.01262495
v 0.05100043 -0.00457296 -0.01202097
v 0.05100033 -0.00591694 -0.00156905
v 0.05100027 -0.00459551 0.00427463
v 0.05100030 -0.00592097 0.00097059
v 0.05100025 0.00360986 0.00506739
v 0.05100031 0.00593685 -0.00160588
v 0.05100027 0.00569611 0.00201732
v 0.05100035 0.00242938 -0.00579753
v 0.05100036 -0.00155171 -0.00580426
v 0.05100035 -0.00386572 -0.00472207
v 0.05100000 0.00956528 0.02943836
v 0.05100019 -0.00630397 0.01260958
v 0.05100019 -0.00396795 0.01151646
v 0.05100021 -0.01242797 0.01168022
v 0.05100021 -0.00818972 0.01108685
v 0.05100022 -0.00789275 0.00935553
v 0.05100024 -0.00995710 0.00811360
v 0.05100024 -0.01457458 0.00875102
v 0.05100024 -0.01089443 0.00811589
v 0.05100025 -0.01213929 0.00735178
v 0.05100024 -0.00873867 0.00749523
v 0.05100026 -0.01257822 0.00596306
v 0.05100025 -0.00822297 0.00615306
v 0.05100028 -0.01023392 0.00379026
v 0.05100027 -0.00860567 0.00469014
v 0.05100028 -0.01197388 0.00444868
v 0.05100036 -0.01698031 -0.00291928
v 0.05100036 -0.01066769 -0.00381766
v 0.05100038 -0.01257822 -0.00603694
v 0.05100036 -0.00930168 -0.00411860
v 0.05100037 -0.01209310 -0.00460503
v 0.05100036 -0.00836310 -0.00515090
v 0.05100043 -0.01339350 -0.01074293
v 0.05100039 -0.00869154 -0.00739517
v 0.05100040 -0.01023391 -0.00820974
v 0.05100038 -0.00826288 -0.00637435
v 0.05100039 -0.01204597 -0.00749542
v 0.05100041 -0.00808325 -0.00972935
v 0.05100042 -0.00814686 -0.01050880
v 0.05100040 -0.00742707 -0.00876383
v 0.05100042 -0.00796842 -0.01134367
v 0.05100043 -0.00726003 -0.01214709
v 0.05100051 0.01576265 -0.02386697
v 0.05100057 0.01334614 -0.02994072
v 0.04950057 0.01452315 -0.03000011
v 0.05100052 0.01534880 -0.02475700
v 0.05100052 0.01874393 -0.02506364
v 0.05100053 0.01569020 -0.02615327
v 0.05100054 0.01758645 -0.02664369
v 0.05100050 0.01745114 -0.02325466
v 0.05100052 0.03520947 -0.02797142
v 0.05100051 0.03390435 -0.02633713
v 0.05100053 0.03954507 -0.02975538
v 0.05100054 0.03903955 -0.02989083
v 0.05100048 0.03396175 -0.02352627
v 0.05100050 0.03612300 -0.02627652
v 0.05100048 0.03559124 -0.02344705
v 0.05100048 0.03649276 -0.02429199
v 0.05100048 0.03618870 -0.02383885
v 0.05100049 0.03668701 -0.02506251
v 0.05100050 0.03333514 -0.02511763
v 0.05100052 0.04164457 -0.02864468
v 0.05100049 0.04298585 -0.02571370
v 0.05099996 0.04204123 0.02803457
v 0.05099995 0.04023430 0.02950618
v 0.05100002 0.03512675 0.02324147
v 0.05099997 0.02599998 0.02999991
v 0.05100002 0.03368160 0.02396219
v 0.05100001 0.03645198 0.02415926
v 0.05099999 0.03624756 0.02608915
v 0.05099995 0.03862360 0.02997154
v 0.05099999 0.03599852 0.02631346
v 0.05099999 0.03487321 0.02675834
v 0.05099999 0.03649276 0.02570800
v 0.05100000 0.03666483 0.02511745
v 0.05100000 0.03331048 0.02543687
v 0.05100036 0.02223675 -0.00896176
v 0.05100034 0.02537119 -0.00748179
v 0.05100034 0.02856355 -0.00809103
v 0.05100038 0.03134156 -0.01240498
v 0.05100042 0.02922250 -0.01641449
v 0.05100043 0.02247186 -0.01641984
v 0.05100043 0.02674313 -0.01751555
v 0.05100017 0.02169076 0.00979952
v 0.05100012 0.02118392 0.01494410
v 0.05100009 0.02699560 0.01751285
v 0.05100009 0.02457731 0.01730243
v 0.05100011 0.03071449 0.01478299
v 0.05100015 0.03064962 0.01044316
v 0.05100017 0.02914798 0.00858474
v 0.05100019 0.02555705 0.00732637
v 0.05100018 0.02809942 0.00796203
v 0.04800001 0.03549999 0.02449989
v 0.04350001 0.03549997 0.02449983
v 0.04350001 0.03399997 0.02449983
v 0.04800001 0.03399999 0.02449989
v 0.04500001 0.03399997 0.02449985
v 0.04799999 0.03399999 0.02599989
v 0.04349999 0.03399997 0.02599983
v 0.04799999 0.03549999 0.02599989
v 0.04349999 0.03549997 0.02599983
v 0.04500000 0.03699997 0.02449985
v 0.04800000 0.03699999 0.02449989
v 0.04350003 0.03549997 0.02299983
v 0.04349999 0.03999997 0.02449983
v 0.04499999 0.03999997 0.02449985
v 0.04349997 0.03999997 0.02599983
v 0.04199999 0.03549996 0.02599981
v 0.04199997 0.03999996 0.02599981
v 0.04200001 0.03549996 0.02449981
v 0.04199999 0.03999996 0.02449981
v 0.04200000 0.03699996 0.02449981
v 0.03750005 0.03999994 0.01999975
v 0.04800009 0.02949999 0.01999989
v 0.03749991 0.03999994 0.03049975
v 0.04799995 0.02949998 0.03049989
v 0.04800005 0.03999999 0.01999989
v 0.04799991 0.03999998 0.03049989
v 0.04800011 0.03549998 0.01449988
v 0.04350011 0.03549996 0.01449982
v 0.04350011 0.03399996 0.01449982
v 0.04800011 0.03399998 0.01449988
v 0.04500011 0.03399997 0.01449984
v 0.04800009 0.03399998 0.01599988
v 0.04350009 0.03399996 0.01599982
v 0.04800009 0.03549998 0.01599988
v 0.04350009 0.03549996 0.01599982
v 0.04500010 0.03699997 0.01449984
v 0.04800010 0.03699998 0.01449988
v 0.04350013 0.03549996 0.01299982
v 0.04350009 0.03999996 0.01449982
v 0.04500009 0.03999997 0.01449984
v 0.04350007 0.03999996 0.01599982
v 0.04200009 0.03549995 0.01599980
v 0.04200007 0.03999995 0.01599980
v 0.04200011 0.03549995 0.01449980
v 0.04200009 0.03999995 0.01449980
v 0.04200010 0.03699995 0.01449980
v 0.03750015 0.03999994 0.00999974
v 0.04800019 0.02949998 0.00999988
v 0.03750001 0.03999994 0.02049974
v 0.04800005 0.02949998 0.02049988
v 0.04800015 0.03999998 0.00999988
v 0.04800001 0.03999998 0.02049988
v 0.04350041 -0.00600002 -0.01039247
v 0.04350042 -0.00744073 -0.01081003
v 0.04350041 -0.00785829 -0.00936932
v 0.04350040 -0.00641758 -0.00895176
v 0.04350039 -0.00497687 -0.00853421
v 0.04350041 -0.00455931 -0.00997492
v 0.04350042 -0.00414176 -0.01141563
v 0.04350043 -0.00558247 -0.01183318
v 0.04350043 -0.00702318 -0.01225074
v 0.06300041 -0.00455928 -0.00997473
v 0.06300039 -0.00497684 -0.00853401
v 0.06300040 -0.00641755 -0.00895157
v 0.06300041 -0.00785826 -0.00936912
v 0.06300042 -0.00744070 -0.01080984
v 0.06300043 -0.00702315 -0.01225055
v 0.06300043 -0.00558244 -0.01183299
v 0.06300042 -0.00414173 -0.01141544
v 0.06300041 -0.00599999 -0.01039228
v 0.04350028 0.01199997 -0.00000017
v 0.04350029 0.01308195 -0.00103908
v 0.04350030 0.01204303 -0.00212105
v 0.04350030 0.01096106 -0.00108214
v 0.04350029 0.00987909 -0.00004323
v 0.04350027 0.01091800 0.00103874
v 0.04350026 0.01195692 0.00212071
v 0.04350027 0.01303889 0.00108180
v 0.04350028 0.01412086 0.00004289
v 0.06300027 0.01091803 0.00103893
v 0.06300029 0.00987912 -0.00004304
v 0.06300030 0.01096109 -0.00108195
v 0.06300030 0.01204306 -0.00212086
v 0.06300029 0.01308198 -0.00103889
v 0.06300028 0.01412089 0.00004308
v 0.06300027 0.01303892 0.00108199
v 0.06300026 0.01195695 0.00212091
v 0.06300028 0.01200000 0.00000002
v 0.04350021 -0.00600005 0.01039215
v 0.04350020 -0.00564131 0.01184862
v 0.04350019 -0.00418484 0.01148989
v 0.04350021 -0.00454358 0.01003341
v 0.04350022 -0.00490231 0.00857694
v 0.04350022 -0.00635879 0.00893568
v 0.04350022 -0.00781526 0.00929442
v 0.04350021 -0.00745652 0.01075089
v 0.04350020 -0.00709778 0.01220736
v 0.06300022 -0.00635872 0.00893582
v 0.06300022 -0.00490225 0.00857708
v 0.06300021 -0.00454351 0.01003356
v 0.06300019 -0.00418477 0.01149003
v 0.06300020 -0.00564124 0.01184876
v 0.06300020 -0.00709771 0.01220750
v 0.06300021 -0.00745645 0.01075103
v 0.06300022 -0.00781519 0.00929456
v 0.06300021 -0.00599998 0.01039229
v 0.04800002 0.01649998 0.02549988
v 0.04350002 0.01649997 0.02549982
v 0.04350002 0.01799997 0.02549982
v 0.04800002 0.01799998 0.02549988
v 0.04500002 0.01799997 0.02549984
v 0.04800004 0.01799998 0.02399988
v 0.04350004 0.01799997 0.02399982
v 0.04800004 0.01649998 0.02399988
v 0.04350004 0.01649997 0.02399982
v 0.04500003 0.01499997 0.02549984
v 0.04800003 0.01499998 0.02549988
v 0.04350000 0.01649997 0.02699982
v 0.04350003 0.01199997 0.02549982
v 0.04500003 0.01199997 0.02549984
v 0.04350005 0.01199997 0.02399982
v 0.04200004 0.01649997 0.02399980
v 0.04200005 0.01199997 0.02399980
v 0.04200002 0.01649997 0.02549980
v 0.04200003 0.01199997 0.02549980
v 0.04200003 0.01499997 0.02549980
v 0.03749997 0.01199996 0.02999974
v 0.04799995 0.02249998 0.02999989
v 0.03750011 0.01199996 0.01949974
v 0.04800010 0.02249998 0.01949989
v 0.04799997 0.01199998 0.02999988
v 0.04800011 0.01199998 0.01949988
v 0.01822095 0.01199991 0.02992140
v 0.01706810 0.01199991 0.03040382
v 0.01693187 0.00899991 0.03031508
v 0.01662170 0.01199991 0.03127709
v 0.01677812 0.00899990 0.03246032
v 0.01749418 0.01199990 0.03308931
v 0.01809324 0.01199990 0.03325807
v 0.01871207 0.00899990 0.03339782
v 0.01924509 0.01199990 0.03302274
v 0.01996676 0.01199991 0.03129652
v 0.01994011 0.00899991 0.03086391
v 0.01916124 0.01199991 0.03021972
v 0.01853288 0.00899991 0.02998152
v 0.02271448 0.01200013 -0.02436973
v 0.04017958 0.01199963 -0.03172854
v 0.02994499 0.01056828 -0.01421535
v 0.03865018 0.01200013 -0.01874212
v 0.03298106 0.01200010 -0.01144637
v 0.03227566 0.01200008 -0.00743018
v 0.03483833 0.01200011 -0.01418291
v 0.03988681 0.01200007 -0.00091622
v 0.03387788 0.01200010 -0.01086010
v 0.03605524 0.01200010 -0.01232465
v 0.03311764 0.01200010 -0.01368956
v 0.03261244 0.01200010 -0.01254651
v 0.03503450 0.01200010 -0.01096431
v 0.03369730 0.01200000 0.01407348
v 0.03529746 0.01200001 0.01112213
v 0.03418001 0.01200001 0.01080984
v 0.03006005 0.01199999 0.01404420
v 0.03605481 0.01200001 0.01264282
v 0.03283740 0.01200000 0.01328912
v 0.03297374 0.01200001 0.01139710
v 0.03503407 0.01200000 0.01400316
v 0.03263745 0.01200000 0.01250897
v 0.03864937 0.01199995 0.02830471
v 0.02255314 0.01199994 0.02452726
v 0.02627437 0.01199993 0.02830450
v 0.01445043 0.01199990 0.03088073
v 0.01527055 0.01199991 0.02940491
v 0.01463840 0.01199990 0.03256137
v 0.01682919 0.01199989 0.03576328
v 0.01589820 0.01199989 0.03504511
v 0.01813988 0.01199989 0.03608292
v 0.01645162 0.01199990 0.03278251
v 0.04703298 0.01199996 0.02999458
v 0.04799203 0.01200002 0.01365027
v 0.04435751 0.01199998 0.02392959
v 0.04797838 0.01199997 0.02799270
v 0.04240093 0.01199998 0.02332127
v 0.04161922 0.01199996 0.02597104
v 0.04462826 0.01199997 0.02533207
v 0.04293691 0.01199996 0.02672728
v 0.04132966 0.01199997 0.02475533
v 0.04423735 0.01199997 0.02613297
v 0.04464762 0.01199997 0.02491052
v 0.04620023 0.01200003 0.01117965
v 0.04760204 0.01200003 0.01244253
v 0.04400659 0.01200003 0.01088796
v 0.04237184 0.01200003 0.00957612
v 0.04773796 0.01200012 -0.01266108
v 0.04799247 0.01200013 -0.01376467
v 0.04800079 0.01200015 -0.01874196
v 0.04619683 0.01200012 -0.01117893
v 0.04248555 0.01200010 -0.00996620
v 0.04723005 0.01200019 -0.02983879
v 0.04383539 0.01200017 -0.02643075
v 0.04240179 0.01200017 -0.02667873
v 0.04124745 0.01200016 -0.02458123
v 0.04293777 0.01200016 -0.02327272
v 0.04423821 0.01200016 -0.02386702
v 0.04471566 0.01200017 -0.02540973
v 0.02627545 0.01200017 -0.03445549
v 0.01761226 0.01200016 -0.03314465
v 0.01725249 0.01200015 -0.03292410
v 0.01576604 0.01200016 -0.03489515
v 0.01664823 0.01200015 -0.03221679
v 0.01854532 0.01200017 -0.03603474
v 0.01889817 0.01200015 -0.03006257
v 0.02003947 0.01200016 -0.03183744
v 0.01946132 0.01200015 -0.03048584
v 0.01807264 0.01200016 -0.03325086
v 0.01514677 0.00955277 -0.02947608
v 0.01876250 0.01200016 -0.03321935
v 0.01713397 0.01107709 -0.03593672
v 0.01817736 0.01200014 -0.02995997
v 0.01699284 0.01200014 -0.03037555
v 0.01439725 0.01200014 -0.03049906
v 0.01504713 0.01200015 -0.03349940
v 0.03246188 0.00899994 0.02830459
v 0.02241557 0.00899994 0.02460089
v 0.02907440 0.00899999 0.01572858
v 0.03864954 0.00899999 0.01874160
v 0.03454849 0.00900000 0.01419392
v 0.03241100 0.01000002 0.00682430
v 0.03298067 0.00900001 0.01144566
v 0.03297633 0.00900006 -0.00307907
v 0.03396693 0.00900001 0.01084778
v 0.03344840 0.00900001 0.01106957
v 0.03529426 0.00900001 0.01107001
v 0.03601379 0.00900001 0.01289301
v 0.03264997 0.00900000 0.01227829
v 0.03290462 0.00900000 0.01350502
v 0.03454892 0.00900010 -0.01077355
v 0.03865018 0.00900013 -0.01874213
v 0.03387794 0.00900011 -0.01410805
v 0.02290757 0.00900013 -0.02429528
v 0.03291868 0.00900010 -0.01345535
v 0.03529469 0.00900011 -0.01389746
v 0.03601422 0.00900010 -0.01207446
v 0.03290505 0.00900010 -0.01146245
v 0.03264710 0.00900010 -0.01259625
v 0.03865035 0.00900017 -0.02830523
v 0.02627535 0.00900015 -0.02830544
v 0.01441219 0.00900014 -0.03136661
v 0.01475488 0.00900015 -0.03283434
v 0.01667223 0.00900015 -0.03101274
v 0.01557243 0.00900016 -0.03456430
v 0.02005352 0.00900015 -0.03157826
v 0.01595801 0.00900016 -0.03510256
v 0.01665037 0.00900015 -0.03208327
v 0.01859583 0.00900015 -0.02989985
v 0.01898610 0.00900016 -0.03313027
v 0.01729736 0.00900014 -0.03024964
v 0.01756734 0.00900017 -0.03600640
v 0.01845382 0.00900017 -0.03605135
v 0.01746844 0.00900016 -0.03315187
v 0.04703401 0.00900019 -0.02999481
v 0.04863826 0.00990713 -0.01992451
v 0.04797935 0.00900018 -0.02799289
v 0.04435833 0.00900016 -0.02392992
v 0.04269113 0.00900016 -0.02329956
v 0.04150364 0.00900016 -0.02572111
v 0.04255959 0.00900017 -0.02670706
v 0.04135327 0.00900016 -0.02447728
v 0.04418275 0.00900017 -0.02620566
v 0.04465210 0.00900017 -0.02524325
v 0.04620062 0.00900012 -0.01117990
v 0.04760247 0.00900012 -0.01244274
v 0.04339668 0.00900011 -0.01070872
v 0.04193181 0.00900010 -0.00830987
v 0.04773753 0.00900003 0.01266087
v 0.04799694 0.00900002 0.01381147
v 0.04619645 0.00900003 0.01117867
v 0.04248522 0.00900003 0.00996581
v 0.04730340 0.00899996 0.02972348
v 0.04421377 0.00899997 0.02619031
v 0.04269027 0.00899996 0.02670044
v 0.04798738 0.00899997 0.02790208
v 0.04120461 0.00899997 0.02516261
v 0.04255874 0.00899998 0.02329294
v 0.04395369 0.00899998 0.02363891
v 0.04469455 0.00899997 0.02465811
v 0.04560258 0.00899995 0.03049146
v 0.01574434 0.00899989 0.03483774
v 0.01727518 0.00899989 0.03605530
v 0.02419342 0.01076402 0.03487853
v 0.01429090 0.00899990 0.03140516
v 0.01552863 0.00899989 0.03448008
v 0.01540655 0.00899991 0.02926479
v 0.04800051 0.01649999 -0.02450012
v 0.04350051 0.01649998 -0.02450018
v 0.04350051 0.01799998 -0.02450018
v 0.04800051 0.01799999 -0.02450012
v 0.04500051 0.01799998 -0.02450016
v 0.04800053 0.01799999 -0.02600012
v 0.04350053 0.01799998 -0.02600018
v 0.04800053 0.01649999 -0.02600012
v 0.04350053 0.01649998 -0.02600018
v 0.04500052 0.01499998 -0.02450016
v 0.04800052 0.01499999 -0.02450012
v 0.04350049 0.01649998 -0.02300018
v 0.04350052 0.01199998 -0.02450018
v 0.04500052 0.01199998 -0.02450016
v 0.04350054 0.01199998 -0.02600018
v 0.04200053 0.01649998 -0.02600020
v 0.04200054 0.01199998 -0.02600020
v 0.04200051 0.01649998 -0.02450020
v 0.04200052 0.01199998 -0.02450020
v 0.04200052 0.01499998 -0.02450020
v 0.03750046 0.01199997 -0.02000026
v 0.04800044 0.02249998 -0.02000011
v 0.03750060 0.01199997 -0.03050026
v 0.04800059 0.02249999 -0.03050011
v 0.04800046 0.01199998 -0.02000012
v 0.04800060 0.01199999 -0.03050012
v 0.04800050 0.03549999 -0.02550012
v 0.04350050 0.03549997 -0.02550018
v 0.04350050 0.03399997 -0.02550018
v 0.04800050 0.03399999 -0.02550012
v 0.04500050 0.03399997 -0.02550016
v 0.04800048 0.03399999 -0.02400012
v 0.04350048 0.03399997 -0.02400018
v 0.04800048 0.03549999 -0.02400012
v 0.04350048 0.03549997 -0.02400018
v 0.04500049 0.03699997 -0.02550016
v 0.04800049 0.03699999 -0.02550012
v 0.04350052 0.03549997 -0.02700018
v 0.04350048 0.03999997 -0.02550018
v 0.04500048 0.03999997 -0.02550016
v 0.04350046 0.03999997 -0.02400018
v 0.04200048 0.03549996 -0.02400020
v 0.04200046 0.03999996 -0.02400020
v 0.04200050 0.03549996 -0.02550020
v 0.04200048 0.03999996 -0.02550020
v 0.04200049 0.03699996 -0.02550020
v 0.03750054 0.03999994 -0.03000026
v 0.04800058 0.02949999 -0.03000012
v 0.03750040 0.03999994 -0.01950026
v 0.04800044 0.02949999 -0.01950012
v 0.04800054 0.03999999 -0.03000012
v 0.04800040 0.03999999 -0.01950012
v 0.00126653 0.04299978 -0.02777995
v -0.00228950 0.03999976 -0.02799442
v -0.01270385 0.04239973 -0.02476660
v -0.01891134 0.03999972 -0.01996613
v -0.02264499 0.04299972 -0.01602884
v -0.02243887 0.03999972 -0.01612410
v -0.02725957 0.03999974 -0.00557588
v -0.02362983 0.04257126 0.01480896
v -0.01891203 0.03999987 0.01996363
v -0.01714973 0.04299988 0.02146060
v -0.01488467 0.03999990 0.02327799
v -0.01003043 0.04122720 0.02593597
v 0.00248582 0.03999999 0.02747159
v 0.01470754 0.04246431 0.02408465
v 0.02555995 0.04300002 0.01078886
v 0.02810371 0.04000002 0.00716402
v 0.02626713 0.04299995 -0.00933774
v 0.01946172 0.03999988 -0.02113857
v 0.01548037 0.04299986 -0.02332583
v -0.00177976 0.04299997 0.02778321
v 0.03007384 0.04300013 0.03377730
v 0.00595537 0.04300002 0.03377688
v 0.01859437 0.04300006 0.02989864
v 0.01654275 0.04300006 0.03096444
v 0.01993087 0.04300007 0.03120799
v 0.01912227 0.04300008 0.03318676
v 0.01717154 0.04300007 0.03292401
v 0.03864896 0.04300014 0.02707474
v 0.03114587 0.04300010 0.02481504
v 0.03864932 0.04300006 0.00624160
v 0.03483747 0.04300006 0.01078455
v 0.03330017 0.04300007 0.01384468
v 0.03864909 0.04300011 0.01923061
v 0.03600781 0.04300007 0.01236064
v 0.03266633 0.04300006 0.01287160
v 0.03479036 0.04300007 0.01414059
v 0.03568189 0.04300007 0.01339412
v 0.03290422 0.04300006 0.01146172
v 0.04800003 0.04300008 -0.00000010
v 0.04799964 0.04300016 0.02255577
v 0.04375550 0.04300011 0.01351981
v 0.04392582 0.04300012 0.01647893
v 0.04231820 0.04300010 0.01337389
v 0.04188251 0.04300011 0.01636359
v 0.04471454 0.04300012 0.01459026
v 0.04132940 0.04300010 0.01475532
v 0.02740252 0.04300000 0.00271402
v 0.04345121 0.04300005 -0.00174562
v 0.04166467 0.04300005 0.00105205
v 0.04331615 0.04300006 0.00173424
v 0.04138707 0.04300005 -0.00071188
v 0.04465122 0.04300006 0.00024293
v 0.04456647 0.04300006 -0.00055495
v 0.04438331 0.04300006 0.00091054
v 0.03864958 0.04300000 -0.00916713
v 0.03864975 0.04299997 -0.01923114
v 0.04406479 0.04300000 -0.01629704
v 0.04240118 0.04299999 -0.01667874
v 0.04800024 0.04300003 -0.01209197
v 0.04470950 0.04300001 -0.01512295
v 0.04125970 0.04299999 -0.01487484
v 0.04194408 0.04300000 -0.01371725
v 0.04312431 0.04300001 -0.01327603
v 0.04428977 0.04300001 -0.01394058
v 0.04769760 0.04299997 -0.02948654
v 0.03436239 0.04299992 -0.02707534
v 0.04406496 0.04299996 -0.02629704
v 0.04240135 0.04299996 -0.02667874
v 0.04144466 0.04299996 -0.02424680
v 0.04141769 0.04299996 -0.02550651
v 0.04293734 0.04299997 -0.02327273
v 0.04470967 0.04299997 -0.02512295
v 0.04423777 0.04299997 -0.02386703
v 0.00595644 0.04299980 -0.02873079
v 0.03007491 0.04299990 -0.02873038
v -0.01714878 0.04299968 -0.03377893
v 0.00595653 0.04299978 -0.03377853
v 0.01661642 0.04299983 -0.03203419
v 0.02003903 0.04299984 -0.03183745
v 0.01735552 0.04299983 -0.03304191
v 0.01907291 0.04299985 -0.03012253
v 0.01694076 0.04299984 -0.03045740
v 0.01809389 0.04299984 -0.02996180
v 0.01867686 0.04299983 -0.03325635
v 0.04383410 0.04300015 0.02356924
v 0.04240049 0.04300014 0.02332126
v 0.04132923 0.04300014 0.02475532
v 0.04478398 0.04300015 0.02475792
v 0.04796228 0.04102650 0.02850617
v 0.04255824 0.04300015 0.02670667
v 0.04150054 0.04300014 0.02571403
v 0.04410715 0.04300016 0.02626010
v 0.03483789 0.04299997 -0.01418292
v 0.03007463 0.04299996 -0.01209228
v 0.03596003 0.04299998 -0.01278574
v 0.03277246 0.04299996 -0.01336599
v 0.03330060 0.04299997 -0.01112279
v 0.03460319 0.04299998 -0.01081138
v 0.03273345 0.04299997 -0.01192764
v 0.03565161 0.04299998 -0.01149134
v 0.03588888 0.04299998 -0.01204262
v -0.02023602 0.04090557 0.03363038
v -0.02578723 0.04299988 0.02972355
v -0.02802361 0.04299985 0.02513697
v -0.02621706 0.04299985 0.02352392
v -0.02699619 0.04299985 0.02483299
v -0.02855561 0.04299983 0.01922946
v -0.02665533 0.04299985 0.02244792
v -0.02704969 0.04299984 0.02207072
v -0.02772803 0.04299976 0.00093886
v -0.02625343 0.04299974 -0.00834806
v -0.03824896 0.04299968 -0.00911212
v -0.01714994 0.04299993 0.03377649
v 0.03477404 0.04300023 0.03370751
v 0.04756826 0.04300018 0.02967288
v 0.04581025 0.04299996 -0.03061409
v 0.01066164 0.04299978 -0.03977809
v -0.00459692 0.04299973 -0.03607187
v -0.01648000 0.04299968 -0.03562355
v -0.00810023 0.04299971 -0.03591516
v -0.00550100 0.04299973 -0.03443379
v -0.00723255 0.04299971 -0.03737789
v -0.00710763 0.04299972 -0.03443082
v -0.00572612 0.04299971 -0.03756340
v -0.02366408 0.04299966 -0.03160426
v -0.02765048 0.04299968 -0.02176251
v -0.02634497 0.04299968 -0.02304293
v -0.02668348 0.04299968 -0.02240821
v -0.02699168 0.04077744 -0.02849670
v -0.02735845 0.04299967 -0.02505323
v -0.02824310 0.04299967 -0.02509095
v -0.02640287 0.04299968 -0.02411483
v -0.02941217 0.04299966 -0.02430382
v -0.02876257 0.04299967 -0.02491809
v -0.02892038 0.04299967 -0.02209292
v -0.02961396 0.04299967 -0.02306888
v -0.03919237 0.04299970 -0.00212645
v -0.03646819 0.04299973 0.00178042
v -0.03499509 0.04299973 0.00076349
v -0.03653090 0.04299972 -0.00174637
v -0.03494417 0.04299973 -0.00075495
v -0.03820918 0.04299972 0.00012120
v -0.03778946 0.04299971 -0.00106115
v -0.03774757 0.04299972 0.00108767
v -0.03737659 0.04299977 0.01389429
v -0.03339120 0.04062885 0.02125953
v -0.02826143 0.04299984 0.02176250
v -0.02914363 0.04299984 0.02469365
v -0.02965049 0.04299984 0.02302335
v -0.01714721 0.04171417 0.03526781
v -0.00800912 0.04299997 0.03569996
v -0.00455766 0.04299999 0.03600918
v -0.00731714 0.04299997 0.03455407
v -0.00560370 0.04299999 0.03746420
v -0.00745601 0.04299998 0.03730822
v -0.00424426 0.04300000 0.03901892
v -0.00572734 0.04299998 0.03432757
v -0.00633877 0.04299999 0.03759445
v -0.02186369 0.03999967 -0.03270652
v 0.00595654 0.03999978 -0.03377852
v 0.00595646 0.03999980 -0.02873078
v 0.01890728 0.03999983 -0.03317871
v 0.02404529 0.03999987 -0.02790299
v 0.02005310 0.03999984 -0.03157825
v 0.01661642 0.03999983 -0.03118693
v 0.01840590 0.03999984 -0.02990397
v 0.01930805 0.03999985 -0.03034107
v 0.01721899 0.03999984 -0.03029854
v 0.01704824 0.03999983 -0.03292614
v 0.04797641 0.03999997 -0.02829504
v 0.03864990 0.03999994 -0.02707525
v 0.03864976 0.03999997 -0.01923113
v 0.04800037 0.04150001 -0.01923097
v 0.04406493 0.03999997 -0.02370329
v 0.04269071 0.03999997 -0.02329954
v 0.04120504 0.03999996 -0.02483738
v 0.04255917 0.03999996 -0.02670705
v 0.04470968 0.03999997 -0.02487736
v 0.04418233 0.03999996 -0.02620565
v 0.03864959 0.04000000 -0.00916712
v 0.04158487 0.03999999 -0.01611671
v 0.04475608 0.04000001 -0.01515953
v 0.04399868 0.04000001 -0.01363886
v 0.04357590 0.04000000 -0.01661423
v 0.04260258 0.04000001 -0.01333336
v 0.04149540 0.04000000 -0.01423519
v 0.04800020 0.04000004 -0.00916696
v 0.03864933 0.04000006 0.00624161
v 0.04799994 0.04000010 0.00624178
v 0.04336023 0.04000006 0.00178842
v 0.04194699 0.04000005 -0.00143807
v 0.04136768 0.04000005 0.00061686
v 0.04470925 0.04000006 0.00012264
v 0.04399525 0.04000005 -0.00141357
v 0.03864911 0.04000011 0.01923062
v 0.03007410 0.04000007 0.01923047
v 0.03483742 0.04000007 0.01418227
v 0.03007443 0.04000000 -0.00000040
v 0.03298024 0.04000006 0.01144567
v 0.03432959 0.04000006 0.01073859
v 0.03558813 0.04000007 0.01142385
v 0.03600782 0.04000007 0.01260622
v 0.03264914 0.04000006 0.01321096
v 0.04406424 0.04000012 0.01629671
v 0.04269002 0.04000012 0.01670046
v 0.04475557 0.04000012 0.01484047
v 0.04135216 0.04000011 0.01552274
v 0.04201496 0.04000010 0.01348979
v 0.04381057 0.04000011 0.01353094
v 0.01478202 0.04000002 0.02347720
v 0.03864898 0.04000013 0.02647768
v 0.00595538 0.04000002 0.03377689
v 0.03007397 0.04000010 0.02707460
v 0.01782798 0.04000006 0.02998535
v 0.01856872 0.04000009 0.03820614
v 0.01658909 0.04000006 0.03101672
v 0.01924472 0.04000007 0.03019594
v 0.01849896 0.04000008 0.03331985
v 0.01699505 0.04000007 0.03275683
v 0.01996426 0.04000008 0.03201894
v 0.04182221 0.04000014 0.02371178
v 0.04357522 0.04000014 0.02338577
v 0.04799966 0.04000016 0.02255578
v 0.04133352 0.04000014 0.02536006
v 0.04438293 0.04000015 0.02408914
v 0.04398780 0.04000016 0.02634482
v 0.04249777 0.04000015 0.02668988
v 0.04471692 0.04000015 0.02524008
v 0.03007476 0.03999993 -0.01923127
v 0.03314262 0.03999996 -0.01374865
v 0.03007464 0.03999996 -0.01209227
v 0.03479086 0.03999997 -0.01414124
v 0.03568236 0.03999998 -0.01339474
v 0.03262500 0.03999997 -0.01254490
v 0.03600390 0.03999998 -0.01237029
v 0.03483785 0.03999998 -0.01078520
v 0.03297370 0.03999997 -0.01139781
v -0.03443220 0.04127744 -0.01899175
v -0.02855494 0.03999969 -0.01923228
v -0.02632498 0.03999980 0.00853784
v -0.02736182 0.03999984 0.02178182
v -0.02631656 0.03999985 0.02312736
v -0.02645036 0.03999985 0.02419042
v -0.02761616 0.03999985 0.02517104
v -0.01714993 0.03999993 0.03377650
v 0.01178810 0.04192864 0.03945659
v -0.01051639 0.04175859 0.03787347
v -0.01648122 0.04047362 0.03562114
v -0.00568204 0.03999998 0.03437628
v -0.00804550 0.03999998 0.03658927
v -0.00455764 0.03999999 0.03587978
v -0.00788688 0.03999998 0.03842169
v -0.00728336 0.03999997 0.03449678
v -0.00663281 0.03999999 0.03758001
v -0.00556865 0.03999999 0.03746017
v -0.02605753 0.03999987 0.02945353
v -0.02950773 0.03999984 0.02405236
v -0.02902627 0.03999985 0.02476653
v -0.02945374 0.03999984 0.02275224
v -0.02902544 0.03999984 0.02216346
v -0.02962583 0.03999984 0.02334278
v -0.02855564 0.03999984 0.02192375
v -0.03894788 0.04085688 0.00568052
v -0.03653094 0.03999973 0.00174328
v -0.03646811 0.03999972 -0.00178352
v -0.03499505 0.03999973 -0.00076653
v -0.03494418 0.03999973 0.00075191
v -0.03778948 0.03999972 0.00105801
v -0.03821471 0.03999972 -0.00041116
v -0.03846620 0.03999968 -0.00896019
v -0.02924813 0.03999967 -0.02231404
v -0.02991439 0.04149966 -0.02541135
v -0.02917390 0.03999966 -0.02465364
v -0.02962502 0.03999967 -0.02358071
v -0.02855484 0.03999967 -0.02499975
v -0.02633194 0.03999968 -0.02379532
v -0.02644955 0.03999968 -0.02273307
v -0.02761536 0.03999968 -0.02175245
v -0.02793115 0.03999967 -0.02515107
v -0.02677831 0.03999967 -0.02466861
v -0.02631260 0.03999968 -0.02337379
v -0.00798508 0.03999971 -0.03603586
v -0.01714743 0.04128536 -0.03526940
v -0.00795273 0.03999971 -0.03552634
v -0.01231774 0.04137807 -0.03741586
v 0.01329408 0.03999979 -0.03923912
v -0.00459692 0.03999973 -0.03582110
v -0.00784812 0.03999971 -0.03667658
v -0.00424296 0.03999972 -0.03902090
v -0.00535905 0.03999972 -0.03733685
v -0.00541950 0.03999973 -0.03454213
v -0.00701913 0.03999972 -0.03432061
v -0.00685604 0.03999971 -0.03757978
v 0.04700599 0.03999996 -0.03010352
v 0.04680870 0.04000018 0.03018108
v 0.04580923 0.04000018 0.03061381
v 0.03380243 0.03999989 -0.03397781
v 0.00000030 -0.00139997 -0.00000086
v -0.03903030 -0.00140025 -0.00414515
v -0.03903062 0.04399975 -0.00414515
v -0.00000003 0.04400003 -0.00000086
v -0.03908885 -0.00140026 0.00354897
v -0.03908917 0.04399974 0.00354897
v -0.03764522 -0.00140024 0.01110667
v -0.03764555 0.04399976 0.01110667
v -0.03475490 -0.00140022 0.01823752
v -0.03475523 0.04399978 0.01823752
v -0.03052895 -0.00140019 0.02466748
v -0.03052928 0.04399981 0.02466748
v -0.02512979 -0.00140015 0.03014945
v -0.02513012 0.04399985 0.03014945
v -0.01876489 -0.00140011 0.03447275
v -0.01876521 0.04399989 0.03447275
v -0.01167885 -0.00140006 0.03747126
v -0.01167918 0.04399994 0.03747126
v -0.00414399 -0.00140000 0.03902973
v -0.00414432 0.04400000 0.03902973
v 0.00355013 -0.00139995 0.03908828
v 0.00354981 0.04400005 0.03908828
v 0.01110784 -0.00139989 0.03764465
v 0.01110751 0.04400011 0.03764465
v 0.01823869 -0.00139984 0.03475433
v 0.01823836 0.04400016 0.03475433
v 0.02466864 -0.00139980 0.03052839
v 0.02466832 0.04400020 0.03052839
v 0.03015061 -0.00139976 0.02512922
v 0.03015028 0.04400024 0.02512922
v 0.03447392 -0.00139972 0.01876432
v 0.03447359 0.04400028 0.01876432
v 0.03747242 -0.00139970 0.01167828
v 0.03747209 0.04400030 0.01167828
v 0.03903089 -0.00139969 0.00414342
v 0.03903057 0.04400031 0.00414342
v 0.03908944 -0.00139969 -0.00355070
v 0.03908912 0.04400031 -0.00355070
v 0.03764582 -0.00139970 -0.01110840
v 0.03764549 0.04400030 -0.01110840
v 0.03475550 -0.00139972 -0.01823925
v 0.03475517 0.04400028 -0.01823925
v 0.03052955 -0.00139975 -0.02466921
v 0.03052922 0.04400025 -0.02466921
v 0.02513039 -0.00139979 -0.03015118
v 0.02513006 0.04400021 -0.03015118
v 0.01876548 -0.00139984 -0.03447448
v 0.01876516 0.04400016 -0.03447448
v 0.01167945 -0.00139989 -0.03747299
v 0.01167912 0.04400011 -0.03747299
v 0.00414459 -0.00139994 -0.03903146
v 0.00414426 0.04400006 -0.03903146
v -0.00354954 -0.00140000 -0.03909001
v -0.00354986 0.04400000 -0.03909001
v -0.01110724 -0.00140005 -0.03764638
v -0.01110757 0.04399995 -0.03764638
v -0.01823809 -0.00140010 -0.03475606
v -0.01823842 0.04399990 -0.03475606
v -0.02466805 -0.00140015 -0.03053012
v -0.02466837 0.04399985 -0.03053012
v -0.03015001 -0.00140019 -0.02513095
v -0.03015034 0.04399981 -0.02513095
v -0.03447332 -0.00140022 -0.01876605
v -0.03447365 0.04399978 -0.01876605
v -0.03747182 -0.00140024 -0.01168001
v -0.03747215 0.04399976 -0.01168001
v 0.04800040 0.03550000 -0.01550010
v 0.04350040 0.03549998 -0.01550016
v 0.04350041 0.03399998 -0.01550016
v 0.04800041 0.03400000 -0.01550010
v 0.04500041 0.03399998 -0.01550014
v 0.04800039 0.03400000 -0.01400010
v 0.04350039 0.03399998 -0.01400016
v 0.04800038 0.03550000 -0.01400010
v 0.04350038 0.03549998 -0.01400016
v 0.04500039 0.03699998 -0.01550014
v 0.04800039 0.03700000 -0.01550010
v 0.04350042 0.03549998 -0.01700016
v 0.04350038 0.03999998 -0.01550016
v 0.04500038 0.03999998 -0.01550014
v 0.04350036 0.03999998 -0.01400016
v 0.04200038 0.03549997 -0.01400018
v 0.04200036 0.03999997 -0.01400018
v 0.04200040 0.03549997 -0.01550018
v 0.04200038 0.03999997 -0.01550018
v 0.04200039 0.03699997 -0.01550018
v 0.03750044 0.03999995 -0.02000025
v 0.04800049 0.02950000 -0.02000010
v 0.03750030 0.03999995 -0.00950025
v 0.04800034 0.02950000 -0.00950010
v 0.04800044 0.04000000 -0.02000010
v 0.04800030 0.04000000 -0.00950010
f 3 1 2
f 1 3 25
f 4 2 1
f 25 4 1
f 2 25 3
f 11 9 7
f 11 7 13
f 13 14 11
f 18 17 63
f 18 63 70
f 20 63 17
f 21 20 17
f 116 24 23
f 23 29 30
f 23 27 28
f 30 27 23
f 23 31 22
f 31 23 24
f 24 32 34
f 36 38 35
f 39 5 37
f 39 37 38
f 36 39 38
f 41 42 40
f 21 43 44
f 21 44 45
f 47 48 8
f 8 38 47
f 48 50 9
f 50 49 51
f 22 53 52
f 22 51 53
f 54 58 23
f 23 55 54
f 23 56 55
f 23 57 56
f 23 52 57
f 45 58 59
f 45 59 60
f 60 62 45
f 61 20 21
f 62 61 21
f 63 20 61
f 70 63 64
f 70 64 67
f 38 37 65
f 37 66 65
f 37 67 66
f 68 29 23
f 45 41 68
f 68 58 45
f 5 71 37
f 72 5 6
f 6 69 72
f 71 70 37
f 51 74 73
f 51 32 74
f 50 75 76
f 73 75 51
f 75 50 51
f 9 50 76
f 76 7 9
f 38 8 77
f 38 78 35
f 8 79 77
f 5 80 81
f 82 80 5
f 70 6 83
f 17 15 84
f 84 85 17
f 87 86 43
f 90 86 87
f 17 92 91
f 91 87 43
f 87 88 90
f 87 89 88
f 91 43 17
f 43 86 93
f 40 93 94
f 41 94 95
f 96 97 26
f 101 102 100
f 100 99 98
f 98 103 100
f 29 100 102
f 103 101 100
f 109 30 29
f 29 102 109
f 106 108 107
f 105 104 106
f 108 28 107
f 109 102 104
f 107 105 106
f 104 105 109
f 2 110 111
f 4 106 110
f 4 108 106
f 2 4 110
f 2 111 25
f 4 25 108
f 25 112 113
f 25 114 112
f 115 114 25
f 117 119 24
f 32 24 119
f 119 118 32
f 120 121 32
f 120 122 121
f 76 121 122
f 76 122 123
f 7 123 124
f 125 126 13
f 13 124 125
f 8 126 127
f 8 13 126
f 8 127 129
f 35 8 129
f 129 128 35
f 130 131 36
f 132 131 133
f 39 132 133
f 131 132 36
f 82 5 39
f 133 82 39
f 130 36 35
f 128 130 35
f 124 13 7
f 123 7 76
f 118 120 32
f 116 117 24
f 113 116 25
f 97 98 26
f 95 96 41
f 94 41 40
f 93 40 43
f 85 88 17
f 83 84 15
f 83 15 70
f 81 83 6
f 81 6 5
f 68 23 58
f 65 47 38
f 67 37 70
f 62 21 45
f 52 23 22
f 48 9 8
f 28 108 23
f 41 96 26
f 23 108 25
f 23 25 116
f 17 43 21
f 134 136 137
f 135 137 139
f 142 144 145
f 148 149 150
f 149 152 151
f 152 153 151
f 150 147 148
f 154 146 157
f 146 145 158
f 158 157 146
f 159 158 145
f 157 156 154
f 137 161 203
f 137 136 161
f 162 135 164
f 163 164 135
f 167 166 165
f 168 167 165
f 169 170 171
f 172 160 173
f 171 278 169
f 170 174 171
f 170 172 174
f 173 174 172
f 141 138 175
f 176 175 138
f 177 144 142
f 177 178 144
f 179 142 141
f 141 175 179
f 179 177 142
f 146 154 180
f 181 180 154
f 154 172 182
f 154 182 181
f 142 143 184
f 142 184 185
f 143 183 184
f 189 140 141
f 186 189 141
f 141 187 186
f 141 142 187
f 139 140 190
f 140 189 190
f 188 191 139
f 190 188 139
f 163 139 191
f 191 195 163
f 166 192 193
f 166 195 192
f 152 194 196
f 152 193 194
f 216 197 198
f 216 152 197
f 199 200 170
f 200 172 170
f 170 198 199
f 201 202 172
f 200 201 172
f 137 203 250
f 137 250 204
f 140 137 204
f 141 140 204
f 209 160 172
f 160 207 208
f 206 160 208
f 209 207 160
f 172 154 210
f 210 209 172
f 166 193 212
f 212 211 166
f 211 165 166
f 213 212 193
f 152 149 213
f 149 230 213
f 214 216 170
f 170 169 215
f 214 217 216
f 215 214 170
f 217 218 216
f 169 219 220
f 169 279 221
f 221 219 169
f 222 223 216
f 224 225 216
f 225 226 148
f 149 148 226
f 226 227 149
f 227 228 149
f 230 149 229
f 211 230 165
f 230 232 165
f 230 231 232
f 234 233 165
f 168 235 162
f 168 233 235
f 135 236 237
f 134 238 241
f 134 135 237
f 237 238 134
f 239 136 1
f 240 239 1
f 136 3 1
f 241 242 1
f 1 134 241
f 1 3 134
f 239 244 243
f 243 136 239
f 244 249 245
f 248 247 203
f 243 161 136
f 244 245 243
f 245 249 246
f 248 245 247
f 246 247 245
f 250 247 251
f 252 251 253
f 253 254 252
f 250 203 247
f 251 252 250
f 254 253 256
f 256 255 254
f 138 255 257
f 176 138 259
f 144 176 260
f 260 261 144
f 265 263 145
f 144 261 264
f 262 263 264
f 264 265 144
f 266 262 264
f 145 144 265
f 264 261 266
f 145 262 267
f 145 268 269
f 145 270 268
f 145 267 270
f 155 271 272
f 269 271 155
f 154 155 272
f 272 206 154
f 206 272 273
f 273 274 206
f 160 275 276
f 160 206 275
f 160 280 277
f 169 278 279
f 277 278 160
f 278 277 279
f 276 280 160
f 274 275 206
f 269 155 145
f 259 260 176
f 258 259 138
f 257 258 138
f 255 138 254
f 1 242 240
f 236 135 162
f 233 168 165
f 229 231 230
f 228 229 149
f 225 148 216
f 223 224 216
f 220 216 169
f 213 193 152
f 198 170 216
f 195 166 163
f 183 143 146
f 164 168 162
f 145 146 143
f 145 143 142
f 140 139 137
f 139 163 135
f 138 141 254
f 137 135 134
f 217 214 77
f 218 217 77
f 169 218 79
f 215 169 78
f 214 215 38
f 38 77 214
f 78 38 215
f 79 78 169
f 77 79 218
f 263 265 91
f 264 263 89
f 265 264 87
f 89 87 264
f 92 89 263
f 91 92 263
f 87 91 265
f 230 211 32
f 213 230 76
f 212 213 76
f 211 212 73
f 73 74 211
f 75 73 212
f 76 75 212
f 121 76 230
f 32 121 230
f 74 32 211
f 209 210 71
f 207 209 5
f 208 207 5
f 206 208 72
f 205 206 69
f 154 205 69
f 210 154 70
f 70 71 210
f 69 70 154
f 72 69 206
f 5 72 208
f 71 5 209
f 250 252 100
f 204 250 29
f 141 204 68
f 254 141 41
f 252 254 99
f 99 100 252
f 26 99 254
f 41 26 254
f 68 41 141
f 29 68 204
f 100 29 250
f 188 190 54
f 191 188 56
f 57 52 191
f 195 191 52
f 192 195 51
f 193 192 49
f 194 193 50
f 196 194 50
f 197 196 48
f 198 197 48
f 199 198 47
f 200 199 65
f 201 200 65
f 202 201 66
f 182 202 67
f 181 182 67
f 180 181 64
f 146 180 63
f 183 146 63
f 184 183 61
f 185 184 61
f 187 185 62
f 186 187 62
f 189 186 60
f 190 189 58
f 58 54 190
f 59 58 189
f 60 59 189
f 62 60 186
f 61 62 185
f 63 61 183
f 64 63 180
f 67 64 181
f 66 67 202
f 65 66 201
f 47 65 199
f 48 47 198
f 50 48 196
f 49 50 193
f 51 49 192
f 53 51 195
f 52 53 195
f 56 57 191
f 55 56 188
f 54 55 188
f 179 175 41
f 177 179 45
f 178 177 44
f 176 178 43
f 175 176 40
f 40 42 175
f 46 40 176
f 43 46 176
f 44 43 178
f 45 44 177
f 41 45 179
f 42 41 175
f 157 158 18
f 156 157 18
f 155 156 70
f 159 155 15
f 158 159 17
f 17 18 158
f 19 17 159
f 15 19 159
f 16 15 155
f 70 16 155
f 18 70 156
f 171 174 39
f 278 171 36
f 160 278 132
f 173 160 39
f 174 173 39
f 132 39 160
f 36 132 278
f 39 36 171
f 149 151 11
f 150 149 11
f 147 150 11
f 216 147 10
f 153 216 8
f 151 153 9
f 9 11 151
f 12 9 153
f 8 12 153
f 10 8 216
f 14 10 147
f 11 14 147
f 168 164 24
f 167 168 34
f 166 167 32
f 163 166 51
f 164 163 22
f 22 31 164
f 33 22 163
f 51 33 163
f 32 51 166
f 34 32 167
f 24 34 168
f 31 24 164
f 243 245 105
f 161 243 107
f 203 161 27
f 248 203 30
f 245 248 109
f 109 105 245
f 30 109 248
f 27 30 203
f 28 27 161
f 107 28 161
f 105 107 243
f 251 247 102
f 104 102 247
f 247 246 104
f 251 101 103
f 103 98 253
f 253 251 103
f 256 253 98
f 255 97 96
f 257 255 96
f 258 257 95
f 95 94 259
f 259 258 95
f 94 93 260
f 260 259 94
f 260 93 86
f 261 86 90
f 266 90 88
f 267 262 88
f 270 85 84
f 269 268 84
f 273 272 83
f 275 274 81
f 275 80 82
f 277 280 82
f 280 276 82
f 277 133 131
f 279 131 130
f 221 279 130
f 222 220 129
f 128 129 220
f 220 219 128
f 222 129 127
f 224 223 127
f 127 126 225
f 225 224 127
f 225 126 125
f 227 226 124
f 125 124 226
f 227 124 123
f 123 122 231
f 231 229 123
f 231 122 120
f 234 165 120
f 235 233 119
f 118 119 233
f 236 162 117
f 119 117 162
f 162 235 119
f 237 236 116
f 238 237 113
f 238 112 114
f 238 114 115
f 242 241 111
f 115 111 241
f 110 106 239
f 239 240 110
f 244 106 104
f 104 249 244
f 106 244 239
f 110 240 242
f 111 110 242
f 115 241 238
f 113 112 238
f 116 113 237
f 117 116 236
f 118 233 234
f 120 118 234
f 120 165 232
f 120 232 231
f 123 229 228
f 123 228 227
f 125 226 225
f 127 223 222
f 128 219 221
f 130 128 221
f 131 279 277
f 82 133 277
f 82 276 275
f 81 80 275
f 81 274 273
f 83 81 273
f 83 272 271
f 83 271 269
f 84 83 269
f 84 268 270
f 85 270 267
f 88 85 267
f 88 262 266
f 90 266 261
f 86 261 260
f 96 95 257
f 97 255 256
f 98 97 256
f 102 101 251
f 104 246 249
f 289 284 285
f 284 289 281
f 288 281 289
f 287 288 289
f 286 287 289
f 285 286 289
f 283 285 284
f 282 283 284
f 281 282 284
f 298 304 303
f 298 303 293
f 299 304 302
f 300 298 293
f 301 293 299
f 298 302 304
f 302 301 299
f 301 300 293
f 311 295 308
f 393 295 311
f 318 317 316
f 319 311 312
f 318 320 317
f 321 318 316
f 320 312 317
f 319 321 311
f 321 316 311
f 384 314 315
f 323 324 327
f 328 324 325
f 325 315 326
f 326 328 325
f 328 327 324
f 329 315 323
f 329 326 315
f 336 308 330
f 336 331 308
f 293 296 334
f 333 332 293
f 334 333 293
f 331 334 296
f 292 293 335
f 323 315 340
f 339 340 315
f 338 339 315
f 310 323 341
f 323 340 341
f 341 342 310
f 343 304 345
f 345 342 343
f 303 344 307
f 344 303 304
f 343 344 304
f 346 304 299
f 299 413 417
f 346 345 304
f 417 346 299
f 349 310 348
f 323 310 349
f 349 350 323
f 352 351 313
f 351 314 313
f 315 314 354
f 354 353 315
f 338 315 355
f 353 355 315
f 357 309 338
f 356 313 309
f 357 356 309
f 355 357 338
f 360 358 306
f 306 307 361
f 307 338 363
f 362 338 309
f 307 363 361
f 364 363 338
f 359 362 309
f 362 364 338
f 307 306 366
f 365 366 306
f 367 303 307
f 366 367 307
f 369 306 296
f 296 297 369
f 368 369 297
f 308 295 370
f 372 370 295
f 330 308 371
f 370 371 308
f 291 337 373
f 374 337 330
f 373 375 291
f 374 373 337
f 295 291 372
f 375 372 291
f 437 376 377
f 378 377 376
f 382 378 376
f 376 324 380
f 324 323 379
f 379 380 324
f 323 350 381
f 381 379 323
f 380 382 376
f 325 324 383
f 314 384 286
f 385 322 283
f 288 287 384
f 286 285 314
f 287 286 384
f 288 384 281
f 282 281 385
f 283 282 385
f 285 283 322
f 390 317 385
f 387 385 388
f 392 387 388
f 388 389 392
f 387 390 385
f 392 389 316
f 390 386 317
f 386 316 317
f 386 391 316
f 391 392 316
f 316 389 393
f 394 393 389
f 395 396 291
f 294 395 291
f 337 291 398
f 399 290 337
f 291 396 402
f 398 399 337
f 396 290 397
f 399 397 290
f 400 398 291
f 402 400 291
f 401 402 396
f 397 403 396
f 396 403 401
f 293 292 405
f 292 290 407
f 599 404 406
f 406 404 293
f 406 408 599
f 411 406 293
f 292 410 405
f 409 410 292
f 407 409 292
f 290 599 408
f 405 411 293
f 408 407 290
f 299 293 413
f 414 416 415
f 416 414 305
f 305 345 347
f 417 413 414
f 415 417 414
f 347 416 305
f 305 414 418
f 345 305 419
f 305 420 419
f 420 305 418
f 421 420 418
f 423 422 342
f 425 424 418
f 418 422 428
f 342 426 423
f 424 429 418
f 427 342 345
f 428 425 418
f 345 419 427
f 423 428 422
f 427 430 342
f 430 426 342
f 342 422 431
f 342 431 436
f 433 431 432
f 434 310 342
f 432 439 433
f 436 435 342
f 435 434 342
f 433 436 431
f 437 348 438
f 440 439 437
f 441 438 348
f 438 440 437
f 441 348 310
f 312 443 317
f 385 317 444
f 444 445 385
f 313 322 448
f 447 446 313
f 446 449 313
f 448 447 313
f 445 448 322
f 313 449 450
f 308 358 450
f 450 452 308
f 358 313 450
f 308 452 451
f 451 312 308
f 445 322 385
f 443 444 317
f 442 376 437
f 439 432 437
f 429 421 418
f 413 293 412
f 412 293 404
f 285 322 314
f 383 384 325
f 383 324 376
f 377 348 437
f 369 365 306
f 368 297 303
f 367 368 303
f 361 360 306
f 359 309 358
f 356 352 313
f 351 354 314
f 332 335 293
f 331 296 308
f 336 330 337
f 327 329 323
f 315 325 384
f 313 314 322
f 320 319 312
f 311 316 393
f 308 312 311
f 309 313 358
f 306 358 308
f 296 306 308
f 293 303 297
f 293 297 296
f 291 295 294
f 290 292 337
f 453 454 455
f 476 455 456
f 462 456 455
f 457 476 459
f 456 459 476
f 454 457 458
f 455 454 462
f 457 459 458
f 458 460 454
f 460 461 454
f 461 462 454
f 463 464 477
f 464 465 466
f 470 468 467
f 467 466 473
f 472 470 467
f 469 466 465
f 465 468 475
f 475 469 465
f 473 472 467
f 470 471 468
f 469 474 466
f 474 473 466
f 466 467 479
f 480 476 487
f 476 483 487
f 495 491 508
f 491 496 508
f 496 492 497
f 497 492 499
f 498 497 500
f 503 493 498
f 492 493 501
f 504 503 498
f 501 499 492
f 500 504 498
f 499 500 497
f 505 502 493
f 503 505 493
f 617 489 506
f 506 509 513
f 515 489 490
f 518 515 490
f 515 516 489
f 518 490 509
f 489 516 517
f 519 518 509
f 520 509 506
f 521 520 506
f 520 522 509
f 517 521 506
f 517 506 489
f 492 496 529
f 560 492 524
f 524 523 560
f 525 488 560
f 527 487 488
f 527 526 487
f 525 527 488
f 523 525 560
f 491 487 528
f 496 491 529
f 530 487 483
f 530 532 487
f 531 530 483
f 483 484 534
f 533 560 488
f 484 560 535
f 535 537 484
f 533 535 560
f 537 534 484
f 532 533 488
f 534 536 483
f 539 538 484
f 540 539 484
f 466 538 539
f 539 541 466
f 542 481 477
f 478 543 477
f 543 542 477
f 484 483 546
f 483 481 545
f 481 542 545
f 544 546 483
f 545 544 483
f 550 549 479
f 549 482 479
f 551 550 479
f 479 467 551
f 498 493 552
f 493 564 553
f 553 552 493
f 554 413 498
f 552 555 498
f 555 554 498
f 556 558 485
f 558 557 485
f 557 479 482
f 482 485 557
f 479 559 538
f 561 560 484
f 484 559 561
f 493 492 562
f 562 563 493
f 560 562 492
f 563 564 493
f 464 463 284
f 621 281 284
f 284 463 621
f 281 565 289
f 289 565 464
f 284 289 464
f 567 467 468
f 566 468 376
f 566 567 468
f 567 551 467
f 569 568 572
f 572 547 570
f 569 566 568
f 570 569 572
f 548 573 571
f 572 432 574
f 571 575 548
f 482 548 575
f 573 548 572
f 574 573 572
f 577 485 482
f 578 432 485
f 577 579 485
f 580 576 432
f 482 575 577
f 579 578 485
f 578 580 432
f 485 432 581
f 485 581 582
f 564 485 586
f 586 590 564
f 582 584 485
f 581 583 585
f 581 591 583
f 585 582 581
f 584 586 485
f 587 494 589
f 564 590 588
f 588 494 564
f 588 589 494
f 589 591 587
f 494 587 593
f 593 592 494
f 595 593 587
f 594 564 494
f 592 594 494
f 596 595 587
f 587 413 596
f 600 597 508
f 508 598 600
f 603 599 514
f 602 598 599
f 601 514 513
f 602 600 598
f 603 602 599
f 604 601 513
f 597 604 508
f 601 603 514
f 513 514 615
f 605 606 514
f 605 608 610
f 614 607 506
f 614 610 607
f 609 506 513
f 608 607 610
f 613 612 506
f 609 611 506
f 611 613 506
f 615 609 513
f 612 614 506
f 606 615 514
f 506 607 616
f 616 617 506
f 618 619 453
f 453 619 454
f 457 454 620
f 454 619 629
f 621 457 630
f 624 619 625
f 625 621 627
f 620 622 457
f 625 626 624
f 623 620 454
f 624 628 619
f 630 627 621
f 629 623 454
f 625 627 626
f 628 629 619
f 622 630 457
f 507 631 495
f 486 487 632
f 487 631 632
f 487 495 631
f 632 633 486
f 509 490 634
f 633 634 490
f 513 637 636
f 513 509 637
f 639 463 477
f 638 639 477
f 621 463 641
f 641 640 621
f 476 457 642
f 640 642 457
f 642 643 476
f 483 476 645
f 646 645 476
f 645 481 483
f 644 646 476
f 643 644 476
f 640 457 621
f 639 641 463
f 638 477 481
f 636 510 513
f 635 637 509
f 634 635 509
f 633 490 486
f 636 507 510
f 604 513 508
f 511 598 508
f 498 512 508
f 594 553 564
f 591 581 587
f 576 574 432
f 566 376 568
f 376 468 465
f 565 465 464
f 289 284 281
f 559 484 538
f 556 485 564
f 554 596 413
f 549 548 482
f 547 572 548
f 546 540 484
f 541 478 466
f 536 531 483
f 532 488 487
f 526 528 487
f 529 524 492
f 522 519 509
f 512 511 508
f 508 513 510
f 498 508 497
f 508 510 507
f 502 501 493
f 497 508 496
f 508 507 495
f 489 617 486
f 491 495 487
f 490 489 486
f 487 486 480
f 479 538 466
f 466 478 477
f 476 480 455
f 471 475 468
f 466 477 464
f 455 480 453
f 599 290 514
f 605 514 290
f 290 396 605
f 388 385 621
f 621 625 388
f 281 621 385
f 486 617 294
f 294 295 486
f 480 486 295
f 453 480 295
f 295 393 453
f 616 607 396
f 616 396 395
f 617 395 294
f 395 617 616
f 396 607 608
f 396 608 605
f 453 393 394
f 453 394 389
f 388 625 619
f 389 388 619
f 389 619 618
f 389 618 453
f 465 383 376
f 376 442 568
f 587 581 418
f 581 422 418
f 431 581 432
f 572 437 432
f 572 568 442
f 442 437 572
f 431 422 581
f 413 412 498
f 512 498 412
f 413 587 414
f 587 418 414
f 383 465 565
f 565 384 383
f 281 384 565
f 599 598 404
f 412 404 512
f 511 512 404
f 598 511 404
f 601 604 409
f 603 601 407
f 602 603 408
f 600 602 406
f 597 600 411
f 604 597 411
f 411 405 604
f 406 411 600
f 408 406 602
f 407 408 603
f 409 407 601
f 410 409 604
f 405 410 604
f 460 458 318
f 461 460 318
f 462 461 321
f 456 462 319
f 459 456 320
f 458 459 320
f 320 318 458
f 319 320 456
f 321 319 462
f 318 321 461
f 516 515 370
f 517 516 372
f 521 517 373
f 520 521 373
f 522 520 373
f 330 371 519
f 519 522 330
f 518 519 371
f 515 518 370
f 371 370 518
f 374 330 522
f 373 374 522
f 375 373 517
f 372 375 517
f 370 372 516
f 626 627 392
f 624 626 392
f 628 624 392
f 629 628 392
f 623 629 392
f 620 623 391
f 622 620 386
f 630 622 386
f 627 630 390
f 390 387 627
f 386 390 630
f 391 386 620
f 392 391 623
f 387 392 627
f 527 525 365
f 526 527 365
f 528 526 365
f 491 528 369
f 529 491 369
f 524 529 368
f 523 524 367
f 525 523 366
f 367 366 523
f 368 367 524
f 369 368 529
f 365 369 528
f 366 365 525
f 536 534 362
f 531 536 359
f 530 531 358
f 532 530 360
f 533 532 361
f 535 533 361
f 537 535 363
f 534 537 362
f 364 362 537
f 363 364 537
f 361 363 535
f 360 361 532
f 358 360 530
f 359 358 531
f 362 359 536
f 543 478 351
f 542 543 351
f 545 542 352
f 544 545 356
f 546 544 357
f 540 546 355
f 539 540 355
f 541 539 353
f 478 541 351
f 354 351 541
f 353 354 541
f 355 353 539
f 357 355 546
f 356 357 544
f 352 356 545
f 351 352 542
f 469 475 328
f 474 469 326
f 473 474 329
f 472 473 327
f 470 472 327
f 471 470 327
f 475 471 328
f 327 328 471
f 329 327 473
f 326 329 474
f 328 326 469
f 567 566 380
f 551 567 379
f 381 350 551
f 550 551 350
f 549 550 349
f 548 549 349
f 570 547 348
f 547 548 348
f 569 570 377
f 566 569 382
f 382 380 566
f 378 382 569
f 377 378 569
f 348 377 570
f 349 348 548
f 350 349 550
f 379 381 551
f 380 379 567
f 571 573 438
f 575 571 438
f 577 575 310
f 441 310 575
f 579 577 310
f 578 579 434
f 580 578 436
f 576 580 433
f 574 576 439
f 573 574 438
f 440 438 574
f 439 440 574
f 433 439 576
f 436 433 580
f 435 436 578
f 434 435 578
f 310 434 579
f 438 441 575
f 584 582 423
f 586 584 426
f 590 586 427
f 588 590 419
f 427 419 590
f 589 588 419
f 591 589 420
f 583 591 421
f 585 583 425
f 582 585 423
f 428 423 585
f 425 428 585
f 424 425 583
f 429 424 583
f 421 429 583
f 420 421 591
f 419 420 589
f 430 427 586
f 426 430 586
f 423 426 584
f 552 553 346
f 555 552 346
f 554 555 417
f 596 554 417
f 595 596 417
f 593 595 415
f 592 593 416
f 594 592 416
f 553 594 347
f 347 345 553
f 416 347 594
f 415 416 593
f 417 415 595
f 346 417 555
f 345 346 553
f 499 501 298
f 500 499 300
f 504 500 301
f 503 504 302
f 505 503 302
f 502 505 302
f 501 502 298
f 302 298 502
f 301 302 504
f 300 301 500
f 298 300 499
f 559 479 340
f 561 559 338
f 339 338 559
f 560 561 338
f 562 560 344
f 563 562 344
f 564 563 343
f 556 564 343
f 558 556 342
f 557 558 342
f 341 340 557
f 479 557 340
f 342 341 557
f 343 342 556
f 344 343 563
f 307 344 560
f 338 307 560
f 340 339 559
f 611 609 398
f 613 611 398
f 612 613 400
f 614 612 400
f 610 614 402
f 605 610 403
f 606 605 397
f 615 606 397
f 609 615 399
f 399 398 609
f 397 399 615
f 403 397 605
f 401 403 610
f 402 401 610
f 400 402 614
f 398 400 613
f 336 337 637
f 637 635 336
f 635 634 336
f 334 331 507
f 333 334 507
f 332 333 636
f 636 335 332
f 636 292 335
f 337 292 636
f 636 637 337
f 507 636 333
f 631 507 331
f 632 631 331
f 633 632 331
f 331 336 633
f 634 633 336
f 452 450 645
f 451 452 645
f 646 644 451
f 644 643 312
f 443 312 642
f 640 444 443
f 445 444 640
f 641 639 445
f 448 445 639
f 447 448 639
f 446 447 638
f 449 446 638
f 450 449 481
f 450 481 645
f 638 481 449
f 639 638 447
f 640 641 445
f 642 640 443
f 643 642 312
f 312 451 644
f 645 646 451
f 647 648 649
f 652 650 649
f 654 652 653
f 654 655 648
f 647 648 656
f 647 657 656
f 648 647 654
f 653 655 654
f 649 653 652
f 649 650 647
f 659 648 656
f 659 660 656
f 661 659 648
f 661 655 662
f 663 662 664
f 659 665 664
f 664 648 659
f 664 665 663
f 662 663 661
f 648 655 661
f 667 668 658
f 668 648 658
f 658 648 667
f 655 670 669
f 668 649 648
f 648 664 667
f 669 662 655
f 655 653 670
f 653 649 670
f 670 649 651
f 668 651 649
f 651 668 670
f 669 664 662
f 669 667 666
f 666 664 669
f 664 666 667
f 671 672 657
f 672 647 657
f 657 647 671
f 654 647 672
f 670 650 652
f 670 668 650
f 672 670 654
f 668 671 647
f 668 647 650
f 652 654 670
f 667 669 665
f 663 665 669
f 672 659 661
f 672 671 660
f 669 672 661
f 660 659 672
f 671 667 659
f 669 661 663
f 665 659 667
f 659 660 671
f 672 669 670
f 668 667 671
f 673 674 675
f 678 676 675
f 680 678 679
f 680 681 674
f 673 674 682
f 673 683 682
f 674 673 680
f 679 681 680
f 675 679 678
f 675 676 673
f 685 674 682
f 685 686 682
f 687 685 674
f 687 681 688
f 689 688 690
f 685 691 690
f 690 674 685
f 690 691 689
f 688 689 687
f 674 681 687
f 693 694 684
f 694 674 684
f 684 674 693
f 681 696 695
f 694 675 674
f 674 690 693
f 695 688 681
f 681 679 696
f 679 675 696
f 696 675 677
f 694 677 675
f 677 694 696
f 695 690 688
f 695 693 692
f 692 690 695
f 690 692 693
f 697 698 683
f 698 673 683
f 683 673 697
f 680 673 698
f 696 676 678
f 696 694 676
f 698 696 680
f 694 697 673
f 694 673 676
f 678 680 696
f 693 695 691
f 689 691 695
f 698 685 687
f 698 697 686
f 695 698 687
f 686 685 698
f 697 693 685
f 695 687 689
f 691 685 693
f 685 686 697
f 698 695 696
f 694 693 697
f 700 701 699
f 701 702 699
f 702 703 699
f 703 704 699
f 704 705 699
f 705 706 699
f 706 707 699
f 707 700 699
f 708 704 703
f 709 703 702
f 710 702 701
f 711 701 700
f 712 700 707
f 713 707 706
f 714 706 705
f 715 705 704
f 704 708 715
f 705 715 714
f 706 714 713
f 707 713 712
f 700 712 711
f 701 711 710
f 702 710 709
f 703 709 708
f 712 713 716
f 713 714 716
f 714 715 716
f 715 708 716
f 708 709 716
f 709 710 716
f 710 711 716
f 711 712 716
f 718 719 717
f 719 720 717
f 720 721 717
f 721 722 717
f 722 723 717
f 723 724 717
f 724 725 717
f 725 718 717
f 726 722 721
f 727 721 720
f 728 720 719
f 729 719 718
f 730 718 725
f 731 725 724
f 732 724 723
f 733 723 722
f 722 726 733
f 723 733 732
f 724 732 731
f 725 731 730
f 718 730 729
f 719 729 728
f 720 728 727
f 721 727 726
f 730 731 734
f 731 732 734
f 732 733 734
f 733 726 734
f 726 727 734
f 727 728 734
f 728 729 734
f 729 730 734
f 736 737 735
f 737 738 735
f 738 739 735
f 739 740 735
f 740 741 735
f 741 742 735
f 742 743 735
f 743 736 735
f 744 740 739
f 745 739 738
f 746 738 737
f 747 737 736
f 748 736 743
f 749 743 742
f 750 742 741
f 751 741 740
f 740 744 751
f 741 751 750
f 742 750 749
f 743 749 748
f 736 748 747
f 737 747 746
f 738 746 745
f 739 745 744
f 748 749 752
f 749 750 752
f 750 751 752
f 751 744 752
f 744 745 752
f 745 746 752
f 746 747 752
f 747 748 752
f 753 754 755
f 758 756 755
f 760 758 759
f 760 761 754
f 753 754 762
f 753 763 762
f 754 753 760
f 759 761 760
f 755 759 758
f 755 756 753
f 765 754 762
f 765 766 762
f 767 765 754
f 767 761 768
f 769 768 770
f 765 771 770
f 770 754 765
f 770 771 769
f 768 769 767
f 754 761 767
f 773 774 764
f 774 754 764
f 764 754 773
f 761 776 775
f 774 755 754
f 754 770 773
f 775 768 761
f 761 759 776
f 759 755 776
f 776 755 757
f 774 757 755
f 757 774 776
f 775 770 768
f 775 773 772
f 772 770 775
f 770 772 773
f 777 778 763
f 778 753 763
f 763 753 777
f 760 753 778
f 776 756 758
f 776 774 756
f 778 776 760
f 774 777 753
f 774 753 756
f 758 760 776
f 773 775 771
f 769 771 775
f 778 765 767
f 778 777 766
f 775 778 767
f 766 765 778
f 777 773 765
f 775 767 769
f 771 765 773
f 765 766 777
f 778 775 776
f 774 773 777
f 783 781 823
f 786 783 784
f 789 786 787
f 791 789 779
f 781 791 779
f 790 779 789
f 788 790 789
f 787 788 789
f 785 787 786
f 784 785 786
f 823 784 783
f 782 823 781
f 780 782 781
f 779 780 781
f 793 792 794
f 795 794 798
f 799 795 801
f 800 796 797
f 797 799 800
f 802 798 794
f 794 803 802
f 796 803 797
f 798 801 795
f 803 794 797
f 801 804 799
f 807 799 873
f 805 808 832
f 807 806 799
f 811 807 873
f 809 832 799
f 811 873 808
f 805 810 808
f 806 809 799
f 813 811 808
f 810 813 808
f 809 812 832
f 814 832 808
f 808 815 814
f 817 819 818
f 820 822 821
f 779 816 815
f 935 816 788
f 780 779 815
f 815 818 780
f 823 782 818
f 779 790 816
f 790 788 816
f 782 780 818
f 935 788 787
f 823 821 784
f 785 784 821
f 787 821 935
f 816 935 824
f 825 832 828
f 828 826 825
f 826 827 825
f 833 831 827
f 827 834 830
f 831 829 814
f 826 834 827
f 829 832 814
f 830 833 827
f 825 836 835
f 832 825 837
f 835 837 825
f 832 837 838
f 838 799 832
f 839 840 842
f 842 841 795
f 843 842 795
f 799 843 795
f 844 793 846
f 841 907 850
f 846 845 844
f 793 795 847
f 847 846 793
f 849 848 841
f 848 847 795
f 850 849 841
f 845 850 844
f 907 844 850
f 858 792 851
f 854 855 853
f 855 854 866
f 862 851 856
f 852 863 854
f 865 855 866
f 865 866 861
f 859 857 792
f 862 858 851
f 854 853 852
f 865 861 792
f 858 859 792
f 860 862 863
f 864 865 792
f 856 863 862
f 852 860 863
f 866 854 867
f 857 864 792
f 793 851 792
f 848 795 841
f 840 841 842
f 831 814 827
f 824 827 814
f 824 814 816
f 787 785 821
f 822 935 821
f 819 823 818
f 815 816 814
f 812 805 832
f 804 800 799
f 794 795 793
f 868 869 870
f 871 870 872
f 919 871 879
f 881 872 870
f 876 877 873
f 873 875 876
f 878 875 919
f 877 874 873
f 879 878 919
f 880 881 870
f 874 880 873
f 880 870 873
f 872 879 871
f 919 875 882
f 889 875 794
f 889 882 875
f 884 885 883
f 888 883 919
f 884 886 885
f 888 887 883
f 794 885 886
f 890 889 794
f 886 890 794
f 882 888 919
f 891 883 885
f 893 894 861
f 904 892 897
f 861 896 899
f 899 895 861
f 905 899 896
f 896 898 905
f 900 892 885
f 895 902 861
f 897 901 904
f 898 863 905
f 900 897 892
f 885 861 902
f 863 903 905
f 902 900 885
f 905 903 904
f 892 904 906
f 907 883 910
f 910 909 907
f 908 914 912
f 909 908 907
f 913 910 883
f 913 883 891
f 912 911 891
f 909 915 908
f 911 913 891
f 915 914 908
f 907 917 916
f 883 907 918
f 916 918 907
f 918 919 883
f 920 921 922
f 922 921 871
f 923 922 871
f 919 923 871
f 924 868 926
f 921 927 931
f 926 925 924
f 868 871 928
f 921 930 929
f 928 926 868
f 925 931 927
f 929 928 871
f 931 930 921
f 927 924 925
f 924 932 868
f 933 935 934
f 938 937 936
f 869 868 789
f 783 933 937
f 937 781 783
f 789 791 869
f 789 932 935
f 781 937 938
f 781 938 869
f 789 868 932
f 935 933 786
f 783 786 933
f 786 789 935
f 791 781 869
f 929 871 921
f 912 891 908
f 906 908 891
f 906 891 892
f 901 905 904
f 894 896 861
f 885 892 891
f 887 884 883
f 878 876 875
f 870 871 868
f 927 921 825
f 825 827 927
f 856 851 904
f 906 904 851
f 851 793 906
f 906 793 844
f 869 938 815
f 815 808 870
f 870 869 815
f 873 870 808
f 794 875 797
f 792 861 885
f 885 794 792
f 799 797 875
f 873 799 875
f 824 935 932
f 822 934 935
f 841 840 907
f 843 799 919
f 842 843 918
f 919 918 843
f 838 837 923
f 799 838 923
f 923 919 799
f 922 923 837
f 894 866 867
f 866 894 893
f 866 893 861
f 936 819 817
f 936 817 818
f 818 815 938
f 818 938 936
f 863 904 903
f 854 898 896
f 867 854 896
f 896 894 867
f 898 854 863
f 904 863 856
f 936 937 823
f 823 819 936
f 821 823 933
f 821 933 934
f 934 822 820
f 934 820 821
f 937 933 823
f 844 907 908
f 908 906 844
f 924 927 827
f 824 932 924
f 827 824 924
f 825 921 920
f 836 920 922
f 922 837 835
f 922 835 836
f 920 836 825
f 907 840 839
f 917 839 842
f 842 918 916
f 842 916 917
f 839 917 907
f 877 876 811
f 874 877 811
f 880 874 811
f 881 880 813
f 872 881 805
f 879 872 812
f 878 879 809
f 876 878 807
f 806 807 878
f 809 806 878
f 812 809 879
f 805 812 872
f 810 805 881
f 813 810 881
f 811 813 880
f 807 811 876
f 886 884 802
f 890 886 803
f 889 890 803
f 882 889 800
f 888 882 804
f 887 888 801
f 884 887 798
f 801 798 887
f 804 801 888
f 800 804 882
f 796 800 889
f 803 796 889
f 802 803 886
f 798 802 884
f 899 905 855
f 895 899 855
f 902 895 865
f 900 902 865
f 897 900 859
f 901 897 858
f 905 901 862
f 858 862 901
f 859 858 897
f 857 859 900
f 864 857 900
f 865 864 900
f 855 865 895
f 853 855 905
f 852 853 905
f 860 852 905
f 862 860 905
f 829 831 926
f 832 829 928
f 828 832 928
f 826 828 929
f 834 826 931
f 830 834 931
f 833 830 925
f 831 833 925
f 925 926 831
f 931 925 830
f 930 931 826
f 929 930 826
f 928 929 828
f 926 928 829
f 847 848 910
f 846 847 911
f 845 846 912
f 850 845 914
f 849 850 909
f 848 849 909
f 909 910 848
f 915 909 850
f 914 915 850
f 912 914 845
f 911 912 846
f 913 911 847
f 910 913 847
f 939 940 941
f 944 942 941
f 946 944 945
f 946 947 940
f 939 940 948
f 939 949 948
f 940 939 946
f 945 947 946
f 941 945 944
f 941 942 939
f 951 940 948
f 951 952 948
f 953 951 940
f 953 947 954
f 955 954 956
f 951 957 956
f 956 940 951
f 956 957 955
f 954 955 953
f 940 947 953
f 959 960 950
f 960 940 950
f 950 940 959
f 947 962 961
f 960 941 940
f 940 956 959
f 961 954 947
f 947 945 962
f 945 941 962
f 962 941 943
f 960 943 941
f 943 960 962
f 961 956 954
f 961 959 958
f 958 956 961
f 956 958 959
f 963 964 949
f 964 939 949
f 949 939 963
f 946 939 964
f 962 942 944
f 962 960 942
f 964 962 946
f 960 963 939
f 960 939 942
f 944 946 962
f 959 961 957
f 955 957 961
f 964 951 953
f 964 963 952
f 961 964 953
f 952 951 964
f 963 959 951
f 961 953 955
f 957 951 959
f 951 952 963
f 964 961 962
f 960 959 963
f 965 966 967
f 970 968 967
f 972 970 971
f 972 973 966
f 965 966 974
f 965 975 974
f 966 965 972
f 971 973 972
f 967 971 970
f 967 968 965
f 977 966 974
f 977 978 974
f 979 977 966
f 979 973 980
f 981 980 982
f 977 983 982
f 982 966 977
f 982 983 981
f 980 981 979
f 966 973 979
f 985 986 976
f 986 966 976
f 976 966 985
f 973 988 987
f 986 967 966
f 966 982 985
f 987 980 973
f 973 971 988
f 971 967 988
f 988 967 969
f 986 969 967
f 969 986 988
f 987 982 980
f 987 985 984
f 984 982 987
f 982 984 985
f 989 990 975
f 990 965 975
f 975 965 989
f 972 965 990
f 988 968 970
f 988 986 968
f 990 988 972
f 986 989 965
f 986 965 968
f 970 972 988
f 985 987 983
f 981 983 987
f 990 977 979
f 990 989 978
f 987 990 979
f 978 977 990
f 989 985 977
f 987 979 981
f 983 977 985
f 977 978 989
f 990 987 988
f 986 985 989
f 996 994 995
f 997 996 995
f 1230 997 1100
f 998 1000 1001
f 1001 999 998
f 1003 1002 1010
f 1006 1200 1004
f 1008 1006 1007
f 992 1008 991
f 1009 991 1008
f 1007 1009 1008
f 1037 1007 1006
f 1005 1037 1006
f 1004 1005 1006
f 1010 1004 1003
f 1000 1002 1001
f 1100 998 1230
f 1101 1100 997
f 995 1101 997
f 993 995 994
f 991 993 992
f 1013 1019 1010
f 1010 1012 1014
f 1014 1013 1010
f 1015 1011 1019
f 1013 1015 1019
f 1015 1016 1011
f 1017 1014 1012
f 1016 1017 1012
f 1012 1011 1016
f 1020 1037 1021
f 1028 1021 1037
f 1026 1022 1019
f 1037 1019 1025
f 1022 1025 1019
f 1027 1026 1023
f 1024 1023 1020
f 1024 1027 1023
f 1025 1028 1037
f 1021 1024 1020
f 1029 1020 1033
f 1030 1029 1035
f 1033 1031 1029
f 1036 1033 1020
f 1023 1032 1034
f 1035 1032 1030
f 1036 1020 1023
f 1034 1036 1023
f 1031 1035 1029
f 1029 1045 1038
f 1041 1038 1045
f 1045 1020 1041
f 1040 1039 1020
f 1044 1040 1029
f 1043 1042 1029
f 1039 1041 1020
f 1042 1044 1029
f 1038 1043 1029
f 1163 1046 1048
f 1048 1047 1163
f 1046 1045 1051
f 1051 1048 1046
f 1053 1052 1045
f 1050 1049 1163
f 1047 1050 1163
f 1052 1051 1045
f 1054 1053 1049
f 1050 1054 1049
f 1056 1009 1046
f 1055 1056 1058
f 1163 1055 1062
f 1058 1057 1055
f 1060 1058 1056
f 1063 1061 1163
f 1059 1060 1056
f 1061 1059 1046
f 1059 1056 1046
f 1062 1063 1163
f 1057 1062 1055
f 1064 991 1056
f 1066 1115 1064
f 1069 1065 1074
f 1067 1064 1068
f 1072 1068 1064
f 1068 1070 1067
f 1064 1065 1073
f 1069 1071 1065
f 1073 1072 1064
f 1070 1074 1067
f 1030 1023 1076
f 1023 1019 1077
f 1076 1075 1030
f 1077 1076 1023
f 1081 1077 1019
f 1075 1078 1030
f 1080 1018 1079
f 1079 1082 1080
f 1018 1080 1081
f 1079 1030 1078
f 1078 1082 1079
f 1046 1009 1083
f 1009 1084 1086
f 1086 1083 1009
f 1085 1045 1046
f 1084 1089 1086
f 1083 1085 1046
f 1088 1037 1045
f 1084 1037 1089
f 1088 1087 1037
f 1087 1089 1037
f 1090 1088 1045
f 1045 1091 1090
f 1092 1010 1002
f 1095 1000 998
f 1096 1094 1093
f 1095 1093 1000
f 1095 1096 1093
f 1098 1095 998
f 1097 1137 1099
f 1099 1098 998
f 1099 998 1097
f 1100 1097 998
f 991 1064 1115
f 1009 1056 991
f 1007 1037 1084
f 1005 1019 1037
f 1005 1004 1019
f 1010 1019 1004
f 1010 1103 1012
f 1012 1146 1236
f 1011 1012 1236
f 1018 1019 1104
f 1019 1011 1104
f 1018 1104 1105
f 1107 1067 1074
f 1275 1109 1110
f 1067 1107 1108
f 1108 1111 1067
f 1114 1108 1107
f 1110 1112 1275
f 1107 1275 1114
f 1113 1110 1109
f 1066 1111 1113
f 1112 1114 1275
f 1113 1273 1066
f 1113 1109 1273
f 1102 995 1116
f 1117 1118 995
f 995 993 1117
f 993 1122 1117
f 1121 1115 1119
f 1118 1116 995
f 1122 993 1115
f 1121 1120 1115
f 1124 1121 1119
f 1120 1122 1115
f 1119 1262 1124
f 1123 1262 1228
f 1125 1228 1102
f 1123 1124 1262
f 1125 1126 1228
f 1126 1123 1228
f 1101 1127 1130
f 1128 1135 1100
f 1133 1130 1127
f 1129 1128 1100
f 1131 1100 1101
f 1101 1130 1131
f 1253 1135 1128
f 1131 1129 1100
f 1127 1253 1132
f 1132 1133 1127
f 1128 1134 1253
f 1134 1132 1253
f 1097 1100 1135
f 1097 1135 1137
f 1135 1136 1138
f 1136 1093 1138
f 1139 1137 1135
f 1138 1139 1135
f 1141 1140 1238
f 1141 1238 1237
f 1142 1146 1012
f 1141 1103 1140
f 1145 1141 1237
f 1141 1143 1103
f 1147 1142 1012
f 1142 1144 1146
f 1147 1012 1103
f 1143 1147 1103
f 1146 1148 1145
f 1237 1146 1145
f 1144 1148 1146
f 1140 1103 1092
f 1102 1127 1101
f 1116 1125 1102
f 1115 1066 1273
f 1111 1066 1067
f 1107 1074 1106
f 1106 1074 1065
f 1055 1106 1056
f 1105 1079 1018
f 1104 1011 1236
f 1010 1092 1103
f 1007 1084 1009
f 993 991 1115
f 1101 995 1102
f 1094 1138 1093
f 1002 1000 1093
f 1002 1093 1092
f 1085 1091 1045
f 1081 1019 1018
f 1071 1073 1065
f 1064 1067 1066
f 1056 1106 1065
f 1056 1065 1064
f 1061 1046 1163
f 1053 1045 1049
f 1029 1049 1045
f 1040 1020 1029
f 1020 1045 1037
f 1032 1023 1030
f 1026 1019 1023
f 1149 1150 1151
f 1152 1153 1154
f 1156 1153 1151
f 1155 1151 1150
f 1159 1155 1150
f 1156 1157 1153
f 1157 1154 1153
f 1155 1158 1151
f 1158 1156 1151
f 1152 1159 1150
f 1153 1160 1161
f 1153 1161 1162
f 1163 1162 1165
f 1162 1161 1166
f 1165 1164 1163
f 1160 1169 1167
f 1168 1160 1163
f 1166 1165 1162
f 1167 1166 1161
f 1168 1169 1160
f 1164 1168 1163
f 1177 1170 1175
f 1163 1177 1172
f 1175 1173 1177
f 1174 1171 1162
f 1172 1174 1163
f 1176 1175 1170
f 1171 1170 1162
f 1173 1172 1177
f 1171 1176 1170
f 1188 1170 1178
f 1179 1178 1180
f 1182 1180 1178
f 1182 1178 1170
f 1177 1184 1181
f 1177 1179 1183
f 1181 1182 1170
f 1180 1183 1179
f 1183 1184 1177
f 1185 1186 1187
f 1193 1187 1186
f 1178 1185 1192
f 1193 1186 1188
f 1190 1189 1188
f 1191 1190 1178
f 1189 1193 1188
f 1192 1191 1178
f 1187 1192 1185
f 1213 1185 1195
f 1196 1179 1213
f 1195 1194 1213
f 1197 1195 1185
f 1185 1178 1197
f 1199 1198 1179
f 1194 1196 1213
f 1198 1197 1178
f 1196 1199 1179
f 1186 1185 1201
f 1003 1203 1204
f 1203 1205 1210
f 1206 1202 1003
f 1204 1206 1003
f 1210 1207 1203
f 1209 1208 1202
f 1206 1209 1202
f 1208 1210 1205
f 1208 1205 1202
f 1212 1185 1213
f 1212 1211 1185
f 1211 1201 1185
f 1211 1214 1201
f 1215 1212 1213
f 1218 1215 1213
f 1079 1201 1217
f 1217 1216 1079
f 1214 1217 1201
f 1216 1218 1079
f 1222 1219 1162
f 1222 1220 1219
f 1220 1221 1219
f 1162 1170 1225
f 1223 1222 1162
f 1220 1224 1221
f 1225 1223 1162
f 1170 1188 1226
f 1227 1226 1188
f 1221 1224 1227
f 1227 1188 1221
f 1226 1225 1170
f 1203 1004 1200
f 1004 1203 1003
f 1188 1186 1006
f 1221 1188 1006
f 1006 1008 1221
f 1219 1221 1008
f 1153 1219 1008
f 1153 1008 992
f 1149 1151 992
f 1151 1153 992
f 992 993 1266
f 1228 1229 996
f 1230 998 1136
f 1001 1092 1232
f 999 1232 1231
f 1234 1092 1246
f 1233 1232 1092
f 1136 999 1231
f 999 1001 1232
f 1234 1233 1092
f 1246 1248 1234
f 1202 1235 1002
f 1235 1092 1002
f 1002 1003 1202
f 1286 1203 1201
f 1245 1205 1236
f 1202 1245 1241
f 1237 1238 1240
f 1241 1239 1202
f 1243 1240 1238
f 1242 1237 1240
f 1240 1244 1242
f 1235 1239 1243
f 1243 1140 1235
f 1243 1238 1140
f 1244 1245 1242
f 1247 1248 1136
f 1248 1246 1136
f 1250 1249 1136
f 1136 1252 1250
f 1251 1247 1136
f 1249 1251 1136
f 1136 1253 1230
f 1230 1253 1254
f 1258 1254 1253
f 997 1230 1257
f 1255 1260 997
f 1256 1255 997
f 1254 1257 1230
f 1257 1256 997
f 1259 1253 1260
f 1259 1258 1253
f 1255 1259 1260
f 1229 1228 1261
f 1228 1262 1263
f 1263 1262 1119
f 1119 1265 1263
f 1264 1261 1228
f 1263 1264 1228
f 1267 994 996
f 1268 996 1229
f 994 1271 1266
f 1267 1271 994
f 1119 1270 1269
f 1268 1267 996
f 1270 1119 1266
f 1229 1261 1268
f 1274 1149 1273
f 1274 1273 1275
f 1275 1272 1274
f 1277 1276 1150
f 1275 1278 1272
f 1279 1276 1280
f 1283 1278 1275
f 1277 1280 1276
f 1281 1277 1150
f 1274 1282 1149
f 1282 1150 1149
f 1282 1281 1150
f 1280 1283 1279
f 1283 1275 1279
f 1152 1150 1276
f 1160 1153 1287
f 1153 1152 1287
f 1160 1287 1284
f 1079 1285 1201
f 1285 1286 1201
f 1276 1287 1152
f 1119 1149 1266
f 1269 1265 1119
f 1260 1228 997
f 1092 1235 1140
f 1239 1235 1202
f 1236 1242 1245
f 1205 1245 1202
f 1286 1205 1203
f 1001 1002 1092
f 1231 1252 1136
f 998 999 1136
f 996 997 1228
f 993 994 1266
f 992 1266 1149
f 1006 1186 1200
f 1218 1213 1079
f 1207 1204 1203
f 1201 1203 1200
f 1201 1200 1186
f 1198 1178 1179
f 1190 1188 1178
f 1181 1170 1177
f 1174 1162 1163
f 1167 1161 1160
f 1162 1219 1153
f 1286 1105 1104
f 1205 1286 1104
f 1104 1236 1205
f 1163 1160 1055
f 1163 1049 1177
f 1049 1029 1177
f 1179 1177 1029
f 1213 1179 1029
f 1029 1030 1213
f 1079 1213 1030
f 1287 1107 1106
f 1284 1287 1106
f 1287 1276 1107
f 1237 1242 1146
f 1242 1236 1146
f 1093 1136 1246
f 1149 1119 1115
f 1273 1149 1115
f 1107 1276 1279
f 1107 1279 1275
f 1273 1109 1275
f 1102 1228 1260
f 1127 1102 1260
f 1127 1260 1253
f 1135 1253 1136
f 1093 1246 1092
f 1284 1106 1055
f 1160 1284 1055
f 1105 1286 1285
f 1105 1285 1079
f 1259 1255 1133
f 1258 1259 1132
f 1254 1258 1128
f 1257 1254 1128
f 1256 1257 1131
f 1255 1256 1131
f 1131 1130 1255
f 1129 1131 1257
f 1128 1129 1257
f 1134 1128 1258
f 1132 1134 1258
f 1133 1132 1259
f 1130 1133 1255
f 1250 1252 1137
f 1252 1231 1137
f 1249 1250 1139
f 1251 1249 1139
f 1247 1251 1139
f 1248 1247 1138
f 1234 1248 1138
f 1233 1234 1096
f 1232 1233 1095
f 1231 1232 1095
f 1099 1137 1231
f 1098 1099 1231
f 1095 1098 1231
f 1096 1095 1233
f 1094 1096 1234
f 1138 1094 1234
f 1139 1138 1247
f 1137 1139 1250
f 1243 1239 1147
f 1240 1243 1141
f 1244 1240 1145
f 1245 1244 1148
f 1241 1245 1142
f 1239 1241 1147
f 1142 1147 1241
f 1144 1142 1245
f 1148 1144 1245
f 1145 1148 1244
f 1141 1145 1240
f 1143 1141 1243
f 1147 1143 1243
f 1206 1204 1014
f 1209 1206 1014
f 1208 1209 1017
f 1210 1208 1016
f 1207 1210 1015
f 1204 1207 1013
f 1015 1013 1207
f 1016 1015 1210
f 1017 1016 1208
f 1014 1017 1209
f 1013 1014 1204
f 1189 1190 1028
f 1193 1189 1028
f 1187 1193 1022
f 1192 1187 1027
f 1191 1192 1024
f 1190 1191 1021
f 1024 1021 1191
f 1027 1024 1192
f 1026 1027 1187
f 1022 1026 1187
f 1025 1022 1193
f 1028 1025 1193
f 1021 1028 1190
f 1220 1222 1083
f 1224 1220 1086
f 1227 1224 1089
f 1226 1227 1087
f 1225 1226 1090
f 1223 1225 1085
f 1222 1223 1083
f 1085 1083 1223
f 1091 1085 1225
f 1090 1091 1225
f 1088 1090 1226
f 1087 1088 1226
f 1089 1087 1227
f 1086 1089 1224
f 1083 1086 1220
f 1159 1152 1074
f 1155 1159 1068
f 1158 1155 1072
f 1156 1158 1072
f 1157 1156 1071
f 1154 1157 1071
f 1152 1154 1069
f 1069 1074 1152
f 1071 1069 1154
f 1073 1071 1156
f 1072 1073 1156
f 1068 1072 1155
f 1070 1068 1159
f 1074 1070 1159
f 1278 1283 1112
f 1272 1278 1110
f 1274 1272 1110
f 1282 1274 1110
f 1281 1282 1111
f 1277 1281 1111
f 1280 1277 1108
f 1283 1280 1114
f 1108 1114 1280
f 1111 1108 1277
f 1113 1111 1282
f 1110 1113 1282
f 1112 1110 1278
f 1114 1112 1283
f 1263 1265 1124
f 1265 1269 1124
f 1264 1263 1123
f 1261 1264 1126
f 1268 1261 1125
f 1267 1268 1118
f 1271 1267 1117
f 1266 1271 1117
f 1270 1266 1122
f 1269 1270 1120
f 1122 1120 1270
f 1117 1122 1266
f 1118 1117 1267
f 1116 1118 1268
f 1125 1116 1268
f 1126 1125 1261
f 1123 1126 1264
f 1124 1123 1263
f 1121 1124 1269
f 1120 1121 1269
f 1081 1080 1217
f 1077 1081 1214
f 1076 1077 1211
f 1075 1076 1212
f 1078 1075 1212
f 1080 1082 1216
f 1216 1217 1080
f 1218 1216 1082
f 1082 1078 1218
f 1215 1218 1078
f 1212 1215 1078
f 1211 1212 1076
f 1214 1211 1077
f 1217 1214 1081
f 1039 1040 1180
f 1041 1039 1182
f 1038 1041 1181
f 1043 1038 1184
f 1042 1043 1183
f 1044 1042 1183
f 1040 1044 1180
f 1183 1180 1044
f 1184 1183 1043
f 1181 1184 1038
f 1182 1181 1041
f 1180 1182 1039
f 1034 1032 1195
f 1036 1034 1197
f 1033 1036 1198
f 1031 1033 1199
f 1035 1031 1199
f 1032 1035 1196
f 1194 1195 1032
f 1196 1194 1032
f 1199 1196 1035
f 1198 1199 1033
f 1197 1198 1036
f 1195 1197 1034
f 1052 1053 1175
f 1051 1052 1176
f 1048 1051 1171
f 1047 1048 1174
f 1050 1047 1172
f 1054 1050 1172
f 1053 1054 1173
f 1173 1175 1053
f 1172 1173 1054
f 1174 1172 1047
f 1171 1174 1048
f 1176 1171 1051
f 1175 1176 1052
f 1059 1061 1165
f 1060 1059 1166
f 1058 1060 1166
f 1057 1058 1167
f 1062 1057 1169
f 1063 1062 1168
f 1061 1063 1164
f 1164 1165 1061
f 1168 1164 1063
f 1169 1168 1062
f 1167 1169 1057
f 1166 1167 1058
f 1165 1166 1059
f 1289 1288 1292
f 1289 1292 1290
f 1290 1292 1293
f 1290 1293 1291
f 1292 1288 1294
f 1292 1294 1293
f 1293 1294 1295
f 1293 1295 1291
f 1294 1288 1296
f 1294 1296 1295
f 1295 1296 1297
f 1295 1297 1291
f 1296 1288 1298
f 1296 1298 1297
f 1297 1298 1299
f 1297 1299 1291
f 1298 1288 1300
f 1298 1300 1299
f 1299 1300 1301
f 1299 1301 1291
f 1300 1288 1302
f 1300 1302 1301
f 1301 1302 1303
f 1301 1303 1291
f 1302 1288 1304
f 1302 1304 1303
f 1303 1304 1305
f 1303 1305 1291
f 1304 1288 1306
f 1304 1306 1305
f 1305 1306 1307
f 1305 1307 1291
f 1306 1288 1308
f 1306 1308 1307
f 1307 1308 1309
f 1307 1309 1291
f 1308 1288 1310
f 1308 1310 1309
f 1309 1310 1311
f 1309 1311 1291
f 1310 1288 1312
f 1310 1312 1311
f 1311 1312 1313
f 1311 1313 1291
f 1312 1288 1314
f 1312 1314 1313
f 1313 1314 1315
f 1313 1315 1291
f 1314 1288 1316
f 1314 1316 1315
f 1315 1316 1317
f 1315 1317 1291
f 1316 1288 1318
f 1316 1318 1317
f 1317 1318 1319
f 1317 1319 1291
f 1318 1288 1320
f 1318 1320 1319
f 1319 1320 1321
f 1319 1321 1291
f 1320 1288 1322
f 1320 1322 1321
f 1321 1322 1323
f 1321 1323 1291
f 1322 1288 1324
f 1322 1324 1323
f 1323 1324 1325
f 1323 1325 1291
f 1324 1288 1326
f 1324 1326 1325
f 1325 1326 1327
f 1325 1327 1291
f 1326 1288 1328
f 1326 1328 1327
f 1327 1328 1329
f 1327 1329 1291
f 1328 1288 1330
f 1328 1330 1329
f 1329 1330 1331
f 1329 1331 1291
f 1330 1288 1332
f 1330 1332 1331
f 1331 1332 1333
f 1331 1333 1291
f 1332 1288 1334
f 1332 1334 1333
f 1333 1334 1335
f 1333 1335 1291
f 1334 1288 1336
f 1334 1336 1335
f 1335 1336 1337
f 1335 1337 1291
f 1336 1288 1338
f 1336 1338 1337
f 1337 1338 1339
f 1337 1339 1291
f 1338 1288 1340
f 1338 1340 1339
f 1339 1340 1341
f 1339 1341 1291
f 1340 1288 1342
f 1340 1342 1341
f 1341 1342 1343
f 1341 1343 1291
f 1342 1288 1344
f 1342 1344 1343
f 1343 1344 1345
f 1343 1345 1291
f 1344 1288 1346
f 1344 1346 1345
f 1345 1346 1347
f 1345 1347 1291
f 1346 1288 1348
f 1346 1348 1347
f 1347 1348 1349
f 1347 1349 1291
f 1348 1288 1350
f 1348 1350 1349
f 1349 1350 1351
f 1349 1351 1291
f 1350 1288 1352
f 1350 1352 1351
f 1351 1352 1353
f 1351 1353 1291
f 1352 1288 1289
f 1352 1289 1353
f 1353 1289 1290
f 1353 1290 1291
f 1354 1355 1356
f 1359 1357 1356
f 1361 1359 1360
f 1361 1362 1355
f 1354 1355 1363
f 1354 1364 1363
f 1355 1354 1361
f 1360 1362 1361
f 1356 1360 1359
f 1356 1357 1354
f 1366 1355 1363
f 1366 1367 1363
f 1368 1366 1355
f 1368 1362 1369
f 1370 1369 1371
f 1366 1372 1371
f 1371 1355 1366
f 1371 1372 1370
f 1369 1370 1368
f 1355 1362 1368
f 1374 1375 1365
f 1375 1355 1365
f 1365 1355 1374
f 1362 1377 1376
f 1375 1356 1355
f 1355 1371 1374
f 1376 1369 1362
f 1362 1360 1377
f 1360 1356 1377
f 1377 1356 1358
f 1375 1358 1356
f 1358 1375 1377
f 1376 1371 1369
f 1376 1374 1373
f 1373 1371 1376
f 1371 1373 1374
f 1378 1379 1364
f 1379 1354 1364
f 1364 1354 1378
f 1361 1354 1379
f 1377 1357 1359
f 1377 1375 1357
f 1379 1377 1361
f 1375 1378 1354
f 1375 1354 1357
f 1359 1361 1377
f 1374 1376 1372
f 1370 1372 1376
f 1379 1366 1368
f 1379 1378 1367
f 1376 1379 1368
f 1367 1366 1379
f 1378 1374 1366
f 1376 1368 1370
f 1372 1366 1374
f 1366 1367 1378
f 1379 1376 1377
f 1375 1374 1378

