# https://github.com/mikedh/trimesh
v -0.00059322 0.08950128 -0.01246846
v -0.00025785 0.08950156 0.01544122
v -0.01284351 0.08950143 0.00124259
v -0.01079437 0.08950142 0.00069396
v -0.01414241 0.08950142 0.00049234
v 0.00954005 0.08950149 0.00897488
v 0.00554257 0.08950149 0.00839813
v 0.00267630 0.08950135 -0.00538320
v 0.01362188 0.08950132 -0.00858825
v 0.00618602 0.08950126 -0.01452779
v -0.00925637 0.08950131 -0.00996599
v -0.00433044 0.08950132 -0.00899732
v -0.00870956 0.08950150 0.00848071
v 0.01495595 0.08950135 -0.00481172
v 0.01264189 0.08950142 0.00210530
v 0.01414240 0.08950140 -0.00049248
v -0.00604663 0.08950141 -0.00002819
v -0.00705012 0.08950137 -0.00428884
v -0.00239616 0.08950136 -0.00484862
v -0.00067901 0.08950135 -0.00602208
v 0.00522367 0.08950138 -0.00304568
v 0.00614743 0.08725139 -0.00164595
v 0.00500799 0.08950144 0.00332567
v 0.00604662 0.08950141 0.00002804
v 0.00304560 0.08950146 0.00522360
v -0.00578169 0.08800144 0.00301195
v -0.00002812 0.08950147 0.00604656
v 0.00765732 0.08950134 -0.00625930
v 0.00049240 0.08500155 0.01414238
v 0.00301749 0.08950152 0.01127023
v -0.00060487 0.08673228 0.01004407
v -0.00339123 0.08950152 0.01126919
v -0.00834198 0.08950135 -0.00655075
v -0.01157923 0.08950138 -0.00357033
v -0.01324676 0.08950149 0.00793866
v -0.00481366 0.08850159 0.01775901
v -0.00020415 0.08950158 0.01789739
v 0.01092745 0.08950155 0.01526996
v 0.01483643 0.08950150 0.01030189
v 0.01223865 0.08950149 0.00880138
v 0.01633694 0.08950148 0.00770411
v 0.01497436 0.08950145 0.00537379
v 0.01832523 0.08950140 0.00023691
v 0.01257879 0.08950130 -0.01064949
v 0.00805119 0.08950130 -0.01093983
v 0.00135511 0.08950129 -0.01134307
v 0.00008434 0.08950123 -0.01813996
v -0.00848737 0.08950126 -0.01529597
v -0.01028203 0.08950127 -0.01491529
v -0.01354457 0.08950133 -0.00804012
v -0.01759362 0.08950137 -0.00419574
v -0.01827753 0.08950145 0.00379550
v -0.01329162 0.08950153 0.01187217
v -0.01567103 0.08725151 0.00913677
v -0.00771533 0.08950155 0.01373206
v -0.00254156 0.08500127 -0.01359379
v 0.00135511 0.08500129 -0.01134303
v 0.00968079 0.08500136 -0.00401438
v -0.00250521 0.08500130 -0.01140749
v 0.00522367 0.08500138 -0.00304563
v 0.00500799 0.08500144 0.00332572
v -0.01284352 0.08500143 0.00124264
v -0.01264190 0.08500139 -0.00210540
v -0.00804537 0.08500141 -0.00031651
v 0.00301749 0.08500152 0.01127028
v 0.00554257 0.08500149 0.00839818
v -0.00390366 0.08500152 0.01125670
v -0.00404207 0.08500130 -0.01099601
v -0.00857514 0.08500127 -0.01433829
v -0.00304561 0.08500136 -0.00522370
v -0.00739011 0.08772498 -0.01119766
v -0.01162314 0.08725150 0.00887651
v -0.00560036 0.08500148 0.00669669
v 0.01414240 0.08500140 -0.00049243
v 0.01264189 0.08500142 0.00210535
v 0.01004411 0.08806141 0.00060481
v 0.00304560 0.08500146 0.00522365
v 0.00164590 0.08725147 0.00614739
v -0.00002812 0.08500147 0.00604660
v 0.00604662 0.08500141 0.00002809
v -0.00008226 0.08500134 -0.00660533
v -0.00538313 0.08500138 -0.00267633
v -0.01156003 0.08500134 -0.00791456
v -0.00984249 0.08500137 -0.00395293
v -0.01151008 0.08693004 0.00547732
v -0.01119761 0.08500149 0.00739007
v -0.01659480 0.08500149 0.00773709
v -0.01848923 0.08500141 -0.00097905
v -0.01783746 0.08500137 -0.00510642
v -0.01084928 0.08500127 -0.01448481
v -0.00773712 0.08853696 -0.01659485
v -0.00158968 0.08725123 -0.01824074
v 0.00476487 0.08500123 -0.01774604
v 0.00008434 0.08500123 -0.01813991
v 0.00175884 0.08745579 -0.01659327
v 0.00659776 0.08500131 -0.00951406
v 0.01046957 0.08500127 -0.01307907
v 0.00965251 0.08500125 -0.01521158
v 0.01362188 0.08500132 -0.00858821
v 0.01723861 0.08500134 -0.00615269
v 0.01853593 0.08500141 0.00160377
v 0.01483642 0.08500150 0.01030193
v 0.00911452 0.08500151 0.01046138
v 0.01316187 0.08500146 0.00587019
v 0.01333591 0.08500153 0.01289971
v 0.01028643 0.08500155 0.01518020
v 0.00147159 0.08500159 0.01817246
v -0.00240781 0.08500158 0.01766392
v -0.00737946 0.08500157 0.01652448
v -0.01317406 0.08500154 0.01231132
v -0.01366240 0.10393697 0.01030894
v -0.01368137 0.10300146 0.00624368
v -0.01372197 0.10600147 0.00812364
v -0.01068453 0.10457877 0.00560069
v -0.01053619 0.10300147 0.00746245
v -0.01125300 0.10300147 0.00850860
v 0.00222404 0.10299986 -0.21382339
v 0.00070216 0.10299991 -0.20660126
v 0.00662668 0.10299990 -0.20834730
v -0.01145988 0.10299991 -0.20803096
v 0.01270755 0.10299991 -0.20649252
v -0.00962245 0.10300000 -0.19526866
v 0.00001323 0.10318750 -0.19424844
v 0.00531374 0.10299996 -0.19961924
v 0.00729256 0.10300003 -0.19041979
v -0.02404622 0.10300029 -0.15631161
v -0.01490007 0.10300037 -0.14435875
v -0.01790316 0.10300070 -0.09852263
v -0.00856444 0.10300045 -0.13344286
v -0.00775816 0.10300069 -0.09947077
v -0.00794053 0.10300083 -0.07976668
v -0.02060046 0.10300091 -0.06955354
v -0.01453332 0.10300136 -0.00733552
v 0.00232509 0.10300117 -0.03227709
v 0.00443594 0.10300132 -0.01210582
v -0.00534667 0.10300144 0.00437779
v -0.01039112 0.10300137 -0.00600225
v -0.01722455 0.10300146 0.00598272
v -0.00971924 0.10300142 0.00081263
v -0.01438910 0.10300141 -0.00085635
v 0.00961090 0.10300140 -0.00085163
v -0.00516589 0.10300147 0.00839521
v 0.00332555 0.10300144 0.00518276
v -0.01250911 0.10300070 -0.09941085
v -0.01693822 0.10416755 -0.07332744
v -0.02103588 0.10300053 -0.12234635
v -0.02058870 0.10300068 -0.10193438
v -0.01426616 0.10300104 -0.05220289
v -0.01451942 0.10300085 -0.07806822
v -0.00818585 0.10300103 -0.05237079
v 0.00068250 0.10300104 -0.05129206
v -0.00221790 0.10334359 -0.10039210
v 0.00273583 0.10300002 -0.19225963
v 0.00356032 0.10299993 -0.20361644
v -0.00637872 0.10299996 -0.20046934
v -0.00752492 0.10299996 -0.20107691
v -0.00845983 0.10299995 -0.20172684
v -0.00642796 0.10299991 -0.20777488
v -0.00226745 0.10299990 -0.20809669
v 0.00692665 0.10299996 -0.19950226
v -0.00850763 0.10299989 -0.21118228
v 0.00232649 0.10299986 -0.21381211
v 0.00253943 0.10299986 -0.21376481
v 0.01108338 0.10299996 -0.20012740
v 0.00943500 0.10299995 -0.20150067
v 0.01268405 0.10496058 -0.20028400
v -0.00255440 0.10300016 -0.17284575
v -0.00316682 0.10300001 -0.19319926
v -0.00623726 0.10300023 -0.16333216
v -0.00645631 0.10300002 -0.19283429
v -0.01041838 0.10300037 -0.14467888
v -0.01217550 0.10488927 -0.14274476
v -0.00643871 0.10300067 -0.10208341
v -0.00568398 0.10300082 -0.08136333
v 0.00959049 0.10361217 -0.04281980
v 0.01779643 0.10300142 0.00317989
v 0.01458443 0.10300141 0.00082501
v 0.00912481 0.10300148 0.01045973
v -0.00469932 0.10386127 0.01431628
v -0.00000236 0.10300149 0.01199979
v -0.01741548 0.10300120 -0.03043770
v -0.02263145 0.10300108 -0.04821840
v -0.02727068 0.10300070 -0.09735316
v -0.01214827 0.10416662 -0.20153729
v -0.00899003 0.10299998 -0.19842566
v -0.00404128 0.10370656 -0.10088218
v 0.00468707 0.10300102 -0.05332322
v 0.00441329 0.10300105 -0.04910831
v 0.00592769 0.10364389 -0.05181038
v -0.02506592 0.10300037 -0.14466773
v -0.02678591 0.10300039 -0.14317609
v -0.03070370 0.10450034 -0.15025658
v -0.02939841 0.10300037 -0.14549504
v -0.02289954 0.10300073 -0.09581522
v -0.02226512 0.10300070 -0.09928773
v -0.02175740 0.10300071 -0.09743097
v -0.02521988 0.10300071 -0.09804007
v -0.01874691 0.10300108 -0.04598615
v -0.01814144 0.10300106 -0.04968498
v -0.02005079 0.10300106 -0.04882402
v 0.00652905 0.10300136 -0.00628416
v 0.00869445 0.10300134 -0.00851004
v 0.01763288 0.10416137 -0.00361711
v 0.01276837 0.10300136 -0.00582609
v -0.00797484 0.10300134 -0.00946092
v -0.00450868 0.10300135 -0.00857450
v -0.00681133 0.10300135 -0.00844136
v -0.00589834 0.10300132 -0.01309023
v 0.00694303 0.10300132 -0.01231631
v 0.00655916 0.10300140 -0.00093860
v 0.00328788 0.10397556 0.01793252
v 0.00352805 0.10300149 0.01144699
v -0.00814358 0.10300148 0.00926285
v 0.01390878 0.10300146 0.00848726
v 0.01061794 0.10300146 0.00776689
v 0.01112237 0.10300144 0.00525096
v 0.00152655 0.10300132 -0.01266977
v -0.01040679 0.10300108 -0.04535781
v 0.00406273 0.10300117 -0.03233888
v 0.00218837 0.10300117 -0.03234658
v 0.00158065 0.10300107 -0.04707408
v -0.00461975 0.10300116 -0.03439307
v -0.01358695 0.10300114 -0.03786149
v -0.01274551 0.10300126 -0.02074274
v -0.00807126 0.10450126 -0.02107052
v 0.00136862 0.10300130 -0.01492590
v 0.00177631 0.10300124 -0.02369446
v -0.00070860 0.10324442 -0.03217293
v 0.00035777 0.10300129 -0.01561156
v 0.00018147 0.10300129 -0.01564050
v 0.00094371 0.10300125 -0.02241291
v 0.00121331 0.10300130 -0.01512463
v 0.00151008 0.10300124 -0.02282624
v -0.00198907 0.10300130 -0.01448406
v 0.00066088 0.10300125 -0.02230256
v 0.00176109 0.10300124 -0.02353491
v 0.00071883 0.10300130 -0.01549357
v 0.00100155 0.10300130 -0.01531357
v -0.00122824 0.10600147 0.00821010
v 0.01047184 0.10600145 0.00675873
v -0.01168405 0.10600138 -0.00458748
v -0.00809226 0.10600145 0.00553832
v -0.00983020 0.10600140 -0.00153104
v -0.00878461 0.10600136 -0.00775977
v -0.00192906 0.10379084 -0.00640511
v 0.00791679 0.10600132 -0.01162464
v 0.00411903 0.10600117 -0.03235251
v 0.00228625 0.10600104 -0.05128693
v -0.02103793 0.10600105 -0.05063177
v -0.02016298 0.10600078 -0.08847536
v -0.02103050 0.10600078 -0.08847553
v -0.00772339 0.10600069 -0.09945632
v -0.00817643 0.10600069 -0.10033163
v -0.01995046 0.10600054 -0.12197264
v -0.02214361 0.10600006 -0.18775710
v -0.00816303 0.10600019 -0.16847814
v -0.01919340 0.10600001 -0.19446641
v -0.00797781 0.10600000 -0.19526836
v 0.01384571 0.10599997 -0.19748234
v -0.00087341 0.10599992 -0.20535293
v -0.01142910 0.10599991 -0.20807182
v 0.00232649 0.10599986 -0.21381213
v 0.00272013 0.10599991 -0.20726095
v 0.00698245 0.10599990 -0.20860864
v -0.01423724 0.10600104 -0.05224611
v -0.01613149 0.10600070 -0.09869870
v -0.00930224 0.10600108 -0.04614633
v 0.00250359 0.10600110 -0.04303780
v 0.00232563 0.10600117 -0.03227844
v -0.02143728 0.10600069 -0.10066712
v -0.02195868 0.10600054 -0.12145961
v -0.00794052 0.10600083 -0.07976671
v -0.00632780 0.10600082 -0.08126406
v -0.01050948 0.10375072 -0.09528110
v 0.00209087 0.10600000 -0.19511314
v -0.00241031 0.10600001 -0.19371974
v -0.00725184 0.10599996 -0.20068283
v -0.00882056 0.10599998 -0.19820299
v -0.00542285 0.10599997 -0.19990357
v -0.00334502 0.10599992 -0.20644933
v -0.00639148 0.10599991 -0.20748884
v 0.00817441 0.10599995 -0.20138432
v 0.00683271 0.10599997 -0.19905129
v 0.01064752 0.10599989 -0.20914507
v 0.00657174 0.10353987 -0.21253672
v -0.00143168 0.10599986 -0.21403303
v 0.00222404 0.10599986 -0.21382341
v -0.00449312 0.10535472 -0.21153071
v -0.01072599 0.10599996 -0.20059590
v -0.00886282 0.10599995 -0.20187232
v -0.02930934 0.10600038 -0.14347633
v -0.02276954 0.10600106 -0.04967768
v -0.02727008 0.10600072 -0.09735165
v -0.02026974 0.10600125 -0.02313806
v -0.01558129 0.10600143 0.00185307
v -0.01600445 0.10600148 0.00832768
v 0.00097486 0.10600151 0.01455350
v -0.00264544 0.10600150 0.01233511
v 0.00225241 0.10600149 0.01129320
v 0.01187989 0.10600150 0.01398733
v 0.01059127 0.10600139 -0.00224724
v 0.01378580 0.10600143 0.00377172
v 0.01088851 0.10600142 0.00192503
v 0.01341259 0.10600137 -0.00476833
v -0.00128454 0.10600104 -0.05082209
v 0.00219751 0.10600084 -0.07886706
v -0.01075437 0.10600036 -0.14513901
v -0.01122354 0.10600067 -0.10297465
v -0.00850423 0.10600033 -0.14989170
v -0.01444807 0.10600036 -0.14526856
v -0.01368039 0.10600038 -0.14280970
v -0.00546799 0.10581839 -0.16606045
v -0.00316366 0.10373336 -0.19106848
v -0.00666116 0.10600002 -0.19235186
v -0.00072388 0.10490154 -0.17617386
v 0.00768669 0.10600002 -0.19137449
v 0.00250368 0.10600002 -0.19199949
v 0.00370310 0.10600001 -0.19363117
v -0.00457154 0.10600069 -0.09928638
v -0.00633007 0.10498457 -0.09839879
v -0.00400193 0.10600068 -0.10038967
v -0.00668863 0.10600067 -0.10195507
v 0.00525229 0.10600104 -0.04986887
v 0.00273379 0.10600105 -0.04962339
v 0.00239135 0.10600103 -0.05165195
v 0.00246640 0.10600103 -0.05181408
v 0.00251261 0.10600085 -0.07733088
v 0.00488251 0.10600102 -0.05309906
v -0.02873777 0.10600037 -0.14608181
v -0.02505104 0.10600037 -0.14500585
v -0.02429690 0.10358219 -0.18295016
v -0.02309142 0.10600073 -0.09592615
v -0.01751222 0.10600108 -0.04612322
v -0.01986897 0.10600106 -0.04958658
v 0.00927231 0.10600135 -0.00804769
v -0.00754498 0.10600132 -0.01255864
v -0.00429203 0.10600136 -0.00737506
v 0.00721632 0.10600135 -0.00776060
v 0.00424831 0.10600135 -0.00763802
v 0.00536379 0.10600131 -0.01254248
v 0.00360038 0.10600145 0.00607239
v 0.00506468 0.10600138 -0.00358935
v -0.00501422 0.10600144 0.00350896
v 0.00833206 0.10600147 0.00974023
v 0.00445085 0.10600150 0.01257895
v 0.00514672 0.10600146 0.00826838
v -0.00724133 0.10600150 0.01266716
v -0.00815630 0.10600149 0.01019705
v -0.00423536 0.10600148 0.00914735
v 0.01576401 0.10484762 0.00909718
v 0.01063671 0.10600146 0.00784979
v 0.01304578 0.10600146 0.00871211
v -0.00119692 0.10600132 -0.01247495
v 0.00338431 0.10600132 -0.01186712
v 0.00087554 0.10600132 -0.01259270
v -0.00076052 0.10600119 -0.03032987
v -0.01073036 0.10600107 -0.04675308
v 0.00218837 0.10600117 -0.03234660
v 0.00136863 0.10600130 -0.01492592
v 0.00177631 0.10600124 -0.02369448
v 0.00173766 0.10600131 -0.01393410
v 0.00018148 0.10600129 -0.01564052
v -0.00047221 0.10600128 -0.01829560
v 0.00176109 0.10600124 -0.02353493
v 0.00067903 0.10600130 -0.01552607
v 0.00113770 0.10600130 -0.01519790
v 0.00126053 0.10600130 -0.01506817
v -0.01278388 0.10600126 -0.02077307
v -0.01457637 0.10600115 -0.03668332
v -0.01357422 0.10600114 -0.03791450
v -0.00000236 0.09950153 0.01199983
v 0.00052423 0.09950154 0.01340436
v 0.00192876 0.09950153 0.01287777
v 0.00140217 0.09950152 0.01147324
v 0.00087559 0.09950151 0.01006871
v -0.00052894 0.09950151 0.01059529
v -0.00193347 0.09950152 0.01112188
v -0.00140689 0.09950153 0.01252641
v -0.00088031 0.09950155 0.01393094
v -0.00052895 0.08000151 0.01059549
v 0.00087558 0.08000151 0.01006890
v 0.00140216 0.08000152 0.01147343
v 0.00192875 0.08000153 0.01287797
v 0.00052422 0.08000154 0.01340455
v -0.00088032 0.08000155 0.01393113
v -0.00140690 0.08000153 0.01252660
v -0.00193348 0.08000152 0.01112207
v -0.00000237 0.08000153 0.01200002
v -0.01039117 0.09950135 -0.00600223
v -0.00892530 0.09950136 -0.00568409
v -0.00860715 0.09950135 -0.00714996
v -0.01007303 0.09950134 -0.00746811
v -0.01153890 0.09950133 -0.00778625
v -0.01185704 0.09950134 -0.00632038
v -0.01217519 0.09950136 -0.00485450
v -0.01070931 0.09950137 -0.00453636
v -0.00924344 0.09950138 -0.00421822
v -0.01185696 0.08000134 -0.00632015
v -0.01153881 0.08000133 -0.00778602
v -0.01007294 0.08000134 -0.00746788
v -0.00860707 0.08000135 -0.00714973
v -0.00892521 0.08000136 -0.00568386
v -0.00924335 0.08000138 -0.00421799
v -0.01070923 0.08000137 -0.00453613
v -0.01217510 0.08000136 -0.00485427
v -0.01039108 0.08000135 -0.00600200
v 0.01039344 0.09950134 -0.00599814
v 0.01187987 0.09950135 -0.00579686
v 0.01208115 0.09950134 -0.00728330
v 0.01059471 0.09950133 -0.00748457
v 0.00910828 0.09950132 -0.00768585
v 0.00890700 0.09950133 -0.00619941
v 0.00870573 0.09950135 -0.00471298
v 0.01019216 0.09950136 -0.00451170
v 0.01167860 0.09950137 -0.00431043
v 0.00890709 0.08000133 -0.00619919
v 0.00910836 0.08000132 -0.00768562
v 0.01059480 0.08000133 -0.00748435
v 0.01208123 0.08000134 -0.00728307
v 0.01187996 0.08000135 -0.00579664
v 0.01167868 0.08000137 -0.00431020
v 0.01019225 0.08000136 -0.00451148
v 0.00870581 0.08000135 -0.00471275
v 0.01039352 0.08000134 -0.00599791
v -0.01366239 0.09093699 0.01030911
v -0.01368135 0.09000148 0.00624385
v -0.01372195 0.09300149 0.00812380
v -0.01068452 0.09157879 0.00560086
v -0.01053617 0.09000149 0.00746261
v -0.01125299 0.09000149 0.00850877
v 0.00222406 0.08999988 -0.21382322
v 0.00070217 0.08999993 -0.20660110
v 0.00662669 0.08999992 -0.20834713
v -0.01145987 0.08999993 -0.20803079
v 0.01270757 0.08999993 -0.20649235
v -0.00962243 0.09000002 -0.19526849
v 0.00001324 0.09018752 -0.19424827
v 0.00531376 0.08999998 -0.19961908
v 0.00729257 0.09000005 -0.19041962
v -0.02404620 0.09000031 -0.15631144
v -0.01490006 0.09000039 -0.14435859
v -0.01790315 0.09000072 -0.09852246
v -0.00856443 0.09000047 -0.13344269
v -0.00775814 0.09000071 -0.09947060
v -0.00794051 0.09000085 -0.07976651
v -0.02060045 0.09000093 -0.06955337
v -0.01453331 0.09000138 -0.00733535
v 0.00232510 0.09000119 -0.03227692
v 0.00443596 0.09000134 -0.01210565
v -0.00534665 0.09000146 0.00437796
v -0.01039111 0.09000139 -0.00600208
v -0.01722453 0.09000148 0.00598289
v -0.00971923 0.09000144 0.00081280
v -0.01438908 0.09000143 -0.00085618
v 0.00961092 0.09000142 -0.00085146
v -0.00516588 0.09000149 0.00839537
v 0.00332557 0.09000146 0.00518293
v -0.01250910 0.09000071 -0.09941068
v -0.01693820 0.09116757 -0.07332727
v -0.02103586 0.09000055 -0.12234618
v -0.02058868 0.09000070 -0.10193422
v -0.01426614 0.09000106 -0.05220273
v -0.01451940 0.09000087 -0.07806805
v -0.00818584 0.09000105 -0.05237062
v 0.00068252 0.09000106 -0.05129189
v -0.00221789 0.09034360 -0.10039193
v 0.00273585 0.09000004 -0.19225947
v 0.00356033 0.08999995 -0.20361627
v -0.00637870 0.08999998 -0.20046917
v -0.00752491 0.08999998 -0.20107674
v -0.00845981 0.08999997 -0.20172667
v -0.00642794 0.08999993 -0.20777472
v -0.00226744 0.08999992 -0.20809652
v 0.00692666 0.08999998 -0.19950209
v -0.00850761 0.08999990 -0.21118212
v 0.00232651 0.08999988 -0.21381194
v 0.00253945 0.08999988 -0.21376465
v 0.01108340 0.08999997 -0.20012723
v 0.00943502 0.08999997 -0.20150050
v 0.01268406 0.09196060 -0.20028383
v -0.00255439 0.09000018 -0.17284558
v -0.00316680 0.09000003 -0.19319910
v -0.00623725 0.09000025 -0.16333200
v -0.00645630 0.09000004 -0.19283412
v -0.01041837 0.09000039 -0.14467871
v -0.01217548 0.09188929 -0.14274459
v -0.00643869 0.09000069 -0.10208324
v -0.00568396 0.09000084 -0.08136316
v 0.00959051 0.09061219 -0.04281963
v 0.01779645 0.09000144 0.00318005
v 0.01458444 0.09000143 0.00082518
v 0.00912483 0.09000150 0.01045990
v -0.00469930 0.09086129 0.01431645
v -0.00000234 0.09000151 0.01199996
v -0.01741547 0.09000121 -0.03043754
v -0.02263143 0.09000110 -0.04821823
v -0.02727067 0.09000071 -0.09735299
v -0.01214825 0.09116664 -0.20153712
v -0.00899001 0.09000000 -0.19842549
v -0.00404127 0.09070658 -0.10088201
v 0.00468708 0.09000104 -0.05332305
v 0.00441330 0.09000107 -0.04910814
v 0.00592771 0.09064391 -0.05181021
v -0.02506591 0.09000039 -0.14466756
v -0.02678589 0.09000040 -0.14317592
v -0.03070369 0.09150036 -0.15025641
v -0.02939840 0.09000039 -0.14549488
v -0.02289953 0.09000074 -0.09581505
v -0.02226511 0.09000072 -0.09928756
v -0.02175738 0.09000073 -0.09743080
v -0.02521987 0.09000073 -0.09803991
v -0.01874690 0.09000110 -0.04598598
v -0.01814142 0.09000108 -0.04968481
v -0.02005078 0.09000108 -0.04882386
v 0.00652906 0.09000138 -0.00628400
v 0.00869446 0.09000136 -0.00850988
v 0.01763289 0.09116139 -0.00361694
v 0.01276838 0.09000138 -0.00582592
v -0.00797483 0.09000136 -0.00946076
v -0.00450866 0.09000137 -0.00857433
v -0.00681132 0.09000137 -0.00844119
v -0.00589833 0.09000133 -0.01309006
v 0.00694305 0.09000133 -0.01231614
v 0.00655917 0.09000142 -0.00093843
v 0.00328789 0.09097558 0.01793269
v 0.00352806 0.09000151 0.01144715
v -0.00814356 0.09000150 0.00926302
v 0.01390879 0.09000148 0.00848743
v 0.01061796 0.09000148 0.00776706
v 0.01112239 0.09000146 0.00525112
v 0.00152656 0.09000133 -0.01266961
v -0.01040677 0.09000110 -0.04535764
v 0.00406275 0.09000119 -0.03233871
v 0.00218838 0.09000119 -0.03234641
v 0.00158066 0.09000109 -0.04707391
v -0.00461974 0.09000118 -0.03439290
v -0.01358694 0.09000116 -0.03786132
v -0.01274550 0.09000128 -0.02074257
v -0.00807124 0.09150128 -0.02107035
v 0.00136864 0.09000132 -0.01492573
v 0.00177632 0.09000125 -0.02369429
v -0.00070858 0.09024444 -0.03217276
v 0.00035779 0.09000131 -0.01561139
v 0.00018149 0.09000131 -0.01564033
v 0.00094373 0.09000126 -0.02241274
v 0.00121333 0.09000132 -0.01512446
v 0.00151010 0.09000126 -0.02282607
v -0.00198905 0.09000132 -0.01448390
v 0.00066090 0.09000126 -0.02230239
v 0.00176111 0.09000126 -0.02353474
v 0.00071884 0.09000131 -0.01549341
v 0.00100157 0.09000132 -0.01531340
v -0.00122822 0.09300149 0.00821027
v 0.01047185 0.09300147 0.00675890
v -0.01168404 0.09300140 -0.00458731
v -0.00809225 0.09300147 0.00553849
v -0.00983018 0.09300142 -0.00153087
v -0.00878460 0.09300137 -0.00775960
v -0.00192905 0.09079085 -0.00640495
v 0.00791681 0.09300134 -0.01162447
v 0.00411905 0.09300119 -0.03235234
v 0.00228626 0.09300105 -0.05128676
v -0.02103792 0.09300107 -0.05063160
v -0.02016297 0.09300080 -0.08847519
v -0.02103048 0.09300080 -0.08847536
v -0.00772338 0.09300071 -0.09945615
v -0.00817641 0.09300070 -0.10033147
v -0.01995044 0.09300055 -0.12197247
v -0.02214360 0.09300008 -0.18775694
v -0.00816302 0.09300021 -0.16847797
v -0.01919339 0.09300003 -0.19446624
v -0.00797779 0.09300002 -0.19526819
v 0.01384572 0.09299999 -0.19748217
v -0.00087340 0.09299994 -0.20535276
v -0.01142909 0.09299993 -0.20807165
v 0.00232651 0.09299988 -0.21381196
v 0.00272014 0.09299993 -0.20726078
v 0.00698247 0.09299991 -0.20860847
v -0.01423723 0.09300106 -0.05224594
v -0.01613147 0.09300072 -0.09869853
v -0.00930222 0.09300110 -0.04614616
v 0.00250360 0.09300111 -0.04303763
v 0.00232564 0.09300119 -0.03227827
v -0.02143727 0.09300071 -0.10066695
v -0.02195867 0.09300056 -0.12145944
v -0.00794051 0.09300085 -0.07976654
v -0.00632779 0.09300084 -0.08126389
v -0.01050946 0.09075074 -0.09528094
v 0.00209088 0.09300001 -0.19511297
v -0.00241030 0.09300003 -0.19371957
v -0.00725182 0.09299998 -0.20068266
v -0.00882055 0.09300000 -0.19820282
v -0.00542284 0.09299998 -0.19990340
v -0.00334501 0.09299994 -0.20644917
v -0.00639146 0.09299993 -0.20748867
v 0.00817442 0.09299997 -0.20138416
v 0.00683272 0.09299998 -0.19905112
v 0.01064754 0.09299991 -0.20914490
v 0.00657176 0.09053989 -0.21253655
v -0.00143167 0.09299988 -0.21403286
v 0.00222405 0.09299988 -0.21382325
v -0.00449311 0.09235474 -0.21153055
v -0.01072597 0.09299998 -0.20059573
v -0.00886281 0.09299997 -0.20187215
v -0.02930933 0.09300040 -0.14347616
v -0.02276953 0.09300108 -0.04967751
v -0.02727007 0.09300074 -0.09735148
v -0.02026973 0.09300127 -0.02313790
v -0.01558127 0.09300145 0.00185324
v -0.01600443 0.09300149 0.00832785
v 0.00097487 0.09300153 0.01455367
v -0.00264542 0.09300152 0.01233528
v 0.00225242 0.09300151 0.01129337
v 0.01187990 0.09300152 0.01398750
v 0.01059128 0.09300140 -0.00224707
v 0.01378581 0.09300145 0.00377189
v 0.01088852 0.09300143 0.00192520
v 0.01341261 0.09300139 -0.00476816
v -0.00128452 0.09300106 -0.05082193
v 0.00219753 0.09300086 -0.07886689
v -0.01075436 0.09300038 -0.14513884
v -0.01122352 0.09300069 -0.10297448
v -0.00850421 0.09300035 -0.14989153
v -0.01444806 0.09300038 -0.14526839
v -0.01368038 0.09300040 -0.14280953
v -0.00546797 0.09281841 -0.16606028
v -0.00316365 0.09073338 -0.19106831
v -0.00666114 0.09300004 -0.19235169
v -0.00072387 0.09190156 -0.17617369
v 0.00768670 0.09300004 -0.19137432
v 0.00250369 0.09300004 -0.19199932
v 0.00370312 0.09300002 -0.19363100
v -0.00457153 0.09300071 -0.09928621
v -0.00633006 0.09198459 -0.09839862
v -0.00400192 0.09300070 -0.10038950
v -0.00668862 0.09300069 -0.10195490
v 0.00525231 0.09300106 -0.04986870
v 0.00273381 0.09300107 -0.04962323
v 0.00239137 0.09300105 -0.05165178
v 0.00246642 0.09300105 -0.05181391
v 0.00251263 0.09300087 -0.07733071
v 0.00488252 0.09300104 -0.05309890
v -0.02873776 0.09300038 -0.14608164
v -0.02505103 0.09300039 -0.14500569
v -0.02429689 0.09058221 -0.18295000
v -0.02309141 0.09300074 -0.09592599
v -0.01751220 0.09300110 -0.04612305
v -0.01986896 0.09300108 -0.04958641
v 0.00927232 0.09300136 -0.00804753
v -0.00754496 0.09300134 -0.01255848
v -0.00429202 0.09300138 -0.00737490
v 0.00721633 0.09300137 -0.00776043
v 0.00424832 0.09300137 -0.00763786
v 0.00536381 0.09300133 -0.01254231
v 0.00360039 0.09300147 0.00607256
v 0.00506470 0.09300140 -0.00358918
v -0.00501421 0.09300145 0.00350913
v 0.00833208 0.09300149 0.00974040
v 0.00445087 0.09300152 0.01257912
v 0.00514674 0.09300148 0.00826854
v -0.00724131 0.09300152 0.01266732
v -0.00815629 0.09300150 0.01019722
v -0.00423534 0.09300149 0.00914752
v 0.01576402 0.09184764 0.00909735
v 0.01063673 0.09300148 0.00784996
v 0.01304579 0.09300148 0.00871227
v -0.00119691 0.09300134 -0.01247478
v 0.00338433 0.09300134 -0.01186695
v 0.00087556 0.09300133 -0.01259253
v -0.00076050 0.09300121 -0.03032970
v -0.01073035 0.09300109 -0.04675291
v 0.00218838 0.09300119 -0.03234644
v 0.00136864 0.09300132 -0.01492575
v 0.00177632 0.09300125 -0.02369431
v 0.00173768 0.09300132 -0.01393393
v 0.00018149 0.09300131 -0.01564035
v -0.00047219 0.09300129 -0.01829543
v 0.00176111 0.09300126 -0.02353476
v 0.00067905 0.09300131 -0.01552590
v 0.00113771 0.09300132 -0.01519773
v 0.00126055 0.09300132 -0.01506800
v -0.01278387 0.09300128 -0.02077290
v -0.01457635 0.09300117 -0.03668315
v -0.01357420 0.09300116 -0.03791433
v -0.00616418 0.09800134 -0.01260131
v -0.00299803 0.09800136 -0.01000069
v -0.00659830 0.09800137 -0.00862640
v -0.00831624 0.09800136 -0.00985888
v -0.00487339 0.09841046 -0.00816773
v -0.00599852 0.09350137 -0.00750125
v -0.00749774 0.09350135 -0.01150154
v -0.00449764 0.09350134 -0.01200095
v -0.00514108 0.09350136 -0.00900108
v -0.00449739 0.10250133 -0.01325102
v -0.00749753 0.10250134 -0.01250160
v -0.00899763 0.10250134 -0.01200190
v -0.00799822 0.10250137 -0.00900170
v -0.00749852 0.10250138 -0.00750161
v -0.00599852 0.10250137 -0.00750131
v -0.00374837 0.10250137 -0.00825087
v -0.00299763 0.10250134 -0.01200072
v -0.00899779 0.09350135 -0.01125183
v -0.00637234 0.09350133 -0.01350132
v -0.01947110 0.09350037 -0.14700390
v -0.01197995 0.09350069 -0.10200242
v -0.01649086 0.09350110 -0.04650331
v -0.01348997 0.09350106 -0.05100272
v -0.01199115 0.09350111 -0.04500242
v -0.01556036 0.09350136 -0.01087812
v -0.00149724 0.09350133 -0.01400036
v 0.00100262 0.09350133 -0.01333320
v 0.00000325 0.09350131 -0.01650007
v 0.00900258 0.09350133 -0.01312330
v -0.00337326 0.09350136 -0.00881323
v -0.01650132 0.09350148 0.00674669
v -0.01500000 0.09350143 -0.00000301
v -0.01350029 0.09350144 0.00149728
v -0.01406150 0.09350140 -0.00506533
v -0.00899955 0.09350141 -0.00225183
v -0.00937537 0.09350144 0.00187309
v -0.01349970 0.09350142 -0.00150272
v -0.01124941 0.09350141 -0.00300228
v 0.00749941 0.09350144 0.00300141
v -0.01050177 0.09350150 0.00899787
v -0.01497169 0.09350039 -0.14400301
v -0.02547228 0.09350042 -0.14100508
v -0.02097965 0.09350069 -0.10350419
v -0.02247233 0.09350042 -0.14075449
v -0.02098031 0.09350071 -0.10012919
v -0.01947995 0.09350070 -0.10200390
v -0.00897950 0.09350068 -0.10425183
v -0.01047965 0.09350068 -0.10350213
v -0.00898122 0.09350074 -0.09550183
v -0.02098363 0.09350083 -0.08325419
v -0.02098171 0.09350076 -0.09300419
v -0.01798113 0.09350074 -0.09600360
v -0.02098997 0.09350107 -0.05100419
v -0.00898968 0.09350105 -0.05250183
v -0.01499115 0.09350111 -0.04500301
v -0.01199538 0.09350126 -0.02350242
v -0.01382471 0.09350126 -0.02412576
v -0.01049557 0.09350127 -0.02250213
v -0.00074594 0.09350128 -0.02062521
v 0.00600973 0.09350107 -0.04949889
v 0.00544814 0.09350125 -0.02466411
v 0.00113414 0.09350109 -0.04649984
v 0.00000944 0.09350108 -0.04800006
v 0.00300885 0.09350110 -0.04499948
v 0.00600148 0.09350137 -0.00749889
v 0.00900089 0.09350139 -0.00449830
v -0.01199852 0.09350138 -0.00750242
v -0.00637426 0.09350140 -0.00375132
v -0.00899852 0.09350138 -0.00750183
v -0.00748142 0.09350075 -0.09450154
v 0.00300973 0.09350107 -0.04949948
v 0.00601032 0.09350104 -0.05249889
v -0.02606320 0.09350040 -0.14419533
v -0.02248054 0.09350072 -0.09900449
v -0.02398525 0.09350090 -0.07500478
v -0.02312402 0.09350075 -0.09579033
v -0.02567793 0.09350072 -0.09888669
v -0.00575177 0.09350149 0.00899880
v -0.00600147 0.09350148 0.00749875
v 0.00849863 0.09350147 0.00700160
v 0.00599853 0.09350148 0.00750111
v 0.00449823 0.09350149 0.00900082
v 0.00843798 0.09350140 -0.00243591
v 0.00300192 0.09350135 -0.00974948
v 0.00540177 0.09350136 -0.00899900
v 0.00750236 0.09350134 -0.01199859
v 0.00450236 0.09350134 -0.01199918
v -0.02696904 0.09350030 -0.15750537
v -0.02396904 0.09350030 -0.15750478
v -0.02697110 0.09350038 -0.14700537
v -0.01196933 0.09350030 -0.15600242
v -0.00961254 0.09350032 -0.15421624
v -0.00897051 0.09350035 -0.15000183
v -0.01197198 0.09350040 -0.14250242
v -0.01497139 0.09350038 -0.14550301
v -0.01047936 0.09350067 -0.10500213
v -0.00897375 0.09350047 -0.13350183
v -0.00785060 0.09350053 -0.12412661
v -0.00748004 0.09350070 -0.10150154
v -0.00297995 0.09350069 -0.10200065
v 0.00008360 0.09350104 -0.05367854
v 0.00001121 0.09350101 -0.05700006
v -0.00448034 0.09350071 -0.10000095
v 0.00301475 0.09350088 -0.07499947
v 0.00900855 0.09350111 -0.04349830
v 0.00900796 0.09350113 -0.04049830
v 0.01350384 0.09350128 -0.01949741
v 0.01650207 0.09350134 -0.01049682
v 0.01200148 0.09350137 -0.00749771
v 0.01050089 0.09350139 -0.00449800
v 0.01800030 0.09350141 -0.00149653
v 0.01735685 0.09350143 0.00150335
v 0.00974949 0.09350144 0.00262685
v 0.01350081 0.09350139 -0.00412241
v 0.01049823 0.09350149 0.00900200
v 0.00749735 0.09350152 0.01350141
v 0.00749676 0.09350154 0.01650141
v 0.00588801 0.09350153 0.01475564
v 0.00299735 0.09350152 0.01350052
v -0.00412795 0.09350154 0.01499912
v 0.00149687 0.09350154 0.01595477
v 0.00206081 0.09350149 0.00862534
v -0.00900324 0.09350155 0.01649816
v -0.00750236 0.09350152 0.01199846
v -0.00450236 0.09350152 0.01199905
v -0.01500206 0.09350151 0.01049699
v -0.01800029 0.09350145 0.00149640
v -0.01799941 0.09350141 -0.00300360
v -0.01799852 0.09350138 -0.00750360
v -0.01799793 0.09350136 -0.01050360
v -0.01949616 0.09350129 -0.01950390
v -0.02099292 0.09350118 -0.03600419
v -0.01907607 0.09350109 -0.04810250
v -0.02099056 0.09350109 -0.04800419
v -0.02249056 0.09350109 -0.04800449
v -0.02248997 0.09350107 -0.05100449
v -0.02398555 0.09350091 -0.07350478
v -0.02698024 0.09350071 -0.10050537
v -0.02735288 0.09350063 -0.11250544
v -0.02997405 0.09350049 -0.13200596
v -0.02847169 0.09350040 -0.14400567
v -0.02948150 0.09350038 -0.14716526
v -0.02922198 0.09350041 -0.14250581
v -0.00689890 0.09350139 -0.00557285
v -0.00575059 0.09350145 0.00299880
v -0.00360095 0.09350146 0.00487423
v -0.00150118 0.09350147 0.00599964
v -0.00000118 0.09350147 0.00599993
v 0.00149882 0.09350147 0.00600023
v 0.00374907 0.09350146 0.00475067
v 0.00599941 0.09350145 0.00300111
v 0.00360109 0.09350138 -0.00554936
v -0.01425177 0.09350150 0.00899713
v -0.01131936 0.09350148 0.00599771
v -0.01443834 0.09350146 0.00430960
v -0.01350118 0.09350148 0.00599728
v 0.01199823 0.09350149 0.00900229
v 0.01537338 0.09350148 0.00825296
v 0.01049853 0.09350148 0.00750200
v 0.01349882 0.09350146 0.00600259
v -0.01797995 0.09350070 -0.10200360
v -0.01040350 0.10250068 -0.10363100
v -0.01647994 0.10250070 -0.10200337
v -0.02097965 0.10250069 -0.10350426
v -0.01947994 0.10250070 -0.10200396
v -0.00897950 0.10250068 -0.10425190
v -0.01504953 0.09350041 -0.14099871
v -0.02247237 0.10250042 -0.14050455
v -0.02397257 0.10250043 -0.13950485
v -0.01502050 0.10250041 -0.14100073
v -0.01947198 0.10250041 -0.14250396
v -0.01586590 0.09350105 -0.05249671
v -0.01348997 0.10250106 -0.05100278
v -0.00298967 0.10250105 -0.05250072
v -0.00148938 0.10250104 -0.05400042
v 0.00001121 0.10250101 -0.05700013
v -0.01448967 0.10250105 -0.05250298
v -0.01876753 0.10250075 -0.09431687
v -0.01908439 0.09350075 -0.09447780
v -0.01798112 0.10250074 -0.09600367
v -0.01198112 0.10250074 -0.09600249
v -0.01798142 0.10250075 -0.09450367
v -0.02098186 0.10250077 -0.09225426
v -0.00898112 0.10250074 -0.09600190
v -0.00849857 0.10250075 -0.09456618
v -0.01498112 0.10250074 -0.09600308
v -0.01648112 0.10250074 -0.09600337
v 0.00300473 0.10250125 -0.02399954
v 0.00450492 0.10250124 -0.02499925
v 0.00300871 0.10250110 -0.04424954
v 0.00094422 0.10250109 -0.04651456
v 0.00000944 0.10250108 -0.04800013
v 0.00600502 0.10250124 -0.02549895
v -0.01049557 0.10250127 -0.02250219
v -0.01049085 0.10250110 -0.04650219
v -0.01365367 0.10250126 -0.02404220
v -0.01499115 0.10250111 -0.04500308
v -0.01199115 0.10250111 -0.04500249
v -0.01199547 0.10250127 -0.02300249
v -0.01800059 0.09350146 0.00299640
v -0.00209277 0.09350156 0.01773167
v 0.01321011 0.09350151 0.01256840
v 0.01799912 0.09350145 0.00450347
v 0.01800059 0.09350140 -0.00299653
v -0.00747523 0.09350052 -0.12600154
v -0.01800029 0.10250145 0.00149633
v -0.01800058 0.10250146 0.00299633
v -0.01575161 0.10250149 0.00824677
v -0.01500206 0.10250151 0.01049692
v -0.01350235 0.10250152 0.01199722
v -0.01200265 0.10250153 0.01349751
v -0.01050294 0.10250154 0.01499780
v -0.00742575 0.10250155 0.01698979
v -0.00300353 0.10250156 0.01799928
v -0.00075353 0.10250156 0.01799972
v 0.00449647 0.10250155 0.01800075
v 0.00599676 0.10250154 0.01650105
v 0.01049706 0.10250153 0.01500193
v 0.01349785 0.10250150 0.01100252
v 0.01499824 0.10250148 0.00900282
v 0.01743644 0.10250146 0.00544080
v 0.01800060 0.10250140 -0.00299659
v -0.00747522 0.10250052 -0.12600160
v 0.01649912 0.10250145 0.00450311
v -0.01575088 0.10250147 0.00449677
v -0.01650058 0.10250146 0.00299663
v -0.02997404 0.10250049 -0.13200603
v -0.03174838 0.09350041 -0.14304548
v 0.00788459 0.10250107 -0.04874858
v 0.00301416 0.10250090 -0.07199954
v 0.01500296 0.10250131 -0.01499718
v -0.00298053 0.10250071 -0.09900072
v 0.00076696 0.10250080 -0.08624998
v -0.00822544 0.10250053 -0.12487675
v -0.00297965 0.10250068 -0.10350072
v -0.00897375 0.10250047 -0.13350190
v -0.00897117 0.10250037 -0.14662690
v -0.02099380 0.10250121 -0.03150426
v -0.02548053 0.10250072 -0.09900514
v -0.02248997 0.10250107 -0.05100455
v -0.02398554 0.10250091 -0.07350485
v -0.02249056 0.10250109 -0.04800455
v -0.01949734 0.10250134 -0.01350396
v -0.01799844 0.10250138 -0.00787867
v -0.02996992 0.10250033 -0.15300603
v -0.03174858 0.10250042 -0.14196720
v -0.02884421 0.09350031 -0.15660574
v -0.00897021 0.10250034 -0.15150190
v -0.01170488 0.10250031 -0.15467891
v -0.02396903 0.10250030 -0.15750485
v -0.00896992 0.10250032 -0.15300190
v -0.02906925 0.10250031 -0.15638085
v -0.02922198 0.10250041 -0.14250588
v -0.02696903 0.10250030 -0.15750544
v -0.01196933 0.10250030 -0.15600249
v 0.00825156 0.09350136 -0.00792702
v 0.01200089 0.09350139 -0.00449771
v 0.00900118 0.09350138 -0.00599830
v 0.00900115 0.10250138 -0.00583169
v 0.01200129 0.10250137 -0.00649777
v 0.01350148 0.10250137 -0.00749748
v 0.00750119 0.10250138 -0.00599866
v 0.00750089 0.10250139 -0.00449866
v 0.00825060 0.10250140 -0.00299851
v -0.01199882 0.09350139 -0.00600242
v -0.00999911 0.10250140 -0.00450210
v -0.01199852 0.10250138 -0.00750249
v -0.00899852 0.10250138 -0.00750190
v -0.00899940 0.10250141 -0.00300190
v -0.01124822 0.10250137 -0.00900234
v -0.01199881 0.10250139 -0.00600249
v -0.01199940 0.10250141 -0.00300249
v -0.00050206 0.09350150 0.01049984
v -0.00150265 0.10250152 0.01349957
v -0.00206456 0.10250150 0.01049946
v 0.00299713 0.10250153 0.01462546
v 0.00074824 0.10250149 0.00900002
v -0.00150176 0.10250149 0.00899957
v -0.00300235 0.10250151 0.01199928
v 0.00149735 0.10250152 0.01350016
v -0.00598054 0.09350071 -0.09900124
v -0.00748043 0.10250071 -0.09950160
v -0.00448004 0.10250069 -0.10150101
v -0.00898024 0.10250070 -0.10050190
v -0.00673083 0.10250072 -0.09750146
v 0.00301003 0.09350106 -0.05099948
v 0.00301000 0.10250106 -0.05083287
v 0.00601033 0.10250104 -0.05249895
v 0.00600974 0.10250107 -0.04949895
v 0.00001062 0.10250104 -0.05400013
v -0.01107148 0.09350038 -0.14505225
v -0.01347169 0.09350039 -0.14400272
v -0.01309698 0.09800040 -0.14250268
v -0.01347169 0.10250039 -0.14400278
v -0.01497154 0.10250039 -0.14475308
v -0.01047139 0.10250038 -0.14550219
v -0.01097169 0.10250039 -0.14400229
v -0.01047198 0.10250040 -0.14250219
v -0.01272110 0.10250037 -0.14700263
v -0.02697198 0.10250041 -0.14250544
v -0.02797159 0.10250040 -0.14450563
v -0.02697110 0.10250038 -0.14700544
v -0.02248083 0.09350073 -0.09750449
v -0.02478874 0.10250074 -0.09635116
v -0.02248063 0.10250073 -0.09850455
v -0.02098112 0.10250074 -0.09600426
v -0.02098083 0.10250073 -0.09750426
v -0.02098053 0.10250072 -0.09900426
v -0.01949085 0.10250110 -0.04650396
v -0.01930024 0.10250108 -0.04891238
v -0.01649070 0.10250109 -0.04725337
v -0.02099056 0.10250109 -0.04800426
v -0.00750206 0.09350151 0.01049846
v -0.00733497 0.09800149 0.00837346
v -0.00450265 0.09800153 0.01349902
v -0.00416838 0.09800149 0.00874908
v -0.00557380 0.09800152 0.01211419
v -0.00600147 0.10250148 0.00749869
v -0.00825161 0.10250149 0.00824825
v -0.00750176 0.10250149 0.00899839
v -0.00900235 0.10250152 0.01199810
v -0.00630260 0.10250153 0.01328434
v -0.00450235 0.10250152 0.01199898
v -0.00375161 0.10250149 0.00824913
v -0.00450176 0.10250149 0.00899898
v 0.00599823 0.09350149 0.00900111
v 0.00749764 0.09350151 0.01200141
v 0.00699765 0.10250151 0.01200124
v 0.00599853 0.10250148 0.00750105
v 0.00494810 0.10250149 0.00968266
v 0.00749676 0.10250154 0.01650134
v 0.00899780 0.10250150 0.01125164
v 0.00899824 0.10250149 0.00900164
v 0.01049883 0.10250146 0.00600193
v 0.00449853 0.10250148 0.00750075
v 0.00299839 0.10250148 0.00825046
v 0.01050030 0.09350141 -0.00149800
v 0.01350030 0.09350141 -0.00149741
v 0.01049971 0.09350143 0.00150200
v 0.01410010 0.09800142 -0.00049733
v 0.01250060 0.09800140 -0.00299764
v 0.00989991 0.09800143 0.00050185
v 0.01149942 0.09800144 0.00300216
v 0.01050050 0.10250140 -0.00249807
v 0.00900030 0.10250141 -0.00149836
v 0.00900001 0.10250142 0.00000164
v 0.00899971 0.10250143 0.00150164
v 0.01169946 0.10250144 0.00278788
v 0.01449971 0.10250143 0.00150272
v 0.01450030 0.10250141 -0.00149728
v 0.01350060 0.10250140 -0.00299748
v 0.00500237 0.10250134 -0.01199915
v 0.00666844 0.10250136 -0.00899882
v 0.00900222 0.10250134 -0.01124836
v 0.00300207 0.10250135 -0.01049954
v 0.00600148 0.10250137 -0.00749895
v -0.01050029 0.09350144 0.00149787
v -0.01350002 0.10250143 0.00016388
v -0.01049970 0.10250142 -0.00150219
v -0.01050029 0.10250144 0.00149781
v -0.01349940 0.10250141 -0.00300278
v -0.01499984 0.10250143 -0.00075308
v -0.01500029 0.10250144 0.00149692
v 0.00550059 0.09350140 -0.00299898
v -0.00449941 0.09350141 -0.00300095
v -0.00299911 0.09350140 -0.00450066
v -0.00060115 0.10250147 0.00588437
v -0.00487570 0.10250145 0.00359891
v -0.00599940 0.10250141 -0.00300131
v -0.00374916 0.10250140 -0.00425087
v -0.00149881 0.10250138 -0.00600043
v 0.00075119 0.10250138 -0.00599998
v 0.00300109 0.10250139 -0.00549954
v 0.00450089 0.10250139 -0.00449925
v 0.00566726 0.10250140 -0.00299902
v 0.00599942 0.10250145 0.00300105
v 0.00412424 0.10250145 0.00390068
v 0.00000237 0.10250134 -0.01200013
v -0.00149744 0.10250133 -0.01300043
v 0.00150266 0.10250133 -0.01349984
v 0.00150237 0.10250134 -0.01199984
v 0.00021724 0.10250132 -0.01500009
v -0.01200176 0.10250150 0.00899751
v -0.01266784 0.10250148 0.00599738
v -0.01050147 0.10250149 0.00749780
v -0.01200088 0.10250146 0.00449751
v -0.01350088 0.10250147 0.00449722
v -0.01500117 0.10250148 0.00599692
v -0.01872110 0.10250037 -0.14700381
v -0.02525727 0.10250039 -0.14464796
v -0.02098525 0.10250089 -0.07500426
v -0.01873997 0.10250107 -0.05100382
v -0.00298997 0.10250106 -0.05100072
v -0.00899056 0.10250108 -0.04800190
v 0.01800015 0.10250141 -0.00074659
v 0.01125340 0.10250130 -0.01724792
v -0.01537263 0.10250135 -0.01200315
v -0.01649734 0.10250134 -0.01350337
v -0.01649896 0.10250140 -0.00525337
v 0.01425170 0.10250136 -0.00862233
v -0.01499896 0.10250140 -0.00525308
v -0.00900047 0.10250145 0.00243560
v -0.01197994 0.10250069 -0.10200249
v -0.02397198 0.10250041 -0.14250485
v -0.02097935 0.10250068 -0.10500426
v 0.00450266 0.10250133 -0.01349925
v 0.01199912 0.10250145 0.00450223
v 0.01462390 0.10250146 0.00562774
v 0.01285597 0.10250146 0.00600240
v 0.01349824 0.10250148 0.00900252
v 0.01049824 0.10250149 0.00900193
v 0.01199882 0.09350146 0.00600229
v 0.00087400 0.08999192 -0.19532961
v 0.00451020 0.09194508 -0.20220276
v -0.00254333 0.09016433 -0.20288966
v -0.00459029 0.09191305 -0.19737388
v -0.00033344 0.09250005 -0.19061029
v -0.00446019 0.09249999 -0.19832197
v -0.00061047 0.09249995 -0.20475855
v -0.00510997 0.09249996 -0.20308015
v 0.00873072 0.09174994 -0.20485200
v 0.00629257 0.09250006 -0.18926900
v -0.01245597 0.09249996 -0.20431801
v 0.00066462 0.09249989 -0.21273503
v -0.00177221 0.09019038 -0.21417673
v 0.00675648 0.09249990 -0.21090653
v 0.00955567 0.09249997 -0.20129992
v 0.01245213 0.09249998 -0.19956754
v -0.01237352 0.10299998 -0.20043328
v -0.01389397 0.10300001 -0.19649643
v -0.00810752 0.09712006 -0.18930153
v 0.00535239 0.10016223 -0.18702584
v -0.00586574 0.09808517 -0.18900346
v -0.00381042 0.09775003 -0.19356383
v -0.00947706 0.10299999 -0.19870090
v -0.01192540 0.10299997 -0.20191308
v -0.01271566 0.10299995 -0.20453690
v -0.00591099 0.09794436 -0.20959098
v -0.00280013 0.10299993 -0.20694218
v 0.00652773 0.10348827 -0.21117354
v 0.00339611 0.09775004 -0.19100142
v 0.00037642 0.10300006 -0.18887494
v 0.01274001 0.08950003 -0.19298666
v 0.01534859 0.08949999 -0.19783514
v 0.01416088 0.09034181 -0.20245865
v -0.00474028 0.08949988 -0.21465681
v -0.00719503 0.08949990 -0.21162693
v 0.01025158 0.09221701 -0.19261325
v -0.01231650 0.08949995 -0.20564254
v -0.01505051 0.09774994 -0.20618543
v -0.00814494 0.10449990 -0.21188674
v 0.00722444 0.10599988 -0.21274430
v 0.01353056 0.10416948 -0.19777625
v 0.01512454 0.10599999 -0.19709536
v 0.01162516 0.10600002 -0.19307097
v 0.01124424 0.10400004 -0.19088770
v 0.01388814 0.10599992 -0.20744787
v -0.00446019 0.10299999 -0.19832205
v -0.00061046 0.10299995 -0.20475863
v 0.00601861 0.10299997 -0.20123074
v 0.00068908 0.10300001 -0.19524227
v -0.00958527 0.09775002 -0.19559766
v 0.00307868 0.10401124 -0.19688535
v -0.00377329 0.10494243 -0.20201812
v 0.00369950 0.10540056 -0.20227093
v -0.00338341 0.10459818 -0.19690788
v 0.00003931 0.10599998 -0.20000047
v 0.01894116 0.09505008 -0.18533399
v 0.02115375 0.09100007 -0.18562398
v -0.02261503 0.09099991 -0.21180211
v -0.02197137 0.10599991 -0.21141724
v -0.02145561 0.08979991 -0.21051071
v 0.02511683 0.09012191 -0.20164189
v 0.02343913 0.10599992 -0.20697888
v 0.02150204 0.09099988 -0.21250690
v 0.01575999 0.09009286 -0.21865121
v 0.02015151 0.10449986 -0.21514256
v -0.00076732 0.09099980 -0.22495230
v -0.01086841 0.10549982 -0.22316066
v -0.01626889 0.09099985 -0.21869472
v -0.01966153 0.10599988 -0.21527919
v -0.02107514 0.09099989 -0.21437674
v -0.01863290 0.10599988 -0.21553788
v -0.01194986 0.10599985 -0.21940594
v -0.00771083 0.10599982 -0.22236659
v -0.00107294 0.10599981 -0.22430385
v 0.02057324 0.10600007 -0.18684521
v 0.02501147 0.10590420 -0.20295541
v 0.00257726 0.10599980 -0.22469984
v 0.01879501 0.10599985 -0.21674782
v 0.01103954 0.10599982 -0.22094941
v 0.02286202 0.10600004 -0.19042844
v 0.00588936 0.10559071 -0.22512738
v 0.02134581 0.10599990 -0.20977309
v -0.02132772 0.08949991 -0.21103215
v 0.00613639 0.08971409 -0.22431882
v 0.02123348 0.08959363 -0.21200347
v -0.01431088 0.08949986 -0.21765002
v -0.01920731 0.08949990 -0.21238567
v 0.00438041 0.08949981 -0.22296581
v 0.01074927 0.08949982 -0.22155985
v 0.02358375 0.08950000 -0.19553142
v 0.02025140 0.08950006 -0.18703758
v -0.00545424 0.08967195 -0.22223296
v 0.00009980 0.08979981 -0.22405000
v 0.00374440 0.08949985 -0.21788428
v 0.00284205 0.08949984 -0.21929788
v -0.00056567 0.08949985 -0.21871431
v -0.00750434 0.08949989 -0.21368827
v -0.00873157 0.08949986 -0.21748096
v -0.01061597 0.08984598 -0.22156598
v -0.01109681 0.08949987 -0.21644866
v 0.00538970 0.08949988 -0.21406001
v 0.00747395 0.08949984 -0.21827536
v 0.01094482 0.09774983 -0.21969514
v 0.00269206 0.08949986 -0.21593363
v 0.01681617 0.08949993 -0.20613345
v 0.02170965 0.08949991 -0.20823450
v 0.01730052 0.08949995 -0.20308992
v 0.01830208 0.08949996 -0.20131212
v 0.02398749 0.08969996 -0.20079044
v 0.01122158 0.08949985 -0.21723553
v 0.01133590 0.08949986 -0.21596553
v 0.01223824 0.08949987 -0.21455192
v 0.01098406 0.08949990 -0.21082657
v 0.01643859 0.08949991 -0.20834753
v 0.01347159 0.08949993 -0.20638602
v 0.01605599 0.08949989 -0.21153633
v 0.01582005 0.08949987 -0.21475603
v -0.01132402 0.08949992 -0.20876306
v -0.01052403 0.08949990 -0.21156175
v -0.01477095 0.09774989 -0.21322799
v -0.01696062 0.08949988 -0.21541147
v -0.01766742 0.08949988 -0.21496030
v -0.01850051 0.08949990 -0.21283684
v -0.01679175 0.08949992 -0.20925041
v 0.02320184 0.08950002 -0.19270116
v 0.01810428 0.08949997 -0.19968261
v 0.02010677 0.08949998 -0.19848491
v 0.01933683 0.08949999 -0.19719760
v 0.01162515 0.08950002 -0.19307085
v 0.01683756 0.08950004 -0.19082721
v 0.01857911 0.08950006 -0.18716386
v 0.01438186 0.08950001 -0.19483281
v 0.01702699 0.08950002 -0.19333565
v 0.02099630 0.08950002 -0.19294984
v 0.00747396 0.10599984 -0.21827548
v -0.00422969 0.10599986 -0.21745879
v 0.00528124 0.10599981 -0.22264563
v 0.00284206 0.10599984 -0.21929800
v -0.01148340 0.10599993 -0.20776612
v -0.00150599 0.10599986 -0.21743703
v 0.01857912 0.10600006 -0.18716398
v 0.01767372 0.10600004 -0.19076419
v 0.01830209 0.10599996 -0.20131224
v 0.01647257 0.10599987 -0.21485365
v -0.01696061 0.10599988 -0.21541159
v -0.01708690 0.10599989 -0.21373930
v 0.00837630 0.10599985 -0.21686188
v 0.00078480 0.10599984 -0.21878063
v -0.00175601 0.10507758 -0.21460933
v -0.01052403 0.10599990 -0.21156187
v -0.00499590 0.10599989 -0.21349896
v -0.01416650 0.10599986 -0.21789151
v -0.01122563 0.10599987 -0.21620230
v -0.00873156 0.10599986 -0.21748108
v 0.00592300 0.10599984 -0.21932154
v 0.00488032 0.10599987 -0.21453846
v 0.00335943 0.10599985 -0.21724074
v 0.01711592 0.10599991 -0.20919173
v 0.01842227 0.10599992 -0.20735774
v 0.01851082 0.10599994 -0.20403074
v 0.00927865 0.10599986 -0.21544827
v 0.01111518 0.10599987 -0.21516763
v 0.01031339 0.10599989 -0.21133375
v 0.01379531 0.10599984 -0.21799032
v 0.01262323 0.10599986 -0.21519570
v 0.01214662 0.10599990 -0.21058795
v -0.02158001 0.10599992 -0.20997859
v -0.01623897 0.10599992 -0.20925786
v -0.01862679 0.10599991 -0.21116467
v -0.01850050 0.10599990 -0.21283696
v -0.01592587 0.09774991 -0.21129701
v 0.01676668 0.10599997 -0.20013318
v 0.02010678 0.10599998 -0.19848503
v 0.01933684 0.10599999 -0.19719772
v 0.02332813 0.10600001 -0.19437357
v 0.01978605 0.10600002 -0.19323393
v 0.01767066 0.10600002 -0.19295079
v -0.00796162 0.10599985 -0.21876840
v 0.01091631 0.10599985 -0.21709052
v 0.01439686 0.09775006 -0.18857294
f 7 6 25
f 7 25 30
f 23 25 6
f 24 23 6
f 91 71 8
f 28 10 8
f 8 71 12
f 32 27 13
f 24 15 76
f 26 17 4
f 4 13 26
f 17 18 4
f 12 19 20
f 76 21 22
f 22 24 76
f 30 25 78
f 30 78 27
f 13 27 26
f 76 14 28
f 28 21 76
f 32 31 27
f 2 29 32
f 31 30 27
f 12 11 33
f 33 18 12
f 4 18 34
f 13 4 85
f 4 35 85
f 32 36 37
f 30 2 38
f 42 39 41
f 42 40 39
f 42 15 6
f 15 42 43
f 28 44 45
f 45 44 10
f 95 46 10
f 95 47 1
f 95 1 46
f 1 92 91
f 47 92 1
f 48 49 71
f 11 71 49
f 34 50 51
f 5 51 52
f 4 5 52
f 4 52 54
f 72 4 54
f 54 53 72
f 53 55 13
f 55 36 32
f 53 13 72
f 51 5 34
f 49 50 11
f 91 48 71
f 43 14 16
f 43 16 15
f 38 39 6
f 38 6 30
f 37 38 2
f 37 2 32
f 28 8 21
f 20 8 12
f 10 46 8
f 8 46 1
f 8 1 91
f 6 15 24
f 56 57 58
f 80 75 103
f 65 77 66
f 77 103 66
f 58 57 96
f 68 69 59
f 71 70 83
f 73 79 67
f 76 75 80
f 76 80 58
f 78 77 65
f 65 79 78
f 22 60 58
f 58 80 22
f 59 60 81
f 68 59 81
f 81 70 68
f 62 64 26
f 31 67 79
f 79 65 31
f 70 82 83
f 84 83 82
f 64 63 84
f 63 83 84
f 85 62 73
f 73 72 86
f 86 85 73
f 85 72 62
f 72 110 54
f 54 87 62
f 87 88 62
f 63 62 88
f 88 89 63
f 83 63 89
f 71 90 69
f 59 69 91
f 56 92 94
f 56 59 91
f 91 92 56
f 93 57 95
f 57 1 95
f 95 56 94
f 95 1 56
f 96 57 93
f 93 98 97
f 93 97 96
f 96 97 99
f 74 58 101
f 75 74 101
f 75 101 104
f 102 103 104
f 101 102 104
f 103 75 104
f 103 102 105
f 103 105 106
f 106 107 103
f 65 103 107
f 107 29 65
f 67 108 36
f 67 29 108
f 72 73 110
f 109 73 67
f 73 109 110
f 36 109 67
f 107 108 29
f 100 101 58
f 100 58 99
f 90 71 83
f 54 62 72
f 84 82 64
f 26 73 62
f 103 77 61
f 103 61 80
f 60 59 58
f 58 59 56
f 85 86 13
f 72 13 86
f 85 35 72
f 103 104 42
f 104 103 40
f 40 42 104
f 6 40 103
f 42 6 103
f 84 83 34
f 83 84 34
f 18 33 83
f 34 18 83
f 50 34 83
f 11 50 83
f 33 11 83
f 67 31 32
f 29 67 32
f 31 65 30
f 29 30 65
f 58 96 28
f 99 58 14
f 96 99 9
f 9 44 96
f 14 9 99
f 28 14 58
f 44 28 96
f 70 81 20
f 82 70 12
f 64 82 18
f 26 64 17
f 79 73 26
f 78 79 27
f 61 77 25
f 80 61 23
f 22 80 24
f 81 60 21
f 21 8 81
f 22 21 60
f 23 24 80
f 25 23 61
f 78 25 77
f 26 27 79
f 18 17 64
f 12 18 82
f 19 12 70
f 20 19 70
f 8 20 81
f 76 58 14
f 74 75 15
f 58 74 16
f 16 14 58
f 15 16 74
f 76 15 75
f 65 66 7
f 103 65 30
f 66 103 6
f 6 7 66
f 30 6 103
f 7 30 65
f 73 67 32
f 67 73 55
f 55 32 67
f 13 55 73
f 32 13 73
f 62 63 34
f 64 62 4
f 63 64 4
f 4 34 63
f 3 4 62
f 5 3 62
f 34 5 62
f 70 71 11
f 68 70 12
f 69 68 12
f 12 71 69
f 11 12 70
f 96 97 45
f 97 96 28
f 28 45 97
f 10 28 96
f 45 10 96
f 10 44 97
f 97 98 10
f 44 9 99
f 99 97 44
f 100 99 9
f 101 100 43
f 101 43 42
f 101 42 41
f 101 41 39
f 105 102 39
f 108 107 37
f 110 55 53
f 54 110 53
f 88 87 52
f 52 51 88
f 51 50 89
f 90 83 50
f 49 48 69
f 69 90 49
f 95 94 47
f 95 10 93
f 10 98 93
f 47 94 92
f 48 91 69
f 50 49 90
f 50 83 89
f 51 89 88
f 52 87 54
f 55 110 109
f 36 55 109
f 37 36 108
f 38 37 107
f 38 107 106
f 38 106 105
f 39 38 105
f 39 102 101
f 14 43 100
f 9 14 100
f 113 114 116
f 115 116 114
f 112 114 113
f 111 112 113
f 116 111 113
f 285 121 119
f 117 119 118
f 118 119 121
f 274 129 130
f 148 274 131
f 217 134 135
f 136 133 137
f 140 138 133
f 139 136 138
f 140 139 138
f 133 139 140
f 216 201 141
f 148 149 274
f 131 152 174
f 124 153 123
f 124 154 121
f 154 118 121
f 123 122 155
f 118 155 156
f 117 118 159
f 118 120 158
f 158 159 118
f 124 121 160
f 165 160 121
f 288 159 158
f 158 120 161
f 288 117 159
f 117 162 163
f 117 163 285
f 164 165 121
f 160 166 125
f 125 153 124
f 125 315 153
f 123 153 315
f 313 123 167
f 313 168 123
f 170 169 122
f 168 170 123
f 170 313 167
f 167 312 170
f 122 123 170
f 312 169 170
f 171 127 331
f 172 171 129
f 172 129 127
f 144 127 129
f 141 203 177
f 177 176 216
f 141 177 216
f 143 211 180
f 180 179 142
f 211 179 180
f 142 143 180
f 182 194 132
f 184 185 122
f 157 184 120
f 320 152 131
f 320 186 152
f 130 320 131
f 151 174 187
f 175 188 189
f 190 126 146
f 191 190 146
f 193 191 146
f 190 193 126
f 192 331 193
f 193 331 126
f 197 194 183
f 183 146 197
f 196 195 128
f 195 197 146
f 132 145 200
f 200 182 132
f 218 198 199
f 199 148 218
f 199 200 145
f 199 145 148
f 201 203 141
f 204 202 203
f 201 204 203
f 245 137 206
f 205 207 137
f 207 206 137
f 208 225 245
f 201 245 217
f 202 209 175
f 209 135 175
f 142 213 136
f 136 143 142
f 201 216 210
f 216 143 210
f 201 210 245
f 212 211 143
f 178 143 216
f 178 212 143
f 350 178 214
f 178 216 215
f 215 214 178
f 214 216 176
f 213 111 116
f 116 115 213
f 136 213 114
f 138 136 114
f 114 112 138
f 234 245 225
f 234 217 245
f 218 222 198
f 175 135 219
f 223 181 198
f 222 223 198
f 208 133 224
f 133 181 224
f 220 226 227
f 227 228 220
f 229 230 231
f 226 232 227
f 220 134 217
f 231 233 229
f 230 234 235
f 225 235 234
f 238 237 236
f 237 229 236
f 227 232 238
f 217 226 220
f 235 231 230
f 236 227 238
f 233 236 229
f 224 225 208
f 221 151 188
f 221 188 175
f 219 221 175
f 219 135 134
f 112 111 138
f 115 114 213
f 213 179 111
f 212 178 211
f 245 136 137
f 135 201 217
f 206 208 245
f 200 198 182
f 194 196 128
f 185 155 122
f 184 122 331
f 183 193 146
f 182 183 194
f 182 198 181
f 138 181 133
f 175 203 202
f 173 130 129
f 144 146 127
f 169 171 331
f 315 167 123
f 158 161 288
f 160 125 124
f 157 120 156
f 118 156 120
f 150 151 218
f 148 150 218
f 147 128 195
f 147 195 146
f 146 126 127
f 145 149 148
f 128 145 132
f 139 133 136
f 205 137 133
f 208 205 133
f 128 132 194
f 130 131 274
f 129 274 144
f 331 127 126
f 122 169 331
f 119 117 285
f 243 242 244
f 244 241 243
f 243 295 242
f 295 243 241
f 244 336 368
f 241 244 368
f 249 265 250
f 251 250 266
f 252 273 320
f 266 252 253
f 330 254 310
f 255 256 258
f 256 312 258
f 260 263 262
f 145 250 265
f 265 274 145
f 266 274 252
f 175 305 268
f 268 247 175
f 330 270 271
f 252 265 272
f 274 265 252
f 258 276 123
f 260 261 290
f 290 277 260
f 278 123 279
f 277 278 279
f 279 260 277
f 288 260 286
f 260 288 280
f 281 261 260
f 280 281 260
f 275 259 283
f 166 283 259
f 264 282 166
f 262 287 286
f 261 184 290
f 278 289 184
f 289 290 184
f 278 184 258
f 270 291 293
f 249 251 292
f 251 293 292
f 239 179 298
f 298 299 239
f 298 179 211
f 303 301 341
f 301 302 203
f 247 304 175
f 319 305 306
f 305 248 306
f 306 152 319
f 253 252 322
f 307 254 308
f 253 307 308
f 308 266 253
f 311 310 254
f 254 307 172
f 309 310 307
f 255 310 309
f 258 312 314
f 276 313 315
f 314 312 315
f 314 276 258
f 275 315 317
f 317 318 275
f 315 316 317
f 318 316 275
f 175 328 323
f 305 175 324
f 323 324 175
f 248 305 324
f 325 326 327
f 327 306 325
f 248 325 306
f 189 327 328
f 329 331 192
f 251 266 332
f 332 293 251
f 270 332 266
f 332 270 293
f 249 292 334
f 357 265 333
f 265 334 333
f 301 203 304
f 304 246 335
f 225 336 337
f 354 340 247
f 246 247 340
f 339 342 338
f 342 341 338
f 341 242 239
f 341 343 242
f 242 343 337
f 344 345 300
f 345 299 211
f 239 299 346
f 341 239 346
f 349 179 239
f 349 347 179
f 349 239 242
f 351 240 344
f 352 344 350
f 352 351 344
f 240 302 341
f 295 111 113
f 114 113 348
f 114 348 242
f 113 111 348
f 114 242 295
f 113 114 295
f 225 337 353
f 354 269 361
f 337 354 353
f 355 353 354
f 228 357 356
f 359 358 360
f 358 356 360
f 361 269 358
f 358 359 361
f 360 366 367
f 366 360 364
f 365 364 363
f 360 367 359
f 363 362 365
f 353 363 225
f 364 365 366
f 369 292 294
f 294 295 369
f 370 357 333
f 370 356 357
f 369 370 333
f 369 333 292
f 368 369 295
f 302 352 350
f 348 349 242
f 346 344 341
f 345 346 299
f 345 211 300
f 245 339 354
f 336 225 368
f 304 338 301
f 335 246 338
f 334 265 249
f 333 334 292
f 330 255 329
f 326 328 327
f 315 275 276
f 315 313 314
f 309 312 256
f 309 256 255
f 172 311 254
f 322 307 253
f 152 321 319
f 302 303 341
f 300 350 344
f 297 298 211
f 111 347 348
f 296 111 295
f 295 241 368
f 291 270 330
f 331 329 255
f 285 262 264
f 166 284 264
f 282 264 283
f 281 288 261
f 278 258 123
f 260 283 263
f 273 305 319
f 272 273 252
f 271 254 330
f 267 305 357
f 145 266 250
f 264 263 283
f 264 262 263
f 262 286 260
f 259 275 316
f 258 184 257
f 258 257 255
f 310 255 330
f 319 320 273
f 250 251 249
f 304 247 246
f 247 269 354
f 354 337 245
f 337 336 244
f 301 338 341
f 337 244 242
f 240 341 344
f 125 166 316
f 259 316 166
f 166 164 121
f 284 121 285
f 285 163 262
f 286 287 117
f 162 117 287
f 287 262 162
f 161 120 261
f 261 288 161
f 117 288 286
f 163 162 262
f 285 264 284
f 121 284 166
f 125 316 315
f 312 167 315
f 129 307 322
f 322 173 129
f 173 322 186
f 309 307 171
f 169 312 309
f 309 171 169
f 129 171 307
f 306 174 152
f 327 187 174
f 174 306 327
f 187 327 189
f 328 175 189
f 203 175 304
f 321 152 186
f 296 295 138
f 111 296 138
f 179 347 111
f 299 297 211
f 211 178 300
f 300 178 350
f 302 350 176
f 302 176 177
f 203 302 177
f 214 176 350
f 295 181 138
f 295 294 181
f 182 181 294
f 294 292 182
f 183 182 292
f 292 293 183
f 183 293 291
f 291 193 183
f 193 291 329
f 192 193 329
f 255 257 331
f 257 184 331
f 120 184 261
f 272 265 148
f 272 131 174
f 174 273 272
f 148 131 272
f 174 151 305
f 174 305 273
f 357 305 151
f 151 150 357
f 357 150 148
f 265 357 148
f 128 147 270
f 144 128 266
f 270 266 128
f 270 147 146
f 146 271 270
f 146 254 271
f 308 254 146
f 146 144 308
f 266 308 144
f 151 305 267
f 151 221 305
f 221 219 247
f 221 247 268
f 221 268 305
f 358 269 134
f 358 220 228
f 228 356 358
f 247 219 134
f 134 269 247
f 134 220 358
f 228 222 357
f 218 151 267
f 222 218 357
f 267 357 218
f 222 228 356
f 231 235 363
f 233 231 363
f 236 233 363
f 227 236 364
f 228 227 360
f 360 356 228
f 364 360 227
f 363 364 236
f 225 363 235
f 224 368 225
f 368 224 181
f 181 369 368
f 223 222 370
f 181 223 370
f 370 369 181
f 356 370 222
f 145 128 266
f 128 144 266
f 144 274 266
f 145 274 149
f 351 352 214
f 240 351 216
f 215 216 351
f 302 240 216
f 352 302 214
f 216 214 302
f 214 215 351
f 348 347 213
f 349 348 213
f 347 349 179
f 142 179 349
f 213 142 349
f 179 213 347
f 346 345 212
f 344 346 178
f 345 344 178
f 178 212 345
f 212 178 346
f 301 303 141
f 302 301 177
f 303 302 177
f 141 177 301
f 177 141 303
f 343 341 136
f 337 343 136
f 342 339 245
f 341 342 210
f 210 143 341
f 143 136 341
f 245 210 342
f 136 245 337
f 354 339 201
f 340 354 135
f 246 340 209
f 338 246 202
f 339 338 201
f 202 201 338
f 209 202 246
f 135 209 340
f 201 135 354
f 336 337 205
f 337 336 208
f 208 206 337
f 205 208 336
f 207 205 337
f 206 207 337
f 243 295 140
f 295 243 139
f 140 139 243
f 139 140 295
f 338 304 201
f 335 338 202
f 304 335 202
f 204 201 304
f 202 204 304
f 201 202 338
f 244 241 137
f 241 244 137
f 299 298 180
f 297 299 180
f 298 297 180
f 334 333 198
f 333 334 199
f 199 198 333
f 200 199 334
f 198 200 334
f 270 332 197
f 332 270 195
f 196 194 332
f 195 196 332
f 197 195 270
f 194 197 332
f 329 291 193
f 330 329 193
f 193 190 330
f 291 330 190
f 190 191 291
f 191 193 291
f 310 311 127
f 307 310 127
f 172 307 171
f 127 171 307
f 172 127 311
f 248 324 151
f 325 248 151
f 326 325 151
f 151 187 328
f 328 326 151
f 323 328 189
f 189 188 323
f 324 323 188
f 187 189 328
f 188 151 324
f 252 320 130
f 322 252 130
f 186 322 173
f 319 321 186
f 186 320 319
f 130 173 322
f 317 316 153
f 318 317 153
f 316 318 153
f 125 153 316
f 153 125 316
f 282 283 160
f 166 282 165
f 166 160 283
f 165 164 166
f 160 165 282
f 263 264 118
f 264 263 118
f 119 118 264
f 118 119 264
f 288 281 158
f 280 288 159
f 281 280 159
f 158 159 288
f 159 158 281
f 289 278 184
f 290 289 184
f 277 290 156
f 278 277 155
f 155 185 278
f 156 155 277
f 157 156 290
f 184 157 290
f 185 184 278
f 276 314 170
f 313 170 314
f 168 313 276
f 170 168 276
f 276 275 123
f 260 279 118
f 283 260 118
f 275 283 124
f 124 123 275
f 154 124 283
f 118 154 283
f 155 118 279
f 123 155 279
f 363 353 234
f 362 363 234
f 365 362 230
f 366 365 238
f 367 366 232
f 359 367 232
f 361 359 226
f 354 361 217
f 355 354 217
f 353 355 217
f 226 217 361
f 232 226 359
f 238 232 366
f 237 238 365
f 229 237 365
f 230 229 365
f 234 230 362
f 217 234 353
f 372 373 371
f 373 374 371
f 374 375 371
f 375 376 371
f 376 377 371
f 377 378 371
f 378 379 371
f 379 372 371
f 380 376 375
f 381 375 374
f 382 374 373
f 383 373 372
f 384 372 379
f 385 379 378
f 386 378 377
f 387 377 376
f 376 380 387
f 377 387 386
f 378 386 385
f 379 385 384
f 372 384 383
f 373 383 382
f 374 382 381
f 375 381 380
f 384 385 388
f 385 386 388
f 386 387 388
f 387 380 388
f 380 381 388
f 381 382 388
f 382 383 388
f 383 384 388
f 390 391 389
f 391 392 389
f 392 393 389
f 393 394 389
f 394 395 389
f 395 396 389
f 396 397 389
f 397 390 389
f 398 394 393
f 399 393 392
f 400 392 391
f 401 391 390
f 402 390 397
f 403 397 396
f 404 396 395
f 405 395 394
f 394 398 405
f 395 405 404
f 396 404 403
f 397 403 402
f 390 402 401
f 391 401 400
f 392 400 399
f 393 399 398
f 402 403 406
f 403 404 406
f 404 405 406
f 405 398 406
f 398 399 406
f 399 400 406
f 400 401 406
f 401 402 406
f 408 409 407
f 409 410 407
f 410 411 407
f 411 412 407
f 412 413 407
f 413 414 407
f 414 415 407
f 415 408 407
f 416 412 411
f 417 411 410
f 418 410 409
f 419 409 408
f 420 408 415
f 421 415 414
f 422 414 413
f 423 413 412
f 412 416 423
f 413 423 422
f 414 422 421
f 415 421 420
f 408 420 419
f 409 419 418
f 410 418 417
f 411 417 416
f 420 421 424
f 421 422 424
f 422 423 424
f 423 416 424
f 416 417 424
f 417 418 424
f 418 419 424
f 419 420 424
f 427 428 430
f 429 430 428
f 426 428 427
f 425 426 427
f 430 425 427
f 599 435 433
f 431 433 432
f 432 433 435
f 588 443 444
f 462 588 445
f 531 448 449
f 450 447 451
f 454 452 447
f 453 450 452
f 454 453 452
f 447 453 454
f 530 515 455
f 462 463 588
f 445 466 488
f 438 467 437
f 438 468 435
f 468 432 435
f 437 436 469
f 432 469 470
f 431 432 473
f 432 434 472
f 472 473 432
f 438 435 474
f 479 474 435
f 602 473 472
f 472 434 475
f 602 431 473
f 431 476 477
f 431 477 599
f 478 479 435
f 474 480 439
f 439 467 438
f 439 629 467
f 437 467 629
f 627 437 481
f 627 482 437
f 484 483 436
f 482 484 437
f 484 627 481
f 481 626 484
f 436 437 484
f 626 483 484
f 485 441 645
f 486 485 443
f 486 443 441
f 458 441 443
f 455 517 491
f 491 490 530
f 455 491 530
f 457 525 494
f 494 493 456
f 525 493 494
f 456 457 494
f 496 508 446
f 498 499 436
f 471 498 434
f 634 466 445
f 634 500 466
f 444 634 445
f 465 488 501
f 489 502 503
f 504 440 460
f 505 504 460
f 507 505 460
f 504 507 440
f 506 645 507
f 507 645 440
f 511 508 497
f 497 460 511
f 510 509 442
f 509 511 460
f 446 459 514
f 514 496 446
f 532 512 513
f 513 462 532
f 513 514 459
f 513 459 462
f 515 517 455
f 518 516 517
f 515 518 517
f 559 451 520
f 519 521 451
f 521 520 451
f 522 539 559
f 515 559 531
f 516 523 489
f 523 449 489
f 456 527 450
f 450 457 456
f 515 530 524
f 530 457 524
f 515 524 559
f 526 525 457
f 492 457 530
f 492 526 457
f 664 492 528
f 492 530 529
f 529 528 492
f 528 530 490
f 527 425 430
f 430 429 527
f 450 527 428
f 452 450 428
f 428 426 452
f 548 559 539
f 548 531 559
f 532 536 512
f 489 449 533
f 537 495 512
f 536 537 512
f 522 447 538
f 447 495 538
f 534 540 541
f 541 542 534
f 543 544 545
f 540 546 541
f 534 448 531
f 545 547 543
f 544 548 549
f 539 549 548
f 552 551 550
f 551 543 550
f 541 546 552
f 531 540 534
f 549 545 544
f 550 541 552
f 547 550 543
f 538 539 522
f 535 465 502
f 535 502 489
f 533 535 489
f 533 449 448
f 426 425 452
f 429 428 527
f 527 493 425
f 526 492 525
f 559 450 451
f 449 515 531
f 520 522 559
f 514 512 496
f 508 510 442
f 499 469 436
f 498 436 645
f 497 507 460
f 496 497 508
f 496 512 495
f 452 495 447
f 489 517 516
f 487 444 443
f 458 460 441
f 483 485 645
f 629 481 437
f 472 475 602
f 474 439 438
f 471 434 470
f 432 470 434
f 464 465 532
f 462 464 532
f 461 442 509
f 461 509 460
f 460 440 441
f 459 463 462
f 442 459 446
f 453 447 450
f 519 451 447
f 522 519 447
f 442 446 508
f 444 445 588
f 443 588 458
f 645 441 440
f 436 483 645
f 433 431 599
f 557 556 558
f 558 555 557
f 557 609 556
f 609 557 555
f 558 650 682
f 555 558 682
f 563 579 564
f 565 564 580
f 566 587 634
f 580 566 567
f 644 568 624
f 569 570 572
f 570 626 572
f 574 577 576
f 459 564 579
f 579 588 459
f 580 588 566
f 489 619 582
f 582 561 489
f 644 584 585
f 566 579 586
f 588 579 566
f 572 590 437
f 574 575 604
f 604 591 574
f 592 437 593
f 591 592 593
f 593 574 591
f 602 574 600
f 574 602 594
f 595 575 574
f 594 595 574
f 589 573 597
f 480 597 573
f 578 596 480
f 576 601 600
f 575 498 604
f 592 603 498
f 603 604 498
f 592 498 572
f 584 605 607
f 563 565 606
f 565 607 606
f 553 493 612
f 612 613 553
f 612 493 525
f 617 615 655
f 615 616 517
f 561 618 489
f 633 619 620
f 619 562 620
f 620 466 633
f 567 566 636
f 621 568 622
f 567 621 622
f 622 580 567
f 625 624 568
f 568 621 486
f 623 624 621
f 569 624 623
f 572 626 628
f 590 627 629
f 628 626 629
f 628 590 572
f 589 629 631
f 631 632 589
f 629 630 631
f 632 630 589
f 489 642 637
f 619 489 638
f 637 638 489
f 562 619 638
f 639 640 641
f 641 620 639
f 562 639 620
f 503 641 642
f 643 645 506
f 565 580 646
f 646 607 565
f 584 646 580
f 646 584 607
f 563 606 648
f 671 579 647
f 579 648 647
f 615 517 618
f 618 560 649
f 539 650 651
f 668 654 561
f 560 561 654
f 653 656 652
f 656 655 652
f 655 556 553
f 655 657 556
f 556 657 651
f 658 659 614
f 659 613 525
f 553 613 660
f 655 553 660
f 663 493 553
f 663 661 493
f 663 553 556
f 665 554 658
f 666 658 664
f 666 665 658
f 554 616 655
f 609 425 427
f 428 427 662
f 428 662 556
f 427 425 662
f 428 556 609
f 427 428 609
f 539 651 667
f 668 583 675
f 651 668 667
f 669 667 668
f 542 671 670
f 673 672 674
f 672 670 674
f 675 583 672
f 672 673 675
f 674 680 681
f 680 674 678
f 679 678 677
f 674 681 673
f 677 676 679
f 667 677 539
f 678 679 680
f 683 606 608
f 608 609 683
f 684 671 647
f 684 670 671
f 683 684 647
f 683 647 606
f 682 683 609
f 616 666 664
f 662 663 556
f 660 658 655
f 659 660 613
f 659 525 614
f 559 653 668
f 650 539 682
f 618 652 615
f 649 560 652
f 648 579 563
f 647 648 606
f 644 569 643
f 640 642 641
f 629 589 590
f 629 627 628
f 623 626 570
f 623 570 569
f 486 625 568
f 636 621 567
f 466 635 633
f 616 617 655
f 614 664 658
f 611 612 525
f 425 661 662
f 610 425 609
f 609 555 682
f 605 584 644
f 645 643 569
f 599 576 578
f 480 598 578
f 596 578 597
f 595 602 575
f 592 572 437
f 574 597 577
f 587 619 633
f 586 587 566
f 585 568 644
f 581 619 671
f 459 580 564
f 578 577 597
f 578 576 577
f 576 600 574
f 573 589 630
f 572 498 571
f 572 571 569
f 624 569 644
f 633 634 587
f 564 565 563
f 618 561 560
f 561 583 668
f 668 651 559
f 651 650 558
f 615 652 655
f 651 558 556
f 554 655 658
f 439 480 630
f 573 630 480
f 480 478 435
f 598 435 599
f 599 477 576
f 600 601 431
f 476 431 601
f 601 576 476
f 475 434 575
f 575 602 475
f 431 602 600
f 477 476 576
f 599 578 598
f 435 598 480
f 439 630 629
f 626 481 629
f 443 621 636
f 636 487 443
f 487 636 500
f 623 621 485
f 483 626 623
f 623 485 483
f 443 485 621
f 620 488 466
f 641 501 488
f 488 620 641
f 501 641 503
f 642 489 503
f 517 489 618
f 635 466 500
f 610 609 452
f 425 610 452
f 493 661 425
f 613 611 525
f 525 492 614
f 614 492 664
f 616 664 490
f 616 490 491
f 517 616 491
f 528 490 664
f 609 495 452
f 609 608 495
f 496 495 608
f 608 606 496
f 497 496 606
f 606 607 497
f 497 607 605
f 605 507 497
f 507 605 643
f 506 507 643
f 569 571 645
f 571 498 645
f 434 498 575
f 586 579 462
f 586 445 488
f 488 587 586
f 462 445 586
f 488 465 619
f 488 619 587
f 671 619 465
f 465 464 671
f 671 464 462
f 579 671 462
f 442 461 584
f 458 442 580
f 584 580 442
f 584 461 460
f 460 585 584
f 460 568 585
f 622 568 460
f 460 458 622
f 580 622 458
f 465 619 581
f 465 535 619
f 535 533 561
f 535 561 582
f 535 582 619
f 672 583 448
f 672 534 542
f 542 670 672
f 561 533 448
f 448 583 561
f 448 534 672
f 542 536 671
f 532 465 581
f 536 532 671
f 581 671 532
f 536 542 670
f 545 549 677
f 547 545 677
f 550 547 677
f 541 550 678
f 542 541 674
f 674 670 542
f 678 674 541
f 677 678 550
f 539 677 549
f 538 682 539
f 682 538 495
f 495 683 682
f 537 536 684
f 495 537 684
f 684 683 495
f 670 684 536
f 459 442 580
f 442 458 580
f 458 588 580
f 459 588 463
f 665 666 528
f 554 665 530
f 529 530 665
f 616 554 530
f 666 616 528
f 530 528 616
f 528 529 665
f 662 661 527
f 663 662 527
f 661 663 493
f 456 493 663
f 527 456 663
f 493 527 661
f 660 659 526
f 658 660 492
f 659 658 492
f 492 526 659
f 526 492 660
f 615 617 455
f 616 615 491
f 617 616 491
f 455 491 615
f 491 455 617
f 657 655 450
f 651 657 450
f 656 653 559
f 655 656 524
f 524 457 655
f 457 450 655
f 559 524 656
f 450 559 651
f 668 653 515
f 654 668 449
f 560 654 523
f 652 560 516
f 653 652 515
f 516 515 652
f 523 516 560
f 449 523 654
f 515 449 668
f 650 651 519
f 651 650 522
f 522 520 651
f 519 522 650
f 521 519 651
f 520 521 651
f 557 609 454
f 609 557 453
f 454 453 557
f 453 454 609
f 652 618 515
f 649 652 516
f 618 649 516
f 518 515 618
f 516 518 618
f 515 516 652
f 558 555 451
f 555 558 451
f 613 612 494
f 611 613 494
f 612 611 494
f 648 647 512
f 647 648 513
f 513 512 647
f 514 513 648
f 512 514 648
f 584 646 511
f 646 584 509
f 510 508 646
f 509 510 646
f 511 509 584
f 508 511 646
f 643 605 507
f 644 643 507
f 507 504 644
f 605 644 504
f 504 505 605
f 505 507 605
f 624 625 441
f 621 624 441
f 486 621 485
f 441 485 621
f 486 441 625
f 562 638 465
f 639 562 465
f 640 639 465
f 465 501 642
f 642 640 465
f 637 642 503
f 503 502 637
f 638 637 502
f 501 503 642
f 502 465 638
f 566 634 444
f 636 566 444
f 500 636 487
f 633 635 500
f 500 634 633
f 444 487 636
f 631 630 467
f 632 631 467
f 630 632 467
f 439 467 630
f 467 439 630
f 596 597 474
f 480 596 479
f 480 474 597
f 479 478 480
f 474 479 596
f 577 578 432
f 578 577 432
f 433 432 578
f 432 433 578
f 602 595 472
f 594 602 473
f 595 594 473
f 472 473 602
f 473 472 595
f 603 592 498
f 604 603 498
f 591 604 470
f 592 591 469
f 469 499 592
f 470 469 591
f 471 470 604
f 498 471 604
f 499 498 592
f 590 628 484
f 627 484 628
f 482 627 590
f 484 482 590
f 590 589 437
f 574 593 432
f 597 574 432
f 589 597 438
f 438 437 589
f 468 438 597
f 432 468 597
f 469 432 593
f 437 469 593
f 677 667 548
f 676 677 548
f 679 676 544
f 680 679 552
f 681 680 546
f 673 681 546
f 675 673 540
f 668 675 531
f 669 668 531
f 667 669 531
f 540 531 675
f 546 540 673
f 552 546 680
f 551 552 679
f 543 551 679
f 544 543 679
f 548 544 676
f 531 548 667
f 685 689 686
f 687 689 690
f 688 687 693
f 685 688 691
f 689 685 692
f 687 689 693
f 689 687 693
f 693 690 689
f 692 693 689
f 691 692 685
f 693 691 688
f 690 693 687
f 688 685 695
f 687 688 697
f 689 687 698
f 685 686 701
f 701 694 685
f 700 701 686
f 689 700 686
f 699 700 689
f 698 699 689
f 697 698 687
f 696 697 688
f 695 696 688
f 694 695 685
f 691 693 690
f 690 693 714
f 693 692 714
f 692 691 703
f 725 704 779
f 714 743 710
f 711 743 768
f 712 710 743
f 714 710 711
f 711 768 714
f 711 712 743
f 715 709 718
f 765 723 797
f 730 845 729
f 732 731 705
f 729 705 736
f 729 736 863
f 863 735 729
f 734 863 856
f 856 737 734
f 708 707 738
f 742 709 740
f 745 748 744
f 744 770 745
f 745 770 743
f 746 747 748
f 706 708 739
f 949 722 718
f 753 709 702
f 753 751 709
f 702 691 753
f 733 705 783
f 733 783 754
f 747 708 785
f 748 747 755
f 785 755 747
f 744 748 755
f 704 726 757
f 760 729 734
f 734 759 760
f 729 758 727
f 737 817 818
f 817 737 707
f 769 749 768
f 743 771 768
f 743 770 771
f 691 690 753
f 743 714 692
f 691 702 742
f 742 703 691
f 743 692 703
f 703 742 743
f 774 772 773
f 773 757 774
f 773 704 757
f 704 773 775
f 779 776 777
f 779 775 776
f 777 781 975
f 778 975 781
f 780 851 781
f 783 705 781
f 783 781 782
f 787 782 784
f 787 783 782
f 788 786 787
f 786 756 785
f 770 744 789
f 940 713 792
f 792 793 940
f 792 798 793
f 798 795 1022
f 794 1021 767
f 799 842 886
f 800 1011 799
f 802 800 801
f 804 807 808
f 808 809 804
f 724 807 810
f 839 837 715
f 709 715 811
f 739 709 814
f 739 815 817
f 817 815 816
f 817 706 739
f 818 817 816
f 737 818 819
f 737 820 821
f 821 734 737
f 761 759 822
f 822 727 761
f 759 761 760
f 727 822 823
f 726 824 912
f 824 726 823
f 826 931 774
f 828 690 714
f 720 752 829
f 752 720 719
f 724 720 829
f 763 724 830
f 829 830 724
f 806 763 832
f 831 832 763
f 806 833 834
f 830 831 763
f 832 833 806
f 765 834 835
f 834 765 806
f 767 723 835
f 767 835 1048
f 768 749 836
f 1048 749 767
f 1048 836 749
f 714 836 828
f 714 768 836
f 839 720 838
f 720 724 838
f 838 840 839
f 843 799 764
f 844 887 842
f 797 844 1096
f 1096 764 797
f 835 723 765
f 912 827 726
f 821 759 734
f 819 820 737
f 819 818 816
f 814 815 739
f 813 814 709
f 812 813 709
f 811 812 709
f 810 837 724
f 791 792 713
f 791 713 790
f 789 713 770
f 851 725 781
f 775 779 704
f 751 718 709
f 741 709 739
f 738 785 708
f 856 707 737
f 731 780 781
f 797 764 765
f 767 797 723
f 718 839 715
f 742 702 709
f 707 708 706
f 726 727 823
f 704 725 726
f 732 780 731
f 727 730 729
f 705 845 847
f 847 1087 705
f 1087 846 732
f 732 705 1087
f 780 732 846
f 849 847 845
f 848 849 730
f 1089 848 727
f 730 727 848
f 845 730 849
f 727 726 853
f 853 1089 727
f 726 725 728
f 851 780 846
f 846 854 851
f 726 728 852
f 852 853 726
f 725 851 728
f 728 851 854
f 854 852 728
f 855 852 854
f 738 707 785
f 857 858 785
f 785 707 857
f 787 786 754
f 786 785 860
f 974 860 785
f 859 974 785
f 858 859 785
f 707 856 861
f 861 857 707
f 862 861 856
f 862 856 863
f 734 735 863
f 754 786 860
f 860 869 754
f 866 862 863
f 864 866 863
f 863 736 864
f 705 733 736
f 736 865 864
f 868 865 736
f 869 868 733
f 733 754 869
f 736 733 868
f 745 746 748
f 877 875 746
f 746 745 877
f 742 745 743
f 873 877 745
f 872 873 745
f 874 875 877
f 875 876 747
f 747 746 875
f 747 876 882
f 882 708 747
f 878 872 745
f 745 742 878
f 741 740 709
f 879 882 876
f 881 880 741
f 882 881 739
f 739 708 882
f 741 739 881
f 740 741 880
f 742 740 883
f 883 878 742
f 880 883 740
f 802 805 803
f 799 886 801
f 796 887 844
f 798 888 795
f 804 885 807
f 715 884 811
f 889 744 756
f 889 786 788
f 889 787 784
f 756 786 889
f 888 791 790
f 888 798 792
f 788 787 889
f 888 789 744
f 792 791 888
f 744 889 888
f 790 789 888
f 784 782 889
f 811 819 816
f 811 815 814
f 811 820 819
f 811 759 821
f 816 815 811
f 811 822 759
f 821 820 811
f 824 823 822
f 822 811 824
f 890 811 884
f 891 884 715
f 892 715 837
f 892 837 810
f 896 810 807
f 897 807 885
f 899 885 805
f 900 805 802
f 901 802 801
f 1015 801 886
f 903 886 842
f 905 842 887
f 905 887 796
f 1079 796 795
f 1079 795 888
f 888 906 1079
f 796 1079 905
f 842 905 904
f 842 904 903
f 886 903 902
f 886 902 1015
f 801 1015 901
f 802 901 900
f 805 900 899
f 885 899 898
f 885 898 897
f 807 897 896
f 810 896 895
f 810 895 894
f 810 894 893
f 810 893 892
f 715 892 891
f 884 891 890
f 782 781 889
f 888 889 907
f 907 906 888
f 896 897 1005
f 909 891 892
f 891 910 890
f 909 910 891
f 811 890 911
f 911 824 811
f 825 912 826
f 912 825 827
f 906 972 913
f 907 917 914
f 913 1080 906
f 914 906 907
f 906 915 1079
f 914 972 906
f 907 916 917
f 907 918 919
f 919 916 907
f 920 907 889
f 921 920 781
f 781 777 921
f 889 781 920
f 890 922 996
f 911 924 925
f 890 926 924
f 890 927 922
f 911 988 923
f 924 911 890
f 890 928 927
f 925 988 911
f 996 926 890
f 929 826 912
f 930 912 824
f 824 911 930
f 912 930 929
f 772 774 931
f 921 777 776
f 933 776 775
f 775 939 933
f 776 933 935
f 776 935 932
f 776 932 921
f 775 773 934
f 934 939 775
f 934 773 772
f 938 772 931
f 936 931 826
f 826 929 936
f 931 936 938
f 772 938 934
f 767 750 794
f 767 749 940
f 940 942 767
f 942 750 767
f 794 941 798
f 941 793 798
f 944 943 940
f 943 944 941
f 941 794 943
f 793 941 944
f 940 793 944
f 942 940 943
f 750 942 943
f 794 750 943
f 944 1035 945
f 1040 946 943
f 946 947 943
f 948 1028 943
f 943 944 1037
f 944 943 1028
f 949 718 751
f 722 752 719
f 828 753 690
f 955 950 722
f 951 955 949
f 952 951 751
f 950 952 828
f 752 722 950
f 828 752 950
f 753 828 952
f 751 753 952
f 949 751 951
f 722 949 955
f 1042 953 950
f 697 954 952
f 956 1042 950
f 951 952 954
f 957 803 805
f 763 806 957
f 957 885 804
f 959 958 885
f 1014 959 957
f 964 1014 957
f 958 964 805
f 957 805 964
f 885 957 959
f 805 885 958
f 961 962 1014
f 958 959 963
f 959 1014 962
f 1014 964 960
f 787 754 965
f 783 965 754
f 967 966 783
f 966 967 787
f 787 965 966
f 783 787 967
f 965 783 966
f 969 967 966
f 755 785 970
f 972 971 756
f 973 972 756
f 971 973 744
f 744 755 971
f 756 744 973
f 785 756 971
f 970 785 971
f 755 970 971
f 779 777 975
f 976 977 725
f 979 978 976
f 980 979 779
f 981 980 975
f 977 981 975
f 975 778 977
f 779 975 980
f 725 779 979
f 976 725 979
f 977 976 978
f 977 978 979
f 981 977 982
f 726 827 825
f 825 757 726
f 985 984 726
f 986 985 826
f 1074 986 774
f 985 1074 757
f 984 985 757
f 757 726 984
f 774 757 1074
f 826 774 986
f 825 826 985
f 757 825 985
f 726 757 985
f 937 984 985
f 1074 985 984
f 760 987 729
f 987 758 729
f 758 761 727
f 923 988 761
f 989 923 761
f 988 989 760
f 987 760 989
f 758 987 989
f 761 758 989
f 760 761 988
f 990 991 989
f 991 992 989
f 706 817 707
f 994 993 817
f 996 994 817
f 994 996 818
f 995 994 817
f 993 995 706
f 706 817 993
f 817 706 995
f 818 817 994
f 817 818 996
f 996 993 994
f 763 957 809
f 957 804 809
f 807 997 808
f 807 724 997
f 763 762 724
f 762 997 724
f 809 762 763
f 998 1001 808
f 1000 998 762
f 1001 1000 809
f 809 808 1001
f 762 809 1000
f 763 762 998
f 762 763 998
f 997 762 998
f 808 997 998
f 1001 998 1005
f 999 1001 1006
f 1001 999 1006
f 1000 1001 959
f 998 1000 1008
f 1008 1002 998
f 1009 1008 1000
f 1008 1009 1000
f 959 1008 1000
f 963 959 1001
f 1007 963 1001
f 1006 1007 1001
f 1005 1006 1001
f 1003 1005 998
f 1004 1003 998
f 1003 1004 998
f 1002 1003 998
f 803 957 766
f 957 806 766
f 765 1010 806
f 1010 766 806
f 766 802 803
f 802 1011 800
f 1011 764 799
f 764 1010 765
f 1014 1012 802
f 1013 1014 1010
f 1014 1013 765
f 1012 1014 764
f 1011 802 1012
f 764 1011 1012
f 1010 764 1014
f 765 1010 1014
f 1010 765 1013
f 766 1010 1014
f 802 766 1014
f 1016 1017 1012
f 1013 1019 1014
f 1012 1014 960
f 1013 1014 1018
f 1014 1012 1017
f 795 796 1022
f 844 797 1023
f 797 767 1023
f 794 798 1021
f 1021 1023 767
f 1023 796 844
f 1022 1021 798
f 1024 1026 1021
f 1026 1024 796
f 796 1023 1026
f 1022 796 1024
f 1021 1022 1024
f 1023 1021 1026
f 1025 1026 1024
f 1027 1024 1026
f 1026 1025 1028
f 1027 1026 1032
f 1024 1027 1032
f 1025 1024 1034
f 1035 1028 1025
f 1034 1035 1025
f 1033 1034 1024
f 1032 1033 1024
f 1031 1032 1026
f 1030 1031 1026
f 1029 1030 1026
f 1028 1029 1026
f 713 940 770
f 771 769 768
f 769 940 749
f 1037 1040 749
f 1036 1037 769
f 1037 1036 770
f 1040 1037 769
f 769 749 1040
f 940 769 1037
f 770 940 1037
f 771 770 1036
f 769 771 1036
f 749 769 1037
f 1037 1036 1039
f 1036 1037 1038
f 719 720 1041
f 720 839 1041
f 839 716 721
f 716 718 721
f 722 721 718
f 721 717 839
f 717 1041 839
f 1041 722 719
f 1043 1042 722
f 1044 1043 722
f 1042 1044 1041
f 722 1041 1044
f 721 722 1042
f 717 721 1042
f 1041 717 1042
f 956 1045 1042
f 1046 1047 1042
f 1043 1044 1086
f 828 1049 752
f 1052 1051 830
f 1053 1052 829
f 1054 1053 752
f 1055 1054 828
f 1056 1055 828
f 1057 1056 836
f 1058 1057 836
f 1059 1058 836
f 1060 1059 835
f 1061 1060 835
f 1051 1061 834
f 833 832 1051
f 834 833 1051
f 835 834 1061
f 1048 835 1059
f 836 1048 1059
f 828 836 1056
f 1050 828 1054
f 828 1050 1054
f 1049 828 1054
f 752 1049 1054
f 829 752 1053
f 830 829 1052
f 831 830 1051
f 832 831 1051
f 711 710 712
f 1063 1062 711
f 1066 1063 710
f 1064 1066 711
f 1065 1064 711
f 1062 1065 711
f 712 711 1066
f 711 712 1066
f 710 711 1066
f 711 710 1063
f 837 839 840
f 1068 1067 837
f 1070 1068 838
f 1068 1070 838
f 1069 1068 838
f 1067 1069 838
f 724 837 1067
f 838 724 1067
f 840 838 1068
f 837 840 1068
f 1070 1071 1068
f 1072 892 1068
f 855 1073 1074
f 876 1077 857
f 1036 913 973
f 953 1043 1086
f 909 1042 1047
f 1085 1042 1045
f 909 1086 1044
f 953 1042 1043
f 1085 1046 1042
f 1044 1042 909
f 909 1085 1083
f 979 855 854
f 918 846 850
f 1087 850 846
f 991 849 848
f 1088 852 855
f 853 852 1088
f 849 871 870
f 847 870 865
f 865 868 1087
f 868 916 1087
f 868 869 916
f 1077 858 857
f 1076 857 861
f 1076 861 862
f 1075 1076 862
f 864 849 991
f 867 862 991
f 991 866 864
f 862 866 991
f 1075 862 867
f 1082 880 881
f 1082 1081 880
f 881 995 1082
f 1078 857 879
f 857 882 879
f 881 882 857
f 1078 879 876
f 875 874 876
f 973 876 874
f 874 877 973
f 1090 877 873
f 873 872 1090
f 1081 696 878
f 878 883 1081
f 1081 883 880
f 948 943 947
f 1084 1038 1037
f 1037 944 1084
f 944 1028 1035
f 696 1081 954
f 951 954 1081
f 1081 1085 951
f 954 697 696
f 1085 956 950
f 950 955 1085
f 876 971 974
f 876 973 971
f 989 992 848
f 989 848 1089
f 1075 989 988
f 1075 990 989
f 994 995 1076
f 996 994 1076
f 698 697 952
f 878 696 695
f 695 694 878
f 1068 1069 1003
f 1068 1003 1086
f 1070 1068 1086
f 1072 1068 909
f 909 1068 1071
f 1090 1039 1036
f 1036 1038 1080
f 1040 1037 1039
f 1084 1035 1034
f 1092 1033 1032
f 1032 1031 1091
f 948 1029 1028
f 1032 1091 1092
f 1090 872 1066
f 1066 1064 1090
f 878 701 1063
f 1066 872 878
f 878 1063 1066
f 1064 1039 1090
f 1065 1062 1039
f 1064 1065 1039
f 701 1062 1063
f 1062 701 1039
f 1014 1019 1020
f 1014 1017 1018
f 1093 904 1092
f 1093 1094 904
f 1017 1095 1018
f 1073 979 939
f 1074 1073 939
f 986 936 929
f 934 938 986
f 938 936 986
f 929 985 986
f 986 1074 934
f 985 930 937
f 985 929 930
f 1074 984 1088
f 1089 1088 911
f 1088 937 930
f 930 911 1088
f 1076 1075 925
f 1075 988 925
f 1076 924 926
f 922 927 993
f 995 993 1082
f 993 927 1082
f 993 996 922
f 1082 927 928
f 909 890 910
f 1083 928 890
f 890 909 1083
f 892 1067 1068
f 1069 1067 1003
f 1003 893 894
f 1003 895 896
f 1003 892 893
f 894 895 1003
f 1006 1005 897
f 897 898 1006
f 898 963 1007
f 1007 1006 898
f 899 900 964
f 900 960 964
f 958 963 898
f 898 964 958
f 898 899 964
f 1020 961 1014
f 959 962 1008
f 1012 960 900
f 1012 900 901
f 1012 901 1015
f 1015 1016 1012
f 1015 902 1017
f 902 903 1017
f 1094 903 904
f 905 908 1092
f 905 1079 1034
f 1033 1092 908
f 1034 1033 905
f 1079 1084 1034
f 1084 1079 915
f 1036 1080 913
f 972 914 971
f 869 914 917
f 914 869 860
f 860 971 914
f 1077 974 858
f 974 859 858
f 971 860 974
f 916 919 967
f 918 968 966
f 966 968 1087
f 918 966 967
f 967 969 916
f 969 966 1087
f 919 918 967
f 918 854 846
f 921 979 854
f 921 981 982
f 921 980 981
f 983 980 921
f 979 980 983
f 979 932 935
f 979 921 932
f 935 933 979
f 1008 1051 1052
f 1052 1003 1008
f 953 1086 1053
f 1052 1053 1086
f 952 1053 1054
f 950 953 1053
f 952 950 1053
f 1054 698 952
f 1054 700 698
f 1039 700 1056
f 1055 1056 700
f 1039 1056 1057
f 1054 1055 700
f 1040 1057 1058
f 1058 1059 1040
f 1057 1040 1039
f 1018 1059 1060
f 1059 1018 948
f 1020 1013 1051
f 1013 1061 1051
f 1013 1060 1061
f 1051 1008 1020
f 1052 1086 1003
f 933 939 979
f 918 921 854
f 917 916 869
f 913 972 973
f 915 1080 1084
f 908 905 1033
f 904 905 1092
f 903 1094 1017
f 896 1005 1003
f 928 1083 1081
f 928 1081 1082
f 926 996 1076
f 925 924 1076
f 989 1089 923
f 911 923 1089
f 939 934 1074
f 1037 1040 943
f 694 701 878
f 974 1077 876
f 955 951 1085
f 944 945 1084
f 881 857 995
f 864 871 849
f 870 847 849
f 1060 1013 1018
f 948 1018 1091
f 1040 1059 948
f 945 1035 1084
f 1081 1083 1085
f 701 700 1039
f 1080 1038 1084
f 973 1090 1036
f 1076 995 857
f 857 1078 876
f 1074 1088 855
f 1073 855 979
f 1092 1091 1093
f 1018 1093 1091
f 1018 1095 799
f 1093 1018 764
f 1091 1093 1096
f 1093 1091 1096
f 1094 1093 844
f 1095 1094 842
f 842 841 1095
f 844 842 1094
f 1096 844 1093
f 764 1096 1093
f 843 764 1018
f 799 843 1018
f 841 799 1095
f 1098 1097 1099
f 1097 1100 1099
f 1102 1099 1100
f 1103 1098 1099
f 1104 1108 1099
f 1103 1099 1108
f 1146 1099 1102
f 1099 1146 1104
f 1146 1102 1100
f 1097 1101 1146
f 1100 1097 1146
f 1105 1101 1097
f 1097 1098 1105
f 1108 1105 1098
f 1098 1103 1108
f 1116 1101 1125
f 1125 1106 1116
f 1118 1115 1146
f 1101 1117 1118
f 1108 1122 1109
f 1110 1123 1108
f 1112 1111 1129
f 1111 1105 1129
f 1105 1132 1126
f 1114 1107 1146
f 1126 1101 1116
f 1116 1106 1132
f 1101 1126 1117
f 1114 1113 1107
f 1107 1113 1120
f 1140 1116 1132
f 1120 1121 1107
f 1118 1117 1115
f 1113 1119 1107
f 1120 1113 1107
f 1121 1120 1107
f 1146 1121 1107
f 1146 1107 1119
f 1107 1104 1146
f 1122 1123 1104
f 1104 1107 1122
f 1108 1104 1123
f 1122 1108 1123
f 1123 1124 1110
f 1110 1105 1123
f 1123 1110 1124
f 1144 1137 1132
f 1137 1144 1105
f 1112 1132 1137
f 1111 1112 1137
f 1105 1111 1137
f 1132 1105 1144
f 1116 1137 1132
f 1125 1116 1106
f 1132 1106 1116
f 1126 1132 1137
f 1125 1101 1126
f 1132 1127 1225
f 1132 1128 1127
f 1110 1209 1105
f 1197 1110 1108
f 1108 1109 1197
f 1130 1109 1122
f 1122 1131 1130
f 1107 1193 1131
f 1214 1193 1107
f 1122 1107 1131
f 1197 1209 1110
f 1129 1128 1112
f 1132 1112 1128
f 1107 1134 1133
f 1107 1133 1214
f 1107 1121 1134
f 1121 1235 1134
f 1121 1135 1235
f 1139 1137 1140
f 1126 1137 1144
f 1123 1146 1148
f 1142 1148 1146
f 1148 1143 1123
f 1149 1144 1141
f 1143 1149 1123
f 1149 1141 1123
f 1126 1147 1145
f 1147 1126 1144
f 1126 1145 1150
f 1146 1126 1150
f 1150 1142 1146
f 1114 1146 1119
f 1119 1113 1114
f 1146 1115 1117
f 1146 1117 1118
f 1118 1117 1126
f 1125 1126 1116
f 1140 1137 1116
f 1141 1144 1137
f 1141 1124 1123
f 1123 1124 1136
f 1123 1136 1245
f 1245 1135 1122
f 1122 1123 1245
f 1122 1121 1123
f 1122 1135 1121
f 1123 1121 1146
f 1140 1132 1276
f 1149 1147 1144
f 1149 1143 1148
f 1142 1150 1148
f 1145 1147 1150
f 1149 1148 1151
f 1148 1150 1151
f 1150 1147 1151
f 1147 1149 1151
f 1171 1152 1153
f 1263 1156 1134
f 1155 1154 1156
f 1263 1155 1156
f 1158 1172 1157
f 1157 1159 1161
f 1161 1158 1157
f 1181 1159 1161
f 1159 1160 1161
f 1162 1188 1177
f 1189 1162 1177
f 1154 1165 1166
f 1164 1166 1165
f 1164 1163 1195
f 1188 1195 1163
f 1188 1163 1177
f 1184 1189 1177
f 1180 1184 1177
f 1160 1180 1177
f 1160 1177 1161
f 1159 1181 1161
f 1174 1240 1178
f 1154 1155 1165
f 1164 1167 1248
f 1164 1248 1163
f 1163 1169 1170
f 1177 1170 1173
f 1177 1173 1175
f 1161 1177 1175
f 1161 1175 1174
f 1161 1174 1178
f 1161 1178 1158
f 1157 1176 1171
f 1171 1153 1157
f 1271 1176 1157
f 1271 1157 1172
f 1170 1177 1163
f 1167 1164 1165
f 1171 1176 1271
f 1167 1165 1155
f 1168 1163 1248
f 1169 1163 1168
f 1184 1162 1189
f 1181 1159 1157
f 1156 1154 1166
f 1152 1157 1153
f 1179 1156 1164
f 1182 1164 1195
f 1181 1160 1159
f 1221 1157 1152
f 1192 1189 1184
f 1152 1187 1221
f 1157 1221 1186
f 1157 1186 1205
f 1157 1202 1181
f 1160 1185 1180
f 1164 1182 1218
f 1164 1218 1183
f 1164 1183 1179
f 1166 1164 1156
f 1162 1189 1188
f 1105 1211 1129
f 1130 1131 1193
f 1200 1197 1109
f 1188 1200 1109
f 1192 1188 1189
f 1184 1190 1191
f 1193 1182 1196
f 1185 1184 1180
f 1205 1186 1204
f 1207 1208 1209
f 1206 1160 1208
f 1202 1210 1181
f 1209 1213 1105
f 1193 1214 1215
f 1217 1218 1182
f 1222 1128 1129
f 1223 1224 1128
f 1224 1223 1186
f 1222 1204 1186
f 1226 1187 1227
f 1132 1225 1226
f 1127 1128 1228
f 1230 1221 1187
f 1221 1230 1228
f 1187 1229 1230
f 1209 1206 1207
f 1130 1188 1109
f 1129 1211 1201
f 1245 1247 1135
f 1247 1245 1232
f 1137 1138 1268
f 1238 1139 1140
f 1238 1237 1171
f 1204 1271 1172
f 1242 1241 1167
f 1232 1170 1169
f 1244 1173 1170
f 1232 1236 1170
f 1233 1173 1244
f 1246 1235 1135
f 1135 1247 1249
f 1249 1248 1135
f 1252 1245 1136
f 1252 1136 1251
f 1255 1254 1141
f 1178 1172 1158
f 1124 1258 1136
f 1258 1275 1257
f 1259 1258 1124
f 1174 1175 1260
f 1261 1240 1275
f 1259 1262 1261
f 1124 1262 1259
f 1262 1124 1141
f 1155 1265 1167
f 1167 1265 1266
f 1271 1239 1268
f 1271 1269 1270
f 1138 1270 1269
f 1271 1137 1272
f 1273 1171 1271
f 1273 1187 1272
f 1272 1187 1271
f 1260 1240 1174
f 1250 1274 1169
f 1168 1249 1169
f 1170 1236 1244
f 1241 1248 1167
f 1245 1236 1232
f 1234 1253 1233
f 1231 1243 1275
f 1239 1256 1268
f 1136 1258 1209
f 1209 1197 1136
f 1136 1197 1206
f 1206 1243 1136
f 1275 1243 1206
f 1199 1275 1206
f 1199 1185 1175
f 1260 1175 1185
f 1185 1160 1260
f 1260 1160 1206
f 1206 1275 1260
f 1257 1275 1206
f 1257 1206 1209
f 1209 1258 1257
f 1236 1245 1200
f 1200 1188 1236
f 1170 1236 1188
f 1188 1189 1170
f 1188 1236 1170
f 1170 1189 1188
f 1245 1236 1200
f 1192 1200 1236
f 1236 1244 1192
f 1236 1188 1192
f 1192 1244 1236
f 1109 1188 1232
f 1169 1232 1188
f 1232 1169 1188
f 1188 1236 1232
f 1236 1188 1109
f 1109 1232 1236
f 1200 1245 1252
f 1244 1245 1200
f 1200 1192 1244
f 1244 1192 1184
f 1184 1233 1244
f 1233 1184 1191
f 1191 1234 1233
f 1253 1234 1191
f 1253 1190 1200
f 1200 1252 1253
f 1191 1190 1253
f 1236 1245 1200
f 1236 1200 1192
f 1192 1244 1236
f 1173 1244 1192
f 1244 1192 1200
f 1200 1245 1244
f 1196 1249 1247
f 1247 1193 1196
f 1248 1249 1196
f 1168 1248 1182
f 1182 1195 1168
f 1196 1182 1248
f 1196 1249 1168
f 1195 1196 1168
f 1193 1247 1249
f 1249 1196 1193
f 1246 1135 1193
f 1193 1215 1246
f 1246 1215 1216
f 1182 1248 1216
f 1135 1248 1182
f 1182 1193 1135
f 1130 1194 1250
f 1195 1188 1169
f 1274 1250 1194
f 1169 1274 1195
f 1194 1195 1274
f 1247 1232 1188
f 1188 1232 1169
f 1188 1130 1247
f 1247 1130 1193
f 1249 1247 1193
f 1193 1196 1249
f 1196 1195 1169
f 1169 1249 1196
f 1250 1169 1195
f 1195 1194 1250
f 1194 1130 1250
f 1251 1136 1197
f 1197 1200 1251
f 1175 1251 1200
f 1200 1185 1175
f 1199 1175 1185
f 1275 1206 1198
f 1198 1231 1275
f 1199 1206 1275
f 1243 1231 1198
f 1243 1206 1197
f 1197 1136 1243
f 1198 1206 1243
f 1190 1253 1252
f 1252 1200 1190
f 1253 1190 1184
f 1184 1233 1253
f 1175 1233 1184
f 1184 1185 1175
f 1175 1185 1200
f 1200 1251 1175
f 1200 1252 1251
f 1203 1129 1137
f 1141 1137 1129
f 1201 1255 1141
f 1129 1201 1141
f 1172 1178 1202
f 1255 1201 1202
f 1202 1178 1255
f 1202 1157 1172
f 1256 1172 1157
f 1256 1157 1203
f 1203 1137 1256
f 1201 1211 1141
f 1141 1211 1210
f 1210 1254 1141
f 1210 1202 1178
f 1178 1254 1210
f 1255 1178 1202
f 1202 1201 1255
f 1255 1201 1210
f 1210 1254 1255
f 1141 1254 1210
f 1210 1201 1141
f 1256 1239 1204
f 1239 1268 1203
f 1203 1204 1239
f 1268 1129 1203
f 1204 1203 1256
f 1172 1256 1203
f 1203 1205 1172
f 1204 1172 1205
f 1204 1222 1268
f 1268 1239 1204
f 1222 1129 1268
f 1129 1137 1268
f 1268 1203 1129
f 1203 1157 1256
f 1256 1137 1203
f 1129 1203 1137
f 1157 1172 1256
f 1157 1205 1172
f 1172 1205 1203
f 1203 1256 1172
f 1203 1268 1256
f 1208 1261 1262
f 1262 1209 1208
f 1261 1208 1160
f 1160 1240 1261
f 1160 1181 1240
f 1240 1181 1213
f 1262 1240 1213
f 1213 1209 1262
f 1258 1259 1208
f 1208 1207 1258
f 1260 1275 1206
f 1258 1207 1206
f 1175 1260 1160
f 1206 1275 1258
f 1206 1160 1260
f 1260 1175 1160
f 1160 1240 1260
f 1261 1275 1206
f 1240 1160 1206
f 1258 1261 1208
f 1206 1275 1240
f 1206 1208 1261
f 1208 1207 1258
f 1259 1261 1208
f 1258 1207 1208
f 1208 1261 1258
f 1141 1254 1210
f 1210 1211 1141
f 1178 1240 1212
f 1212 1240 1141
f 1212 1181 1178
f 1181 1254 1178
f 1181 1210 1254
f 1213 1262 1141
f 1141 1105 1213
f 1240 1262 1213
f 1213 1181 1240
f 1141 1240 1212
f 1181 1212 1240
f 1132 1140 1276
f 1226 1238 1140
f 1140 1132 1226
f 1171 1237 1227
f 1238 1226 1227
f 1227 1237 1238
f 1227 1187 1171
f 1152 1171 1187
f 1214 1134 1235
f 1155 1263 1156
f 1156 1263 1134
f 1156 1179 1155
f 1265 1155 1179
f 1179 1183 1265
f 1265 1183 1220
f 1220 1264 1265
f 1235 1264 1220
f 1220 1214 1235
f 1214 1235 1246
f 1246 1215 1214
f 1235 1214 1267
f 1242 1218 1217
f 1217 1241 1242
f 1267 1218 1242
f 1248 1241 1217
f 1217 1182 1248
f 1248 1182 1216
f 1215 1246 1216
f 1214 1220 1264
f 1264 1235 1214
f 1167 1266 1219
f 1183 1219 1266
f 1266 1265 1183
f 1264 1220 1183
f 1183 1265 1264
f 1219 1183 1167
f 1242 1167 1183
f 1183 1218 1242
f 1242 1218 1267
f 1214 1235 1267
f 1270 1138 1128
f 1137 1228 1128
f 1128 1138 1137
f 1128 1224 1270
f 1271 1270 1224
f 1224 1186 1271
f 1186 1221 1271
f 1137 1271 1221
f 1221 1228 1137
f 1138 1128 1222
f 1222 1268 1138
f 1271 1268 1222
f 1222 1186 1271
f 1223 1269 1271
f 1271 1186 1223
f 1269 1223 1128
f 1128 1138 1269
f 1238 1226 1225
f 1225 1139 1238
f 1273 1137 1127
f 1139 1225 1127
f 1127 1137 1139
f 1127 1229 1273
f 1171 1273 1229
f 1229 1187 1171
f 1171 1187 1226
f 1226 1238 1171
f 1137 1127 1228
f 1272 1137 1228
f 1228 1230 1272
f 1187 1272 1230
f 1187 1230 1272
f 1137 1273 1229
f 1272 1230 1229
f 1229 1273 1272
f 1229 1127 1137

