# https://github.com/mikedh/trimesh
v -0.00194648 -0.00804254 0.02837259
v -0.00000356 -0.00504245 0.03902558
v -0.00149801 -0.00504246 0.03893923
v -0.00297469 -0.00504247 0.03869382
v -0.00977147 -0.00504253 0.03497631
v -0.00406465 -0.00504248 0.03839020
v -0.00580764 -0.00504249 0.03773877
v -0.00713151 -0.00504250 0.03704007
v -0.00837322 -0.00504252 0.03620401
v -0.00951856 -0.00504253 0.03524016
v -0.00441673 -0.00504248 0.03829213
v -0.01055444 -0.00504254 0.03415952
v -0.01146901 -0.00504256 0.03297445
v -0.01225183 -0.00504257 0.03169851
v -0.01225189 0.00495743 0.03169844
v -0.01055449 0.00495746 0.03415945
v -0.00951861 0.00495747 0.03524008
v -0.00837327 0.00495748 0.03620394
v -0.00713157 0.00495750 0.03704000
v -0.00580769 0.00495751 0.03773870
v -0.00441679 0.00495752 0.03829206
v -0.00297475 0.00495753 0.03869374
v -0.00149806 0.00495754 0.03893916
v -0.00000362 0.00495755 0.03902551
v -0.01146907 0.00495744 0.03297438
v -0.00199791 0.00795746 0.02845829
v 0.01712371 -0.00804235 0.03955723
v 0.01712361 0.00795766 0.03955711
v 0.01741334 -0.00804234 0.03969571
v 0.01741325 0.00795766 0.03969559
v 0.01771612 -0.00804234 0.03980244
v 0.01771603 0.00795766 0.03980232
v 0.01802857 -0.00804234 0.03987621
v 0.01802848 0.00795766 0.03987609
v 0.01834711 -0.00804234 0.03991616
v 0.01834702 0.00795766 0.03991605
v 0.01866810 -0.00804233 0.03992185
v 0.01888579 -0.00804233 0.03990611
v 0.01898769 -0.00803806 0.03989204
v 0.01898769 0.00795447 0.03989266
v 0.01897110 0.00795583 0.03989544
v 0.01888570 0.00795767 0.03990599
v 0.01918815 0.00793451 0.03985621
v 0.01914283 0.00794169 0.03986662
v 0.01918852 -0.00801847 0.03985576
v 0.01925591 -0.00800997 0.03984211
v 0.01903484 -0.00803608 0.03988553
v 0.01905584 -0.00803520 0.03988263
v 0.01950425 0.00787113 0.03977130
v 0.01932126 0.00791342 0.03982562
v 0.01960899 0.00784131 0.03973448
v 0.01934527 -0.00799126 0.03981744
v 0.01946093 -0.00796705 0.03978552
v 0.01950666 -0.00795525 0.03977073
v 0.01950657 0.00787059 0.03977061
v 0.01961081 0.00784079 0.03973383
v 0.01990233 0.00773446 0.03960439
v 0.01972996 -0.00788652 0.03968653
v 0.01983238 0.00776423 0.03964075
v 0.01990226 -0.00781869 0.03960402
v 0.02005402 0.00766991 0.03952553
v 0.02014251 -0.00770948 0.03946933
v 0.01998002 -0.00778807 0.03956678
v 0.02027448 0.00755814 0.03938590
v 0.02029679 -0.00762941 0.03936863
v 0.02022397 -0.00767008 0.03942047
v 0.02027457 -0.00764280 0.03938601
v 0.02044270 0.00746005 0.03925970
v 0.02044518 0.00745859 0.03925783
v 0.02053764 -0.00748428 0.03918024
v 0.02058823 -0.00744806 0.03913072
v 0.02067509 0.00730460 0.03905180
v 0.02089559 0.00713085 0.03880604
v 0.02072460 -0.00735041 0.03899721
v 0.02077476 -0.00731449 0.03894809
v 0.02088706 0.00713867 0.03881776
v 0.02085330 0.00716510 0.03885504
v 0.02089276 -0.00721497 0.03880372
v 0.02093425 0.00709541 0.03875291
v 0.02107845 0.00696323 0.03855476
v 0.02107853 -0.00704789 0.03855486
v 0.02108410 -0.00704233 0.03854623
v 0.02108402 0.00695767 0.03854613
v 0.02097369 -0.00714672 0.03870471
v 0.02098508 -0.00713711 0.03869077
v 0.01866800 0.00795767 0.03992174
v -0.02187156 0.00795726 0.01567046
v -0.02187147 -0.00804274 0.01567057
v -0.02171466 -0.00804274 0.01595071
v -0.02171475 0.00795726 0.01595059
v -0.02152881 -0.00804274 0.01621248
v -0.02152891 0.00795726 0.01621237
v -0.02131606 -0.00804273 0.01645290
v -0.02131615 0.00795727 0.01645279
v -0.02107883 -0.00804273 0.01666921
v -0.02107892 0.00795727 0.01666909
v -0.02081984 -0.00804273 0.01685892
v -0.02081994 0.00795727 0.01685881
v -0.02180196 -0.00704276 0.01289125
v -0.02188257 0.00705203 0.01304675
v -0.02180700 0.00696280 0.01290014
v -0.02188946 0.00706163 0.01306338
v -0.02180692 -0.00704832 0.01290024
v -0.02193843 0.00712989 0.01318151
v -0.02191333 -0.00718050 0.01312100
v -0.02194186 -0.00721594 0.01318020
v -0.02196503 -0.00725019 0.01324063
v -0.02194815 -0.00722376 0.01319325
v -0.02200983 0.00722940 0.01335376
v -0.02212694 -0.00754368 0.01379071
v -0.02210224 0.00739920 0.01367247
v -0.02208253 0.00736298 0.01360448
v -0.02205412 -0.00738968 0.01349071
v -0.02215905 -0.00764323 0.01400169
v -0.02215434 0.00754432 0.01397377
v -0.02216557 0.00758499 0.01406245
v -0.02215914 0.00755771 0.01400158
v -0.02212741 -0.00754513 0.01379379
v -0.02217010 0.00762440 0.01415733
v -0.02217782 -0.00775499 0.01426197
v -0.02216702 -0.00769069 0.01411221
v -0.02217517 0.00773361 0.01443272
v -0.02217913 0.00770299 0.01434659
v -0.02215177 -0.00792587 0.01475100
v -0.02217557 -0.00781955 0.01443292
v -0.02216638 0.00780144 0.01462356
v -0.02217453 -0.00784931 0.01451174
v -0.02215147 -0.00792639 0.01475291
v -0.02209981 0.00790619 0.01502442
v -0.02212638 0.00788197 0.01490741
v -0.02213497 0.00787017 0.01486012
v -0.02213439 -0.00795621 0.01486261
v -0.02209572 -0.00799849 0.01504953
v -0.02213488 -0.00795567 0.01486023
v -0.02209064 -0.00800147 0.01506809
v -0.02199644 0.00795298 0.01537476
v -0.02205971 -0.00801958 0.01518128
v -0.02204746 -0.00802676 0.01522614
v -0.02201242 -0.00803564 0.01532967
v -0.02207928 0.00792490 0.01511482
v -0.02201300 0.00795101 0.01533014
v -0.02202037 0.00795013 0.01531027
v -0.02196064 0.00795726 0.01547120
v -0.02199703 -0.00803954 0.01537514
v -0.02199164 -0.00804091 0.01539108
v -0.02196055 -0.00804274 0.01547131
v -0.02180204 0.00695724 0.01289115
v 0.02229861 0.00695766 0.03643819
v 0.02229869 -0.00704234 0.03643830
v 0.02339518 0.00695765 0.03398454
v 0.02339527 -0.00704235 0.03398464
v 0.02426355 0.00695764 0.03122782
v 0.02422203 0.00695764 0.03142734
v 0.02422211 -0.00704236 0.03142744
v 0.02476959 0.00695762 0.02879616
v 0.02476967 -0.00704238 0.02879626
v 0.02426363 -0.00704236 0.03122792
v 0.02503162 -0.00704240 0.02612151
v 0.02503154 0.00695760 0.02612141
v 0.02498693 0.00695758 0.02328221
v 0.02500485 0.00695758 0.02343399
v 0.02500493 -0.00704242 0.02343410
v 0.02468983 0.00695756 0.02076497
v 0.02468991 -0.00704244 0.02076507
v 0.02498701 -0.00704242 0.02328231
v 0.02405130 0.00695754 0.01803283
v 0.02409011 0.00695754 0.01814519
v 0.02409020 -0.00704246 0.01814529
v 0.02316923 0.00695752 0.01551274
v 0.02321264 0.00695752 0.01560492
v 0.02321272 -0.00704248 0.01560502
v 0.02405138 -0.00704246 0.01803293
v 0.02202334 0.00695749 0.01310104
v 0.02206755 0.00695749 0.01317352
v 0.02206763 -0.00704251 0.01317363
v 0.02316931 -0.00704248 0.01551284
v 0.02066808 0.00695747 0.01087910
v 0.02066816 -0.00704253 0.01087920
v 0.02202342 -0.00704251 0.01310114
v 0.01903048 -0.00704256 0.00874826
v 0.01903039 0.00695744 0.00874816
v 0.01714746 0.00695742 0.00678344
v 0.01717342 0.00695742 0.00680533
v 0.01717350 -0.00704258 0.00680543
v 0.01510454 0.00695739 0.00506359
v 0.01511862 0.00695739 0.00507307
v 0.01511871 -0.00704260 0.00507317
v 0.01714754 -0.00704258 0.00678355
v 0.01510462 -0.00704260 0.00506369
v 0.01288983 -0.00704263 0.00357150
v 0.01288975 0.00695737 0.00357140
v 0.01052765 -0.00704265 0.00232569
v 0.00804607 0.00695733 0.00133888
v 0.01051255 0.00695735 0.00231766
v 0.01051263 -0.00704265 0.00231776
v 0.01052757 0.00695735 0.00232558
v 0.00801451 0.00695733 0.00132636
v 0.00801459 -0.00704267 0.00132646
v 0.00804615 -0.00704267 0.00133898
v 0.00542448 0.00695731 0.00060893
v 0.00542456 -0.00704269 0.00060903
v 0.00017372 0.00695727 0.00003032
v 0.00277241 0.00695729 0.00017369
v 0.00277249 -0.00704271 0.00017379
v 0.00008903 -0.00704273 0.00002575
v -0.00249308 -0.00704274 0.00016128
v -0.00249316 0.00695726 0.00016118
v 0.00017380 -0.00704273 0.00003042
v 0.00008894 0.00695727 0.00002565
v -0.00259491 0.00695726 0.00016652
v -0.00259483 -0.00704274 0.00016662
v -0.00513070 -0.00704275 0.00057585
v -0.00524813 0.00695725 0.00059468
v -0.00524805 -0.00704275 0.00059478
v -0.00513078 0.00695725 0.00057574
v -0.01019853 0.00695723 0.00223382
v -0.00784006 0.00695724 0.00130519
v -0.00783998 -0.00704276 0.00130529
v -0.01034075 0.00695723 0.00228982
v -0.01034066 -0.00704277 0.00228992
v -0.01019845 -0.00704277 0.00223392
v -0.01272120 -0.00704278 0.00353730
v -0.01272128 0.00695722 0.00353720
v -0.01685741 0.00695722 0.00662874
v -0.01495416 0.00695722 0.00503292
v -0.01495408 -0.00704278 0.00503302
v -0.01701350 -0.00704278 0.00675979
v -0.01685733 -0.00704278 0.00662884
v -0.01701358 0.00695722 0.00675969
v -0.01887573 0.00695723 0.00869754
v -0.01887565 -0.00704277 0.00869765
v -0.02051910 0.00695723 0.01082410
v -0.02051902 -0.00704277 0.01082420
v -0.01978215 0.00795176 0.01133278
v -0.02033349 0.00795724 0.01243087
v -0.02113740 0.00795177 0.01354141
v -0.02104549 0.00795725 0.01359121
v -0.01819764 0.00795176 0.00928239
v -0.01969612 0.00795724 0.01139216
v -0.01867892 0.00795724 0.01007588
v -0.01640219 0.00795175 0.00741394
v -0.01723658 0.00795723 0.00843290
v -0.01658665 0.00795723 0.00775654
v -0.01811848 0.00795723 0.00935066
v -0.01633082 0.00795723 0.00749032
v -0.01478382 0.00795723 0.00619320
v -0.01441654 0.00795175 0.00574903
v -0.01226364 0.00795175 0.00430688
v -0.01354639 0.00795723 0.00529178
v -0.01229366 0.00795723 0.00445263
v -0.01435378 0.00795723 0.00583262
v -0.01221021 0.00795723 0.00439673
v -0.00992490 0.00795724 0.00319924
v -0.00755725 0.00795177 0.00215482
v -0.00996837 0.00795176 0.00310418
v -0.00752424 0.00795724 0.00225400
v -0.00503599 0.00795725 0.00157191
v -0.00505817 0.00795177 0.00146976
v -0.00248890 0.00795727 0.00116088
v 0.00008774 0.00795180 0.00092111
v -0.00249998 0.00795179 0.00105694
v -0.00151443 0.00795727 0.00110973
v 0.00267509 0.00795182 0.00106385
v 0.00136162 0.00795729 0.00109592
v 0.00008760 0.00795728 0.00102564
v 0.00523217 0.00795183 0.00148350
v 0.00266373 0.00795729 0.00116776
v 0.00772942 0.00795185 0.00217523
v 0.00640643 0.00795732 0.00191707
v 0.00520972 0.00795731 0.00158559
v 0.01013799 0.00795187 0.00313103
v 0.00769614 0.00795733 0.00227432
v 0.01243004 0.00795190 0.00433986
v 0.01009427 0.00795735 0.00322597
v 0.01457908 0.00795192 0.00578774
v 0.01237638 0.00795737 0.00442956
v 0.01656027 0.00795194 0.00745796
v 0.01451610 0.00795740 0.00587117
v 0.01835073 0.00795197 0.00933119
v 0.01815515 0.00795744 0.00927763
v 0.01648870 0.00795742 0.00753414
v 0.01827140 0.00795744 0.00939925
v 0.01984357 0.00795747 0.01144495
v 0.02127910 0.00795201 0.01359805
v 0.01992976 0.00795199 0.01138580
v 0.02118707 0.00795749 0.01364760
v 0.02238318 0.00795204 0.01594235
v 0.02228635 0.00795751 0.01598174
v 0.02312873 0.00795754 0.01842040
v 0.02322922 0.00795206 0.01839163
v 0.02370445 0.00795756 0.02093539
v 0.02380745 0.00795208 0.02091758
v 0.02411119 0.00795210 0.02349100
v 0.02400687 0.00795758 0.02349765
v 0.02403249 0.00795760 0.02607757
v 0.02413692 0.00795212 0.02608215
v 0.02402270 0.00795760 0.02617753
v 0.02387574 0.00795761 0.02767817
v 0.02388435 0.00795214 0.02866110
v 0.02335641 0.00795215 0.03119803
v 0.02366668 0.00795762 0.02919477
v 0.02378102 0.00795761 0.02864533
v 0.02314177 0.00795763 0.03152258
v 0.02285318 0.00795764 0.03241510
v 0.02255918 0.00795217 0.03366363
v 0.02325536 0.00795763 0.03117126
v 0.02208763 0.00795765 0.03446294
v 0.02150188 0.00795218 0.03602940
v 0.02246159 0.00795764 0.03362617
v 0.02019674 0.00795219 0.03826801
v 0.02079508 0.00795766 0.03703449
v 0.02140888 0.00795765 0.03598168
v -0.02122829 0.00793539 0.01349215
v -0.01986723 0.00793539 0.01127405
v -0.01827593 0.00793538 0.00921487
v -0.01647277 0.00793538 0.00733841
v -0.01447861 0.00793538 0.00566635
v -0.01231647 0.00793538 0.00421802
v -0.01001136 0.00793538 0.00301016
v -0.00758991 0.00793539 0.00205673
v -0.00508010 0.00793540 0.00136873
v -0.00251094 0.00793541 0.00095414
v 0.00008788 0.00793543 0.00081772
v 0.00268633 0.00793544 0.00096108
v 0.00525437 0.00793546 0.00138253
v 0.00776233 0.00793548 0.00207723
v 0.01018123 0.00793550 0.00303712
v 0.01248311 0.00793552 0.00425114
v 0.01464137 0.00793554 0.00570523
v 0.01663106 0.00793557 0.00738261
v 0.01842920 0.00793559 0.00926388
v 0.02001500 0.00793562 0.01132730
v 0.02137013 0.00793564 0.01354903
v 0.02247894 0.00793566 0.01590340
v 0.02332861 0.00793569 0.01836318
v 0.02390932 0.00793571 0.02089996
v 0.02421436 0.00793573 0.02348441
v 0.02424020 0.00793575 0.02608668
v 0.02398656 0.00793576 0.02867669
v 0.02345634 0.00793578 0.03122450
v 0.02265570 0.00793579 0.03370068
v 0.02159387 0.00793580 0.03607660
v -0.02131718 0.00790830 0.01344398
v -0.01995044 0.00790829 0.01121662
v -0.01835249 0.00790829 0.00914883
v -0.01654180 0.00790828 0.00726454
v -0.01453931 0.00790828 0.00558550
v -0.01236814 0.00790829 0.00413112
v -0.01005340 0.00790829 0.00291821
v -0.00762184 0.00790830 0.00196080
v -0.00510155 0.00790831 0.00126993
v -0.00252166 0.00790832 0.00085360
v 0.00008802 0.00790833 0.00071662
v 0.00269731 0.00790835 0.00086057
v 0.00527608 0.00790837 0.00128379
v 0.00779452 0.00790839 0.00198138
v 0.01022352 0.00790841 0.00294529
v 0.01253501 0.00790843 0.00416437
v 0.01470229 0.00790845 0.00562454
v 0.01670029 0.00790848 0.00730892
v 0.01850594 0.00790850 0.00919805
v 0.02009836 0.00790852 0.01127009
v 0.02145915 0.00790855 0.01350110
v 0.02257259 0.00790857 0.01586530
v 0.02342581 0.00790859 0.01833535
v 0.02400895 0.00790862 0.02088273
v 0.02431526 0.00790864 0.02347798
v 0.02434121 0.00790866 0.02609112
v 0.02408650 0.00790867 0.02869194
v 0.02355408 0.00790869 0.03125039
v 0.02275009 0.00790870 0.03373691
v 0.02168382 0.00790871 0.03612275
v 0.02028313 0.00793581 0.03832480
v -0.02140310 0.00787079 0.01339743
v -0.02003086 0.00787078 0.01116111
v -0.01842649 0.00787078 0.00908501
v -0.01660852 0.00787077 0.00719314
v -0.01459798 0.00787077 0.00550735
v -0.01241809 0.00787077 0.00404713
v -0.01009404 0.00787078 0.00282934
v -0.00765270 0.00787079 0.00186808
v -0.00512228 0.00787080 0.00117443
v -0.00253202 0.00787081 0.00075643
v 0.00008815 0.00787082 0.00061890
v 0.00270794 0.00787084 0.00076343
v 0.00529707 0.00787086 0.00118835
v 0.00782563 0.00787088 0.00188874
v 0.01026440 0.00787090 0.00285653
v 0.01258518 0.00787092 0.00408051
v 0.01476116 0.00787094 0.00554655
v 0.01676720 0.00787097 0.00723770
v 0.01858011 0.00787099 0.00913443
v 0.02017893 0.00787101 0.01121480
v 0.02154519 0.00787104 0.01345477
v 0.02266311 0.00787106 0.01582847
v 0.02351976 0.00787108 0.01830846
v 0.02410523 0.00787111 0.02086607
v 0.02441278 0.00787113 0.02347176
v 0.02443884 0.00787115 0.02609540
v 0.02418311 0.00787116 0.02870668
v 0.02364854 0.00787118 0.03127542
v 0.02284132 0.00787119 0.03377193
v 0.02177077 0.00787120 0.03616736
v 0.02036761 0.00790872 0.03838035
v -0.02148510 0.00782327 0.01335299
v -0.02010761 0.00782326 0.01110813
v -0.01849711 0.00782326 0.00902410
v -0.01667220 0.00782325 0.00712500
v -0.01465397 0.00782325 0.00543277
v -0.01246575 0.00782325 0.00396696
v -0.01013282 0.00782326 0.00274453
v -0.00768215 0.00782327 0.00177959
v -0.00514206 0.00782327 0.00108329
v -0.00254190 0.00782329 0.00066369
v 0.00008827 0.00782330 0.00052564
v 0.00271807 0.00782332 0.00067072
v 0.00531710 0.00782334 0.00109726
v 0.00785532 0.00782335 0.00180034
v 0.01030341 0.00782338 0.00277182
v 0.01263306 0.00782340 0.00400048
v 0.01481736 0.00782342 0.00547212
v 0.01683106 0.00782345 0.00716973
v 0.01865089 0.00782347 0.00907370
v 0.02025583 0.00782349 0.01116202
v 0.02162731 0.00782352 0.01341056
v 0.02274950 0.00782354 0.01579333
v 0.02360942 0.00782356 0.01828279
v 0.02419714 0.00782359 0.02085018
v 0.02450586 0.00782361 0.02346582
v 0.02453201 0.00782363 0.02609949
v 0.02427530 0.00782364 0.02872075
v 0.02373869 0.00782366 0.03129930
v 0.02292839 0.00782367 0.03380535
v 0.02185375 0.00782368 0.03620994
v 0.02044926 0.00787121 0.03843403
v -0.02156228 0.00776626 0.01331117
v -0.02017986 0.00776625 0.01105826
v -0.01856359 0.00776625 0.00896677
v -0.01673214 0.00776624 0.00706086
v -0.01470668 0.00776624 0.00536256
v -0.01251061 0.00776624 0.00389151
v -0.01016933 0.00776625 0.00266469
v -0.00770988 0.00776626 0.00169630
v -0.00516069 0.00776627 0.00099751
v -0.00255121 0.00776628 0.00057640
v 0.00008839 0.00776629 0.00043785
v 0.00272761 0.00776631 0.00058345
v 0.00533595 0.00776633 0.00101152
v 0.00788327 0.00776635 0.00171712
v 0.01034013 0.00776637 0.00269208
v 0.01267813 0.00776639 0.00392514
v 0.01487025 0.00776641 0.00540206
v 0.01689117 0.00776644 0.00710576
v 0.01871752 0.00776646 0.00901655
v 0.02032820 0.00776649 0.01111235
v 0.02170460 0.00776651 0.01336894
v 0.02283081 0.00776653 0.01576025
v 0.02369381 0.00776656 0.01825863
v 0.02428364 0.00776658 0.02083522
v 0.02459346 0.00776660 0.02346023
v 0.02461971 0.00776662 0.02610334
v 0.02436208 0.00776664 0.02873399
v 0.02382355 0.00776665 0.03132178
v 0.02301034 0.00776666 0.03383681
v 0.02193185 0.00776668 0.03625001
v 0.02052719 0.00782369 0.03848527
v -0.02163380 0.00770039 0.01327241
v -0.02024681 0.00770038 0.01101205
v -0.01862518 0.00770037 0.00891364
v -0.01678768 0.00770037 0.00700142
v -0.01475552 0.00770037 0.00529751
v -0.01255219 0.00770037 0.00382159
v -0.01020316 0.00770038 0.00259072
v -0.00773557 0.00770038 0.00161911
v -0.00517794 0.00770039 0.00091802
v -0.00255984 0.00770040 0.00049552
v 0.00008850 0.00770042 0.00035651
v 0.00273645 0.00770044 0.00050259
v 0.00535342 0.00770045 0.00093208
v 0.00790917 0.00770047 0.00164000
v 0.01037415 0.00770049 0.00261819
v 0.01271989 0.00770052 0.00385533
v 0.01491926 0.00770054 0.00533713
v 0.01694687 0.00770056 0.00704647
v 0.01877926 0.00770059 0.00896358
v 0.02039527 0.00770061 0.01106632
v 0.02177623 0.00770064 0.01333038
v 0.02290616 0.00770066 0.01572960
v 0.02377202 0.00770068 0.01823624
v 0.02436379 0.00770071 0.02082135
v 0.02467464 0.00770073 0.02345505
v 0.02470098 0.00770075 0.02610690
v 0.02444250 0.00770076 0.02874625
v 0.02390219 0.00770078 0.03134261
v 0.02308629 0.00770079 0.03386596
v 0.02200423 0.00770080 0.03628715
v 0.02060054 0.00776668 0.03853350
v -0.02169887 0.00762637 0.01323715
v -0.02030772 0.00762636 0.01097001
v -0.01868123 0.00762636 0.00886530
v -0.01683821 0.00762635 0.00694735
v -0.01479995 0.00762635 0.00523832
v -0.01259001 0.00762636 0.00375797
v -0.01023394 0.00762636 0.00252341
v -0.00775894 0.00762637 0.00154889
v -0.00519364 0.00762638 0.00084569
v -0.00256768 0.00762639 0.00042192
v 0.00008860 0.00762640 0.00028249
v 0.00274450 0.00762642 0.00042901
v 0.00536932 0.00762644 0.00085979
v 0.00793273 0.00762646 0.00156984
v 0.01040511 0.00762648 0.00255096
v 0.01275788 0.00762650 0.00379182
v 0.01496386 0.00762653 0.00527807
v 0.01699755 0.00762655 0.00699253
v 0.01883544 0.00762657 0.00891539
v 0.02045630 0.00762660 0.01102444
v 0.02184140 0.00762662 0.01329529
v 0.02297472 0.00762665 0.01570171
v 0.02384317 0.00762667 0.01821587
v 0.02443672 0.00762669 0.02080874
v 0.02474851 0.00762671 0.02345034
v 0.02477492 0.00762673 0.02611015
v 0.02451567 0.00762675 0.02875742
v 0.02397373 0.00762677 0.03136156
v 0.02315538 0.00762678 0.03389248
v 0.02207008 0.00762679 0.03632093
v 0.02066851 0.00770081 0.03857819
v -0.02175679 0.00754503 0.01320577
v -0.02036193 0.00754502 0.01093259
v -0.01873111 0.00754501 0.00882228
v -0.01688318 0.00754501 0.00689922
v -0.01483950 0.00754501 0.00518565
v -0.01262368 0.00754501 0.00370135
v -0.01026133 0.00754502 0.00246350
v -0.00777975 0.00754502 0.00148639
v -0.00520762 0.00754503 0.00078131
v -0.00257466 0.00754504 0.00035642
v 0.00008869 0.00754506 0.00021662
v 0.00275166 0.00754507 0.00036353
v 0.00538347 0.00754509 0.00079546
v 0.00795370 0.00754511 0.00150740
v 0.01043266 0.00754513 0.00249113
v 0.01279170 0.00754516 0.00373529
v 0.01500355 0.00754518 0.00522549
v 0.01704265 0.00754520 0.00694452
v 0.01888544 0.00754523 0.00887250
v 0.02051061 0.00754525 0.01098716
v 0.02189939 0.00754528 0.01326406
v 0.02303574 0.00754530 0.01567688
v 0.02390650 0.00754533 0.01819775
v 0.02450163 0.00754535 0.02079752
v 0.02481425 0.00754537 0.02344615
v 0.02484073 0.00754539 0.02611304
v 0.02458079 0.00754541 0.02876735
v 0.02403741 0.00754542 0.03137843
v 0.02321688 0.00754543 0.03391609
v 0.02212869 0.00754545 0.03635101
v 0.02073036 0.00762680 0.03861885
v -0.02180691 0.00745724 0.01317861
v -0.02040884 0.00745723 0.01090021
v -0.01877428 0.00745723 0.00878504
v -0.01692211 0.00745722 0.00685757
v -0.01487373 0.00745722 0.00514006
v -0.01265281 0.00745722 0.00365235
v -0.01028503 0.00745723 0.00241166
v -0.00779775 0.00745724 0.00143230
v -0.00521971 0.00745725 0.00072560
v -0.00258071 0.00745726 0.00029974
v 0.00008876 0.00745727 0.00015961
v 0.00275785 0.00745729 0.00030686
v 0.00539571 0.00745731 0.00073978
v 0.00797185 0.00745733 0.00145336
v 0.01045651 0.00745735 0.00243935
v 0.01282097 0.00745737 0.00368637
v 0.01503790 0.00745740 0.00518000
v 0.01708169 0.00745742 0.00690297
v 0.01892871 0.00745744 0.00883539
v 0.02055762 0.00745747 0.01095491
v 0.02194959 0.00745749 0.01323703
v 0.02308854 0.00745752 0.01565540
v 0.02396131 0.00745754 0.01818206
v 0.02455781 0.00745756 0.02078780
v 0.02487114 0.00745758 0.02344252
v 0.02489769 0.00745760 0.02611553
v 0.02463714 0.00745762 0.02877595
v 0.02409252 0.00745764 0.03139303
v 0.02327010 0.00745765 0.03393652
v 0.02217941 0.00745766 0.03637703
v 0.02078540 0.00754546 0.03865504
v -0.02184869 0.00736398 0.01315597
v -0.02044795 0.00736397 0.01087321
v -0.01881026 0.00736396 0.00875401
v -0.01695455 0.00736396 0.00682285
v -0.01490226 0.00736396 0.00510205
v -0.01267710 0.00736396 0.00361151
v -0.01030480 0.00736397 0.00236844
v -0.00781276 0.00736397 0.00138721
v -0.00522979 0.00736398 0.00067917
v -0.00258575 0.00736399 0.00025248
v 0.00008883 0.00736401 0.00011210
v 0.00276302 0.00736403 0.00025962
v 0.00540591 0.00736404 0.00069337
v 0.00798698 0.00736406 0.00140831
v 0.01047639 0.00736409 0.00239619
v 0.01284536 0.00736411 0.00364559
v 0.01506653 0.00736413 0.00514207
v 0.01711422 0.00736416 0.00686834
v 0.01896477 0.00736418 0.00880445
v 0.02059680 0.00736421 0.01092802
v 0.02199143 0.00736423 0.01321451
v 0.02313256 0.00736425 0.01563750
v 0.02400700 0.00736428 0.01816898
v 0.02460463 0.00736430 0.02077970
v 0.02491856 0.00736432 0.02343950
v 0.02494516 0.00736434 0.02611762
v 0.02468412 0.00736436 0.02878312
v 0.02413845 0.00736437 0.03140520
v 0.02331447 0.00736439 0.03395355
v 0.02222169 0.00736440 0.03639873
v 0.02083303 0.00745767 0.03868636
v -0.02188167 0.00726626 0.01313810
v -0.02047882 0.00726625 0.01085190
v -0.01883867 0.00726624 0.00872951
v -0.01698016 0.00726624 0.00679544
v -0.01492478 0.00726624 0.00507206
v -0.01269627 0.00726624 0.00357927
v -0.01032039 0.00726625 0.00233433
v -0.00782461 0.00726625 0.00135162
v -0.00523775 0.00726626 0.00064251
v -0.00258972 0.00726627 0.00021518
v 0.00008888 0.00726629 0.00007459
v 0.00276709 0.00726631 0.00022234
v 0.00541397 0.00726632 0.00065673
v 0.00799892 0.00726634 0.00137275
v 0.01049208 0.00726637 0.00236212
v 0.01286462 0.00726639 0.00361340
v 0.01508913 0.00726641 0.00511213
v 0.01713991 0.00726644 0.00684100
v 0.01899324 0.00726646 0.00878002
v 0.02062773 0.00726649 0.01090679
v 0.02202446 0.00726651 0.01319672
v 0.02316731 0.00726653 0.01562336
v 0.02404306 0.00726656 0.01815866
v 0.02464160 0.00726658 0.02077331
v 0.02495600 0.00726660 0.02343711
v 0.02498264 0.00726662 0.02611926
v 0.02472120 0.00726664 0.02878878
v 0.02417472 0.00726665 0.03141481
v 0.02334949 0.00726667 0.03396699
v 0.02225506 0.00726668 0.03641585
v 0.02087274 0.00736441 0.03871246
v -0.02190549 0.00716515 0.01312519
v -0.02050112 0.00716514 0.01083651
v -0.01885918 0.00716514 0.00871182
v -0.01699866 0.00716513 0.00677565
v -0.01494104 0.00716513 0.00505039
v -0.01271011 0.00716514 0.00355598
v -0.01033166 0.00716514 0.00230969
v -0.00783316 0.00716515 0.00132592
v -0.00524350 0.00716516 0.00061604
v -0.00259259 0.00716517 0.00018825
v 0.00008891 0.00716518 0.00004750
v 0.00277004 0.00716520 0.00019541
v 0.00541979 0.00716522 0.00063027
v 0.00800755 0.00716524 0.00134707
v 0.01050341 0.00716526 0.00233751
v 0.01287853 0.00716528 0.00359015
v 0.01510546 0.00716531 0.00509051
v 0.01715846 0.00716533 0.00682126
v 0.01901381 0.00716536 0.00876239
v 0.02065006 0.00716538 0.01089146
v 0.02204831 0.00716541 0.01318388
v 0.02319240 0.00716543 0.01561315
v 0.02406910 0.00716545 0.01815120
v 0.02466829 0.00716547 0.02076870
v 0.02498304 0.00716550 0.02343538
v 0.02500970 0.00716552 0.02612045
v 0.02474798 0.00716553 0.02879286
v 0.02420090 0.00716555 0.03142174
v 0.02337478 0.00716556 0.03397670
v 0.02227917 0.00716557 0.03642822
v 0.02090409 0.00726669 0.03873307
v -0.02051459 0.00706176 0.01082721
v -0.01887158 0.00706175 0.00870112
v -0.01700984 0.00706175 0.00676369
v -0.01495087 0.00706175 0.00503730
v -0.01271848 0.00706175 0.00354191
v -0.01033847 0.00706176 0.00229480
v -0.00783833 0.00706176 0.00131038
v -0.00524697 0.00706177 0.00060003
v -0.00259433 0.00706179 0.00017197
v 0.00008894 0.00706180 0.00003112
v 0.00277182 0.00706182 0.00017913
v 0.00542331 0.00706184 0.00061428
v 0.00801276 0.00706186 0.00133155
v 0.01051026 0.00706188 0.00232264
v 0.01288694 0.00706190 0.00357610
v 0.01511532 0.00706192 0.00507745
v 0.01716967 0.00706195 0.00680933
v 0.01902624 0.00706197 0.00875172
v 0.02066356 0.00706200 0.01088220
v 0.02206273 0.00706202 0.01317612
v 0.02320757 0.00706205 0.01560698
v 0.02408485 0.00706207 0.01814670
v 0.02468443 0.00706209 0.02076590
v 0.02499938 0.00706211 0.02343434
v 0.02502606 0.00706213 0.02612117
v 0.02476417 0.00706215 0.02879534
v 0.02421673 0.00706217 0.03142594
v 0.02339007 0.00706218 0.03398257
v 0.02229374 0.00706219 0.03643569
v -0.02128528 0.00795725 0.01408380
v 0.01978877 0.00795766 0.03865481
v 0.02010940 0.00795766 0.03821058
v 0.02092672 0.00716558 0.03874796
v -0.01887150 -0.00714730 0.00870122
v -0.02051451 -0.00714730 0.01082732
v -0.01700976 -0.00714731 0.00676379
v -0.01495079 -0.00714731 0.00503740
v -0.01271840 -0.00714731 0.00354201
v -0.01033839 -0.00714730 0.00229490
v -0.00783825 -0.00714729 0.00131049
v -0.00524689 -0.00714728 0.00060014
v -0.00259425 -0.00714727 0.00017207
v 0.00008902 -0.00714726 0.00003122
v 0.00277190 -0.00714724 0.00017923
v 0.00542339 -0.00714722 0.00061438
v 0.00801284 -0.00714720 0.00133165
v 0.01051034 -0.00714718 0.00232274
v 0.01288702 -0.00714716 0.00357620
v 0.01511541 -0.00714713 0.00507755
v 0.01716975 -0.00714711 0.00680943
v 0.01902632 -0.00714708 0.00875183
v 0.02066365 -0.00714706 0.01088230
v 0.02206281 -0.00714704 0.01317622
v 0.02320765 -0.00714701 0.01560709
v 0.02408493 -0.00714699 0.01814680
v 0.02468451 -0.00714697 0.02076601
v 0.02499946 -0.00714694 0.02343444
v 0.02502614 -0.00714692 0.02612127
v 0.02476425 -0.00714691 0.02879544
v 0.02421681 -0.00714689 0.03142604
v 0.02339015 -0.00714688 0.03398267
v 0.02229382 -0.00714687 0.03643580
v -0.02050104 -0.00725068 0.01083662
v -0.01885910 -0.00725069 0.00871192
v -0.01699857 -0.00725069 0.00677575
v -0.01494096 -0.00725069 0.00505050
v -0.01271003 -0.00725069 0.00355609
v -0.01033158 -0.00725068 0.00230979
v -0.00783308 -0.00725068 0.00132602
v -0.00524341 -0.00725067 0.00061614
v -0.00259251 -0.00725065 0.00018835
v 0.00008900 -0.00725064 0.00004760
v 0.00277012 -0.00725062 0.00019551
v 0.00541987 -0.00725060 0.00063038
v 0.00800763 -0.00725058 0.00134717
v 0.01050349 -0.00725056 0.00233761
v 0.01287861 -0.00725054 0.00359025
v 0.01510554 -0.00725052 0.00509062
v 0.01715854 -0.00725049 0.00682136
v 0.01901389 -0.00725047 0.00876249
v 0.02065015 -0.00725044 0.01089157
v 0.02204840 -0.00725042 0.01318399
v 0.02319249 -0.00725039 0.01561326
v 0.02406919 -0.00725037 0.01815131
v 0.02466837 -0.00725035 0.02076880
v 0.02498312 -0.00725033 0.02343549
v 0.02500979 -0.00725031 0.02612055
v 0.02474807 -0.00725029 0.02879297
v 0.02420099 -0.00725027 0.03142185
v 0.02337486 -0.00725026 0.03397681
v -0.02188158 -0.00735178 0.01313820
v -0.02190540 -0.00725067 0.01312530
v -0.02047874 -0.00735179 0.01085201
v -0.01883859 -0.00735179 0.00872961
v -0.01698008 -0.00735179 0.00679555
v -0.01492469 -0.00735180 0.00507216
v -0.01269619 -0.00735179 0.00357937
v -0.01032031 -0.00735179 0.00233443
v -0.00782452 -0.00735178 0.00135173
v -0.00523767 -0.00735177 0.00064261
v -0.00258964 -0.00735176 0.00021529
v 0.00008896 -0.00735174 0.00007469
v 0.00276718 -0.00735173 0.00022244
v 0.00541405 -0.00735171 0.00065684
v 0.00799901 -0.00735169 0.00137286
v 0.01049216 -0.00735167 0.00236222
v 0.01286470 -0.00735165 0.00361350
v 0.01508922 -0.00735162 0.00511224
v 0.01713999 -0.00735160 0.00684111
v 0.01899333 -0.00735157 0.00878013
v 0.02062781 -0.00735155 0.01090690
v 0.02202454 -0.00735152 0.01319683
v 0.02316739 -0.00735150 0.01562347
v 0.02404314 -0.00735148 0.01815876
v 0.02464168 -0.00735145 0.02077342
v 0.02495608 -0.00735143 0.02343721
v 0.02498272 -0.00735141 0.02611937
v 0.02472129 -0.00735140 0.02878888
v 0.02417480 -0.00735138 0.03141491
v 0.02334957 -0.00735137 0.03396710
v 0.02227925 -0.00725025 0.03642832
v 0.02225515 -0.00735135 0.03641596
v 0.02092681 -0.00725024 0.03874806
v -0.02184860 -0.00744950 0.01315608
v -0.02044787 -0.00744951 0.01087332
v -0.01881018 -0.00744951 0.00875411
v -0.01695447 -0.00744951 0.00682296
v -0.01490217 -0.00744952 0.00510216
v -0.01267701 -0.00744951 0.00361162
v -0.01030471 -0.00744951 0.00236855
v -0.00781268 -0.00744950 0.00138732
v -0.00522971 -0.00744949 0.00067927
v -0.00258566 -0.00744948 0.00025259
v 0.00008891 -0.00744946 0.00011220
v 0.00276310 -0.00744945 0.00025973
v 0.00540600 -0.00744943 0.00069347
v 0.00798707 -0.00744941 0.00140842
v 0.01047647 -0.00744939 0.00239629
v 0.01284545 -0.00744937 0.00364569
v 0.01506662 -0.00744934 0.00514218
v 0.01711431 -0.00744932 0.00686845
v 0.01896486 -0.00744929 0.00880455
v 0.02059688 -0.00744927 0.01092812
v 0.02199152 -0.00744924 0.01321461
v 0.02313265 -0.00744922 0.01563760
v 0.02400708 -0.00744920 0.01816909
v 0.02460472 -0.00744917 0.02077981
v 0.02491865 -0.00744915 0.02343960
v 0.02494525 -0.00744913 0.02611772
v 0.02468421 -0.00744912 0.02878323
v 0.02413854 -0.00744910 0.03140531
v 0.02331455 -0.00744909 0.03395366
v 0.02222177 -0.00744908 0.03639883
v 0.02090417 -0.00735135 0.03873318
v -0.02180682 -0.00754276 0.01317872
v -0.02040876 -0.00754277 0.01090031
v -0.01877419 -0.00754277 0.00878515
v -0.01692202 -0.00754278 0.00685768
v -0.01487364 -0.00754278 0.00514016
v -0.01265273 -0.00754278 0.00365246
v -0.01028495 -0.00754277 0.00241176
v -0.00779767 -0.00754276 0.00143241
v -0.00521963 -0.00754275 0.00072571
v -0.00258062 -0.00754274 0.00029984
v 0.00008885 -0.00754273 0.00015972
v 0.00275794 -0.00754271 0.00030697
v 0.00539580 -0.00754269 0.00073989
v 0.00797194 -0.00754267 0.00145346
v 0.01045660 -0.00754265 0.00243946
v 0.01282105 -0.00754263 0.00368648
v 0.01503799 -0.00754260 0.00518010
v 0.01708177 -0.00754258 0.00690308
v 0.01892879 -0.00754256 0.00883549
v 0.02055770 -0.00754253 0.01095501
v 0.02194968 -0.00754251 0.01323714
v 0.02308863 -0.00754248 0.01565551
v 0.02396140 -0.00754246 0.01818217
v 0.02455789 -0.00754244 0.02078791
v 0.02487123 -0.00754242 0.02344263
v 0.02489777 -0.00754240 0.02611564
v 0.02463723 -0.00754238 0.02877606
v 0.02409260 -0.00754236 0.03139314
v 0.02327019 -0.00754235 0.03393663
v 0.02217949 -0.00754234 0.03637714
v 0.02087283 -0.00744907 0.03871257
v -0.02175670 -0.00763054 0.01320588
v -0.02036184 -0.00763055 0.01093270
v -0.01873102 -0.00763056 0.00882239
v -0.01688310 -0.00763056 0.00689933
v -0.01483941 -0.00763056 0.00518575
v -0.01262359 -0.00763056 0.00370146
v -0.01026124 -0.00763056 0.00246361
v -0.00777966 -0.00763055 0.00148650
v -0.00520753 -0.00763054 0.00078142
v -0.00257458 -0.00763053 0.00035653
v 0.00008877 -0.00763051 0.00021673
v 0.00275174 -0.00763050 0.00036364
v 0.00538355 -0.00763048 0.00079556
v 0.00795379 -0.00763046 0.00150751
v 0.01043275 -0.00763044 0.00249124
v 0.01279179 -0.00763041 0.00373540
v 0.01500364 -0.00763039 0.00522560
v 0.01704274 -0.00763037 0.00694463
v 0.01888552 -0.00763034 0.00887261
v 0.02051070 -0.00763032 0.01098727
v 0.02189948 -0.00763029 0.01326417
v 0.02303582 -0.00763027 0.01567699
v 0.02390659 -0.00763025 0.01819786
v 0.02450172 -0.00763022 0.02079762
v 0.02481434 -0.00763020 0.02344626
v 0.02484082 -0.00763018 0.02611314
v 0.02458087 -0.00763016 0.02876746
v 0.02403750 -0.00763015 0.03137854
v 0.02321697 -0.00763014 0.03391620
v 0.02212877 -0.00763012 0.03635112
v 0.02083312 -0.00754233 0.03868647
v -0.02169878 -0.00771189 0.01323726
v -0.02030763 -0.00771190 0.01097012
v -0.01868114 -0.00771190 0.00886541
v -0.01683812 -0.00771191 0.00694746
v -0.01479986 -0.00771191 0.00523843
v -0.01258993 -0.00771190 0.00375808
v -0.01023385 -0.00771190 0.00252352
v -0.00775886 -0.00771189 0.00154900
v -0.00519356 -0.00771188 0.00084580
v -0.00256759 -0.00771187 0.00042203
v 0.00008869 -0.00771186 0.00028261
v 0.00274458 -0.00771184 0.00042913
v 0.00536941 -0.00771182 0.00085990
v 0.00793282 -0.00771180 0.00156995
v 0.01040520 -0.00771178 0.00255108
v 0.01275797 -0.00771176 0.00379193
v 0.01496395 -0.00771173 0.00527818
v 0.01699763 -0.00771171 0.00699264
v 0.01883553 -0.00771169 0.00891550
v 0.02045639 -0.00771166 0.01102455
v 0.02184148 -0.00771164 0.01329540
v 0.02297481 -0.00771161 0.01570182
v 0.02384326 -0.00771159 0.01821598
v 0.02443681 -0.00771157 0.02080885
v 0.02474860 -0.00771155 0.02345045
v 0.02477501 -0.00771153 0.02611026
v 0.02451576 -0.00771151 0.02875753
v 0.02397382 -0.00771149 0.03136167
v 0.02315547 -0.00771148 0.03389259
v 0.02207017 -0.00771147 0.03632105
v 0.02078549 -0.00763012 0.03865515
v -0.02163371 -0.00778590 0.01327253
v -0.02024672 -0.00778591 0.01101216
v -0.01862509 -0.00778592 0.00891375
v -0.01678759 -0.00778592 0.00700154
v -0.01475543 -0.00778592 0.00529762
v -0.01255210 -0.00778592 0.00382170
v -0.01020307 -0.00778591 0.00259083
v -0.00773548 -0.00778591 0.00161923
v -0.00517785 -0.00778590 0.00091813
v -0.00255975 -0.00778589 0.00049563
v 0.00008859 -0.00778587 0.00035662
v 0.00273654 -0.00778586 0.00050270
v 0.00535351 -0.00778584 0.00093219
v 0.00790926 -0.00778582 0.00164012
v 0.01037424 -0.00778580 0.00261830
v 0.01271998 -0.00778577 0.00385545
v 0.01491935 -0.00778575 0.00533725
v 0.01694696 -0.00778573 0.00704658
v 0.01877935 -0.00778570 0.00896369
v 0.02039536 -0.00778568 0.01106643
v 0.02177632 -0.00778565 0.01333049
v 0.02290625 -0.00778563 0.01572971
v 0.02377211 -0.00778561 0.01823636
v 0.02436388 -0.00778558 0.02082147
v 0.02467473 -0.00778556 0.02345517
v 0.02470107 -0.00778554 0.02610701
v 0.02444259 -0.00778553 0.02874637
v 0.02390228 -0.00778551 0.03134272
v 0.02308637 -0.00778550 0.03386607
v 0.02200431 -0.00778549 0.03628726
v 0.02073045 -0.00771146 0.03861896
v -0.02156219 -0.00785177 0.01331128
v -0.02017977 -0.00785178 0.01105837
v -0.01856350 -0.00785179 0.00896688
v -0.01673205 -0.00785179 0.00706097
v -0.01470659 -0.00785179 0.00536268
v -0.01251052 -0.00785179 0.00389162
v -0.01016924 -0.00785178 0.00266481
v -0.00770979 -0.00785178 0.00169641
v -0.00516060 -0.00785177 0.00099762
v -0.00255112 -0.00785176 0.00057652
v 0.00008848 -0.00785174 0.00043797
v 0.00272770 -0.00785173 0.00058357
v 0.00533604 -0.00785171 0.00101164
v 0.00788336 -0.00785169 0.00171723
v 0.01034022 -0.00785167 0.00269219
v 0.01267822 -0.00785164 0.00392525
v 0.01487034 -0.00785162 0.00540217
v 0.01689126 -0.00785160 0.00710587
v 0.01871761 -0.00785157 0.00901666
v 0.02032829 -0.00785155 0.01111246
v 0.02170469 -0.00785152 0.01336905
v 0.02283090 -0.00785150 0.01576036
v 0.02369390 -0.00785148 0.01825874
v 0.02428373 -0.00785145 0.02083533
v 0.02459355 -0.00785143 0.02346034
v 0.02461980 -0.00785141 0.02610345
v 0.02436217 -0.00785140 0.02873410
v 0.02382364 -0.00785138 0.03132189
v 0.02301043 -0.00785137 0.03383692
v 0.02193194 -0.00785136 0.03625012
v 0.02066860 -0.00778548 0.03857830
v -0.02148501 -0.00790878 0.01335311
v -0.02010752 -0.00790879 0.01110824
v -0.01849702 -0.00790880 0.00902421
v -0.01667211 -0.00790880 0.00712511
v -0.01465388 -0.00790880 0.00543288
v -0.01246566 -0.00790880 0.00396708
v -0.01013273 -0.00790879 0.00274464
v -0.00768206 -0.00790879 0.00177970
v -0.00514197 -0.00790878 0.00108341
v -0.00254181 -0.00790877 0.00066381
v 0.00008836 -0.00790875 0.00052575
v 0.00271816 -0.00790873 0.00067083
v 0.00531719 -0.00790872 0.00109737
v 0.00785541 -0.00790870 0.00180045
v 0.01030350 -0.00790868 0.00277193
v 0.01263315 -0.00790865 0.00400059
v 0.01481745 -0.00790863 0.00547223
v 0.01683115 -0.00790861 0.00716985
v 0.01865098 -0.00790858 0.00907382
v 0.02025592 -0.00790856 0.01116214
v 0.02162740 -0.00790853 0.01341067
v 0.02274959 -0.00790851 0.01579344
v 0.02360951 -0.00790849 0.01828291
v 0.02419723 -0.00790847 0.02085029
v 0.02450595 -0.00790844 0.02346593
v 0.02453210 -0.00790843 0.02609960
v 0.02427539 -0.00790841 0.02872086
v 0.02373878 -0.00790839 0.03129941
v 0.02292848 -0.00790838 0.03380546
v 0.02185384 -0.00790837 0.03621005
v 0.02060063 -0.00785135 0.03853361
v -0.02140301 -0.00795630 0.01339754
v -0.02003077 -0.00795631 0.01116122
v -0.01842639 -0.00795632 0.00908513
v -0.01660843 -0.00795632 0.00719325
v -0.01459788 -0.00795632 0.00550746
v -0.01241799 -0.00795632 0.00404724
v -0.01009395 -0.00795631 0.00282946
v -0.00765261 -0.00795631 0.00186819
v -0.00512219 -0.00795630 0.00117455
v -0.00253193 -0.00795628 0.00075655
v 0.00008824 -0.00795627 0.00061901
v 0.00270803 -0.00795625 0.00076354
v 0.00529716 -0.00795624 0.00118846
v 0.00782572 -0.00795622 0.00188886
v 0.01026449 -0.00795620 0.00285664
v 0.01258527 -0.00795617 0.00408063
v 0.01476126 -0.00795615 0.00554667
v 0.01676729 -0.00795613 0.00723782
v 0.01858020 -0.00795610 0.00913454
v 0.02017902 -0.00795608 0.01121491
v 0.02154529 -0.00795605 0.01345489
v 0.02266320 -0.00795603 0.01582859
v 0.02351985 -0.00795601 0.01830857
v 0.02410533 -0.00795599 0.02086619
v 0.02441287 -0.00795596 0.02347187
v 0.02443893 -0.00795595 0.02609551
v 0.02418320 -0.00795593 0.02870679
v 0.02364863 -0.00795591 0.03127553
v 0.02284141 -0.00795590 0.03377204
v 0.02177086 -0.00795589 0.03616748
v 0.02052728 -0.00790836 0.03848538
v -0.02131709 -0.00799381 0.01344410
v -0.01995035 -0.00799382 0.01121673
v -0.01835240 -0.00799382 0.00914895
v -0.01654171 -0.00799383 0.00726465
v -0.01453922 -0.00799383 0.00558561
v -0.01236805 -0.00799383 0.00413123
v -0.01005331 -0.00799382 0.00291833
v -0.00762175 -0.00799381 0.00196091
v -0.00510146 -0.00799381 0.00127004
v -0.00252157 -0.00799379 0.00085372
v 0.00008811 -0.00799378 0.00071673
v 0.00269741 -0.00799376 0.00086068
v 0.00527618 -0.00799375 0.00128390
v 0.00779461 -0.00799373 0.00198150
v 0.01022361 -0.00799370 0.00294540
v 0.01253511 -0.00799368 0.00416449
v 0.01470238 -0.00799366 0.00562466
v 0.01670038 -0.00799364 0.00730904
v 0.01850603 -0.00799361 0.00919817
v 0.02009845 -0.00799359 0.01127021
v 0.02145925 -0.00799356 0.01350122
v 0.02257268 -0.00799354 0.01586541
v 0.02342590 -0.00799352 0.01833547
v 0.02400904 -0.00799350 0.02088284
v 0.02431535 -0.00799348 0.02347809
v 0.02434130 -0.00799346 0.02609123
v 0.02408659 -0.00799344 0.02869205
v 0.02355417 -0.00799342 0.03125051
v 0.02275018 -0.00799341 0.03373702
v 0.02168391 -0.00799340 0.03612287
v 0.02044935 -0.00795588 0.03843415
v -0.02122820 -0.00802090 0.01349227
v -0.01986714 -0.00802091 0.01127417
v -0.01827583 -0.00802092 0.00921498
v -0.01647268 -0.00802092 0.00733852
v -0.01447851 -0.00802092 0.00566647
v -0.01231638 -0.00802092 0.00421814
v -0.01001127 -0.00802091 0.00301028
v -0.00758982 -0.00802091 0.00205684
v -0.00508001 -0.00802090 0.00136885
v -0.00251085 -0.00802088 0.00095425
v 0.00008797 -0.00802087 0.00081784
v 0.00268642 -0.00802085 0.00096119
v 0.00525446 -0.00802084 0.00138265
v 0.00776243 -0.00802082 0.00207734
v 0.01018132 -0.00802080 0.00303724
v 0.01248320 -0.00802077 0.00425125
v 0.01464146 -0.00802075 0.00570535
v 0.01663115 -0.00802073 0.00738273
v 0.01842929 -0.00802070 0.00926399
v 0.02001509 -0.00802068 0.01132742
v 0.02137022 -0.00802066 0.01354915
v 0.02247903 -0.00802063 0.01590351
v 0.02332870 -0.00802061 0.01836329
v 0.02390941 -0.00802059 0.02090007
v 0.02421445 -0.00802057 0.02348453
v 0.02424030 -0.00802055 0.02608680
v 0.02398665 -0.00802053 0.02867681
v 0.02345644 -0.00802052 0.03122462
v 0.02265579 -0.00802050 0.03370079
v 0.02159396 -0.00802049 0.03607671
v 0.02036770 -0.00799339 0.03838046
v -0.02113730 -0.00803728 0.01354152
v -0.01978205 -0.00803728 0.01133289
v -0.01819755 -0.00803729 0.00928251
v -0.01640209 -0.00803729 0.00741406
v -0.01441644 -0.00803729 0.00574914
v -0.01226354 -0.00803729 0.00430700
v -0.00996828 -0.00803729 0.00310430
v -0.00755716 -0.00803728 0.00215493
v -0.00505807 -0.00803727 0.00146988
v -0.00249989 -0.00803726 0.00105705
v 0.00008784 -0.00803724 0.00092122
v 0.00267518 -0.00803723 0.00106396
v 0.00523226 -0.00803721 0.00148362
v 0.00772951 -0.00803719 0.00217534
v 0.01013808 -0.00803717 0.00313114
v 0.01243013 -0.00803715 0.00433997
v 0.01457917 -0.00803713 0.00578786
v 0.01656037 -0.00803710 0.00745807
v 0.01835082 -0.00803708 0.00933131
v 0.01992985 -0.00803705 0.01138592
v 0.02127920 -0.00803703 0.01359816
v 0.02238327 -0.00803701 0.01594247
v 0.02322931 -0.00803698 0.01839175
v 0.02380754 -0.00803696 0.02091769
v 0.02411128 -0.00803694 0.02349111
v 0.02413701 -0.00803692 0.02608227
v 0.02388445 -0.00803691 0.02866121
v 0.02335650 -0.00803689 0.03119815
v 0.02255927 -0.00803688 0.03366374
v 0.02150198 -0.00803687 0.03602952
v 0.02028322 -0.00802048 0.03832492
v -0.02033340 -0.00804276 0.01243098
v -0.01969603 -0.00804276 0.01139227
v -0.01867883 -0.00804276 0.01007599
v -0.01811839 -0.00804277 0.00935078
v -0.01658655 -0.00804277 0.00775666
v -0.01723649 -0.00804277 0.00843301
v -0.01633072 -0.00804277 0.00749043
v -0.01478373 -0.00804277 0.00619331
v -0.01435369 -0.00804277 0.00583273
v -0.01229357 -0.00804277 0.00445274
v -0.01354630 -0.00804277 0.00529190
v -0.01221012 -0.00804277 0.00439685
v -0.00752415 -0.00804276 0.00225411
v -0.00503590 -0.00804275 0.00157203
v 0.00008770 -0.00804272 0.00102575
v -0.00151433 -0.00804273 0.00110984
v 0.00136171 -0.00804271 0.00109604
v 0.00266383 -0.00804271 0.00116787
v 0.00520981 -0.00804269 0.00158571
v 0.00640652 -0.00804268 0.00191719
v 0.00769624 -0.00804267 0.00227444
v 0.01009436 -0.00804265 0.00322609
v 0.01237647 -0.00804263 0.00442968
v 0.01451619 -0.00804260 0.00587128
v 0.01648879 -0.00804258 0.00753425
v 0.01815524 -0.00804256 0.00927774
v 0.01827149 -0.00804256 0.00939937
v 0.02118716 -0.00804251 0.01364772
v 0.02228645 -0.00804249 0.01598186
v 0.02312882 -0.00804246 0.01842051
v 0.02400696 -0.00804242 0.02349777
v 0.02387583 -0.00804239 0.02767828
v 0.02378111 -0.00804239 0.02864545
v 0.02402279 -0.00804240 0.02617765
v 0.02325546 -0.00804237 0.03117138
v 0.02366677 -0.00804238 0.02919488
v 0.02285328 -0.00804236 0.03241521
v 0.02246168 -0.00804236 0.03362629
v 0.02314186 -0.00804237 0.03152269
v 0.02140898 -0.00804235 0.03598180
v 0.02208772 -0.00804235 0.03446306
v 0.02019683 -0.00803686 0.03826812
v 0.02010949 -0.00804234 0.03821070
v 0.02079517 -0.00804234 0.03703461
v -0.02128519 -0.00804275 0.01408392
v -0.02104540 -0.00804275 0.01359132
v 0.01978886 -0.00804234 0.03865493
v 0.02403258 -0.00804240 0.02607769
v 0.02370454 -0.00804244 0.02093551
v 0.01984367 -0.00804253 0.01144507
v -0.00248880 -0.00804274 0.00116099
v -0.00992481 -0.00804276 0.00319936
f 103 100 101
f 658 626 627
f 7 27 29
f 8 97 1
f 1 27 8
f 8 27 7
f 95 10 93
f 93 10 5
f 5 12 93
f 10 17 5
f 12 5 16
f 16 5 17
f 312 311 310
f 745 151 149
f 383 414 382
f 382 414 413
f 414 444 413
f 476 444 445
f 445 444 414
f 216 219 689
f 380 348 349
f 379 348 380
f 351 383 382
f 352 383 351
f 25 90 15
f 529 117 498
f 123 467 498
f 535 565 534
f 110 115 111
f 117 115 110
f 26 98 19
f 19 28 26
f 20 28 19
f 10 95 9
f 9 95 97
f 97 8 9
f 94 17 96
f 94 16 17
f 773 805 803
f 30 28 20
f 7 29 11
f 11 29 31
f 31 6 11
f 21 11 6
f 32 30 21
f 21 30 20
f 22 21 6
f 32 21 22
f 228 226 720
f 853 885 884
f 802 773 803
f 378 379 409
f 348 379 378
f 440 409 441
f 441 471 440
f 502 534 533
f 533 501 502
f 501 471 502
f 534 502 503
f 503 502 471
f 236 713 237
f 238 241 315
f 436 467 123
f 686 224 229
f 229 230 686
f 626 625 595
f 596 627 595
f 595 627 626
f 499 498 467
f 529 498 499
f 353 383 352
f 443 413 444
f 217 216 690
f 690 216 689
f 209 207 693
f 662 693 692
f 692 693 207
f 221 218 723
f 219 223 688
f 689 219 688
f 658 689 688
f 688 223 225
f 319 349 348
f 441 409 410
f 409 379 410
f 410 379 380
f 262 265 260
f 260 261 262
f 323 261 260
f 265 264 260
f 258 261 322
f 352 351 322
f 322 261 323
f 322 353 352
f 323 353 322
f 116 498 117
f 560 529 561
f 560 591 111
f 111 115 560
f 560 117 529
f 560 115 117
f 653 104 109
f 109 112 622
f 622 653 109
f 622 112 111
f 111 591 622
f 623 653 622
f 230 232 684
f 684 101 100
f 147 101 684
f 684 232 147
f 109 104 108
f 774 776 808
f 854 823 855
f 855 885 854
f 854 853 823
f 885 853 854
f 886 885 855
f 948 979 978
f 855 823 824
f 13 14 89
f 143 713 236
f 145 146 143
f 96 17 18
f 18 98 96
f 18 19 98
f 16 94 92
f 25 16 92
f 92 90 25
f 83 148 712
f 712 80 83
f 527 590 558
f 59 60 63
f 803 805 836
f 744 151 745
f 745 773 744
f 804 773 745
f 805 773 804
f 24 36 23
f 4 22 6
f 4 6 31
f 32 22 34
f 34 22 23
f 23 36 34
f 312 310 308
f 310 342 308
f 372 342 404
f 715 310 311
f 1159 1122 1199
f 1199 1122 1123
f 1030 1062 1061
f 1000 1030 999
f 999 969 1000
f 721 222 220
f 721 750 720
f 721 226 222
f 720 226 721
f 780 813 812
f 812 811 780
f 720 750 749
f 218 214 724
f 723 218 724
f 214 212 724
f 209 693 202
f 194 193 697
f 203 693 694
f 203 202 693
f 977 1008 1007
f 884 885 915
f 978 979 1010
f 913 912 882
f 1199 1123 1160
f 1160 1123 1124
f 876 877 908
f 938 908 939
f 938 969 937
f 938 939 970
f 970 969 938
f 830 862 861
f 799 769 770
f 862 830 831
f 831 830 799
f 738 168 164
f 743 744 773
f 154 151 743
f 151 744 743
f 742 743 772
f 773 802 772
f 772 743 773
f 317 348 347
f 348 378 347
f 472 471 441
f 472 503 471
f 504 535 534
f 534 503 504
f 317 241 247
f 247 248 317
f 258 256 257
f 253 256 255
f 255 248 253
f 253 248 252
f 349 319 320
f 320 319 255
f 235 239 236
f 236 237 235
f 315 344 314
f 406 374 375
f 375 407 406
f 405 374 406
f 406 436 405
f 405 131 374
f 225 224 687
f 224 686 687
f 658 688 687
f 687 688 225
f 533 534 564
f 534 565 564
f 564 565 596
f 596 595 564
f 561 529 530
f 529 499 530
f 530 562 561
f 563 564 595
f 531 500 501
f 531 563 562
f 562 530 531
f 531 499 500
f 531 530 499
f 561 562 592
f 592 560 561
f 591 560 592
f 592 622 591
f 623 622 592
f 345 344 315
f 345 375 344
f 406 407 438
f 377 347 378
f 377 378 409
f 415 445 414
f 324 353 323
f 474 443 444
f 382 413 412
f 413 443 412
f 628 598 629
f 658 627 628
f 630 598 599
f 629 598 630
f 662 661 630
f 660 628 629
f 629 630 660
f 660 630 661
f 599 569 600
f 600 569 570
f 600 630 599
f 694 693 664
f 691 661 662
f 662 692 691
f 691 213 217
f 217 690 691
f 690 660 691
f 691 660 661
f 210 692 207
f 318 248 255
f 255 319 318
f 318 319 348
f 318 348 317
f 317 248 318
f 123 498 119
f 498 116 119
f 102 653 100
f 104 653 102
f 100 108 102
f 102 108 104
f 105 100 103
f 776 774 775
f 775 105 103
f 718 233 231
f 103 99 718
f 99 233 718
f 411 410 380
f 380 412 411
f 441 410 411
f 411 442 441
f 443 442 411
f 411 412 443
f 947 948 978
f 978 977 947
f 947 977 946
f 946 915 947
f 885 886 917
f 948 947 917
f 168 738 172
f 791 761 762
f 791 824 823
f 732 733 762
f 762 761 732
f 732 189 187
f 1151 1119 1153
f 1118 1119 1149
f 1149 1117 1118
f 1118 1117 1087
f 1118 1087 1088
f 1088 1119 1118
f 145 1117 1193
f 1088 1087 1056
f 123 119 120
f 120 119 116
f 869 110 838
f 1025 994 995
f 900 869 901
f 91 12 13
f 13 89 91
f 93 12 91
f 138 142 140
f 374 131 130
f 113 775 774
f 113 112 109
f 111 112 113
f 113 110 111
f 72 69 70
f 72 652 69
f 67 70 65
f 65 69 67
f 70 69 65
f 621 652 620
f 590 69 621
f 69 652 621
f 80 79 85
f 85 804 745
f 867 836 899
f 899 836 868
f 899 70 67
f 899 868 70
f 1017 986 987
f 987 986 955
f 373 342 310
f 373 404 342
f 310 715 41
f 1156 1122 1158
f 1093 1123 1092
f 1124 1123 1093
f 1092 1061 1093
f 1093 1061 1062
f 1031 1030 1000
f 1031 1062 1030
f 937 969 968
f 969 999 968
f 998 1030 1029
f 998 999 1030
f 1029 997 998
f 876 875 844
f 875 906 874
f 750 721 722
f 722 751 750
f 722 721 220
f 723 751 722
f 220 221 722
f 722 221 723
f 750 751 781
f 781 780 750
f 813 780 781
f 779 780 811
f 811 778 779
f 779 778 749
f 750 780 779
f 779 749 750
f 723 724 752
f 752 751 723
f 782 781 752
f 752 781 751
f 189 732 190
f 184 733 188
f 188 732 187
f 733 732 188
f 183 182 700
f 270 266 267
f 697 191 196
f 196 194 697
f 728 201 198
f 728 204 201
f 727 204 728
f 730 199 195
f 195 192 730
f 192 190 730
f 820 819 787
f 726 206 205
f 205 208 726
f 726 208 204
f 726 204 727
f 1165 1164 1128
f 1125 1160 1124
f 1124 1093 1125
f 1093 1094 1125
f 970 939 940
f 940 971 970
f 876 908 907
f 908 938 907
f 907 875 876
f 907 906 875
f 907 938 937
f 937 906 907
f 762 793 792
f 792 793 824
f 792 791 762
f 824 791 792
f 794 764 795
f 795 764 765
f 736 179 175
f 736 764 735
f 765 764 736
f 736 735 178
f 178 179 736
f 920 889 890
f 890 858 859
f 890 889 858
f 1048 1016 1017
f 1178 1196 1141
f 1176 1138 1139
f 1107 1108 1139
f 1139 1138 1107
f 1106 1075 1107
f 1107 1138 1106
f 740 165 162
f 740 770 769
f 768 769 799
f 800 770 801
f 799 770 800
f 800 831 799
f 832 831 800
f 742 770 741
f 770 740 741
f 741 162 158
f 741 740 162
f 771 802 801
f 771 772 802
f 742 772 771
f 801 770 771
f 771 770 742
f 441 442 473
f 473 472 441
f 503 472 473
f 473 504 503
f 473 442 443
f 443 474 473
f 251 247 241
f 248 247 251
f 262 261 259
f 259 261 258
f 258 257 259
f 321 320 258
f 351 320 321
f 258 322 321
f 321 322 351
f 254 256 258
f 258 320 254
f 255 256 254
f 254 320 255
f 236 239 234
f 234 314 236
f 239 238 234
f 234 238 315
f 315 314 234
f 343 314 344
f 343 375 374
f 344 375 343
f 374 130 343
f 240 238 239
f 240 244 238
f 241 238 242
f 238 244 242
f 131 405 126
f 124 131 126
f 126 405 436
f 656 655 625
f 686 655 656
f 656 687 686
f 625 655 624
f 624 655 623
f 623 592 624
f 230 684 685
f 684 655 685
f 685 686 230
f 685 655 686
f 623 655 654
f 654 655 684
f 654 653 623
f 100 653 654
f 654 684 100
f 657 626 658
f 658 687 657
f 687 656 657
f 657 625 626
f 657 656 625
f 532 531 501
f 563 531 532
f 532 501 533
f 533 564 532
f 564 563 532
f 500 499 469
f 501 500 469
f 406 438 437
f 437 436 406
f 467 436 437
f 376 377 407
f 345 377 376
f 407 375 376
f 375 345 376
f 316 241 317
f 315 241 316
f 316 345 315
f 407 377 408
f 408 377 409
f 383 353 384
f 414 383 384
f 384 415 414
f 263 264 267
f 263 260 264
f 267 266 263
f 323 260 263
f 263 324 323
f 266 325 263
f 263 325 324
f 475 474 444
f 475 444 476
f 476 507 475
f 506 537 536
f 474 475 506
f 506 507 537
f 506 475 507
f 382 412 381
f 381 412 380
f 536 537 568
f 568 567 536
f 568 569 599
f 599 598 568
f 598 567 568
f 598 628 597
f 596 565 597
f 597 627 596
f 597 628 627
f 628 660 659
f 659 689 658
f 658 628 659
f 659 690 689
f 659 660 690
f 537 507 538
f 538 568 537
f 569 568 538
f 570 569 538
f 538 507 508
f 631 632 662
f 662 630 631
f 630 600 631
f 601 600 570
f 601 602 632
f 570 602 601
f 632 631 601
f 601 631 600
f 632 664 663
f 663 664 693
f 662 632 663
f 663 693 662
f 632 602 633
f 633 664 632
f 571 602 570
f 570 540 571
f 476 445 477
f 477 507 476
f 508 507 477
f 692 210 215
f 213 691 215
f 215 691 692
f 106 108 100
f 100 105 106
f 106 775 108
f 105 775 106
f 776 775 746
f 746 775 103
f 103 718 746
f 885 917 916
f 916 917 947
f 916 915 885
f 916 947 915
f 677 678 707
f 1149 1119 1150
f 1119 1151 1150
f 1148 1117 1149
f 1148 1193 1117
f 1192 146 145
f 145 1193 1192
f 1121 1122 1156
f 1121 1090 1122
f 1122 1090 1091
f 1092 1123 1091
f 1091 1123 1122
f 1028 997 1029
f 1028 1059 1027
f 1027 997 1028
f 231 227 719
f 227 228 719
f 719 228 720
f 900 901 931
f 931 120 900
f 1024 994 1025
f 1024 993 994
f 124 993 1024
f 110 869 118
f 117 110 118
f 114 869 900
f 114 118 869
f 117 118 114
f 114 116 117
f 114 120 116
f 1025 995 1026
f 1026 995 1027
f 1027 995 996
f 996 997 1027
f 933 934 964
f 964 995 994
f 870 901 869
f 841 840 809
f 809 840 808
f 933 901 902
f 236 142 141
f 141 142 145
f 1117 138 1086
f 1087 1117 1086
f 145 142 144
f 142 138 144
f 129 133 140
f 129 130 133
f 140 343 129
f 129 343 130
f 108 775 107
f 775 113 107
f 109 108 107
f 107 113 109
f 807 113 774
f 808 838 807
f 807 774 808
f 838 110 807
f 110 113 807
f 435 434 403
f 372 404 403
f 403 404 435
f 497 528 465
f 465 434 497
f 59 528 497
f 57 528 59
f 57 61 528
f 59 63 57
f 63 61 57
f 652 72 683
f 620 652 683
f 76 85 73
f 73 85 79
f 620 683 651
f 711 681 712
f 710 681 711
f 80 85 81
f 81 85 745
f 67 64 66
f 66 64 61
f 803 836 835
f 833 864 832
f 833 800 801
f 832 800 833
f 801 802 833
f 833 865 864
f 894 924 893
f 38 41 42
f 960 992 991
f 299 300 339
f 302 300 299
f 339 296 299
f 299 296 302
f 400 369 401
f 435 404 55
f 404 49 55
f 404 373 50
f 50 49 404
f 42 41 714
f 714 41 715
f 1122 1159 1157
f 1157 1158 1122
f 1062 1031 1032
f 1032 1031 1000
f 967 968 999
f 999 998 967
f 967 936 937
f 937 968 967
f 935 936 967
f 967 998 997
f 814 844 813
f 813 781 814
f 814 781 782
f 812 813 843
f 813 844 843
f 843 844 875
f 875 874 843
f 905 874 906
f 937 936 905
f 905 906 937
f 905 936 935
f 753 752 724
f 638 607 608
f 761 791 760
f 419 450 418
f 1172 1171 1134
f 1133 1171 1170
f 1133 1170 1132
f 1134 1171 1133
f 1039 1040 1070
f 1007 1008 1039
f 978 1010 1009
f 1009 977 978
f 1008 977 1009
f 1009 1039 1008
f 1040 1039 1009
f 729 728 198
f 758 728 729
f 729 730 758
f 198 199 729
f 199 730 729
f 945 915 946
f 945 914 915
f 946 977 945
f 913 914 945
f 883 851 852
f 882 851 883
f 913 882 883
f 883 914 913
f 883 853 884
f 883 852 853
f 884 915 883
f 915 914 883
f 820 787 788
f 788 787 758
f 788 789 820
f 758 789 788
f 757 728 758
f 758 787 757
f 787 786 757
f 850 851 882
f 850 819 820
f 820 851 850
f 1101 1133 1132
f 1132 1170 1131
f 1131 1101 1132
f 1100 1101 1131
f 1099 1100 1131
f 1007 1039 1038
f 1038 1039 1070
f 1128 1098 1129
f 1166 1165 1129
f 1129 1165 1128
f 1097 1098 1128
f 211 206 725
f 206 726 725
f 725 212 211
f 725 724 212
f 913 945 944
f 944 912 913
f 944 943 912
f 1161 1125 1198
f 1160 1125 1161
f 1198 1125 1126
f 939 908 909
f 909 940 939
f 909 908 877
f 735 764 734
f 762 733 734
f 180 178 734
f 178 735 734
f 734 184 180
f 734 733 184
f 794 793 763
f 763 764 794
f 763 734 764
f 763 793 762
f 762 734 763
f 827 795 796
f 176 736 175
f 737 176 171
f 736 176 737
f 171 172 737
f 737 172 738
f 1137 1197 1136
f 1136 1106 1137
f 1137 1106 1138
f 1011 1010 979
f 1107 1075 1076
f 1075 1045 1076
f 952 984 983
f 1017 1016 985
f 985 986 1017
f 985 984 954
f 955 986 985
f 985 954 955
f 983 984 1014
f 1014 1013 983
f 1178 1141 1142
f 1143 1180 1142
f 1176 1139 1177
f 1177 1139 1196
f 798 830 797
f 797 768 798
f 799 830 798
f 798 768 799
f 739 738 164
f 739 768 738
f 164 165 739
f 165 740 739
f 739 740 769
f 769 768 739
f 767 768 797
f 738 768 767
f 709 678 679
f 708 678 709
f 708 155 159
f 709 155 708
f 708 707 678
f 156 741 158
f 742 741 156
f 302 296 298
f 527 495 496
f 496 528 527
f 465 528 496
f 464 434 465
f 465 496 464
f 464 496 495
f 463 464 494
f 494 464 495
f 246 241 245
f 246 251 241
f 248 251 249
f 236 314 313
f 314 343 313
f 313 343 140
f 313 142 236
f 140 142 313
f 245 241 243
f 241 242 243
f 122 436 123
f 122 126 436
f 124 126 127
f 127 993 124
f 126 122 127
f 127 122 123
f 562 563 593
f 593 592 562
f 593 624 592
f 438 469 468
f 468 437 438
f 468 469 499
f 468 499 467
f 467 437 468
f 317 347 346
f 346 316 317
f 347 377 346
f 346 377 345
f 345 316 346
f 501 469 470
f 470 469 438
f 470 471 501
f 470 440 471
f 409 440 439
f 439 408 409
f 440 470 439
f 439 470 438
f 439 438 407
f 407 408 439
f 505 506 536
f 474 506 505
f 536 535 505
f 535 504 505
f 504 473 505
f 505 473 474
f 350 320 351
f 350 351 382
f 382 381 350
f 349 320 350
f 380 349 350
f 350 381 380
f 566 535 536
f 536 567 566
f 565 535 566
f 566 597 565
f 566 567 598
f 598 597 566
f 539 538 508
f 570 538 539
f 508 540 539
f 539 540 570
f 416 447 415
f 415 447 446
f 445 415 446
f 446 477 445
f 477 446 478
f 478 446 447
f 541 510 542
f 161 708 159
f 707 708 161
f 676 677 706
f 677 707 706
f 339 369 368
f 368 400 399
f 368 369 400
f 1120 1121 1156
f 1153 1119 1120
f 1120 1119 1088
f 1090 1121 1120
f 1060 1028 1029
f 1059 1028 1060
f 1060 1090 1059
f 1060 1091 1090
f 1029 1030 1060
f 1030 1061 1060
f 1060 1061 1092
f 1092 1091 1060
f 747 746 718
f 776 746 747
f 994 993 962
f 993 127 962
f 962 127 931
f 124 1024 134
f 134 130 131
f 900 120 121
f 121 114 900
f 1088 1056 1057
f 1057 1026 1027
f 1057 1056 1025
f 1025 1026 1057
f 965 964 934
f 997 996 965
f 965 996 995
f 995 964 965
f 932 901 933
f 933 964 932
f 932 931 901
f 839 838 808
f 808 840 839
f 840 870 839
f 839 869 838
f 839 870 869
f 841 809 810
f 811 841 810
f 810 778 811
f 871 840 841
f 841 872 871
f 871 870 840
f 901 870 871
f 871 902 901
f 935 934 903
f 903 934 933
f 933 902 903
f 903 871 872
f 902 871 903
f 903 872 873
f 145 143 136
f 136 141 145
f 136 143 236
f 236 141 136
f 133 1086 135
f 135 1086 138
f 1055 1086 133
f 1055 134 1024
f 1025 1056 1055
f 1055 1024 1025
f 1055 1056 1087
f 1087 1086 1055
f 139 144 138
f 139 1117 145
f 139 138 1117
f 466 434 435
f 466 497 434
f 59 497 466
f 68 69 590
f 590 64 68
f 67 69 68
f 68 64 67
f 528 61 559
f 61 64 559
f 559 64 590
f 559 590 527
f 527 528 559
f 77 75 76
f 72 75 77
f 620 651 650
f 650 651 681
f 681 649 650
f 712 681 682
f 681 651 682
f 80 712 682
f 620 588 589
f 589 588 558
f 589 621 620
f 589 558 590
f 590 621 589
f 527 558 557
f 558 588 557
f 557 588 587
f 150 711 712
f 150 712 148
f 150 153 710
f 710 711 150
f 70 868 837
f 837 836 805
f 868 836 837
f 71 72 70
f 71 75 72
f 70 837 71
f 745 149 82
f 82 81 745
f 62 61 63
f 63 66 62
f 62 66 61
f 866 836 867
f 866 835 836
f 897 865 866
f 866 865 835
f 896 897 927
f 896 865 897
f 864 865 896
f 861 862 892
f 862 893 892
f 834 833 802
f 865 833 834
f 835 865 834
f 834 802 803
f 803 835 834
f 895 894 864
f 895 896 927
f 864 896 895
f 862 831 863
f 863 831 832
f 863 893 862
f 863 894 893
f 832 864 863
f 864 894 863
f 35 2 3
f 1144 1180 1143
f 1023 63 60
f 1023 992 63
f 991 992 1023
f 961 66 63
f 63 992 961
f 67 66 961
f 898 866 867
f 897 866 898
f 312 308 305
f 300 304 305
f 402 401 371
f 372 403 371
f 371 403 402
f 59 466 56
f 56 466 435
f 310 41 40
f 40 41 48
f 44 373 310
f 310 40 44
f 44 40 48
f 1033 1032 1002
f 970 971 1002
f 1062 1032 1063
f 1063 1093 1062
f 1063 1094 1093
f 1063 1032 1033
f 1001 1032 1000
f 1001 969 970
f 1000 969 1001
f 970 1002 1001
f 1001 1002 1032
f 935 967 966
f 966 967 997
f 997 965 966
f 966 934 935
f 966 965 934
f 876 844 845
f 844 814 845
f 842 874 873
f 842 843 874
f 842 841 811
f 842 811 812
f 812 843 842
f 842 872 841
f 873 872 842
f 873 874 904
f 874 905 904
f 904 905 935
f 935 903 904
f 904 903 873
f 783 814 782
f 815 814 783
f 782 752 783
f 752 753 783
f 544 545 575
f 575 543 544
f 639 638 608
f 670 638 639
f 608 640 639
f 639 640 670
f 670 700 699
f 699 182 186
f 699 700 182
f 186 185 699
f 699 185 191
f 731 732 761
f 761 760 731
f 731 190 732
f 731 730 190
f 823 853 822
f 822 791 823
f 276 271 274
f 266 270 269
f 636 666 635
f 605 575 606
f 606 636 605
f 606 575 607
f 607 638 606
f 574 575 605
f 574 543 575
f 451 450 419
f 482 481 451
f 451 481 450
f 447 416 417
f 447 417 448
f 448 478 447
f 197 200 695
f 694 664 695
f 200 203 695
f 695 203 694
f 1041 1072 1040
f 1041 1009 1010
f 1040 1009 1041
f 1010 1011 1041
f 1073 1072 1041
f 1134 1133 1103
f 758 730 759
f 759 789 758
f 760 789 759
f 730 731 759
f 759 731 760
f 820 789 821
f 821 851 820
f 852 851 821
f 789 822 821
f 853 852 821
f 821 822 853
f 976 977 1007
f 976 945 977
f 1007 1006 976
f 976 944 945
f 756 757 786
f 756 726 727
f 727 728 756
f 728 757 756
f 756 786 785
f 881 882 912
f 881 850 882
f 881 880 850
f 1133 1101 1102
f 1102 1103 1133
f 1072 1103 1102
f 1169 1131 1170
f 1069 1038 1070
f 1070 1101 1069
f 1069 1101 1100
f 1130 1098 1099
f 1130 1129 1098
f 1099 1131 1130
f 1131 1169 1130
f 1098 1097 1066
f 848 817 818
f 785 786 818
f 818 817 785
f 819 850 818
f 818 787 819
f 818 786 787
f 848 880 879
f 971 940 941
f 941 972 971
f 940 909 941
f 754 725 726
f 754 783 753
f 754 753 724
f 724 725 754
f 943 944 974
f 974 1005 973
f 1094 1063 1095
f 1095 1125 1094
f 1095 1126 1125
f 1128 1164 1127
f 826 793 794
f 826 795 827
f 794 795 826
f 827 858 826
f 858 857 826
f 918 950 949
f 918 917 886
f 918 949 948
f 948 917 918
f 951 952 983
f 827 796 828
f 859 858 828
f 828 858 827
f 828 796 797
f 765 736 766
f 736 737 766
f 766 795 765
f 766 796 795
f 797 796 766
f 766 767 797
f 766 737 738
f 738 767 766
f 1197 1174 1135
f 1136 1197 1135
f 1173 1172 1134
f 1134 1135 1173
f 1173 1135 1174
f 1197 1137 1175
f 1175 1138 1176
f 1175 1137 1138
f 980 1011 979
f 979 948 980
f 948 949 980
f 949 950 980
f 1105 1106 1136
f 1075 1106 1105
f 1012 1043 1011
f 1013 1043 1012
f 1042 1043 1073
f 1011 1043 1042
f 1073 1041 1042
f 1042 1041 1011
f 1075 1043 1044
f 1044 1043 1013
f 1044 1045 1075
f 1044 1014 1045
f 1013 1014 1044
f 1079 1078 1048
f 1079 1080 1110
f 1048 1080 1079
f 1016 1048 1047
f 1048 1078 1047
f 1110 1141 1109
f 1109 1079 1110
f 1078 1079 1109
f 1109 1139 1108
f 860 890 859
f 860 830 861
f 861 892 860
f 920 890 921
f 921 951 920
f 952 951 921
f 984 952 953
f 954 984 953
f 953 922 954
f 952 921 953
f 953 921 922
f 1178 1142 1195
f 1110 1080 1111
f 1111 1141 1110
f 1111 1142 1141
f 680 681 710
f 680 649 681
f 679 649 680
f 710 709 680
f 709 679 680
f 618 650 649
f 710 153 152
f 152 709 710
f 152 155 709
f 296 295 297
f 297 298 296
f 434 464 433
f 402 403 433
f 433 403 434
f 433 401 402
f 433 432 401
f 433 464 463
f 463 432 433
f 525 494 495
f 399 400 431
f 431 432 463
f 400 401 431
f 401 432 431
f 493 524 523
f 493 525 524
f 494 525 493
f 252 248 250
f 248 249 250
f 120 931 125
f 931 127 125
f 123 120 125
f 125 127 123
f 594 593 563
f 594 595 625
f 594 563 595
f 625 624 594
f 624 593 594
f 385 384 353
f 415 384 385
f 385 416 415
f 385 417 416
f 509 540 508
f 508 477 509
f 477 478 509
f 509 478 510
f 509 541 540
f 510 541 509
f 572 571 540
f 540 541 572
f 602 571 572
f 572 541 542
f 707 161 160
f 163 706 160
f 160 706 707
f 163 167 705
f 705 706 163
f 676 706 705
f 286 284 283
f 283 284 285
f 285 284 333
f 338 296 339
f 339 368 338
f 366 396 365
f 607 575 576
f 575 545 576
f 577 576 545
f 577 578 608
f 608 607 577
f 607 576 577
f 608 578 609
f 609 640 608
f 701 700 670
f 701 177 181
f 181 183 701
f 183 700 701
f 1089 1120 1088
f 1088 1057 1089
f 1090 1120 1089
f 778 747 748
f 748 747 719
f 749 778 748
f 720 749 748
f 748 719 720
f 777 747 778
f 778 810 777
f 777 810 809
f 776 747 777
f 808 776 777
f 777 809 808
f 717 718 231
f 717 747 718
f 231 719 717
f 719 747 717
f 128 131 124
f 124 134 128
f 128 134 131
f 963 964 994
f 963 932 964
f 994 962 963
f 963 962 931
f 931 932 963
f 133 135 137
f 140 133 137
f 137 138 140
f 132 1055 133
f 134 1055 132
f 133 130 132
f 130 134 132
f 619 588 620
f 620 650 619
f 650 618 619
f 587 588 619
f 619 618 587
f 716 651 683
f 716 682 651
f 716 77 76
f 76 73 716
f 716 683 72
f 72 77 716
f 716 73 79
f 716 79 80
f 80 682 716
f 526 495 527
f 527 557 526
f 526 525 495
f 557 525 526
f 75 837 806
f 804 85 806
f 805 804 806
f 806 837 805
f 74 837 75
f 74 71 837
f 955 954 923
f 923 924 955
f 954 922 923
f 922 892 923
f 893 924 923
f 923 892 893
f 956 987 955
f 3 4 33
f 33 35 3
f 33 4 31
f 1017 987 1018
f 1018 1048 1017
f 987 956 957
f 1051 1052 1083
f 1053 1083 1052
f 53 55 49
f 49 50 53
f 897 898 929
f 960 959 929
f 992 960 929
f 929 961 992
f 930 899 67
f 67 961 930
f 867 899 930
f 930 898 867
f 961 929 930
f 930 929 898
f 1021 1053 1052
f 1021 1052 1051
f 927 897 928
f 928 959 927
f 897 929 928
f 928 929 959
f 1145 1146 1187
f 1189 1146 1115
f 1189 1187 1146
f 301 300 302
f 301 306 300
f 303 304 300
f 300 306 303
f 309 305 304
f 341 308 342
f 341 305 308
f 341 342 372
f 372 371 341
f 300 305 341
f 43 50 373
f 373 44 43
f 846 814 815
f 846 845 814
f 815 847 846
f 846 877 876
f 876 845 846
f 513 481 482
f 512 481 513
f 545 544 513
f 513 543 512
f 513 544 543
f 669 638 670
f 670 699 669
f 669 668 638
f 698 699 191
f 698 191 697
f 668 669 698
f 698 669 699
f 790 760 791
f 791 822 790
f 790 789 760
f 790 822 789
f 327 271 328
f 328 357 327
f 326 271 327
f 358 357 328
f 328 359 358
f 388 389 419
f 388 358 389
f 357 358 388
f 268 269 272
f 266 269 268
f 268 325 266
f 326 325 268
f 268 271 326
f 272 274 268
f 268 274 271
f 697 666 667
f 666 636 667
f 667 636 668
f 667 698 697
f 668 698 667
f 668 636 637
f 636 606 637
f 638 668 637
f 637 606 638
f 450 481 480
f 419 389 420
f 420 451 419
f 510 478 479
f 478 448 479
f 479 480 510
f 448 480 479
f 197 695 696
f 696 695 666
f 696 666 697
f 696 193 197
f 697 193 696
f 666 695 665
f 664 633 665
f 665 695 664
f 975 976 1006
f 944 976 975
f 975 974 944
f 1006 1005 975
f 1005 974 975
f 1040 1072 1071
f 1072 1102 1071
f 1070 1040 1071
f 1071 1101 1070
f 1071 1102 1101
f 1037 1006 1007
f 1007 1038 1037
f 1036 1005 1037
f 1037 1005 1006
f 1168 1130 1169
f 1098 1066 1067
f 1036 1037 1067
f 1035 1005 1036
f 1036 1067 1035
f 1035 1067 1066
f 849 880 848
f 848 818 849
f 850 880 849
f 849 818 850
f 973 972 942
f 972 941 942
f 942 974 973
f 943 974 942
f 912 943 942
f 910 879 880
f 910 941 909
f 785 754 755
f 755 754 726
f 755 756 785
f 726 756 755
f 1064 1063 1033
f 1064 1095 1063
f 1162 1127 1164
f 1126 1095 1096
f 1096 1127 1126
f 1096 1097 1128
f 1128 1127 1096
f 878 909 877
f 877 846 878
f 878 846 847
f 878 910 909
f 879 910 878
f 848 879 878
f 878 847 848
f 816 847 815
f 815 783 816
f 816 817 848
f 848 847 816
f 793 826 825
f 824 793 825
f 888 889 920
f 858 889 888
f 888 857 858
f 983 1013 982
f 982 951 983
f 950 951 982
f 1073 1043 1074
f 1074 1043 1075
f 1075 1105 1074
f 1073 1074 1104
f 1104 1074 1105
f 1136 1135 1104
f 1104 1105 1136
f 1104 1072 1073
f 1104 1103 1072
f 1134 1103 1104
f 1104 1135 1134
f 981 980 950
f 950 982 981
f 1011 980 981
f 981 1012 1011
f 1013 1012 981
f 981 982 1013
f 1015 985 1016
f 984 985 1015
f 1015 1014 984
f 1140 1141 1196
f 1140 1109 1141
f 1196 1139 1140
f 1139 1109 1140
f 859 828 829
f 829 860 859
f 829 828 797
f 797 830 829
f 830 860 829
f 890 860 891
f 891 921 890
f 922 921 891
f 891 892 922
f 891 860 892
f 1179 1142 1180
f 1080 1050 1081
f 1081 1050 1051
f 524 525 555
f 617 618 649
f 587 618 617
f 617 586 587
f 154 743 157
f 157 743 742
f 742 156 157
f 292 291 293
f 296 338 293
f 399 431 430
f 430 431 461
f 461 429 430
f 461 431 462
f 462 493 461
f 462 431 463
f 463 494 462
f 494 493 462
f 523 524 554
f 524 555 554
f 586 585 554
f 554 555 586
f 615 614 584
f 584 585 615
f 492 493 523
f 461 493 492
f 397 396 366
f 398 368 399
f 399 430 398
f 398 430 429
f 398 397 366
f 353 324 354
f 354 385 353
f 355 385 354
f 354 325 355
f 324 325 354
f 386 385 355
f 417 385 386
f 573 572 542
f 542 543 573
f 543 574 573
f 573 574 605
f 674 642 643
f 166 705 167
f 581 613 612
f 612 580 581
f 580 550 581
f 332 285 333
f 283 285 279
f 551 550 519
f 519 520 551
f 278 275 276
f 273 275 328
f 276 275 273
f 328 271 273
f 273 271 276
f 329 359 328
f 328 275 329
f 329 275 330
f 545 515 546
f 546 577 545
f 578 577 546
f 515 516 546
f 670 640 671
f 671 701 670
f 173 177 703
f 174 173 703
f 703 169 174
f 611 580 612
f 611 612 643
f 643 642 611
f 640 609 610
f 610 609 578
f 578 579 610
f 610 611 642
f 610 579 580
f 580 611 610
f 518 487 519
f 519 550 518
f 1155 1120 1156
f 1155 1154 1120
f 1153 1120 1152
f 1120 1154 1152
f 1058 1057 1027
f 1058 1089 1057
f 1027 1059 1058
f 1059 1090 1058
f 1090 1089 1058
f 75 806 78
f 76 75 78
f 1145 1185 1184
f 1184 1144 1145
f 1180 1144 1183
f 1144 1182 1183
f 1049 1050 1080
f 1049 1080 1048
f 1048 1018 1049
f 987 957 988
f 926 895 927
f 927 957 926
f 894 895 926
f 1114 1146 1145
f 1115 1146 1114
f 1145 1144 1114
f 1083 1053 1084
f 1115 1114 1084
f 1084 1114 1083
f 435 55 51
f 51 56 435
f 990 960 991
f 990 959 960
f 1053 1021 1022
f 1022 990 991
f 1021 990 1022
f 991 1023 1022
f 1023 1054 1022
f 1188 1185 1145
f 1145 1187 1188
f 47 1189 48
f 48 41 47
f 50 43 46
f 46 44 48
f 46 43 44
f 312 305 307
f 305 309 307
f 370 371 401
f 370 369 339
f 370 401 369
f 419 418 387
f 387 388 419
f 387 386 355
f 418 417 387
f 417 386 387
f 392 423 391
f 391 423 422
f 449 480 448
f 449 417 418
f 449 448 417
f 449 418 450
f 450 480 449
f 512 543 511
f 511 543 542
f 511 481 512
f 511 480 481
f 542 510 511
f 510 480 511
f 602 572 603
f 1038 1069 1068
f 1068 1037 1038
f 1068 1100 1099
f 1068 1069 1100
f 1068 1067 1037
f 1099 1098 1068
f 1098 1067 1068
f 1130 1168 1167
f 1166 1129 1167
f 1129 1130 1167
f 973 1005 1004
f 1005 1035 1004
f 911 910 880
f 912 942 911
f 911 942 941
f 941 910 911
f 911 881 912
f 880 881 911
f 1198 1126 1163
f 1126 1127 1163
f 1127 1162 1163
f 1033 1002 1034
f 783 754 784
f 784 816 783
f 784 754 785
f 785 817 784
f 817 816 784
f 856 886 855
f 855 824 856
f 824 825 856
f 857 888 856
f 856 826 857
f 856 825 826
f 950 918 919
f 919 888 920
f 920 951 919
f 919 951 950
f 1016 1047 1046
f 1046 1015 1016
f 1046 1047 1078
f 1045 1014 1046
f 1014 1015 1046
f 1181 1195 1142
f 1142 1179 1181
f 1112 1111 1080
f 1080 1081 1112
f 1143 1142 1112
f 1142 1111 1112
f 1112 1144 1143
f 556 555 525
f 556 557 587
f 556 525 557
f 587 586 556
f 586 555 556
f 647 617 648
f 648 678 647
f 648 679 678
f 648 649 679
f 648 617 649
f 616 585 586
f 586 617 616
f 616 617 647
f 647 615 616
f 616 615 585
f 290 289 291
f 290 291 292
f 288 289 290
f 294 293 291
f 294 295 296
f 296 293 294
f 292 293 336
f 366 365 336
f 336 290 292
f 646 615 647
f 647 678 646
f 646 678 677
f 646 677 676
f 676 645 646
f 614 615 646
f 646 645 614
f 613 614 644
f 614 645 644
f 644 645 676
f 643 612 644
f 612 613 644
f 644 674 643
f 491 492 523
f 461 492 491
f 368 398 367
f 367 398 366
f 366 336 367
f 704 674 705
f 704 166 170
f 705 166 704
f 704 703 674
f 170 169 704
f 169 703 704
f 283 279 282
f 330 275 277
f 277 278 281
f 275 278 277
f 285 332 331
f 331 279 285
f 331 332 362
f 330 277 331
f 331 277 279
f 363 332 333
f 362 332 363
f 395 426 394
f 394 363 395
f 395 363 364
f 396 426 395
f 395 365 396
f 395 364 365
f 334 363 333
f 364 363 334
f 365 364 334
f 426 458 457
f 487 456 457
f 489 520 519
f 427 426 396
f 427 458 426
f 427 459 458
f 582 614 613
f 613 581 582
f 582 581 550
f 550 551 582
f 520 521 552
f 552 551 520
f 552 582 551
f 578 546 547
f 547 546 516
f 177 701 702
f 702 703 177
f 423 455 454
f 517 547 516
f 487 518 517
f 393 423 392
f 393 363 394
f 362 363 393
f 549 550 580
f 549 518 550
f 394 426 425
f 425 393 394
f 426 457 425
f 425 457 456
f 425 456 455
f 84 85 76
f 76 78 84
f 84 806 85
f 84 78 806
f 1186 1182 1144
f 1144 1184 1186
f 1050 1049 1019
f 1019 1049 1018
f 1051 1050 1019
f 1019 1018 987
f 987 988 1019
f 925 957 956
f 925 926 957
f 894 926 925
f 924 894 925
f 955 924 925
f 925 956 955
f 1113 1114 1144
f 1144 1112 1113
f 1083 1114 1113
f 58 1023 60
f 58 1054 1023
f 58 60 59
f 59 56 58
f 1053 1022 1085
f 1085 1022 1054
f 989 990 1021
f 989 1019 988
f 38 1189 39
f 1189 47 39
f 41 38 39
f 39 47 41
f 1194 1189 38
f 1194 1190 1189
f 1187 1189 1191
f 1189 1190 1191
f 45 46 48
f 340 341 371
f 371 370 340
f 300 341 340
f 339 300 340
f 340 370 339
f 357 388 356
f 388 387 356
f 326 327 356
f 356 327 357
f 356 387 355
f 355 325 356
f 356 325 326
f 483 513 482
f 482 451 483
f 451 452 483
f 515 483 484
f 484 483 452
f 484 454 485
f 484 516 515
f 485 516 484
f 389 358 390
f 390 358 359
f 634 633 602
f 602 603 634
f 634 665 633
f 635 666 634
f 666 665 634
f 572 573 604
f 604 603 572
f 604 573 605
f 635 634 604
f 604 634 603
f 605 636 604
f 604 636 635
f 1065 1066 1097
f 1097 1096 1065
f 1065 1035 1066
f 1065 1034 1035
f 1095 1064 1065
f 1065 1096 1095
f 1065 1064 1033
f 1033 1034 1065
f 1003 972 973
f 973 1004 1003
f 1003 1034 1002
f 1003 1004 1035
f 1035 1034 1003
f 971 972 1003
f 1003 1002 971
f 887 918 886
f 886 856 887
f 887 856 888
f 887 919 918
f 888 919 887
f 1077 1046 1078
f 1077 1109 1108
f 1078 1109 1077
f 1077 1108 1107
f 1107 1076 1077
f 1077 1076 1045
f 1045 1046 1077
f 676 705 675
f 675 644 676
f 705 674 675
f 674 644 675
f 553 585 584
f 553 554 585
f 584 552 553
f 553 552 521
f 429 459 428
f 428 398 429
f 397 398 428
f 459 427 428
f 396 397 428
f 428 427 396
f 460 459 429
f 491 459 460
f 460 429 461
f 461 491 460
f 490 491 521
f 490 459 491
f 490 521 520
f 520 489 490
f 458 459 490
f 490 489 458
f 337 338 368
f 368 367 337
f 337 293 338
f 337 336 293
f 337 367 336
f 280 277 281
f 280 282 279
f 279 277 280
f 361 331 362
f 361 393 392
f 362 393 361
f 392 391 361
f 288 290 287
f 290 334 287
f 287 286 288
f 284 286 287
f 333 284 287
f 287 334 333
f 365 334 335
f 335 334 290
f 335 336 365
f 290 336 335
f 488 489 519
f 519 487 488
f 487 457 488
f 488 457 458
f 458 489 488
f 584 614 583
f 583 552 584
f 614 582 583
f 582 552 583
f 701 671 672
f 672 702 701
f 703 702 672
f 547 517 548
f 548 579 578
f 578 547 548
f 580 579 548
f 548 549 580
f 548 517 518
f 518 549 548
f 486 516 485
f 486 517 516
f 485 454 486
f 486 454 455
f 487 517 486
f 486 456 487
f 455 456 486
f 424 455 423
f 423 393 424
f 424 425 455
f 393 425 424
f 1082 1081 1051
f 1051 1083 1082
f 1083 1113 1082
f 1082 1112 1081
f 1082 1113 1112
f 52 53 50
f 50 46 52
f 46 45 1147
f 1147 1189 1115
f 48 1189 1147
f 1147 45 48
f 1054 58 54
f 54 1085 1054
f 53 1085 54
f 54 58 56
f 56 51 54
f 55 53 54
f 54 51 55
f 927 959 958
f 958 957 927
f 959 990 958
f 990 989 958
f 958 988 957
f 958 989 988
f 1051 1019 1020
f 1019 989 1020
f 1020 1021 1051
f 1020 989 1021
f 545 513 514
f 513 483 514
f 514 515 545
f 514 483 515
f 453 452 422
f 453 484 452
f 454 484 453
f 422 423 453
f 423 454 453
f 421 391 422
f 421 390 391
f 422 452 421
f 451 420 421
f 421 452 451
f 421 420 389
f 389 390 421
f 522 491 523
f 523 554 522
f 554 553 522
f 521 491 522
f 522 553 521
f 330 331 360
f 331 361 360
f 360 361 391
f 360 329 330
f 359 329 360
f 360 390 359
f 391 390 360
f 640 610 641
f 641 671 640
f 641 672 671
f 641 610 642
f 642 672 641
f 673 672 642
f 703 672 673
f 642 674 673
f 674 703 673
f 1116 52 46
f 46 1147 1116
f 53 52 1116
f 1116 1085 53
f 1116 1084 1053
f 1053 1085 1116
f 1115 1084 1116
f 1116 1147 1115
f 231 230 227
f 227 230 229
f 13 12 16
f 16 25 13
f 209 205 207
f 205 206 207
f 223 219 220
f 220 222 223
f 223 226 225
f 222 226 223
f 13 25 15
f 15 14 13
f 19 8 7
f 7 20 19
f 21 20 7
f 7 11 21
f 228 227 229
f 229 224 228
f 225 226 228
f 228 224 225
f 217 213 214
f 214 218 217
f 183 181 180
f 180 184 183
f 200 197 198
f 198 201 200
f 220 219 221
f 219 216 221
f 217 218 221
f 221 216 217
f 99 101 147
f 103 101 99
f 233 230 231
f 233 232 230
f 233 99 147
f 147 232 233
f 14 15 89
f 89 15 90
f 10 9 18
f 18 17 10
f 8 19 18
f 18 9 8
f 3 2 24
f 23 3 24
f 4 3 23
f 23 22 4
f 202 205 209
f 202 208 205
f 198 197 199
f 197 193 199
f 194 199 193
f 195 199 194
f 203 200 201
f 201 204 203
f 208 202 203
f 204 208 203
f 210 207 206
f 210 206 211
f 186 182 188
f 187 186 188
f 188 183 184
f 188 182 183
f 191 190 196
f 196 190 192
f 195 194 196
f 196 192 195
f 179 173 174
f 179 174 175
f 215 214 213
f 215 212 214
f 215 210 211
f 211 212 215
f 167 163 164
f 164 168 167
f 180 181 177
f 177 178 180
f 173 179 177
f 177 179 178
f 87 89 90
f 87 88 89
f 146 88 87
f 87 143 146
f 185 186 187
f 187 189 185
f 185 190 191
f 189 190 185
f 159 155 156
f 158 159 156
f 161 159 158
f 158 162 161
f 150 148 149
f 150 149 151
f 154 153 150
f 150 151 154
f 149 148 82
f 82 148 83
f 83 80 82
f 80 81 82
f 35 24 2
f 36 24 35
f 164 163 160
f 160 165 164
f 160 161 162
f 162 165 160
f 175 174 169
f 169 176 175
f 171 176 169
f 169 170 171
f 37 42 86
f 37 38 42
f 86 36 37
f 36 35 37
f 157 153 154
f 157 152 153
f 157 156 155
f 155 152 157
f 166 167 168
f 168 172 166
f 171 170 166
f 166 172 171
f 1191 1179 1180
f 146 1192 1191
f 1191 95 93
f 1199 1160 1191
f 1156 1158 1191
f 31 29 1191
f 1178 1195 1191
f 1191 27 1
f 1 97 1191
f 1191 1157 1159
f 1191 88 146
f 1149 1150 1191
f 1191 29 27
f 97 95 1191
f 1191 1159 1199
f 1191 1165 1166
f 1191 1196 1178
f 1191 1161 1198
f 93 91 1191
f 1182 1186 1191
f 1180 1183 1191
f 1191 1174 1197
f 1191 1151 1153
f 1191 1148 1149
f 1191 91 89
f 89 88 1191
f 1176 1177 1191
f 1191 1175 1176
f 1170 1171 1191
f 1164 1165 1191
f 1172 1173 1191
f 1191 1150 1151
f 1193 1148 1191
f 1191 1192 1193
f 1153 1152 1191
f 38 37 1191
f 1158 1157 1191
f 1171 1172 1191
f 1160 1161 1191
f 1191 1177 1196
f 1191 33 31
f 1191 1169 1170
f 1191 1173 1174
f 1197 1175 1191
f 1166 1167 1191
f 1191 1155 1156
f 35 33 1191
f 1191 37 35
f 1191 1184 1185
f 1185 1188 1191
f 1191 1168 1169
f 1191 1162 1164
f 1198 1163 1191
f 1154 1155 1191
f 1191 1152 1154
f 1195 1181 1191
f 1191 1183 1182
f 1191 1188 1187
f 1191 1194 38
f 1191 1167 1168
f 1191 1163 1162
f 1191 1181 1179
f 1191 1186 1184
f 1190 1194 1191
f 280 36 86
f 86 42 280
f 280 278 276
f 267 264 280
f 280 98 26
f 28 30 280
f 280 265 262
f 280 715 311
f 26 28 280
f 280 311 312
f 280 240 239
f 280 87 90
f 280 237 713
f 96 98 280
f 280 94 96
f 245 243 280
f 280 274 272
f 239 235 280
f 713 143 280
f 280 30 32
f 90 92 280
f 32 34 280
f 280 270 267
f 302 298 280
f 280 253 252
f 280 264 265
f 295 294 280
f 280 92 94
f 280 34 36
f 304 303 280
f 280 257 256
f 256 253 280
f 280 235 237
f 262 259 280
f 280 297 295
f 288 286 280
f 42 714 280
f 280 246 245
f 280 259 257
f 244 240 280
f 280 242 244
f 252 250 280
f 143 87 280
f 280 289 288
f 280 714 715
f 276 274 280
f 280 269 270
f 251 246 280
f 280 249 251
f 280 243 242
f 280 301 302
f 272 269 280
f 298 297 280
f 312 307 280
f 280 250 249
f 280 286 283
f 306 301 280
f 280 303 306
f 280 309 304
f 291 289 280
f 281 278 280
f 280 307 309
f 280 294 291
f 283 282 280

