# https://github.com/mikedh/trimesh
v 0.01050187 -0.08550042 -0.00674709
v -0.01350205 -0.08550049 0.00749630
v -0.00749710 -0.08550054 -0.01050205
v -0.00599751 -0.08550053 -0.00900163
v -0.00749668 -0.08550055 -0.01200205
v -0.00300350 -0.08550041 0.01274919
v -0.00450247 -0.08550043 0.00899878
v 0.00600011 -0.08550042 -0.00037333
v 0.01424794 -0.08550033 0.00750395
v 0.01567455 -0.08550037 -0.00190535
v 0.00400359 -0.08550049 -0.01299888
v 0.00562728 -0.08550045 -0.00824843
v -0.01169908 -0.08550053 -0.00330320
v 0.01164417 -0.08550033 0.01054735
v 0.00449671 -0.08550037 0.01200126
v 0.00749671 -0.08550035 0.01200209
v -0.00299854 -0.08550049 -0.00525081
v 0.00018978 -0.08550049 -0.00824993
v 0.00300125 -0.08550045 -0.00449915
v 0.00487600 -0.08550044 -0.00359864
v 0.00524918 -0.08550041 0.00300147
v 0.00449878 -0.08775040 0.00450127
v -0.00037664 -0.08550042 0.00599992
v 0.00299856 -0.08550041 0.00525085
v -0.00300143 -0.08550044 0.00524919
v -0.00549902 -0.08700050 -0.00350149
v -0.00525081 -0.08550047 0.00299857
v 0.00924905 -0.08550038 0.00350257
v -0.01200203 -0.09000048 0.00749674
v -0.00825226 -0.08550046 0.00824775
v -0.00900121 -0.08826971 0.00449755
v -0.01145528 -0.08550050 0.00269687
v 0.00150290 -0.08550049 -0.01049957
v -0.00269673 -0.08550052 -0.01181322
v -0.01349792 -0.08550056 -0.00750370
v -0.01778700 -0.08650053 0.00470941
v -0.01560241 -0.08550050 0.00877072
v -0.00776184 -0.08550042 0.01709788
v -0.00150495 -0.08550038 0.01799961
v -0.00150412 -0.08550039 0.01499961
v 0.00149505 -0.08550036 0.01800043
v 0.00283206 -0.08550036 0.01565535
v 0.00895613 -0.08550033 0.01598933
v 0.01551164 -0.08550033 0.00557008
v 0.01349960 -0.08550037 0.00150374
v 0.01050125 -0.08550041 -0.00449709
v 0.01575249 -0.08550040 -0.00899564
v 0.00900414 -0.08550047 -0.01499750
v 0.00777725 -0.08550048 -0.01636147
v 0.00019185 -0.08550052 -0.01574993
v -0.00516188 -0.08550056 -0.01733474
v -0.01242472 -0.08550058 -0.01393197
v -0.01692702 -0.08550057 -0.00557607
v -0.01574750 -0.08775058 -0.00900431
v -0.01575004 -0.08550054 0.00018318
v 0.01050252 -0.09000043 -0.00899707
v 0.01050128 -0.09000041 -0.00449707
v 0.00831646 -0.09000037 0.00637733
v 0.00862721 -0.09000044 -0.00787258
v 0.00524921 -0.09000041 0.00300149
v -0.00037662 -0.09000042 0.00599994
v -0.00749707 -0.09000054 -0.01050202
v -0.00449666 -0.09000053 -0.01200120
v -0.00374800 -0.09000050 -0.00712599
v -0.00825224 -0.09000046 0.00824777
v -0.00450244 -0.09000043 0.00899880
v -0.01170058 -0.09000051 0.00224682
v 0.00750252 -0.09000045 -0.00899789
v 0.00813092 -0.09000047 -0.01459473
v 0.00300148 -0.09000046 -0.00524913
v 0.00600333 -0.08727679 -0.01199832
v -0.01349843 -0.08775055 -0.00562869
v -0.00859955 -0.09000051 -0.00150233
v 0.00749673 -0.09000035 0.01200211
v 0.00449673 -0.09000037 0.01200128
v 0.00449754 -0.08694038 0.00900127
v -0.00300141 -0.09000044 0.00524921
v -0.00450122 -0.08775046 0.00449879
v -0.00525079 -0.09000047 0.00299859
v 0.00299859 -0.09000041 0.00525087
v 0.00567954 -0.09000043 -0.00337339
v -0.00037331 -0.09000048 -0.00600006
v 0.00107531 -0.09000051 -0.01396841
v -0.00149707 -0.09000051 -0.01050037
v -0.01049798 -0.08807197 -0.00723013
v -0.01199831 -0.09000055 -0.00600326
v -0.01499707 -0.09000058 -0.01050409
v -0.00839542 -0.09000057 -0.01650227
v -0.00449500 -0.09000056 -0.01800120
v 0.00712090 -0.09000048 -0.01663753
v 0.01050415 -0.08646474 -0.01499708
v 0.01500292 -0.08775041 -0.01049584
v 0.01775134 -0.09000037 -0.00474507
v 0.01575252 -0.09000040 -0.00899562
v 0.01525013 -0.08754585 -0.00677218
v 0.01153824 -0.09000038 0.00095776
v 0.01656141 -0.09000034 0.00252874
v 0.01799983 -0.09000034 0.00075500
v 0.01424797 -0.09000033 0.00750397
v 0.01394677 -0.09000032 0.01185388
v 0.00787775 -0.09000033 0.01685515
v -0.00150492 -0.09000038 0.01799963
v -0.00450358 -0.09000042 0.01312380
v 0.00149609 -0.09000038 0.01433379
v -0.00450492 -0.09000039 0.01799880
v -0.00800451 -0.09000042 0.01649784
v -0.01500282 -0.09000049 0.01035955
v -0.01650182 -0.09000051 0.00674550
v -0.01800048 -0.09000054 0.00187008
v -0.01724852 -0.09000057 -0.00525471
v -0.01366357 -0.09206471 0.01030812
v -0.01368219 -0.09300023 0.00624286
v -0.01372296 -0.09000021 0.00812281
v -0.01068531 -0.09142289 0.00560012
v -0.01053711 -0.09300020 0.00746188
v -0.01125401 -0.09300020 0.00850798
v 0.00224139 -0.09300172 -0.21382290
v 0.00071891 -0.09300168 -0.20660090
v 0.00664357 -0.09300166 -0.20834644
v -0.01144301 -0.09300176 -0.20803160
v 0.01272430 -0.09300161 -0.20649116
v -0.00960663 -0.09300166 -0.19526915
v 0.00002896 -0.09281409 -0.19424813
v 0.00532992 -0.09300160 -0.19961850
v 0.00730798 -0.09300152 -0.19041888
v -0.02403362 -0.09300146 -0.15631329
v -0.01488846 -0.09300132 -0.14435968
v -0.01789533 -0.09300101 -0.09852380
v -0.00855373 -0.09300120 -0.13344326
v -0.00775025 -0.09300095 -0.09947110
v -0.00793425 -0.09300081 -0.07976703
v -0.02059502 -0.09300081 -0.06955494
v -0.01453302 -0.09300033 -0.00733641
v 0.00232745 -0.09300041 -0.03227659
v 0.00443664 -0.09300025 -0.01210515
v -0.00534733 -0.09300019 0.00437766
v -0.01039093 -0.09300030 -0.00600280
v -0.01722535 -0.09300025 0.00598161
v -0.00971961 -0.09300024 0.00081213
v -0.01438933 -0.09300028 -0.00085723
v 0.00961067 -0.09300014 -0.00085053
v -0.00516689 -0.09300016 0.00839509
v 0.00332482 -0.09300014 0.00518334
v -0.01250121 -0.09300098 -0.09941158
v -0.01693248 -0.09183415 -0.07332853
v -0.02102608 -0.09300120 -0.12234778
v -0.02058059 -0.09300105 -0.10193578
v -0.01426215 -0.09300065 -0.05220377
v -0.01451328 -0.09300084 -0.07806911
v -0.00818184 -0.09300062 -0.05237116
v 0.00068643 -0.09300056 -0.05129170
v -0.00220992 -0.09265803 -0.10039198
v 0.00275140 -0.09300156 -0.19225910
v 0.00357682 -0.09300164 -0.20361584
v -0.00636247 -0.09300168 -0.20046956
v -0.00750863 -0.09300169 -0.20107722
v -0.00844348 -0.09300170 -0.20172723
v -0.00641111 -0.09300173 -0.20777511
v -0.00225058 -0.09300171 -0.20809657
v 0.00694281 -0.09300159 -0.19950138
v -0.00849050 -0.09300176 -0.21118268
v 0.00234384 -0.09300172 -0.21381161
v 0.00255678 -0.09300172 -0.21376430
v 0.01109960 -0.09300157 -0.20012618
v 0.00945133 -0.09300159 -0.20149958
v 0.01270027 -0.09104093 -0.20028265
v -0.00254044 -0.09300145 -0.17284565
v -0.00315117 -0.09300160 -0.19319922
v -0.00622408 -0.09300141 -0.16333237
v -0.00644070 -0.09300162 -0.19283451
v -0.01040674 -0.09300130 -0.14467943
v -0.01216403 -0.09111240 -0.14274545
v -0.00643058 -0.09300097 -0.10208363
v -0.00567757 -0.09300081 -0.08136349
v 0.00959372 -0.09238937 -0.04281870
v 0.01779587 -0.09300007 0.00318166
v 0.01458405 -0.09300010 0.00082652
v 0.00912364 -0.09300006 0.01046079
v -0.00470081 -0.09214036 0.01431620
v -0.00000365 -0.09300011 0.01200010
v -0.01741327 -0.09300051 -0.03043884
v -0.02262777 -0.09300066 -0.04821996
v -0.02726295 -0.09300107 -0.09735510
v -0.01213194 -0.09183505 -0.20153799
v -0.00897395 -0.09300168 -0.19842610
v -0.00403326 -0.09229506 -0.10088221
v 0.00469116 -0.09300055 -0.05332253
v 0.00441704 -0.09300052 -0.04910764
v 0.00593166 -0.09235767 -0.05180959
v -0.02505428 -0.09300138 -0.14466950
v -0.02677439 -0.09300138 -0.14317799
v -0.03069161 -0.09150145 -0.15025880
v -0.02938671 -0.09300141 -0.14549716
v -0.02289194 -0.09300102 -0.09581680
v -0.02225723 -0.09300104 -0.09928926
v -0.02174966 -0.09300102 -0.09743246
v -0.02521209 -0.09300104 -0.09804185
v -0.01874342 -0.09300063 -0.04598739
v -0.01813764 -0.09300066 -0.04968617
v -0.02004707 -0.09300066 -0.04882537
v 0.00652926 -0.09300020 -0.00628332
v 0.00869484 -0.09300020 -0.00850902
v 0.01763286 -0.09184012 -0.00361535
v 0.01276854 -0.09300016 -0.00582473
v -0.00797437 -0.09300031 -0.00946128
v -0.00450827 -0.09300028 -0.00857456
v -0.00681094 -0.09300029 -0.00844162
v -0.00589757 -0.09300032 -0.01309041
v 0.00694375 -0.09300024 -0.01231543
v 0.00655893 -0.09300016 -0.00093775
v 0.00328609 -0.09202602 0.01793309
v 0.00352680 -0.09300009 0.01144758
v -0.00814465 -0.09300017 0.00926248
v 0.01390777 -0.09300005 0.00848872
v 0.01061700 -0.09300007 0.00776807
v 0.01112164 -0.09300009 0.00525218
v 0.00152729 -0.09300027 -0.01266934
v -0.01040335 -0.09300058 -0.04535836
v 0.00406510 -0.09300040 -0.03233824
v 0.00219073 -0.09300041 -0.03234610
v 0.00158423 -0.09300052 -0.04707365
v -0.00461722 -0.09300047 -0.03439314
v -0.01358413 -0.09300054 -0.03786230
v -0.01274410 -0.09300042 -0.02074348
v -0.00806983 -0.09150039 -0.02107088
v 0.00136955 -0.09300029 -0.01492548
v 0.00177796 -0.09300035 -0.02369401
v -0.00070625 -0.09275719 -0.03217268
v 0.00035876 -0.09300030 -0.01561123
v 0.00018246 -0.09300030 -0.01564018
v 0.00094526 -0.09300035 -0.02241252
v 0.00121425 -0.09300029 -0.01512422
v 0.00151166 -0.09300035 -0.02282581
v -0.00198818 -0.09300031 -0.01448392
v 0.00066242 -0.09300035 -0.02230220
v 0.00176273 -0.09300035 -0.02353445
v 0.00071980 -0.09300030 -0.01549321
v 0.00100251 -0.09300030 -0.01531318
v -0.00122924 -0.09000014 0.00821031
v 0.01047096 -0.09000008 0.00675991
v -0.01168400 -0.09000029 -0.00458814
v -0.00809304 -0.09000020 0.00553796
v -0.00983039 -0.09000026 -0.00153154
v -0.00878430 -0.09000030 -0.00776019
v -0.00192884 -0.09221078 -0.00640497
v 0.00791743 -0.09000023 -0.01162368
v 0.00412138 -0.09000040 -0.03235186
v 0.00229016 -0.09000055 -0.05128644
v -0.02103408 -0.09000068 -0.05063320
v -0.02015600 -0.09000095 -0.08847672
v -0.02102352 -0.09000095 -0.08847696
v -0.00771551 -0.09000095 -0.09945665
v -0.00816847 -0.09000096 -0.10033200
v -0.01994071 -0.09000119 -0.12197398
v -0.02212843 -0.09000167 -0.18775863
v -0.00814944 -0.09000145 -0.16847850
v -0.01917767 -0.09000171 -0.19446769
v -0.00796201 -0.09000165 -0.19526871
v 0.01386169 -0.09000154 -0.19748089
v -0.00085678 -0.09000168 -0.20535269
v -0.01141225 -0.09000176 -0.20807246
v 0.00234382 -0.09000172 -0.21381163
v 0.00273692 -0.09000167 -0.20726041
v 0.00699935 -0.09000166 -0.20860775
v -0.01423325 -0.09000065 -0.05224697
v -0.01612366 -0.09000100 -0.09869972
v -0.00929875 -0.09000058 -0.04614679
v 0.00250681 -0.09000049 -0.04303728
v 0.00232797 -0.09000041 -0.03227794
v -0.02142930 -0.09000104 -0.10066858
v -0.02194898 -0.09000120 -0.12146112
v -0.00793426 -0.09000081 -0.07976706
v -0.00632142 -0.09000081 -0.08126428
v -0.01050192 -0.09225094 -0.09528167
v 0.00210665 -0.09000159 -0.19511266
v -0.00239464 -0.09000160 -0.19371963
v -0.00723559 -0.09000168 -0.20068312
v -0.00880452 -0.09000167 -0.19820341
v -0.00540667 -0.09000167 -0.19990371
v -0.00332830 -0.09000170 -0.20644930
v -0.00637467 -0.09000173 -0.20748906
v 0.00819071 -0.09000160 -0.20138334
v 0.00684882 -0.09000159 -0.19905041
v 0.01066447 -0.09000164 -0.20914389
v 0.00658898 -0.09246169 -0.21253587
v -0.00141433 -0.09000174 -0.21403284
v 0.00224137 -0.09000172 -0.21382292
v -0.00447597 -0.09064691 -0.21153078
v -0.01070975 -0.09000170 -0.20059648
v -0.00884648 -0.09000170 -0.20187274
v -0.02929782 -0.09000140 -0.14347845
v -0.02276576 -0.09000068 -0.04967925
v -0.02726237 -0.09000105 -0.09735359
v -0.02026815 -0.09000048 -0.02313943
v -0.01558176 -0.09000027 0.00185209
v -0.01600546 -0.09000022 0.00832666
v 0.00097333 -0.09000008 0.01455389
v -0.00264678 -0.09000012 0.01233520
v 0.00225115 -0.09000010 0.01129370
v 0.01187841 -0.09000002 0.01398862
v 0.01059113 -0.09000015 -0.00224606
v 0.01378516 -0.09000009 0.00377316
v 0.01088802 -0.09000012 0.00192623
v 0.01341266 -0.09000015 -0.00476691
v -0.00128067 -0.09000057 -0.05082189
v 0.00220370 -0.09000075 -0.07886657
v -0.01074271 -0.09000130 -0.14513959
v -0.01121536 -0.09000100 -0.10297527
v -0.00849218 -0.09000132 -0.14989209
v -0.01443640 -0.09000132 -0.14526945
v -0.01366893 -0.09000130 -0.14281052
v -0.00545460 -0.09018324 -0.16606060
v -0.00314820 -0.09226826 -0.19106843
v -0.00664560 -0.09000162 -0.19235210
v -0.00070965 -0.09110006 -0.17617361
v 0.00770216 -0.09000153 -0.19137355
v 0.00251920 -0.09000156 -0.19199897
v 0.00371876 -0.09000157 -0.19363056
v -0.00456367 -0.09000093 -0.09928645
v -0.00632226 -0.09101707 -0.09839901
v -0.00399397 -0.09000094 -0.10038969
v -0.00668054 -0.09000097 -0.10195532
v 0.00525608 -0.09000052 -0.04986813
v 0.00273757 -0.09000053 -0.04962286
v 0.00239529 -0.09000055 -0.05165144
v 0.00247036 -0.09000055 -0.05181357
v 0.00251867 -0.09000074 -0.07733036
v 0.00488657 -0.09000055 -0.05309835
v -0.02872604 -0.09000141 -0.14608388
v -0.02503940 -0.09000138 -0.14500762
v -0.02428211 -0.09241956 -0.18295186
v -0.02308383 -0.09000102 -0.09592775
v -0.01750873 -0.09000063 -0.04612436
v -0.01986520 -0.09000066 -0.04958791
v 0.00927265 -0.09000020 -0.00804662
v -0.00754427 -0.09000033 -0.01255896
v -0.00429175 -0.09000027 -0.00737511
v 0.00721664 -0.09000021 -0.00775970
v 0.00424861 -0.09000022 -0.00763737
v 0.00536450 -0.09000025 -0.01254173
v 0.00359955 -0.09000013 0.00607300
v 0.00506466 -0.09000019 -0.00358862
v -0.00501484 -0.09000020 0.00350886
v 0.00833094 -0.09000007 0.00974123
v 0.00444949 -0.09000008 0.01257963
v 0.00514572 -0.09000010 0.00826911
v -0.00724270 -0.09000014 0.01266686
v -0.00815747 -0.09000017 0.01019669
v -0.00423644 -0.09000015 0.00914731
v 0.01576294 -0.09115388 0.00909879
v 0.01063574 -0.09000007 0.00785097
v 0.01304473 -0.09000005 0.00871349
v -0.00119622 -0.09000029 -0.01247474
v 0.00338497 -0.09000026 -0.01186654
v 0.00087626 -0.09000028 -0.01259232
v -0.00075834 -0.09000042 -0.03032962
v -0.01072683 -0.09000059 -0.04675366
v 0.00219071 -0.09000041 -0.03234612
v 0.00136953 -0.09000029 -0.01492550
v 0.00177794 -0.09000035 -0.02369403
v 0.00173849 -0.09000028 -0.01393365
v 0.00018244 -0.09000030 -0.01564020
v -0.00047102 -0.09000033 -0.01829534
v 0.00176271 -0.09000035 -0.02353448
v 0.00067999 -0.09000030 -0.01552570
v 0.00113863 -0.09000030 -0.01519750
v 0.00126145 -0.09000029 -0.01506776
v -0.01278249 -0.09000042 -0.02077382
v -0.01457366 -0.09000054 -0.03668422
v -0.01357141 -0.09000054 -0.03791532
v 0.00088996 -0.10600969 -0.19532888
v 0.00452672 -0.10405650 -0.20220172
v -0.00252674 -0.10583731 -0.20288921
v -0.00457417 -0.10408860 -0.19737360
v -0.00031789 -0.10350157 -0.19060966
v -0.00444400 -0.10350165 -0.19832168
v -0.00059374 -0.10350167 -0.20475794
v -0.00509338 -0.10350169 -0.20307991
v 0.00874746 -0.10425162 -0.20485062
v 0.00630802 -0.10350152 -0.18926783
v -0.01243928 -0.10350174 -0.20431838
v 0.00068201 -0.10350172 -0.21273431
v -0.00175469 -0.10581124 -0.21417622
v 0.00677372 -0.10350167 -0.21090531
v 0.00957211 -0.10350159 -0.20129847
v 0.01246843 -0.10350156 -0.19956585
v -0.01235722 -0.09300171 -0.20043364
v -0.01387799 -0.09300169 -0.19649691
v -0.00809210 -0.09888160 -0.18930154
v 0.00536760 -0.09583935 -0.18702474
v -0.00585035 -0.09791648 -0.18900328
v -0.00379465 -0.09825161 -0.19356348
v -0.00946090 -0.09300168 -0.19870103
v -0.01190898 -0.09300172 -0.20191341
v -0.01269902 -0.09300174 -0.20453729
v -0.00589389 -0.09805729 -0.20959081
v -0.00278329 -0.09300170 -0.20694175
v 0.00654492 -0.09251331 -0.21117234
v 0.00341167 -0.09825155 -0.19100048
v 0.00039177 -0.09300155 -0.18887425
v 0.01275579 -0.10650151 -0.19298494
v 0.01536476 -0.10650153 -0.19783322
v 0.01417743 -0.10565972 -0.20245682
v -0.00472272 -0.10650177 -0.21465654
v -0.00717772 -0.10650176 -0.21162687
v 0.01026731 -0.10378454 -0.19261174
v -0.01229968 -0.10650175 -0.20564289
v -0.01503370 -0.09825177 -0.20618601
v -0.00812770 -0.09150177 -0.21188676
v 0.00724174 -0.09000169 -0.21274304
v 0.01354664 -0.09183205 -0.19777447
v 0.01514055 -0.09000153 -0.19709345
v 0.01164084 -0.09000152 -0.19306935
v 0.01125975 -0.09200150 -0.19088611
v 0.01390500 -0.09000161 -0.20744606
v -0.00444406 -0.09300165 -0.19832175
v -0.00059380 -0.09300167 -0.20475802
v 0.00603498 -0.09300161 -0.20122958
v 0.00070495 -0.09300160 -0.19524155
v -0.00956933 -0.09825166 -0.19559779
v 0.00309468 -0.09199036 -0.19688443
v -0.00375687 -0.09105921 -0.20201777
v 0.00371594 -0.09060103 -0.20226996
v -0.00336740 -0.09140346 -0.19690749
v 0.00005556 -0.09000164 -0.19999981
v 0.01895627 -0.10095142 -0.18533176
v 0.02116890 -0.10500141 -0.18562158
v -0.02259771 -0.10500185 -0.21180331
v -0.02195417 -0.09000184 -0.21141840
v -0.02143839 -0.10620183 -0.21051182
v 0.02513331 -0.10587955 -0.20163916
v 0.02345596 -0.09000155 -0.20697629
v 0.02151941 -0.10500160 -0.21250446
v 0.01577788 -0.10590866 -0.21864925
v 0.02016902 -0.09150163 -0.21514023
v -0.00074892 -0.10500182 -0.22495171
v -0.01085025 -0.09050187 -0.22316089
v -0.01625100 -0.10500186 -0.21869541
v -0.01964402 -0.09000186 -0.21528016
v -0.02105761 -0.10500186 -0.21437782
v -0.01861537 -0.09000185 -0.21553876
v -0.01193201 -0.09000184 -0.21940627
v -0.00769274 -0.09000184 -0.22236657
v -0.00105468 -0.09000182 -0.22430328
v 0.02058840 -0.09000142 -0.18684285
v 0.02502797 -0.09009726 -0.20295269
v 0.00259555 -0.09000180 -0.22469897
v 0.01881264 -0.09000165 -0.21674561
v 0.01105752 -0.09000172 -0.22094784
v 0.02287748 -0.09000143 -0.19042590
v 0.00590768 -0.09041087 -0.22512624
v 0.02136287 -0.09000158 -0.20977067
v -0.02131045 -0.10650184 -0.21103325
v 0.00615474 -0.10628749 -0.22431766
v 0.02125083 -0.10640785 -0.21200106
v -0.01429307 -0.10650185 -0.21765054
v -0.01918994 -0.10650184 -0.21238659
v 0.00439866 -0.10650178 -0.22296479
v 0.01076740 -0.10650173 -0.22155831
v 0.02359973 -0.10650147 -0.19552881
v 0.02026668 -0.10650142 -0.18703524
v -0.00543605 -0.10632970 -0.22223275
v 0.00011813 -0.10620181 -0.22404933
v 0.00376223 -0.10650174 -0.21788331
v 0.00286000 -0.10650176 -0.21929698
v -0.00054777 -0.10650177 -0.21871369
v -0.00748686 -0.10650178 -0.21368823
v -0.00871378 -0.10650181 -0.21748102
v -0.01059783 -0.10615570 -0.22156620
v -0.01107910 -0.10650182 -0.21644892
v 0.00540721 -0.10650171 -0.21405890
v 0.00749181 -0.10650172 -0.21827408
v 0.01096275 -0.09825171 -0.21969357
v 0.00270972 -0.10650173 -0.21593274
v 0.01683303 -0.10650158 -0.20613140
v 0.02172668 -0.10650157 -0.20823205
v 0.01731713 -0.10650156 -0.20308783
v 0.01831854 -0.10650154 -0.20130995
v 0.02400391 -0.10630150 -0.20078780
v 0.01123935 -0.10650169 -0.21723394
v 0.01135357 -0.10650169 -0.21596393
v 0.01225580 -0.10650167 -0.21455025
v 0.01100131 -0.10650165 -0.21082500
v 0.01645563 -0.10650160 -0.20834551
v 0.01348847 -0.10650160 -0.20638425
v 0.01607329 -0.10650163 -0.21153435
v 0.01583762 -0.10650165 -0.21475407
v -0.01130695 -0.10650176 -0.20876333
v -0.01050673 -0.10650178 -0.21156196
v -0.01475356 -0.09825182 -0.21322854
v -0.01694299 -0.10650184 -0.21541221
v -0.01764983 -0.10650185 -0.21496110
v -0.01848310 -0.10650183 -0.21283771
v -0.01677464 -0.10650180 -0.20925113
v 0.02321759 -0.10650145 -0.19269858
v 0.01812061 -0.10650153 -0.19968045
v 0.02012300 -0.10650151 -0.19848259
v 0.01935295 -0.10650150 -0.19719534
v 0.01164093 -0.10650152 -0.19306923
v 0.01685316 -0.10650147 -0.19082516
v 0.01859440 -0.10650144 -0.18716167
v 0.01439779 -0.10650152 -0.19483096
v 0.01704280 -0.10650149 -0.19333358
v 0.02101207 -0.10650146 -0.19294745
v 0.00749172 -0.09000172 -0.21827420
v -0.00421200 -0.09000179 -0.21745848
v 0.00529936 -0.09000177 -0.22264454
v 0.00285990 -0.09000176 -0.21929710
v -0.01146651 -0.09000176 -0.20776641
v -0.00148830 -0.09000177 -0.21743649
v 0.01859431 -0.09000144 -0.18716179
v 0.01768920 -0.09000147 -0.19076207
v 0.01831845 -0.09000154 -0.20131007
v 0.01649004 -0.09000165 -0.21485163
v -0.01694309 -0.09000184 -0.21541233
v -0.01706951 -0.09000183 -0.21374005
v 0.00839394 -0.09000171 -0.21686053
v 0.00080260 -0.09000177 -0.21877990
v -0.00173855 -0.09092405 -0.21460881
v -0.01050682 -0.09000178 -0.21156208
v -0.00497854 -0.09000176 -0.21349871
v -0.01414878 -0.09000185 -0.21789202
v -0.01120804 -0.09000182 -0.21620257
v -0.00871387 -0.09000181 -0.21748114
v 0.00594084 -0.09000174 -0.21932039
v 0.00489777 -0.09000171 -0.21453740
v 0.00337711 -0.09000174 -0.21723980
v 0.01713293 -0.09000160 -0.20918966
v 0.01843912 -0.09000158 -0.20735556
v 0.01852741 -0.09000156 -0.20402855
v 0.00929617 -0.09000169 -0.21544685
v 0.01113268 -0.09000168 -0.21516605
v 0.01033058 -0.09000166 -0.21133224
v 0.01381304 -0.09000169 -0.21798852
v 0.01264073 -0.09000167 -0.21519400
v 0.01216374 -0.09000164 -0.21058629
v -0.02156293 -0.09000183 -0.20997971
v -0.01622196 -0.09000180 -0.20925854
v -0.01860962 -0.09000182 -0.21116555
v -0.01848319 -0.09000183 -0.21283783
v -0.01590864 -0.09825181 -0.21129766
v 0.01678294 -0.09000154 -0.20013114
v 0.02012291 -0.09000151 -0.19848271
v 0.01935285 -0.09000150 -0.19719546
v 0.02334391 -0.09000146 -0.19437098
v 0.01980174 -0.09000147 -0.19323164
v 0.01768633 -0.09000148 -0.19294867
v -0.00794382 -0.09000182 -0.21876840
v 0.01093397 -0.09000170 -0.21708896
v 0.01441222 -0.09825147 -0.18857109
v -0.01039391 -0.09153058 0.00599719
v -0.01110455 -0.09153058 0.00731816
v -0.00978358 -0.09153057 0.00802881
v -0.00907293 -0.09153057 0.00670783
v -0.00836228 -0.09153057 0.00538686
v -0.00968326 -0.09153058 0.00467621
v -0.01100423 -0.09153060 0.00396556
v -0.01171488 -0.09153059 0.00528654
v -0.01242553 -0.09153059 0.00660751
v -0.00968315 -0.11103058 0.00467630
v -0.00836217 -0.11103057 0.00538695
v -0.00907282 -0.11103057 0.00670792
v -0.00978347 -0.11103057 0.00802890
v -0.01110444 -0.11103058 0.00731825
v -0.01242542 -0.11103059 0.00660760
v -0.01171477 -0.11103059 0.00528663
v -0.01100412 -0.11103060 0.00396565
v -0.01039379 -0.11103058 0.00599727
v 0.00000336 -0.09153060 -0.01199995
v 0.00024228 -0.09153060 -0.01051910
v 0.00172313 -0.09153059 -0.01075802
v 0.00148421 -0.09153060 -0.01223887
v 0.00124529 -0.09153061 -0.01371972
v -0.00023556 -0.09153061 -0.01348080
v -0.00171641 -0.09153062 -0.01324188
v -0.00147749 -0.09153061 -0.01176103
v -0.00123858 -0.09153060 -0.01028018
v -0.00023546 -0.11103061 -0.01348071
v 0.00124539 -0.11103061 -0.01371963
v 0.00148431 -0.11103060 -0.01223878
v 0.00172323 -0.11103059 -0.01075793
v 0.00024238 -0.11103060 -0.01051901
v -0.00123847 -0.11103060 -0.01028009
v -0.00147739 -0.11103061 -0.01176094
v -0.00171631 -0.11103062 -0.01324179
v 0.00000346 -0.11103060 -0.01199986
v 0.01039067 -0.08780246 0.00600289
v 0.00968002 -0.08780246 0.00732387
v 0.01100100 -0.08780245 0.00803452
v 0.01171165 -0.08780245 0.00671354
v 0.01242230 -0.08780245 0.00539257
v 0.01110132 -0.08780246 0.00468192
v 0.00978034 -0.08780248 0.00397127
v 0.00906969 -0.08780247 0.00529225
v 0.00835905 -0.08780247 0.00661322
v 0.01110143 -0.10730246 0.00468201
v 0.01242241 -0.10730245 0.00539265
v 0.01171176 -0.10730245 0.00671363
v 0.01100111 -0.10730245 0.00803461
v 0.00968014 -0.10730246 0.00732396
v 0.00835916 -0.10730247 0.00661331
v 0.00906981 -0.10730247 0.00529233
v 0.00978046 -0.10730248 0.00397136
v 0.01039078 -0.10730246 0.00600298
v -0.00616307 -0.09800058 -0.01260166
v -0.00299713 -0.09800054 -0.01000077
v -0.00659751 -0.09800055 -0.00862678
v -0.00831535 -0.09800057 -0.00985940
v -0.00487264 -0.09759145 -0.00816796
v -0.00599780 -0.10250054 -0.00750158
v -0.00749668 -0.10250058 -0.01150199
v -0.00449654 -0.10250056 -0.01200116
v -0.00514024 -0.10250054 -0.00900134
v -0.00449624 -0.09350057 -0.01325122
v -0.00749645 -0.09350058 -0.01250206
v -0.00899659 -0.09350059 -0.01200248
v -0.00799743 -0.09350056 -0.00900220
v -0.00749785 -0.09350055 -0.00750206
v -0.00599785 -0.09350054 -0.00750164
v -0.00374764 -0.09350053 -0.00825101
v -0.00299659 -0.09350055 -0.01200080
v -0.00899675 -0.10250058 -0.01125241
v -0.00637112 -0.10250058 -0.01350168
v -0.01945886 -0.10250162 -0.14700534
v -0.01197142 -0.10250125 -0.10200325
v -0.01648691 -0.10250088 -0.04650451
v -0.01348565 -0.10250090 -0.05100367
v -0.01198733 -0.10250084 -0.04500325
v -0.01555935 -0.10250062 -0.01087925
v -0.00149598 -0.10250056 -0.01400032
v 0.00100383 -0.10250054 -0.01333296
v 0.00000472 -0.10250057 -0.01649990
v 0.00900377 -0.10250049 -0.01312239
v -0.00337243 -0.10250053 -0.00881334
v -0.01650177 -0.10250050 0.00674549
v -0.01499989 -0.10250054 -0.00000409
v -0.01350031 -0.10250052 0.00149633
v -0.01406098 -0.10250057 -0.00506633
v -0.00899926 -0.10250052 -0.00225241
v -0.00937541 -0.10250049 0.00187248
v -0.01349947 -0.10250054 -0.00150367
v -0.01124905 -0.10250054 -0.00300304
v 0.00749927 -0.10250038 0.00300219
v -0.01050240 -0.10250045 0.00899717
v -0.01495969 -0.10250158 -0.14400408
v -0.02546053 -0.10250161 -0.14100701
v -0.02097100 -0.10250132 -0.10350576
v -0.02246060 -0.10250159 -0.14075618
v -0.02097194 -0.10250129 -0.10013076
v -0.01947142 -0.10250130 -0.10200534
v -0.00897079 -0.10250125 -0.10425241
v -0.01047100 -0.10250126 -0.10350283
v -0.00897323 -0.10250119 -0.09550241
v -0.02097665 -0.10250117 -0.08325576
v -0.02097393 -0.10250124 -0.09300576
v -0.01797309 -0.10250125 -0.09600492
v -0.02098565 -0.10250094 -0.05100576
v -0.00898524 -0.10250088 -0.05250241
v -0.01498733 -0.10250086 -0.04500409
v -0.01199333 -0.10250069 -0.02350325
v -0.01382261 -0.10250070 -0.02412674
v -0.01049361 -0.10250067 -0.02250283
v -0.00074413 -0.10250060 -0.02062511
v 0.00601393 -0.10250077 -0.04949823
v 0.00545029 -0.10250060 -0.02466349
v 0.00113809 -0.10250078 -0.04649959
v 0.00001351 -0.10250080 -0.04799990
v 0.00301267 -0.10250076 -0.04499906
v 0.00600220 -0.10250047 -0.00749823
v 0.00900137 -0.10250043 -0.00449739
v -0.01199780 -0.10250057 -0.00750325
v -0.00637384 -0.10250051 -0.00375168
v -0.00899780 -0.10250056 -0.00750241
v -0.00747351 -0.10250117 -0.09450199
v 0.00301393 -0.10250079 -0.04949906
v 0.00601476 -0.10250079 -0.05249823
v -0.02605119 -0.10250164 -0.14419732
v -0.02247226 -0.10250129 -0.09900618
v -0.02397895 -0.10250113 -0.07500660
v -0.02311601 -0.10250127 -0.09579207
v -0.02566966 -0.10250131 -0.09888865
v -0.00575240 -0.10250042 0.00899849
v -0.00600198 -0.10250043 0.00749842
v 0.00849815 -0.10250035 0.00700247
v 0.00599802 -0.10250036 0.00750177
v 0.00449760 -0.10250036 0.00900135
v 0.00843829 -0.10250042 -0.00243505
v 0.00300283 -0.10250050 -0.00974906
v 0.00540262 -0.10250048 -0.00899839
v 0.00750346 -0.10250049 -0.01199781
v 0.00450346 -0.10250051 -0.01199865
v -0.02695593 -0.10250174 -0.15750743
v -0.02395593 -0.10250172 -0.15750660
v -0.02695886 -0.10250167 -0.14700743
v -0.01195634 -0.10250164 -0.15600325
v -0.00959970 -0.10250162 -0.15421687
v -0.00895802 -0.10250158 -0.15000241
v -0.01196011 -0.10250155 -0.14250325
v -0.01495928 -0.10250159 -0.14550408
v -0.01047058 -0.10250127 -0.10500283
v -0.00896263 -0.10250146 -0.13350241
v -0.00784024 -0.10250139 -0.12412710
v -0.00747156 -0.10250123 -0.10150199
v -0.00297142 -0.10250120 -0.10200074
v 0.00008814 -0.10250084 -0.05367837
v 0.00001602 -0.10250086 -0.05699990
v -0.00447198 -0.10250120 -0.10000115
v 0.00302104 -0.10250097 -0.07499906
v 0.00901225 -0.10250071 -0.04349739
v 0.00901141 -0.10250069 -0.04049739
v 0.01350555 -0.10250051 -0.01949613
v 0.01650304 -0.10250043 -0.01049530
v 0.01200220 -0.10250043 -0.00749655
v 0.01050136 -0.10250042 -0.00449697
v 0.01800053 -0.10250036 -0.00149488
v 0.01735683 -0.10250034 0.00150494
v 0.00974938 -0.10250037 0.00262782
v 0.01350126 -0.10250040 -0.00412113
v 0.01049760 -0.10250032 0.00900303
v 0.00749634 -0.10250031 0.01350219
v 0.00749550 -0.10250029 0.01650219
v 0.00588690 -0.10250031 0.01475629
v 0.00299634 -0.10250034 0.01350093
v -0.00412908 -0.10250037 0.01499895
v 0.00149566 -0.10250033 0.01595506
v 0.00206020 -0.10250038 0.00862567
v -0.00900450 -0.10250038 0.01649759
v -0.00750324 -0.10250041 0.01199800
v -0.00450324 -0.10250039 0.01199884
v -0.01500282 -0.10250046 0.01049591
v -0.01800031 -0.10250054 0.00149507
v -0.01799905 -0.10250058 -0.00300493
v -0.01799780 -0.10250061 -0.00750493
v -0.01799696 -0.10250063 -0.01050493
v -0.01949445 -0.10250070 -0.01950534
v -0.02098984 -0.10250083 -0.03600576
v -0.01907199 -0.10250091 -0.04810391
v -0.02098649 -0.10250092 -0.04800576
v -0.02248649 -0.10250093 -0.04800618
v -0.02248565 -0.10250095 -0.05100618
v -0.02397937 -0.10250112 -0.07350660
v -0.02697184 -0.10250133 -0.10050743
v -0.02734349 -0.10250142 -0.11250754
v -0.02996304 -0.10250158 -0.13200827
v -0.02845969 -0.10250165 -0.14400785
v -0.02946925 -0.10250168 -0.14716753
v -0.02921011 -0.10250165 -0.14250806
v -0.00689834 -0.10250053 -0.00557326
v -0.00575073 -0.10250046 0.00299849
v -0.00360125 -0.10250044 0.00487409
v -0.00150157 -0.10250042 0.00599968
v -0.00000157 -0.10250041 0.00600010
v 0.00149843 -0.10250040 0.00600052
v 0.00374878 -0.10250039 0.00475114
v 0.00599927 -0.10250039 0.00300177
v 0.00360166 -0.10250047 -0.00554890
v -0.01425240 -0.10250047 0.00899612
v -0.01131975 -0.10250047 0.00599694
v -0.01443859 -0.10250050 0.00430857
v -0.01350157 -0.10250048 0.00599633
v 0.01199760 -0.10250032 0.00900345
v 0.01537281 -0.10250030 0.00825439
v 0.01049802 -0.10250034 0.00750303
v 0.01349843 -0.10250033 0.00600387
v -0.01797142 -0.10250129 -0.10200492
v -0.01039489 -0.09350126 -0.10363169
v -0.01647147 -0.09350128 -0.10200457
v -0.02097105 -0.09350132 -0.10350582
v -0.01947147 -0.09350130 -0.10200541
v -0.00897084 -0.09350125 -0.10425248
v -0.01503778 -0.10250155 -0.14099979
v -0.02246072 -0.09350159 -0.14050624
v -0.02396100 -0.09350159 -0.13950666
v -0.01500881 -0.09350155 -0.14100180
v -0.01946016 -0.09350159 -0.14250540
v -0.01586146 -0.10250092 -0.05249786
v -0.01348571 -0.09350090 -0.05100373
v -0.00298529 -0.09350085 -0.05250080
v -0.00148487 -0.09350085 -0.05400038
v 0.00001597 -0.09350086 -0.05699996
v -0.01448529 -0.09350091 -0.05250401
v -0.01875969 -0.09350124 -0.09431825
v -0.01907648 -0.10250124 -0.09447921
v -0.01797314 -0.09350125 -0.09600499
v -0.01197314 -0.09350121 -0.09600331
v -0.01797356 -0.09350124 -0.09450499
v -0.02097419 -0.09350124 -0.09225583
v -0.00897314 -0.09350119 -0.09600248
v -0.00849071 -0.09350118 -0.09456672
v -0.01497314 -0.09350123 -0.09600415
v -0.01647314 -0.09350124 -0.09600457
v 0.00300676 -0.09350061 -0.02399913
v 0.00450704 -0.09350060 -0.02499871
v 0.00301241 -0.09350075 -0.04424913
v 0.00094811 -0.09350078 -0.04651431
v 0.00001346 -0.09350080 -0.04799996
v 0.00600718 -0.09350060 -0.02549829
v -0.01049366 -0.09350067 -0.02250290
v -0.01048696 -0.09350085 -0.04650290
v -0.01365163 -0.09350070 -0.02404316
v -0.01498738 -0.09350086 -0.04500415
v -0.01198738 -0.09350084 -0.04500331
v -0.01199352 -0.09350068 -0.02300332
v -0.01800073 -0.10250053 0.00299507
v -0.00209413 -0.10250033 0.01773166
v 0.01320918 -0.10250028 0.01256965
v 0.01799885 -0.10250031 0.00450512
v 0.01800095 -0.10250037 -0.00299488
v -0.00746472 -0.10250140 -0.12600199
v -0.01800036 -0.09350054 0.00149501
v -0.01800078 -0.09350053 0.00299501
v -0.01575224 -0.09350048 0.00824564
v -0.01500287 -0.09350046 0.01049585
v -0.01350329 -0.09350044 0.01199626
v -0.01200371 -0.09350042 0.01349668
v -0.01050413 -0.09350040 0.01499710
v -0.00742710 -0.09350037 0.01698934
v -0.00300497 -0.09350034 0.01799920
v -0.00075497 -0.09350032 0.01799982
v 0.00449503 -0.09350029 0.01800129
v 0.00599545 -0.09350030 0.01650171
v 0.01049587 -0.09350028 0.01500296
v 0.01349699 -0.09350029 0.01100380
v 0.01499754 -0.09350030 0.00900422
v 0.01743604 -0.09350031 0.00544240
v 0.01800089 -0.09350037 -0.00299494
v -0.00746477 -0.09350140 -0.12600206
v 0.01649880 -0.09350032 0.00450464
v -0.01575120 -0.09350051 0.00449564
v -0.01650078 -0.09350052 0.00299543
v -0.02996310 -0.09350158 -0.13200834
v -0.03173646 -0.10250166 -0.14304794
v 0.00788867 -0.09350076 -0.04874777
v 0.00302016 -0.09350095 -0.07199913
v 0.01500424 -0.09350047 -0.01499578
v -0.00297231 -0.09350118 -0.09900080
v 0.00077413 -0.09350107 -0.08624975
v -0.00821508 -0.09350140 -0.12487726
v -0.00297105 -0.09350121 -0.10350080
v -0.00896268 -0.09350146 -0.13350247
v -0.00895901 -0.09350156 -0.14662747
v -0.02099115 -0.09350080 -0.03150583
v -0.02547231 -0.09350131 -0.09900708
v -0.02248571 -0.09350095 -0.05100625
v -0.02397943 -0.09350112 -0.07350666
v -0.02248654 -0.09350093 -0.04800625
v -0.01949617 -0.09350066 -0.01350541
v -0.01799774 -0.09350061 -0.00787999
v -0.02995723 -0.09350173 -0.15300834
v -0.03173681 -0.09350166 -0.14196966
v -0.02883118 -0.10250175 -0.15660796
v -0.00895765 -0.09350159 -0.15150247
v -0.01169206 -0.09350163 -0.15467971
v -0.02395598 -0.09350172 -0.15750666
v -0.00895723 -0.09350161 -0.15300247
v -0.02905629 -0.09350175 -0.15638308
v -0.02921016 -0.09350165 -0.14250813
v -0.02695598 -0.09350174 -0.15750750
v -0.01195640 -0.09350164 -0.15600331
v 0.00825232 -0.10250046 -0.00792617
v 0.01200136 -0.10250041 -0.00449655
v 0.00900178 -0.10250044 -0.00599739
v 0.00900169 -0.09350044 -0.00583079
v 0.01200187 -0.09350043 -0.00649662
v 0.01350215 -0.09350043 -0.00749620
v 0.00750173 -0.09350045 -0.00599787
v 0.00750131 -0.09350044 -0.00449787
v 0.00825089 -0.09350042 -0.00299766
v -0.01199822 -0.10250056 -0.00600325
v -0.00999869 -0.09350054 -0.00450276
v -0.01199785 -0.09350057 -0.00750332
v -0.00899785 -0.09350056 -0.00750248
v -0.00899910 -0.09350052 -0.00300248
v -0.01124743 -0.09350058 -0.00900311
v -0.01199827 -0.09350056 -0.00600332
v -0.01199910 -0.09350054 -0.00300332
v -0.00050282 -0.10250038 0.01049996
v -0.00150371 -0.09350036 0.01349961
v -0.00206537 -0.09350039 0.01049946
v 0.00299597 -0.09350033 0.01462587
v 0.00074755 -0.09350038 0.00900024
v -0.00150245 -0.09350039 0.00899961
v -0.00300329 -0.09350038 0.01199920
v 0.00149629 -0.09350034 0.01350045
v -0.00597226 -0.10250120 -0.09900157
v -0.00747217 -0.09350121 -0.09950206
v -0.00447161 -0.09350121 -0.10150122
v -0.00897189 -0.09350123 -0.10050248
v -0.00672273 -0.09350119 -0.09750185
v 0.00301435 -0.10250080 -0.05099906
v 0.00301425 -0.09350080 -0.05083246
v 0.00601471 -0.09350079 -0.05249829
v 0.00601387 -0.09350077 -0.04949829
v 0.00001513 -0.09350084 -0.05399996
v -0.01105940 -0.10250156 -0.14505299
v -0.01345969 -0.10250157 -0.14400366
v -0.01308514 -0.09800155 -0.14250359
v -0.01345975 -0.09350157 -0.14400373
v -0.01495954 -0.09350158 -0.14475415
v -0.01045933 -0.09350156 -0.14550289
v -0.01095975 -0.09350155 -0.14400303
v -0.01046016 -0.09350154 -0.14250289
v -0.01270891 -0.09350158 -0.14700352
v -0.02696016 -0.09350163 -0.14250750
v -0.02795961 -0.09350165 -0.14450778
v -0.02695891 -0.09350167 -0.14700750
v -0.02247267 -0.10250128 -0.09750618
v -0.02478074 -0.09350129 -0.09635304
v -0.02247245 -0.09350129 -0.09850624
v -0.02097314 -0.09350126 -0.09600583
v -0.02097273 -0.09350127 -0.09750582
v -0.02097231 -0.09350129 -0.09900582
v -0.01948696 -0.09350090 -0.04650541
v -0.01929615 -0.09350091 -0.04891381
v -0.01648675 -0.09350089 -0.04725457
v -0.02098654 -0.09350092 -0.04800583
v -0.00750282 -0.10250042 0.01049800
v -0.00733559 -0.09800043 0.00837302
v -0.00450368 -0.09800038 0.01349881
v -0.00416903 -0.09800041 0.00874890
v -0.00557473 -0.09800039 0.01211389
v -0.00600204 -0.09350043 0.00749836
v -0.00825225 -0.09350044 0.00824773
v -0.00750245 -0.09350043 0.00899794
v -0.00900329 -0.09350042 0.01199752
v -0.00630365 -0.09350039 0.01328399
v -0.00450329 -0.09350039 0.01199878
v -0.00375225 -0.09350041 0.00824899
v -0.00450245 -0.09350041 0.00899878
v 0.00599760 -0.10250035 0.00900177
v 0.00749676 -0.10250032 0.01200219
v 0.00699671 -0.09350032 0.01200199
v 0.00599796 -0.09350036 0.00750171
v 0.00494735 -0.09350035 0.00968323
v 0.00749545 -0.09350029 0.01650213
v 0.00899692 -0.09350032 0.01125254
v 0.00899754 -0.09350033 0.00900255
v 0.01049838 -0.09350035 0.00600296
v 0.00449796 -0.09350037 0.00750129
v 0.00299775 -0.09350037 0.00825087
v 0.01050053 -0.10250040 -0.00149697
v 0.01350053 -0.10250038 -0.00149613
v 0.01049969 -0.10250038 0.00150303
v 0.01410022 -0.09800037 -0.00049600
v 0.01250092 -0.09800040 -0.00299645
v 0.00989994 -0.09800039 0.00050283
v 0.01149925 -0.09800036 0.00300328
v 0.01050075 -0.09350041 -0.00249704
v 0.00900048 -0.09350041 -0.00149745
v 0.00900006 -0.09350040 0.00000255
v 0.00899964 -0.09350039 0.00150255
v 0.01169928 -0.09350036 0.00278901
v 0.01449964 -0.09350036 0.00150408
v 0.01450048 -0.09350038 -0.00149592
v 0.01350089 -0.09350039 -0.00299620
v 0.00500341 -0.09350051 -0.01199857
v 0.00666924 -0.09350048 -0.00899811
v 0.00900320 -0.09350048 -0.01124745
v 0.00300299 -0.09350051 -0.01049913
v 0.00600215 -0.09350047 -0.00749829
v -0.01050031 -0.10250050 0.00149717
v -0.01349999 -0.09350053 0.00016293
v -0.01049952 -0.09350052 -0.00150290
v -0.01050036 -0.09350050 0.00149710
v -0.01349910 -0.09350055 -0.00300374
v -0.01499973 -0.09350054 -0.00075415
v -0.01500036 -0.09350053 0.00149585
v 0.00550095 -0.10250044 -0.00299837
v -0.00449905 -0.10250050 -0.00300116
v -0.00299863 -0.10250050 -0.00450074
v -0.00060159 -0.09350041 0.00588448
v -0.00487595 -0.09350045 0.00359867
v -0.00599910 -0.09350051 -0.00300164
v -0.00374876 -0.09350050 -0.00425101
v -0.00149827 -0.09350050 -0.00600039
v 0.00075173 -0.09350049 -0.00599976
v 0.00300159 -0.09350047 -0.00549913
v 0.00450131 -0.09350046 -0.00449871
v 0.00566756 -0.09350044 -0.00299838
v 0.00599922 -0.09350039 0.00300171
v 0.00412397 -0.09350040 0.00390118
v 0.00000341 -0.09350054 -0.01199997
v -0.00149631 -0.09350055 -0.01300039
v 0.00150383 -0.09350054 -0.01349955
v 0.00150341 -0.09350053 -0.01199955
v 0.00021853 -0.09350056 -0.01499991
v -0.01200245 -0.09350045 0.00899668
v -0.01266828 -0.09350048 0.00599650
v -0.01050204 -0.09350046 0.00749710
v -0.01200120 -0.09350049 0.00449668
v -0.01350120 -0.09350050 0.00449626
v -0.01500162 -0.09350049 0.00599585
v -0.01870891 -0.09350162 -0.14700519
v -0.02524528 -0.09350164 -0.14464988
v -0.02097901 -0.09350111 -0.07500583
v -0.01873571 -0.09350093 -0.05100520
v -0.00298571 -0.09350083 -0.05100080
v -0.00898654 -0.09350085 -0.04800248
v 0.01800027 -0.09350035 -0.00074494
v 0.01125487 -0.09350051 -0.01724683
v -0.01537159 -0.09350062 -0.01200426
v -0.01649617 -0.09350064 -0.01350457
v -0.01649848 -0.09350058 -0.00525457
v 0.01425246 -0.09350043 -0.00862099
v -0.01499848 -0.09350057 -0.00525415
v -0.00900062 -0.09350048 0.00243502
v -0.01197147 -0.09350125 -0.10200331
v -0.02396016 -0.09350162 -0.14250666
v -0.02097063 -0.09350133 -0.10500582
v 0.00450383 -0.09350052 -0.01349871
v 0.01199880 -0.09350035 0.00450338
v 0.01462349 -0.09350032 0.00562912
v 0.01285552 -0.09350033 0.00600362
v 0.01349754 -0.09350031 0.00900380
v 0.01049754 -0.09350032 0.00900296
v 0.01199843 -0.10250034 0.00600345
v -0.01366313 -0.10506497 0.01030814
v -0.01368176 -0.10600048 0.00624289
v -0.01372253 -0.10300047 0.00812284
v -0.01068488 -0.10442315 0.00560014
v -0.01053668 -0.10600046 0.00746191
v -0.01125358 -0.10600045 0.00850800
v 0.00224182 -0.10600198 -0.21382288
v 0.00071934 -0.10600194 -0.20660087
v 0.00664401 -0.10600191 -0.20834642
v -0.01144258 -0.10600202 -0.20803158
v 0.01272473 -0.10600187 -0.20649114
v -0.00960620 -0.10600191 -0.19526912
v 0.00002939 -0.10581435 -0.19424810
v 0.00533035 -0.10600186 -0.19961847
v 0.00730841 -0.10600178 -0.19041885
v -0.02403319 -0.10600172 -0.15631326
v -0.01488803 -0.10600158 -0.14435965
v -0.01789490 -0.10600126 -0.09852378
v -0.00855330 -0.10600146 -0.13344324
v -0.00774982 -0.10600121 -0.09947108
v -0.00793382 -0.10600107 -0.07976701
v -0.02059459 -0.10600107 -0.06955491
v -0.01453259 -0.10600059 -0.00733638
v 0.00232788 -0.10600067 -0.03227656
v 0.00443707 -0.10600051 -0.01210512
v -0.00534690 -0.10600045 0.00437768
v -0.01039050 -0.10600055 -0.00600278
v -0.01722492 -0.10600051 0.00598163
v -0.00971918 -0.10600050 0.00081216
v -0.01438890 -0.10600054 -0.00085721
v 0.00961110 -0.10600040 -0.00085051
v -0.00516646 -0.10600042 0.00839511
v 0.00332525 -0.10600039 0.00518337
v -0.01250078 -0.10600124 -0.09941155
v -0.01693204 -0.10483441 -0.07332850
v -0.02102565 -0.10600145 -0.12234775
v -0.02058016 -0.10600130 -0.10193575
v -0.01426172 -0.10600091 -0.05220374
v -0.01451284 -0.10600110 -0.07806909
v -0.00818140 -0.10600087 -0.05237113
v 0.00068686 -0.10600082 -0.05129167
v -0.00220949 -0.10565828 -0.10039195
v 0.00275183 -0.10600182 -0.19225908
v 0.00357726 -0.10600190 -0.20361582
v -0.00636204 -0.10600193 -0.20046953
v -0.00750820 -0.10600194 -0.20107720
v -0.00844305 -0.10600195 -0.20172721
v -0.00641068 -0.10600199 -0.20777508
v -0.00225015 -0.10600196 -0.20809654
v 0.00694324 -0.10600185 -0.19950136
v -0.00849007 -0.10600202 -0.21118265
v 0.00234427 -0.10600198 -0.21381158
v 0.00255721 -0.10600198 -0.21376427
v 0.01110003 -0.10600183 -0.20012615
v 0.00945176 -0.10600185 -0.20149955
v 0.01270070 -0.10404119 -0.20028262
v -0.00254001 -0.10600171 -0.17284562
v -0.00315074 -0.10600186 -0.19319919
v -0.00622365 -0.10600166 -0.16333235
v -0.00644026 -0.10600188 -0.19283449
v -0.01040631 -0.10600155 -0.14467940
v -0.01216360 -0.10411266 -0.14274543
v -0.00643015 -0.10600122 -0.10208360
v -0.00567713 -0.10600107 -0.08136346
v 0.00959415 -0.10538963 -0.04281867
v 0.01779630 -0.10600032 0.00318169
v 0.01458448 -0.10600036 0.00082655
v 0.00912408 -0.10600032 0.01046081
v -0.00470038 -0.10514062 0.01431622
v -0.00000322 -0.10600036 0.01200012
v -0.01741284 -0.10600077 -0.03043881
v -0.02262734 -0.10600092 -0.04821993
v -0.02726252 -0.10600133 -0.09735508
v -0.01213151 -0.10483531 -0.20153796
v -0.00897352 -0.10600193 -0.19842607
v -0.00403283 -0.10529532 -0.10088218
v 0.00469160 -0.10600081 -0.05332250
v 0.00441747 -0.10600078 -0.04910762
v 0.00593209 -0.10535793 -0.05180956
v -0.02505385 -0.10600164 -0.14466947
v -0.02677396 -0.10600164 -0.14317796
v -0.03069118 -0.10450171 -0.15025878
v -0.02938628 -0.10600167 -0.14549714
v -0.02289150 -0.10600127 -0.09581678
v -0.02225680 -0.10600129 -0.09928924
v -0.02174923 -0.10600128 -0.09743244
v -0.02521166 -0.10600130 -0.09804182
v -0.01874299 -0.10600089 -0.04598737
v -0.01813721 -0.10600091 -0.04968614
v -0.02004664 -0.10600092 -0.04882535
v 0.00652969 -0.10600046 -0.00628329
v 0.00869527 -0.10600046 -0.00850899
v 0.01763329 -0.10484037 -0.00361532
v 0.01276897 -0.10600042 -0.00582471
v -0.00797393 -0.10600056 -0.00946125
v -0.00450784 -0.10600054 -0.00857454
v -0.00681051 -0.10600055 -0.00844159
v -0.00589714 -0.10600058 -0.01309038
v 0.00694418 -0.10600050 -0.01231540
v 0.00655936 -0.10600042 -0.00093772
v 0.00328652 -0.10502628 0.01793312
v 0.00352723 -0.10600035 0.01144761
v -0.00814422 -0.10600043 0.00926251
v 0.01390821 -0.10600031 0.00848874
v 0.01061743 -0.10600033 0.00776810
v 0.01112207 -0.10600035 0.00525221
v 0.00152772 -0.10600053 -0.01266932
v -0.01040292 -0.10600084 -0.04535834
v 0.00406553 -0.10600066 -0.03233822
v 0.00219116 -0.10600067 -0.03234607
v 0.00158466 -0.10600078 -0.04707362
v -0.00461679 -0.10600072 -0.03439312
v -0.01358370 -0.10600080 -0.03786228
v -0.01274367 -0.10600067 -0.02074346
v -0.00806940 -0.10450065 -0.02107085
v 0.00136998 -0.10600055 -0.01492545
v 0.00177839 -0.10600061 -0.02369398
v -0.00070582 -0.10575744 -0.03217265
v 0.00035919 -0.10600056 -0.01561120
v 0.00018289 -0.10600056 -0.01564015
v 0.00094569 -0.10600061 -0.02241250
v 0.00121469 -0.10600055 -0.01512420
v 0.00151209 -0.10600061 -0.02282578
v -0.00198775 -0.10600057 -0.01448390
v 0.00066285 -0.10600061 -0.02230217
v 0.00176316 -0.10600061 -0.02353443
v 0.00072024 -0.10600056 -0.01549318
v 0.00100294 -0.10600055 -0.01531315
v -0.00122881 -0.10300040 0.00821033
v 0.01047139 -0.10300034 0.00675993
v -0.01168357 -0.10300055 -0.00458812
v -0.00809261 -0.10300046 0.00553799
v -0.00982996 -0.10300052 -0.00153152
v -0.00878387 -0.10300056 -0.00776016
v -0.00192841 -0.10521103 -0.00640494
v 0.00791786 -0.10300049 -0.01162365
v 0.00412181 -0.10300066 -0.03235184
v 0.00229059 -0.10300081 -0.05128641
v -0.02103365 -0.10300094 -0.05063317
v -0.02015557 -0.10300120 -0.08847669
v -0.02102308 -0.10300121 -0.08847694
v -0.00771508 -0.10300121 -0.09945663
v -0.00816803 -0.10300122 -0.10033198
v -0.01994028 -0.10300144 -0.12197396
v -0.02212800 -0.10300193 -0.18775860
v -0.00814901 -0.10300171 -0.16847848
v -0.01917724 -0.10300196 -0.19446766
v -0.00796158 -0.10300190 -0.19526868
v 0.01386212 -0.10300179 -0.19748086
v -0.00085635 -0.10300194 -0.20535266
v -0.01141182 -0.10300202 -0.20807243
v 0.00234425 -0.10300198 -0.21381160
v 0.00273735 -0.10300193 -0.20726039
v 0.00699978 -0.10300191 -0.20860773
v -0.01423282 -0.10300091 -0.05224695
v -0.01612323 -0.10300125 -0.09869970
v -0.00929832 -0.10300084 -0.04614676
v 0.00250725 -0.10300075 -0.04303726
v 0.00232840 -0.10300067 -0.03227791
v -0.02142887 -0.10300130 -0.10066855
v -0.02194855 -0.10300145 -0.12146109
v -0.00793383 -0.10300107 -0.07976703
v -0.00632098 -0.10300107 -0.08126425
v -0.01050149 -0.10525120 -0.09528164
v 0.00210708 -0.10300185 -0.19511263
v -0.00239421 -0.10300186 -0.19371960
v -0.00723516 -0.10300194 -0.20068310
v -0.00880409 -0.10300193 -0.19820339
v -0.00540624 -0.10300192 -0.19990369
v -0.00332787 -0.10300196 -0.20644928
v -0.00637424 -0.10300198 -0.20748904
v 0.00819114 -0.10300186 -0.20138332
v 0.00684925 -0.10300185 -0.19905039
v 0.01066490 -0.10300190 -0.20914386
v 0.00658941 -0.10546195 -0.21253585
v -0.00141390 -0.10300200 -0.21403281
v 0.00224180 -0.10300198 -0.21382290
v -0.00447554 -0.10364716 -0.21153075
v -0.01070932 -0.10300196 -0.20059645
v -0.00884605 -0.10300196 -0.20187272
v -0.02929739 -0.10300165 -0.14347842
v -0.02276533 -0.10300094 -0.04967922
v -0.02726194 -0.10300131 -0.09735357
v -0.02026772 -0.10300073 -0.02313940
v -0.01558133 -0.10300053 0.00185211
v -0.01600503 -0.10300048 0.00832669
v 0.00097376 -0.10300034 0.01455392
v -0.00264635 -0.10300038 0.01233523
v 0.00225158 -0.10300036 0.01129372
v 0.01187884 -0.10300028 0.01398864
v 0.01059156 -0.10300040 -0.00224603
v 0.01378559 -0.10300034 0.00377319
v 0.01088846 -0.10300037 0.00192626
v 0.01341309 -0.10300041 -0.00476689
v -0.00128023 -0.10300082 -0.05082187
v 0.00220413 -0.10300101 -0.07886654
v -0.01074228 -0.10300156 -0.14513957
v -0.01121493 -0.10300126 -0.10297524
v -0.00849175 -0.10300158 -0.14989207
v -0.01443597 -0.10300158 -0.14526942
v -0.01366849 -0.10300156 -0.14281050
v -0.00545417 -0.10318350 -0.16606057
v -0.00314776 -0.10526851 -0.19106841
v -0.00664517 -0.10300188 -0.19235208
v -0.00070922 -0.10410032 -0.17617359
v 0.00770259 -0.10300179 -0.19137353
v 0.00251964 -0.10300182 -0.19199895
v 0.00371920 -0.10300183 -0.19363053
v -0.00456324 -0.10300119 -0.09928642
v -0.00632183 -0.10401733 -0.09839898
v -0.00399354 -0.10300120 -0.10038966
v -0.00668011 -0.10300122 -0.10195529
v 0.00525652 -0.10300078 -0.04986810
v 0.00273800 -0.10300079 -0.04962284
v 0.00239573 -0.10300081 -0.05165142
v 0.00247079 -0.10300081 -0.05181354
v 0.00251911 -0.10300099 -0.07733034
v 0.00488700 -0.10300080 -0.05309833
v -0.02872561 -0.10300167 -0.14608385
v -0.02503896 -0.10300164 -0.14500759
v -0.02428167 -0.10541982 -0.18295184
v -0.02308340 -0.10300127 -0.09592773
v -0.01750830 -0.10300088 -0.04612433
v -0.01986477 -0.10300092 -0.04958788
v 0.00927308 -0.10300045 -0.00804660
v -0.00754383 -0.10300058 -0.01255893
v -0.00429132 -0.10300053 -0.00737509
v 0.00721707 -0.10300046 -0.00775967
v 0.00424905 -0.10300048 -0.00763734
v 0.00536493 -0.10300051 -0.01254171
v 0.00359998 -0.10300039 0.00607302
v 0.00506509 -0.10300045 -0.00358860
v -0.00501441 -0.10300045 0.00350888
v 0.00833137 -0.10300033 0.00974125
v 0.00444992 -0.10300033 0.01257965
v 0.00514615 -0.10300036 0.00826913
v -0.00724227 -0.10300040 0.01266689
v -0.00815704 -0.10300042 0.01019671
v -0.00423601 -0.10300041 0.00914733
v 0.01576337 -0.10415414 0.00909881
v 0.01063617 -0.10300033 0.00785100
v 0.01304517 -0.10300031 0.00871352
v -0.00119579 -0.10300055 -0.01247472
v 0.00338540 -0.10300052 -0.01186651
v 0.00087669 -0.10300054 -0.01259229
v -0.00075791 -0.10300067 -0.03032960
v -0.01072639 -0.10300085 -0.04675363
v 0.00219114 -0.10300067 -0.03234609
v 0.00136997 -0.10300055 -0.01492548
v 0.00177837 -0.10300061 -0.02369400
v 0.00173892 -0.10300054 -0.01393362
v 0.00018287 -0.10300056 -0.01564018
v -0.00047059 -0.10300058 -0.01829531
v 0.00176314 -0.10300061 -0.02353445
v 0.00068042 -0.10300056 -0.01552568
v 0.00113906 -0.10300055 -0.01519747
v 0.00126189 -0.10300055 -0.01506773
v -0.01278206 -0.10300067 -0.02077380
v -0.01457323 -0.10300080 -0.03668419
v -0.01357098 -0.10300080 -0.03791529
f 7 6 25
f 7 25 30
f 23 25 6
f 24 23 6
f 91 71 8
f 28 10 8
f 8 71 12
f 32 27 13
f 24 15 76
f 26 17 4
f 4 13 26
f 17 18 4
f 12 19 20
f 76 21 22
f 22 24 76
f 30 25 78
f 30 78 27
f 13 27 26
f 76 14 28
f 28 21 76
f 32 31 27
f 2 29 32
f 31 30 27
f 12 11 33
f 33 18 12
f 4 18 34
f 13 4 85
f 4 35 85
f 32 36 37
f 30 2 38
f 42 39 41
f 42 40 39
f 42 15 6
f 15 42 43
f 28 44 45
f 45 44 10
f 95 46 10
f 95 47 1
f 95 1 46
f 1 92 91
f 47 92 1
f 48 49 71
f 11 71 49
f 34 50 51
f 5 51 52
f 4 5 52
f 4 52 54
f 72 4 54
f 54 53 72
f 53 55 13
f 55 36 32
f 53 13 72
f 51 5 34
f 49 50 11
f 91 48 71
f 43 14 16
f 43 16 15
f 38 39 6
f 38 6 30
f 37 38 2
f 37 2 32
f 28 8 21
f 20 8 12
f 10 46 8
f 8 46 1
f 8 1 91
f 6 15 24
f 56 57 58
f 80 75 103
f 65 77 66
f 77 103 66
f 58 57 96
f 68 69 59
f 71 70 83
f 73 79 67
f 76 75 80
f 76 80 58
f 78 77 65
f 65 79 78
f 22 60 58
f 58 80 22
f 59 60 81
f 68 59 81
f 81 70 68
f 62 64 26
f 31 67 79
f 79 65 31
f 70 82 83
f 84 83 82
f 64 63 84
f 63 83 84
f 85 62 73
f 73 72 86
f 86 85 73
f 85 72 62
f 72 110 54
f 54 87 62
f 87 88 62
f 63 62 88
f 88 89 63
f 83 63 89
f 71 90 69
f 59 69 91
f 56 92 94
f 56 59 91
f 91 92 56
f 93 57 95
f 57 1 95
f 95 56 94
f 95 1 56
f 96 57 93
f 93 98 97
f 93 97 96
f 96 97 99
f 74 58 101
f 75 74 101
f 75 101 104
f 102 103 104
f 101 102 104
f 103 75 104
f 103 102 105
f 103 105 106
f 106 107 103
f 65 103 107
f 107 29 65
f 67 108 36
f 67 29 108
f 72 73 110
f 109 73 67
f 73 109 110
f 36 109 67
f 107 108 29
f 100 101 58
f 100 58 99
f 90 71 83
f 54 62 72
f 84 82 64
f 26 73 62
f 103 77 61
f 103 61 80
f 60 59 58
f 58 59 56
f 85 86 13
f 72 13 86
f 85 35 72
f 103 104 42
f 104 103 40
f 40 42 104
f 6 40 103
f 42 6 103
f 84 83 34
f 83 84 34
f 18 33 83
f 34 18 83
f 50 34 83
f 11 50 83
f 33 11 83
f 67 31 32
f 29 67 32
f 31 65 30
f 29 30 65
f 58 96 28
f 99 58 14
f 96 99 9
f 9 44 96
f 14 9 99
f 28 14 58
f 44 28 96
f 70 81 20
f 82 70 12
f 64 82 18
f 26 64 17
f 79 73 26
f 78 79 27
f 61 77 25
f 80 61 23
f 22 80 24
f 81 60 21
f 21 8 81
f 22 21 60
f 23 24 80
f 25 23 61
f 78 25 77
f 26 27 79
f 18 17 64
f 12 18 82
f 19 12 70
f 20 19 70
f 8 20 81
f 76 58 14
f 74 75 15
f 58 74 16
f 16 14 58
f 15 16 74
f 76 15 75
f 65 66 7
f 103 65 30
f 66 103 6
f 6 7 66
f 30 6 103
f 7 30 65
f 73 67 32
f 67 73 55
f 55 32 67
f 13 55 73
f 32 13 73
f 62 63 34
f 64 62 4
f 63 64 4
f 4 34 63
f 3 4 62
f 5 3 62
f 34 5 62
f 70 71 11
f 68 70 12
f 69 68 12
f 12 71 69
f 11 12 70
f 96 97 45
f 97 96 28
f 28 45 97
f 10 28 96
f 45 10 96
f 10 44 97
f 97 98 10
f 44 9 99
f 99 97 44
f 100 99 9
f 101 100 43
f 101 43 42
f 101 42 41
f 101 41 39
f 105 102 39
f 108 107 37
f 110 55 53
f 54 110 53
f 88 87 52
f 52 51 88
f 51 50 89
f 90 83 50
f 49 48 69
f 69 90 49
f 95 94 47
f 95 10 93
f 10 98 93
f 47 94 92
f 48 91 69
f 50 49 90
f 50 83 89
f 51 89 88
f 52 87 54
f 55 110 109
f 36 55 109
f 37 36 108
f 38 37 107
f 38 107 106
f 38 106 105
f 39 38 105
f 39 102 101
f 14 43 100
f 9 14 100
f 113 114 116
f 115 116 114
f 112 114 113
f 111 112 113
f 116 111 113
f 285 121 119
f 117 119 118
f 118 119 121
f 274 129 130
f 148 274 131
f 217 134 135
f 136 133 137
f 140 138 133
f 139 136 138
f 140 139 138
f 133 139 140
f 216 201 141
f 148 149 274
f 131 152 174
f 124 153 123
f 124 154 121
f 154 118 121
f 123 122 155
f 118 155 156
f 117 118 159
f 118 120 158
f 158 159 118
f 124 121 160
f 165 160 121
f 288 159 158
f 158 120 161
f 288 117 159
f 117 162 163
f 117 163 285
f 164 165 121
f 160 166 125
f 125 153 124
f 125 315 153
f 123 153 315
f 313 123 167
f 313 168 123
f 170 169 122
f 168 170 123
f 170 313 167
f 167 312 170
f 122 123 170
f 312 169 170
f 171 127 331
f 172 171 129
f 172 129 127
f 144 127 129
f 141 203 177
f 177 176 216
f 141 177 216
f 143 211 180
f 180 179 142
f 211 179 180
f 142 143 180
f 182 194 132
f 184 185 122
f 157 184 120
f 320 152 131
f 320 186 152
f 130 320 131
f 151 174 187
f 175 188 189
f 190 126 146
f 191 190 146
f 193 191 146
f 190 193 126
f 192 331 193
f 193 331 126
f 197 194 183
f 183 146 197
f 196 195 128
f 195 197 146
f 132 145 200
f 200 182 132
f 218 198 199
f 199 148 218
f 199 200 145
f 199 145 148
f 201 203 141
f 204 202 203
f 201 204 203
f 245 137 206
f 205 207 137
f 207 206 137
f 208 225 245
f 201 245 217
f 202 209 175
f 209 135 175
f 142 213 136
f 136 143 142
f 201 216 210
f 216 143 210
f 201 210 245
f 212 211 143
f 178 143 216
f 178 212 143
f 350 178 214
f 178 216 215
f 215 214 178
f 214 216 176
f 213 111 116
f 116 115 213
f 136 213 114
f 138 136 114
f 114 112 138
f 234 245 225
f 234 217 245
f 218 222 198
f 175 135 219
f 223 181 198
f 222 223 198
f 208 133 224
f 133 181 224
f 220 226 227
f 227 228 220
f 229 230 231
f 226 232 227
f 220 134 217
f 231 233 229
f 230 234 235
f 225 235 234
f 238 237 236
f 237 229 236
f 227 232 238
f 217 226 220
f 235 231 230
f 236 227 238
f 233 236 229
f 224 225 208
f 221 151 188
f 221 188 175
f 219 221 175
f 219 135 134
f 112 111 138
f 115 114 213
f 213 179 111
f 212 178 211
f 245 136 137
f 135 201 217
f 206 208 245
f 200 198 182
f 194 196 128
f 185 155 122
f 184 122 331
f 183 193 146
f 182 183 194
f 182 198 181
f 138 181 133
f 175 203 202
f 173 130 129
f 144 146 127
f 169 171 331
f 315 167 123
f 158 161 288
f 160 125 124
f 157 120 156
f 118 156 120
f 150 151 218
f 148 150 218
f 147 128 195
f 147 195 146
f 146 126 127
f 145 149 148
f 128 145 132
f 139 133 136
f 205 137 133
f 208 205 133
f 128 132 194
f 130 131 274
f 129 274 144
f 331 127 126
f 122 169 331
f 119 117 285
f 243 242 244
f 244 241 243
f 243 295 242
f 295 243 241
f 244 336 368
f 241 244 368
f 249 265 250
f 251 250 266
f 252 273 320
f 266 252 253
f 330 254 310
f 255 256 258
f 256 312 258
f 260 263 262
f 145 250 265
f 265 274 145
f 266 274 252
f 175 305 268
f 268 247 175
f 330 270 271
f 252 265 272
f 274 265 252
f 258 276 123
f 260 261 290
f 290 277 260
f 278 123 279
f 277 278 279
f 279 260 277
f 288 260 286
f 260 288 280
f 281 261 260
f 280 281 260
f 275 259 283
f 166 283 259
f 264 282 166
f 262 287 286
f 261 184 290
f 278 289 184
f 289 290 184
f 278 184 258
f 270 291 293
f 249 251 292
f 251 293 292
f 239 179 298
f 298 299 239
f 298 179 211
f 303 301 341
f 301 302 203
f 247 304 175
f 319 305 306
f 305 248 306
f 306 152 319
f 253 252 322
f 307 254 308
f 253 307 308
f 308 266 253
f 311 310 254
f 254 307 172
f 309 310 307
f 255 310 309
f 258 312 314
f 276 313 315
f 314 312 315
f 314 276 258
f 275 315 317
f 317 318 275
f 315 316 317
f 318 316 275
f 175 328 323
f 305 175 324
f 323 324 175
f 248 305 324
f 325 326 327
f 327 306 325
f 248 325 306
f 189 327 328
f 329 331 192
f 251 266 332
f 332 293 251
f 270 332 266
f 332 270 293
f 249 292 334
f 357 265 333
f 265 334 333
f 301 203 304
f 304 246 335
f 225 336 337
f 354 340 247
f 246 247 340
f 339 342 338
f 342 341 338
f 341 242 239
f 341 343 242
f 242 343 337
f 344 345 300
f 345 299 211
f 239 299 346
f 341 239 346
f 349 179 239
f 349 347 179
f 349 239 242
f 351 240 344
f 352 344 350
f 352 351 344
f 240 302 341
f 295 111 113
f 114 113 348
f 114 348 242
f 113 111 348
f 114 242 295
f 113 114 295
f 225 337 353
f 354 269 361
f 337 354 353
f 355 353 354
f 228 357 356
f 359 358 360
f 358 356 360
f 361 269 358
f 358 359 361
f 360 366 367
f 366 360 364
f 365 364 363
f 360 367 359
f 363 362 365
f 353 363 225
f 364 365 366
f 369 292 294
f 294 295 369
f 370 357 333
f 370 356 357
f 369 370 333
f 369 333 292
f 368 369 295
f 302 352 350
f 348 349 242
f 346 344 341
f 345 346 299
f 345 211 300
f 245 339 354
f 336 225 368
f 304 338 301
f 335 246 338
f 334 265 249
f 333 334 292
f 330 255 329
f 326 328 327
f 315 275 276
f 315 313 314
f 309 312 256
f 309 256 255
f 172 311 254
f 322 307 253
f 152 321 319
f 302 303 341
f 300 350 344
f 297 298 211
f 111 347 348
f 296 111 295
f 295 241 368
f 291 270 330
f 331 329 255
f 285 262 264
f 166 284 264
f 282 264 283
f 281 288 261
f 278 258 123
f 260 283 263
f 273 305 319
f 272 273 252
f 271 254 330
f 267 305 357
f 145 266 250
f 264 263 283
f 264 262 263
f 262 286 260
f 259 275 316
f 258 184 257
f 258 257 255
f 310 255 330
f 319 320 273
f 250 251 249
f 304 247 246
f 247 269 354
f 354 337 245
f 337 336 244
f 301 338 341
f 337 244 242
f 240 341 344
f 125 166 316
f 259 316 166
f 166 164 121
f 284 121 285
f 285 163 262
f 286 287 117
f 162 117 287
f 287 262 162
f 161 120 261
f 261 288 161
f 117 288 286
f 163 162 262
f 285 264 284
f 121 284 166
f 125 316 315
f 312 167 315
f 129 307 322
f 322 173 129
f 173 322 186
f 309 307 171
f 169 312 309
f 309 171 169
f 129 171 307
f 306 174 152
f 327 187 174
f 174 306 327
f 187 327 189
f 328 175 189
f 203 175 304
f 321 152 186
f 296 295 138
f 111 296 138
f 179 347 111
f 299 297 211
f 211 178 300
f 300 178 350
f 302 350 176
f 302 176 177
f 203 302 177
f 214 176 350
f 295 181 138
f 295 294 181
f 182 181 294
f 294 292 182
f 183 182 292
f 292 293 183
f 183 293 291
f 291 193 183
f 193 291 329
f 192 193 329
f 255 257 331
f 257 184 331
f 120 184 261
f 272 265 148
f 272 131 174
f 174 273 272
f 148 131 272
f 174 151 305
f 174 305 273
f 357 305 151
f 151 150 357
f 357 150 148
f 265 357 148
f 128 147 270
f 144 128 266
f 270 266 128
f 270 147 146
f 146 271 270
f 146 254 271
f 308 254 146
f 146 144 308
f 266 308 144
f 151 305 267
f 151 221 305
f 221 219 247
f 221 247 268
f 221 268 305
f 358 269 134
f 358 220 228
f 228 356 358
f 247 219 134
f 134 269 247
f 134 220 358
f 228 222 357
f 218 151 267
f 222 218 357
f 267 357 218
f 222 228 356
f 231 235 363
f 233 231 363
f 236 233 363
f 227 236 364
f 228 227 360
f 360 356 228
f 364 360 227
f 363 364 236
f 225 363 235
f 224 368 225
f 368 224 181
f 181 369 368
f 223 222 370
f 181 223 370
f 370 369 181
f 356 370 222
f 145 128 266
f 128 144 266
f 144 274 266
f 145 274 149
f 351 352 214
f 240 351 216
f 215 216 351
f 302 240 216
f 352 302 214
f 216 214 302
f 214 215 351
f 348 347 213
f 349 348 213
f 347 349 179
f 142 179 349
f 213 142 349
f 179 213 347
f 346 345 212
f 344 346 178
f 345 344 178
f 178 212 345
f 212 178 346
f 301 303 141
f 302 301 177
f 303 302 177
f 141 177 301
f 177 141 303
f 343 341 136
f 337 343 136
f 342 339 245
f 341 342 210
f 210 143 341
f 143 136 341
f 245 210 342
f 136 245 337
f 354 339 201
f 340 354 135
f 246 340 209
f 338 246 202
f 339 338 201
f 202 201 338
f 209 202 246
f 135 209 340
f 201 135 354
f 336 337 205
f 337 336 208
f 208 206 337
f 205 208 336
f 207 205 337
f 206 207 337
f 243 295 140
f 295 243 139
f 140 139 243
f 139 140 295
f 338 304 201
f 335 338 202
f 304 335 202
f 204 201 304
f 202 204 304
f 201 202 338
f 244 241 137
f 241 244 137
f 299 298 180
f 297 299 180
f 298 297 180
f 334 333 198
f 333 334 199
f 199 198 333
f 200 199 334
f 198 200 334
f 270 332 197
f 332 270 195
f 196 194 332
f 195 196 332
f 197 195 270
f 194 197 332
f 329 291 193
f 330 329 193
f 193 190 330
f 291 330 190
f 190 191 291
f 191 193 291
f 310 311 127
f 307 310 127
f 172 307 171
f 127 171 307
f 172 127 311
f 248 324 151
f 325 248 151
f 326 325 151
f 151 187 328
f 328 326 151
f 323 328 189
f 189 188 323
f 324 323 188
f 187 189 328
f 188 151 324
f 252 320 130
f 322 252 130
f 186 322 173
f 319 321 186
f 186 320 319
f 130 173 322
f 317 316 153
f 318 317 153
f 316 318 153
f 125 153 316
f 153 125 316
f 282 283 160
f 166 282 165
f 166 160 283
f 165 164 166
f 160 165 282
f 263 264 118
f 264 263 118
f 119 118 264
f 118 119 264
f 288 281 158
f 280 288 159
f 281 280 159
f 158 159 288
f 159 158 281
f 289 278 184
f 290 289 184
f 277 290 156
f 278 277 155
f 155 185 278
f 156 155 277
f 157 156 290
f 184 157 290
f 185 184 278
f 276 314 170
f 313 170 314
f 168 313 276
f 170 168 276
f 276 275 123
f 260 279 118
f 283 260 118
f 275 283 124
f 124 123 275
f 154 124 283
f 118 154 283
f 155 118 279
f 123 155 279
f 363 353 234
f 362 363 234
f 365 362 230
f 366 365 238
f 367 366 232
f 359 367 232
f 361 359 226
f 354 361 217
f 355 354 217
f 353 355 217
f 226 217 361
f 232 226 359
f 238 232 366
f 237 238 365
f 229 237 365
f 230 229 365
f 234 230 362
f 217 234 353
f 372 371 373
f 371 374 373
f 376 373 374
f 377 372 373
f 378 382 373
f 377 373 382
f 420 373 376
f 373 420 378
f 420 376 374
f 371 375 420
f 374 371 420
f 379 375 371
f 371 372 379
f 382 379 372
f 372 377 382
f 390 375 399
f 399 380 390
f 392 389 420
f 375 391 392
f 382 396 383
f 384 397 382
f 386 385 403
f 385 379 403
f 379 406 400
f 388 381 420
f 400 375 390
f 390 380 406
f 375 400 391
f 388 387 381
f 381 387 394
f 414 390 406
f 394 395 381
f 392 391 389
f 387 393 381
f 394 387 381
f 395 394 381
f 420 395 381
f 420 381 393
f 381 378 420
f 396 397 378
f 378 381 396
f 382 378 397
f 396 382 397
f 397 398 384
f 384 379 397
f 397 384 398
f 418 411 406
f 411 418 379
f 386 406 411
f 385 386 411
f 379 385 411
f 406 379 418
f 390 411 406
f 399 390 380
f 406 380 390
f 400 406 411
f 399 375 400
f 406 401 499
f 406 402 401
f 384 483 379
f 471 384 382
f 382 383 471
f 404 383 396
f 396 405 404
f 381 467 405
f 488 467 381
f 396 381 405
f 471 483 384
f 403 402 386
f 406 386 402
f 381 408 407
f 381 407 488
f 381 395 408
f 395 509 408
f 395 409 509
f 413 411 414
f 400 411 418
f 397 420 422
f 416 422 420
f 422 417 397
f 423 418 415
f 417 423 397
f 423 415 397
f 400 421 419
f 421 400 418
f 400 419 424
f 420 400 424
f 424 416 420
f 388 420 393
f 393 387 388
f 420 389 391
f 420 391 392
f 392 391 400
f 399 400 390
f 414 411 390
f 415 418 411
f 415 398 397
f 397 398 410
f 397 410 519
f 519 409 396
f 396 397 519
f 396 395 397
f 396 409 395
f 397 395 420
f 414 406 550
f 423 421 418
f 423 417 422
f 416 424 422
f 419 421 424
f 423 422 425
f 422 424 425
f 424 421 425
f 421 423 425
f 445 426 427
f 537 430 408
f 429 428 430
f 537 429 430
f 432 446 431
f 431 433 435
f 435 432 431
f 455 433 435
f 433 434 435
f 436 462 451
f 463 436 451
f 428 439 440
f 438 440 439
f 438 437 469
f 462 469 437
f 462 437 451
f 458 463 451
f 454 458 451
f 434 454 451
f 434 451 435
f 433 455 435
f 448 514 452
f 428 429 439
f 438 441 522
f 438 522 437
f 437 443 444
f 451 444 447
f 451 447 449
f 435 451 449
f 435 449 448
f 435 448 452
f 435 452 432
f 431 450 445
f 445 427 431
f 545 450 431
f 545 431 446
f 444 451 437
f 441 438 439
f 445 450 545
f 441 439 429
f 442 437 522
f 443 437 442
f 458 436 463
f 455 433 431
f 430 428 440
f 426 431 427
f 453 430 438
f 456 438 469
f 455 434 433
f 495 431 426
f 466 463 458
f 426 461 495
f 431 495 460
f 431 460 479
f 431 476 455
f 434 459 454
f 438 456 492
f 438 492 457
f 438 457 453
f 440 438 430
f 436 463 462
f 379 485 403
f 404 405 467
f 474 471 383
f 462 474 383
f 466 462 463
f 458 464 465
f 467 456 470
f 459 458 454
f 479 460 478
f 481 482 483
f 480 434 482
f 476 484 455
f 483 487 379
f 467 488 489
f 491 492 456
f 496 402 403
f 497 498 402
f 498 497 460
f 496 478 460
f 500 461 501
f 406 499 500
f 401 402 502
f 504 495 461
f 495 504 502
f 461 503 504
f 483 480 481
f 404 462 383
f 403 485 475
f 519 521 409
f 521 519 506
f 411 412 542
f 512 413 414
f 512 511 445
f 478 545 446
f 516 515 441
f 506 444 443
f 518 447 444
f 506 510 444
f 507 447 518
f 520 509 409
f 409 521 523
f 523 522 409
f 526 519 410
f 526 410 525
f 529 528 415
f 452 446 432
f 398 532 410
f 532 549 531
f 533 532 398
f 448 449 534
f 535 514 549
f 533 536 535
f 398 536 533
f 536 398 415
f 429 539 441
f 441 539 540
f 545 513 542
f 545 543 544
f 412 544 543
f 545 411 546
f 547 445 545
f 547 461 546
f 546 461 545
f 534 514 448
f 524 548 443
f 442 523 443
f 444 510 518
f 515 522 441
f 519 510 506
f 508 527 507
f 505 517 549
f 513 530 542
f 410 532 483
f 483 471 410
f 410 471 480
f 480 517 410
f 549 517 480
f 473 549 480
f 473 459 449
f 534 449 459
f 459 434 534
f 534 434 480
f 480 549 534
f 531 549 480
f 531 480 483
f 483 532 531
f 510 519 474
f 474 462 510
f 444 510 462
f 462 463 444
f 462 510 444
f 444 463 462
f 519 510 474
f 466 474 510
f 510 518 466
f 510 462 466
f 466 518 510
f 383 462 506
f 443 506 462
f 506 443 462
f 462 510 506
f 510 462 383
f 383 506 510
f 474 519 526
f 518 519 474
f 474 466 518
f 518 466 458
f 458 507 518
f 507 458 465
f 465 508 507
f 527 508 465
f 527 464 474
f 474 526 527
f 465 464 527
f 510 519 474
f 510 474 466
f 466 518 510
f 447 518 466
f 518 466 474
f 474 519 518
f 470 523 521
f 521 467 470
f 522 523 470
f 442 522 456
f 456 469 442
f 470 456 522
f 470 523 442
f 469 470 442
f 467 521 523
f 523 470 467
f 520 409 467
f 467 489 520
f 520 489 490
f 456 522 490
f 409 522 456
f 456 467 409
f 404 468 524
f 469 462 443
f 548 524 468
f 443 548 469
f 468 469 548
f 521 506 462
f 462 506 443
f 462 404 521
f 521 404 467
f 523 521 467
f 467 470 523
f 470 469 443
f 443 523 470
f 524 443 469
f 469 468 524
f 468 404 524
f 525 410 471
f 471 474 525
f 449 525 474
f 474 459 449
f 473 449 459
f 549 480 472
f 472 505 549
f 473 480 549
f 517 505 472
f 517 480 471
f 471 410 517
f 472 480 517
f 464 527 526
f 526 474 464
f 527 464 458
f 458 507 527
f 449 507 458
f 458 459 449
f 449 459 474
f 474 525 449
f 474 526 525
f 477 403 411
f 415 411 403
f 475 529 415
f 403 475 415
f 446 452 476
f 529 475 476
f 476 452 529
f 476 431 446
f 530 446 431
f 530 431 477
f 477 411 530
f 475 485 415
f 415 485 484
f 484 528 415
f 484 476 452
f 452 528 484
f 529 452 476
f 476 475 529
f 529 475 484
f 484 528 529
f 415 528 484
f 484 475 415
f 530 513 478
f 513 542 477
f 477 478 513
f 542 403 477
f 478 477 530
f 446 530 477
f 477 479 446
f 478 446 479
f 478 496 542
f 542 513 478
f 496 403 542
f 403 411 542
f 542 477 403
f 477 431 530
f 530 411 477
f 403 477 411
f 431 446 530
f 431 479 446
f 446 479 477
f 477 530 446
f 477 542 530
f 482 535 536
f 536 483 482
f 535 482 434
f 434 514 535
f 434 455 514
f 514 455 487
f 536 514 487
f 487 483 536
f 532 533 482
f 482 481 532
f 534 549 480
f 532 481 480
f 449 534 434
f 480 549 532
f 480 434 534
f 534 449 434
f 434 514 534
f 535 549 480
f 514 434 480
f 532 535 482
f 480 549 514
f 480 482 535
f 482 481 532
f 533 535 482
f 532 481 482
f 482 535 532
f 415 528 484
f 484 485 415
f 452 514 486
f 486 514 415
f 486 455 452
f 455 528 452
f 455 484 528
f 487 536 415
f 415 379 487
f 514 536 487
f 487 455 514
f 415 514 486
f 455 486 514
f 406 414 550
f 500 512 414
f 414 406 500
f 445 511 501
f 512 500 501
f 501 511 512
f 501 461 445
f 426 445 461
f 488 408 509
f 429 537 430
f 430 537 408
f 430 453 429
f 539 429 453
f 453 457 539
f 539 457 494
f 494 538 539
f 509 538 494
f 494 488 509
f 488 509 520
f 520 489 488
f 509 488 541
f 516 492 491
f 491 515 516
f 541 492 516
f 522 515 491
f 491 456 522
f 522 456 490
f 489 520 490
f 488 494 538
f 538 509 488
f 441 540 493
f 457 493 540
f 540 539 457
f 538 494 457
f 457 539 538
f 493 457 441
f 516 441 457
f 457 492 516
f 516 492 541
f 488 509 541
f 544 412 402
f 411 502 402
f 402 412 411
f 402 498 544
f 545 544 498
f 498 460 545
f 460 495 545
f 411 545 495
f 495 502 411
f 412 402 496
f 496 542 412
f 545 542 496
f 496 460 545
f 497 543 545
f 545 460 497
f 543 497 402
f 402 412 543
f 512 500 499
f 499 413 512
f 547 411 401
f 413 499 401
f 401 411 413
f 401 503 547
f 445 547 503
f 503 461 445
f 445 461 500
f 500 512 445
f 411 401 502
f 546 411 502
f 502 504 546
f 461 546 504
f 461 504 546
f 411 547 503
f 546 504 503
f 503 547 546
f 503 401 411
f 552 553 551
f 553 554 551
f 554 555 551
f 555 556 551
f 556 557 551
f 557 558 551
f 558 559 551
f 559 552 551
f 560 556 555
f 561 555 554
f 562 554 553
f 563 553 552
f 564 552 559
f 565 559 558
f 566 558 557
f 567 557 556
f 556 560 567
f 557 567 566
f 558 566 565
f 559 565 564
f 552 564 563
f 553 563 562
f 554 562 561
f 555 561 560
f 564 565 568
f 565 566 568
f 566 567 568
f 567 560 568
f 560 561 568
f 561 562 568
f 562 563 568
f 563 564 568
f 570 571 569
f 571 572 569
f 572 573 569
f 573 574 569
f 574 575 569
f 575 576 569
f 576 577 569
f 577 570 569
f 578 574 573
f 579 573 572
f 580 572 571
f 581 571 570
f 582 570 577
f 583 577 576
f 584 576 575
f 585 575 574
f 574 578 585
f 575 585 584
f 576 584 583
f 577 583 582
f 570 582 581
f 571 581 580
f 572 580 579
f 573 579 578
f 582 583 586
f 583 584 586
f 584 585 586
f 585 578 586
f 578 579 586
f 579 580 586
f 580 581 586
f 581 582 586
f 588 589 587
f 589 590 587
f 590 591 587
f 591 592 587
f 592 593 587
f 593 594 587
f 594 595 587
f 595 588 587
f 596 592 591
f 597 591 590
f 598 590 589
f 599 589 588
f 600 588 595
f 601 595 594
f 602 594 593
f 603 593 592
f 592 596 603
f 593 603 602
f 594 602 601
f 595 601 600
f 588 600 599
f 589 599 598
f 590 598 597
f 591 597 596
f 600 601 604
f 601 602 604
f 602 603 604
f 603 596 604
f 596 597 604
f 597 598 604
f 598 599 604
f 599 600 604
f 605 609 606
f 607 609 610
f 608 607 613
f 605 608 611
f 609 605 612
f 607 609 613
f 609 607 613
f 613 610 609
f 612 613 609
f 611 612 605
f 613 611 608
f 610 613 607
f 608 605 615
f 607 608 617
f 609 607 618
f 605 606 621
f 621 614 605
f 620 621 606
f 609 620 606
f 619 620 609
f 618 619 609
f 617 618 607
f 616 617 608
f 615 616 608
f 614 615 605
f 611 613 610
f 610 613 634
f 613 612 634
f 612 611 623
f 645 624 699
f 634 663 630
f 631 663 688
f 632 630 663
f 634 630 631
f 631 688 634
f 631 632 663
f 635 629 638
f 685 643 717
f 650 765 649
f 652 651 625
f 649 625 656
f 649 656 783
f 783 655 649
f 654 783 776
f 776 657 654
f 628 627 658
f 662 629 660
f 665 668 664
f 664 690 665
f 665 690 663
f 666 667 668
f 626 628 659
f 869 642 638
f 673 629 622
f 673 671 629
f 622 611 673
f 653 625 703
f 653 703 674
f 667 628 705
f 668 667 675
f 705 675 667
f 664 668 675
f 624 646 677
f 680 649 654
f 654 679 680
f 649 678 647
f 657 737 738
f 737 657 627
f 689 669 688
f 663 691 688
f 663 690 691
f 611 610 673
f 663 634 612
f 611 622 662
f 662 623 611
f 663 612 623
f 623 662 663
f 694 692 693
f 693 677 694
f 693 624 677
f 624 693 695
f 699 696 697
f 699 695 696
f 697 701 895
f 698 895 701
f 700 771 701
f 703 625 701
f 703 701 702
f 707 702 704
f 707 703 702
f 708 706 707
f 706 676 705
f 690 664 709
f 860 633 712
f 712 713 860
f 712 718 713
f 718 715 942
f 714 941 687
f 719 762 806
f 720 931 719
f 722 720 721
f 724 727 728
f 728 729 724
f 644 727 730
f 759 757 635
f 629 635 731
f 659 629 734
f 659 735 737
f 737 735 736
f 737 626 659
f 738 737 736
f 657 738 739
f 657 740 741
f 741 654 657
f 681 679 742
f 742 647 681
f 679 681 680
f 647 742 743
f 646 744 832
f 744 646 743
f 746 851 694
f 748 610 634
f 640 672 749
f 672 640 639
f 644 640 749
f 683 644 750
f 749 750 644
f 726 683 752
f 751 752 683
f 726 753 754
f 750 751 683
f 752 753 726
f 685 754 755
f 754 685 726
f 687 643 755
f 687 755 968
f 688 669 756
f 968 669 687
f 968 756 669
f 634 756 748
f 634 688 756
f 759 640 758
f 640 644 758
f 758 760 759
f 763 719 684
f 764 807 762
f 717 764 1016
f 1016 684 717
f 755 643 685
f 832 747 646
f 741 679 654
f 739 740 657
f 739 738 736
f 734 735 659
f 733 734 629
f 732 733 629
f 731 732 629
f 730 757 644
f 711 712 633
f 711 633 710
f 709 633 690
f 771 645 701
f 695 699 624
f 671 638 629
f 661 629 659
f 658 705 628
f 776 627 657
f 651 700 701
f 717 684 685
f 687 717 643
f 638 759 635
f 662 622 629
f 627 628 626
f 646 647 743
f 624 645 646
f 652 700 651
f 647 650 649
f 625 765 767
f 767 1007 625
f 1007 766 652
f 652 625 1007
f 700 652 766
f 769 767 765
f 768 769 650
f 1009 768 647
f 650 647 768
f 765 650 769
f 647 646 773
f 773 1009 647
f 646 645 648
f 771 700 766
f 766 774 771
f 646 648 772
f 772 773 646
f 645 771 648
f 648 771 774
f 774 772 648
f 775 772 774
f 658 627 705
f 777 778 705
f 705 627 777
f 707 706 674
f 706 705 780
f 894 780 705
f 779 894 705
f 778 779 705
f 627 776 781
f 781 777 627
f 782 781 776
f 782 776 783
f 654 655 783
f 674 706 780
f 780 789 674
f 786 782 783
f 784 786 783
f 783 656 784
f 625 653 656
f 656 785 784
f 788 785 656
f 789 788 653
f 653 674 789
f 656 653 788
f 665 666 668
f 797 795 666
f 666 665 797
f 662 665 663
f 793 797 665
f 792 793 665
f 794 795 797
f 795 796 667
f 667 666 795
f 667 796 802
f 802 628 667
f 798 792 665
f 665 662 798
f 661 660 629
f 799 802 796
f 801 800 661
f 802 801 659
f 659 628 802
f 661 659 801
f 660 661 800
f 662 660 803
f 803 798 662
f 800 803 660
f 722 725 723
f 719 806 721
f 716 807 764
f 718 808 715
f 724 805 727
f 635 804 731
f 809 664 676
f 809 706 708
f 809 707 704
f 676 706 809
f 808 711 710
f 808 718 712
f 708 707 809
f 808 709 664
f 712 711 808
f 664 809 808
f 710 709 808
f 704 702 809
f 731 739 736
f 731 735 734
f 731 740 739
f 731 679 741
f 736 735 731
f 731 742 679
f 741 740 731
f 744 743 742
f 742 731 744
f 810 731 804
f 811 804 635
f 812 635 757
f 812 757 730
f 816 730 727
f 817 727 805
f 819 805 725
f 820 725 722
f 821 722 721
f 935 721 806
f 823 806 762
f 825 762 807
f 825 807 716
f 999 716 715
f 999 715 808
f 808 826 999
f 716 999 825
f 762 825 824
f 762 824 823
f 806 823 822
f 806 822 935
f 721 935 821
f 722 821 820
f 725 820 819
f 805 819 818
f 805 818 817
f 727 817 816
f 730 816 815
f 730 815 814
f 730 814 813
f 730 813 812
f 635 812 811
f 804 811 810
f 702 701 809
f 808 809 827
f 827 826 808
f 816 817 925
f 829 811 812
f 811 830 810
f 829 830 811
f 731 810 831
f 831 744 731
f 745 832 746
f 832 745 747
f 826 892 833
f 827 837 834
f 833 1000 826
f 834 826 827
f 826 835 999
f 834 892 826
f 827 836 837
f 827 838 839
f 839 836 827
f 840 827 809
f 841 840 701
f 701 697 841
f 809 701 840
f 810 842 916
f 831 844 845
f 810 846 844
f 810 847 842
f 831 908 843
f 844 831 810
f 810 848 847
f 845 908 831
f 916 846 810
f 849 746 832
f 850 832 744
f 744 831 850
f 832 850 849
f 692 694 851
f 841 697 696
f 853 696 695
f 695 859 853
f 696 853 855
f 696 855 852
f 696 852 841
f 695 693 854
f 854 859 695
f 854 693 692
f 858 692 851
f 856 851 746
f 746 849 856
f 851 856 858
f 692 858 854
f 687 670 714
f 687 669 860
f 860 862 687
f 862 670 687
f 714 861 718
f 861 713 718
f 864 863 860
f 863 864 861
f 861 714 863
f 713 861 864
f 860 713 864
f 862 860 863
f 670 862 863
f 714 670 863
f 864 955 865
f 960 866 863
f 866 867 863
f 868 948 863
f 863 864 957
f 864 863 948
f 869 638 671
f 642 672 639
f 748 673 610
f 875 870 642
f 871 875 869
f 872 871 671
f 870 872 748
f 672 642 870
f 748 672 870
f 673 748 872
f 671 673 872
f 869 671 871
f 642 869 875
f 962 873 870
f 617 874 872
f 876 962 870
f 871 872 874
f 877 723 725
f 683 726 877
f 877 805 724
f 879 878 805
f 934 879 877
f 884 934 877
f 878 884 725
f 877 725 884
f 805 877 879
f 725 805 878
f 881 882 934
f 878 879 883
f 879 934 882
f 934 884 880
f 707 674 885
f 703 885 674
f 887 886 703
f 886 887 707
f 707 885 886
f 703 707 887
f 885 703 886
f 889 887 886
f 675 705 890
f 892 891 676
f 893 892 676
f 891 893 664
f 664 675 891
f 676 664 893
f 705 676 891
f 890 705 891
f 675 890 891
f 699 697 895
f 896 897 645
f 899 898 896
f 900 899 699
f 901 900 895
f 897 901 895
f 895 698 897
f 699 895 900
f 645 699 899
f 896 645 899
f 897 896 898
f 897 898 899
f 901 897 902
f 646 747 745
f 745 677 646
f 905 904 646
f 906 905 746
f 994 906 694
f 905 994 677
f 904 905 677
f 677 646 904
f 694 677 994
f 746 694 906
f 745 746 905
f 677 745 905
f 646 677 905
f 857 904 905
f 994 905 904
f 680 907 649
f 907 678 649
f 678 681 647
f 843 908 681
f 909 843 681
f 908 909 680
f 907 680 909
f 678 907 909
f 681 678 909
f 680 681 908
f 910 911 909
f 911 912 909
f 626 737 627
f 914 913 737
f 916 914 737
f 914 916 738
f 915 914 737
f 913 915 626
f 626 737 913
f 737 626 915
f 738 737 914
f 737 738 916
f 916 913 914
f 683 877 729
f 877 724 729
f 727 917 728
f 727 644 917
f 683 682 644
f 682 917 644
f 729 682 683
f 918 921 728
f 920 918 682
f 921 920 729
f 729 728 921
f 682 729 920
f 683 682 918
f 682 683 918
f 917 682 918
f 728 917 918
f 921 918 925
f 919 921 926
f 921 919 926
f 920 921 879
f 918 920 928
f 928 922 918
f 929 928 920
f 928 929 920
f 879 928 920
f 883 879 921
f 927 883 921
f 926 927 921
f 925 926 921
f 923 925 918
f 924 923 918
f 923 924 918
f 922 923 918
f 723 877 686
f 877 726 686
f 685 930 726
f 930 686 726
f 686 722 723
f 722 931 720
f 931 684 719
f 684 930 685
f 934 932 722
f 933 934 930
f 934 933 685
f 932 934 684
f 931 722 932
f 684 931 932
f 930 684 934
f 685 930 934
f 930 685 933
f 686 930 934
f 722 686 934
f 936 937 932
f 933 939 934
f 932 934 880
f 933 934 938
f 934 932 937
f 715 716 942
f 764 717 943
f 717 687 943
f 714 718 941
f 941 943 687
f 943 716 764
f 942 941 718
f 944 946 941
f 946 944 716
f 716 943 946
f 942 716 944
f 941 942 944
f 943 941 946
f 945 946 944
f 947 944 946
f 946 945 948
f 947 946 952
f 944 947 952
f 945 944 954
f 955 948 945
f 954 955 945
f 953 954 944
f 952 953 944
f 951 952 946
f 950 951 946
f 949 950 946
f 948 949 946
f 633 860 690
f 691 689 688
f 689 860 669
f 957 960 669
f 956 957 689
f 957 956 690
f 960 957 689
f 689 669 960
f 860 689 957
f 690 860 957
f 691 690 956
f 689 691 956
f 669 689 957
f 957 956 959
f 956 957 958
f 639 640 961
f 640 759 961
f 759 636 641
f 636 638 641
f 642 641 638
f 641 637 759
f 637 961 759
f 961 642 639
f 963 962 642
f 964 963 642
f 962 964 961
f 642 961 964
f 641 642 962
f 637 641 962
f 961 637 962
f 876 965 962
f 966 967 962
f 963 964 1006
f 748 969 672
f 972 971 750
f 973 972 749
f 974 973 672
f 975 974 748
f 976 975 748
f 977 976 756
f 978 977 756
f 979 978 756
f 980 979 755
f 981 980 755
f 971 981 754
f 753 752 971
f 754 753 971
f 755 754 981
f 968 755 979
f 756 968 979
f 748 756 976
f 970 748 974
f 748 970 974
f 969 748 974
f 672 969 974
f 749 672 973
f 750 749 972
f 751 750 971
f 752 751 971
f 631 630 632
f 983 982 631
f 986 983 630
f 984 986 631
f 985 984 631
f 982 985 631
f 632 631 986
f 631 632 986
f 630 631 986
f 631 630 983
f 757 759 760
f 988 987 757
f 990 988 758
f 988 990 758
f 989 988 758
f 987 989 758
f 644 757 987
f 758 644 987
f 760 758 988
f 757 760 988
f 990 991 988
f 992 812 988
f 775 993 994
f 796 997 777
f 956 833 893
f 873 963 1006
f 829 962 967
f 1005 962 965
f 829 1006 964
f 873 962 963
f 1005 966 962
f 964 962 829
f 829 1005 1003
f 899 775 774
f 838 766 770
f 1007 770 766
f 911 769 768
f 1008 772 775
f 773 772 1008
f 769 791 790
f 767 790 785
f 785 788 1007
f 788 836 1007
f 788 789 836
f 997 778 777
f 996 777 781
f 996 781 782
f 995 996 782
f 784 769 911
f 787 782 911
f 911 786 784
f 782 786 911
f 995 782 787
f 1002 800 801
f 1002 1001 800
f 801 915 1002
f 998 777 799
f 777 802 799
f 801 802 777
f 998 799 796
f 795 794 796
f 893 796 794
f 794 797 893
f 1010 797 793
f 793 792 1010
f 1001 616 798
f 798 803 1001
f 1001 803 800
f 868 863 867
f 1004 958 957
f 957 864 1004
f 864 948 955
f 616 1001 874
f 871 874 1001
f 1001 1005 871
f 874 617 616
f 1005 876 870
f 870 875 1005
f 796 891 894
f 796 893 891
f 909 912 768
f 909 768 1009
f 995 909 908
f 995 910 909
f 914 915 996
f 916 914 996
f 618 617 872
f 798 616 615
f 615 614 798
f 988 989 923
f 988 923 1006
f 990 988 1006
f 992 988 829
f 829 988 991
f 1010 959 956
f 956 958 1000
f 960 957 959
f 1004 955 954
f 1012 953 952
f 952 951 1011
f 868 949 948
f 952 1011 1012
f 1010 792 986
f 986 984 1010
f 798 621 983
f 986 792 798
f 798 983 986
f 984 959 1010
f 985 982 959
f 984 985 959
f 621 982 983
f 982 621 959
f 934 939 940
f 934 937 938
f 1013 824 1012
f 1013 1014 824
f 937 1015 938
f 993 899 859
f 994 993 859
f 906 856 849
f 854 858 906
f 858 856 906
f 849 905 906
f 906 994 854
f 905 850 857
f 905 849 850
f 994 904 1008
f 1009 1008 831
f 1008 857 850
f 850 831 1008
f 996 995 845
f 995 908 845
f 996 844 846
f 842 847 913
f 915 913 1002
f 913 847 1002
f 913 916 842
f 1002 847 848
f 829 810 830
f 1003 848 810
f 810 829 1003
f 812 987 988
f 989 987 923
f 923 813 814
f 923 815 816
f 923 812 813
f 814 815 923
f 926 925 817
f 817 818 926
f 818 883 927
f 927 926 818
f 819 820 884
f 820 880 884
f 878 883 818
f 818 884 878
f 818 819 884
f 940 881 934
f 879 882 928
f 932 880 820
f 932 820 821
f 932 821 935
f 935 936 932
f 935 822 937
f 822 823 937
f 1014 823 824
f 825 828 1012
f 825 999 954
f 953 1012 828
f 954 953 825
f 999 1004 954
f 1004 999 835
f 956 1000 833
f 892 834 891
f 789 834 837
f 834 789 780
f 780 891 834
f 997 894 778
f 894 779 778
f 891 780 894
f 836 839 887
f 838 888 886
f 886 888 1007
f 838 886 887
f 887 889 836
f 889 886 1007
f 839 838 887
f 838 774 766
f 841 899 774
f 841 901 902
f 841 900 901
f 903 900 841
f 899 900 903
f 899 852 855
f 899 841 852
f 855 853 899
f 928 971 972
f 972 923 928
f 873 1006 973
f 972 973 1006
f 872 973 974
f 870 873 973
f 872 870 973
f 974 618 872
f 974 620 618
f 959 620 976
f 975 976 620
f 959 976 977
f 974 975 620
f 960 977 978
f 978 979 960
f 977 960 959
f 938 979 980
f 979 938 868
f 940 933 971
f 933 981 971
f 933 980 981
f 971 928 940
f 972 1006 923
f 853 859 899
f 838 841 774
f 837 836 789
f 833 892 893
f 835 1000 1004
f 828 825 953
f 824 825 1012
f 823 1014 937
f 816 925 923
f 848 1003 1001
f 848 1001 1002
f 846 916 996
f 845 844 996
f 909 1009 843
f 831 843 1009
f 859 854 994
f 957 960 863
f 614 621 798
f 894 997 796
f 875 871 1005
f 864 865 1004
f 801 777 915
f 784 791 769
f 790 767 769
f 980 933 938
f 868 938 1011
f 960 979 868
f 865 955 1004
f 1001 1003 1005
f 621 620 959
f 1000 958 1004
f 893 1010 956
f 996 915 777
f 777 998 796
f 994 1008 775
f 993 775 899
f 1012 1011 1013
f 938 1013 1011
f 938 1015 719
f 1013 938 684
f 1011 1013 1016
f 1013 1011 1016
f 1014 1013 764
f 1015 1014 762
f 762 761 1015
f 764 762 1014
f 1016 764 1013
f 684 1016 1013
f 763 684 938
f 719 763 938
f 761 719 1015
f 1019 1020 1022
f 1021 1022 1020
f 1018 1020 1019
f 1017 1018 1019
f 1022 1017 1019
f 1191 1027 1025
f 1023 1025 1024
f 1024 1025 1027
f 1180 1035 1036
f 1054 1180 1037
f 1123 1040 1041
f 1042 1039 1043
f 1046 1044 1039
f 1045 1042 1044
f 1046 1045 1044
f 1039 1045 1046
f 1122 1107 1047
f 1054 1055 1180
f 1037 1058 1080
f 1030 1059 1029
f 1030 1060 1027
f 1060 1024 1027
f 1029 1028 1061
f 1024 1061 1062
f 1023 1024 1065
f 1024 1026 1064
f 1064 1065 1024
f 1030 1027 1066
f 1071 1066 1027
f 1194 1065 1064
f 1064 1026 1067
f 1194 1023 1065
f 1023 1068 1069
f 1023 1069 1191
f 1070 1071 1027
f 1066 1072 1031
f 1031 1059 1030
f 1031 1221 1059
f 1029 1059 1221
f 1219 1029 1073
f 1219 1074 1029
f 1076 1075 1028
f 1074 1076 1029
f 1076 1219 1073
f 1073 1218 1076
f 1028 1029 1076
f 1218 1075 1076
f 1077 1033 1237
f 1078 1077 1035
f 1078 1035 1033
f 1050 1033 1035
f 1047 1109 1083
f 1083 1082 1122
f 1047 1083 1122
f 1049 1117 1086
f 1086 1085 1048
f 1117 1085 1086
f 1048 1049 1086
f 1088 1100 1038
f 1090 1091 1028
f 1063 1090 1026
f 1226 1058 1037
f 1226 1092 1058
f 1036 1226 1037
f 1057 1080 1093
f 1081 1094 1095
f 1096 1032 1052
f 1097 1096 1052
f 1099 1097 1052
f 1096 1099 1032
f 1098 1237 1099
f 1099 1237 1032
f 1103 1100 1089
f 1089 1052 1103
f 1102 1101 1034
f 1101 1103 1052
f 1038 1051 1106
f 1106 1088 1038
f 1124 1104 1105
f 1105 1054 1124
f 1105 1106 1051
f 1105 1051 1054
f 1107 1109 1047
f 1110 1108 1109
f 1107 1110 1109
f 1151 1043 1112
f 1111 1113 1043
f 1113 1112 1043
f 1114 1131 1151
f 1107 1151 1123
f 1108 1115 1081
f 1115 1041 1081
f 1048 1119 1042
f 1042 1049 1048
f 1107 1122 1116
f 1122 1049 1116
f 1107 1116 1151
f 1118 1117 1049
f 1084 1049 1122
f 1084 1118 1049
f 1256 1084 1120
f 1084 1122 1121
f 1121 1120 1084
f 1120 1122 1082
f 1119 1017 1022
f 1022 1021 1119
f 1042 1119 1020
f 1044 1042 1020
f 1020 1018 1044
f 1140 1151 1131
f 1140 1123 1151
f 1124 1128 1104
f 1081 1041 1125
f 1129 1087 1104
f 1128 1129 1104
f 1114 1039 1130
f 1039 1087 1130
f 1126 1132 1133
f 1133 1134 1126
f 1135 1136 1137
f 1132 1138 1133
f 1126 1040 1123
f 1137 1139 1135
f 1136 1140 1141
f 1131 1141 1140
f 1144 1143 1142
f 1143 1135 1142
f 1133 1138 1144
f 1123 1132 1126
f 1141 1137 1136
f 1142 1133 1144
f 1139 1142 1135
f 1130 1131 1114
f 1127 1057 1094
f 1127 1094 1081
f 1125 1127 1081
f 1125 1041 1040
f 1018 1017 1044
f 1021 1020 1119
f 1119 1085 1017
f 1118 1084 1117
f 1151 1042 1043
f 1041 1107 1123
f 1112 1114 1151
f 1106 1104 1088
f 1100 1102 1034
f 1091 1061 1028
f 1090 1028 1237
f 1089 1099 1052
f 1088 1089 1100
f 1088 1104 1087
f 1044 1087 1039
f 1081 1109 1108
f 1079 1036 1035
f 1050 1052 1033
f 1075 1077 1237
f 1221 1073 1029
f 1064 1067 1194
f 1066 1031 1030
f 1063 1026 1062
f 1024 1062 1026
f 1056 1057 1124
f 1054 1056 1124
f 1053 1034 1101
f 1053 1101 1052
f 1052 1032 1033
f 1051 1055 1054
f 1034 1051 1038
f 1045 1039 1042
f 1111 1043 1039
f 1114 1111 1039
f 1034 1038 1100
f 1036 1037 1180
f 1035 1180 1050
f 1237 1033 1032
f 1028 1075 1237
f 1025 1023 1191
f 1149 1148 1150
f 1150 1147 1149
f 1149 1201 1148
f 1201 1149 1147
f 1150 1242 1274
f 1147 1150 1274
f 1155 1171 1156
f 1157 1156 1172
f 1158 1179 1226
f 1172 1158 1159
f 1236 1160 1216
f 1161 1162 1164
f 1162 1218 1164
f 1166 1169 1168
f 1051 1156 1171
f 1171 1180 1051
f 1172 1180 1158
f 1081 1211 1174
f 1174 1153 1081
f 1236 1176 1177
f 1158 1171 1178
f 1180 1171 1158
f 1164 1182 1029
f 1166 1167 1196
f 1196 1183 1166
f 1184 1029 1185
f 1183 1184 1185
f 1185 1166 1183
f 1194 1166 1192
f 1166 1194 1186
f 1187 1167 1166
f 1186 1187 1166
f 1181 1165 1189
f 1072 1189 1165
f 1170 1188 1072
f 1168 1193 1192
f 1167 1090 1196
f 1184 1195 1090
f 1195 1196 1090
f 1184 1090 1164
f 1176 1197 1199
f 1155 1157 1198
f 1157 1199 1198
f 1145 1085 1204
f 1204 1205 1145
f 1204 1085 1117
f 1209 1207 1247
f 1207 1208 1109
f 1153 1210 1081
f 1225 1211 1212
f 1211 1154 1212
f 1212 1058 1225
f 1159 1158 1228
f 1213 1160 1214
f 1159 1213 1214
f 1214 1172 1159
f 1217 1216 1160
f 1160 1213 1078
f 1215 1216 1213
f 1161 1216 1215
f 1164 1218 1220
f 1182 1219 1221
f 1220 1218 1221
f 1220 1182 1164
f 1181 1221 1223
f 1223 1224 1181
f 1221 1222 1223
f 1224 1222 1181
f 1081 1234 1229
f 1211 1081 1230
f 1229 1230 1081
f 1154 1211 1230
f 1231 1232 1233
f 1233 1212 1231
f 1154 1231 1212
f 1095 1233 1234
f 1235 1237 1098
f 1157 1172 1238
f 1238 1199 1157
f 1176 1238 1172
f 1238 1176 1199
f 1155 1198 1240
f 1263 1171 1239
f 1171 1240 1239
f 1207 1109 1210
f 1210 1152 1241
f 1131 1242 1243
f 1260 1246 1153
f 1152 1153 1246
f 1245 1248 1244
f 1248 1247 1244
f 1247 1148 1145
f 1247 1249 1148
f 1148 1249 1243
f 1250 1251 1206
f 1251 1205 1117
f 1145 1205 1252
f 1247 1145 1252
f 1255 1085 1145
f 1255 1253 1085
f 1255 1145 1148
f 1257 1146 1250
f 1258 1250 1256
f 1258 1257 1250
f 1146 1208 1247
f 1201 1017 1019
f 1020 1019 1254
f 1020 1254 1148
f 1019 1017 1254
f 1020 1148 1201
f 1019 1020 1201
f 1131 1243 1259
f 1260 1175 1267
f 1243 1260 1259
f 1261 1259 1260
f 1134 1263 1262
f 1265 1264 1266
f 1264 1262 1266
f 1267 1175 1264
f 1264 1265 1267
f 1266 1272 1273
f 1272 1266 1270
f 1271 1270 1269
f 1266 1273 1265
f 1269 1268 1271
f 1259 1269 1131
f 1270 1271 1272
f 1275 1198 1200
f 1200 1201 1275
f 1276 1263 1239
f 1276 1262 1263
f 1275 1276 1239
f 1275 1239 1198
f 1274 1275 1201
f 1208 1258 1256
f 1254 1255 1148
f 1252 1250 1247
f 1251 1252 1205
f 1251 1117 1206
f 1151 1245 1260
f 1242 1131 1274
f 1210 1244 1207
f 1241 1152 1244
f 1240 1171 1155
f 1239 1240 1198
f 1236 1161 1235
f 1232 1234 1233
f 1221 1181 1182
f 1221 1219 1220
f 1215 1218 1162
f 1215 1162 1161
f 1078 1217 1160
f 1228 1213 1159
f 1058 1227 1225
f 1208 1209 1247
f 1206 1256 1250
f 1203 1204 1117
f 1017 1253 1254
f 1202 1017 1201
f 1201 1147 1274
f 1197 1176 1236
f 1237 1235 1161
f 1191 1168 1170
f 1072 1190 1170
f 1188 1170 1189
f 1187 1194 1167
f 1184 1164 1029
f 1166 1189 1169
f 1179 1211 1225
f 1178 1179 1158
f 1177 1160 1236
f 1173 1211 1263
f 1051 1172 1156
f 1170 1169 1189
f 1170 1168 1169
f 1168 1192 1166
f 1165 1181 1222
f 1164 1090 1163
f 1164 1163 1161
f 1216 1161 1236
f 1225 1226 1179
f 1156 1157 1155
f 1210 1153 1152
f 1153 1175 1260
f 1260 1243 1151
f 1243 1242 1150
f 1207 1244 1247
f 1243 1150 1148
f 1146 1247 1250
f 1031 1072 1222
f 1165 1222 1072
f 1072 1070 1027
f 1190 1027 1191
f 1191 1069 1168
f 1192 1193 1023
f 1068 1023 1193
f 1193 1168 1068
f 1067 1026 1167
f 1167 1194 1067
f 1023 1194 1192
f 1069 1068 1168
f 1191 1170 1190
f 1027 1190 1072
f 1031 1222 1221
f 1218 1073 1221
f 1035 1213 1228
f 1228 1079 1035
f 1079 1228 1092
f 1215 1213 1077
f 1075 1218 1215
f 1215 1077 1075
f 1035 1077 1213
f 1212 1080 1058
f 1233 1093 1080
f 1080 1212 1233
f 1093 1233 1095
f 1234 1081 1095
f 1109 1081 1210
f 1227 1058 1092
f 1202 1201 1044
f 1017 1202 1044
f 1085 1253 1017
f 1205 1203 1117
f 1117 1084 1206
f 1206 1084 1256
f 1208 1256 1082
f 1208 1082 1083
f 1109 1208 1083
f 1120 1082 1256
f 1201 1087 1044
f 1201 1200 1087
f 1088 1087 1200
f 1200 1198 1088
f 1089 1088 1198
f 1198 1199 1089
f 1089 1199 1197
f 1197 1099 1089
f 1099 1197 1235
f 1098 1099 1235
f 1161 1163 1237
f 1163 1090 1237
f 1026 1090 1167
f 1178 1171 1054
f 1178 1037 1080
f 1080 1179 1178
f 1054 1037 1178
f 1080 1057 1211
f 1080 1211 1179
f 1263 1211 1057
f 1057 1056 1263
f 1263 1056 1054
f 1171 1263 1054
f 1034 1053 1176
f 1050 1034 1172
f 1176 1172 1034
f 1176 1053 1052
f 1052 1177 1176
f 1052 1160 1177
f 1214 1160 1052
f 1052 1050 1214
f 1172 1214 1050
f 1057 1211 1173
f 1057 1127 1211
f 1127 1125 1153
f 1127 1153 1174
f 1127 1174 1211
f 1264 1175 1040
f 1264 1126 1134
f 1134 1262 1264
f 1153 1125 1040
f 1040 1175 1153
f 1040 1126 1264
f 1134 1128 1263
f 1124 1057 1173
f 1128 1124 1263
f 1173 1263 1124
f 1128 1134 1262
f 1137 1141 1269
f 1139 1137 1269
f 1142 1139 1269
f 1133 1142 1270
f 1134 1133 1266
f 1266 1262 1134
f 1270 1266 1133
f 1269 1270 1142
f 1131 1269 1141
f 1130 1274 1131
f 1274 1130 1087
f 1087 1275 1274
f 1129 1128 1276
f 1087 1129 1276
f 1276 1275 1087
f 1262 1276 1128
f 1051 1034 1172
f 1034 1050 1172
f 1050 1180 1172
f 1051 1180 1055
f 1257 1258 1120
f 1146 1257 1122
f 1121 1122 1257
f 1208 1146 1122
f 1258 1208 1120
f 1122 1120 1208
f 1120 1121 1257
f 1254 1253 1119
f 1255 1254 1119
f 1253 1255 1085
f 1048 1085 1255
f 1119 1048 1255
f 1085 1119 1253
f 1252 1251 1118
f 1250 1252 1084
f 1251 1250 1084
f 1084 1118 1251
f 1118 1084 1252
f 1207 1209 1047
f 1208 1207 1083
f 1209 1208 1083
f 1047 1083 1207
f 1083 1047 1209
f 1249 1247 1042
f 1243 1249 1042
f 1248 1245 1151
f 1247 1248 1116
f 1116 1049 1247
f 1049 1042 1247
f 1151 1116 1248
f 1042 1151 1243
f 1260 1245 1107
f 1246 1260 1041
f 1152 1246 1115
f 1244 1152 1108
f 1245 1244 1107
f 1108 1107 1244
f 1115 1108 1152
f 1041 1115 1246
f 1107 1041 1260
f 1242 1243 1111
f 1243 1242 1114
f 1114 1112 1243
f 1111 1114 1242
f 1113 1111 1243
f 1112 1113 1243
f 1149 1201 1046
f 1201 1149 1045
f 1046 1045 1149
f 1045 1046 1201
f 1244 1210 1107
f 1241 1244 1108
f 1210 1241 1108
f 1110 1107 1210
f 1108 1110 1210
f 1107 1108 1244
f 1150 1147 1043
f 1147 1150 1043
f 1205 1204 1086
f 1203 1205 1086
f 1204 1203 1086
f 1240 1239 1104
f 1239 1240 1105
f 1105 1104 1239
f 1106 1105 1240
f 1104 1106 1240
f 1176 1238 1103
f 1238 1176 1101
f 1102 1100 1238
f 1101 1102 1238
f 1103 1101 1176
f 1100 1103 1238
f 1235 1197 1099
f 1236 1235 1099
f 1099 1096 1236
f 1197 1236 1096
f 1096 1097 1197
f 1097 1099 1197
f 1216 1217 1033
f 1213 1216 1033
f 1078 1213 1077
f 1033 1077 1213
f 1078 1033 1217
f 1154 1230 1057
f 1231 1154 1057
f 1232 1231 1057
f 1057 1093 1234
f 1234 1232 1057
f 1229 1234 1095
f 1095 1094 1229
f 1230 1229 1094
f 1093 1095 1234
f 1094 1057 1230
f 1158 1226 1036
f 1228 1158 1036
f 1092 1228 1079
f 1225 1227 1092
f 1092 1226 1225
f 1036 1079 1228
f 1223 1222 1059
f 1224 1223 1059
f 1222 1224 1059
f 1031 1059 1222
f 1059 1031 1222
f 1188 1189 1066
f 1072 1188 1071
f 1072 1066 1189
f 1071 1070 1072
f 1066 1071 1188
f 1169 1170 1024
f 1170 1169 1024
f 1025 1024 1170
f 1024 1025 1170
f 1194 1187 1064
f 1186 1194 1065
f 1187 1186 1065
f 1064 1065 1194
f 1065 1064 1187
f 1195 1184 1090
f 1196 1195 1090
f 1183 1196 1062
f 1184 1183 1061
f 1061 1091 1184
f 1062 1061 1183
f 1063 1062 1196
f 1090 1063 1196
f 1091 1090 1184
f 1182 1220 1076
f 1219 1076 1220
f 1074 1219 1182
f 1076 1074 1182
f 1182 1181 1029
f 1166 1185 1024
f 1189 1166 1024
f 1181 1189 1030
f 1030 1029 1181
f 1060 1030 1189
f 1024 1060 1189
f 1061 1024 1185
f 1029 1061 1185
f 1269 1259 1140
f 1268 1269 1140
f 1271 1268 1136
f 1272 1271 1144
f 1273 1272 1138
f 1265 1273 1138
f 1267 1265 1132
f 1260 1267 1123
f 1261 1260 1123
f 1259 1261 1123
f 1132 1123 1267
f 1138 1132 1265
f 1144 1138 1272
f 1143 1144 1271
f 1135 1143 1271
f 1136 1135 1271
f 1140 1136 1268
f 1123 1140 1259

